{"asset":{"version":"2.0","generator":"babylon.js glTF exporter for 3dsmax 2021 v20251111.2"},"scene":0,"scenes":[{"nodes":[0,1,2,3,4,5,6,7,8]}],"nodes":[{"mesh":0,"translation":[202.996857,1.0265625E-05,-495.642365],"scale":[1.1,1.1,1.1],"name":"Plane001"},{"translation":[293.5424,5.85858,-647.546],"rotation":[0.0,-0.008404176,0.0,0.9999647],"name":"Box047"},{"mesh":1,"translation":[459.935,17.345829,-595.68634],"rotation":[0.0,0.34693566,0.0,0.9378889],"name":"Box064"},{"mesh":2,"translation":[569.699463,10.8191509,-343.129456],"name":"Object004"},{"mesh":3,"translation":[-32.46828,13.5,-455.4473],"name":"Object037"},{"mesh":4,"translation":[406.105927,1.89859366,-978.435],"name":"Object046"},{"mesh":5,"translation":[377.320953,5.85850525,-649.5521],"rotation":[0.0,-0.008404155,0.0,0.9999647],"name":"Object054"},{"mesh":6,"translation":[733.2843,0.67578125,-425.191284],"rotation":[0.0,0.339380115,0.0,0.940649331],"scale":[0.99999994,1.0,0.99999994],"name":"Text002"},{"mesh":7,"translation":[238.497742,16.4663773,-618.8801],"rotation":[0.0,0.156115547,0.0,0.987738848],"scale":[1.10224617,1.102246,1.10224617],"name":"Object072"}],"meshes":[{"primitives":[{"attributes":{"POSITION":1,"NORMAL":2,"TEXCOORD_0":3},"indices":0,"material":0}],"name":"Plane001"},{"primitives":[{"attributes":{"POSITION":5,"NORMAL":6,"TEXCOORD_0":7,"TEXCOORD_2":8},"indices":4,"material":1}],"name":"Box064"},{"primitives":[{"attributes":{"POSITION":10,"NORMAL":11,"TEXCOORD_0":12},"indices":9,"material":2}],"name":"Object004"},{"primitives":[{"attributes":{"POSITION":14,"NORMAL":15,"TEXCOORD_0":16},"indices":13,"material":3}],"name":"Object037"},{"primitives":[{"attributes":{"POSITION":18,"NORMAL":19,"TEXCOORD_0":20,"TEXCOORD_2":21},"indices":17,"material":4}],"name":"Object046"},{"primitives":[{"attributes":{"POSITION":23,"NORMAL":24,"TEXCOORD_0":25},"indices":22,"material":5}],"name":"Object054"},{"primitives":[{"attributes":{"POSITION":27,"NORMAL":28,"TEXCOORD_0":29},"indices":26,"material":6}],"name":"Text002"},{"primitives":[{"attributes":{"POSITION":31,"NORMAL":32,"TEXCOORD_0":33},"indices":30,"material":7},{"attributes":{"POSITION":35,"NORMAL":36,"TEXCOORD_0":37},"indices":34,"material":8}],"name":"Object072"}],"accessors":[{"bufferView":0,"componentType":5123,"count":141,"type":"SCALAR","name":"accessorIndices"},{"bufferView":1,"componentType":5126,"count":97,"max":[871.5801,-5E-07,837.9761],"min":[-849.0955,-21.8130665,-788.128357],"type":"VEC3","name":"accessorPositions"},{"bufferView":1,"byteOffset":1164,"componentType":5126,"count":97,"type":"VEC3","name":"accessorNormals"},{"bufferView":2,"componentType":5126,"count":97,"type":"VEC2","name":"accessorUVs"},{"bufferView":0,"byteOffset":284,"componentType":5123,"count":80712,"type":"SCALAR","name":"accessorIndices"},{"bufferView":1,"byteOffset":2328,"componentType":5126,"count":33632,"max":[53.1199875,20.578516,59.2763367],"min":[-196.1077,-17.34581,-44.84967],"type":"VEC3","name":"accessorPositions"},{"bufferView":1,"byteOffset":405912,"componentType":5126,"count":33632,"type":"VEC3","name":"accessorNormals"},{"bufferView":2,"byteOffset":776,"componentType":5126,"count":33632,"type":"VEC2","name":"accessorUVs"},{"bufferView":2,"byteOffset":269832,"componentType":5126,"count":33632,"type":"VEC2","name":"accessorUV3s"},{"bufferView":0,"byteOffset":161708,"componentType":5123,"count":32406,"type":"SCALAR","name":"accessorIndices"},{"bufferView":1,"byteOffset":809496,"componentType":5126,"count":14941,"max":[402.270782,23.1808548,664.877258],"min":[-624.0036,-10.8191566,-243.4885],"type":"VEC3","name":"accessorPositions"},{"bufferView":1,"byteOffset":988788,"componentType":5126,"count":14941,"type":"VEC3","name":"accessorNormals"},{"bufferView":2,"byteOffset":538888,"componentType":5126,"count":14941,"type":"VEC2","name":"accessorUVs"},{"bufferView":0,"byteOffset":226520,"componentType":5123,"count":34581,"type":"SCALAR","name":"accessorIndices"},{"bufferView":1,"byteOffset":1168080,"componentType":5126,"count":14133,"max":[58.49068,26.317009,523.950867],"min":[-564.4527,-13.5000229,-332.10788],"type":"VEC3","name":"accessorPositions"},{"bufferView":1,"byteOffset":1337676,"componentType":5126,"count":14133,"type":"VEC3","name":"accessorNormals"},{"bufferView":2,"byteOffset":658416,"componentType":5126,"count":14133,"type":"VEC2","name":"accessorUVs"},{"bufferView":0,"byteOffset":295684,"componentType":5123,"count":22068,"type":"SCALAR","name":"accessorIndices"},{"bufferView":1,"byteOffset":1507272,"componentType":5126,"count":11351,"max":[220.145081,30.2952538,582.248352],"min":[-423.5231,-1.89859617,-116.359291],"type":"VEC3","name":"accessorPositions"},{"bufferView":1,"byteOffset":1643484,"componentType":5126,"count":11351,"type":"VEC3","name":"accessorNormals"},{"bufferView":2,"byteOffset":771480,"componentType":5126,"count":11351,"type":"VEC2","name":"accessorUVs"},{"bufferView":2,"byteOffset":862288,"componentType":5126,"count":11351,"type":"VEC2","name":"accessorUV3s"},{"bufferView":0,"byteOffset":339820,"componentType":5123,"count":69048,"type":"SCALAR","name":"accessorIndices"},{"bufferView":1,"byteOffset":1779696,"componentType":5126,"count":25259,"max":[22.0641289,5.858589,134.729034],"min":[-190.846481,-5.85848761,-125.406639],"type":"VEC3","name":"accessorPositions"},{"bufferView":1,"byteOffset":2082804,"componentType":5126,"count":25259,"type":"VEC3","name":"accessorNormals"},{"bufferView":2,"byteOffset":953096,"componentType":5126,"count":25259,"type":"VEC2","name":"accessorUVs"},{"bufferView":0,"byteOffset":477916,"componentType":5123,"count":38304,"type":"SCALAR","name":"accessorIndices"},{"bufferView":1,"byteOffset":2385912,"componentType":5126,"count":13380,"max":[188.676682,1.0,0.301345766],"min":[-51.73883,0.0,-62.29341],"type":"VEC3","name":"accessorPositions"},{"bufferView":1,"byteOffset":2546472,"componentType":5126,"count":13380,"type":"VEC3","name":"accessorNormals"},{"bufferView":2,"byteOffset":1155168,"componentType":5126,"count":13380,"type":"VEC2","name":"accessorUVs"},{"bufferView":0,"byteOffset":554524,"componentType":5125,"count":441672,"type":"SCALAR","name":"accessorIndices"},{"bufferView":1,"byteOffset":2707032,"componentType":5126,"count":86040,"max":[656.4099,14.4727345,514.488],"min":[-645.593567,-14.939229,-514.6155],"type":"VEC3","name":"accessorPositions"},{"bufferView":1,"byteOffset":3739512,"componentType":5126,"count":86040,"type":"VEC3","name":"accessorNormals"},{"bufferView":2,"byteOffset":1262208,"componentType":5126,"count":86040,"type":"VEC2","name":"accessorUVs"},{"bufferView":0,"byteOffset":2321212,"componentType":5125,"count":1456920,"type":"SCALAR","name":"accessorIndices"},{"bufferView":1,"byteOffset":4771992,"componentType":5126,"count":971280,"max":[659.270142,14.9392281,518.6195],"min":[-649.4129,-9.749269,-518.6194],"type":"VEC3","name":"accessorPositions"},{"bufferView":1,"byteOffset":16427352,"componentType":5126,"count":971280,"type":"VEC3","name":"accessorNormals"},{"bufferView":2,"byteOffset":1950528,"componentType":5126,"count":971280,"type":"VEC2","name":"accessorUVs"}],"bufferViews":[{"buffer":0,"byteLength":8148892,"name":"bufferViewScalar"},{"buffer":0,"byteOffset":8148892,"byteLength":28082712,"byteStride":12,"name":"bufferViewFloatVec3"},{"buffer":0,"byteOffset":36231604,"byteLength":9720768,"byteStride":8,"name":"bufferViewFloatVec2"}],"buffers":[{"uri":"Plan_1.bin","byteLength":45952372}],"materials":[{"pbrMetallicRoughness":{"baseColorTexture":{"index":0},"metallicFactor":0.0},"doubleSided":true,"name":"Material #85656","extras":{"babylonSeparateCullingPass":false}},{"pbrMetallicRoughness":{"baseColorTexture":{"index":1},"metallicFactor":0.0},"doubleSided":true,"name":"Material #85662","extras":{"babylonSeparateCullingPass":false}},{"pbrMetallicRoughness":{"baseColorTexture":{"index":2},"metallicFactor":0.0},"doubleSided":true,"name":"Material #85658","extras":{"babylonSeparateCullingPass":false}},{"pbrMetallicRoughness":{"baseColorTexture":{"index":3},"metallicFactor":0.0},"doubleSided":true,"name":"Material #85657","extras":{"babylonSeparateCullingPass":false}},{"pbrMetallicRoughness":{"baseColorTexture":{"index":4},"metallicFactor":0.0},"doubleSided":true,"name":"Material #85659","extras":{"babylonSeparateCullingPass":false}},{"pbrMetallicRoughness":{"baseColorTexture":{"index":5},"metallicFactor":0.0},"doubleSided":true,"name":"Material #85661","extras":{"babylonSeparateCullingPass":false}},{"pbrMetallicRoughness":{"baseColorTexture":{"index":6},"metallicFactor":0.0},"doubleSided":true,"name":"Material #85660","extras":{"babylonSeparateCullingPass":false}},{"pbrMetallicRoughness":{"baseColorFactor":[0.266666681,0.274509817,0.329411775,1.0],"metallicFactor":0.0},"doubleSided":true,"name":"Material #33"},{"pbrMetallicRoughness":{"baseColorFactor":[0.0838425,0.136690646,0.0481859073,1.0],"metallicFactor":0.0},"doubleSided":true,"name":"Material #39"}],"textures":[{"sampler":0,"source":0,"name":"PLAN_1.jpg"},{"sampler":0,"source":1,"name":"ECOGOROD_2-3.jpg"},{"sampler":0,"source":2,"name":"2.jpg"},{"sampler":0,"source":3,"name":"1.jpg"},{"sampler":0,"source":4,"name":"3.jpg"},{"sampler":0,"source":5,"name":"ECOGOROD_1.jpg"},{"sampler":0,"source":6,"name":"LOGO_1.jpg"}],"images":[{"uri":"PLAN_1.jpg"},{"uri":"ECOGOROD_2-3.jpg"},{"uri":"2.jpg"},{"uri":"1.jpg"},{"uri":"3.jpg"},{"uri":"ECOGOROD_1.jpg"},{"uri":"LOGO_1.jpg"}],"samplers":[{"magFilter":9729,"minFilter":9987}]}