<svg preserveAspectRatio="none" width="100%" height="100%" overflow="visible" style="display: block;" viewBox="0 0 47 44" fill="none" xmlns="http://www.w3.org/2000/svg">
<path id="Vector" fill-rule="evenodd" clip-rule="evenodd" d="M7.99547 0.684705C8.31826 -0.228235 9.68806 -0.228235 10.0108 0.684705L11.182 3.99656C11.5886 5.14669 12.5481 6.04791 13.7699 6.42681L17.3488 7.53665C18.3226 7.83862 18.3226 9.13728 17.3488 9.43925L13.7796 10.5461C12.5524 10.9267 11.59 11.8339 11.1865 12.9908L10.0122 16.3558C9.6919 17.274 8.31442 17.274 7.99412 16.3558L6.81691 12.9819C6.41501 11.8301 5.45908 10.9252 4.23915 10.5419L0.726266 9.43797C-0.242089 9.13366 -0.242089 7.84225 0.726266 7.53793L4.24864 6.43106C5.46338 6.04939 6.41659 5.15074 6.82142 4.00551L7.99547 0.684705ZM24.8671 11.9458C24.9141 11.8149 24.9604 11.6841 25.0061 11.5535C25.0825 11.3348 25.1566 11.1166 25.229 10.8997C25.2563 10.8174 25.2832 10.7356 25.3101 10.6537C25.4561 10.2069 25.5936 9.76572 25.722 9.33547C25.7895 9.10915 25.8546 8.8856 25.9175 8.66589C25.9715 8.47644 26.0239 8.28955 26.0741 8.10628C26.3117 7.24278 27.9672 7.24278 28.2048 8.10628C28.255 8.28891 28.307 8.47452 28.3607 8.66291L28.3614 8.66547C28.4243 8.88496 28.4894 9.1083 28.5567 9.33462C28.6853 9.76509 28.8228 10.2069 28.969 10.6537C28.9957 10.7356 29.0228 10.8174 29.0502 10.8997C29.1223 11.1166 29.1966 11.3346 29.273 11.5532C29.3187 11.6839 29.365 11.8147 29.4121 11.9458C30.455 14.8453 31.861 17.7851 33.6376 19.4601C35.4141 21.1348 38.5233 22.4599 41.589 23.4432C41.7274 23.4877 41.8659 23.5314 42.0041 23.5745C42.2335 23.6459 42.4622 23.7155 42.6901 23.7831C42.7771 23.8091 42.8639 23.8347 42.9505 23.8598C43.422 23.9973 43.8876 24.1266 44.3418 24.2477C44.5823 24.3116 44.8212 24.3738 45.0545 24.4333L45.0567 24.4339C45.2583 24.4853 45.4568 24.5347 45.6519 24.5827C46.5669 24.8071 46.5669 26.3657 45.6519 26.5901C45.457 26.6381 45.2588 26.6875 45.0574 26.7389C44.8234 26.7985 44.5847 26.8605 44.3433 26.9247C43.8892 27.0457 43.422 27.1755 42.9507 27.3132C42.8639 27.3383 42.7771 27.3639 42.6901 27.3899C42.4622 27.4574 42.2333 27.5269 42.0038 27.5983C41.8657 27.6414 41.7274 27.685 41.589 27.7296C38.5233 28.7128 35.4141 30.0379 33.6376 31.7127C31.8614 33.3873 30.4557 36.319 29.4127 39.2089C29.3657 39.3395 29.3194 39.4699 29.2737 39.6001C29.1978 39.8167 29.1241 40.0323 29.0522 40.2471C29.0248 40.3292 28.9977 40.411 28.9708 40.4926C28.8248 40.938 28.6876 41.3774 28.559 41.8062C28.4909 42.0325 28.4256 42.2567 28.3628 42.4764L28.3621 42.4785C28.3076 42.6684 28.255 42.8555 28.2043 43.0394C27.9663 43.9021 26.3128 43.9021 26.0748 43.0394C26.0239 42.856 25.9715 42.6688 25.9173 42.4792C25.8542 42.2586 25.7882 42.0336 25.7201 41.8062L25.7192 41.8036C25.5911 41.3757 25.4541 40.9372 25.3081 40.4928C25.2814 40.411 25.2541 40.3292 25.2267 40.2471C25.155 40.0323 25.0814 39.8164 25.0054 39.6001C24.96 39.4699 24.9136 39.3395 24.8664 39.2089C23.8235 36.319 22.4175 33.3873 20.6415 31.7127C18.8646 30.0377 15.7464 28.7124 12.6709 27.7287C12.5321 27.6844 12.3933 27.6407 12.2547 27.5979C12.0228 27.5259 11.7914 27.4557 11.561 27.3875C11.474 27.3618 11.3872 27.3362 11.3004 27.311C10.8264 27.1734 10.3585 27.0438 9.90212 26.9228C9.66206 26.859 9.42473 26.7975 9.19168 26.7384C8.99096 26.6877 8.79272 26.6381 8.59832 26.5905C7.68241 26.3668 7.68241 24.8058 8.59832 24.5822C8.79272 24.5347 8.99027 24.4855 9.191 24.4346C9.42314 24.3757 9.65958 24.3144 9.8985 24.2509L9.90212 24.25C10.3585 24.129 10.8264 23.9994 11.3004 23.8617C11.3872 23.8366 11.474 23.811 11.561 23.7852C11.7914 23.717 12.0228 23.6469 12.2547 23.5749C12.3933 23.5321 12.5321 23.4884 12.6709 23.444C15.7464 22.4604 18.8646 21.1351 20.6415 19.4601C22.4179 17.7851 23.8239 14.8453 24.8671 11.9458ZM30.7606 22.1725C32.252 23.5785 34.2493 24.6988 36.2816 25.5864C34.2493 26.474 32.252 27.5943 30.7606 29.0003C29.2694 30.4064 28.0809 32.2894 27.1397 34.2056C26.198 32.2894 25.0097 30.4064 23.5187 29.0005C22.0269 27.5943 20.0262 26.4738 17.99 25.5864C20.0262 24.699 22.0264 23.5789 23.5183 22.1727C25.0097 20.7664 26.1985 18.8802 27.1395 16.9606C28.0807 18.8802 29.269 20.766 30.7606 22.1725Z" fill="var(--fill-0, #141414)"/>
</svg>
