<svg preserveAspectRatio="none" width="100%" height="100%" overflow="visible" style="display: block;" viewBox="0 0 16 101" fill="none" xmlns="http://www.w3.org/2000/svg">
<path id="Vector 70" d="M13.5 99.6444C13.5528 99.1703 13.6147 98.4556 13.6598 97.9049C13.6738 97.7374 13.7258 97.8235 13.7373 97.7054C13.7595 97.4639 13.7324 97.2582 13.7535 97.0173C13.7608 96.9423 13.8462 97.0345 13.8518 96.9555C13.8816 96.5092 13.8463 96.0863 13.8444 95.6357C13.8307 93.4021 13.6563 91.1844 13.4517 88.9164C13.383 88.1618 13.356 87.2568 13.2286 86.4756C13.214 86.3878 13.1472 86.4492 13.1391 86.4332C13.015 86.1798 13.1733 86.2499 13.1717 86.0731C13.1635 85.3587 13.0728 84.5865 12.9578 83.9225C12.9086 83.6405 12.8006 83.9444 12.8447 83.647C12.8476 83.6263 12.9346 83.6887 12.9327 83.6092C12.9291 83.4698 12.893 83.235 12.8708 83.0693L12.8744 83.0918C12.8658 83.0459 12.8587 83.0057 12.8544 82.9751C12.8179 82.7132 12.8089 82.6698 12.7624 82.4196C12.6985 82.073 12.6616 81.675 12.5716 81.3058C12.5525 81.2284 12.4937 81.3462 12.4565 81.2265C12.4194 81.1073 12.362 80.7792 12.3585 80.664C12.3551 80.549 12.4263 80.5842 12.4366 80.5617C12.5237 80.3726 12.2837 80.0316 12.2698 79.9831C12.0211 79.0998 11.9626 78.3279 11.7906 77.4896C11.6608 76.8586 11.4889 76.1837 11.3684 75.5825C11.2242 74.8614 11.1389 74.2401 10.9866 73.5498C10.9705 73.4764 10.8963 73.582 10.8764 73.4923C10.6647 72.5351 10.4769 71.5921 10.3378 70.6216C10.3243 70.5257 10.431 70.6306 10.4222 70.5337C10.367 69.9405 10.3321 68.9796 9.90669 68.7085C9.83685 68.3075 9.75109 67.828 9.74795 67.4586C9.74584 67.2204 9.88071 67.4242 9.78411 67.1508C9.76242 67.0891 9.70238 67.1879 9.67569 67.094C9.56376 66.7007 9.49839 66.2625 9.37551 65.8735C9.35036 65.7945 9.28565 65.831 9.2684 65.8107C9.12737 65.6403 9.22856 65.2891 9.22621 65.2169C9.2067 64.6694 9.09076 64.29 8.99124 63.7982C8.96813 63.6837 8.90298 63.8382 8.87739 63.7287C8.74529 63.1576 8.63267 62.5706 8.5587 62.0001C8.54252 61.8733 8.64542 61.9719 8.64175 61.9104C8.62495 61.6415 8.46331 61.6148 8.44438 61.3572C8.4402 61.303 8.51424 61.3189 8.51973 61.3077C8.606 61.1327 8.41318 61.0351 8.40156 60.9969C8.25064 60.5125 8.36082 60.1665 8.23986 59.6952C8.22523 59.6388 8.1652 59.7847 8.12933 59.6253C7.89017 58.5649 7.68861 57.434 7.54913 56.364C7.52744 56.1982 7.61516 56.3023 7.6211 56.2904C7.71257 56.098 7.52426 56.022 7.50745 55.9697C7.37926 55.5568 7.44194 55.1334 7.18745 54.8864C6.90843 53.0847 6.45846 51.3233 6.31094 49.513C6.30886 49.49 6.39869 49.5154 6.3942 49.4696C6.34118 48.9187 6.23222 49.0463 6.01017 48.7153C5.95436 48.6319 6.09369 48.3218 6.10322 48.2952C6.13832 48.1972 6.27759 48.2671 6.28213 48.2356C6.31559 47.9759 5.91704 48.089 5.8574 47.7571C5.85621 47.7466 5.93871 47.7768 5.94115 47.7476C5.94896 47.6569 5.90394 47.5763 5.91454 47.487C5.93946 47.2825 6.12434 47.1784 5.95711 46.9026C5.9356 46.8678 5.71539 46.9658 5.67397 46.6674C5.65758 46.5484 5.56189 46.0256 5.55137 45.8762C5.54078 45.7271 5.63252 45.8148 5.63392 45.8038C5.6635 45.3919 5.73023 45.5346 5.84138 45.3117C5.9521 45.0891 5.61615 45.2034 5.56371 45.1294C5.51132 45.0553 5.54271 44.7518 5.55877 44.6759C5.57481 44.6 5.63715 44.6806 5.6423 44.6146C5.67509 44.1777 5.43945 44.4598 5.3611 44.3309C5.33368 44.286 5.315 44.2411 5.303 44.1963C5.2339 43.9385 5.38578 43.6847 5.36471 43.427C5.35801 43.3452 5.31062 43.4208 5.29316 43.3498C5.22482 43.0685 5.27655 42.8847 5.14973 42.5723C5.12903 42.5212 4.93176 42.2842 5.01731 42.0961C5.02971 42.0694 5.10477 42.1272 5.0993 42.0035C5.09121 41.8186 5.05235 41.49 4.99962 41.2982C4.96064 41.1566 4.88178 41.3388 4.8854 41.1521C4.8871 41.0691 4.97269 41.2086 4.97075 41.0536C4.96889 40.8994 4.90491 40.5149 4.87968 40.3688C4.85439 40.223 4.78707 40.3157 4.77981 40.3047C4.73762 40.2381 4.65492 39.9636 4.65112 39.9386C4.44491 38.6877 4.40475 37.5132 4.18029 36.2993C4.16282 36.204 4.08773 36.2802 4.08419 36.2658C4.00066 35.9433 4.26318 36.1687 4.30483 35.9288C4.13825 35.987 4.14946 35.8474 4.09703 35.619C4.07164 35.509 4.01407 35.5793 4.0058 35.5701C3.88096 35.4196 3.99459 35.2857 4.01696 35.2523C4.09918 35.1288 3.96622 35.0265 4.02105 34.9427C4.07541 34.8591 4.19639 35.0162 4.16336 34.795C4.09306 34.7417 3.95621 34.9291 3.90609 34.7647C3.71629 34.1439 3.67608 32.9407 3.61918 32.428C3.56213 31.9165 3.52855 31.7536 3.5104 31.4533C3.47798 30.9111 3.38542 31.1239 3.28609 30.7979C3.18679 30.4709 3.50183 30.5943 3.55844 30.5378C3.61517 30.4822 3.54343 30.4394 3.57026 30.3762C3.59712 30.3131 3.65683 30.4339 3.65154 30.2948C3.64618 30.1554 3.48429 29.7941 3.41196 29.754C3.2587 29.6693 3.13435 29.8582 3.138 29.4871C3.13831 29.4657 3.22437 29.5236 3.22164 29.4424C3.1975 28.7977 3.11566 28.1348 3.0873 27.4918C3.08351 27.4033 3.17932 27.4707 3.17809 27.4191C3.16573 26.8815 3.04504 27.0896 2.84752 26.8189C3.06981 26.8573 3.18039 26.68 3.13136 26.2773C3.102 26.0352 3.01371 26.0885 2.92834 25.94C2.90263 25.8955 2.9456 25.7162 2.89779 25.6906C2.74139 25.606 2.60033 25.7873 2.6132 25.3639C2.614 25.3453 2.69984 25.3937 2.69685 25.3301C2.67804 24.9192 2.52169 24.8889 2.44993 24.4508C2.39366 24.1074 2.41154 23.4827 2.37972 23.0879C2.62153 23.0675 2.52226 22.703 2.33841 22.5721C2.31505 22.3162 2.27326 22.0419 2.26737 21.7926C2.26527 21.7069 2.34154 21.7545 2.34783 21.7429C2.44687 21.565 2.27236 21.473 2.25961 21.4187C2.12856 20.8291 2.19511 20.3288 2.01042 19.7728C2.0038 19.7531 1.83266 19.7394 1.93756 19.5732C1.94487 19.5624 2.04242 19.7419 2.01786 19.4732C1.99328 19.2045 2.02598 18.6892 1.90675 18.3258C1.87798 18.2378 1.71657 18.0251 1.80243 17.8305C1.81414 17.8045 1.86513 17.8258 1.88794 17.7877C1.96045 17.6646 1.7843 17.6213 1.91327 17.4718C2.04224 17.3222 2.11915 17.0326 1.97867 16.6682C1.97447 16.6566 1.83053 16.5825 1.81971 16.4642C1.80254 16.2754 1.80125 16.0049 1.77895 15.8083C1.76823 15.7141 1.69147 15.7835 1.68817 15.7673C1.57254 15.1387 1.59818 14.68 1.55775 13.9977C1.55049 13.8725 1.39869 13.5273 1.46296 13.2768C1.53325 13.0018 1.97118 13.2302 1.80935 12.6327C1.74443 12.3915 1.19255 12.136 1.41531 11.667C1.25903 10.8189 1.31466 10.0142 1.13121 9.16695C1.12302 9.12884 0.965543 9.02185 0.958196 8.931C0.947568 8.79608 1.00772 8.71525 1.00232 8.61868C0.981368 8.2136 0.885798 7.85169 0.855209 7.46239C0.843457 7.31464 0.918755 7.35906 0.90476 7.18281C0.890715 7.00665 0.786555 6.89887 0.806934 6.65639C0.822637 6.47321 0.992939 6.27435 0.990737 6.03344C0.803841 6.04317 0.791059 5.87888 0.712488 5.5923C0.697297 5.53723 0.638642 5.60387 0.628117 5.57815C0.583857 5.47373 0.627433 5.36861 0.580782 5.26993C0.569547 5.24593 0.505913 5.25116 0.493143 5.23189C0.382131 5.06827 0.49624 4.7686 0.51618 4.71709C0.59173 4.51978 0.500282 4.44032 0.522982 4.29248C0.545702 4.14487 0.613853 4.35531 0.619514 4.18498C0.631195 3.83236 0.576018 3.38623 0.543449 3.03218C0.530062 2.89095 0.454935 2.99575 0.451051 2.97574C0.400246 2.68581 0.460934 2.38236 0.27583 2.23744C0.692263 1.99144 0.215855 2.06584 0.261512 1.63991C0.265293 1.60633 0.467618 1.54386 0.510565 1.66699C0.553482 1.79012 0.50808 1.98784 0.572862 2.15805C0.588103 2.19838 0.805385 2.41624 0.820351 2.44742C0.93737 2.69175 0.632374 2.75853 0.616775 2.77371C0.449132 2.94437 0.686714 3.21359 0.708787 3.28851C0.809875 3.63137 0.796281 3.93224 0.872801 4.21973C0.922496 4.40789 1.12651 4.40622 1.13544 4.55695C1.16528 5.05797 0.900846 5.26014 1.19288 5.70564C1.25523 5.80119 1.46599 5.67867 1.32886 6.05743C1.32021 6.08123 1.18847 6.36547 1.30471 6.51011C1.31936 6.52827 1.38367 6.52111 1.39169 6.54621C1.44413 6.71458 1.40447 6.83418 1.44811 7.01918C1.49174 7.20404 1.55131 7.42554 1.5513 7.64156C1.5514 7.77174 1.44836 7.94928 1.4253 8.01395C1.35852 8.19669 1.51635 8.36923 1.42499 8.48771C1.33322 8.60713 1.15503 8.41034 1.11782 8.70264C1.28615 8.69603 1.4603 8.7027 1.63024 8.70241C1.68858 9.32825 1.69804 9.94894 1.77066 10.5754C1.77983 10.653 1.86146 10.5642 1.87361 10.6471C1.92448 10.9971 1.8925 11.3112 1.95626 11.6732C2.00597 11.9534 2.13369 12.2526 2.18886 12.5452C2.01658 12.7458 2.12793 13.1769 2.14435 13.4967C2.15018 13.6088 2.0983 13.6068 2.09009 13.6878C2.06037 13.9933 2.21446 13.8352 2.24982 13.9143C2.401 14.2537 2.02161 14.3249 2.07571 14.7384C2.07844 14.7603 2.31134 15.0067 2.32805 15.0423C2.43626 15.2681 2.26127 15.0888 2.26212 15.2375C2.26369 15.5089 2.23526 15.7008 2.32936 16.0091C2.35708 16.099 2.50825 16.3053 2.42953 16.4943C2.41923 16.5192 2.35042 16.5136 2.34854 16.5329C2.32032 16.8819 2.5331 16.8676 2.62636 17.0549C2.71962 17.2422 2.60693 17.5599 2.57164 17.6259C2.48052 17.7986 2.51139 17.5081 2.49974 17.5006C2.36114 17.4126 2.40745 17.6301 2.41542 17.7994C2.21053 17.8468 2.24923 18.0805 2.42454 17.9747C2.44364 17.9628 2.4097 17.8342 2.41542 17.7994C2.63553 17.9242 2.69043 18.1795 2.53216 18.4861C2.45798 18.6297 2.33972 18.5151 2.4235 18.9165C2.46147 19.0987 2.59634 19.0114 2.65369 19.1694C2.78458 19.5304 2.70629 20.0278 2.77131 20.4079C2.79491 20.5458 2.85756 20.4016 2.87638 20.4955C2.9266 20.7448 2.89361 20.9736 2.95305 21.2229C2.95854 21.2455 3.03389 21.18 3.04408 21.2585C3.12293 21.8533 3.13151 22.3781 3.20412 23.0003C3.2392 23.3009 3.34881 23.8326 3.37748 24.1448C3.42749 24.6861 3.38995 25.3639 3.47608 25.8211C3.5319 26.1193 3.60554 26.0432 3.67731 26.1649C3.81625 26.3996 3.67806 26.8633 3.65562 26.9263C3.65484 26.9283 3.60301 26.6723 3.5784 26.8155C3.50103 26.9067 3.65487 26.9235 3.65562 26.9263C3.64111 26.9676 3.688 27.4864 3.71677 27.5868C3.73241 27.6414 3.80591 27.6004 3.8126 27.629C3.96997 28.31 4.07926 28.9985 4.13531 29.7025C4.13537 29.715 4.04632 29.7079 4.04754 29.7372C4.06253 30.1474 4.20303 30.3925 4.31065 30.7178C4.41827 31.043 4.43307 31.3104 4.31133 31.5282C4.36424 31.7775 4.348 32.1475 4.33683 32.3609C4.32565 32.5743 4.49815 32.58 4.504 32.5978C4.68967 33.1536 4.63929 33.4958 4.70818 34.0895C4.74064 34.3721 4.84486 34.9255 4.90742 35.2271C4.95708 35.4654 4.93878 35.6162 4.99637 35.8339C5.00412 35.8634 5.07461 35.8222 5.07883 35.8309C5.20464 36.0647 5.00413 35.9729 4.9789 36.0287C4.88714 36.2311 4.84059 36.3548 4.94348 36.6631C4.96713 36.7343 5.26237 36.9078 5.29769 37.0385C5.34313 37.2085 5.23886 37.1573 5.28891 37.3348C5.29311 37.35 5.35089 37.3381 5.36513 37.4501C5.43199 37.97 5.48448 38.541 5.57373 39.0782C5.58571 39.1516 5.66346 39.043 5.68229 39.1489C5.77063 39.646 5.85314 40.1924 5.88739 40.6847C5.89554 40.806 5.81895 40.7414 5.8039 40.7704C5.71322 40.9483 5.91823 41.1473 5.92745 41.184C6.15158 42.0587 6.11083 42.7639 6.33543 43.6564C6.3434 43.6872 6.44497 43.8392 6.48574 43.9961C6.50912 44.086 6.51246 44.1775 6.46647 44.2488C6.45813 44.2621 6.32816 44.4564 6.46177 44.5858C6.47012 44.5938 6.53384 44.4757 6.55664 44.6589C6.57947 44.8422 6.68425 45.1254 6.638 45.3907C6.62349 45.4747 6.498 45.6894 6.66512 45.9034C6.67658 45.9174 7.02495 46.2316 6.85153 46.396C6.82293 46.4227 6.61121 46.4374 6.76747 46.7001C6.79763 46.7502 6.82669 46.6444 6.8807 46.7809C6.96375 46.9903 6.95932 47.288 7.09961 47.5382C7.12432 47.5818 7.30074 47.7544 7.22237 47.9324C7.2101 47.9603 7.13227 47.9255 7.13962 48.0107C7.1743 48.4163 7.29667 48.8261 7.32286 49.2394C7.3323 49.3858 7.20686 49.3331 7.20428 49.488C7.2017 49.6429 7.22854 49.9501 7.30869 50.0971C7.38888 50.2441 7.53561 50.0401 7.59336 50.2718C7.84433 51.278 7.9306 52.307 8.11052 53.3262C8.13717 53.4772 8.17694 53.3402 8.22081 53.5616C8.38309 54.381 8.71915 55.7817 8.72451 56.5177C8.72901 57.1092 8.50436 56.4083 8.54656 56.8526C8.56719 57.0669 8.81924 57.2525 8.83582 57.3017C9.00005 57.7808 8.97795 58.1464 9.09532 58.5848C9.11961 58.6754 9.18534 58.5686 9.20508 58.6458C9.27316 58.909 9.29253 59.198 9.35113 59.4525C9.37759 59.5665 9.43733 59.5324 9.45373 59.6388C9.49375 59.8933 9.5119 60.1206 9.50186 60.3782C9.50098 60.4018 9.39049 60.2663 9.42565 60.4543C9.48279 60.7583 9.5002 61.1455 9.63218 61.479C9.67166 61.5782 9.8184 61.5509 9.76313 61.7944C9.75161 61.8453 9.56384 61.8221 9.76867 62.0496C9.80283 62.088 10.0966 62.4795 10.0084 62.7183C9.98526 62.7816 9.8708 62.9527 9.91923 63.0733C9.92631 63.0894 9.99087 63.0056 10.0198 63.1071C10.1205 63.4651 10.1906 63.8458 10.2919 64.2102C10.3193 64.3085 10.3697 64.1431 10.408 64.2902C10.5136 64.6955 10.5979 65.2043 10.6556 65.6079C10.6769 65.7572 10.5883 65.6695 10.5832 65.6817C10.5001 65.8789 10.6821 65.9468 10.7033 66.0019C10.8337 66.3456 10.8134 66.6252 10.9026 66.9513C10.9268 67.0406 10.99 66.9604 11.0006 66.977C11.1065 67.1496 10.9398 67.0395 10.9493 67.1607C10.9759 67.5014 11.0578 67.8611 11.1385 68.1967C11.168 68.3189 11.2278 68.162 11.2533 68.2719C11.4051 68.9189 11.5396 69.6002 11.6234 70.242C11.639 70.3627 11.5549 70.3024 11.5444 70.3304C11.4713 70.5256 11.6738 70.7479 11.7002 70.8027C11.8205 71.0529 11.7814 71.1676 11.8413 71.3964C12.137 72.5235 12.3915 73.9364 12.5895 75.0127C12.8481 76.4162 13.0081 77.5217 13.2948 78.8552C13.3128 78.9394 13.3868 78.8359 13.4035 78.9083C13.6172 79.8562 13.7637 80.783 13.9742 81.7376C13.9911 81.8146 14.0563 81.6865 14.0862 81.8094C14.148 82.0607 14.2067 82.3965 14.227 82.6575C14.2371 82.7855 14.1313 82.6312 14.143 82.7596C14.1458 82.7909 14.1489 82.8222 14.1522 82.8537L14.1593 82.8983C14.1752 83.1792 14.2094 83.468 14.2574 83.7397C14.2804 83.8687 14.3444 83.6613 14.3673 83.8297C14.5274 84.9959 14.6825 86.1237 14.7027 87.3163C14.7037 87.3946 14.5302 87.4899 14.5849 87.6593C14.6369 87.6667 14.6963 87.6592 14.7509 87.6587C14.9727 89.3518 15.0818 91.0437 15.2076 92.7456C15.2131 92.8197 15.2998 92.6842 15.3108 92.8273C15.3723 93.6301 15.4534 94.4271 15.3979 95.2627C15.3925 95.3467 15.2197 95.3029 15.2569 95.5534C15.264 95.6002 15.3014 95.9569 15.3416 96.0542C15.3476 96.0672 15.425 95.9957 15.4315 96.1169C15.467 96.8048 15.4602 97.5371 15.393 98.2336C15.3819 98.3433 15.3004 98.2242 15.2917 98.3017C15.2282 98.873 15.2583 99.4975 15.0716 100.074C14.9361 100.46 14.8222 100.286 14.6248 100.445C14.6003 100.468 14.4964 100.704 14.407 100.679C14.2127 100.594 14.0503 100.407 13.8344 100.334C13.8115 100.326 13.7943 100.357 13.7893 100.349C13.786 100.341 13.7864 100.316 13.7243 100.298C13.7066 100.313 13.7074 100.234 13.6833 100.18C13.6645 100.152 13.5723 100.155 13.5526 100.106C13.5335 100.054 13.6176 100.025 13.5993 99.9224C13.5788 99.8193 13.4769 99.8453 13.5 99.6444ZM4.28876 33.3217C4.23486 33.5254 4.53503 33.5122 4.435 33.3141C4.42982 33.3046 4.29134 33.3112 4.28876 33.3217ZM1.47341 9.96862C1.36839 10.2352 1.57931 10.3882 1.66214 10.1993C1.74487 10.0104 1.50521 9.88744 1.47341 9.96862ZM1.10826 7.35566C1.03494 7.66192 1.46162 7.66537 1.34403 7.35743C1.33733 7.3395 1.11251 7.33775 1.10826 7.35566ZM14.7661 99.5292C14.7627 99.5276 14.7372 99.6952 14.7403 99.6979C14.8229 99.7991 14.8736 99.4695 14.7661 99.5292ZM0.740168 4.76294C0.692389 4.86103 0.785095 5.12012 0.844508 4.99828C0.892295 4.90022 0.799586 4.64081 0.740168 4.76294ZM5.50736 43.3949C5.50347 43.3987 5.51811 43.5105 5.54259 43.5042C5.62135 43.4832 5.5729 43.3323 5.50736 43.3949ZM0.29149 0.338034C0.341016 0.993685 0.0320362 1.42465 0.000168424 0.708885C-0.00561026 0.579241 0.139131 0.975642 0.154147 0.808399C0.181372 0.502396 -0.0574612 0.324809 0.029159 0.00636856C0.0450755 -0.0512952 0.289442 0.300577 0.292093 0.339148C0.291892 0.338776 0.291692 0.33841 0.29149 0.338034ZM3.94852 33.4824C3.94514 33.4868 3.96314 33.6419 3.96755 33.645C4.07334 33.7155 4.03713 33.4031 3.94852 33.4824ZM6.46697 49.9092C6.46022 49.9193 6.51838 50.2773 6.5282 50.2875C6.71526 50.4452 6.59814 49.7215 6.46697 49.9092ZM2.38541 23.081C2.27039 22.923 2.23521 22.7218 2.33838 22.5729C2.35195 22.7418 2.37111 22.9112 2.38541 23.081Z" fill="var(--stroke-0, white)"/>
</svg>
