<svg preserveAspectRatio="none" width="100%" height="100%" overflow="visible" style="display: block;" viewBox="0 0 43 48" fill="none" xmlns="http://www.w3.org/2000/svg">
<path id="Vector" d="M33.8642 23.0265L33.3755 22.854L33.8354 22.5953C37.7451 20.468 39.9011 16.7884 39.9011 12.2463C39.9011 4.5708 33.4042 0 22.509 0H0V47.5478H23.8602C35.7328 47.5478 42.2584 42.977 42.2584 34.6691C42.2009 29.0059 39.1824 24.7801 33.8642 23.0265ZM10.234 7.90547H21.1579C28.0573 7.90547 29.4946 11.0677 29.4946 13.7124C29.4946 17.5358 26.6199 19.5193 21.1579 19.5193H10.234V7.90547ZM21.1579 19.5193H10.234ZM23.0265 39.6136H10.234V27.4536H23.0265C28.8622 27.4536 31.8231 29.4659 31.8231 33.548C31.8231 37.6013 28.9484 39.6136 23.0265 39.6136Z" fill="var(--fill-0, white)"/>
</svg>
