<svg preserveAspectRatio="none" width="100%" height="100%" overflow="visible" style="display: block;" viewBox="0 0 96 95" fill="none" xmlns="http://www.w3.org/2000/svg">
<path id="Ellipse 61" d="M95.2118 50.1487C95.1455 51.8408 94.8597 54.037 94.5206 55.6896C94.4156 56.2062 94.4111 55.9341 94.3338 56.2889C94.1811 56.9791 94.0673 57.6373 93.8825 58.314C93.8207 58.5381 93.8059 58.2375 93.7427 58.4725C93.3948 59.7584 93.0706 60.9782 92.6301 62.2574C90.4566 68.5429 87.0751 74.2819 82.5407 79.2297C81.0492 80.8668 79.0481 82.6668 77.2951 84.1273C77.0909 84.2984 77.2605 84.2555 77.2249 84.2922C76.6617 84.8634 76.7753 84.5812 76.3539 84.885C74.6789 86.0876 72.7732 87.3544 71.0712 88.3686C70.3459 88.7984 71.1537 88.5081 70.3721 88.8535C70.3179 88.8773 70.4669 88.705 70.2606 88.81C69.7935 89.0503 68.9217 89.5231 68.5541 89.6979C67.8471 90.0356 67.7311 90.0915 67.0597 90.4016C66.1389 90.8234 65.0164 91.2523 64.006 91.6502C63.7901 91.7354 64.1064 91.7032 63.7637 91.8451C63.4218 91.9889 62.4955 92.3044 62.1743 92.3874C61.8542 92.4724 61.9685 92.3684 61.9085 92.3728C61.414 92.4088 60.3843 92.8897 60.2423 92.9312C57.7029 93.7173 55.4315 94.0584 52.9646 94.3575C51.1005 94.582 49.104 94.7256 47.3065 94.7195C47.2916 94.7195 47.2767 94.7195 47.2618 94.7194C45.1088 94.707 43.3047 94.545 41.2335 94.2925C41.0154 94.265 41.2588 94.3919 40.9922 94.3579C38.1585 93.9926 35.3775 93.3525 32.6935 92.4173C32.4243 92.323 32.7992 92.358 32.5323 92.2589C30.8911 91.6701 28.4249 90.4725 27.3422 90.3487C26.2762 89.8416 25.0072 89.1694 24.1243 88.5861C23.5562 88.2093 24.173 88.4602 23.4328 88.0753C23.2664 87.9874 23.437 88.1798 23.1905 88.0421C22.1515 87.4611 21.0743 86.7337 20.0875 86.0889C19.8867 85.9579 19.8994 86.0531 19.8365 86.0242C19.3081 85.7789 18.6479 85.0704 18.4929 84.9336C17.3011 83.8985 16.4008 83.1848 15.3177 82.1944C15.0674 81.9634 15.2992 82.3064 15.0561 82.0858C13.7975 80.9393 12.5743 79.662 11.514 78.3768C11.2787 78.0905 11.5628 78.295 11.4538 78.1555C10.9761 77.5397 10.7481 77.504 10.3034 76.9007C10.2102 76.7732 10.3199 76.7994 10.3079 76.7721C10.1212 76.3469 9.7501 76.1416 9.67638 76.0515C8.7483 74.9152 8.35409 74.0446 7.56492 72.8774C7.4708 72.7369 7.60307 73.1056 7.34331 72.7069C5.61381 70.0498 4.12226 67.0203 3.08052 64.0641C2.91855 63.6039 3.10308 63.9066 3.09977 63.875C3.04315 63.3626 2.77732 63.1191 2.71815 62.9709C2.25744 61.8032 2.05852 60.6437 1.63798 59.8768C0.559267 55.7486 -0.062399 51.5181 0.0049672 47.2771C0.0216288 46.2271 0.0793649 45.1997 0.182987 44.159C0.189471 44.0924 0.265182 44.2175 0.277815 44.0847C0.444571 42.4891 0.295625 42.7938 0.252369 41.7123C0.241981 41.439 0.540089 40.6562 0.565543 40.5884C0.653989 40.337 0.738929 40.623 0.761294 40.5378C0.94539 39.8379 0.516668 39.8862 0.684427 38.916C0.690476 38.8859 0.742611 39.0263 0.764449 38.9464C0.832566 38.6986 0.849371 38.4438 0.922724 38.2035C1.09313 37.6551 1.32727 37.4945 1.40731 36.6189C1.4188 36.5082 1.14702 36.6185 1.36687 35.7695C1.44898 35.4316 1.85662 33.9316 2.00325 33.5249C2.14411 33.1157 2.12932 33.4219 2.14143 33.3933C2.58537 32.3105 2.49398 32.7451 2.81634 32.2398C3.14251 31.7386 2.76021 31.7767 2.80179 31.5392C2.84216 31.3016 3.21612 30.5277 3.31996 30.3434C3.42213 30.1584 3.37257 30.4191 3.45485 30.2515C4.00631 29.1454 3.49312 29.684 3.59425 29.2853C3.84045 28.3452 4.38683 27.7618 4.78575 26.984C4.89457 26.7731 4.75713 26.9222 4.84436 26.7289C5.19418 25.9643 5.49443 25.5531 5.88402 24.6801C5.94692 24.5373 6.18758 23.7837 6.54141 23.4108C6.59158 23.3583 6.54528 23.5638 6.73939 23.2638C7.02791 22.8158 7.54821 22.006 7.84555 21.516C8.06485 21.1536 7.70788 21.4997 8.03072 21.0736C8.17497 20.8851 7.98214 21.284 8.24907 20.9277C8.5129 20.5713 9.16392 19.6467 9.42084 19.3018C9.67509 18.9558 9.47025 19.0961 9.48647 19.0649C9.5857 18.8764 10.0593 18.1969 10.1059 18.1404C12.3816 15.234 14.8831 12.903 17.631 10.6102C17.8475 10.4308 17.6483 10.482 17.6808 10.454C18.4126 9.825 17.9585 10.4745 18.5332 10.1207C18.3507 10.044 18.681 9.82223 19.2136 9.40234C19.4704 9.20057 19.2878 9.25243 19.3076 9.22915C19.6382 8.85895 19.9921 8.77054 20.0781 8.74241C20.3969 8.63788 20.6176 8.34354 20.8359 8.27535C21.0532 8.20767 20.6929 8.56801 21.2293 8.20527C21.3462 8.05266 20.8547 8.18563 21.2511 7.88997C22.7372 6.74597 25.8566 5.16848 27.2295 4.57069C28.5897 3.95226 29.0375 3.76405 29.8517 3.45811C31.3325 2.92541 30.7541 3.02229 31.6553 2.63882C32.5661 2.26624 32.2097 2.70367 32.3631 2.71798C32.5138 2.73451 32.636 2.62512 32.8101 2.60542C32.9833 2.58618 32.6449 2.74065 33.031 2.63023C33.4172 2.51658 34.4327 2.09934 34.5547 1.99905C34.8083 1.78357 34.2866 1.76807 35.3361 1.54193C35.3965 1.52939 35.2227 1.65501 35.4529 1.60326C37.271 1.1933 39.1815 0.824696 41.0314 0.632905C41.2857 0.606822 41.0704 0.722411 41.2184 0.708426C42.7621 0.576783 42.1986 0.500635 43.0281 0.255974C42.8588 0.490598 43.3335 0.566763 44.506 0.496004C45.2138 0.457616 45.083 0.371617 45.5371 0.286599C45.6732 0.260792 46.1746 0.311214 46.2643 0.265613C46.5614 0.116963 46.0834 -0.045508 47.3065 0.0117808C47.307 0.0118075 47.3075 0.0118342 47.308 0.0118609C47.327 0.0129452 47.318 0.0234964 47.3065 0.0369189C47.2914 0.0545771 47.2721 0.0772056 47.3065 0.0897606C47.3201 0.0947394 47.3422 0.0981386 47.3762 0.0990693C48.5732 0.139787 48.7155 -0.00989556 50.0071 0.0363767C51.0249 0.0721032 52.8076 0.333774 53.9434 0.516359C53.8862 0.751021 54.9625 0.854563 55.4266 0.769195C56.1621 0.903246 56.9518 1.05088 57.6536 1.23202C57.8944 1.29427 57.7196 1.32692 57.7485 1.34119C58.1891 1.56313 58.5398 1.48247 58.6979 1.51496C60.4093 1.87963 61.7333 2.41478 63.3396 2.86285C63.3964 2.8791 63.5449 2.75185 63.9213 3.024C63.945 3.04223 63.4026 2.91956 64.1349 3.20229C64.8682 3.48422 66.1954 4.13203 67.2111 4.5251C67.4568 4.61804 68.1196 4.78277 68.5497 5.12085C68.6068 5.16595 68.5155 5.17387 68.5949 5.2443C68.8514 5.47101 69.0913 5.40318 69.368 5.71369C69.6435 6.02454 70.3021 6.50024 71.2886 6.97205C71.3199 6.9874 71.6109 7.00328 71.9038 7.18588C72.3711 7.47606 73.0119 7.921 73.487 8.24055C73.7147 8.39346 73.6161 8.22594 73.6565 8.2513C75.2111 9.25605 76.2223 10.1091 77.7143 11.4067C77.9877 11.6437 78.8497 12.245 79.3018 12.792C79.7937 13.3939 78.95 13.1384 80.2715 14.2985C80.7963 14.7691 81.8105 15.0601 82.462 16.2027C84.1589 18.0256 85.438 19.9466 86.8641 21.9888C86.9282 22.0805 87.2417 22.3026 87.3792 22.5291C87.5831 22.8654 87.6353 23.0849 87.7743 23.3275C88.3538 24.3461 88.9179 25.2617 89.4165 26.2782C89.6045 26.6647 89.4759 26.561 89.6945 27.0233C89.9103 27.4855 90.1393 27.7557 90.3784 28.4091C90.5579 28.9043 90.5862 29.4569 90.8197 30.1072C91.0023 30.063 91.1788 30.5064 91.5145 31.2871C91.5788 31.4369 91.5807 31.2506 91.6143 31.3205C91.7522 31.6046 91.7971 31.8969 91.9273 32.1678C91.9589 32.2339 92.0205 32.2167 92.0497 32.2697C92.302 32.72 92.4121 33.5622 92.4273 33.7047C92.4928 34.2555 92.6414 34.4785 92.7164 34.8941C92.7896 35.3089 92.5817 34.7157 92.6865 35.1944C92.9031 36.1827 93.2027 37.4509 93.3888 38.4584C93.4636 38.8608 93.4958 38.5707 93.5085 38.628C93.6861 39.4586 93.7253 40.3242 93.9568 40.7647C93.5984 41.4065 94.0754 41.264 94.1174 42.4886C94.1197 42.584 93.9259 42.7255 93.8583 42.3643C93.7903 42.0026 93.7909 41.4429 93.6755 40.9472C93.6495 40.8284 93.3587 40.1806 93.3314 40.09C93.1265 39.3802 93.4098 39.2271 93.4208 39.1851C93.5279 38.7163 93.1606 37.931 93.0999 37.7182C92.8278 36.7373 92.6678 35.8991 92.4017 35.0913C92.2266 34.5648 92.0156 34.5691 91.9011 34.1531C91.5098 32.7774 91.6136 32.2003 90.9165 31.0122C90.7635 30.7586 90.6653 31.1053 90.4479 30.0758C90.4351 30.011 90.2928 29.2359 90.0205 28.8647C89.9865 28.8182 89.9279 28.8456 89.8934 28.78C89.6633 28.3407 89.5748 28.0188 89.3239 27.5419C89.0733 27.0664 88.7538 26.5 88.4904 25.9456C88.3321 25.6109 88.2131 25.1362 88.1528 24.9654C87.9858 24.4824 87.5966 24.084 87.5281 23.7642C87.4573 23.4407 87.908 23.8914 87.5417 23.1454C87.3818 23.2057 87.1978 23.2347 87.0279 23.2805C86.1012 21.7393 85.142 20.2474 84.0286 18.8239C83.8902 18.6478 83.9596 18.8838 83.8093 18.6972C83.1741 17.9121 82.6571 17.1918 81.9407 16.4249C81.3855 15.8319 80.7067 15.2492 80.0929 14.6669C79.8667 14.1622 78.914 13.331 78.2421 12.7112C78.007 12.4932 78.0568 12.4692 77.8964 12.3059C77.2862 11.6943 77.4797 12.0886 77.2836 11.9555C76.4372 11.3942 76.6167 11.0397 75.6635 10.3106C75.6132 10.2705 74.8714 9.96836 74.7781 9.91765C74.1839 9.58645 74.7306 9.7934 74.3965 9.53287C73.7841 9.06062 73.3671 8.71263 72.5743 8.26734C72.3424 8.13724 71.7403 7.90544 71.3523 7.55551C71.3013 7.50946 71.3683 7.47079 71.3238 7.43925C70.5118 6.87619 70.3786 7.05198 69.8554 6.83894C69.3314 6.62614 68.636 6.0948 68.4963 5.97702C68.1345 5.66829 68.8333 6.09736 68.8596 6.10075C69.1799 6.12486 68.6089 5.84684 68.1788 5.62003C68.2105 5.40076 67.5911 5.11105 67.7317 5.38701C67.7481 5.41725 68.096 5.56731 68.1788 5.62003C67.7046 5.61099 67.0315 5.31039 66.3587 4.79875C66.0421 4.56146 66.4218 4.60498 65.3242 4.17981C64.8256 3.99168 64.9613 4.20287 64.512 4.0644C63.4851 3.7484 62.2239 3.15761 61.1569 2.85044C60.7726 2.73968 61.1215 2.92958 60.8583 2.85718C60.1599 2.66723 59.5584 2.43731 58.843 2.28515C58.7786 2.27168 58.9138 2.39106 58.6949 2.33658C57.0322 1.92993 55.5733 1.58664 53.7982 1.33309C52.9421 1.20667 51.3965 1.09075 50.5028 1.02667C49.4975 0.947439 48.3638 0.854255 47.3065 0.826266C46.7236 0.810227 46.1745 0.812861 45.7022 0.839323C44.8376 0.890821 45.0337 0.968385 44.6645 1.04346C43.9539 1.18739 42.6829 1.10713 42.5089 1.09789C42.5042 1.09614 43.242 1.00654 42.843 1.00178C42.6046 0.936028 42.5174 1.09672 42.5089 1.09789C42.3933 1.08433 40.9082 1.24397 40.6203 1.3082C40.4628 1.33974 40.5629 1.40413 40.4807 1.41922C38.5186 1.77974 36.5826 2.21382 34.6309 2.72972C34.5964 2.73792 34.624 2.63922 34.5428 2.65962C33.4104 2.94533 32.7259 3.28282 31.8424 3.66091C30.9591 4.04165 30.2436 4.30334 29.6602 4.38116C28.9958 4.67244 28.0138 5.03801 27.4548 5.26062C26.895 5.48245 26.8946 5.67573 26.8489 5.70128C25.4254 6.53243 24.5472 6.90342 23.0792 7.77775C22.3791 8.1916 21.0501 9.10176 20.3508 9.63469C19.7965 10.0523 19.4378 10.2714 18.947 10.6832C18.8807 10.739 18.9962 10.7451 18.9771 10.7636C18.472 11.2741 18.6274 10.9182 18.491 10.9835C17.9987 11.2236 17.6966 11.3816 17.0354 12.0212C16.882 12.169 16.5952 12.7742 16.3231 13.0431C15.968 13.3935 16.0415 13.1955 15.675 13.569C15.6439 13.6012 15.6904 13.6371 15.4552 13.8572C14.3646 14.8795 13.2131 16.0394 12.2064 17.2252C12.0688 17.3871 12.3164 17.2407 12.1197 17.4756C11.1971 18.578 10.2356 19.8254 9.40093 20.9515C9.19525 21.2288 9.26464 21.0139 9.20599 21.0645C8.84577 21.3776 8.62851 22.0181 8.5735 22.1099C7.25379 24.3091 6.16996 25.9636 5.15241 28.3792C5.09492 28.5109 4.82687 29.5866 4.50261 29.9799C4.48043 30.0063 4.14967 30.3969 4.10008 30.8376C4.0973 30.8649 4.28096 30.6122 4.08717 31.1016C3.89318 31.5927 3.66412 32.4034 3.35607 33.0652C3.25846 33.2743 2.93947 33.7443 2.87267 34.4373C2.86609 34.4832 2.86303 35.5741 2.58133 35.8886C2.5358 35.9397 2.34141 35.8248 2.2569 36.6447C2.24193 36.8013 2.35144 36.5364 2.28774 36.943C2.19098 37.5662 1.96632 38.3708 1.92448 39.1471C1.9167 39.2828 1.96048 39.87 1.78495 40.3081C1.75746 40.3764 1.7079 40.231 1.66441 40.4692C1.45805 41.6029 1.37262 42.8159 1.24219 43.9803C1.19694 44.3947 1.09679 44.1743 1.04042 44.608C0.983207 45.0433 0.920493 45.9129 0.965718 46.3713C1.01063 46.8281 1.19765 46.3333 1.20582 47.0146C1.2072 47.1021 1.20867 47.1896 1.21024 47.2771C1.26223 50.1378 1.4208 52.9791 1.93074 55.7975C2.01007 56.2267 2.00398 55.8601 2.13041 56.4891C2.56516 58.8293 3.8366 62.7213 4.52514 64.6684C5.05792 66.2358 4.17629 64.3483 4.62657 65.5331C4.84794 66.107 5.31672 66.6203 5.38487 66.7498C6.05546 68.0219 6.43462 68.949 7.09688 70.0645C7.2344 70.2938 7.17872 70.0239 7.29516 70.2189C7.69369 70.8834 8.08577 71.5991 8.49351 72.2187C8.67688 72.4962 8.69817 72.4091 8.86199 72.6668C9.256 73.2819 9.60335 73.8293 9.97397 74.4423C10.008 74.4984 9.6831 74.191 10.0009 74.6312C10.516 75.3424 11.1409 76.243 11.8398 76.9779C12.0481 77.1954 12.1666 77.1088 12.5111 77.6622C12.5845 77.7773 12.3336 77.7694 12.9504 78.2263C13.0528 78.3064 14.058 79.0877 14.3976 79.6179C14.4862 79.7589 14.6764 80.1587 14.9515 80.3947C14.9891 80.4262 14.9048 80.2322 15.1243 80.435C15.8976 81.1497 16.7091 81.8973 17.5518 82.5751C17.777 82.7555 17.5014 82.4161 17.8355 82.6859C18.7533 83.4274 19.9109 84.3392 20.8427 85.0217C21.1861 85.2737 20.9056 85.1614 20.9266 85.1853C21.2675 85.5709 21.6065 85.5992 21.7486 85.6828C22.6358 86.2036 23.262 86.6828 24.0902 87.1443C24.3191 87.2712 24.198 87.1102 24.2465 87.1303C24.7478 87.3402 24.3293 87.2621 24.6188 87.4449C25.4324 87.9568 26.3805 88.4468 27.26 88.8596C27.5823 89.0102 27.2613 88.7557 27.5498 88.891C29.2589 89.6883 31.0817 90.4266 32.8136 91.0507C33.1407 91.1684 32.9114 91.1665 32.9753 91.2043C33.4178 91.4678 34.1633 91.5329 34.3284 91.565C35.0806 91.7138 35.3535 91.8505 36.0105 92.006C39.2181 92.7802 43.2668 93.3367 46.3862 93.3989C46.6973 93.4075 47.0038 93.4131 47.3065 93.4159C50.9393 93.4332 53.9168 93.1601 57.4142 92.3811C57.6547 92.3261 57.3918 92.29 57.5983 92.2411C60.261 91.6105 62.8462 90.8112 65.3602 89.712C65.5666 89.6215 65.2338 89.6685 65.5629 89.52C66.2383 89.2144 67.086 88.8261 67.7697 88.5163C68.1024 88.3652 67.698 88.6523 68.0324 88.4981C68.8108 88.1381 69.6232 87.7068 70.3787 87.2531C70.6994 87.0596 70.1662 87.2658 70.5855 87.0199C73.4367 85.3332 76.0487 83.3809 78.5923 81.1951C78.7661 81.0451 79.0404 81.0419 79.3706 80.6769C79.362 80.6146 79.3191 80.5729 79.293 80.5226C82.7497 77.1536 85.7249 73.3425 88.028 69.0732C88.1245 68.8934 87.8732 69.1585 88.0587 68.8104C89.1292 66.7878 89.9969 64.7481 90.8651 62.5723C90.9499 62.3561 91.0753 62.5262 91.2693 61.8663C91.3057 61.7507 91.5975 60.7563 91.6344 60.4904C91.6393 60.4542 91.5097 60.6116 91.6014 60.2927C92.1357 58.4335 92.5958 56.4684 92.9451 54.5668C93.0014 54.2592 93.0339 54.6014 93.0745 54.382C93.3608 52.8329 93.4662 51.1191 93.6159 49.6121C93.7124 48.6094 93.8416 48.9869 94.0023 48.4516C94.0257 48.376 94.0391 47.7447 94.1225 47.7123C94.3347 47.6294 94.5629 47.941 94.7895 47.8166C94.84 47.7906 94.7896 46.9274 94.9058 47.4387C94.9145 47.4746 94.9473 48.1005 94.9828 48.2551C95.008 48.3629 95.0977 48.1712 95.1281 48.3911C95.1581 48.6112 95.0801 48.8496 95.1072 49.2129C95.1332 49.5774 95.2409 49.4174 95.2118 50.1487ZM24.9561 6.33236C24.4259 6.53137 24.5008 6.8324 24.9938 6.47803C25.0175 6.46065 24.9833 6.32203 24.9561 6.33236ZM85.3033 20.1445C84.9833 19.4716 84.5242 19.1894 84.7504 19.6627C84.9733 20.1356 85.3995 20.349 85.3033 20.1445ZM89.2849 26.6036C88.9941 25.7885 88.5556 25.8644 89.0421 26.6412C89.0699 26.6866 89.3017 26.6512 89.2849 26.6036ZM93.9152 50.9581C93.9202 50.9509 93.9571 50.4988 93.9534 50.4875C93.876 50.2407 93.803 51.1429 93.9152 50.9581ZM92.1614 33.5796C92.1404 33.3074 91.8391 32.5893 91.8736 32.9293C91.9031 33.2021 92.1901 33.9186 92.1614 33.5796ZM4.92765 27.0257C4.91957 27.0316 4.77627 27.3244 4.8021 27.3293C4.88449 27.3435 5.05865 26.9252 4.92765 27.0257ZM94.1872 46.2289C94.1514 44.3409 94.4026 43.1492 94.4821 45.2346C94.4922 45.6097 94.3322 44.4317 94.3237 44.9107C94.3074 45.7822 94.5424 46.3596 94.4267 47.2606C94.4073 47.4218 94.1912 46.3353 94.1866 46.2255C94.1868 46.2266 94.187 46.2278 94.1872 46.2289ZM24.4993 6.17404C24.4872 6.17562 24.091 6.39425 24.0838 6.40347C23.9178 6.60603 24.714 6.16616 24.4993 6.17404ZM0.201082 45.3766C0.188923 45.4004 0.151406 46.452 0.161408 46.4872C0.301624 47.0367 0.375621 44.9176 0.201082 45.3766ZM53.9604 0.525286C54.4616 0.498877 55.0559 0.582496 55.4244 0.768688C54.94 0.678248 54.4472 0.599863 53.9604 0.525286Z" fill="var(--stroke-0, white)"/>
</svg>
