<svg preserveAspectRatio="none" width="100%" height="100%" overflow="visible" style="display: block;" viewBox="0 0 882 1" fill="none" xmlns="http://www.w3.org/2000/svg">
<path id="Line 49" d="M8.4011 0.0050849C13.3436 -0.00794148 19.8224 0.00598686 24.7462 0.0251044C26.2893 0.0310336 25.5079 0.0575377 26.5731 0.062824C28.6565 0.0731291 30.5975 0.0601305 32.6563 0.0724065C33.3386 0.0766045 32.4893 0.118587 33.2047 0.122028C37.1252 0.140582 40.8342 0.129888 44.8057 0.138813C64.3683 0.182843 83.5978 0.198602 103.4 0.217731C109.929 0.224002 117.866 0.262103 124.61 0.245441C125.397 0.243458 124.928 0.206608 125.078 0.203571C127.427 0.157075 126.646 0.231467 128.18 0.241351C134.268 0.280377 141.038 0.283771 146.897 0.269549C149.39 0.263391 146.89 0.190198 149.4 0.23128C149.574 0.234056 148.942 0.273188 149.626 0.277362C151.176 0.286749 154.117 0.279755 155.318 0.282855C157.634 0.289028 158.017 0.288635 160.207 0.289081C163.201 0.290031 166.762 0.309483 169.974 0.300616C170.66 0.298607 169.752 0.258493 170.846 0.251666C171.94 0.244851 174.836 0.248252 175.812 0.257709C176.788 0.26717 176.373 0.298699 176.545 0.305926C177.967 0.366925 181.316 0.282442 181.747 0.280353C189.604 0.244753 196.342 0.29288 203.718 0.292743C209.317 0.292536 215.304 0.276648 220.631 0.278827C226.979 0.281578 232.358 0.303315 238.524 0.299579C239.175 0.29923 238.412 0.252065 239.207 0.251544C247.652 0.246056 256.037 0.251197 264.445 0.283038C265.288 0.286273 264.201 0.327684 265.044 0.333392C270.201 0.367424 278.362 0.449179 281.426 0.268878C284.92 0.275918 289.161 0.283193 292.287 0.319537C294.302 0.342929 292.345 0.388042 294.82 0.368792C295.378 0.364503 294.652 0.324995 295.49 0.321551C299.015 0.307088 302.866 0.31993 306.354 0.299518C307.063 0.295273 306.87 0.259872 307.071 0.253497C308.76 0.201871 311.572 0.287213 312.185 0.293414C316.853 0.339658 320.262 0.32146 324.61 0.322589C325.619 0.322871 324.426 0.27532 325.397 0.273883C330.434 0.267068 335.65 0.271155 340.582 0.292254C341.679 0.297062 340.67 0.337567 341.194 0.341937C343.505 0.360712 344.018 0.284209 346.234 0.300738C346.701 0.304125 346.438 0.3388 346.524 0.342608C347.858 0.402389 349.017 0.317684 349.36 0.315814C353.7 0.290261 356.475 0.378689 360.668 0.366168C361.17 0.36458 360.039 0.320706 361.449 0.318927C370.843 0.306815 380.779 0.318867 390.078 0.353961C391.524 0.359358 390.492 0.392317 390.583 0.39638C392.065 0.459864 393.025 0.374803 393.496 0.3716C397.215 0.348541 400.69 0.419874 403.217 0.31856C418.967 0.35372 434.646 0.296827 450.267 0.387591C450.465 0.388642 450.109 0.430535 450.506 0.432452C455.277 0.455974 454.361 0.390865 457.517 0.311236C458.313 0.291241 460.732 0.38738 460.946 0.394427C461.726 0.420396 460.917 0.48272 461.178 0.487749C463.339 0.527241 462.987 0.321129 465.902 0.321063C465.993 0.321407 465.61 0.359344 465.855 0.363116C466.615 0.374958 467.369 0.359883 468.112 0.372943C469.815 0.403161 470.421 0.503313 473.021 0.445025C473.35 0.43746 472.848 0.320545 475.45 0.326068C476.488 0.328369 481.081 0.326365 482.368 0.333941C483.654 0.341509 482.771 0.379185 482.863 0.380816C486.327 0.430636 485.013 0.451284 486.749 0.525042C488.484 0.598522 488.003 0.423265 488.71 0.403704C489.419 0.384199 491.959 0.425303 492.583 0.439593C493.207 0.453888 492.429 0.477829 492.983 0.485918C496.661 0.538773 494.598 0.398928 495.81 0.371112C498.667 0.305249 500.892 0.435219 503.508 0.447955C504.215 0.451394 503.638 0.421792 504.268 0.419024C506.764 0.408452 508.265 0.449006 511.105 0.411822C511.569 0.405762 513.865 0.327621 515.351 0.384967C515.561 0.393236 514.963 0.425624 516.027 0.432879C517.616 0.443767 520.479 0.450846 522.188 0.44002C523.449 0.43201 522.003 0.378642 523.591 0.39522C524.296 0.402623 522.989 0.433844 524.314 0.445147C525.633 0.456447 529.004 0.455075 530.286 0.453997C531.567 0.452895 530.866 0.412413 530.969 0.409686C531.595 0.394063 534.053 0.374542 534.27 0.374591C545.223 0.369649 555.323 0.437886 565.988 0.415301C566.825 0.413587 566.267 0.370898 566.395 0.370196C569.26 0.35231 567.001 0.465811 569.002 0.503802C568.713 0.417173 569.895 0.432858 571.913 0.423358C572.885 0.418709 572.356 0.385165 572.444 0.381732C573.887 0.330783 574.891 0.39659 575.149 0.410052C576.104 0.459572 577.144 0.401061 577.794 0.434161C578.444 0.467013 576.949 0.515717 578.884 0.515093C579.427 0.484083 577.99 0.403044 579.459 0.38991C585.004 0.340231 595.354 0.403813 599.812 0.410418C604.261 0.417017 605.698 0.411296 608.29 0.422503C612.973 0.442767 611.257 0.382641 614.165 0.35512C617.081 0.327603 615.664 0.475539 616.083 0.507342C616.494 0.53913 616.944 0.506407 617.456 0.523882C617.966 0.541353 616.861 0.562976 618.061 0.569536C619.262 0.57609 622.545 0.519537 622.97 0.486285C623.87 0.415836 622.391 0.341897 625.568 0.367877C625.75 0.369419 625.157 0.408318 625.857 0.412249C631.414 0.442195 637.187 0.444052 642.737 0.470538C643.5 0.47424 642.818 0.517514 643.262 0.520159C647.888 0.547838 646.234 0.474872 648.77 0.393817C648.2 0.501684 649.602 0.567679 653.113 0.568316C655.224 0.568736 654.86 0.521625 656.225 0.488421C656.635 0.478411 658.128 0.51076 658.399 0.488604C659.291 0.41618 657.885 0.335106 661.505 0.367388C661.663 0.368923 661.158 0.408567 661.706 0.410967C665.254 0.426682 665.678 0.350928 669.512 0.341754C672.518 0.334555 677.863 0.380749 681.285 0.388262C681.213 0.509537 684.445 0.481767 685.756 0.39815C687.977 0.401573 690.376 0.396846 692.522 0.408404C693.261 0.412344 692.776 0.447457 692.869 0.45125C694.298 0.510765 695.263 0.429415 695.742 0.426226C700.938 0.395224 705.171 0.456881 710.129 0.396624C710.305 0.394454 710.59 0.310213 711.916 0.371722C712.002 0.375962 710.364 0.41429 712.696 0.417254C715.029 0.420225 719.427 0.465384 722.666 0.426348C723.45 0.416951 725.432 0.348564 727.023 0.401995C727.235 0.409251 727.003 0.433411 727.309 0.446856C728.298 0.489695 728.838 0.404549 730 0.476885C731.163 0.549219 733.581 0.603391 736.847 0.553484C736.951 0.552033 737.725 0.484546 738.752 0.485613C740.391 0.487375 742.719 0.501434 744.431 0.500994C745.251 0.500759 744.726 0.458853 744.868 0.458086C750.38 0.434604 754.303 0.471963 760.207 0.488177C761.29 0.491232 764.401 0.434086 766.496 0.479266C768.797 0.528723 766.432 0.734456 771.721 0.685442C773.854 0.665837 776.555 0.404826 780.388 0.540056C787.823 0.506547 794.698 0.575757 802.154 0.52791C802.489 0.525791 803.549 0.452945 804.337 0.453936C805.507 0.455549 806.15 0.489596 806.985 0.491839C810.486 0.502094 813.69 0.472965 817.065 0.477496C818.347 0.479142 817.899 0.514346 819.427 0.516314C820.955 0.518249 821.974 0.471891 824.044 0.49428C825.607 0.511346 827.17 0.606099 829.245 0.617144C829.324 0.52368 830.749 0.525605 833.283 0.500933C833.77 0.496146 833.247 0.463616 833.478 0.459673C834.415 0.442907 835.283 0.469868 836.173 0.451617C836.389 0.447233 836.4 0.415315 836.577 0.40993C838.082 0.362924 840.562 0.434721 840.988 0.447222C842.62 0.494698 843.383 0.453185 844.635 0.47188C845.885 0.490574 844.016 0.513942 845.476 0.525286C848.502 0.548749 852.391 0.543594 855.465 0.545061C856.692 0.545449 855.855 0.502843 856.03 0.50191C858.567 0.491103 861.131 0.536424 862.538 0.451556C864.296 0.670994 864.067 0.430271 867.692 0.4742C867.978 0.477753 868.341 0.581523 867.245 0.596758C866.148 0.611978 864.486 0.579541 862.965 0.603289C862.605 0.608862 860.541 0.706101 860.26 0.711992C858.054 0.758027 857.742 0.602956 857.625 0.594439C856.302 0.502523 853.781 0.60728 853.117 0.614519C850.079 0.647687 847.498 0.625878 844.958 0.649553C843.296 0.664854 843.134 0.766432 841.829 0.763322C837.491 0.753046 835.977 0.611344 831.89 0.734209C831.013 0.760413 831.884 0.871434 828.744 0.784135C828.547 0.778632 826.215 0.698769 824.868 0.749284C824.699 0.755653 824.704 0.788009 824.481 0.790727C822.985 0.808308 821.988 0.782532 820.359 0.794877C818.73 0.807223 816.772 0.825627 814.912 0.814653C813.791 0.80809 812.353 0.747808 811.817 0.733049C810.302 0.690533 808.677 0.760241 807.739 0.708757C806.792 0.657014 808.643 0.578433 806.161 0.545C806.069 0.629062 805.858 0.715343 805.71 0.799882C800.271 0.796922 794.919 0.76974 789.462 0.773454C788.786 0.773999 789.478 0.819191 788.753 0.820939C785.693 0.828119 783.02 0.795903 779.847 0.808732C777.39 0.818836 774.697 0.866685 772.128 0.878739C770.559 0.782549 766.748 0.815203 763.979 0.806413C763.009 0.803376 763.074 0.777685 762.384 0.769304C759.782 0.738306 761.002 0.823309 760.288 0.836686C757.228 0.893778 756.966 0.701379 753.357 0.706132C753.166 0.706319 750.829 0.808876 750.507 0.815263C748.462 0.856909 750.169 0.779567 748.889 0.771989C746.552 0.758142 744.928 0.733649 742.187 0.763688C741.387 0.772586 739.47 0.836509 737.917 0.787065C737.713 0.78059 737.826 0.746692 737.662 0.744707C734.686 0.711615 734.608 0.818129 732.907 0.854203C731.207 0.890269 728.58 0.816741 728.046 0.795549C726.647 0.740727 729.117 0.77212 729.193 0.76674C730.082 0.702717 728.167 0.71374 726.703 0.70833C726.491 0.603891 724.444 0.61016 725.186 0.703142C725.27 0.713298 726.409 0.703558 726.703 0.70833C725.418 0.810799 723.169 0.823922 720.684 0.728166C719.521 0.683287 720.62 0.63096 717.087 0.650102C715.484 0.658744 716.103 0.730655 714.688 0.750261C711.455 0.794993 707.254 0.727912 703.922 0.738481C702.712 0.742318 703.89 0.781682 703.064 0.785661C700.87 0.796343 698.935 0.766808 696.732 0.781938C696.532 0.783359 697.02 0.824565 696.335 0.82509C691.14 0.829875 686.617 0.803482 681.194 0.802751C678.574 0.802416 673.889 0.825142 671.174 0.820573C666.47 0.812897 660.682 0.752977 656.663 0.767534C654.042 0.776851 654.617 0.818066 653.493 0.846147C651.326 0.900579 647.49 0.803078 646.973 0.78798C646.957 0.787481 649.213 0.777765 648.009 0.756608C647.309 0.712525 646.998 0.787789 646.973 0.78798C646.634 0.778227 642.128 0.768871 641.233 0.77675C640.747 0.781055 641.019 0.820104 640.765 0.821611C634.74 0.856555 628.704 0.86648 622.593 0.848222C622.486 0.847433 622.648 0.803755 622.395 0.802446C618.857 0.783025 616.592 0.836457 613.674 0.86818C610.756 0.899889 608.443 0.889269 606.716 0.814286C604.515 0.823727 601.356 0.790578 599.539 0.770463C597.722 0.750349 597.468 0.835372 597.309 0.837052C592.321 0.89085 589.438 0.842185 584.264 0.834611C581.804 0.830865 576.925 0.843197 574.261 0.852494C572.156 0.859984 570.888 0.840059 568.949 0.8528C568.686 0.854501 568.951 0.892357 568.871 0.893815C566.706 0.939108 567.747 0.846562 567.3 0.830033C565.68 0.769927 564.678 0.737915 561.907 0.766191C561.267 0.772666 559.405 0.90592 558.239 0.913712C556.724 0.9236 557.296 0.875837 555.709 0.887406C555.573 0.888353 555.601 0.917819 554.622 0.91652C550.077 0.910877 545.121 0.893731 540.397 0.896684C539.751 0.896974 540.579 0.943712 539.646 0.944901C535.272 0.950441 530.477 0.948712 526.215 0.926835C525.166 0.921303 525.824 0.888578 525.596 0.878861C524.198 0.820069 522.216 0.905493 521.888 0.907121C514.085 0.948171 508.113 0.870864 500.16 0.90767C499.727 0.909831 496.395 1.00141 494.908 0.922868C494.806 0.917642 493.335 0.837289 492.034 0.892228C491.954 0.895665 492.87 0.937033 491.271 0.932816C489.671 0.928609 487.097 0.956234 484.898 0.910783C484.202 0.896465 482.557 0.816309 480.481 0.880204C480.345 0.884665 477.14 1.02914 475.996 0.929459C475.81 0.913051 476.004 0.807566 473.526 0.86165C473.052 0.872135 473.912 0.895663 472.665 0.910355C470.753 0.932999 468.221 0.904747 465.872 0.951737C465.462 0.960056 463.718 1.03165 462.319 0.977311C462.099 0.9688 462.516 0.933584 461.777 0.929643C458.263 0.910738 454.584 0.934294 451.017 0.909928C449.754 0.901367 450.399 0.844435 449.082 0.829179C447.765 0.813928 445.111 0.799257 443.733 0.825273C442.354 0.8513 443.86 0.942035 441.795 0.949296C432.816 0.98083 423.921 0.927602 414.956 0.919816C413.626 0.918653 414.728 0.951121 412.769 0.951737C405.544 0.954153 393.07 0.984595 386.801 0.915604C381.778 0.860347 388.099 0.818279 384.261 0.795793C382.408 0.785066 380.404 0.890555 379.957 0.893876C375.589 0.927611 372.554 0.880882 368.622 0.895219C367.81 0.898194 368.606 0.940949 367.915 0.943009C365.555 0.950424 363.075 0.93134 360.82 0.93483C359.808 0.936495 359.994 0.96915 359.063 0.96663C356.836 0.960975 354.866 0.947249 352.694 0.916642C352.496 0.913853 353.831 0.873231 352.183 0.87172C349.515 0.869391 346.204 0.839197 343.135 0.870378C342.225 0.879757 342.189 0.95439 340.232 0.902848C339.821 0.892083 340.345 0.802466 338.065 0.879899C337.682 0.892767 333.851 0.99721 331.972 0.929887C331.476 0.912168 330.21 0.838833 329.115 0.850358C328.967 0.852197 329.562 0.892285 328.654 0.896195C325.456 0.909279 322.105 0.905002 318.82 0.917558C317.942 0.92099 319.249 0.962473 317.942 0.966263C314.346 0.976749 309.857 0.966186 306.34 0.953202C305.044 0.948336 305.94 0.913973 305.846 0.910233C304.329 0.849408 303.432 0.931508 302.929 0.936295C299.798 0.96496 297.414 0.926395 294.527 0.936601C293.731 0.939313 294.296 0.978459 294.137 0.981949C292.493 1.01605 293.718 0.945754 292.677 0.938004C289.761 0.916062 286.511 0.919208 283.562 0.92421C282.479 0.926105 283.697 0.971496 282.725 0.972672C276.972 0.980494 270.991 0.97615 265.377 0.951127C264.32 0.946333 264.985 0.911381 264.765 0.903397C263.246 0.847545 261.021 0.923728 260.508 0.930985C258.18 0.964121 257.276 0.933212 255.219 0.938981C245.174 0.967705 232.771 0.947234 223.289 0.934586C210.934 0.918309 201.346 0.885059 189.563 0.893693C188.814 0.894198 189.569 0.940695 188.924 0.941727C180.589 0.952936 172.384 0.934767 164.033 0.948197C163.347 0.949217 164.335 0.993296 163.235 0.996415C160.979 1.00312 158.121 1.00072 155.84 0.986649C154.727 0.979868 156.22 0.942043 155.1 0.93599C152.492 0.921809 149.697 0.91867 147.018 0.925736C145.878 0.92884 147.598 0.973922 146.116 0.974442C136.024 0.978915 126.112 0.986679 115.913 0.9283C115.213 0.92429 114.6 0.832665 113.113 0.850236C113.001 0.875664 113.007 0.905576 112.958 0.932755C98.2662 0.947396 83.7238 0.915633 68.9903 0.910722C68.3691 0.910525 69.4426 0.959073 68.24 0.958939C61.2792 0.958222 54.5199 0.971671 47.3998 0.923417C46.6934 0.918698 47.0558 0.833291 44.974 0.846208C44.6068 0.848565 41.4713 0.859955 40.6606 0.878495C40.5505 0.881292 41.1225 0.921156 40.1122 0.922318C34.2406 0.928372 28.0875 0.919271 22.2261 0.894914C21.2801 0.890906 22.2875 0.848454 21.6138 0.845231C16.8343 0.822696 11.6357 0.854967 7.06873 0.816423C4.01176 0.79047 5.14354 0.717087 3.51911 0.644853C3.28935 0.634662 1.39638 0.633047 1.29849 0.591021C1.04717 0.48534 1.96407 0.369621 1.58784 0.256976C1.50836 0.232713 -1.02681 0.258846 0.474171 0.200214C0.579031 0.19629 2.41704 0.17683 2.86974 0.15694C3.18493 0.143188 2.61695 0.100447 3.26003 0.0828434C3.90306 0.0652564 4.60967 0.101084 5.6758 0.080402C6.74145 0.0594636 6.27288 0.0108407 8.4011 0.0050849ZM591.357 0.680559C589.674 0.639728 589.426 0.789275 591.246 0.753496C591.334 0.751589 591.443 0.682562 591.357 0.680559ZM794.95 0.656938C792.75 0.590977 791.245 0.687966 792.797 0.738908C794.348 0.789796 795.62 0.676934 794.95 0.656938ZM817.762 0.608782C815.191 0.556775 814.786 0.768839 817.54 0.725969C817.7 0.723546 817.912 0.611802 817.762 0.608782ZM11.0524 0.624285C11.0291 0.622299 9.66841 0.620363 9.63589 0.622331C8.91133 0.669827 11.6322 0.673665 11.0524 0.624285ZM840.399 0.556353C839.596 0.527666 837.285 0.560781 838.282 0.596453C839.085 0.625149 841.398 0.592037 840.399 0.556353ZM503.578 0.520952C503.552 0.518724 502.576 0.516717 502.596 0.529314C502.662 0.569886 504.02 0.558436 503.578 0.520952ZM878.872 0.553911C873.188 0.545929 869.742 0.370754 875.932 0.390521C877.053 0.394097 873.516 0.446383 874.943 0.462176C877.553 0.490948 879.287 0.38096 881.951 0.439898C882.433 0.450686 879.197 0.554756 878.862 0.554155C878.866 0.554074 878.869 0.553993 878.872 0.553911ZM590.388 0.500933C590.354 0.498955 589.004 0.49708 588.971 0.499041C588.24 0.546518 590.96 0.550323 590.388 0.500933ZM446.653 0.428484C446.579 0.424271 443.445 0.420329 443.342 0.424212C441.708 0.50185 448.044 0.510048 446.653 0.428484ZM681.339 0.391497C682.812 0.343735 684.575 0.338112 685.75 0.398089C684.285 0.394905 682.811 0.394436 681.339 0.391497Z" fill="var(--stroke-0, white)"/>
</svg>
