<svg preserveAspectRatio="none" width="100%" height="100%" overflow="visible" style="display: block;" viewBox="0 0 2195 3" fill="none" xmlns="http://www.w3.org/2000/svg">
<path id="Line 70" d="M20.9075 0.0152547C33.2077 -0.0238245 49.3312 0.0179606 61.5849 0.0753131C65.4252 0.0931009 63.4806 0.172613 66.1316 0.188472C71.3164 0.219387 76.1467 0.180391 81.2704 0.217219C82.9685 0.229814 80.8548 0.355761 82.6353 0.366084C92.3922 0.421745 101.623 0.389665 111.506 0.416438C160.191 0.548528 208.047 0.595807 257.327 0.653192C273.576 0.672006 293.329 0.786308 310.112 0.736322C312.071 0.730373 310.903 0.619823 311.276 0.610712C317.123 0.471225 315.179 0.694402 318.996 0.724054C334.147 0.841131 350.996 0.851313 365.577 0.808648C371.78 0.790173 365.56 0.570593 371.806 0.693841C372.24 0.702169 370.666 0.819565 372.367 0.832086C376.225 0.860247 383.545 0.839264 386.535 0.848565C392.298 0.867085 393.251 0.865904 398.701 0.867242C406.152 0.870092 415.015 0.928449 423.009 0.901849C424.715 0.895822 422.456 0.775478 425.178 0.754998C427.902 0.734553 435.107 0.744757 437.537 0.773126C439.967 0.801509 438.932 0.896098 439.362 0.917779C442.9 1.10077 451.235 0.847326 452.307 0.841058C471.861 0.73426 488.63 0.87864 506.985 0.878228C520.919 0.877609 535.818 0.829944 549.077 0.83648C564.873 0.844733 578.261 0.909946 593.606 0.898736C595.226 0.897691 593.328 0.756194 595.306 0.754632C616.321 0.738167 637.19 0.753591 658.114 0.849114C660.212 0.858819 657.508 0.983052 659.604 1.00018C672.44 1.10227 692.75 1.34754 700.374 0.806634C709.068 0.827755 719.624 0.849578 727.403 0.958611C732.418 1.02879 727.547 1.16413 733.708 1.10638C735.097 1.09351 733.29 0.974986 735.374 0.964654C744.147 0.921264 753.733 0.959791 762.411 0.898553C764.177 0.885818 763.695 0.779616 764.195 0.760492C768.399 0.605612 775.397 0.861638 776.922 0.880242C788.539 1.01897 797.023 0.964379 807.845 0.967766C810.356 0.968612 807.388 0.825959 809.804 0.821649C822.337 0.801203 835.321 0.813464 847.593 0.876763C850.323 0.891186 847.812 1.0127 849.117 1.02581C854.869 1.08214 856.144 0.852626 861.66 0.902215C862.823 0.912374 862.168 1.0164 862.38 1.02782C865.7 1.20717 868.585 0.953052 869.439 0.947442C880.241 0.870784 887.146 1.13607 897.581 1.0985C898.83 1.09374 896.014 0.962118 899.524 0.95678C922.903 0.920444 947.63 0.956602 970.772 1.06188C974.37 1.07807 971.802 1.17695 972.028 1.18914C975.718 1.37959 978.106 1.12441 979.279 1.1148C988.535 1.04562 997.181 1.25962 1003.47 0.955681C1042.67 1.06116 1081.69 0.89048 1120.56 1.16277C1121.06 1.16593 1120.17 1.2916 1121.16 1.29736C1133.03 1.36792 1130.75 1.1726 1138.61 0.933709C1140.59 0.873723 1146.61 1.16214 1147.14 1.18328C1149.08 1.26119 1147.07 1.44816 1147.72 1.46325C1153.09 1.58172 1152.22 0.963388 1159.47 0.963189C1159.7 0.96422 1158.75 1.07803 1159.36 1.08935C1161.25 1.12488 1163.12 1.07965 1164.97 1.11883C1169.21 1.20948 1170.72 1.50994 1177.19 1.33507C1178.01 1.31238 1176.76 0.961634 1183.24 0.978203C1185.82 0.985106 1197.25 0.979094 1200.45 1.00182C1203.65 1.02453 1201.45 1.13755 1201.68 1.14245C1210.3 1.29191 1207.03 1.35385 1211.35 1.57513C1215.67 1.79556 1214.47 1.2698 1216.23 1.21111C1218 1.1526 1224.32 1.27591 1225.87 1.31878C1227.42 1.36167 1225.49 1.43349 1226.87 1.45776C1236.02 1.61632 1230.89 1.19678 1233.9 1.11333C1241.01 0.915746 1246.55 1.30566 1253.06 1.34386C1254.82 1.35418 1253.38 1.26538 1254.95 1.25707C1261.16 1.22536 1264.9 1.34702 1271.97 1.23547C1273.12 1.21729 1278.84 0.982862 1282.53 1.1549C1283.06 1.17971 1281.57 1.27687 1284.22 1.29864C1288.17 1.3313 1295.3 1.35254 1299.55 1.32006C1302.69 1.29603 1299.09 1.13593 1303.04 1.18566C1304.8 1.20787 1301.54 1.30153 1304.84 1.33544C1308.12 1.36934 1316.51 1.36523 1319.7 1.36199C1322.89 1.35869 1321.15 1.23724 1321.4 1.22906C1322.96 1.18219 1329.08 1.12363 1329.62 1.12377C1356.88 1.10895 1382.01 1.31366 1408.55 1.2459C1410.63 1.24076 1409.25 1.11269 1409.57 1.11059C1416.7 1.05693 1411.07 1.39743 1416.05 1.5114C1415.33 1.25152 1418.28 1.29857 1423.3 1.27007C1425.72 1.25613 1424.4 1.1555 1424.62 1.14519C1428.21 0.992349 1430.71 1.18977 1431.35 1.23016C1433.73 1.37872 1436.32 1.20318 1437.93 1.30248C1439.55 1.40104 1435.83 1.54715 1440.65 1.54528C1442 1.45225 1438.42 1.20913 1442.08 1.16973C1455.88 1.02069 1481.63 1.21144 1492.73 1.23125C1503.8 1.25105 1507.38 1.23389 1513.83 1.26751C1525.48 1.3283 1521.21 1.14792 1528.45 1.06536C1535.71 0.982808 1532.18 1.42662 1533.22 1.52202C1534.25 1.61739 1535.36 1.51922 1536.64 1.57165C1537.91 1.62406 1535.16 1.68893 1538.15 1.70861C1541.13 1.72827 1549.3 1.55861 1550.36 1.45885C1552.6 1.24751 1548.92 1.02569 1556.83 1.10363C1557.28 1.10826 1555.81 1.22495 1557.55 1.23675C1571.38 1.32659 1585.74 1.33215 1599.56 1.41161C1601.45 1.42272 1599.76 1.55254 1600.86 1.56048C1612.37 1.64351 1608.26 1.42462 1614.57 1.18145C1613.15 1.50505 1616.64 1.70304 1625.38 1.70495C1630.63 1.70621 1629.73 1.56487 1633.12 1.46526C1634.14 1.43523 1637.86 1.53228 1638.53 1.46581C1640.75 1.24854 1637.25 1.00532 1646.26 1.10217C1646.66 1.10677 1645.4 1.2257 1646.76 1.2329C1655.59 1.28005 1656.65 1.05278 1666.19 1.02526C1673.67 1.00367 1686.97 1.14225 1695.49 1.16479C1695.31 1.52861 1703.35 1.4453 1706.62 1.19445C1712.14 1.20472 1718.11 1.19054 1723.45 1.22521C1725.29 1.23703 1724.09 1.34237 1724.32 1.35375C1727.87 1.5323 1730.27 1.28825 1731.47 1.27868C1744.4 1.18567 1754.93 1.37064 1767.27 1.18987C1767.71 1.18336 1768.42 0.930638 1771.72 1.11517C1771.93 1.12789 1767.86 1.24287 1773.66 1.25176C1779.47 1.26067 1790.41 1.39615 1798.47 1.27904C1800.42 1.25085 1805.35 1.04569 1809.31 1.20599C1809.84 1.22775 1809.26 1.30023 1810.03 1.34057C1812.49 1.46909 1813.83 1.21365 1816.72 1.43066C1819.62 1.64766 1825.64 1.81017 1833.76 1.66045C1834.02 1.6561 1835.95 1.45364 1838.5 1.45684C1842.58 1.46212 1848.38 1.5043 1852.64 1.50298C1854.68 1.50228 1853.37 1.37656 1853.73 1.37426C1867.44 1.30381 1877.2 1.41589 1891.9 1.46453C1894.59 1.4737 1902.33 1.30226 1907.55 1.4378C1913.28 1.58617 1907.39 2.20337 1920.55 2.05632C1925.86 1.99751 1932.58 1.21448 1942.12 1.62017C1960.62 1.51964 1977.74 1.72727 1996.29 1.58373C1997.12 1.57737 1999.76 1.35883 2001.72 1.36181C2004.64 1.36665 2006.23 1.46879 2008.31 1.47552C2017.03 1.50628 2025 1.41889 2033.4 1.43249C2036.59 1.43743 2035.47 1.54304 2039.28 1.54894C2043.08 1.55475 2045.61 1.41567 2050.77 1.48284C2054.66 1.53404 2058.55 1.8183 2063.71 1.85143C2063.91 1.57104 2067.45 1.57682 2073.76 1.5028C2074.97 1.48844 2073.67 1.39085 2074.24 1.37902C2076.58 1.32872 2078.74 1.4096 2080.95 1.35485C2081.49 1.3417 2081.52 1.24594 2081.96 1.22979C2085.7 1.08877 2091.87 1.30416 2092.93 1.34167C2097 1.48409 2098.89 1.35955 2102.01 1.41564C2105.12 1.47172 2100.47 1.54183 2104.1 1.57586C2111.64 1.64625 2121.31 1.63078 2128.96 1.63518C2132.02 1.63635 2129.93 1.50853 2130.37 1.50573C2136.68 1.47331 2143.06 1.60927 2146.56 1.35467C2150.94 2.01298 2150.37 1.29081 2159.39 1.4226C2160.1 1.43326 2161.01 1.74457 2158.28 1.79027C2155.55 1.83593 2151.41 1.73862 2147.63 1.80987C2146.73 1.82658 2141.6 2.1183 2140.9 2.13598C2135.41 2.27408 2134.63 1.80887 2134.34 1.78332C2131.05 1.50757 2124.77 1.82184 2123.12 1.84356C2115.56 1.94306 2109.14 1.87764 2102.81 1.94866C2098.68 1.99456 2098.27 2.29929 2095.03 2.28997C2084.23 2.25914 2080.46 1.83403 2070.29 2.20263C2068.11 2.28124 2070.28 2.6143 2062.46 2.35241C2061.97 2.33589 2056.17 2.09631 2052.82 2.24785C2052.4 2.26696 2052.41 2.36403 2051.85 2.37218C2048.13 2.42493 2045.65 2.3476 2041.6 2.38463C2037.54 2.42167 2032.67 2.47688 2028.04 2.44396C2025.25 2.42427 2021.67 2.24342 2020.34 2.19915C2016.57 2.0716 2012.52 2.28072 2010.19 2.12627C2007.83 1.97104 2012.44 1.7353 2006.26 1.635C2006.03 1.88719 2005.51 2.14603 2005.14 2.39965C1991.6 2.39077 1978.29 2.30922 1964.71 2.32036C1963.02 2.322 1964.74 2.45757 1962.94 2.46282C1955.32 2.48436 1948.67 2.38771 1940.77 2.4262C1934.66 2.45651 1927.96 2.60005 1921.57 2.63622C1917.66 2.34765 1908.18 2.44561 1901.29 2.41924C1898.87 2.41013 1899.03 2.33305 1897.32 2.30791C1890.84 2.21492 1893.88 2.46993 1892.1 2.51006C1884.48 2.68133 1883.83 2.10414 1874.85 2.1184C1874.38 2.11896 1868.56 2.42663 1867.76 2.44579C1862.67 2.57073 1866.92 2.3387 1863.73 2.31597C1857.92 2.27442 1853.88 2.20095 1847.05 2.29107C1845.06 2.31776 1840.29 2.50953 1836.43 2.36119C1835.92 2.34177 1836.2 2.24007 1835.79 2.23412C1828.39 2.13484 1828.19 2.45439 1823.96 2.56261C1819.73 2.67081 1813.19 2.45022 1811.86 2.38665C1808.38 2.22218 1814.53 2.31636 1814.71 2.30022C1816.93 2.10815 1812.16 2.14122 1808.52 2.12499C1807.99 1.81167 1802.9 1.83048 1804.74 2.10943C1804.95 2.13989 1807.79 2.11068 1808.52 2.12499C1805.32 2.4324 1799.72 2.47177 1793.54 2.1845C1790.64 2.04986 1793.38 1.89288 1784.59 1.95031C1780.6 1.97623 1782.14 2.19197 1778.62 2.25078C1770.57 2.38498 1760.12 2.18373 1751.82 2.21544C1748.81 2.22695 1751.75 2.34505 1749.69 2.35698C1744.23 2.38903 1739.41 2.30042 1733.93 2.34581C1733.43 2.35008 1734.65 2.47369 1732.94 2.47527C1720.01 2.48963 1708.76 2.41045 1695.26 2.40825C1688.74 2.40725 1677.08 2.47543 1670.33 2.46172C1658.62 2.43869 1644.21 2.25893 1634.21 2.3026C1627.69 2.33055 1629.12 2.4542 1626.32 2.53844C1620.93 2.70174 1611.38 2.40923 1610.1 2.36394C1610.06 2.36244 1615.67 2.33329 1612.68 2.26983C1610.93 2.13758 1610.16 2.36337 1610.1 2.36394C1609.25 2.33468 1598.04 2.30661 1595.81 2.33025C1594.6 2.34317 1595.28 2.46031 1594.65 2.46483C1579.65 2.56967 1564.63 2.59944 1549.42 2.54467C1549.16 2.5423 1549.56 2.41127 1548.93 2.40734C1540.13 2.34908 1534.49 2.50937 1527.23 2.60454C1519.97 2.69967 1514.21 2.66781 1509.91 2.44286C1504.43 2.47118 1496.57 2.37173 1492.05 2.31139C1487.53 2.25105 1486.9 2.50612 1486.5 2.51116C1474.09 2.67255 1466.91 2.52655 1454.04 2.50383C1447.91 2.49259 1435.77 2.52959 1429.14 2.55748C1423.9 2.57995 1420.75 2.52018 1415.92 2.5584C1415.27 2.5635 1415.93 2.67707 1415.73 2.68144C1410.34 2.81732 1412.93 2.53969 1411.82 2.4901C1407.79 2.30978 1405.29 2.21375 1398.4 2.29857C1396.8 2.318 1392.17 2.71776 1389.27 2.74114C1385.5 2.7708 1386.92 2.62751 1382.97 2.66222C1382.63 2.66506 1382.7 2.75346 1380.27 2.74956C1368.95 2.73263 1356.62 2.68119 1344.87 2.69005C1343.26 2.69092 1345.32 2.83114 1343 2.8347C1332.11 2.85132 1320.18 2.84614 1309.57 2.7805C1306.96 2.76391 1308.6 2.66573 1308.03 2.63658C1304.55 2.46021 1299.62 2.71648 1298.8 2.72136C1279.38 2.84451 1264.52 2.61259 1244.73 2.72301C1243.65 2.72949 1235.36 3.00422 1231.66 2.7686C1231.41 2.75293 1227.74 2.51187 1224.51 2.67668C1224.31 2.687 1226.59 2.8111 1222.61 2.79845C1218.63 2.78583 1212.22 2.8687 1206.75 2.73235C1205.02 2.68939 1200.92 2.44893 1195.75 2.64061C1195.42 2.65399 1187.44 3.08742 1184.59 2.78838C1184.13 2.73915 1184.61 2.4227 1178.45 2.58495C1177.27 2.6164 1179.41 2.68699 1176.3 2.73107C1171.55 2.799 1165.24 2.71424 1159.4 2.85521C1158.38 2.88017 1154.04 3.09496 1150.55 2.93193C1150.01 2.9064 1151.05 2.80075 1149.21 2.78893C1140.46 2.73221 1131.31 2.80288 1122.43 2.72978C1119.28 2.7041 1120.89 2.53331 1117.61 2.48754C1114.34 2.44178 1107.73 2.39777 1104.3 2.47582C1100.87 2.5539 1104.62 2.82611 1099.48 2.84789C1077.13 2.94249 1055 2.78281 1032.68 2.75945C1029.37 2.75596 1032.12 2.85336 1027.24 2.85521C1009.26 2.86246 978.219 2.95378 962.617 2.74681C950.116 2.58104 965.847 2.45484 956.295 2.38738C951.685 2.3552 946.698 2.67166 945.585 2.68163C934.715 2.78283 927.16 2.64265 917.376 2.68566C915.355 2.69458 917.337 2.82285 915.617 2.82903C909.744 2.85127 903.571 2.79402 897.958 2.80449C895.44 2.80948 895.904 2.90745 893.587 2.89989C888.043 2.88293 883.141 2.84175 877.737 2.74993C877.244 2.74156 880.566 2.61969 876.464 2.61516C869.826 2.60817 861.586 2.51759 853.948 2.61113C851.682 2.63927 851.593 2.86317 846.722 2.70854C845.7 2.67625 847.004 2.4074 841.33 2.6397C840.375 2.6783 830.843 2.99163 826.166 2.78966C824.931 2.7365 821.782 2.5165 819.057 2.55107C818.687 2.55659 820.168 2.67686 817.91 2.68859C809.951 2.72784 801.611 2.715 793.434 2.75267C791.251 2.76297 794.503 2.88742 791.249 2.89879C782.301 2.93025 771.128 2.89856 762.378 2.85961C759.152 2.84501 761.382 2.74192 761.147 2.7307C757.372 2.54823 755.14 2.79452 753.887 2.80889C746.095 2.89488 740.162 2.77918 732.979 2.8098C730.997 2.81794 732.403 2.93538 732.008 2.94585C727.916 3.04816 730.964 2.83726 728.374 2.81401C721.118 2.74819 713.029 2.75762 705.691 2.77263C702.995 2.77832 706.025 2.91449 703.606 2.91802C689.289 2.94148 674.406 2.92845 660.433 2.85338C657.803 2.839 659.458 2.73414 658.909 2.71019C655.13 2.54264 649.592 2.77118 648.317 2.79296C642.523 2.89236 640.272 2.79964 635.154 2.81694C610.156 2.90311 579.289 2.8417 555.692 2.80376C524.942 2.75493 501.081 2.65518 471.758 2.68108C469.894 2.68259 471.774 2.82209 470.167 2.82518C449.425 2.85881 429.005 2.8043 408.222 2.84459C406.516 2.84765 408.975 2.97989 406.237 2.98924C400.622 3.00936 393.51 3.00217 387.833 2.95995C385.064 2.9396 388.778 2.82613 385.991 2.80797C379.501 2.76543 372.544 2.75601 365.878 2.77721C363.041 2.78652 367.321 2.92177 363.634 2.92333C338.517 2.93674 313.849 2.96004 288.467 2.7849C286.727 2.77287 285.2 2.498 281.501 2.55071C281.222 2.62699 281.237 2.71673 281.115 2.79827C244.551 2.84219 208.36 2.7469 171.693 2.73217C170.148 2.73158 172.819 2.87722 169.826 2.87682C152.503 2.87466 135.682 2.91501 117.962 2.77025C116.204 2.75609 117.106 2.49987 111.925 2.53862C111.011 2.54569 103.208 2.57987 101.19 2.63549C100.916 2.64388 102.34 2.76347 99.8256 2.76695C85.2133 2.78512 69.9004 2.75781 55.3133 2.68474C52.9591 2.67272 55.4662 2.54536 53.7894 2.53569C41.895 2.46809 28.9573 2.5649 17.5917 2.44927C9.98392 2.37141 12.8005 2.15126 8.75787 1.93456C8.18607 1.90399 3.47512 1.89914 3.2315 1.77306C2.60607 1.45602 4.8879 1.10886 3.95161 0.770929C3.75379 0.69814 -2.55539 0.776538 1.18005 0.600641C1.44101 0.588869 6.0152 0.53049 7.14183 0.47082C7.92622 0.429565 6.51271 0.301341 8.11312 0.24853C9.7134 0.195769 11.4719 0.303253 14.1251 0.241206C16.7772 0.178391 15.6111 0.032522 20.9075 0.0152547ZM1471.69 2.04168C1467.5 1.91918 1466.88 2.36783 1471.41 2.26049C1471.63 2.25477 1471.9 2.04769 1471.69 2.04168ZM1978.36 1.97081C1972.89 1.77293 1969.14 2.0639 1973 2.21672C1976.86 2.36939 1980.03 2.0308 1978.36 1.97081ZM2035.13 1.82635C2028.73 1.67032 2027.73 2.30652 2034.58 2.17791C2034.98 2.17064 2035.51 1.8354 2035.13 1.82635ZM27.5056 1.87285C27.4478 1.8669 24.0614 1.86109 23.9805 1.86699C22.1773 2.00948 28.9487 2.02099 27.5056 1.87285ZM2091.47 1.66906C2089.47 1.583 2083.72 1.68234 2086.2 1.78936C2088.2 1.87545 2093.96 1.77611 2091.47 1.66906ZM1253.24 1.56286C1253.17 1.55617 1250.74 1.55015 1250.79 1.58794C1250.96 1.70966 1254.33 1.67531 1253.24 1.56286ZM2187.22 1.66173C2173.07 1.63779 2164.49 1.11226 2179.9 1.17156C2182.69 1.18229 2173.89 1.33915 2177.44 1.38653C2183.93 1.47284 2188.25 1.14288 2194.88 1.31969C2196.08 1.35206 2188.02 1.66427 2187.19 1.66247C2187.2 1.66222 2187.21 1.66198 2187.22 1.66173ZM1469.28 1.5028C1469.19 1.49687 1465.83 1.49124 1465.75 1.49712C1463.93 1.63955 1470.7 1.65097 1469.28 1.5028ZM1111.57 1.28545C1111.38 1.27281 1103.58 1.26099 1103.33 1.27264C1099.26 1.50555 1115.03 1.53014 1111.57 1.28545ZM1695.62 1.17449C1699.29 1.03121 1703.68 1.01433 1706.6 1.19427C1702.95 1.18472 1699.29 1.18331 1695.62 1.17449Z" fill="var(--stroke-0, white)"/>
</svg>
