<svg preserveAspectRatio="none" width="100%" height="100%" overflow="visible" style="display: block;" viewBox="0 0 1690 3" fill="none" xmlns="http://www.w3.org/2000/svg">
<path id="Line 74" d="M16.0973 0.661683C25.5676 0.62722 37.9816 0.585627 47.4161 0.56231C50.3729 0.554895 48.8757 0.568593 50.9168 0.564419C54.9087 0.556627 58.6278 0.540841 62.5727 0.534766C63.8801 0.532968 62.2527 0.555368 63.6235 0.553387C71.1357 0.543267 78.2424 0.521535 85.8523 0.508718C123.336 0.449401 160.182 0.403076 198.124 0.36717C210.635 0.354508 225.843 0.386952 238.765 0.347113C240.274 0.34227 239.374 0.28963 239.661 0.284805C244.163 0.209591 242.666 0.321186 245.605 0.332198C257.271 0.375335 270.243 0.370017 281.469 0.333845C286.245 0.318291 281.457 0.201046 286.266 0.264021C286.6 0.268342 285.388 0.335713 286.697 0.341371C289.668 0.354199 295.303 0.336626 297.606 0.339653C302.042 0.346022 302.776 0.344721 306.973 0.341482C312.71 0.337452 319.533 0.36714 325.688 0.345482C327.002 0.340531 325.263 0.267301 327.358 0.25229C329.455 0.237241 335.003 0.237447 336.873 0.253678C338.744 0.269882 337.948 0.331294 338.279 0.344861C341.002 0.460462 347.42 0.292076 348.246 0.2865C363.301 0.201319 376.211 0.286093 390.343 0.275946C401.072 0.267269 412.544 0.223223 422.752 0.219876C434.914 0.216224 445.221 0.259473 457.036 0.243195C458.283 0.241529 456.822 0.130856 458.345 0.12841C474.525 0.10245 490.592 0.100986 506.703 0.171153C508.318 0.178349 506.236 0.283872 507.85 0.297459C517.733 0.376968 533.37 0.588218 539.24 0.115132C545.934 0.129572 554.062 0.143873 560.05 0.237889C563.912 0.298539 560.161 0.420162 564.905 0.367339C565.975 0.355531 564.584 0.250513 566.188 0.24065C572.943 0.198981 580.322 0.230597 587.005 0.172333C588.364 0.1602 587.993 0.0639668 588.378 0.0464102C591.614 -0.0962638 597.003 0.133987 598.177 0.150834C607.121 0.274218 613.653 0.222434 621.985 0.222553C623.919 0.222674 621.633 0.0907473 623.494 0.0859756C633.144 0.0628805 643.14 0.0699497 652.589 0.126791C654.69 0.13978 652.758 0.255658 653.762 0.267812C658.19 0.320298 659.172 0.101684 663.419 0.147532C664.315 0.156951 663.81 0.256355 663.974 0.267209C666.53 0.437876 668.751 0.194678 669.408 0.189015C677.725 0.113009 683.041 0.366891 691.076 0.329539C692.037 0.324743 689.87 0.197955 692.572 0.19217C710.573 0.152768 729.61 0.183614 747.428 0.285437C750.198 0.301089 748.221 0.398918 748.395 0.410917C751.236 0.598737 753.075 0.34663 753.978 0.336982C761.104 0.26769 767.761 0.479482 772.603 0.17739C796.82 0.258977 820.947 0.164937 845 0.265412C850.923 0.290172 856.842 0.326754 862.756 0.380635C863.137 0.383794 862.455 0.509407 863.214 0.515163C872.356 0.585796 870.6 0.390517 876.649 0.152217C878.172 0.0924211 882.808 0.380564 883.218 0.401642C884.712 0.479431 883.163 0.665972 883.663 0.681038C887.804 0.799239 887.129 0.182362 892.714 0.182614C892.889 0.183651 892.155 0.297058 892.624 0.308366C894.081 0.343854 895.525 0.298867 896.95 0.337982C900.212 0.42852 901.374 0.727551 906.356 0.553658C906.987 0.531117 906.024 0.182118 911.011 0.199101C912.999 0.206134 921.799 0.201102 924.265 0.223921C926.729 0.246692 925.037 0.358506 925.213 0.363384C931.85 0.511927 929.334 0.573078 932.659 0.79203C935.984 1.00993 935.062 0.490092 936.418 0.432207C937.776 0.374507 942.642 0.49668 943.838 0.538971C945.033 0.581319 943.543 0.652101 944.605 0.676055C951.652 0.832341 947.698 0.418987 950.021 0.337021C955.495 0.143377 959.759 0.527273 964.771 0.564714C966.127 0.574896 965.02 0.487824 966.228 0.479785C971.011 0.449228 973.887 0.568196 979.328 0.459864C980.218 0.44209 984.617 0.214724 987.464 0.382422C987.867 0.406565 986.721 0.500873 988.76 0.522179C991.804 0.554165 997.291 0.575003 1000.56 0.543872C1002.98 0.520874 1000.21 0.365971 1003.25 0.4144C1004.6 0.435986 1002.1 0.526113 1004.64 0.559028C1007.16 0.591901 1013.62 0.588286 1016.08 0.585362C1018.53 0.582351 1017.19 0.465884 1017.39 0.458047C1018.59 0.413239 1023.3 0.358069 1023.71 0.358314C1044.7 0.349149 1064.06 0.54405 1084.49 0.484027C1086.09 0.479574 1085.02 0.361679 1085.27 0.359786C1090.76 0.311922 1086.43 0.623571 1090.27 0.728157C1089.71 0.490086 1091.98 0.533457 1095.84 0.508048C1097.71 0.495636 1096.69 0.403795 1096.86 0.394429C1099.62 0.25605 1101.55 0.436222 1102.04 0.472839C1103.87 0.607862 1105.87 0.449147 1107.11 0.5392C1108.36 0.628334 1105.49 0.760363 1109.2 0.758566C1110.24 0.674759 1107.49 0.454915 1110.3 0.420001C1120.93 0.289121 1140.76 0.465739 1149.3 0.48382C1157.82 0.502913 1160.58 0.48878 1165.55 0.518678C1174.52 0.57237 1171.23 0.417804 1176.8 0.35009C1182.39 0.282828 1179.67 0.655662 1180.48 0.736267C1181.26 0.816534 1182.13 0.733869 1183.11 0.777889C1184.08 0.82178 1181.97 0.876606 1184.27 0.892694C1186.57 0.908464 1192.86 0.765974 1193.67 0.683573C1195.4 0.508533 1192.56 0.323869 1198.65 0.390771C1199 0.394693 1197.86 0.490631 1199.2 0.500717C1209.85 0.577237 1220.91 0.583646 1231.55 0.647822C1233.01 0.656724 1231.7 0.759225 1232.55 0.765469C1241.42 0.83016 1238.25 0.657837 1243.11 0.46987C1242.02 0.721647 1244.7 0.875806 1251.43 0.875247C1255.47 0.875244 1254.78 0.767119 1257.39 0.69125C1258.18 0.668498 1261.04 0.742195 1261.56 0.691833C1263.27 0.527701 1260.57 0.343023 1267.51 0.419341C1267.81 0.422905 1266.84 0.511771 1267.9 0.517515C1274.69 0.554621 1275.51 0.385989 1282.85 0.370441C1288.61 0.358501 1298.85 0.463923 1305.41 0.482017C1305.27 0.738332 1311.46 0.678577 1313.98 0.506282C1318.23 0.515018 1322.83 0.507317 1326.94 0.532312C1328.36 0.540804 1327.43 0.611427 1327.61 0.61917C1330.34 0.739569 1332.19 0.576041 1333.11 0.570242C1343.07 0.512861 1351.18 0.633898 1360.68 0.523087C1361.02 0.518986 1361.56 0.361385 1364.1 0.478112C1364.27 0.485969 1361.13 0.556541 1365.6 0.563699C1370.07 0.571569 1378.49 0.654875 1384.7 0.586893C1386.2 0.570217 1390 0.452606 1393.05 0.547377C1393.45 0.560153 1393.01 0.601983 1393.6 0.625481C1395.49 0.699868 1396.53 0.5536 1398.75 0.678149C1400.98 0.802815 1405.61 0.890629 1411.87 0.805954C1412.07 0.803399 1413.55 0.692134 1415.52 0.694228C1418.66 0.697419 1423.12 0.720093 1426.4 0.719284C1427.97 0.718903 1426.97 0.652872 1427.24 0.651672C1437.8 0.617548 1445.32 0.67761 1456.63 0.700827C1458.71 0.704642 1464.67 0.626544 1468.68 0.689397C1473.09 0.756625 1468.56 1.03701 1478.69 0.96116C1482.78 0.928053 1487.96 0.598381 1495.3 0.76671C1509.55 0.725802 1522.72 0.798201 1537.01 0.745289C1537.65 0.742856 1539.68 0.671663 1541.19 0.673326C1543.43 0.675599 1544.66 0.708012 1546.26 0.710092C1552.97 0.719465 1559.11 0.694185 1565.58 0.699295C1568.03 0.70099 1567.18 0.729381 1570.1 0.730616C1573.03 0.731511 1574.98 0.696413 1578.95 0.713499C1581.94 0.726714 1584.94 0.792858 1588.92 0.796764C1589.07 0.733468 1591.8 0.734018 1596.65 0.718298C1597.59 0.715329 1596.59 0.694952 1597.03 0.692556C1598.82 0.682739 1600.48 0.699558 1602.19 0.689114C1602.61 0.686643 1602.62 0.667874 1602.96 0.664916C1605.85 0.639792 1610.6 0.683472 1611.42 0.689633C1614.54 0.715426 1616.01 0.694063 1618.4 0.704024C1620.8 0.713283 1617.22 0.724595 1620.02 0.729758C1625.82 0.739761 1633.27 0.734482 1639.16 0.733492C1641.51 0.732917 1639.9 0.718801 1640.24 0.718368C1645.1 0.715548 1650.01 0.726851 1652.71 0.705169C1656.08 0.760473 1655.64 0.700038 1662.58 0.712772C1663.13 0.7138 1663.83 0.73236 1661.73 0.736813C1659.63 0.741553 1656.44 0.736208 1653.53 0.743886C1652.84 0.745099 1648.88 0.775737 1648.34 0.778872C1644.12 0.799504 1643.52 0.751086 1643.3 0.748166C1640.76 0.719014 1635.93 0.75628 1634.66 0.761242C1628.84 0.778974 1623.89 0.774386 1619.02 0.789919C1615.84 0.800146 1615.53 0.852216 1613.03 0.855077C1604.72 0.866386 1601.82 0.780987 1593.98 0.868319C1592.3 0.887402 1593.97 0.958213 1587.96 0.911159C1587.58 0.908804 1583.11 0.85902 1580.53 0.898932C1580.2 0.90406 1580.22 0.927628 1579.79 0.930391C1576.92 0.948645 1575.01 0.93273 1571.89 0.947729C1568.77 0.962826 1565.02 0.985424 1561.45 0.98307C1559.31 0.981927 1556.55 0.934348 1555.52 0.922538C1552.62 0.888488 1549.51 0.955726 1547.71 0.910874C1545.89 0.864425 1549.44 0.789875 1544.68 0.760153C1544.51 0.839445 1544.1 0.921365 1543.82 1.00206C1533.4 1.01822 1523.15 1.00625 1512.69 1.02587C1511.39 1.02851 1512.72 1.07739 1511.33 1.08183C1505.47 1.101 1500.34 1.07159 1494.26 1.09711C1489.56 1.11707 1484.4 1.18725 1479.47 1.21335C1476.47 1.09322 1469.17 1.14689 1463.86 1.14389C1462 1.14264 1462.13 1.10649 1460.8 1.09655C1455.82 1.05943 1458.16 1.17696 1456.79 1.19831C1450.92 1.29144 1450.42 1.013 1443.51 1.02587C1443.14 1.02598 1438.66 1.18635 1438.05 1.19764C1434.13 1.2675 1437.4 1.14419 1434.95 1.13595C1430.47 1.12092 1427.36 1.08531 1422.1 1.13979C1420.57 1.15553 1416.9 1.26504 1413.92 1.18852C1413.53 1.17843 1413.75 1.12251 1413.43 1.11962C1407.73 1.07124 1407.58 1.24833 1404.32 1.31475C1401.07 1.38159 1396.03 1.26456 1395.01 1.22872C1392.33 1.13724 1397.06 1.18569 1397.21 1.17619C1398.91 1.06437 1395.24 1.08711 1392.44 1.08039C1392.03 0.899095 1388.11 0.911675 1389.53 1.07406C1389.69 1.09172 1391.87 1.07259 1392.44 1.08039C1389.97 1.26072 1385.66 1.29343 1380.9 1.1269C1378.67 1.04851 1380.78 0.952395 1374.01 0.991529C1370.94 1.00937 1372.13 1.14026 1369.41 1.17933C1363.22 1.26971 1355.17 1.15306 1348.78 1.17885C1346.47 1.18866 1348.72 1.26251 1347.14 1.27207C1342.94 1.29813 1339.23 1.24434 1335.01 1.2791C1334.62 1.28241 1335.56 1.36324 1334.25 1.36604C1324.29 1.38928 1315.63 1.34629 1305.24 1.35653C1300.21 1.36146 1291.24 1.42101 1286.04 1.41744C1277.02 1.41231 1265.93 1.28877 1258.23 1.32837C1253.21 1.35431 1254.31 1.44793 1252.16 1.51505C1248.01 1.64621 1240.65 1.42846 1239.66 1.39319C1239.63 1.392 1243.96 1.36529 1241.65 1.31791C1240.31 1.2158 1239.71 1.39263 1239.66 1.39319C1239.01 1.37107 1230.38 1.35657 1228.67 1.3768C1227.73 1.38789 1228.26 1.48048 1227.77 1.48457C1216.23 1.57983 1204.66 1.61881 1192.95 1.58525C1192.74 1.58348 1193.05 1.47437 1192.57 1.47154C1185.79 1.4288 1181.45 1.56637 1175.86 1.65292C1170.27 1.73922 1165.84 1.7179 1162.53 1.52744C1158.31 1.55546 1152.26 1.47456 1148.78 1.42424C1145.3 1.37389 1144.81 1.59712 1144.5 1.60184C1134.95 1.75165 1129.42 1.62873 1119.51 1.61561C1114.79 1.60916 1105.44 1.64938 1100.34 1.67863C1096.31 1.70218 1093.88 1.64939 1090.16 1.68702C1089.66 1.69206 1090.17 1.79571 1090.01 1.79983C1085.87 1.92784 1087.86 1.67151 1087 1.6266C1083.9 1.46317 1081.98 1.37515 1076.67 1.45626C1075.44 1.47462 1071.88 1.84738 1069.64 1.87113C1066.74 1.901 1067.83 1.7668 1064.79 1.8013C1064.53 1.80413 1064.59 1.88651 1062.71 1.88433C1054 1.87526 1044.51 1.83325 1035.45 1.84731C1034.22 1.84894 1035.8 1.98099 1034.02 1.98563C1025.63 2.00733 1016.45 2.0088 1008.28 1.95041C1006.27 1.9356 1007.53 1.84031 1007.09 1.81247C1004.42 1.6438 1000.62 1.89279 999.99 1.89798C985.038 2.0256 973.595 1.80494 958.356 1.91871C957.527 1.92524 951.142 2.19828 948.293 1.96736C948.098 1.95206 945.279 1.71532 942.787 1.87864C942.632 1.88888 944.389 2.01068 941.324 1.99929C938.259 1.98785 933.326 2.07158 929.113 1.93785C927.78 1.89579 924.627 1.65818 920.649 1.84918C920.389 1.86237 914.247 2.29449 912.055 1.99798C911.7 1.94916 912.072 1.63457 907.323 1.79676C906.416 1.82822 908.063 1.89809 905.673 1.94243C902.011 2.01083 897.158 1.92732 892.656 2.06861C891.871 2.0936 888.529 2.30847 885.849 2.1463C885.429 2.12089 886.226 2.01537 884.811 2.00378C878.078 1.94813 871.029 2.01945 864.194 1.94686C861.772 1.92134 863.01 1.75056 860.487 1.70492C857.962 1.6593 852.877 1.61542 850.236 1.69349C847.594 1.77161 850.48 2.04378 846.523 2.0656C846.015 2.06839 845.507 2.07096 845 2.07332C828.312 2.15089 811.768 1.99821 795.096 1.97277C792.548 1.96883 794.661 2.06629 790.906 2.06737C777.062 2.0723 753.161 2.15437 741.149 1.94569C731.524 1.7792 743.636 1.65893 736.282 1.5904C732.732 1.55795 728.893 1.86737 728.036 1.8767C719.666 1.9725 713.85 1.83282 706.317 1.87143C704.761 1.87939 706.287 2.00491 704.963 2.01024C700.441 2.02947 695.688 1.97133 691.366 1.97908C689.428 1.98283 689.785 2.07768 688.001 2.06928C683.733 2.05028 679.958 2.00814 675.797 1.91752C675.418 1.9093 677.975 1.79367 674.817 1.78764C669.706 1.77807 663.362 1.68847 657.482 1.77413C655.737 1.79993 655.669 2.01233 651.918 1.86316C651.131 1.83197 652.135 1.57812 647.766 1.79532C647.032 1.8318 639.693 2.12134 636.091 1.92855C635.141 1.87783 632.716 1.66999 630.618 1.70113C630.333 1.70609 631.473 1.81943 629.734 1.82916C623.607 1.8614 617.185 1.84455 610.89 1.87423C609.209 1.88232 611.713 1.99938 609.208 2.00759C602.318 2.0302 593.716 1.99245 586.979 1.95055C584.495 1.93488 586.212 1.84318 586.031 1.83282C583.125 1.66514 581.406 1.88644 580.442 1.8983C574.442 1.96976 569.874 1.86121 564.344 1.88302C562.818 1.88868 563.9 1.99422 563.596 2.00321C560.446 2.09048 562.793 1.90581 560.798 1.88308C555.211 1.81892 548.984 1.82119 543.334 1.82815C541.258 1.83084 543.591 1.9522 541.728 1.95308C530.706 1.96031 519.246 1.9334 508.488 1.85646C506.463 1.84178 507.737 1.75528 507.315 1.73464C504.406 1.59088 500.141 1.77754 499.16 1.79409C494.699 1.87101 492.965 1.79168 489.025 1.80094C469.778 1.8461 446.013 1.75948 427.845 1.70373C404.17 1.62981 385.798 1.53232 363.222 1.51486C361.787 1.51356 363.234 1.61002 361.997 1.60992C346.027 1.60317 330.305 1.53873 314.303 1.53195C312.99 1.53111 314.883 1.61514 312.775 1.61615C308.452 1.61872 302.976 1.60157 298.605 1.56723C296.473 1.55073 299.332 1.49089 297.186 1.47595C292.19 1.44126 286.834 1.42591 281.701 1.42734C279.517 1.42799 282.812 1.51008 279.973 1.50464C260.635 1.4698 241.642 1.42957 222.1 1.30439C220.76 1.29565 219.585 1.16886 216.736 1.18759C216.522 1.2213 216.533 1.2614 216.44 1.29762C188.288 1.25083 160.423 1.14459 132.192 1.07308C131.002 1.06988 133.059 1.11726 130.755 1.11084C117.417 1.07467 104.466 1.04341 90.8228 0.976098C89.4692 0.969562 90.1637 0.919676 86.1746 0.918753C85.4711 0.918652 79.4631 0.911636 77.9098 0.917446C77.6988 0.918331 78.7949 0.942386 76.8589 0.937709C65.6084 0.910215 53.8185 0.87121 42.5875 0.834124C40.7749 0.828196 42.7051 0.820783 41.4141 0.816746C32.2563 0.790427 22.2952 0.772389 13.5444 0.747901C7.68694 0.73292 9.85553 0.732194 6.74296 0.724621C6.30272 0.72368 2.67561 0.720026 2.48804 0.719319C2.00649 0.717835 3.76335 0.714372 3.04247 0.712473C2.92484 0.712277 0.000626404 0.717705 0 0.717713C0 0.717713 0 0.717713 0 0.717713C0.000184615 0.717707 0.254203 0.71725 0.908559 0.71578C1.10948 0.715421 4.63129 0.707398 5.49872 0.704362C6.10265 0.70225 5.01435 0.703578 6.24655 0.699279C7.47865 0.694681 8.83258 0.692858 10.8754 0.68552C12.9173 0.677776 12.0195 0.67644 16.0973 0.661683ZM1133.1 1.19642C1129.87 1.08926 1129.4 1.48719 1132.89 1.38993C1133.05 1.38476 1133.26 1.20166 1133.1 1.19642ZM1523.2 0.885239C1518.99 0.817249 1516.1 0.925958 1519.08 0.978339C1522.05 1.02891 1524.49 0.90497 1523.2 0.885239ZM1566.91 0.805863C1561.99 0.765244 1561.21 0.944743 1566.49 0.901407C1566.79 0.898914 1567.2 0.80809 1566.91 0.805863ZM21.1775 0.736168C21.1329 0.735821 18.5256 0.733373 18.4633 0.733576C17.075 0.738105 22.2885 0.74482 21.1775 0.736168ZM1610.29 0.748105C1608.75 0.732878 1604.32 0.752706 1606.23 0.77224C1607.77 0.787202 1612.2 0.766105 1610.29 0.748105ZM964.906 0.779305C964.855 0.772757 962.986 0.766885 963.024 0.80394C963.151 0.923283 965.752 0.889436 964.906 0.779305ZM1684.01 0.719999C1673.12 0.727754 1666.51 0.696365 1678.37 0.708737C1680.52 0.710121 1673.74 0.711214 1676.48 0.714111C1681.48 0.716407 1684.8 0.713585 1689.91 0.717673C1690.83 0.717019 1684.63 0.718638 1683.99 0.720017C1683.99 0.720011 1684 0.720005 1684.01 0.719999ZM1131.24 0.720191C1131.18 0.714945 1128.59 0.709941 1128.53 0.71516C1127.13 0.841709 1132.34 0.851233 1131.24 0.720191ZM855.832 0.503202C855.689 0.490559 849.684 0.478706 849.488 0.490356C846.356 0.723263 858.496 0.74785 855.832 0.503202ZM1305.51 0.488884C1308.34 0.38929 1311.71 0.380755 1313.96 0.50615C1311.16 0.498402 1308.33 0.496256 1305.51 0.488884Z" fill="var(--stroke-0, white)"/>
</svg>
