<svg preserveAspectRatio="none" width="100%" height="100%" overflow="visible" style="display: block;" viewBox="0 0 3 1002" fill="none" xmlns="http://www.w3.org/2000/svg">
<path id="Vector 36" d="M2.98475 9.53934C3.02382 15.1515 2.98204 22.5081 2.92469 28.099C2.9069 29.8512 2.82739 28.9639 2.81153 30.1735C2.78061 32.5391 2.81961 34.743 2.78278 37.0808C2.77019 37.8555 2.64424 36.8912 2.63392 37.7035C2.57825 42.1552 2.61034 46.3667 2.58356 50.8764C2.45147 73.0894 2.40419 94.9243 2.34681 117.409C2.32799 124.823 2.21369 133.835 2.26368 141.493C2.26963 142.387 2.38018 141.854 2.38929 142.024C2.52878 144.692 2.3056 143.805 2.27595 145.547C2.15887 152.46 2.14869 160.147 2.19135 166.8C2.20983 169.63 2.42941 166.792 2.30616 169.642C2.29783 169.84 2.18044 169.122 2.16791 169.898C2.13975 171.658 2.16074 174.998 2.15143 176.362C2.13291 178.991 2.1341 179.426 2.13276 181.913C2.12991 185.313 2.07155 189.356 2.09815 193.004C2.10418 193.782 2.22452 192.752 2.245 193.993C2.26545 195.236 2.25524 198.524 2.22687 199.632C2.19849 200.741 2.1039 200.269 2.08222 200.465C1.89923 202.079 2.15267 205.882 2.15894 206.372C2.26574 215.293 2.12136 222.944 2.12177 231.319C2.12239 237.677 2.17006 244.475 2.16352 250.524C2.15527 257.731 2.09005 263.84 2.10126 270.841C2.10231 271.58 2.24381 270.714 2.24537 271.617C2.26183 281.205 2.24641 290.727 2.15089 300.274C2.14118 301.231 2.01695 299.997 1.99982 300.954C1.89773 306.81 1.65246 316.077 2.19337 319.556C2.17224 323.523 2.15042 328.339 2.04139 331.888C1.97121 334.176 1.83587 331.954 1.89362 334.765C1.90649 335.399 2.02501 334.574 2.03535 335.525C2.07874 339.528 2.04021 343.901 2.10145 347.861C2.11418 348.667 2.22038 348.447 2.23951 348.675C2.39439 350.593 2.13836 353.786 2.11976 354.482C1.98103 359.782 2.03562 363.653 2.03223 368.591C2.03139 369.737 2.17404 368.382 2.17835 369.485C2.1988 375.203 2.18654 381.127 2.12324 386.726C2.10881 387.972 1.9873 386.826 1.97419 387.422C1.91786 390.046 2.14737 390.628 2.09779 393.145C2.08763 393.675 1.9836 393.376 1.97218 393.473C1.79283 394.988 2.04695 396.304 2.05256 396.694C2.12922 401.622 1.86393 404.773 1.9015 409.534C1.90626 410.104 2.03788 408.819 2.04322 410.421C2.07956 421.088 2.0434 432.37 1.93812 442.929C1.92193 444.57 1.82305 443.398 1.81086 443.502C1.62041 445.185 1.87559 446.275 1.8852 446.81C1.95438 451.033 1.74038 454.978 2.04432 457.847C1.93884 475.732 2.10952 493.535 1.83723 511.272C1.83407 511.498 1.7084 511.094 1.70264 511.543C1.63208 516.961 1.8274 515.92 2.06629 519.505C2.12628 520.408 1.83786 523.155 1.81672 523.398C1.73881 524.284 1.55184 523.365 1.53675 523.662C1.41828 526.116 2.03661 525.716 2.03681 529.026C2.03578 529.129 1.92197 528.694 1.91065 528.972C1.87512 529.835 1.92035 530.691 1.88117 531.536C1.79052 533.469 1.49006 534.157 1.66493 537.11C1.68762 537.483 2.03837 536.913 2.0218 539.868C2.01489 541.046 2.02091 546.261 1.99818 547.723C1.97547 549.183 1.86245 548.18 1.85755 548.285C1.70809 552.218 1.64615 550.727 1.42487 552.697C1.20444 554.668 1.7302 554.121 1.78889 554.924C1.8474 555.729 1.72409 558.613 1.68122 559.322C1.63833 560.03 1.56651 559.147 1.54224 559.776C1.38368 563.953 1.80322 561.609 1.88667 562.986C2.08425 566.23 1.69434 568.757 1.65614 571.727C1.64582 572.53 1.73462 571.874 1.74293 572.59C1.77464 575.424 1.65298 577.129 1.76453 580.353C1.78271 580.881 2.01714 583.487 1.8451 585.175C1.82029 585.414 1.72313 584.735 1.70136 585.942C1.6687 587.747 1.64746 590.998 1.67994 592.938C1.70397 594.37 1.86407 592.728 1.81434 594.531C1.79213 595.332 1.69847 593.847 1.66456 595.352C1.63066 596.849 1.63477 600.677 1.63801 602.133C1.64131 603.587 1.76276 602.792 1.77094 602.909C1.81781 603.62 1.87637 606.41 1.87623 606.657C1.89105 619.094 1.68634 630.563 1.7541 642.672C1.75924 643.622 1.88731 642.989 1.88941 643.134C1.94307 646.388 1.60257 643.823 1.4886 646.095C1.74848 645.767 1.70143 647.108 1.72993 649.4C1.74387 650.504 1.8445 649.903 1.85481 650.003C2.00765 651.641 1.81023 652.781 1.76984 653.075C1.62128 654.16 1.79682 655.34 1.69752 656.078C1.59896 656.815 1.45285 655.118 1.45472 657.316C1.54775 657.932 1.79087 656.3 1.83027 657.969C1.97931 664.265 1.78856 676.017 1.76875 681.079C1.74895 686.131 1.76611 687.762 1.73249 690.706C1.6717 696.024 1.85208 694.075 1.93464 697.377C2.01719 700.688 1.57338 699.078 1.47798 699.554C1.38261 700.022 1.48078 700.532 1.42835 701.113C1.37594 701.692 1.31107 700.438 1.29139 701.801C1.27173 703.164 1.44139 706.892 1.54115 707.375C1.75249 708.396 1.97431 706.717 1.89637 710.324C1.89174 710.532 1.77505 709.858 1.76325 710.653C1.67341 716.963 1.66785 723.518 1.58839 729.82C1.57728 730.686 1.44746 729.911 1.43952 730.416C1.35649 735.669 1.57538 733.791 1.81855 736.67C1.49495 736.023 1.29696 737.616 1.29505 741.602C1.29379 743.998 1.43513 743.586 1.53474 745.136C1.56477 745.601 1.46772 747.297 1.53419 747.604C1.75146 748.617 1.99468 747.02 1.89783 751.13C1.89323 751.31 1.7743 750.736 1.7671 751.359C1.71995 755.387 1.94722 755.869 1.97474 760.223C1.99633 763.635 1.85775 769.705 1.83521 773.59C1.47139 773.509 1.5547 777.179 1.80555 778.668C1.79528 781.189 1.80946 783.913 1.77479 786.351C1.76297 787.189 1.65763 786.638 1.64625 786.744C1.4677 788.366 1.71175 789.463 1.72132 790.007C1.81433 795.906 1.62936 800.713 1.81013 806.343C1.81664 806.543 2.06936 806.867 1.88483 808.372C1.87211 808.469 1.75713 806.61 1.74824 809.258C1.73933 811.907 1.60385 816.9 1.72096 820.578C1.74915 821.468 1.95431 823.719 1.79401 825.525C1.77225 825.766 1.69977 825.503 1.65943 825.85C1.53091 826.973 1.78635 827.586 1.56934 828.906C1.35234 830.227 1.18983 832.972 1.33955 836.681C1.3439 836.799 1.54636 837.677 1.54316 838.843C1.53788 840.705 1.4957 843.348 1.49702 845.292C1.49772 846.223 1.62344 845.627 1.62574 845.789C1.69619 852.047 1.58411 856.501 1.53547 863.206C1.5263 864.435 1.69774 867.967 1.5622 870.347C1.41383 872.959 0.796631 870.274 0.943675 876.28C1.00249 878.702 1.78552 881.768 1.37983 886.121C1.48036 894.563 1.27273 902.37 1.41627 910.835C1.42263 911.216 1.64117 912.42 1.63819 913.315C1.63335 914.644 1.53121 915.373 1.52448 916.322C1.49372 920.297 1.58111 923.935 1.56751 927.768C1.56257 929.223 1.45696 928.714 1.45106 930.449C1.44525 932.184 1.58433 933.341 1.51716 935.691C1.46596 937.466 1.1817 939.241 1.14857 941.597C1.42896 941.687 1.42318 943.306 1.4972 946.182C1.51156 946.735 1.60915 946.142 1.62098 946.404C1.67128 947.468 1.5904 948.453 1.64515 949.464C1.6583 949.71 1.75406 949.721 1.77021 949.922C1.91123 951.631 1.69584 954.447 1.65833 954.931C1.51591 956.784 1.64045 957.65 1.58436 959.072C1.52828 960.491 1.45817 958.369 1.42414 960.027C1.35375 963.464 1.36922 967.88 1.36482 971.37C1.36365 972.763 1.49147 971.813 1.49427 972.012C1.52669 974.892 1.39073 977.804 1.64533 979.401C0.987019 981.397 1.70919 981.137 1.5774 985.254C1.56674 985.578 1.25543 985.99 1.20973 984.745C1.16407 983.5 1.26138 981.613 1.19013 979.886C1.17342 979.477 0.881696 977.134 0.864024 976.814C0.725919 974.31 1.19113 973.955 1.21668 973.823C1.49243 972.321 1.17816 969.457 1.15644 968.703C1.05694 965.254 1.12236 962.324 1.05134 959.439C1.00544 957.552 0.700705 957.368 0.710033 955.886C0.740863 950.961 1.16597 949.242 0.797374 944.6C0.718761 943.605 0.385697 944.594 0.647594 941.028C0.664105 940.804 0.903693 938.157 0.752147 936.627C0.73304 936.435 0.635973 936.441 0.627819 936.188C0.575075 934.49 0.652404 933.357 0.615368 931.508C0.578332 929.658 0.523119 927.434 0.556042 925.322C0.575729 924.05 0.756577 922.417 0.800853 921.808C0.928401 920.088 0.719276 918.243 0.873729 917.177C1.02896 916.103 1.2647 918.204 1.365 915.386C1.11281 915.281 0.85397 915.041 0.600353 914.874C0.609233 908.698 0.690779 902.621 0.679638 896.425C0.678004 895.657 0.542428 896.442 0.537182 895.619C0.515644 892.144 0.612292 889.109 0.573803 885.506C0.543492 882.717 0.399946 879.658 0.363782 876.742C0.652354 874.96 0.55439 870.633 0.580761 867.489C0.589873 866.388 0.666945 866.461 0.692089 865.678C0.785081 862.723 0.530073 864.108 0.489941 863.298C0.318666 859.822 0.895864 859.525 0.881603 855.428C0.881042 855.211 0.573371 852.557 0.554211 852.192C0.429274 849.87 0.6613 851.807 0.684032 850.354C0.725575 847.701 0.799052 845.857 0.708935 842.744C0.682242 841.836 0.490474 839.659 0.638805 837.896C0.658229 837.664 0.759925 837.792 0.76588 837.605C0.865156 834.227 0.545612 834.138 0.43739 832.207C0.329192 830.276 0.549778 827.294 0.613354 826.687C0.77782 825.099 0.683641 827.903 0.699779 827.989C0.891849 829 0.858781 826.824 0.875011 825.162C1.18833 824.922 1.16952 822.597 0.890575 823.439C0.860106 823.535 0.889325 824.829 0.875011 825.162C0.567604 823.703 0.528235 821.149 0.815502 818.328C0.950139 817.007 1.10712 818.256 1.04969 814.244C1.02377 812.423 0.808034 813.126 0.749218 811.52C0.615021 807.849 0.816265 803.079 0.784557 799.294C0.773045 797.921 0.654954 799.259 0.643017 798.32C0.61097 795.829 0.699576 793.632 0.654186 791.13C0.649924 790.903 0.526306 791.457 0.524731 790.679C0.510375 784.781 0.589553 779.645 0.591748 773.487C0.592752 770.512 0.524574 765.192 0.538281 762.11C0.561308 756.768 0.741068 750.196 0.697399 745.632C0.669446 742.656 0.545803 743.309 0.46156 742.034C0.298262 739.573 0.590766 735.216 0.636059 734.63C0.637558 734.612 0.666706 737.173 0.730175 735.806C0.862424 735.012 0.636632 734.658 0.636059 734.63C0.665318 734.245 0.693386 729.128 0.66975 728.112C0.656834 727.56 0.539688 727.869 0.535168 727.581C0.430335 720.739 0.400561 713.886 0.455334 706.947C0.457701 706.825 0.588735 707.009 0.592663 706.721C0.650924 702.704 0.490629 700.132 0.395459 696.819C0.300332 693.506 0.332193 690.879 0.557141 688.918C0.528818 686.419 0.628267 682.833 0.68861 680.769C0.748952 678.706 0.493885 678.418 0.488843 678.236C0.327449 672.573 0.473445 669.3 0.496167 663.425C0.507406 660.631 0.470409 655.091 0.442517 652.066C0.420047 649.676 0.479823 648.236 0.441601 646.034C0.436497 645.736 0.322928 646.037 0.318555 645.946C0.182676 643.488 0.460314 644.669 0.5099 644.162C0.690218 642.322 0.786254 641.185 0.701427 638.038C0.682001 637.312 0.282241 635.197 0.258863 633.874C0.2292 632.153 0.37249 632.802 0.337781 631.001C0.334942 630.846 0.246542 630.878 0.25044 629.767C0.26737 624.605 0.318808 618.978 0.309949 613.614C0.309078 612.881 0.168863 613.821 0.165296 612.762C0.148676 607.794 0.153865 602.35 0.219495 597.511C0.236091 596.32 0.334266 597.066 0.363416 596.808C0.539793 595.22 0.283521 592.969 0.278638 592.598C0.155486 583.737 0.387409 576.956 0.27699 567.925C0.270508 567.434 -0.00422081 563.65 0.231397 561.962C0.247073 561.846 0.488134 560.176 0.323316 558.699C0.313005 558.607 0.188902 559.648 0.201551 557.832C0.214172 556.015 0.131297 553.093 0.267652 550.596C0.310606 549.805 0.551072 547.937 0.359387 545.58C0.346006 545.426 -0.0874205 541.786 0.211622 540.487C0.260847 540.276 0.577302 540.497 0.415051 537.683C0.383596 537.145 0.31301 538.121 0.268934 536.705C0.201002 534.535 0.28576 531.659 0.144788 528.991C0.119832 528.526 -0.0949589 526.546 0.0680675 524.957C0.0936003 524.708 0.199249 525.181 0.211072 524.342C0.267787 520.352 0.197118 516.175 0.270215 512.124C0.2959 510.689 0.466694 511.423 0.512463 509.927C0.558217 508.432 0.60223 505.418 0.524182 503.853C0.446099 502.287 0.173895 503.998 0.152113 501.652C0.0575113 491.457 0.217194 481.357 0.240552 471.177C0.244041 469.667 0.146638 470.919 0.144788 468.694C0.137542 460.49 0.0462162 446.326 0.253187 439.207C0.418958 433.504 0.545163 440.682 0.612621 436.323C0.644801 434.22 0.328335 431.944 0.318372 431.437C0.217167 426.477 0.357354 423.03 0.314344 418.566C0.305418 417.644 0.177152 418.548 0.170972 417.763C0.148728 415.084 0.205981 412.267 0.195509 409.706C0.190515 408.557 0.0925498 408.769 0.100111 407.712C0.117074 405.182 0.158254 402.946 0.250074 400.48C0.258441 400.255 0.380306 401.771 0.384839 399.899C0.391828 396.87 0.482408 393.111 0.388867 389.626C0.360728 388.592 0.13683 388.551 0.291455 386.329C0.32375 385.863 0.592603 386.458 0.360303 383.869C0.3217 383.433 0.00836908 379.084 0.21034 376.95C0.263496 376.387 0.4835 374.95 0.448926 373.706C0.443409 373.538 0.323145 374.213 0.311414 373.183C0.272164 369.552 0.284995 365.746 0.247327 362.016C0.237031 361.02 0.112582 362.503 0.10121 361.019C0.0697539 356.936 0.101441 351.838 0.140394 347.846C0.154992 346.374 0.258081 347.391 0.2693 347.284C0.451775 345.562 0.205475 344.543 0.191114 343.972C0.105119 340.417 0.220815 337.709 0.190198 334.432C0.182061 333.528 0.0646232 334.169 0.0541516 333.989C-0.0481642 332.122 0.162739 333.513 0.185987 332.331C0.251814 329.02 0.242376 325.33 0.227369 321.982C0.221684 320.752 0.0855118 322.134 0.0819835 321.03C0.0585187 314.498 0.0715489 307.707 0.14662 301.332C0.161002 300.132 0.265858 300.887 0.289808 300.637C0.457365 298.912 0.228815 296.385 0.207044 295.804C0.107638 293.16 0.200365 292.133 0.183057 289.798C0.0968851 278.392 0.158299 264.309 0.196241 253.542C0.245072 239.512 0.344824 228.626 0.318921 215.246C0.317406 214.396 0.177915 215.254 0.174818 214.521C0.141191 205.057 0.195698 195.74 0.155409 186.257C0.15235 185.479 0.0201105 186.601 0.0107557 185.352C-0.00935955 182.79 -0.00217197 179.544 0.0400525 176.954C0.0603972 175.691 0.17387 177.385 0.19203 176.114C0.234573 173.153 0.243991 169.979 0.222791 166.937C0.213481 165.643 0.0782343 167.596 0.0766735 165.913C0.0632558 154.453 0.0399629 143.198 0.215101 131.617C0.227129 130.823 0.502005 130.127 0.449292 128.439C0.373007 128.311 0.283271 128.318 0.201734 128.263C0.157811 111.58 0.253102 95.0674 0.267835 78.3376C0.268425 77.6322 0.122782 78.8513 0.123182 77.4856C0.125335 69.5818 0.0849879 61.9067 0.229749 53.8219C0.243906 53.0198 0.500128 53.4313 0.461377 51.0674C0.454306 50.6505 0.420135 47.0901 0.364514 46.1696C0.356125 46.0446 0.236531 46.6941 0.233045 45.5469C0.214884 38.8798 0.242187 31.893 0.315259 25.2375C0.327281 24.1633 0.454639 25.3072 0.464307 24.5422C0.531913 19.1152 0.435098 13.2122 0.550732 8.02645C0.628591 4.55531 0.84874 5.84043 1.06544 3.9959C1.09601 3.73501 1.10086 1.58557 1.22694 1.47442C1.54398 1.18905 1.89114 2.23017 2.22907 1.80298C2.30186 1.71272 2.22346 -1.16593 2.39936 0.538415C2.41113 0.657482 2.46951 2.74452 2.52918 3.25856C2.57044 3.61645 2.69866 2.97152 2.75147 3.70173C2.80423 4.43188 2.69675 5.23422 2.75879 6.4448C2.82161 7.65483 2.96748 7.12277 2.98475 9.53934ZM0.958323 671.478C1.08082 669.567 0.632175 669.285 0.739513 671.352C0.745234 671.452 0.952314 671.577 0.958323 671.478ZM1.02919 902.656C1.22707 900.158 0.936101 898.449 0.783275 900.211C0.630613 901.973 0.969199 903.417 1.02919 902.656ZM1.17365 928.558C1.32968 925.639 0.693484 925.179 0.822093 928.306C0.829361 928.488 1.1646 928.729 1.17365 928.558ZM1.12715 12.5498C1.1331 12.5235 1.13891 10.9784 1.13301 10.9414C0.990518 10.1187 0.979005 13.2083 1.12715 12.5498ZM1.33094 954.262C1.417 953.351 1.31766 950.727 1.21064 951.859C1.12455 952.771 1.22389 955.397 1.33094 954.262ZM1.43714 571.807C1.44383 571.777 1.44985 570.669 1.41206 570.691C1.29034 570.766 1.32469 572.308 1.43714 571.807ZM1.33827 997.949C1.36221 991.494 1.88774 987.581 1.82844 994.61C1.81771 995.883 1.66085 991.866 1.61347 993.486C1.52716 996.451 1.85712 998.419 1.68031 1001.44C1.64794 1001.99 1.33573 998.317 1.33753 997.937C1.33778 997.941 1.33802 997.945 1.33827 997.949ZM1.4972 670.378C1.50313 670.339 1.50876 668.806 1.50288 668.769C1.36045 667.939 1.34903 671.028 1.4972 670.378ZM1.71455 507.169C1.72719 507.084 1.73901 503.526 1.72736 503.41C1.49445 501.553 1.46986 508.748 1.71455 507.169ZM1.82551 773.652C1.96879 775.325 1.98567 777.326 1.80573 778.66C1.81528 776.997 1.81669 775.323 1.82551 773.652Z" fill="var(--stroke-0, #BF8C53)"/>
</svg>
