<svg preserveAspectRatio="none" width="100%" height="100%" overflow="visible" style="display: block;" viewBox="0 0 2754 2" fill="none" xmlns="http://www.w3.org/2000/svg">
<path id="Line 46" d="M26.232 0.0101698C41.6647 -0.015883 61.8944 0.0119737 77.2687 0.0502087C82.087 0.0620673 79.6472 0.115075 82.9733 0.125648C89.4785 0.146258 95.539 0.120261 101.968 0.144813C104.098 0.153209 101.446 0.237174 103.68 0.244056C115.922 0.281163 127.503 0.259777 139.904 0.277625C200.987 0.365685 261.03 0.397205 322.86 0.435461C343.247 0.448004 368.031 0.524206 389.088 0.490881C391.547 0.486916 390.081 0.413216 390.549 0.407141C397.884 0.31415 395.445 0.462935 400.235 0.482702C419.245 0.560754 440.384 0.567542 458.678 0.539099C466.461 0.526782 458.658 0.380395 466.494 0.462561C467.039 0.468112 465.064 0.546377 467.198 0.554724C472.039 0.573498 481.222 0.559509 484.974 0.56571C492.204 0.578057 493.4 0.577269 500.239 0.578161C509.587 0.580061 520.706 0.618966 530.737 0.601232C532.878 0.597215 530.043 0.516985 533.458 0.503332C536.875 0.489702 545.916 0.496505 548.964 0.515417C552.013 0.534339 550.715 0.597399 551.254 0.611852C555.693 0.733849 566.151 0.564884 567.496 0.560705C592.03 0.489506 613.069 0.58576 636.098 0.585485C653.581 0.585073 672.275 0.553296 688.91 0.557653C708.729 0.563155 725.526 0.606631 744.78 0.599157C746.812 0.598461 744.43 0.504129 746.912 0.503088C773.279 0.492111 799.463 0.502394 825.716 0.566076C828.348 0.572546 824.955 0.655368 827.586 0.666784C843.691 0.734849 869.173 0.898357 878.738 0.537756C889.647 0.551837 902.891 0.566385 912.65 0.639074C918.943 0.685858 912.831 0.776084 920.561 0.737585C922.304 0.729007 920.037 0.649991 922.652 0.643102C933.659 0.614176 945.685 0.639861 956.574 0.599035C958.79 0.590545 958.184 0.519744 958.812 0.506994C964.086 0.403741 972.867 0.574425 974.781 0.586828C989.356 0.679315 1000 0.642919 1013.58 0.645178C1016.73 0.645741 1013 0.550639 1016.04 0.547766C1031.76 0.534136 1048.05 0.54231 1063.45 0.584509C1066.87 0.594124 1063.72 0.675134 1065.36 0.683874C1072.58 0.721424 1074.18 0.568417 1081.1 0.601477C1082.56 0.60825 1081.74 0.6776 1082 0.685217C1086.17 0.804778 1089.79 0.635368 1090.86 0.631628C1104.41 0.580523 1113.07 0.757378 1126.17 0.732335C1127.73 0.729161 1124.2 0.641412 1128.61 0.637853C1157.94 0.61363 1188.96 0.637735 1218 0.707922C1222.51 0.718716 1219.29 0.784634 1219.57 0.79276C1224.2 0.919728 1227.2 0.749606 1228.67 0.7432C1240.28 0.697082 1251.13 0.839748 1259.02 0.637121C1308.2 0.707439 1357.16 0.593653 1405.93 0.775182C1406.55 0.777285 1405.44 0.86107 1406.68 0.864903C1421.58 0.911948 1418.72 0.781731 1428.57 0.622473C1431.06 0.582482 1438.61 0.77476 1439.28 0.788854C1441.71 0.840791 1439.19 0.96544 1440 0.975499C1446.75 1.05448 1445.65 0.642259 1454.75 0.642126C1455.04 0.642813 1453.84 0.718688 1454.61 0.726232C1456.98 0.749917 1459.33 0.719767 1461.66 0.745885C1466.97 0.806321 1468.87 1.00663 1476.98 0.89005C1478.01 0.87492 1476.44 0.64109 1484.57 0.652136C1487.81 0.656738 1502.15 0.65273 1506.17 0.667883C1510.18 0.683018 1507.43 0.758369 1507.71 0.761632C1518.53 0.861272 1514.43 0.902568 1519.85 1.05008C1525.27 1.19704 1523.76 0.846531 1525.97 0.807409C1528.19 0.768397 1536.12 0.850607 1538.06 0.879186C1540.01 0.907777 1537.58 0.955658 1539.32 0.971837C1550.8 1.07755 1544.36 0.797855 1548.14 0.742223C1557.06 0.610497 1564.01 0.870438 1572.18 0.895909C1574.39 0.902788 1572.58 0.843585 1574.55 0.838048C1582.34 0.816904 1587.03 0.898013 1595.9 0.823644C1597.35 0.811525 1604.52 0.655241 1609.16 0.769933C1609.81 0.786471 1607.95 0.851248 1611.27 0.865758C1616.23 0.887534 1625.17 0.901692 1630.5 0.88004C1634.44 0.86402 1629.93 0.757283 1634.89 0.790441C1637.09 0.805246 1633.01 0.867688 1637.14 0.890294C1641.26 0.912893 1651.79 0.91015 1655.79 0.907994C1659.79 0.905791 1657.6 0.824826 1657.92 0.819371C1659.88 0.788126 1667.55 0.749085 1668.23 0.749181C1702.43 0.739297 1733.97 0.875772 1767.27 0.830602C1769.88 0.827174 1768.14 0.741795 1768.54 0.740392C1777.49 0.70462 1770.43 0.931622 1776.68 1.0076C1775.78 0.834345 1779.47 0.865716 1785.77 0.846715C1788.81 0.837418 1787.15 0.770331 1787.43 0.763463C1791.93 0.661566 1795.07 0.79318 1795.87 0.820104C1798.86 0.919144 1802.1 0.802121 1804.13 0.868321C1806.16 0.934027 1801.49 1.03143 1807.54 1.03019C1809.23 0.968165 1804.74 0.806089 1809.33 0.779821C1826.64 0.680461 1858.96 0.807627 1872.88 0.820836C1886.77 0.834035 1891.26 0.822592 1899.36 0.845006C1913.98 0.885533 1908.62 0.765283 1917.7 0.710241C1926.8 0.655205 1922.38 0.951079 1923.69 1.01468C1924.97 1.07826 1926.38 1.01281 1927.97 1.04776C1929.57 1.08271 1926.12 1.12595 1929.86 1.13907C1933.61 1.15218 1943.86 1.03907 1945.19 0.972569C1948 0.831672 1943.38 0.683794 1953.3 0.735753C1953.87 0.738837 1952.02 0.816636 1954.21 0.824498C1971.56 0.884391 1989.58 0.888103 2006.91 0.941075C2009.3 0.948481 2007.17 1.03503 2008.55 1.04032C2023 1.09568 2017.83 0.949745 2025.75 0.787633C2023.97 1.00337 2028.35 1.13536 2039.31 1.13663C2045.9 1.13747 2044.77 1.04325 2049.03 0.976842C2050.31 0.956823 2054.97 1.02152 2055.82 0.977208C2058.6 0.83236 2054.21 0.670211 2065.51 0.734777C2066.01 0.737845 2064.43 0.817133 2066.14 0.821935C2077.22 0.853365 2078.55 0.701856 2090.52 0.683508C2099.9 0.66911 2116.59 0.761499 2127.28 0.776525C2127.05 1.01907 2137.15 0.963534 2141.24 0.7963C2148.17 0.803147 2155.66 0.793693 2162.37 0.816808C2164.67 0.824689 2163.16 0.894913 2163.45 0.902501C2167.91 1.02153 2170.92 0.858831 2172.42 0.852452C2188.64 0.790448 2201.86 0.913761 2217.34 0.793248C2217.89 0.788908 2218.78 0.620426 2222.92 0.743444C2223.19 0.751924 2218.08 0.82858 2225.36 0.834508C2232.64 0.840449 2246.37 0.930768 2256.49 0.852696C2258.93 0.833901 2265.12 0.697128 2270.09 0.803991C2270.75 0.818502 2270.03 0.866823 2270.98 0.893712C2274.07 0.979391 2275.76 0.809097 2279.39 0.95377C2283.02 1.09844 2290.57 1.20678 2300.77 1.10697C2301.09 1.10407 2303.51 0.969092 2306.71 0.971226C2311.83 0.974749 2319.1 1.00287 2324.45 1.00199C2327.01 1.00152 2325.37 0.917706 2325.81 0.916173C2343.02 0.869207 2355.27 0.943926 2373.71 0.976353C2377.09 0.982464 2386.8 0.868173 2393.34 0.958531C2400.53 1.05745 2393.15 1.46891 2409.66 1.37088C2416.32 1.33167 2424.75 0.809653 2436.72 1.08011C2459.94 1.01309 2481.41 1.15151 2504.68 1.05582C2505.73 1.05158 2509.04 0.905889 2511.5 0.907872C2515.16 0.911098 2517.16 0.979192 2519.77 0.983677C2530.7 1.00419 2540.71 0.945929 2551.24 0.954991C2555.25 0.958284 2553.85 1.02869 2558.62 1.03263C2563.39 1.0365 2566.57 0.943782 2573.03 0.98856C2577.92 1.02269 2582.8 1.2122 2589.28 1.23429C2589.52 1.04736 2593.97 1.05121 2601.88 1.00187C2603.4 0.992292 2601.77 0.927231 2602.49 0.919347C2605.42 0.885814 2608.13 0.939735 2610.91 0.903233C2611.58 0.894467 2611.62 0.83063 2612.17 0.81986C2616.87 0.725848 2624.61 0.869442 2625.94 0.894444C2631.04 0.989396 2633.42 0.906369 2637.33 0.943761C2641.23 0.981147 2635.4 1.02788 2639.96 1.05057C2649.41 1.0975 2661.55 1.08719 2671.15 1.09012C2674.98 1.0909 2672.36 1.00569 2672.91 1.00382C2680.83 0.982207 2688.84 1.07285 2693.23 0.903111C2698.72 1.34199 2698 0.860543 2709.32 0.948399C2710.22 0.955505 2711.35 1.16305 2707.93 1.19352C2704.5 1.22396 2699.31 1.15908 2694.56 1.20658C2693.44 1.21772 2687 1.4122 2686.12 1.42398C2679.23 1.51605 2678.26 1.20591 2677.89 1.18888C2673.76 1.00505 2665.89 1.21456 2663.81 1.22904C2654.33 1.29537 2646.27 1.25176 2638.34 1.29911C2633.15 1.32971 2632.64 1.53286 2628.57 1.52664C2615.02 1.50609 2610.3 1.22269 2597.53 1.46842C2594.8 1.52083 2597.52 1.74287 2587.71 1.56827C2587.09 1.55726 2579.81 1.39754 2575.61 1.49857C2575.08 1.51131 2575.1 1.57602 2574.4 1.58145C2569.73 1.61662 2566.62 1.56506 2561.53 1.58975C2556.44 1.61445 2550.33 1.65125 2544.52 1.62931C2541.02 1.61618 2536.53 1.49562 2534.86 1.4661C2530.13 1.38107 2525.05 1.52048 2522.12 1.41751C2519.17 1.31403 2524.95 1.15687 2517.2 1.09C2516.91 1.25812 2516.25 1.43069 2515.79 1.59976C2498.81 1.59384 2482.1 1.53948 2465.06 1.54691C2462.94 1.548 2465.1 1.63838 2462.84 1.64188C2453.28 1.65624 2444.94 1.59181 2435.03 1.61746C2427.36 1.63767 2418.95 1.73337 2410.93 1.75748C2406.03 1.5651 2394.13 1.63041 2385.49 1.61283C2382.46 1.60675 2382.66 1.55537 2380.51 1.53861C2372.38 1.47661 2376.19 1.64662 2373.96 1.67337C2364.4 1.78756 2363.59 1.40276 2352.32 1.41226C2351.72 1.41264 2344.43 1.61775 2343.42 1.63053C2337.04 1.71382 2342.36 1.55913 2338.37 1.54398C2331.07 1.51628 2326 1.4673 2317.44 1.52738C2314.94 1.54517 2308.96 1.67302 2304.11 1.57413C2303.47 1.56118 2303.82 1.49338 2303.31 1.48941C2294.02 1.42323 2293.78 1.63626 2288.47 1.70841C2283.16 1.78054 2274.95 1.63348 2273.29 1.5911C2268.92 1.48145 2276.63 1.54424 2276.87 1.53348C2279.65 1.40543 2273.66 1.42748 2269.09 1.41666C2268.43 1.20778 2262.04 1.22032 2264.36 1.40628C2264.62 1.4266 2268.18 1.40712 2269.09 1.41666C2265.08 1.6216 2258.06 1.64784 2250.3 1.45633C2246.67 1.36657 2250.1 1.26192 2239.07 1.3002C2234.06 1.31749 2236 1.46131 2231.58 1.50052C2221.48 1.58999 2208.37 1.45582 2197.96 1.47696C2194.18 1.48464 2197.86 1.56336 2195.28 1.57132C2188.43 1.59269 2182.39 1.53362 2175.51 1.56388C2174.89 1.56672 2176.41 1.64913 2174.27 1.65018C2158.05 1.65975 2143.93 1.60696 2126.99 1.6055C2118.81 1.60483 2104.18 1.65028 2095.71 1.64115C2081.02 1.62579 2062.95 1.50595 2050.4 1.53507C2042.21 1.5537 2044.01 1.63613 2040.5 1.69229C2033.73 1.80116 2021.75 1.60616 2020.14 1.57596C2020.09 1.57496 2027.13 1.55553 2023.38 1.51322C2021.19 1.42505 2020.22 1.57558 2020.14 1.57596C2019.08 1.55645 2005.01 1.53774 2002.22 1.5535C2000.7 1.56211 2001.55 1.64021 2000.76 1.64322C1981.94 1.71311 1963.1 1.73296 1944.02 1.69644C1943.68 1.69487 1944.19 1.60751 1943.4 1.60489C1932.35 1.56605 1925.28 1.67291 1916.17 1.73636C1907.06 1.79978 1899.83 1.77854 1894.44 1.62857C1887.57 1.64745 1877.71 1.58116 1872.03 1.54093C1866.36 1.5007 1865.56 1.67074 1865.07 1.6741C1849.49 1.7817 1840.49 1.68437 1824.33 1.66922C1816.65 1.66173 1801.42 1.68639 1793.1 1.70499C1786.53 1.71997 1782.57 1.68012 1776.51 1.7056C1775.69 1.709 1776.52 1.78471 1776.27 1.78763C1769.51 1.87822 1772.76 1.69312 1771.37 1.66007C1766.31 1.53985 1763.18 1.47583 1754.52 1.53238C1752.53 1.54533 1746.71 1.81184 1743.07 1.82742C1738.34 1.8472 1740.13 1.75167 1735.17 1.77481C1734.75 1.77671 1734.84 1.83564 1731.78 1.83304C1717.59 1.82175 1702.11 1.78746 1687.36 1.79337C1685.35 1.79395 1687.93 1.88742 1685.02 1.8898C1671.36 1.90088 1656.39 1.89742 1643.08 1.85367C1639.8 1.84261 1641.86 1.77716 1641.15 1.75772C1636.78 1.64014 1630.59 1.81099 1629.57 1.81424C1605.2 1.89634 1586.56 1.74173 1561.72 1.81534C1560.37 1.81966 1549.97 2.00281 1545.32 1.84574C1545.01 1.83528 1540.41 1.67458 1536.35 1.78446C1536.1 1.79133 1538.96 1.87407 1533.97 1.86563C1528.97 1.85722 1520.94 1.91247 1514.07 1.82157C1511.9 1.79293 1506.76 1.63262 1500.28 1.76041C1499.85 1.76933 1489.84 2.05828 1486.27 1.85892C1485.69 1.8261 1486.3 1.61513 1478.56 1.7233C1477.08 1.74427 1479.77 1.79133 1475.87 1.82071C1469.9 1.866 1462 1.80949 1454.66 1.90347C1453.38 1.92011 1447.93 2.06331 1443.57 1.95462C1442.88 1.9376 1444.18 1.86717 1441.87 1.85929C1430.9 1.82148 1419.42 1.86859 1408.28 1.81986C1404.33 1.80273 1406.35 1.68887 1402.24 1.65836C1398.12 1.62786 1389.84 1.59851 1385.53 1.65055C1381.23 1.7026 1385.93 1.88407 1379.48 1.89859C1351.45 1.96166 1323.67 1.8552 1295.68 1.83963C1291.53 1.83731 1294.97 1.90224 1288.85 1.90347C1266.29 1.90831 1227.34 1.96919 1207.77 1.83121C1192.08 1.72069 1211.82 1.63656 1199.83 1.59159C1194.05 1.57013 1187.79 1.78111 1186.4 1.78775C1172.76 1.85522 1163.28 1.76176 1151 1.79044C1148.47 1.79639 1150.95 1.8819 1148.8 1.88602C1141.43 1.90085 1133.68 1.86268 1126.64 1.86966C1123.48 1.87299 1124.06 1.9383 1121.16 1.93326C1114.2 1.92195 1108.05 1.8945 1101.27 1.83328C1100.65 1.82771 1104.82 1.74646 1099.67 1.74344C1091.34 1.73878 1081.01 1.67839 1071.42 1.74076C1068.58 1.75951 1068.47 1.90878 1062.36 1.8057C1061.07 1.78417 1062.71 1.60493 1055.59 1.7598C1054.39 1.78553 1042.43 1.99442 1036.56 1.85977C1035.02 1.82434 1031.06 1.67767 1027.65 1.70072C1027.18 1.70439 1029.04 1.78457 1026.21 1.79239C1016.22 1.81856 1005.76 1.81 995.498 1.83512C992.759 1.84198 996.839 1.92495 992.756 1.93253C981.529 1.9535 967.511 1.93237 956.533 1.9064C952.485 1.89667 955.283 1.82795 954.988 1.82047C950.252 1.69882 947.451 1.86302 945.88 1.87259C936.103 1.92992 928.659 1.85279 919.647 1.8732C917.16 1.87863 918.923 1.95692 918.428 1.9639C913.294 2.03211 917.119 1.89151 913.869 1.87601C904.765 1.83212 894.616 1.83842 885.409 1.84842C882.027 1.85221 885.828 1.94299 882.793 1.94534C864.83 1.96099 846.156 1.9523 828.626 1.90225C825.325 1.89267 827.402 1.82276 826.714 1.80679C821.972 1.69509 815.023 1.84746 813.424 1.86197C806.153 1.92824 803.33 1.86642 796.909 1.87796C765.544 1.93541 726.817 1.89447 697.21 1.86917C658.629 1.83662 628.692 1.77012 591.901 1.78739C589.562 1.7884 591.92 1.88139 589.905 1.88345C563.88 1.90587 538.26 1.86953 512.184 1.89639C510.044 1.89843 513.128 1.98659 509.694 1.99283C502.649 2.00624 493.725 2.00145 486.602 1.9733C483.128 1.95974 487.788 1.88409 484.291 1.87198C476.148 1.84362 467.42 1.83734 459.056 1.85147C455.497 1.85768 460.867 1.94784 456.241 1.94888C424.727 1.95783 393.777 1.97336 361.931 1.8566C359.748 1.84858 357.832 1.66533 353.19 1.70047C352.841 1.75133 352.86 1.81115 352.707 1.86551C306.831 1.89479 261.423 1.83127 215.419 1.82144C213.479 1.82105 216.831 1.91815 213.076 1.91788C191.341 1.91644 170.236 1.94334 148.004 1.84683C145.798 1.8374 146.929 1.66658 140.429 1.69242C139.282 1.69713 129.492 1.71991 126.961 1.75699C126.617 1.76258 128.403 1.84231 125.248 1.84464C106.914 1.85674 87.7019 1.83854 69.3999 1.78983C66.4461 1.78181 69.5917 1.69691 67.4879 1.69046C52.5644 1.64539 36.3319 1.70993 22.0717 1.63285C12.5265 1.58094 16.0604 1.43417 10.9882 1.28971C10.2708 1.26932 4.36013 1.26609 4.05447 1.18204C3.26975 0.970681 6.1327 0.739242 4.95796 0.513952C4.70977 0.465427 -3.20617 0.517692 1.48058 0.400427C1.80799 0.392579 7.54709 0.35366 8.96063 0.31388C9.94479 0.286376 8.17131 0.200894 10.1793 0.165687C12.1871 0.130513 14.3934 0.202169 17.7224 0.160804C21.0498 0.118927 19.5867 0.0216813 26.232 0.0101698ZM1846.48 1.36112C1841.23 1.27946 1840.45 1.57855 1846.13 1.50699C1846.41 1.50318 1846.75 1.36512 1846.48 1.36112ZM2482.19 1.31388C2475.32 1.18195 2470.62 1.37593 2475.47 1.47782C2480.31 1.57959 2484.28 1.35387 2482.19 1.31388ZM2553.42 1.21756C2545.39 1.11355 2544.13 1.53768 2552.73 1.45194C2553.23 1.44709 2553.89 1.2236 2553.42 1.21756ZM34.5105 1.24857C34.438 1.2446 30.1891 1.24073 30.0876 1.24466C27.8252 1.33965 36.3211 1.34733 34.5105 1.24857ZM2624.1 1.11271C2621.6 1.05533 2614.38 1.12156 2617.49 1.19291C2620 1.2503 2627.22 1.18407 2624.1 1.11271ZM1572.4 1.0419C1572.31 1.03745 1569.27 1.03343 1569.33 1.05863C1569.54 1.13977 1573.78 1.11687 1572.4 1.0419ZM2744.23 1.10782C2726.49 1.09186 2715.72 0.741508 2735.05 0.781041C2738.55 0.788194 2727.51 0.892765 2731.96 0.924351C2740.12 0.981896 2745.53 0.761919 2753.85 0.879796C2755.35 0.901371 2745.25 1.10951 2744.2 1.10831C2744.21 1.10815 2744.22 1.10799 2744.23 1.10782ZM1843.46 1.00187C1843.35 0.997911 1839.13 0.994161 1839.03 0.998082C1836.75 1.09304 1845.24 1.10065 1843.46 1.00187ZM1394.65 0.856969C1394.42 0.848541 1384.63 0.840659 1384.31 0.848424C1379.21 1.0037 1398.99 1.0201 1394.65 0.856969ZM2127.45 0.782995C2132.05 0.68747 2137.55 0.676223 2141.22 0.796178C2136.65 0.78981 2132.04 0.788872 2127.45 0.782995Z" fill="var(--stroke-0, white)"/>
</svg>
