<svg preserveAspectRatio="none" width="100%" height="100%" overflow="visible" style="display: block;" viewBox="0 0 981 47" fill="none" xmlns="http://www.w3.org/2000/svg">
<path id="Vector 62" d="M9.26244 1.46435C14.6885 2.44099 21.7977 3.74901 27.2021 4.74623C28.8965 5.05885 28.0337 4.92968 29.2028 5.14644C31.4857 5.56953 33.6184 5.94093 35.8785 6.35986C36.6276 6.49881 35.6868 6.37232 36.4724 6.51705C40.7789 7.30988 44.8461 8.02618 49.2136 8.81038C70.6855 12.6654 91.8592 16.2981 113.66 19.7471C120.875 20.89 129.599 22.2604 137.055 23.3396C137.927 23.466 137.412 23.353 137.579 23.3744C140.193 23.711 139.308 23.6562 140.997 23.9124C147.706 24.929 155.181 25.983 161.675 26.8487C164.421 27.2142 161.676 26.7697 164.439 27.1834C164.631 27.212 163.928 27.157 164.682 27.2625C166.391 27.5021 169.655 27.9274 170.993 28.1054C173.543 28.4454 173.963 28.4993 176.385 28.8115C179.702 29.2389 183.65 29.7556 187.196 30.1825C187.955 30.2738 186.955 30.1106 188.167 30.2524C189.377 30.3945 192.605 30.7888 193.682 30.9266C194.757 31.0646 194.295 31.0411 194.485 31.0711C196.041 31.3193 199.76 31.6707 200.241 31.7237C208.968 32.702 216.422 33.5682 224.608 34.4199C230.823 35.066 237.506 35.7104 243.385 36.2659C250.455 36.9337 256.379 37.4829 263.288 38.0618C264.015 38.1226 263.172 38.0045 264.05 38.0776C273.392 38.8548 282.759 39.5785 292.105 40.2636C293.04 40.332 291.832 40.2893 292.766 40.3601C298.511 40.799 307.574 41.4601 311.012 41.4845C314.957 41.7321 319.598 42.007 323.103 42.236C325.355 42.3829 323.161 42.3087 325.935 42.4397C326.562 42.4691 325.749 42.3859 326.689 42.4328C330.622 42.6289 334.869 42.857 338.787 43.0243C339.582 43.0581 339.367 43.0123 339.593 43.0167C341.513 43.057 344.593 43.2834 345.281 43.3201C349.058 43.5238 352.119 43.6531 355.402 43.7842C356.599 43.8319 357.827 43.8797 359.134 43.9309C360.255 43.9746 358.932 43.8758 360.011 43.9161C365.616 44.1255 371.465 44.333 376.942 44.5267C378.166 44.57 377.039 44.5751 377.624 44.5979C380.205 44.6969 380.782 44.6377 383.269 44.7272C383.794 44.7459 383.497 44.7719 383.593 44.7785C385.076 44.8815 386.361 44.8326 386.743 44.8414C391.564 44.9493 394.681 45.1171 399.366 45.2154C399.923 45.2269 398.669 45.1537 400.234 45.1884C410.691 45.4194 421.799 45.6294 432.17 45.8031C433.781 45.83 432.631 45.8476 432.732 45.8531C434.383 45.9385 435.455 45.8666 435.981 45.87C440.132 45.8985 444.028 46.0104 446.834 45.9357C464.42 46.1382 481.908 46.1304 499.34 46.1826C499.562 46.1832 499.165 46.226 499.607 46.2269C504.935 46.237 503.913 46.174 507.433 46.082C508.32 46.0589 511.02 46.1436 511.259 46.1494C512.129 46.1714 511.227 46.2378 511.518 46.2416C513.93 46.2698 513.536 46.0659 516.79 46.0485C516.892 46.0483 516.464 46.0885 516.737 46.0908C517.586 46.098 518.427 46.0781 519.258 46.0863C521.158 46.105 521.835 46.2013 524.736 46.1233C525.104 46.1131 524.542 46.0005 527.446 45.985C528.604 45.9794 533.729 45.9367 535.165 45.9313C536.6 45.9264 535.615 45.9726 535.717 45.9733C539.586 45.9889 538.119 46.0224 540.057 46.0782C541.995 46.1333 541.456 45.9631 542.246 45.9359C543.036 45.9088 545.87 45.9213 546.567 45.9281C547.262 45.9351 546.395 45.9682 547.014 45.9698C551.116 45.9789 548.813 45.8635 550.164 45.8211C553.354 45.7201 555.842 45.8209 558.76 45.798C559.55 45.7917 558.905 45.77 559.608 45.7586C562.394 45.7133 564.06 45.7325 567.233 45.6528C567.753 45.6398 570.317 45.5267 571.976 45.5605C572.211 45.5654 571.544 45.6073 572.732 45.5977C574.506 45.5835 577.699 45.5437 579.6 45.504C581.005 45.4746 579.394 45.4458 581.162 45.4354C581.951 45.4306 580.489 45.4844 581.972 45.4728C583.448 45.4616 587.214 45.4004 588.645 45.3758C590.073 45.3514 589.291 45.3236 589.406 45.319C590.105 45.2921 592.843 45.227 593.085 45.2228C605.312 45.0117 616.594 44.8651 628.474 44.5968C629.411 44.5757 628.786 44.5459 628.929 44.5423C632.134 44.4576 629.61 44.6238 631.848 44.6149C631.523 44.5351 632.845 44.5231 635.095 44.4656C636.179 44.4378 635.587 44.4169 635.686 44.4114C637.292 44.326 638.41 44.3676 638.698 44.3748C639.762 44.4013 640.91 44.3177 641.638 44.3348C642.368 44.3516 640.692 44.4372 642.863 44.3888C643.471 44.3444 641.858 44.2989 643.505 44.2494C649.713 44.0639 661.249 43.8598 666.221 43.7461C671.15 43.6344 672.789 43.5883 675.684 43.5284C680.913 43.4196 678.995 43.4067 682.227 43.2986C685.459 43.1901 683.89 43.3773 684.356 43.3975C684.808 43.4179 685.32 43.3723 685.894 43.3753C686.468 43.3782 685.227 43.4312 686.575 43.4037C687.926 43.3762 691.595 43.2261 692.067 43.1807C693.067 43.0846 691.421 43.053 694.955 42.9881C695.158 42.9844 694.5 43.0403 695.278 43.0242C701.439 42.8955 707.94 42.7266 714.1 42.5893C714.959 42.5702 714.193 42.6338 714.692 42.6232C719.881 42.5125 718.023 42.489 720.848 42.3323C720.215 42.4572 721.789 42.4812 725.666 42.3774C728.032 42.314 727.631 42.2777 729.161 42.2031C729.621 42.1807 731.295 42.1678 731.596 42.1375C732.589 42.0381 731.025 41.9994 735.052 41.9225C735.229 41.9193 734.668 41.9741 735.278 41.96C739.199 41.8693 739.689 41.7801 743.989 41.654C747.36 41.555 753.256 41.4406 757.127 41.343C757.052 41.4663 760.657 41.3407 762.1 41.218C764.518 41.1559 767.277 41.0767 769.666 41.024C770.492 41.0058 769.951 41.0555 770.055 41.0565C771.652 41.0731 772.719 40.9632 773.25 40.9458C778.969 40.7618 783.817 40.6954 789.277 40.4939C789.475 40.4866 789.799 40.3939 791.294 40.417C791.39 40.4188 789.549 40.5044 792.172 40.44C794.819 40.375 799.586 40.2996 803.296 40.1697C804.178 40.1386 806.391 40.0163 808.144 40.0278C808.377 40.0295 808.122 40.0598 808.46 40.0651C809.217 40.0768 809.732 40.0325 810.403 40.0187C810.71 40.0123 811.048 40.0117 811.451 40.0243C812.774 40.0657 815.518 40.0556 819.103 39.9257C819.224 39.9216 820.043 39.8358 821.202 39.8114C823.075 39.7719 825.69 39.7299 827.58 39.6901C828.486 39.671 827.905 39.6412 828.063 39.6371C834.213 39.4866 838.496 39.4404 845.185 39.339C846.394 39.3207 849.798 39.2058 852.196 39.2133C854.765 39.2231 852.16 39.4669 857.989 39.3319C860.453 39.277 863.355 38.9754 867.686 39.0595C875.907 38.9303 883.673 38.9354 891.975 38.8623C892.349 38.859 893.51 38.7831 894.374 38.7826C895.712 38.7817 896.434 38.8152 897.368 38.8169C901.207 38.8256 904.819 38.8047 908.611 38.8302C910.044 38.8403 909.549 38.8722 911.231 38.8858C912.891 38.8999 914.122 38.8634 916.385 38.9095C918.074 38.9446 919.927 39.0616 922.172 39.106C922.225 39.0137 923.915 39.0387 926.684 39.0654C927.216 39.0706 926.647 39.0273 926.898 39.0281C927.936 39.0309 928.942 39.0782 929.925 39.0811C930.166 39.0819 930.178 39.0503 930.373 39.0492C931.985 39.0364 934.85 39.181 935.285 39.206C937.075 39.3019 937.987 39.2875 939.352 39.3485C940.722 39.4103 938.672 39.3688 940.274 39.4311C943.683 39.5629 948.006 39.7247 951.411 39.8849C952.801 39.95 951.855 39.8633 952.054 39.8716C954.886 39.9931 957.708 40.1913 959.31 40.198C961.243 40.5306 961.02 40.2698 965.045 40.5691C965.363 40.5933 965.765 40.7229 964.535 40.6592C963.327 40.5971 961.441 40.4484 959.777 40.3767C959.378 40.3584 957.061 40.3274 956.759 40.3181C954.287 40.2335 953.958 40.0654 953.828 40.0498C952.361 39.8837 949.554 39.8623 948.805 39.8388C945.421 39.728 942.562 39.6042 939.701 39.5372C937.874 39.4956 937.683 39.5921 936.2 39.5472C931.414 39.4083 929.668 39.2301 925.144 39.271C924.171 39.2813 925.124 39.4051 921.621 39.2649C921.414 39.256 918.824 39.1404 917.282 39.1743C917.098 39.1786 917.104 39.211 916.86 39.2111C915.223 39.211 914.113 39.1745 912.253 39.172C910.475 39.1703 908.287 39.1752 906.179 39.1555C904.961 39.1437 903.36 39.0789 902.755 39.0629C901.028 39.0164 899.245 39.085 898.207 39.0336C897.153 38.9822 899.222 38.9025 896.444 38.8707C896.341 38.9549 896.103 39.0414 895.936 39.1261C889.901 39.1302 883.872 39.1353 877.822 39.1902C877.069 39.1972 877.84 39.2357 877.032 39.2445C873.546 39.2824 870.683 39.28 867.076 39.3354C864.285 39.3788 861.403 39.4644 858.456 39.5185C856.677 39.4473 852.539 39.5422 849.351 39.5865C848.266 39.6015 848.355 39.5743 847.595 39.5788C844.728 39.5966 846.07 39.6589 845.281 39.6859C841.898 39.8025 841.451 39.6179 837.537 39.6965C837.331 39.7004 834.735 39.8531 834.369 39.8669C832.069 39.9539 833.99 39.8386 832.544 39.8597C829.832 39.9003 828.182 39.9097 825.089 40.0054C824.204 40.0331 822.01 40.1444 820.28 40.1332C820.056 40.1317 820.179 40.0951 819.999 40.0971C816.735 40.1366 816.637 40.2459 814.74 40.3253C813.438 40.3799 811.629 40.3954 810.412 40.3981C809.876 40.3988 809.463 40.3967 809.278 40.3944C807.917 40.3783 809.887 40.3504 810.41 40.3393C810.482 40.3378 810.528 40.3366 810.538 40.3357C810.96 40.2992 810.828 40.2886 810.409 40.2912C809.848 40.2943 808.742 40.323 807.798 40.3425C807.565 40.2436 805.293 40.3048 806.118 40.3778C806.213 40.3857 807.475 40.3455 807.798 40.3425C806.383 40.4789 803.886 40.5525 801.069 40.5266C799.763 40.5142 800.942 40.4321 797.066 40.5485C795.293 40.6019 795.981 40.6565 794.408 40.716C790.788 40.8527 786.088 40.9076 782.395 41.0154C781.044 41.0548 782.362 41.0595 781.437 41.0878C778.994 41.1629 776.75 41.193 774.354 41.2721C774.133 41.2794 774.673 41.3062 773.916 41.327C768.161 41.4856 763.054 41.5974 757.037 41.7601C754.081 41.84 748.878 42.0044 745.859 42.0821C740.568 42.2184 734.171 42.3324 729.659 42.4689C726.716 42.5577 727.361 42.5815 726.095 42.6437C723.707 42.7627 719.437 42.7796 718.856 42.78C718.839 42.7799 721.352 42.7029 720.011 42.7177C719.23 42.6945 718.884 42.779 718.856 42.78C718.483 42.7803 713.426 42.9058 712.417 42.9403C711.88 42.9589 712.181 42.9899 711.901 42.9989C705.253 43.2101 698.422 43.3985 691.656 43.5533C691.536 43.5556 691.715 43.5073 691.433 43.5132C687.488 43.5945 684.911 43.713 681.694 43.8252C678.455 43.9378 675.868 43.9909 673.932 43.9633C671.452 44.0336 667.949 44.0851 665.926 44.1133C663.903 44.1415 663.62 44.2332 663.442 44.2391C657.869 44.4249 654.645 44.4511 648.887 44.5739C646.149 44.6323 640.663 44.766 637.72 44.8385C635.377 44.8965 633.962 44.9067 631.795 44.9651C631.502 44.973 631.799 45.0046 631.71 45.0079C629.291 45.1039 630.451 44.987 629.951 44.9809C628.139 44.9585 627.003 44.9502 623.929 45.0409C623.218 45.0618 621.147 45.2368 619.847 45.2703C618.157 45.3136 618.794 45.2533 617.022 45.2996C616.87 45.3035 616.903 45.3324 615.808 45.3524C610.702 45.4459 605.223 45.5307 599.932 45.627C599.21 45.64 600.136 45.6704 599.094 45.6899C594.196 45.7815 588.877 45.8683 584.105 45.9213C582.932 45.9342 583.667 45.8899 583.412 45.8842C581.845 45.85 579.638 45.969 579.274 45.976C570.579 46.1475 563.901 46.1608 555.029 46.3024C554.547 46.3105 550.82 46.4447 549.164 46.3838C549.051 46.3798 547.41 46.3172 545.96 46.3871C545.869 46.3914 546.892 46.4223 545.108 46.4364C543.323 46.4505 540.451 46.5063 537.995 46.4831C537.218 46.4758 535.379 46.4122 533.064 46.4953C532.913 46.5012 529.337 46.6744 528.059 46.5839C527.852 46.5689 528.068 46.4624 525.303 46.536C524.774 46.5501 525.734 46.5671 524.342 46.5913C522.209 46.6286 519.383 46.618 516.759 46.6793C516.302 46.6902 514.355 46.7722 512.794 46.7252C512.549 46.7178 513.013 46.6805 512.189 46.6804C508.267 46.6798 504.166 46.7179 500.179 46.703C498.768 46.6977 499.489 46.6392 498.019 46.627C496.548 46.6148 493.587 46.6043 492.05 46.6313C490.513 46.6583 492.192 46.7482 489.89 46.7565C479.859 46.7913 469.928 46.7109 459.934 46.6404C458.452 46.6297 459.686 46.6704 457.495 46.6562C449.416 46.6091 435.484 46.4897 428.517 46.3139C422.896 46.1754 429.975 46.2388 425.676 46.1518C423.602 46.1096 421.363 46.1781 420.864 46.1731C415.989 46.1249 412.626 46.015 408.215 45.9392C407.307 45.9235 408.197 45.9846 407.424 45.9707C404.787 45.9233 402.025 45.843 399.521 45.7879C398.398 45.7631 398.607 45.8007 397.562 45.7732C395.062 45.7073 392.859 45.6378 390.438 45.543C390.217 45.5343 391.706 45.5332 389.869 45.4829C386.895 45.4012 383.231 45.2673 379.778 45.1931C378.759 45.1712 378.715 45.2451 376.532 45.1247C376.075 45.0992 376.66 45.029 374.119 45.024C373.683 45.0233 369.461 44.9869 367.33 44.843C366.774 44.8057 365.358 44.6817 364.134 44.6481C363.968 44.6439 364.631 44.7084 363.617 44.675C360.919 44.5851 358.137 44.4775 355.378 44.3704C354.467 44.3349 353.559 44.2996 352.656 44.265C351.673 44.2272 353.135 44.3301 351.67 44.2723C347.622 44.1126 342.715 43.8808 338.741 43.6765C337.288 43.6017 338.294 43.6157 338.188 43.6069C336.492 43.4642 335.489 43.4964 334.927 43.4733C331.421 43.3273 328.845 43.1548 325.577 42.989C324.684 42.9434 325.315 43.0167 325.137 43.0106C323.294 42.9445 324.669 42.949 323.505 42.8776C320.238 42.6763 316.661 42.4746 313.366 42.2828C312.151 42.212 313.514 42.3391 312.424 42.2749C305.981 41.8957 299.357 41.4621 293.093 41.0021C291.92 40.9157 292.661 40.9322 292.417 40.9072C290.732 40.7341 288.283 40.6356 287.693 40.6001C285.081 40.4446 284.074 40.3393 281.785 40.1741C270.619 39.373 256.815 38.1915 246.275 37.1947C232.556 35.8994 221.917 34.7715 208.836 33.3223C208.007 33.2299 208.838 33.3698 208.123 33.2907C198.886 32.2645 189.771 31.1578 180.546 30.006C179.784 29.9107 180.876 30.0934 179.653 29.9417C177.144 29.6307 173.984 29.2212 171.477 28.8786C170.25 28.7111 171.907 28.8901 170.665 28.7211C167.764 28.3261 164.67 27.9102 161.72 27.5171C160.465 27.3498 162.351 27.6516 160.721 27.4305C149.541 25.9129 138.594 24.3423 127.358 22.5814C126.584 22.4601 125.918 22.2666 124.274 22.0332C124.146 22.0395 124.149 22.0701 124.091 22.0887C107.874 19.6237 91.8877 16.9795 75.6643 14.2046C74.9799 14.0875 76.1544 14.3374 74.8296 14.1109C67.1771 12.8015 59.7483 11.52 51.9236 10.0873C51.1488 9.94538 51.5609 9.93193 49.2745 9.53963C48.8755 9.47152 45.4199 8.86861 44.5272 8.7279C44.4057 8.70907 45.0273 8.86047 43.9168 8.66353C37.4719 7.51964 30.7143 6.29223 24.2791 5.1007C23.2411 4.90841 24.3548 5.06722 23.6156 4.92989C18.3765 3.95687 12.6585 2.94794 7.65392 1.99566C4.30243 1.35774 5.55819 1.51226 3.78796 1.11573C3.53757 1.05967 1.46006 0.678759 1.36017 0.617796C1.1033 0.463473 2.13048 0.533371 1.73776 0.347167C1.65487 0.307373 -1.13245 -0.174951 0.525572 0.0681569C0.641368 0.085311 2.6623 0.434488 3.16279 0.50563C3.51123 0.555258 2.89546 0.399402 3.60451 0.510943C4.3135 0.622486 5.08269 0.799315 6.25679 0.992555C7.43048 1.18543 6.92465 1.04377 9.26244 1.46435ZM656.778 44.2391C654.894 44.2419 654.624 44.3977 656.655 44.3149C656.754 44.3107 656.875 44.2388 656.778 44.2391ZM883.943 39.0286C881.48 38.9781 879.735 39.0891 881.513 39.1268C883.281 39.165 884.69 39.044 883.943 39.0286ZM909.389 38.966C906.503 38.8978 906.037 39.108 909.141 39.0817C909.32 39.0804 909.557 38.9701 909.389 38.966ZM12.061 2.60401C12.0358 2.59742 10.5429 2.3233 10.5069 2.31872C9.70325 2.22049 12.6885 2.7686 12.061 2.60401ZM934.633 39.2979C933.758 39.2454 931.122 39.2162 932.257 39.2788C933.182 39.3285 935.737 39.3626 934.633 39.2979ZM558.84 45.87C558.81 45.8681 557.722 45.8794 557.744 45.8917C557.818 45.9314 559.333 45.9014 558.84 45.87ZM977.477 41.5283C971.154 41.0464 967.335 40.6078 974.219 41.1221C975.469 41.217 971.519 40.981 973.111 41.1129C976.015 41.3534 977.95 41.3901 980.91 41.6733C981.446 41.7247 977.834 41.5556 977.466 41.5277C977.47 41.5279 977.474 41.5281 977.477 41.5283ZM655.69 44.0846C655.653 44.0835 654.154 44.1163 654.118 44.119C653.308 44.1852 656.327 44.1194 655.69 44.0846ZM495.307 46.2309C495.224 46.2271 491.728 46.2269 491.615 46.2305C489.791 46.3101 496.858 46.311 495.307 46.2309ZM757.187 41.3446C758.835 41.2521 760.793 41.1933 762.092 41.2181C760.473 41.2588 758.834 41.3028 757.187 41.3446Z" fill="var(--stroke-0, white)"/>
</svg>
