<svg preserveAspectRatio="none" width="100%" height="100%" overflow="visible" style="display: block;" viewBox="0 0 351 31" fill="none" xmlns="http://www.w3.org/2000/svg">
<path id="Vector 60" d="M6.87289 23.7035C10.9849 22.7075 16.3975 21.5754 20.5073 20.7379C21.7934 20.4763 21.1736 20.6323 22.0428 20.4575C23.0819 20.2485 24.0512 20.0468 25.0723 19.8373C25.7344 19.7015 26.4332 19.5595 27.1366 19.4213C27.6996 19.3109 27.0069 19.4948 27.5992 19.3777C30.8795 18.7294 33.9875 18.0946 37.3166 17.4436C53.7087 14.2495 69.8396 11.2207 86.5309 8.49982C91.908 7.62699 98.4185 6.66134 104.037 5.9148C104.175 5.89638 104.313 5.87815 104.449 5.86011C105.123 5.77128 104.716 5.78657 104.844 5.76706C106.84 5.46852 106.158 5.62964 107.476 5.48116C112.659 4.90298 118.399 4.4023 123.412 4.1448C125.526 4.04037 123.38 4.06154 125.547 4.01244C125.696 4.00952 125.158 4.06926 125.741 4.0512C127.045 4.00696 129.594 3.94334 130.595 3.94229C132.589 3.9365 132.896 3.9378 134.782 3.97031C137.319 4.02251 140.389 4.18208 143.117 4.49217C143.691 4.56014 142.909 4.42051 143.866 4.537C144.162 4.57478 144.727 4.65258 145.274 4.75799C145.591 4.82254 145.848 4.86706 146.178 4.98703C146.197 4.99513 146.287 5.02792 146.351 5.08565C146.375 5.11487 146.373 5.0805 146.433 5.20559C146.492 5.32892 146.382 5.50368 146.322 5.52552C146.218 5.58157 146.234 5.56355 146.195 5.57606C146.061 5.6005 146.012 5.59538 145.926 5.59741C145.742 5.59631 145.647 5.58919 145.477 5.57671C145.056 5.5433 144.636 5.51327 144.411 5.49614C143.581 5.43517 143.931 5.42584 143.783 5.40955C142.583 5.2713 139.732 5.24649 139.356 5.24053C132.66 5.07477 126.911 5.06847 120.622 5.23819C115.849 5.37138 110.743 5.63616 106.213 5.94568C101.634 6.25861 97.6499 6.59361 93.3557 7.054C92.5879 7.13675 91.8087 7.22463 91.0149 7.31825C90.4638 7.38352 91.1151 7.35396 90.4422 7.43436C83.2927 8.2954 76.2244 9.39539 69.157 10.6309C68.4538 10.7543 69.3554 10.5497 68.6463 10.6718C64.3108 11.408 57.457 12.701 54.9391 13.4307C52.0683 14.0344 48.5789 14.7918 46.0227 15.3975C45.9901 15.4058 45.9617 15.4156 45.9814 15.4079C45.9852 15.4061 45.9902 15.4042 46.0031 15.3963C46.0134 15.378 46.0477 15.4081 46.0866 15.2605C46.0988 15.172 46.0235 15.0961 45.9936 15.085C45.9598 15.0675 45.9446 15.067 45.9333 15.0648C45.912 15.0621 45.9066 15.0632 45.9017 15.0632C45.8871 15.0644 45.8975 15.0639 45.9084 15.0621C47.583 14.7438 45.9524 15.1251 48.04 14.6701C48.4893 14.5722 47.8817 14.6581 48.5804 14.5095C51.5239 13.8837 54.7751 13.2571 57.6773 12.6938C58.2768 12.5774 58.1083 12.573 58.2788 12.5348C59.6729 12.2214 62.066 11.8788 62.5754 11.7962C66.5135 11.1497 69.382 10.6587 73.05 10.0928C73.8979 9.96306 72.8871 10.0697 73.705 9.94327C77.9629 9.28711 82.3751 8.68503 86.5551 8.20417C87.4864 8.09754 86.6351 8.2401 87.0806 8.19136C88.4692 8.04031 89.0827 7.93721 89.9947 7.82025C90.3717 7.7721 90.7989 7.72217 91.3531 7.66795C91.7506 7.6291 91.5305 7.68738 91.6034 7.68346C92.7447 7.62261 93.7173 7.4408 94.01 7.40991C97.6971 7.02288 100.065 6.90977 103.633 6.62509C104.06 6.59157 103.094 6.61956 104.294 6.52848C112.292 5.92464 120.771 5.5382 128.705 5.36349C129.941 5.33654 129.059 5.39255 129.137 5.39455C130.409 5.42519 131.217 5.32276 131.624 5.31064C134.799 5.21845 137.766 5.254 139.921 5.13718C145.76 5.11053 151.593 5.14934 157.395 5.30938C164.942 5.65341 172.639 5.49245 179.912 7.7775C180.069 7.84373 179.773 7.76459 180.083 7.89809C180.413 8.04345 180.699 8.19592 180.944 8.35598C181.26 8.56631 181.537 8.78517 181.617 9.09687C181.688 9.41828 181.484 9.65497 181.344 9.80213C181.026 10.1113 180.762 10.2552 180.516 10.4078C180.018 10.6967 179.554 10.9508 178.417 11.4097C177.79 11.6732 175.774 12.2143 175.607 12.252C174.959 12.4223 175.607 12.1601 175.39 12.2207C173.605 12.7115 173.962 12.8262 171.558 13.4905C171.482 13.5109 171.79 13.3874 171.586 13.4392C170.945 13.6019 170.335 13.7812 169.721 13.93C168.395 14.2503 167.873 14.2955 166.08 14.786C165.945 14.8231 165.801 14.863 165.647 14.9062C165.382 14.98 165.81 14.996 163.664 15.5248C162.802 15.7393 158.999 16.6684 157.92 16.9175C156.859 17.1643 157.577 16.9532 157.502 16.9696C154.608 17.6103 155.704 17.3266 154.238 17.5988C152.787 17.8665 153.222 17.9435 152.636 18.1018C152.058 18.2582 149.932 18.7139 149.412 18.8201C148.889 18.9274 149.532 18.7529 149.068 18.8528C146 19.5116 147.746 19.2492 146.742 19.5106C144.384 20.1239 142.502 20.422 140.322 20.9061C139.733 21.0369 140.22 20.9563 139.696 21.0784C137.62 21.5614 136.361 21.8049 134.005 22.3734C133.62 22.4663 131.722 22.9725 130.476 23.1917C130.298 23.2229 130.79 23.0799 129.9 23.2711C128.579 23.5547 126.181 24.0796 124.767 24.4021C123.714 24.6424 124.933 24.4286 123.603 24.7042C123.016 24.8259 124.094 24.5569 122.992 24.7874C121.879 25.0209 119.094 25.6304 118.007 25.8665C116.948 26.0971 117.537 26.0108 117.451 26.0322C116.922 26.1631 114.883 26.6222 114.699 26.6613C112.496 27.1349 110.328 27.5916 108.198 28.0283C106.517 28.373 104.826 28.7116 103.164 29.0339C102.326 29.1966 101.508 29.3527 100.669 29.5087C100.261 29.5846 99.8321 29.6634 99.4182 29.7372C99.3208 29.7545 99.204 29.7752 99.1091 29.7914C99.0908 29.7945 99.0775 29.7968 99.0688 29.7982C99.0584 29.7992 99.0817 29.7982 99.0403 29.8008C99.0364 29.8005 99.0325 29.801 99.0184 29.7973C99.0156 29.7989 98.9337 29.7673 98.9566 29.6814C99.0083 29.5967 99.0057 29.6338 99.0125 29.6232C99.0205 29.6204 99.0209 29.6206 99.0226 29.6201C99.0252 29.6195 99.0261 29.6193 99.0273 29.6191C99.0296 29.6186 99.0319 29.6182 99.0351 29.6176C99.0403 29.6166 99.0549 29.6139 99.0534 29.6142C99.0699 29.6113 99.0937 29.6071 99.125 29.6016C99.1945 29.5895 99.2191 29.5854 99.2799 29.5749C99.4899 29.5391 99.696 29.5047 99.9072 29.4698C103.258 28.9218 106.592 28.4366 110.015 27.9488C110.717 27.8494 110.243 27.8722 110.35 27.8566C112.753 27.5076 110.903 27.8735 112.53 27.6914C112.547 27.6896 112.565 27.6876 112.582 27.6857C112.323 27.6336 113.33 27.5116 115.026 27.2789C115.857 27.1652 115.401 27.1913 115.476 27.1779C116.676 26.9695 117.559 26.9229 117.767 26.9097C118.575 26.8558 119.459 26.6848 120.007 26.6491C120.564 26.6121 119.293 26.8209 120.948 26.6125C121.399 26.5247 120.181 26.5954 121.414 26.428C126.098 25.7868 134.894 24.8152 138.667 24.3975C142.442 23.9759 143.662 23.8365 145.862 23.6053C149.837 23.191 148.375 23.2905 150.84 22.9973C153.312 22.7055 152.124 22.9814 152.484 22.975C152.836 22.9695 153.214 22.8966 153.651 22.8681C154.086 22.8397 153.15 22.9601 154.17 22.8593C155.188 22.7579 157.968 22.4129 158.328 22.343C159.086 22.1947 157.821 22.2488 160.522 22.0001C160.678 21.9859 160.177 22.0756 160.773 22.0193C165.486 21.5724 170.407 21.0987 175.118 20.705C175.772 20.6505 175.192 20.7456 175.572 20.7145C178.09 20.51 178.427 20.4605 178.892 20.3796C179.162 20.3341 179.482 20.2788 180.252 20.1866C179.782 20.3352 180.958 20.2958 183.957 20.0738C185.747 19.9445 185.453 19.9194 186.601 19.8078C186.932 19.7749 188.232 19.7235 188.456 19.688C189.217 19.5702 187.986 19.5565 191.095 19.4117C191.23 19.4058 190.802 19.4689 191.269 19.4458C194.294 19.3038 194.65 19.2082 197.924 19.0831C200.487 18.9837 205.054 18.9566 207.972 19.0217C207.884 19.1372 210.683 19.1695 211.788 19.1447C213.68 19.2327 215.739 19.3728 217.549 19.6078C218.17 19.6901 217.758 19.6736 217.835 19.687C219.026 19.9003 219.874 19.9804 220.265 20.058C220.99 20.2035 221.665 20.3691 222.317 20.6087C222.928 20.8707 223.738 21.1045 223.865 21.9029C223.883 22.6664 223.264 23.1974 222.693 23.5287C222.107 23.8673 221.47 24.0928 220.827 24.2861C219.534 24.6659 218.198 24.9065 216.792 25.1425C216.644 25.1664 216.416 25.2893 215.283 25.3849C215.212 25.3905 216.593 25.1593 214.617 25.4317C213.886 25.577 212.578 25.5594 211.778 26.0811C213.173 26.8168 215.42 26.5473 217.025 26.5393C217.704 26.514 219.376 26.3705 220.734 26.3288C220.912 26.3239 220.719 26.3614 220.977 26.3571C221.833 26.3396 222.279 26.22 223.269 26.2096C224.273 26.1972 226.322 26.0688 229.092 25.7087C229.185 25.6966 229.824 25.5577 230.699 25.456C232.079 25.2967 234.079 25.0601 235.509 24.8698C236.208 24.7768 235.755 24.7946 235.876 24.7777C238.871 24.3627 241.289 24.0218 243.965 23.6302C245.448 23.4128 247.037 23.1736 248.828 22.8921C249.735 22.7508 252.364 22.2639 254.122 22.0133C256.078 21.7325 254.108 22.2804 258.554 21.467C260.356 21.1353 262.566 20.4844 265.815 20.0377C272.058 18.8795 277.835 17.866 284.075 16.6095C284.356 16.553 285.229 16.3093 285.889 16.1815C286.872 15.9915 287.416 15.9195 288.114 15.7845C291.049 15.2181 293.727 14.6541 296.55 14.0873C297.624 13.8712 297.257 13.9819 298.531 13.7245C299.819 13.4635 300.647 13.2468 302.39 12.9093C303.69 12.6577 305.02 12.4777 306.762 12.1223C306.808 12.0168 308.002 11.7688 310.104 11.2944C310.505 11.2038 310.068 11.2641 310.257 11.2196C311.044 11.0341 311.775 10.9043 312.503 10.7282C312.685 10.6845 312.687 10.6513 312.835 10.6137C314.086 10.2954 316.171 9.91035 316.519 9.84568C317.907 9.58707 318.5 9.41144 319.568 9.18988C320.611 8.97344 319.067 9.34665 320.277 9.08431C320.404 9.05665 320.533 9.02859 320.663 9.00017C323.123 8.46157 326.172 7.74103 328.581 7.14689C329.585 6.89889 328.889 7.02697 329.032 6.99066C331.135 6.45943 333.268 5.94664 334.398 5.55112C335.897 5.3646 335.665 5.20039 338.634 4.36948C338.872 4.30105 339.197 4.31295 338.303 4.59611C337.4 4.88144 336.041 5.2364 334.793 5.6008C334.489 5.69184 332.811 6.23955 332.59 6.30188C330.777 6.82153 330.473 6.7326 330.375 6.74986C329.275 6.93508 327.186 7.55368 326.652 7.68842C324.463 8.24495 322.554 8.67408 320.688 9.1111C320.419 9.17413 320.149 9.23779 319.876 9.30244C318.482 9.63278 318.389 9.75709 317.292 9.99813C313.664 10.7902 312.385 10.9204 308.995 11.7695C308.266 11.9505 309.013 11.9077 306.376 12.3742C306.201 12.4056 304.251 12.7326 303.127 13.0169C302.988 13.0523 302.999 13.083 302.814 13.1242C301.571 13.3996 300.728 13.547 299.369 13.8375C298.006 14.1291 296.368 14.4803 294.816 14.7813C293.874 14.9641 292.66 15.1452 292.209 15.2201C290.928 15.4322 289.587 15.7682 288.788 15.8731C287.985 15.9784 289.517 15.5972 287.435 15.972C287.375 16.0696 287.214 16.1889 287.107 16.2961C282.549 17.1853 278.056 18.0165 273.477 18.8724C272.91 18.9784 273.498 18.9151 272.891 19.0297C270.321 19.5138 268.074 19.892 265.409 20.3836C263.341 20.7653 261.094 21.211 258.929 21.5983C257.606 21.7308 254.386 22.3146 252.056 22.6889C251.238 22.8208 251.289 22.7861 250.712 22.8721C248.502 23.1997 249.55 23.115 248.951 23.2254C246.663 23.6424 246.202 23.5663 244.002 23.8723C243.722 23.911 243.417 23.9552 243.081 24.0062C242.921 24.0313 240.96 24.4243 240.69 24.4687C238.982 24.7563 240.405 24.4743 239.316 24.6217C237.354 24.8843 235.955 25.0511 233.642 25.3763C232.974 25.4706 231.36 25.7349 230.026 25.8377C229.854 25.851 229.945 25.8065 229.807 25.8202C227.273 26.0717 227.236 26.1765 225.776 26.3592C224.334 26.5404 222.079 26.651 221.636 26.6592C220.428 26.6928 222.54 26.5692 222.608 26.5551C223.372 26.4279 221.724 26.5785 220.484 26.6525C220.285 26.5643 218.547 26.6675 219.184 26.7253C219.265 26.7321 220.22 26.6661 220.484 26.6525C219.396 26.8237 217.477 26.9621 215.337 26.8645C214.339 26.7642 215.282 26.9269 212.245 26.5573C211.937 26.4655 211.672 26.4516 211.55 26.1213C211.532 26.0389 211.562 25.9534 211.595 25.9063C211.622 25.8658 211.652 25.836 211.682 25.8102C211.751 25.7544 211.775 25.741 211.822 25.713C211.917 25.6597 211.964 25.6352 212.049 25.5983C212.209 25.5304 212.411 25.4584 212.878 25.3636C215.61 24.8445 219.237 24.6547 221.829 23.6023C222.732 23.1817 221.844 23.5659 222.442 23.2539C223.03 22.9232 223.52 22.4551 223.498 21.9102C223.508 21.6288 223.008 21.2907 222.55 21.0927C222.059 20.8757 221.572 20.73 221.001 20.5897C220.843 20.5527 221.222 20.686 220.675 20.5556C216.379 19.6699 212.494 19.5408 207.889 19.435C205.665 19.3906 201.658 19.4527 199.35 19.5192C195.352 19.6153 190.396 19.8174 186.987 20.0618C184.78 20.2198 185.244 20.2319 184.296 20.3276C182.63 20.4961 179.76 20.651 178.919 20.6986C178.843 20.7027 178.784 20.7057 178.747 20.7076C178.744 20.7077 178.813 20.7014 178.919 20.6917C179.373 20.6496 180.464 20.5501 179.632 20.6017C179.292 20.6051 179.059 20.6379 178.917 20.6661C178.81 20.6877 178.756 20.7067 178.747 20.7076C178.472 20.7189 174.615 21.0469 173.871 21.1246C173.457 21.1664 173.693 21.1843 173.477 21.2054C168.363 21.7061 163.231 22.2207 158.045 22.7359C157.953 22.7446 158.087 22.6869 157.871 22.7078C154.867 22.9984 152.95 23.2552 150.477 23.5522C148.007 23.8494 146.041 24.0546 144.569 24.1419C142.7 24.3577 140.025 24.6251 138.477 24.7815C136.939 24.9366 136.728 25.047 136.593 25.064C132.37 25.605 129.927 25.8431 125.537 26.3679C123.448 26.617 119.334 27.1419 117.072 27.4452C115.304 27.6814 114.203 27.8063 112.585 28.0375C112.582 28.0379 112.58 28.0382 112.577 28.0386C112.363 28.0701 112.592 28.0765 112.523 28.0872C110.683 28.3832 111.566 28.1701 111.187 28.2052C109.792 28.3374 108.959 28.4189 106.615 28.7888C106.098 28.8704 104.521 29.2393 103.544 29.3981C102.268 29.6059 102.744 29.4824 101.409 29.7068C101.295 29.7264 101.325 29.7501 100.507 29.8829C100.081 29.9526 99.6449 30.0246 99.2316 30.0962C99.197 30.1023 99.1702 30.107 99.152 30.1103C99.1448 30.1116 99.1522 30.1102 99.132 30.1139C99.1325 30.1133 99.1023 30.1212 99.1571 30.1075C99.165 30.105 99.1727 30.1037 99.2032 30.0914C99.2206 30.0827 99.2392 30.0806 99.3038 30.0315C99.3347 30.0022 99.3937 29.9674 99.4412 29.8254C99.4999 29.6795 99.3976 29.4458 99.3112 29.3931C99.1454 29.2757 99.1186 29.3092 99.0873 29.2975C99.0601 29.2948 99.0483 29.2952 99.0384 29.2952C99.0202 29.2956 99.0135 29.2964 99.0078 29.2968C98.9885 29.2987 98.9887 29.299 98.9857 29.2994C98.9817 29.3 98.9836 29.2997 98.9832 29.2997C98.9844 29.2996 98.9951 29.2978 99.0103 29.2952C99.0792 29.2834 99.1039 29.2791 99.175 29.2665C99.2689 29.25 99.3991 29.2266 99.4948 29.2094C99.7069 29.1711 99.9146 29.1331 100.146 29.0904C101.012 28.9304 101.887 28.7639 102.781 28.5904C104.521 28.2529 106.337 27.8878 108.094 27.5241C108.543 27.431 109.013 27.3331 109.483 27.2343C110.011 27.1233 109.319 27.2206 110.09 27.0575C113.744 26.2839 117.745 25.4206 121.302 24.6647C122.176 24.4793 121.636 24.6309 121.828 24.5989C123.014 24.3993 124.644 23.9526 124.914 23.8913C131.405 22.4151 136.398 21.3723 143.005 19.821C143.367 19.7363 146.114 19.0102 147.37 18.7988C147.457 18.784 148.694 18.5796 149.765 18.2729C149.831 18.254 149.064 18.3909 150.388 18.0858C151.728 17.7768 153.841 17.2514 155.688 16.8581C156.262 16.736 157.651 16.4876 159.359 16.0084C159.462 15.9799 162.107 15.1874 163.061 15.0525C163.22 15.0293 163.091 15.1732 165.128 14.6071C165.516 14.4986 164.808 14.6532 165.823 14.3817C165.871 14.3688 165.919 14.3559 165.968 14.3429C167.533 13.9269 169.547 13.433 171.417 12.8752C171.749 12.7766 173.165 12.3133 174.318 12.0297C174.5 11.985 174.174 12.1184 174.773 11.9451C176.112 11.5526 177.489 11.1233 178.823 10.6033C179.98 10.1063 182.09 9.34353 180.684 8.75616C180.554 8.67019 180.41 8.58696 180.265 8.51116C179.346 8.08146 179.846 8.22275 178.821 7.86093C177.774 7.49963 175.573 7.07998 174.403 6.95122C173.237 6.81937 174.499 7.07158 172.759 6.86382C167.642 6.30462 162.528 6.08336 157.378 5.9146C154.908 5.83823 152.426 5.78516 149.938 5.75498C148.803 5.74221 149.732 5.78277 148.072 5.76966C141.911 5.70323 131.269 5.88531 125.928 6.00616C121.641 6.09325 127.031 5.86976 123.758 5.95884C122.176 6.00349 120.477 6.17897 120.093 6.1987C116.373 6.3909 113.785 6.47875 110.44 6.69378C109.749 6.73888 110.429 6.74007 109.842 6.7783C107.832 6.90984 105.722 7.03503 103.804 7.18248C102.944 7.24905 103.105 7.26955 102.314 7.32862C100.42 7.47166 98.7447 7.60003 96.8996 7.73799C96.7313 7.75066 97.861 7.60619 96.4608 7.73332C94.5614 7.9071 92.2727 8.11383 90.0556 8.37111C89.6283 8.42059 89.2044 8.47173 88.7869 8.52448C88.0179 8.6227 87.9959 8.69798 86.3321 8.84611C85.9818 8.87856 86.4225 8.73116 84.4953 9.04996C84.1744 9.10061 80.9484 9.62456 79.3532 9.7826C78.9391 9.82212 77.8446 9.90203 76.9325 10.0462C76.8067 10.0664 77.3178 10.0325 76.5481 10.1484C73.8525 10.5548 71.0266 10.9898 68.2626 11.4581C67.5232 11.5837 68.6295 11.4426 67.5317 11.6285C64.519 12.1383 60.7464 12.7955 57.7862 13.3385C56.7048 13.5366 57.4451 13.3626 57.3653 13.3737C56.0787 13.5541 55.3563 13.7776 54.9245 13.8658C52.3234 14.399 50.3159 14.7649 47.8994 15.2794C47.2501 15.418 47.7183 15.3601 47.5907 15.3903C46.2307 15.7101 47.2201 15.4316 46.3514 15.6047C46.2845 15.6178 46.2127 15.632 46.1268 15.6483C46.0794 15.6571 46.0888 15.6558 46.0032 15.6704C45.98 15.6732 45.9794 15.6768 45.9104 15.6789C45.8867 15.6767 45.8687 15.686 45.7663 15.6554C45.7192 15.6346 45.6036 15.6081 45.51 15.4225C45.4159 15.2243 45.5219 15.0222 45.5559 14.9859C45.7243 14.8054 45.7163 14.8633 45.7442 14.8394C45.8062 14.8157 45.8168 14.8154 45.86 14.803C48.1686 14.2417 50.6947 13.6834 53.026 13.1706C53.9145 12.9767 52.8992 13.1493 53.7079 12.9739C58.5162 11.9326 63.5299 10.9467 68.2541 10.1151C69.1515 9.95752 68.5939 10.094 68.781 10.0683C70.0581 9.89362 71.9214 9.49203 72.3556 9.41087C74.306 9.04381 75.0752 8.94821 76.8118 8.66209C81.8871 7.8285 87.6961 7.00548 93.2857 6.40756C97.0279 6.00558 100.662 5.69126 103.902 5.45382C114.433 4.70729 122.637 4.47076 132.695 4.50226C133.338 4.50653 132.689 4.455 133.246 4.45851C137.364 4.49285 141.454 4.59144 145.529 4.88621C145.632 4.89397 145.722 4.899 145.797 4.90161C145.869 4.9046 145.982 4.9044 146.021 4.90057C146.041 4.89916 146.051 4.89706 146.046 4.89802C146.044 4.89863 146.037 4.9 146.023 4.90459C146.016 4.90692 146.007 4.9101 145.996 4.91492C145.967 4.92977 145.908 4.95215 145.836 5.04583C145.76 5.13487 145.732 5.33414 145.78 5.4398C145.829 5.55826 145.852 5.56129 145.865 5.58015C145.895 5.61204 145.914 5.62402 145.925 5.6315C145.948 5.64566 145.935 5.63725 145.927 5.63428C145.899 5.62144 145.783 5.5853 145.723 5.56977C145.379 5.47976 145.047 5.41945 144.661 5.3545C143.939 5.23579 143.226 5.1471 142.467 5.06629C141.005 4.91224 139.513 4.80992 138.013 4.73944C137.44 4.71366 138.272 4.79539 137.339 4.7571C135.422 4.6799 132.987 4.64241 131.053 4.64265C130.09 4.64313 131.382 4.5948 130.413 4.5972C128.192 4.60512 125.827 4.67577 123.548 4.7951C122.575 4.84713 124.049 4.81723 122.778 4.88312C116.509 5.22108 110.375 5.83031 104.13 6.62474C101.838 6.91714 99.5257 7.23088 97.1873 7.55891C96.6029 7.64107 96.0758 7.62584 94.8141 7.83434C94.7244 7.87364 94.734 7.90245 94.6972 7.93551C82.317 9.83788 70.0875 11.9886 57.7308 14.2917C57.2083 14.3894 58.1198 14.268 57.1089 14.4574C51.2802 15.5508 45.6033 16.6582 39.6394 17.7842C39.0447 17.8968 39.328 17.7533 37.5966 18.1093C37.2791 18.1742 34.6642 18.706 33.9879 18.8607C33.8974 18.8817 34.3788 18.8259 33.542 18.9946C30.8169 19.5438 28.0203 20.1085 25.2433 20.6717C22.9985 21.127 20.7732 21.5797 18.5883 22.0283C17.7832 22.1938 18.6284 21.9723 18.0588 22.0891C14.0692 22.9101 9.73714 23.8727 5.95458 24.7612C3.43087 25.3702 4.34928 25.0637 2.98907 25.3598C2.79508 25.3973 1.2579 25.86 1.166 25.8519C0.92817 25.8165 1.64245 25.4685 1.29939 25.4589C1.22252 25.4509 -0.821932 26.1591 0.374954 25.6992C0.456975 25.6634 1.94926 25.1658 2.32427 25.043C2.57602 24.9556 2.09741 25.0494 2.62432 24.8791C3.15084 24.7107 3.74837 24.5834 4.62231 24.3372C5.50819 24.0916 5.09047 24.1401 6.87289 23.7035ZM131.53 25.4955C130.104 25.6227 129.908 25.7966 131.445 25.579C131.519 25.5683 131.603 25.4889 131.53 25.4955ZM278.06 17.8933C276.201 18.1782 274.959 18.5091 276.269 18.315C277.58 18.1201 278.626 17.8063 278.06 17.8933ZM297.16 14.0977C294.992 14.4835 294.698 14.7589 296.997 14.2503C297.131 14.2207 297.286 14.0751 297.16 14.0977ZM9.21478 23.7924C9.18965 23.7955 8.06231 24.0541 8.03561 24.063C7.44465 24.2485 9.70522 23.7293 9.21478 23.7924ZM316.057 10.0596C315.382 10.1797 313.461 10.6326 314.298 10.4864C314.971 10.3696 316.897 9.91081 316.057 10.0596ZM140.247 20.8484C140.269 20.8456 141.082 20.6623 141.063 20.6537C140.998 20.6269 139.872 20.8955 140.247 20.8484ZM347.631 1.21056C343.158 3.1155 340.295 3.80411 345.254 2.02605C346.147 1.68499 343.356 2.81364 344.492 2.39702C346.589 1.6298 347.888 0.923172 349.971 0.0144755C350.349 -0.148022 347.888 1.10898 347.623 1.21424C347.625 1.21301 347.628 1.21179 347.631 1.21056ZM130.69 25.4138C130.659 25.4153 129.512 25.5496 129.486 25.5547C128.871 25.6756 131.181 25.4051 130.69 25.4138ZM176.918 6.97602C176.863 6.93715 174.21 6.49818 174.131 6.50829C172.744 6.35894 178.079 7.23986 176.918 6.97602ZM208.018 19.0257C209.281 18.997 210.789 19.0383 211.782 19.1444C210.541 19.0854 209.278 19.049 208.018 19.0257Z" fill="var(--stroke-0, white)"/>
</svg>
