<svg preserveAspectRatio="none" width="100%" height="100%" overflow="visible" style="display: block;" viewBox="0 0 92 1" fill="none" xmlns="http://www.w3.org/2000/svg">
<path id="Line 19" d="M0.876305 0.0050849C1.39185 -0.00794148 2.06764 0.00598686 2.58123 0.0251044C2.74219 0.0310336 2.66069 0.0575377 2.7718 0.062824C2.98912 0.0731291 3.19157 0.0601305 3.40632 0.0724065C3.47749 0.0766045 3.3889 0.118587 3.46353 0.122028C3.87247 0.140582 4.25935 0.129888 4.67362 0.138813C6.71415 0.182843 8.71995 0.198602 10.7855 0.217731C11.4665 0.224002 12.2944 0.262103 12.9979 0.245441C13.08 0.243458 13.031 0.206608 13.0466 0.203571C13.2917 0.157075 13.2102 0.231467 13.3702 0.241351C14.0053 0.280377 14.7114 0.283771 15.3226 0.269549C15.5826 0.263391 15.3219 0.190198 15.5837 0.23128C15.6019 0.234056 15.5359 0.273188 15.6072 0.277362C15.7689 0.286749 16.0757 0.279755 16.201 0.282855C16.4425 0.289028 16.4825 0.288635 16.7109 0.289081C17.0232 0.290031 17.3947 0.309483 17.7298 0.300616C17.8013 0.298607 17.7066 0.258493 17.8207 0.251666C17.9348 0.244851 18.2368 0.248252 18.3387 0.257709C18.4405 0.26717 18.3971 0.298699 18.4152 0.305926C18.5634 0.366925 18.9128 0.282442 18.9577 0.280353C19.7773 0.244753 20.4801 0.29288 21.2495 0.292743C21.8335 0.292536 22.458 0.276648 23.0137 0.278827C23.6758 0.281578 24.2369 0.303315 24.8801 0.299579C24.948 0.29923 24.8684 0.252065 24.9513 0.251544C25.8321 0.246056 26.7068 0.251197 27.5838 0.283038C27.6718 0.286273 27.5584 0.327684 27.6463 0.333392C28.1843 0.367424 29.0355 0.449179 29.3551 0.268878C29.7195 0.275918 30.1619 0.283193 30.488 0.319537C30.6982 0.342929 30.494 0.388042 30.7522 0.368792C30.8105 0.364503 30.7347 0.324995 30.8221 0.321551C31.1898 0.307088 31.5915 0.31993 31.9553 0.299518C32.0293 0.295273 32.0091 0.259872 32.03 0.253497C32.2062 0.201871 32.4995 0.287213 32.5635 0.293414C33.0504 0.339658 33.406 0.32146 33.8596 0.322589C33.9648 0.322871 33.8404 0.27532 33.9417 0.273883C34.467 0.267068 35.0112 0.271155 35.5255 0.292254C35.6399 0.297062 35.5347 0.337567 35.5894 0.341937C35.8305 0.360712 35.8839 0.284209 36.1151 0.300738C36.1639 0.304125 36.1364 0.3388 36.1453 0.342608C36.2845 0.402389 36.4054 0.317684 36.4412 0.315814C36.8939 0.290261 37.1833 0.378689 37.6207 0.366168C37.673 0.36458 37.555 0.320706 37.7021 0.318927C38.6821 0.306815 39.7184 0.318867 40.6884 0.353961C40.8392 0.359358 40.7316 0.392317 40.741 0.39638C40.8957 0.459864 40.9958 0.374803 41.045 0.3716C41.4329 0.348541 41.7953 0.419874 42.0589 0.31856C43.7018 0.35372 45.3372 0.296827 46.9666 0.387591C46.9873 0.388642 46.9502 0.430535 46.9915 0.432452C47.4892 0.455974 47.3936 0.390865 47.7229 0.311236C47.8059 0.291241 48.0582 0.38738 48.0805 0.394427C48.1619 0.420396 48.0775 0.48272 48.1047 0.487749C48.3301 0.527241 48.2934 0.321129 48.5975 0.321063C48.607 0.321407 48.567 0.359344 48.5926 0.363116C48.6718 0.374958 48.7505 0.359883 48.828 0.372943C49.0056 0.403161 49.0689 0.503313 49.3401 0.445025C49.3744 0.43746 49.322 0.320545 49.5935 0.326068C49.7017 0.328369 50.1808 0.326365 50.315 0.333941C50.4491 0.341509 50.3571 0.379185 50.3666 0.380816C50.728 0.430636 50.5909 0.451284 50.772 0.525042C50.953 0.598522 50.9028 0.423265 50.9766 0.403704C51.0505 0.384199 51.3154 0.425303 51.3805 0.439593C51.4456 0.453888 51.3644 0.477829 51.4223 0.485918C51.8059 0.538773 51.5907 0.398928 51.7171 0.371112C52.0151 0.305249 52.2472 0.435219 52.5201 0.447955C52.5939 0.451394 52.5337 0.421792 52.5994 0.419024C52.8597 0.408452 53.0163 0.449006 53.3125 0.411822C53.361 0.405762 53.6004 0.327621 53.7554 0.384967C53.7774 0.393236 53.715 0.425624 53.826 0.432879C53.9917 0.443767 54.2904 0.450846 54.4686 0.44002C54.6001 0.43201 54.4493 0.378642 54.6149 0.39522C54.6885 0.402623 54.5521 0.433844 54.6904 0.445147C54.8279 0.456447 55.1795 0.455075 55.3133 0.453997C55.4469 0.452895 55.3738 0.412413 55.3846 0.409686C55.4499 0.394063 55.7062 0.374542 55.7288 0.374591C56.8713 0.369649 57.9249 0.437886 59.0373 0.415301C59.1246 0.413587 59.0664 0.370898 59.0797 0.370196C59.3786 0.35231 59.143 0.465811 59.3517 0.503802C59.3215 0.417173 59.4448 0.432858 59.6553 0.423358C59.7567 0.418709 59.7015 0.385165 59.7107 0.381732C59.8612 0.330783 59.9659 0.39659 59.9929 0.410052C60.0925 0.459572 60.201 0.401061 60.2688 0.434161C60.3365 0.467013 60.1806 0.515717 60.3825 0.515093C60.4391 0.484083 60.2892 0.403044 60.4425 0.38991C61.0208 0.340231 62.1004 0.403813 62.5654 0.410418C63.0295 0.417017 63.1794 0.411296 63.4498 0.422503C63.9383 0.442767 63.7593 0.382641 64.0626 0.35512C64.3668 0.327603 64.2189 0.475539 64.2626 0.507342C64.3055 0.53913 64.3524 0.506407 64.4058 0.523882C64.459 0.541353 64.3438 0.562976 64.469 0.569536C64.5942 0.57609 64.9366 0.519537 64.981 0.486285C65.0748 0.415836 64.9206 0.341897 65.2519 0.367877C65.271 0.369419 65.2091 0.408318 65.2821 0.412249C65.8618 0.442195 66.4639 0.444052 67.0429 0.470538C67.1225 0.47424 67.0513 0.517514 67.0976 0.520159C67.5801 0.547838 67.4077 0.474872 67.6721 0.393817C67.6127 0.501684 67.759 0.567679 68.1252 0.568316C68.3453 0.568736 68.3074 0.521625 68.4498 0.488421C68.4925 0.478411 68.6483 0.51076 68.6765 0.488604C68.7696 0.41618 68.6229 0.335106 69.0005 0.367388C69.017 0.368923 68.9643 0.408567 69.0215 0.410967C69.3915 0.426682 69.4358 0.350928 69.8357 0.341754C70.1492 0.334555 70.7068 0.380749 71.0637 0.388262C71.0562 0.509537 71.3934 0.481767 71.5301 0.39815C71.7618 0.401573 72.012 0.396846 72.2359 0.408404C72.313 0.412344 72.2623 0.447457 72.272 0.45125C72.4211 0.510765 72.5218 0.429415 72.5718 0.426226C73.1137 0.395224 73.5552 0.456881 74.0724 0.396624C74.0908 0.394454 74.1205 0.310213 74.2588 0.371722C74.2677 0.375962 74.0969 0.41429 74.3402 0.417254C74.5835 0.420225 75.0423 0.465384 75.3801 0.426348C75.4619 0.416951 75.6686 0.348564 75.8346 0.401995C75.8567 0.409251 75.8325 0.433411 75.8644 0.446856C75.9676 0.489695 76.0239 0.404549 76.1452 0.476885C76.2664 0.549219 76.5187 0.603391 76.8594 0.553484C76.8702 0.552033 76.9509 0.484546 77.058 0.485613C77.229 0.487375 77.4718 0.501434 77.6504 0.500994C77.7359 0.500759 77.6812 0.458853 77.696 0.458086C78.2709 0.434604 78.6801 0.471963 79.296 0.488177C79.4089 0.491232 79.7334 0.434086 79.9519 0.479266C80.192 0.528723 79.9453 0.734456 80.497 0.685442C80.7195 0.665837 81.0012 0.404826 81.401 0.540056C82.1765 0.506547 82.8937 0.575757 83.6713 0.52791C83.7063 0.525791 83.8169 0.452945 83.8991 0.453936C84.0212 0.455549 84.0882 0.489596 84.1753 0.491839C84.5405 0.502094 84.8747 0.472965 85.2268 0.477496C85.3604 0.479142 85.3137 0.514346 85.4731 0.516314C85.6325 0.518249 85.7387 0.471891 85.9547 0.49428C86.1177 0.511346 86.2808 0.606099 86.4972 0.617144C86.5055 0.52368 86.6541 0.525605 86.9184 0.500933C86.9692 0.496146 86.9147 0.463616 86.9387 0.459673C87.0365 0.442907 87.127 0.469868 87.2198 0.451617C87.2424 0.447233 87.2435 0.415315 87.2619 0.40993C87.419 0.362924 87.6776 0.434721 87.722 0.447222C87.8923 0.494698 87.9719 0.453185 88.1025 0.47188C88.2329 0.490574 88.0379 0.513942 88.1902 0.525286C88.5059 0.548749 88.9116 0.543594 89.2322 0.545061C89.3601 0.545449 89.2728 0.502843 89.2912 0.50191C89.5557 0.491103 89.8232 0.536424 89.9699 0.451556C90.1533 0.670994 90.1294 0.430271 90.5076 0.4742C90.5373 0.477753 90.5753 0.581523 90.4609 0.596758C90.3465 0.611978 90.1731 0.579541 90.0145 0.603289C89.9769 0.608862 89.7617 0.706101 89.7323 0.711992C89.5023 0.758027 89.4697 0.602956 89.4575 0.594439C89.3195 0.502523 89.0565 0.60728 88.9872 0.614519C88.6704 0.647687 88.4012 0.625878 88.1362 0.649553C87.9629 0.664854 87.9459 0.766432 87.8098 0.763322C87.3573 0.753046 87.1994 0.611344 86.7731 0.734209C86.6817 0.760413 86.7725 0.871434 86.4449 0.784135C86.4244 0.778632 86.1811 0.698769 86.0406 0.749284C86.023 0.755653 86.0235 0.788009 86.0003 0.790727C85.8443 0.808308 85.7403 0.782532 85.5704 0.794877C85.4004 0.807223 85.1962 0.825627 85.0022 0.814653C84.8852 0.80809 84.7353 0.747808 84.6793 0.733049C84.5213 0.690533 84.3518 0.760241 84.2539 0.708757C84.1552 0.657014 84.3482 0.578433 84.0893 0.545C84.0797 0.629062 84.0577 0.715343 84.0423 0.799882C83.475 0.796922 82.9168 0.76974 82.3476 0.773454C82.277 0.773999 82.3492 0.819191 82.2735 0.820939C81.9543 0.828119 81.6755 0.795903 81.3445 0.808732C81.0883 0.818836 80.8074 0.866685 80.5394 0.878739C80.3758 0.782549 79.9783 0.815203 79.6894 0.806413C79.5883 0.803376 79.595 0.777685 79.5231 0.769304C79.2517 0.738306 79.3789 0.823309 79.3044 0.836686C78.9852 0.893778 78.9579 0.701379 78.5815 0.706132C78.5615 0.706319 78.3178 0.808876 78.2842 0.815263C78.0709 0.856909 78.2489 0.779567 78.1154 0.771989C77.8717 0.758142 77.7023 0.733649 77.4163 0.763688C77.3329 0.772586 77.1329 0.836509 76.971 0.787065C76.9497 0.78059 76.9614 0.746692 76.9443 0.744707C76.6339 0.711615 76.6258 0.818129 76.4484 0.854203C76.271 0.890269 75.997 0.816741 75.9413 0.795549C75.7954 0.740727 76.053 0.77212 76.0609 0.76674C76.1537 0.702717 75.9539 0.71374 75.8012 0.70833C75.7791 0.603891 75.5656 0.61016 75.643 0.703142C75.6517 0.713298 75.7706 0.703558 75.8012 0.70833C75.6672 0.810799 75.4326 0.823922 75.1734 0.728166C75.0521 0.683287 75.1667 0.63096 74.7982 0.650102C74.6309 0.658744 74.6956 0.730655 74.548 0.750261C74.2108 0.794993 73.7726 0.727912 73.4249 0.738481C73.2987 0.742318 73.4217 0.781682 73.3354 0.785661C73.1066 0.796343 72.9048 0.766808 72.6749 0.781938C72.6541 0.783359 72.705 0.824565 72.6335 0.82509C72.0917 0.829875 71.6199 0.803482 71.0542 0.802751C70.7809 0.802416 70.2922 0.825142 70.0091 0.820573C69.5184 0.812897 68.9147 0.752977 68.4954 0.767534C68.222 0.776851 68.282 0.818066 68.1648 0.846147C67.9388 0.900579 67.5386 0.803078 67.4847 0.78798C67.4831 0.787481 67.7183 0.777765 67.5928 0.756608C67.5198 0.712525 67.4874 0.787789 67.4847 0.78798C67.4493 0.778227 66.9793 0.768871 66.886 0.77675C66.8353 0.781055 66.8636 0.820104 66.8372 0.821611C66.2087 0.856555 65.5791 0.86648 64.9417 0.848222C64.9305 0.847433 64.9474 0.803755 64.921 0.802446C64.552 0.783025 64.3157 0.836457 64.0113 0.86818C63.707 0.899889 63.4657 0.889269 63.2856 0.814286C63.0559 0.823727 62.7265 0.790578 62.537 0.770463C62.3474 0.750349 62.321 0.835372 62.3043 0.837052C61.7841 0.89085 61.4833 0.842185 60.9436 0.834611C60.687 0.830865 60.1781 0.843197 59.9003 0.852494C59.6807 0.859984 59.5484 0.840059 59.3461 0.8528C59.3187 0.854501 59.3464 0.892357 59.338 0.893815C59.1123 0.939108 59.2208 0.846562 59.1741 0.830033C59.0051 0.769927 58.9007 0.737915 58.6116 0.766191C58.5449 0.772666 58.3506 0.90592 58.229 0.913712C58.071 0.9236 58.1306 0.875837 57.9651 0.887406C57.9509 0.888353 57.9539 0.917819 57.8517 0.91652C57.3776 0.910877 56.8606 0.893731 56.3679 0.896684C56.3006 0.896974 56.3869 0.943712 56.2897 0.944901C55.8334 0.950441 55.3332 0.948712 54.8887 0.926835C54.7792 0.921303 54.8478 0.888578 54.8241 0.878861C54.6783 0.820069 54.4714 0.905493 54.4373 0.907121C53.6234 0.948171 53.0005 0.870864 52.1709 0.90767C52.1257 0.909831 51.7781 1.00141 51.623 0.922868C51.6124 0.917642 51.459 0.837289 51.3233 0.892228C51.3149 0.895665 51.4105 0.937033 51.2437 0.932816C51.0768 0.928609 50.8083 0.956234 50.579 0.910783C50.5063 0.896465 50.3347 0.816309 50.1182 0.880204C50.104 0.884665 49.7697 1.02914 49.6503 0.929459C49.631 0.913051 49.6512 0.807566 49.3927 0.86165C49.3433 0.872135 49.433 0.895663 49.3029 0.910355C49.1035 0.932999 48.8394 0.904747 48.5943 0.951737C48.5516 0.960056 48.3696 1.03165 48.2237 0.977311C48.2009 0.9688 48.2443 0.933584 48.1672 0.929643C47.8007 0.910738 47.417 0.934294 47.0449 0.909928C46.9131 0.901367 46.9804 0.844435 46.8431 0.829179C46.7056 0.813928 46.4288 0.799257 46.285 0.825273C46.1412 0.8513 46.2983 0.942035 46.0829 0.949296C45.1463 0.98083 44.2185 0.927602 43.2833 0.919816C43.1446 0.918653 43.2596 0.951121 43.0552 0.951737C42.3016 0.954153 41.0005 0.984595 40.3466 0.915604C39.8226 0.860347 40.482 0.818279 40.0816 0.795793C39.8884 0.785066 39.6794 0.890555 39.6327 0.893876C39.1771 0.927611 38.8605 0.880882 38.4504 0.895219C38.3657 0.898194 38.4487 0.940949 38.3767 0.943009C38.1305 0.950424 37.8717 0.93134 37.6365 0.93483C37.531 0.936495 37.5504 0.96915 37.4533 0.96663C37.221 0.960975 37.0155 0.947249 36.789 0.916642C36.7683 0.913853 36.9075 0.873231 36.7356 0.87172C36.4574 0.869391 36.112 0.839197 35.7919 0.870378C35.6969 0.879757 35.6932 0.95439 35.489 0.902848C35.4462 0.892083 35.5008 0.802466 35.263 0.879899C35.223 0.892767 34.8235 0.99721 34.6274 0.929887C34.5757 0.912168 34.4437 0.838833 34.3295 0.850358C34.314 0.852197 34.376 0.892285 34.2814 0.896195C33.9478 0.909279 33.5982 0.905002 33.2556 0.917558C33.1641 0.92099 33.3004 0.962473 33.164 0.966263C32.7889 0.976749 32.3206 0.966186 31.9539 0.953202C31.8187 0.948336 31.9121 0.913973 31.9023 0.910233C31.7441 0.849408 31.6505 0.931508 31.598 0.936295C31.2714 0.96496 31.0227 0.926395 30.7217 0.936601C30.6386 0.939313 30.6975 0.978459 30.681 0.981949C30.5095 1.01605 30.6372 0.945754 30.5287 0.938004C30.2245 0.916062 29.8855 0.919208 29.5779 0.92421C29.465 0.926105 29.5919 0.971496 29.4905 0.972672C28.8905 0.980494 28.2667 0.97615 27.681 0.951127C27.5708 0.946333 27.6401 0.911381 27.6172 0.903397C27.4588 0.847545 27.2266 0.923728 27.1732 0.930985C26.9303 0.964121 26.836 0.933212 26.6215 0.938981C25.5737 0.967705 24.28 0.947234 23.291 0.934586C22.0021 0.918309 21.002 0.885059 19.773 0.893693C19.6949 0.894198 19.7737 0.940695 19.7063 0.941727C18.837 0.952936 17.9811 0.934767 17.11 0.948197C17.0385 0.949217 17.1415 0.993296 17.0268 0.996415C16.7915 1.00312 16.4934 1.00072 16.2554 0.986649C16.1394 0.979868 16.295 0.942043 16.1782 0.93599C15.9062 0.921809 15.6146 0.91867 15.3352 0.925736C15.2163 0.92884 15.3957 0.973922 15.2412 0.974442C14.1884 0.978915 13.1545 0.986679 12.0907 0.9283C12.0177 0.92429 11.9537 0.832665 11.7987 0.850236C11.787 0.875664 11.7876 0.905576 11.7825 0.932755C10.25 0.947396 8.7331 0.915633 7.19626 0.910722C7.13147 0.910525 7.24345 0.959073 7.118 0.958939C6.39194 0.958222 5.68688 0.971671 4.9442 0.923417C4.87051 0.918698 4.90832 0.833291 4.69116 0.846208C4.65286 0.848565 4.3258 0.859955 4.24124 0.878495C4.22976 0.881292 4.28943 0.921156 4.18404 0.922318C3.57158 0.928372 2.92976 0.919271 2.31837 0.894914C2.2197 0.890906 2.32478 0.848454 2.2545 0.845231C1.75596 0.822696 1.2137 0.854967 0.737328 0.816423C0.41846 0.79047 0.536514 0.717087 0.367072 0.644853C0.343107 0.634662 0.145654 0.633047 0.135443 0.591021C0.109229 0.48534 0.204869 0.369621 0.165625 0.256976C0.157334 0.232713 -0.107105 0.258846 0.04946 0.200214C0.0603978 0.19629 0.252118 0.17683 0.299338 0.15694C0.332215 0.143188 0.27297 0.100447 0.340049 0.0828434C0.407122 0.0652564 0.480827 0.101084 0.592033 0.080402C0.70319 0.0594636 0.654314 0.0108407 0.876305 0.0050849ZM61.6835 0.680559C61.5079 0.639728 61.482 0.789275 61.6719 0.753496C61.6811 0.751589 61.6925 0.682562 61.6835 0.680559ZM82.92 0.656938C82.6905 0.590977 82.5335 0.687966 82.6953 0.738908C82.8572 0.789796 82.9899 0.676934 82.92 0.656938ZM85.2994 0.608782C85.0312 0.556775 84.989 0.768839 85.2763 0.725969C85.293 0.723546 85.3151 0.611802 85.2994 0.608782ZM1.15286 0.624285C1.15043 0.622299 1.0085 0.620363 1.0051 0.622331C0.929526 0.669827 1.21334 0.673665 1.15286 0.624285ZM87.6606 0.556353C87.5769 0.527666 87.3359 0.560781 87.4399 0.596453C87.5236 0.625149 87.7649 0.592037 87.6606 0.556353ZM52.5274 0.520952C52.5247 0.518724 52.4229 0.516717 52.425 0.529314C52.4319 0.569886 52.5735 0.558436 52.5274 0.520952ZM91.6738 0.553911C91.0809 0.545929 90.7214 0.370754 91.367 0.390521C91.484 0.394097 91.115 0.446383 91.2639 0.462176C91.5362 0.490948 91.717 0.38096 91.9949 0.439898C92.0452 0.450686 91.7076 0.554756 91.6727 0.554155C91.6731 0.554074 91.6734 0.553993 91.6738 0.553911ZM61.5824 0.500933C61.5789 0.498955 61.438 0.49708 61.4346 0.499041C61.3583 0.546518 61.6421 0.550323 61.5824 0.500933ZM46.5897 0.428484C46.5819 0.424271 46.255 0.420329 46.2443 0.424212C46.0738 0.50185 46.7347 0.510048 46.5897 0.428484ZM71.0693 0.391497C71.2231 0.343735 71.4069 0.338112 71.5294 0.398089C71.3767 0.394905 71.2229 0.394436 71.0693 0.391497Z" fill="var(--stroke-0, white)"/>
</svg>
