<svg preserveAspectRatio="none" width="100%" height="100%" overflow="visible" style="display: block;" viewBox="0 0 42 42" fill="none" xmlns="http://www.w3.org/2000/svg">
<path id="Vector" d="M40.5649 33.6232L33.4701 26.5182L28.0129 24.2603C29.83 21.6726 30.8034 18.5855 30.7999 15.422C30.7999 6.91827 23.8916 0 15.4 0C6.90837 0 0 6.91827 0 15.422C0 23.9258 6.90837 30.844 15.4 30.844C18.5864 30.8477 21.6946 29.8559 24.2916 28.007L26.5404 33.4573L33.6349 40.5626C34.0899 41.0183 34.6301 41.3798 35.2246 41.6264C35.8191 41.873 36.4563 42 37.0998 42C37.7432 42 38.3804 41.8731 38.975 41.6265C39.5695 41.3799 40.1097 41.0185 40.5647 40.5629C41.0197 40.1072 41.3807 39.5663 41.6269 38.9709C41.8732 38.3756 42 37.7375 42 37.0931C42 36.4486 41.8733 35.8105 41.6271 35.2152C41.3808 34.6198 41.0199 34.0788 40.5649 33.6232ZM2.79999 15.422C2.79999 8.46459 8.45248 2.804 15.4 2.804C22.3474 2.804 27.9999 8.46459 27.9999 15.422C27.9999 22.3795 22.3474 28.04 15.4 28.04C8.45248 28.04 2.79999 22.3795 2.79999 15.422ZM38.5849 38.5799C38.1907 38.9738 37.6567 39.1949 37.0999 39.1949C36.5431 39.1949 36.0091 38.9738 35.615 38.5799L28.9149 31.8703L26.8242 26.8025L31.8849 28.8962L38.585 35.6059C38.9782 36.0006 39.1991 36.5354 39.199 37.0929C39.199 37.6505 38.9781 38.1853 38.5849 38.5799Z" fill="var(--fill-0, white)"/>
</svg>
