<svg preserveAspectRatio="none" width="100%" height="100%" overflow="visible" style="display: block;" viewBox="0 0 254 2" fill="none" xmlns="http://www.w3.org/2000/svg">
<path id="Line 58" d="M2.41711 0.0101698C3.83913 -0.015883 5.70316 0.0119737 7.1198 0.0502087C7.56378 0.0620673 7.33896 0.115075 7.64544 0.125648C8.24486 0.146258 8.80329 0.120261 9.39564 0.144813C9.59195 0.153209 9.34759 0.237174 9.55343 0.244056C10.6814 0.281163 11.7485 0.259777 12.8912 0.277625C18.5196 0.365685 24.0522 0.397205 29.7495 0.435461C31.628 0.448004 33.9116 0.524206 35.8519 0.490881C36.0784 0.486916 35.9434 0.413216 35.9865 0.407141C36.6624 0.31415 36.4377 0.462935 36.879 0.482702C38.6306 0.560754 40.5785 0.567542 42.2642 0.539099C42.9813 0.526782 42.2623 0.380395 42.9844 0.462561C43.0345 0.468112 42.8526 0.546377 43.0492 0.554724C43.4953 0.573498 44.3415 0.559509 44.6872 0.56571C45.3533 0.578057 45.4636 0.577269 46.0937 0.578161C46.9551 0.580061 47.9797 0.618966 48.9039 0.601232C49.1012 0.597215 48.84 0.516985 49.1546 0.503332C49.4695 0.489702 50.3026 0.496505 50.5834 0.515417C50.8644 0.534339 50.7447 0.597399 50.7945 0.611852C51.2035 0.733849 52.1671 0.564884 52.291 0.560705C54.5517 0.489506 56.4903 0.58576 58.6123 0.585485C60.2232 0.585073 61.9458 0.553296 63.4786 0.557653C65.3048 0.563155 66.8525 0.606631 68.6266 0.599157C68.8138 0.598461 68.5944 0.504129 68.8231 0.503088C71.2526 0.492111 73.6652 0.502394 76.0843 0.566076C76.3269 0.572546 76.0142 0.655368 76.2566 0.666784C77.7406 0.734849 80.0886 0.898357 80.9699 0.537756C81.9751 0.551837 83.1955 0.566385 84.0947 0.639074C84.6746 0.685858 84.1114 0.776084 84.8237 0.737585C84.9843 0.729007 84.7754 0.649991 85.0163 0.643102C86.0306 0.614176 87.1387 0.639861 88.1421 0.599035C88.3462 0.590545 88.2904 0.519744 88.3483 0.506994C88.8343 0.403741 89.6433 0.574425 89.8197 0.586828C91.1627 0.679315 92.1435 0.642919 93.3946 0.645178C93.6849 0.645741 93.3418 0.550639 93.6211 0.547766C95.0701 0.534136 96.5711 0.54231 97.9899 0.584509C98.3054 0.594124 98.0152 0.675134 98.166 0.683874C98.831 0.721424 98.9784 0.568417 99.6161 0.601477C99.7506 0.60825 99.6748 0.6776 99.6994 0.685217C100.083 0.804778 100.417 0.635368 100.515 0.631628C101.764 0.580523 102.563 0.757378 103.769 0.732335C103.913 0.729161 103.588 0.641412 103.994 0.637853C106.696 0.61363 109.555 0.637735 112.231 0.707922C112.647 0.718716 112.35 0.784634 112.376 0.79276C112.802 0.919728 113.078 0.749606 113.214 0.7432C114.284 0.697082 115.284 0.839748 116.011 0.637121C120.542 0.707439 125.053 0.593653 129.548 0.775182C129.605 0.777285 129.502 0.86107 129.616 0.864903C130.989 0.911948 130.726 0.781731 131.634 0.622473C131.863 0.582482 132.559 0.77476 132.62 0.788854C132.845 0.840791 132.612 0.96544 132.687 0.975499C133.309 1.05448 133.207 0.642259 134.046 0.642126C134.072 0.642813 133.962 0.718688 134.033 0.726232C134.251 0.749917 134.468 0.719767 134.682 0.745885C135.172 0.806321 135.346 1.00663 136.094 0.89005C136.189 0.87492 136.045 0.64109 136.793 0.652136C137.092 0.656738 138.413 0.65273 138.784 0.667883C139.154 0.683018 138.9 0.758369 138.926 0.761632C139.923 0.861272 139.545 0.902568 140.044 1.05008C140.543 1.19704 140.405 0.846531 140.608 0.807409C140.812 0.768397 141.543 0.850607 141.723 0.879186C141.902 0.907777 141.678 0.955658 141.838 0.971837C142.896 1.07755 142.302 0.797855 142.651 0.742223C143.473 0.610497 144.113 0.870438 144.866 0.895909C145.069 0.902788 144.903 0.843585 145.085 0.838048C145.803 0.816904 146.235 0.898013 147.052 0.823644C147.185 0.811525 147.846 0.655241 148.273 0.769933C148.334 0.786471 148.162 0.851248 148.468 0.865758C148.925 0.887534 149.749 0.901692 150.24 0.88004C150.603 0.86402 150.187 0.757283 150.644 0.790441C150.847 0.805246 150.471 0.867688 150.852 0.890294C151.231 0.912893 152.201 0.91015 152.57 0.907994C152.939 0.905791 152.737 0.824826 152.767 0.819371C152.947 0.788126 153.654 0.749085 153.717 0.749181C156.868 0.739297 159.774 0.875772 162.842 0.830602C163.083 0.827174 162.923 0.741795 162.959 0.740392C163.784 0.70462 163.134 0.931622 163.71 1.0076C163.626 0.834345 163.966 0.865716 164.547 0.846715C164.827 0.837418 164.674 0.770331 164.7 0.763463C165.115 0.661566 165.404 0.79318 165.478 0.820104C165.753 0.919144 166.052 0.802121 166.239 0.868321C166.426 0.934027 165.996 1.03143 166.553 1.03019C166.709 0.968165 166.295 0.806089 166.718 0.779821C168.313 0.680461 171.291 0.807627 172.574 0.820836C173.854 0.834035 174.267 0.822592 175.013 0.845006C176.361 0.885533 175.867 0.765283 176.703 0.710241C177.542 0.655205 177.135 0.951079 177.255 1.01468C177.374 1.07826 177.503 1.01281 177.65 1.04776C177.797 1.08271 177.479 1.12595 177.824 1.13907C178.17 1.15218 179.114 1.03907 179.237 0.972569C179.496 0.831672 179.07 0.683794 179.984 0.735753C180.037 0.738837 179.866 0.816636 180.067 0.824498C181.666 0.884391 183.327 0.888103 184.924 0.941075C185.143 0.948481 184.947 1.03503 185.075 1.04032C186.406 1.09568 185.93 0.949745 186.66 0.787633C186.496 1.00337 186.899 1.13536 187.909 1.13663C188.517 1.13747 188.412 1.04325 188.805 0.976842C188.923 0.956823 189.352 1.02152 189.43 0.977208C189.687 0.83236 189.282 0.670211 190.324 0.734777C190.369 0.737845 190.224 0.817133 190.382 0.821935C191.402 0.853365 191.524 0.701856 192.628 0.683508C193.492 0.66911 195.03 0.761499 196.015 0.776525C195.994 1.01907 196.924 0.963534 197.301 0.7963C197.94 0.803147 198.63 0.793693 199.248 0.816808C199.46 0.824689 199.321 0.894913 199.348 0.902501C199.759 1.02153 200.036 0.858831 200.174 0.852452C201.669 0.790448 202.887 0.913761 204.314 0.793248C204.364 0.788908 204.446 0.620426 204.828 0.743444C204.852 0.751924 204.381 0.82858 205.052 0.834508C205.723 0.840449 206.989 0.930768 207.92 0.852696C208.146 0.833901 208.716 0.697128 209.174 0.803991C209.235 0.818502 209.168 0.866823 209.256 0.893712C209.541 0.979391 209.696 0.809097 210.031 0.95377C210.365 1.09844 211.061 1.20678 212.001 1.10697C212.031 1.10407 212.253 0.969092 212.549 0.971226C213.02 0.974749 213.69 1.00287 214.183 1.00199C214.419 1.00152 214.268 0.917706 214.309 0.916173C215.894 0.869207 217.023 0.943926 218.722 0.976353C219.033 0.982464 219.928 0.868173 220.531 0.958531C221.193 1.05745 220.513 1.46891 222.034 1.37088C222.648 1.33167 223.425 0.809653 224.528 1.08011C226.667 1.01309 228.645 1.15151 230.79 1.05582C230.887 1.05158 231.192 0.905889 231.418 0.907872C231.755 0.911098 231.94 0.979192 232.18 0.983677C233.188 1.00419 234.109 0.945929 235.081 0.954991C235.449 0.958284 235.32 1.02869 235.76 1.03263C236.2 1.0365 236.493 0.943782 237.088 0.98856C237.538 1.02269 237.988 1.2122 238.585 1.23429C238.608 1.04736 239.018 1.05121 239.746 1.00187C239.886 0.992292 239.736 0.927231 239.803 0.919347C240.072 0.885814 240.322 0.939735 240.578 0.903233C240.64 0.894467 240.643 0.83063 240.694 0.81986C241.127 0.725848 241.841 0.869442 241.963 0.894444C242.433 0.989396 242.652 0.906369 243.013 0.943761C243.372 0.981147 242.834 1.02788 243.255 1.05057C244.125 1.0975 245.244 1.08719 246.129 1.09012C246.482 1.0909 246.241 1.00569 246.291 1.00382C247.021 0.982207 247.759 1.07285 248.163 0.903111C248.669 1.34199 248.603 0.860543 249.646 0.948399C249.729 0.955505 249.833 1.16305 249.518 1.19352C249.202 1.22396 248.724 1.15908 248.286 1.20658C248.183 1.21772 247.589 1.4122 247.508 1.42398C246.874 1.51605 246.784 1.20591 246.75 1.18888C246.369 1.00505 245.644 1.21456 245.453 1.22904C244.579 1.29537 243.836 1.25176 243.105 1.29911C242.627 1.32971 242.581 1.53286 242.205 1.52664C240.957 1.50609 240.522 1.22269 239.346 1.46842C239.093 1.52083 239.344 1.74287 238.441 1.56827C238.384 1.55726 237.713 1.39754 237.325 1.49857C237.277 1.51131 237.278 1.57602 237.214 1.58145C236.784 1.61662 236.497 1.56506 236.028 1.58975C235.56 1.61445 234.996 1.65125 234.461 1.62931C234.139 1.61618 233.725 1.49562 233.57 1.4661C233.134 1.38107 232.667 1.52048 232.397 1.41751C232.125 1.31403 232.657 1.15687 231.943 1.09C231.917 1.25812 231.856 1.43069 231.813 1.59976C230.249 1.59384 228.709 1.53948 227.139 1.54691C226.944 1.548 227.143 1.63838 226.935 1.64188C226.054 1.65624 225.285 1.59181 224.372 1.61746C223.665 1.63767 222.89 1.73337 222.151 1.75748C221.7 1.5651 220.604 1.63041 219.807 1.61283C219.528 1.60675 219.547 1.55537 219.348 1.53861C218.599 1.47661 218.95 1.64662 218.745 1.67337C217.864 1.78756 217.789 1.40276 216.751 1.41226C216.696 1.41264 216.024 1.61775 215.931 1.63053C215.343 1.71382 215.834 1.55913 215.465 1.54398C214.793 1.51628 214.326 1.4673 213.537 1.52738C213.307 1.54517 212.755 1.67302 212.309 1.57413C212.25 1.56118 212.282 1.49338 212.235 1.48941C211.379 1.42323 211.356 1.63626 210.867 1.70841C210.378 1.78054 209.622 1.63348 209.468 1.5911C209.066 1.48145 209.777 1.54424 209.798 1.53348C210.054 1.40543 209.503 1.42748 209.082 1.41666C209.021 1.20778 208.432 1.22032 208.646 1.40628C208.67 1.4266 208.998 1.40712 209.082 1.41666C208.712 1.6216 208.065 1.64784 207.35 1.45633C207.016 1.36657 207.332 1.26192 206.315 1.3002C205.854 1.31749 206.032 1.46131 205.625 1.50052C204.695 1.58999 203.487 1.45582 202.528 1.47696C202.18 1.48464 202.519 1.56336 202.281 1.57132C201.65 1.59269 201.093 1.53362 200.459 1.56388C200.401 1.56672 200.542 1.64913 200.345 1.65018C198.85 1.65975 197.549 1.60696 195.989 1.6055C195.235 1.60483 193.887 1.65028 193.106 1.64115C191.752 1.62579 190.087 1.50595 188.931 1.53507C188.176 1.5537 188.342 1.63613 188.019 1.69229C187.395 1.80116 186.291 1.60616 186.143 1.57596C186.138 1.57496 186.787 1.55553 186.441 1.51322C186.239 1.42505 186.15 1.57558 186.143 1.57596C186.045 1.55645 184.749 1.53774 184.491 1.5535C184.351 1.56211 184.43 1.64021 184.357 1.64322C182.623 1.71311 180.887 1.73296 179.128 1.69644C179.097 1.69487 179.144 1.60751 179.071 1.60489C178.053 1.56605 177.402 1.67291 176.562 1.73636C175.723 1.79978 175.057 1.77854 174.56 1.62857C173.927 1.64745 173.018 1.58116 172.495 1.54093C171.973 1.5007 171.9 1.67074 171.854 1.6741C170.419 1.7817 169.589 1.68437 168.1 1.66922C167.393 1.66173 165.989 1.68639 165.223 1.70499C164.617 1.71997 164.252 1.68012 163.694 1.7056C163.619 1.709 163.695 1.78471 163.672 1.78763C163.049 1.87822 163.348 1.69312 163.22 1.66007C162.753 1.53985 162.466 1.47583 161.668 1.53238C161.484 1.54533 160.948 1.81184 160.613 1.82742C160.177 1.8472 160.341 1.75167 159.885 1.77481C159.846 1.77671 159.854 1.83564 159.572 1.83304C158.264 1.82175 156.838 1.78746 155.479 1.79337C155.294 1.79395 155.532 1.88742 155.263 1.8898C154.005 1.90088 152.625 1.89742 151.399 1.85367C151.097 1.84261 151.286 1.77716 151.221 1.75772C150.819 1.64014 150.248 1.81099 150.154 1.81424C147.909 1.89634 146.191 1.74173 143.903 1.81534C143.778 1.81966 142.819 2.00281 142.392 1.84574C142.362 1.83528 141.939 1.67458 141.565 1.78446C141.542 1.79133 141.805 1.87407 141.345 1.86563C140.885 1.85722 140.144 1.91247 139.512 1.82157C139.311 1.79293 138.838 1.63262 138.241 1.76041C138.202 1.76933 137.279 2.05828 136.95 1.85892C136.897 1.8261 136.953 1.61513 136.24 1.7233C136.103 1.74427 136.351 1.79133 135.992 1.82071C135.442 1.866 134.713 1.80949 134.037 1.90347C133.92 1.92011 133.418 2.06331 133.015 1.95462C132.952 1.9376 133.072 1.86717 132.859 1.85929C131.848 1.82148 130.79 1.86859 129.764 1.81986C129.4 1.80273 129.586 1.68887 129.207 1.65836C128.828 1.62786 128.064 1.59851 127.668 1.65055C127.271 1.7026 127.704 1.88407 127.11 1.89859C124.527 1.96166 121.968 1.8552 119.388 1.83963C119.006 1.83731 119.323 1.90224 118.759 1.90347C116.68 1.90831 113.091 1.96919 111.288 1.83121C109.842 1.72069 111.661 1.63656 110.557 1.59159C110.024 1.57013 109.447 1.78111 109.319 1.78775C108.062 1.85522 107.189 1.76176 106.057 1.79044C105.824 1.79639 106.053 1.8819 105.854 1.88602C105.175 1.90085 104.461 1.86268 103.813 1.86966C103.521 1.87299 103.575 1.9383 103.307 1.93326C102.666 1.92195 102.1 1.8945 101.475 1.83328C101.418 1.82771 101.802 1.74646 101.328 1.74344C100.56 1.73878 99.6076 1.67839 98.7246 1.74076C98.4626 1.75951 98.4524 1.90878 97.8892 1.8057C97.771 1.78417 97.9218 1.60493 97.2658 1.7598C97.1554 1.78553 96.0535 1.99442 95.5127 1.85977C95.37 1.82434 95.0059 1.67767 94.6908 1.70072C94.6481 1.70439 94.8193 1.78457 94.5582 1.79239C93.6381 1.81856 92.6739 1.81 91.7286 1.83512C91.4762 1.84198 91.8522 1.92495 91.476 1.93253C90.4415 1.9535 89.1498 1.93237 88.1382 1.9064C87.7652 1.89667 88.0231 1.82795 87.9959 1.82047C87.5595 1.69882 87.3015 1.86302 87.1566 1.87259C86.2558 1.92992 85.5698 1.85279 84.7395 1.8732C84.5103 1.87863 84.6728 1.95692 84.6272 1.9639C84.1541 2.03211 84.5065 1.89151 84.207 1.87601C83.3681 1.83212 82.433 1.83842 81.5846 1.84842C81.273 1.85221 81.6232 1.94299 81.3436 1.94534C79.6884 1.96099 77.9678 1.9523 76.3524 1.90225C76.0483 1.89267 76.2396 1.82276 76.1762 1.80679C75.7393 1.69509 75.099 1.84746 74.9517 1.86197C74.2818 1.92824 74.0216 1.86642 73.4299 1.87796C70.5399 1.93541 66.9714 1.89447 64.2433 1.86917C60.6884 1.83662 57.9298 1.77012 54.5398 1.78739C54.3243 1.7884 54.5416 1.88139 54.3559 1.88345C51.9579 1.90587 49.5971 1.86953 47.1944 1.89639C46.9972 1.89843 47.2814 1.98659 46.9649 1.99283C46.3158 2.00624 45.4935 2.00145 44.8372 1.9733C44.5171 1.95974 44.9465 1.88409 44.6242 1.87198C43.874 1.84362 43.0697 1.83734 42.299 1.85147C41.9711 1.85768 42.4659 1.94784 42.0396 1.94888C39.1358 1.95783 36.284 1.97336 33.3496 1.8566C33.1484 1.84858 32.9719 1.66533 32.5442 1.70047C32.512 1.75133 32.5137 1.81115 32.4996 1.86551C28.2725 1.89479 24.0885 1.83127 19.8494 1.82144C19.6707 1.82105 19.9796 1.91815 19.6335 1.91788C17.6308 1.91644 15.6861 1.94334 13.6376 1.84683C13.4343 1.8374 13.5386 1.66658 12.9396 1.69242C12.834 1.69713 11.9318 1.71991 11.6986 1.75699C11.6669 1.76258 11.8315 1.84231 11.5408 1.84464C9.85147 1.85674 8.08115 1.83854 6.39475 1.78983C6.12257 1.78181 6.41242 1.69691 6.21857 1.69046C4.84346 1.64539 3.34774 1.70993 2.03377 1.63285C1.15424 1.58094 1.47986 1.43417 1.01249 1.28971C0.946389 1.26932 0.401758 1.26609 0.373593 1.18204C0.301286 0.970681 0.565088 0.739242 0.456844 0.513952C0.433975 0.465427 -0.295427 0.517692 0.136425 0.400427C0.166595 0.392579 0.695415 0.35366 0.825664 0.31388C0.916347 0.286376 0.752932 0.200894 0.937955 0.165687C1.12296 0.130513 1.32626 0.202169 1.633 0.160804C1.9396 0.118927 1.80479 0.0216813 2.41711 0.0101698ZM170.141 1.36112C169.657 1.27946 169.586 1.57855 170.109 1.50699C170.135 1.50318 170.166 1.36512 170.141 1.36112ZM228.718 1.31388C228.085 1.18195 227.652 1.37593 228.098 1.47782C228.545 1.57959 228.91 1.35387 228.718 1.31388ZM235.281 1.21756C234.541 1.11355 234.425 1.53768 235.217 1.45194C235.263 1.44709 235.324 1.2236 235.281 1.21756ZM3.17992 1.24857C3.17323 1.2446 2.78173 1.24073 2.77237 1.24466C2.56391 1.33965 3.34675 1.34733 3.17992 1.24857ZM241.794 1.11271C241.563 1.05533 240.898 1.12156 241.185 1.19291C241.416 1.2503 242.081 1.18407 241.794 1.11271ZM144.886 1.0419C144.879 1.03745 144.598 1.03343 144.603 1.05863C144.623 1.13977 145.013 1.11687 144.886 1.0419ZM252.863 1.10782C251.228 1.09186 250.236 0.741508 252.017 0.781041C252.34 0.788194 251.322 0.892765 251.733 0.924351C252.484 0.981896 252.982 0.761919 253.749 0.879796C253.888 0.901371 252.957 1.10951 252.86 1.10831C252.861 1.10815 252.862 1.10799 252.863 1.10782ZM169.862 1.00187C169.853 0.997911 169.464 0.994161 169.455 0.998082C169.244 1.09304 170.027 1.10065 169.862 1.00187ZM128.508 0.856969C128.487 0.848541 127.585 0.840659 127.555 0.848424C127.085 1.0037 128.908 1.0201 128.508 0.856969ZM196.03 0.782995C196.454 0.68747 196.961 0.676223 197.299 0.796178C196.878 0.78981 196.454 0.788872 196.03 0.782995Z" fill="var(--stroke-0, white)"/>
</svg>
