<svg preserveAspectRatio="none" width="100%" height="100%" overflow="visible" style="display: block;" viewBox="0 0 795 2" fill="none" xmlns="http://www.w3.org/2000/svg">
<path id="Line 52" d="M7.57242 0.0101698C12.0274 -0.015883 17.8671 0.0119737 22.3052 0.0502087C23.6961 0.0620673 22.9918 0.115075 23.952 0.125648C25.8299 0.146258 27.5793 0.120261 29.4351 0.144813C30.0501 0.153209 29.2845 0.237174 29.9294 0.244056C33.4632 0.281163 36.8063 0.259777 40.3861 0.277625C58.019 0.365685 75.3518 0.397205 93.2004 0.435461C99.0856 0.448004 106.24 0.524206 112.319 0.490881C113.028 0.486916 112.605 0.413216 112.74 0.407141C114.858 0.31415 114.154 0.462935 115.536 0.482702C121.024 0.560754 127.126 0.567542 132.407 0.539099C134.654 0.526782 132.401 0.380395 134.663 0.462561C134.82 0.468112 134.25 0.546377 134.867 0.554724C136.264 0.573498 138.915 0.559509 139.998 0.56571C142.085 0.578057 142.43 0.577269 144.404 0.578161C147.103 0.580061 150.313 0.618966 153.208 0.601232C153.826 0.597215 153.008 0.516985 153.994 0.503332C154.98 0.489702 157.59 0.496505 158.47 0.515417C159.35 0.534339 158.975 0.597399 159.131 0.611852C160.412 0.733849 163.431 0.564884 163.82 0.560705C170.902 0.489506 176.975 0.58576 183.623 0.585485C188.67 0.585073 194.066 0.553296 198.868 0.557653C204.59 0.563155 209.438 0.606631 214.996 0.599157C215.583 0.598461 214.896 0.504129 215.612 0.503088C223.223 0.492111 230.782 0.502394 238.36 0.566076C239.12 0.572546 238.141 0.655368 238.9 0.666784C243.549 0.734849 250.905 0.898357 253.666 0.537756C256.815 0.551837 260.638 0.566385 263.456 0.639074C265.272 0.685858 263.508 0.776084 265.739 0.737585C266.243 0.729007 265.588 0.649991 266.343 0.643102C269.52 0.614176 272.992 0.639861 276.135 0.599035C276.775 0.590545 276.6 0.519744 276.781 0.506994C278.304 0.403741 280.838 0.574425 281.391 0.586828C285.599 0.679315 288.671 0.642919 292.591 0.645178C293.5 0.645741 292.425 0.550639 293.3 0.547766C297.84 0.534136 302.542 0.54231 306.987 0.584509C307.976 0.594124 307.066 0.675134 307.539 0.683874C309.622 0.721424 310.084 0.568417 312.082 0.601477C312.503 0.60825 312.266 0.6776 312.343 0.685217C313.545 0.804778 314.59 0.635368 314.899 0.631628C318.812 0.580523 321.312 0.757378 325.092 0.732335C325.544 0.729161 324.525 0.641412 325.796 0.637853C334.263 0.61363 343.219 0.637735 351.601 0.707922C352.904 0.718716 351.974 0.784634 352.056 0.79276C353.392 0.919728 354.257 0.749606 354.682 0.7432C358.034 0.697082 361.166 0.839748 363.443 0.637121C377.641 0.707439 391.773 0.593653 405.853 0.775182C406.032 0.777285 405.711 0.86107 406.068 0.864903C410.368 0.911948 409.543 0.781731 412.388 0.622473C413.105 0.582482 415.285 0.77476 415.478 0.788854C416.181 0.840791 415.452 0.96544 415.688 0.975499C417.635 1.05448 417.318 0.642259 419.946 0.642126C420.028 0.642813 419.683 0.718688 419.903 0.726232C420.588 0.749917 421.268 0.719767 421.938 0.745885C423.472 0.806321 424.019 1.00663 426.363 0.89005C426.659 0.87492 426.206 0.64109 428.552 0.652136C429.488 0.656738 433.627 0.65273 434.788 0.667883C435.946 0.683018 435.151 0.758369 435.233 0.761632C438.356 0.861272 437.172 0.902568 438.736 1.05008C440.3 1.19704 439.867 0.846531 440.504 0.807409C441.143 0.768397 443.432 0.850607 443.995 0.879186C444.557 0.907777 443.856 0.955658 444.356 0.971837C447.671 1.07755 445.811 0.797855 446.903 0.742223C449.479 0.610497 451.484 0.870438 453.842 0.895909C454.48 0.902788 453.959 0.843585 454.527 0.838048C456.777 0.816904 458.13 0.898013 460.69 0.823644C461.108 0.811525 463.178 0.655241 464.517 0.769933C464.707 0.786471 464.168 0.851248 465.127 0.865758C466.559 0.887534 469.14 0.901692 470.679 0.88004C471.816 0.86402 470.513 0.757283 471.944 0.790441C472.58 0.805246 471.401 0.867688 472.596 0.890294C473.784 0.912893 476.823 0.91015 477.979 0.907994C479.133 0.905791 478.502 0.824826 478.595 0.819371C479.159 0.788126 481.374 0.749085 481.57 0.749181C491.442 0.739297 500.547 0.875772 510.159 0.830602C510.913 0.827174 510.411 0.741795 510.526 0.740392C513.108 0.70462 511.072 0.931622 512.876 1.0076C512.616 0.834345 513.681 0.865716 515.5 0.846715C516.376 0.837418 515.899 0.770331 515.979 0.763463C517.279 0.661566 518.184 0.79318 518.417 0.820104C519.278 0.919144 520.215 0.802121 520.801 0.868321C521.386 0.934027 520.039 1.03143 521.783 1.03019C522.273 0.968165 520.977 0.806089 522.302 0.779821C527.3 0.680461 536.628 0.807627 540.647 0.820836C544.657 0.834035 545.952 0.822592 548.289 0.845006C552.51 0.885533 550.963 0.765283 553.584 0.710241C556.213 0.655205 554.935 0.951079 555.313 1.01468C555.684 1.07826 556.089 1.01281 556.55 1.04776C557.01 1.08271 556.014 1.12595 557.096 1.13907C558.178 1.15218 561.137 1.03907 561.521 0.972569C562.332 0.831672 560.998 0.683794 563.862 0.735753C564.027 0.738837 563.492 0.816636 564.123 0.824498C569.131 0.884391 574.335 0.888103 579.338 0.941075C580.025 0.948481 579.41 1.03503 579.811 1.04032C583.981 1.09568 582.49 0.949745 584.775 0.787633C584.262 1.00337 585.526 1.13536 588.691 1.13663C590.593 1.13747 590.265 1.04325 591.496 0.976842C591.865 0.956823 593.211 1.02152 593.455 0.977208C594.259 0.83236 592.991 0.670211 596.254 0.734777C596.397 0.737845 595.941 0.817133 596.436 0.821935C599.633 0.853365 600.016 0.701856 603.472 0.683508C606.181 0.66911 610.999 0.761499 614.083 0.776525C614.018 1.01907 616.932 0.963534 618.114 0.7963C620.116 0.803147 622.278 0.793693 624.212 0.816808C624.878 0.824689 624.441 0.894913 624.525 0.902501C625.812 1.02153 626.683 0.858831 627.115 0.852452C631.798 0.790448 635.613 0.913761 640.083 0.793248C640.241 0.788908 640.498 0.620426 641.693 0.743444C641.77 0.751924 640.294 0.82858 642.396 0.834508C644.499 0.840449 648.463 0.930768 651.382 0.852696C652.089 0.833901 653.875 0.697128 655.31 0.803991C655.501 0.818502 655.292 0.866823 655.567 0.893712C656.459 0.979391 656.946 0.809097 657.994 0.95377C659.041 1.09844 661.221 1.20678 664.165 1.10697C664.259 1.10407 664.956 0.969092 665.882 0.971226C667.36 0.974749 669.457 1.00287 671.001 1.00199C671.74 1.00152 671.267 0.917706 671.395 0.916173C676.363 0.869207 679.899 0.943926 685.221 0.976353C686.197 0.982464 689 0.868173 690.889 0.958531C692.963 1.05745 690.832 1.46891 695.599 1.37088C697.522 1.33167 699.956 0.809653 703.411 1.08011C710.112 1.01309 716.31 1.15151 723.03 1.05582C723.332 1.05158 724.287 0.905889 724.998 0.907872C726.053 0.911098 726.631 0.979192 727.385 0.983677C730.54 1.00419 733.428 0.945929 736.471 0.954991C737.626 0.958284 737.222 1.02869 738.599 1.03263C739.976 1.0365 740.894 0.943782 742.76 0.98856C744.169 1.02269 745.578 1.2122 747.449 1.23429C747.52 1.04736 748.805 1.05121 751.088 1.00187C751.527 0.992292 751.056 0.927231 751.264 0.919347C752.109 0.885814 752.891 0.939735 753.693 0.903233C753.888 0.894467 753.898 0.83063 754.057 0.81986C755.414 0.725848 757.649 0.869442 758.033 0.894444C759.504 0.989396 760.192 0.906369 761.32 0.943761C762.447 0.981147 760.762 1.02788 762.079 1.05057C764.807 1.0975 768.312 1.08719 771.083 1.09012C772.188 1.0909 771.434 1.00569 771.592 1.00382C773.878 0.982207 776.19 1.07285 777.457 0.903111C779.042 1.34199 778.836 0.860543 782.103 0.948399C782.361 0.955505 782.688 1.16305 781.7 1.19352C780.712 1.22396 779.213 1.15908 777.842 1.20658C777.518 1.21772 775.658 1.4122 775.404 1.42398C773.416 1.51605 773.135 1.20591 773.03 1.18888C771.837 1.00505 769.564 1.21456 768.966 1.22904C766.228 1.29537 763.901 1.25176 761.612 1.29911C760.114 1.32971 759.967 1.53286 758.791 1.52664C754.881 1.50609 753.517 1.22269 749.833 1.46842C749.043 1.52083 749.828 1.74287 746.997 1.56827C746.819 1.55726 744.717 1.39754 743.503 1.49857C743.351 1.51131 743.356 1.57602 743.155 1.58145C741.807 1.61662 740.908 1.56506 739.44 1.58975C737.971 1.61445 736.206 1.65125 734.53 1.62931C733.519 1.61618 732.223 1.49562 731.739 1.4661C730.374 1.38107 728.91 1.52048 728.064 1.41751C727.211 1.31403 728.879 1.15687 726.642 1.09C726.559 1.25812 726.368 1.43069 726.235 1.59976C721.333 1.59384 716.509 1.53948 711.59 1.54691C710.981 1.548 711.604 1.63838 710.95 1.64188C708.192 1.65624 705.783 1.59181 702.923 1.61746C700.709 1.63767 698.281 1.73337 695.966 1.75748C694.552 1.5651 691.116 1.63041 688.621 1.61283C687.746 1.60675 687.805 1.55537 687.183 1.53861C684.838 1.47661 685.937 1.64662 685.294 1.67337C682.535 1.78756 682.299 1.40276 679.046 1.41226C678.874 1.41264 676.768 1.61775 676.478 1.63053C674.635 1.71382 676.173 1.55913 675.019 1.54398C672.913 1.51628 671.449 1.4673 668.978 1.52738C668.257 1.54517 666.529 1.67302 665.129 1.57413C664.945 1.56118 665.047 1.49338 664.899 1.48941C662.217 1.42323 662.146 1.63626 660.614 1.70841C659.081 1.78054 656.713 1.63348 656.232 1.5911C654.971 1.48145 657.197 1.54424 657.266 1.53348C658.068 1.40543 656.341 1.42748 655.022 1.41666C654.831 1.20778 652.985 1.22032 653.654 1.40628C653.73 1.4266 654.757 1.40712 655.022 1.41666C653.863 1.6216 651.836 1.64784 649.596 1.45633C648.548 1.36657 649.539 1.26192 646.354 1.3002C644.909 1.31749 645.467 1.46131 644.192 1.50052C641.278 1.58999 637.491 1.45582 634.487 1.47696C633.397 1.48464 634.459 1.56336 633.714 1.57132C631.736 1.59269 629.992 1.53362 628.006 1.56388C627.826 1.56672 628.266 1.64913 627.648 1.65018C622.967 1.65975 618.89 1.60696 614.001 1.6055C611.64 1.60483 607.417 1.65028 604.97 1.64115C600.729 1.62579 595.513 1.50595 591.89 1.53507C589.527 1.5537 590.046 1.63613 589.033 1.69229C587.08 1.80116 583.622 1.60616 583.156 1.57596C583.142 1.57496 585.175 1.55553 584.09 1.51322C583.459 1.42505 583.179 1.57558 583.156 1.57596C582.85 1.55645 578.789 1.53774 577.982 1.5535C577.544 1.56211 577.789 1.64021 577.561 1.64322C572.13 1.71311 566.689 1.73296 561.181 1.69644C561.084 1.69487 561.23 1.60751 561.002 1.60489C557.813 1.56605 555.771 1.67291 553.141 1.73636C550.512 1.79978 548.426 1.77854 546.87 1.62857C544.886 1.64745 542.039 1.58116 540.401 1.54093C538.763 1.5007 538.534 1.67074 538.39 1.6741C533.895 1.7817 531.296 1.68437 526.633 1.66922C524.415 1.66173 520.017 1.68639 517.616 1.70499C515.719 1.71997 514.576 1.68012 512.828 1.7056C512.591 1.709 512.83 1.78471 512.758 1.78763C510.807 1.87822 511.745 1.69312 511.342 1.66007C509.881 1.53985 508.979 1.47583 506.48 1.53238C505.904 1.54533 504.225 1.81184 503.175 1.82742C501.809 1.8472 502.324 1.75167 500.894 1.77481C500.772 1.77671 500.797 1.83564 499.915 1.83304C495.817 1.82175 491.35 1.78746 487.092 1.79337C486.511 1.79395 487.256 1.88742 486.416 1.8898C482.473 1.90088 478.151 1.89742 474.31 1.85367C473.364 1.84261 473.957 1.77716 473.752 1.75772C472.491 1.64014 470.704 1.81099 470.41 1.81424C463.376 1.89634 457.993 1.74173 450.824 1.81534C450.434 1.81966 447.43 2.00281 446.09 1.84574C445.999 1.83528 444.673 1.67458 443.5 1.78446C443.428 1.79133 444.254 1.87407 442.812 1.86563C441.37 1.85722 439.05 1.91247 437.068 1.82157C436.441 1.79293 434.958 1.63262 433.086 1.76041C432.964 1.76933 430.075 2.05828 429.044 1.85892C428.876 1.8261 429.052 1.61513 426.818 1.7233C426.391 1.74427 427.166 1.79133 426.041 1.82071C424.318 1.866 422.036 1.80949 419.918 1.90347C419.549 1.92011 417.977 2.06331 416.716 1.95462C416.518 1.9376 416.893 1.86717 416.227 1.85929C413.061 1.82148 409.745 1.86859 406.529 1.81986C405.39 1.80273 405.972 1.68887 404.785 1.65836C403.598 1.62786 401.206 1.59851 399.963 1.65055C398.72 1.7026 400.078 1.88407 398.216 1.89859C390.123 1.96166 382.106 1.8552 374.025 1.83963C372.826 1.83731 373.82 1.90224 372.053 1.90347C365.541 1.90831 354.298 1.96919 348.647 1.83121C344.119 1.72069 349.817 1.63656 346.357 1.59159C344.688 1.57013 342.882 1.78111 342.478 1.78775C338.541 1.85522 335.805 1.76176 332.261 1.79044C331.53 1.79639 332.247 1.8819 331.624 1.88602C329.497 1.90085 327.261 1.86268 325.229 1.86966C324.317 1.87299 324.485 1.9383 323.645 1.93326C321.638 1.92195 319.862 1.8945 317.905 1.83328C317.726 1.82771 318.929 1.74646 317.444 1.74344C315.039 1.73878 312.055 1.67839 309.289 1.74076C308.468 1.75951 308.436 1.90878 306.672 1.8057C306.301 1.78417 306.774 1.60493 304.718 1.7598C304.373 1.78553 300.92 1.99442 299.226 1.85977C298.779 1.82434 297.638 1.67767 296.651 1.70072C296.518 1.70439 297.054 1.78457 296.236 1.79239C293.354 1.81856 290.333 1.81 287.371 1.83512C286.581 1.84198 287.759 1.92495 286.58 1.93253C283.339 1.9535 279.293 1.93237 276.123 1.9064C274.955 1.89667 275.762 1.82795 275.677 1.82047C274.31 1.69882 273.502 1.86302 273.048 1.87259C270.226 1.92992 268.077 1.85279 265.475 1.8732C264.757 1.87863 265.267 1.95692 265.124 1.9639C263.642 2.03211 264.746 1.89151 263.807 1.87601C261.179 1.83212 258.25 1.83842 255.592 1.84842C254.616 1.85221 255.713 1.94299 254.837 1.94534C249.651 1.96099 244.261 1.9523 239.2 1.90225C238.247 1.89267 238.847 1.82276 238.648 1.80679C237.28 1.69509 235.274 1.84746 234.812 1.86197C232.713 1.92824 231.898 1.86642 230.045 1.87796C220.99 1.93541 209.811 1.89447 201.264 1.86917C190.127 1.83662 181.485 1.77012 170.865 1.78739C170.19 1.7884 170.87 1.88139 170.288 1.88345C162.776 1.90587 155.38 1.86953 147.853 1.89639C147.235 1.89843 148.125 1.98659 147.134 1.99283C145.1 2.00624 142.524 2.00145 140.468 1.9733C139.465 1.95974 140.81 1.88409 139.801 1.87198C137.45 1.84362 134.931 1.83734 132.516 1.85147C131.489 1.85768 133.039 1.94784 131.703 1.94888C122.606 1.95783 113.672 1.97336 104.479 1.8566C103.849 1.84858 103.296 1.66533 101.956 1.70047C101.855 1.75133 101.86 1.81115 101.816 1.86551C88.5732 1.89479 75.4654 1.83127 62.1851 1.82144C61.6252 1.82105 62.5929 1.91815 61.5088 1.91788C55.2347 1.91644 49.1421 1.94334 42.7243 1.84683C42.0876 1.8374 42.4143 1.66658 40.5378 1.69242C40.2068 1.69713 37.3806 1.71991 36.6499 1.75699C36.5506 1.76258 37.0662 1.84231 36.1555 1.84464C30.8631 1.85674 25.317 1.83854 20.0337 1.78983C19.1811 1.78181 20.0891 1.69691 19.4818 1.69046C15.1738 1.64539 10.488 1.70993 6.37147 1.63285C3.61604 1.58094 4.63618 1.43417 3.17198 1.28971C2.96489 1.26932 1.25864 1.26609 1.17041 1.18204C0.943882 0.970681 1.77033 0.739242 1.43122 0.513952C1.35957 0.465427 -0.925528 0.517692 0.427399 0.400427C0.521915 0.392579 2.17863 0.35366 2.58667 0.31388C2.87077 0.286376 2.35882 0.200894 2.93847 0.165687C3.51807 0.130513 4.15497 0.202169 5.11594 0.160804C6.07648 0.118927 5.65412 0.0216813 7.57242 0.0101698ZM533.025 1.36112C531.509 1.27946 531.285 1.57855 532.925 1.50699C533.005 1.50318 533.104 1.36512 533.025 1.36112ZM716.537 1.31388C714.554 1.18195 713.197 1.37593 714.596 1.47782C715.994 1.57959 717.141 1.35387 716.537 1.31388ZM737.098 1.21756C734.781 1.11355 734.416 1.53768 736.898 1.45194C737.043 1.44709 737.234 1.2236 737.098 1.21756ZM9.96218 1.24857C9.94124 1.2446 8.71473 1.24073 8.68542 1.24466C8.03232 1.33965 10.4848 1.34733 9.96218 1.24857ZM757.502 1.11271C756.779 1.05533 754.696 1.12156 755.595 1.19291C756.318 1.2503 758.403 1.18407 757.502 1.11271ZM453.906 1.0419C453.882 1.03745 453.002 1.03343 453.02 1.05863C453.08 1.13977 454.303 1.11687 453.906 1.0419ZM792.181 1.10782C787.057 1.09186 783.951 0.741508 789.53 0.781041C790.541 0.788194 787.353 0.892765 788.639 0.924351C790.992 0.981896 792.555 0.761919 794.956 0.879796C795.391 0.901371 792.473 1.10951 792.172 1.10831C792.175 1.10815 792.178 1.10799 792.181 1.10782ZM532.152 1.00187C532.122 0.997911 530.904 0.994161 530.875 0.998082C530.216 1.09304 532.668 1.10065 532.152 1.00187ZM402.596 0.856969C402.528 0.848541 399.704 0.840659 399.611 0.848424C398.138 1.0037 403.849 1.0201 402.596 0.856969ZM614.132 0.782995C615.46 0.68747 617.049 0.676223 618.108 0.796178C616.788 0.78981 615.459 0.788872 614.132 0.782995Z" fill="var(--stroke-0, white)"/>
</svg>
