<svg preserveAspectRatio="none" width="100%" height="100%" overflow="visible" style="display: block;" viewBox="0 0 84.7203 81" fill="none" xmlns="http://www.w3.org/2000/svg">
<g id="Group">
<path id="Vector" d="M84.7058 64.1067C84.589 68.7218 83.7732 72.6978 82.488 72.8883C80.6842 73.1561 79.9433 66.6784 74.6722 60.9478C72.2983 58.3675 69.8004 56.8132 67.2484 55.5476V55.5464C67.2607 53.2598 67.2729 50.9719 67.2852 48.6841C67.2889 47.9493 67.2938 47.2145 67.2975 46.4798C67.3 46.0719 67.3024 45.6627 67.3037 45.2548C67.3061 44.9353 67.3553 44.5876 67.1488 44.3185C66.9363 44.0445 66.5185 43.8516 66.2322 43.6648C65.9275 43.4658 65.624 43.2679 65.3193 43.0689C64.6435 42.6266 63.9677 42.1855 63.2919 41.7431C63.174 41.6657 63.045 41.6338 62.9196 41.6375C62.9172 41.6362 62.9147 41.6362 62.9123 41.6362C61.5521 41.5465 60.1932 41.4581 58.8342 41.3684C58.8404 40.6557 58.9669 39.8755 58.4201 39.3594C57.7898 38.7648 57.1128 38.2118 56.4616 37.6405C56.4333 37.6159 56.4038 37.5938 56.3744 37.5754C56.2527 37.4844 56.1016 37.4304 55.9406 37.4242C55.2943 37.3984 54.648 37.3714 54.0017 37.3456C53.8961 32.4505 53.7916 27.5565 53.6859 22.6626C53.6798 22.4132 53.552 22.1441 53.321 22.0261C51.7507 21.2299 50.1817 20.4325 48.6126 19.6363C48.4922 19.5749 48.3657 19.5466 48.2403 19.5478C48.1764 19.5442 48.1101 19.5491 48.045 19.5614C44.4277 20.2212 40.8104 20.8822 37.1931 21.542C36.8859 21.5973 36.6426 21.9512 36.6512 22.2522C36.7053 24.1432 36.7606 26.0342 36.8146 27.9251C35.2837 28.1414 33.7527 28.3564 32.2217 28.5727C31.9158 28.6157 31.6713 28.9917 31.6799 29.2841C31.7561 31.5424 31.831 33.8008 31.906 36.0592C31.0139 35.6881 30.1219 35.3158 29.2298 34.9447C28.9939 34.8464 28.6831 34.9681 28.5123 35.1352C27.7198 35.908 26.9273 36.6821 26.1347 37.455C25.7379 37.842 25.3312 38.2204 24.9454 38.6161C24.7156 38.8508 24.594 38.9884 24.5595 39.3287C24.4932 39.9652 24.5595 40.6434 24.5595 41.2824V45.7192C23.5115 46.1063 22.4622 46.4933 21.4141 46.8816C21.1057 46.9958 20.8734 47.2477 20.8734 47.5918V55.3903C15.5016 58.8528 12.1656 62.7527 12.6374 63.4985C13.285 64.5208 18.69 60.4059 29.1635 58.3429C39.7525 56.2578 47.4318 57.8625 50.1977 58.5469C54.6726 59.6539 63.3706 62.577 63.1199 65.1561C62.8496 67.917 52.7165 66.2324 39.2622 72.2469C29.3404 76.6825 28.6167 80.3846 22.0075 80.9351C14.9757 81.5212 6.31946 78.1189 2.32249 71.5785C-3.38484 62.2391 2.47976 49.9902 8.58027 37.7388C13.3648 28.1291 18.9431 21.4093 22.6514 17.475C30.5482 9.09281 41.8302 -2.20756 52.0813 0.375169C56.9076 1.59036 61.976 9.94185 71.8265 26.9852C80.3402 41.7149 85.0154 51.9377 84.7058 64.1067Z" fill="var(--fill-0, white)"/>
</g>
</svg>
