<svg preserveAspectRatio="none" width="100%" height="100%" overflow="visible" style="display: block;" viewBox="0 0 1 1002" fill="none" xmlns="http://www.w3.org/2000/svg">
<path id="Vector 41" d="M0.994915 9.53934C1.00794 15.1515 0.994013 22.5081 0.974896 28.099C0.968966 29.8512 0.942462 28.9639 0.937176 30.1735C0.926871 32.5391 0.93987 34.743 0.927594 37.0808C0.923395 37.8555 0.881413 36.8912 0.877972 37.7035C0.859418 42.1552 0.870112 46.3667 0.861187 50.8764C0.817157 73.0894 0.801398 94.9243 0.782269 117.409C0.775998 124.823 0.737897 133.835 0.754559 141.493C0.756542 142.387 0.793392 141.854 0.796429 142.024C0.842925 144.692 0.768533 143.805 0.758649 145.547C0.719623 152.46 0.716229 160.147 0.730451 166.8C0.736609 169.63 0.809802 166.792 0.76872 169.642C0.765944 169.84 0.726812 169.122 0.722638 169.898C0.713251 171.658 0.720245 174.998 0.717145 176.362C0.710972 178.991 0.711365 179.426 0.710919 181.913C0.709969 185.313 0.690517 189.356 0.699384 193.004C0.701393 193.782 0.741507 192.752 0.748334 193.993C0.755149 195.236 0.751748 198.524 0.742291 199.632C0.73283 200.741 0.701301 200.269 0.694074 200.465C0.633075 202.079 0.717558 205.882 0.719647 206.372C0.755247 215.293 0.70712 222.944 0.707257 231.319C0.707464 237.677 0.723352 244.475 0.721173 250.524C0.718422 257.731 0.696685 263.84 0.700421 270.841C0.70077 271.58 0.747935 270.714 0.748456 271.617C0.753944 281.205 0.748803 290.727 0.716962 300.274C0.713727 301.231 0.672316 299.997 0.666608 300.954C0.632576 306.81 0.550821 316.077 0.731122 319.556C0.724082 323.523 0.716807 328.339 0.680463 331.888C0.657071 334.176 0.611958 331.954 0.631208 334.765C0.635497 335.399 0.675005 334.574 0.678449 335.525C0.692912 339.528 0.68007 343.901 0.700482 347.861C0.704727 348.667 0.740128 348.447 0.746503 348.675C0.798129 350.593 0.712787 353.786 0.706586 354.482C0.660342 359.782 0.67854 363.653 0.677411 368.591C0.677129 369.737 0.72468 368.382 0.726117 369.485C0.732932 375.203 0.728845 381.127 0.707746 386.726C0.702938 387.972 0.662433 386.826 0.658063 387.422C0.639288 390.046 0.715791 390.628 0.699262 393.145C0.695875 393.675 0.6612 393.376 0.657392 393.473C0.597611 394.988 0.682316 396.304 0.684186 396.694C0.709739 401.622 0.621311 404.773 0.633832 409.534C0.63542 410.104 0.679294 408.819 0.681073 410.421C0.693185 421.088 0.681133 432.37 0.646039 442.929C0.640642 444.57 0.607683 443.398 0.60362 443.502C0.540136 445.185 0.625197 446.275 0.6284 446.81C0.651459 451.033 0.580126 454.978 0.68144 457.847C0.64628 475.732 0.703173 493.535 0.612409 511.272C0.611358 511.498 0.569465 511.094 0.567548 511.543C0.544026 516.961 0.609135 515.92 0.688764 519.505C0.708759 520.408 0.61262 523.155 0.605573 523.398C0.579604 524.284 0.51728 523.365 0.512251 523.662C0.472759 526.116 0.678871 525.716 0.678937 529.026C0.678593 529.129 0.640656 528.694 0.636884 528.972C0.625042 529.835 0.640117 530.691 0.627057 531.536C0.596839 533.469 0.496687 534.157 0.554975 537.11C0.56254 537.483 0.679455 536.913 0.673932 539.868C0.671631 541.046 0.673635 546.261 0.666059 547.723C0.658491 549.183 0.620815 548.18 0.619184 548.285C0.569364 552.218 0.548716 550.727 0.474958 552.697C0.401478 554.668 0.576735 554.121 0.596296 554.924C0.615801 555.729 0.574697 558.613 0.560407 559.322C0.546112 560.03 0.522171 559.147 0.514082 559.776C0.461227 563.953 0.601072 561.609 0.628888 562.986C0.694751 566.23 0.564781 568.757 0.552045 571.727C0.548606 572.53 0.578208 571.874 0.580976 572.59C0.591548 575.424 0.550994 577.129 0.588178 580.353C0.594238 580.881 0.672379 583.487 0.615033 585.175C0.606764 585.414 0.574376 584.735 0.567121 585.942C0.556233 587.747 0.549154 590.998 0.55998 592.938C0.56799 594.37 0.621358 592.728 0.60478 594.531C0.597377 595.332 0.566156 593.847 0.554853 595.352C0.543553 596.849 0.544925 600.677 0.546003 602.133C0.547105 603.587 0.587587 602.792 0.590314 602.909C0.605937 603.62 0.625458 606.41 0.625409 606.657C0.630351 619.094 0.562114 630.563 0.584699 642.672C0.586413 643.622 0.629102 642.989 0.629804 643.134C0.64769 646.388 0.534189 643.823 0.496198 646.095C0.582827 645.767 0.567142 647.108 0.576642 649.4C0.581291 650.504 0.614835 649.903 0.618268 650.003C0.669217 651.641 0.60341 652.781 0.589948 653.075C0.540428 654.16 0.598939 655.34 0.565839 656.078C0.532987 656.815 0.484283 655.118 0.484907 657.316C0.515917 657.932 0.596956 656.3 0.61009 657.969C0.659769 664.265 0.596187 676.017 0.589582 681.079C0.582983 686.131 0.588704 687.762 0.577497 690.706C0.557233 696.024 0.617359 694.075 0.64488 697.377C0.672397 700.688 0.524461 699.078 0.492658 699.554C0.46087 700.022 0.493593 700.532 0.476118 701.113C0.458647 701.692 0.437024 700.438 0.430464 701.801C0.42391 703.164 0.480463 706.892 0.513715 707.375C0.584164 708.396 0.658103 706.717 0.632123 710.324C0.630581 710.532 0.591682 709.858 0.587751 710.653C0.557805 716.963 0.555948 723.518 0.529462 729.82C0.52576 730.686 0.482486 729.911 0.479841 730.416C0.452162 735.669 0.525128 733.791 0.606183 736.67C0.498316 736.023 0.432321 737.616 0.431684 741.602C0.431264 743.998 0.478375 743.586 0.511579 745.136C0.521589 745.601 0.48924 747.297 0.511396 747.604C0.58382 748.617 0.664894 747.02 0.632612 751.13C0.631077 751.31 0.591433 750.736 0.589033 751.359C0.573318 755.387 0.649072 755.869 0.658246 760.223C0.665445 763.635 0.619251 769.705 0.611738 773.59C0.490463 773.509 0.518233 777.179 0.60185 778.668C0.598427 781.189 0.603154 783.913 0.591596 786.351C0.587656 787.189 0.552543 786.638 0.54875 786.744C0.489235 788.366 0.570585 789.463 0.573774 790.007C0.604776 795.906 0.543119 800.713 0.603376 806.343C0.605546 806.543 0.689787 806.867 0.628278 808.372C0.624038 808.469 0.58571 806.61 0.582746 809.258C0.579775 811.907 0.534616 816.9 0.573652 820.578C0.583049 821.468 0.651436 823.719 0.598005 825.525C0.590749 825.766 0.566589 825.503 0.553144 825.85C0.510305 826.973 0.595451 827.586 0.523115 828.906C0.450781 830.227 0.396609 832.972 0.446516 836.681C0.447967 836.799 0.515454 837.677 0.514387 838.843C0.512625 840.705 0.498566 843.348 0.499006 845.292C0.499241 846.223 0.541147 845.627 0.541914 845.789C0.565396 852.047 0.528037 856.501 0.511823 863.206C0.508768 864.435 0.565914 867.967 0.520734 870.347C0.471277 872.959 0.265544 870.274 0.314558 876.28C0.334163 878.702 0.595174 881.768 0.459944 886.121C0.493453 894.563 0.424243 902.37 0.47209 910.835C0.474209 911.216 0.547055 912.42 0.546064 913.315C0.544451 914.644 0.510404 915.373 0.508161 916.322C0.497906 920.297 0.527035 923.935 0.522504 927.768C0.520858 929.223 0.485654 928.714 0.483686 930.449C0.481751 932.184 0.528109 933.341 0.50572 935.691C0.488654 937.466 0.393901 939.241 0.382856 941.597C0.47632 941.687 0.474395 943.306 0.499067 946.182C0.503854 946.735 0.536384 946.142 0.540327 946.404C0.557093 947.468 0.530132 948.453 0.548383 949.464C0.552767 949.71 0.584685 949.721 0.59007 949.922C0.637076 951.631 0.565279 954.447 0.552778 954.931C0.505302 956.784 0.546815 957.65 0.52812 959.072C0.509426 960.491 0.486058 958.369 0.474714 960.027C0.451251 963.464 0.456406 967.88 0.454939 971.37C0.454551 972.763 0.497157 971.813 0.49809 972.012C0.508897 974.892 0.463576 977.804 0.548444 979.401C0.329006 981.397 0.569729 981.137 0.5258 985.254C0.522247 985.578 0.418477 985.99 0.403242 984.745C0.388022 983.5 0.420459 981.613 0.396711 979.886C0.391138 979.477 0.293899 977.134 0.288008 976.814C0.241973 974.31 0.397044 973.955 0.405561 973.823C0.497477 972.321 0.39272 969.457 0.385481 968.703C0.352313 965.254 0.374122 962.324 0.350447 959.439C0.335146 957.552 0.233568 957.368 0.236678 955.886C0.246954 950.961 0.388656 949.242 0.265791 944.6C0.239587 943.605 0.128566 944.594 0.215865 941.028C0.221368 940.804 0.301231 938.157 0.250716 936.627C0.244347 936.435 0.211991 936.441 0.209273 936.188C0.191692 934.49 0.217468 933.357 0.205123 931.508C0.192777 929.658 0.174373 927.434 0.185347 925.322C0.19191 924.05 0.252192 922.417 0.266951 921.808C0.309467 920.088 0.239759 918.243 0.291243 917.177C0.342986 916.103 0.421567 918.204 0.455 915.386C0.370938 915.281 0.284657 915.041 0.200118 914.874C0.203078 908.698 0.23026 902.621 0.226546 896.425C0.226001 895.657 0.180809 896.442 0.179061 895.619C0.171881 892.144 0.204097 889.109 0.191268 885.506C0.181164 882.717 0.133315 879.658 0.121261 876.742C0.217451 874.96 0.184797 870.633 0.193587 867.489C0.196624 866.388 0.222315 866.461 0.230696 865.678C0.261694 862.723 0.176691 864.108 0.163314 863.298C0.106222 859.822 0.298621 859.525 0.293868 855.428C0.293681 855.211 0.191124 852.557 0.184737 852.192C0.143091 849.87 0.220433 851.807 0.228011 850.354C0.241858 847.701 0.266351 845.857 0.236312 842.744C0.227414 841.836 0.163491 839.659 0.212935 837.896C0.21941 837.664 0.253308 837.792 0.255293 837.605C0.288385 834.227 0.181871 834.138 0.145797 832.207C0.109731 830.276 0.183259 827.294 0.204451 826.687C0.259273 825.099 0.22788 827.903 0.23326 827.989C0.297283 829 0.28626 826.824 0.29167 825.162C0.396109 824.922 0.38984 822.597 0.296858 823.439C0.286702 823.535 0.296442 824.829 0.29167 825.162C0.189201 823.703 0.176078 821.149 0.271834 818.328C0.316713 817.007 0.36904 818.256 0.349898 814.244C0.341256 812.423 0.269345 813.126 0.249739 811.52C0.205007 807.849 0.272088 803.079 0.261519 799.294C0.257682 797.921 0.218318 799.259 0.214339 798.32C0.203657 795.829 0.233192 793.632 0.218062 791.13C0.216641 790.903 0.175435 791.457 0.17491 790.679C0.170125 784.781 0.196518 779.645 0.197249 773.487C0.197584 770.512 0.174858 765.192 0.179427 762.11C0.187103 756.768 0.247023 750.196 0.232466 745.632C0.223149 742.656 0.181934 743.309 0.153853 742.034C0.0994207 739.573 0.196922 735.216 0.21202 734.63C0.212519 734.612 0.222235 737.173 0.243392 735.806C0.287475 735.012 0.212211 734.658 0.21202 734.63C0.221773 734.245 0.231129 729.128 0.22325 728.112C0.218945 727.56 0.179896 727.869 0.178389 727.581C0.143445 720.739 0.13352 713.886 0.151778 706.947C0.152567 706.825 0.196245 707.009 0.197554 706.721C0.216975 702.704 0.163543 700.132 0.13182 696.819C0.100111 693.506 0.110731 690.879 0.185714 688.918C0.176273 686.419 0.209422 682.833 0.229537 680.769C0.249651 678.706 0.164628 678.418 0.162948 678.236C0.10915 672.573 0.157815 669.3 0.165389 663.425C0.169135 660.631 0.156803 655.091 0.147506 652.066C0.140016 649.676 0.159941 648.236 0.1472 646.034C0.145499 645.736 0.107643 646.037 0.106185 645.946C0.0608921 643.488 0.153438 644.669 0.169967 644.162C0.230073 642.322 0.262085 641.185 0.233809 638.038C0.227334 637.312 0.0940805 635.197 0.0862876 633.874C0.0764001 632.153 0.124163 632.802 0.112594 631.001C0.111647 630.846 0.0821807 630.878 0.08348 629.767C0.0891233 624.605 0.106269 618.978 0.103316 613.614C0.103026 612.881 0.0562876 613.821 0.0550987 612.762C0.0495585 607.794 0.0512882 602.35 0.0731651 597.511C0.0786969 596.32 0.111422 597.066 0.121139 596.808C0.179931 595.22 0.0945071 592.969 0.0928794 592.598C0.0518287 583.737 0.129136 576.956 0.0923301 567.925C0.0901693 567.434 -0.00140694 563.65 0.0771324 561.962C0.0823576 561.846 0.162711 560.176 0.107772 558.699C0.104335 558.607 0.0629675 559.648 0.0671837 557.832C0.0713907 556.015 0.0437658 553.093 0.0892173 550.596C0.103535 549.805 0.183691 547.937 0.119796 545.58C0.115335 545.426 -0.0291402 541.786 0.0705406 540.487C0.086949 540.276 0.192434 540.497 0.13835 537.683C0.127865 537.145 0.104337 538.121 0.0896445 536.705C0.0670008 534.535 0.0952532 531.659 0.0482628 528.991C0.0399439 528.526 -0.031653 526.546 0.0226892 524.957C0.0312001 524.708 0.0664164 525.181 0.0703575 524.342C0.0892623 520.352 0.065706 516.175 0.0900718 512.124C0.0986335 510.689 0.155565 511.423 0.170821 509.927C0.186072 508.432 0.200743 505.418 0.174727 503.853C0.1487 502.287 0.0579649 503.998 0.0507042 501.652C0.0191704 491.457 0.072398 481.357 0.0801841 471.177C0.081347 469.667 0.0488792 470.919 0.0482628 468.694C0.0458474 460.49 0.0154054 446.326 0.0843955 439.207C0.139653 433.504 0.181721 440.682 0.204207 436.323C0.214934 434.22 0.109445 431.944 0.106124 431.437C0.0723889 426.477 0.119118 423.03 0.104781 418.566C0.101806 417.644 0.0590505 418.548 0.0569908 417.763C0.0495761 415.084 0.0686602 412.267 0.0651695 409.706C0.0635051 408.557 0.0308499 408.769 0.0333703 407.712C0.0390247 405.182 0.0527515 402.946 0.0833579 400.48C0.0861469 400.255 0.126769 401.771 0.12828 399.899C0.130609 396.87 0.160803 393.111 0.129622 389.626C0.120243 388.592 0.04561 388.551 0.0971518 386.329C0.107917 385.863 0.197534 386.458 0.120101 383.869C0.107233 383.433 0.00278969 379.084 0.0701133 376.95C0.0878321 376.387 0.161167 374.95 0.149642 373.706C0.147803 373.538 0.107715 374.213 0.103805 373.183C0.0907213 369.552 0.0949984 365.746 0.0824424 362.016C0.0790102 361.02 0.0375272 362.503 0.0337365 361.019C0.0232513 356.936 0.0338136 351.838 0.046798 347.846C0.0516639 346.374 0.0860271 347.391 0.0897666 347.284C0.150592 345.562 0.0684918 344.543 0.0637047 343.972C0.0350395 340.417 0.073605 337.709 0.0633995 334.432C0.0606871 333.528 0.0215411 334.169 0.0180505 333.989C-0.0160547 332.122 0.0542465 333.513 0.0619957 332.331C0.083938 329.02 0.0807918 325.33 0.0757896 321.982C0.0738946 320.752 0.0285039 322.134 0.0273278 321.03C0.0195062 314.498 0.0238496 307.707 0.0488732 301.332C0.0536672 300.132 0.0886194 300.887 0.0966025 300.637C0.152455 298.912 0.0762717 296.385 0.0690147 295.804C0.0358793 293.16 0.0667883 292.133 0.0610191 289.798C0.032295 278.392 0.0527665 264.309 0.0654137 253.542C0.0816906 239.512 0.114941 228.626 0.106307 215.246C0.105802 214.396 0.0593049 215.254 0.0582726 214.521C0.0470636 205.057 0.0652328 195.74 0.0518029 186.257C0.0507832 185.479 0.0067035 186.601 0.00358523 185.352C-0.00311985 182.79 -0.000723989 179.544 0.0133508 176.954C0.0201324 175.691 0.0579567 177.385 0.0640098 176.114C0.0781909 173.153 0.0813303 169.979 0.0742637 166.937C0.0711605 165.643 0.0260781 167.596 0.0255578 165.913C0.0210853 154.453 0.013321 143.198 0.0717003 131.617C0.0757097 130.823 0.167335 130.127 0.149764 128.439C0.124336 128.311 0.0944238 128.318 0.0672447 128.263C0.0526038 111.58 0.0843673 95.0674 0.0892783 78.3376C0.089475 77.6322 0.0409274 78.8513 0.0410607 77.4856C0.0417785 69.5818 0.0283293 61.9067 0.076583 53.8219C0.0813021 53.0198 0.166709 53.4313 0.153792 51.0674C0.151435 50.6505 0.140045 47.0901 0.121505 46.1696C0.118708 46.0446 0.0788435 46.6941 0.0776817 45.5469C0.0716281 38.8798 0.0807291 31.893 0.105086 25.2375C0.109094 24.1633 0.151546 25.3072 0.154769 24.5422C0.177304 19.1152 0.145033 13.2122 0.183577 8.02645C0.20953 4.55531 0.282913 5.84043 0.355147 3.9959C0.365338 3.73501 0.366953 1.58557 0.408979 1.47442C0.51466 1.18905 0.630379 2.23017 0.743024 1.80298C0.767287 1.71272 0.741154 -1.16593 0.799786 0.538415C0.80371 0.657482 0.82317 2.74452 0.84306 3.25856C0.856812 3.61645 0.899553 2.97152 0.917157 3.70173C0.934744 4.43188 0.898916 5.23422 0.919598 6.4448C0.940536 7.65483 0.989159 7.12277 0.994915 9.53934ZM0.319441 671.478C0.360272 669.567 0.210725 669.285 0.246504 671.352C0.248411 671.452 0.317438 671.577 0.319441 671.478ZM0.343062 902.656C0.409023 900.158 0.312034 898.449 0.261092 900.211C0.210204 901.973 0.323066 903.417 0.343062 902.656ZM0.391218 928.558C0.443225 925.639 0.231161 925.179 0.274031 928.306C0.276454 928.488 0.388198 928.729 0.391218 928.558ZM0.375715 12.5498C0.377701 12.5235 0.379637 10.9784 0.377669 10.9414C0.330173 10.1187 0.326335 13.2083 0.375715 12.5498ZM0.443647 954.262C0.472334 953.351 0.439219 950.727 0.403547 951.859C0.374851 952.771 0.407963 955.397 0.443647 954.262ZM0.479048 571.807C0.481276 571.777 0.483283 570.669 0.470686 570.691C0.430114 570.766 0.441564 572.308 0.479048 571.807ZM0.446089 997.949C0.454071 991.494 0.629246 987.581 0.609479 994.61C0.605903 995.883 0.553617 991.866 0.537824 993.486C0.509052 996.451 0.61904 998.419 0.560102 1001.44C0.549314 1001.99 0.445244 998.317 0.445845 997.937C0.445926 997.941 0.446007 997.945 0.446089 997.949ZM0.499067 670.378C0.501045 670.339 0.50292 668.806 0.500959 668.769C0.453482 667.939 0.449677 671.028 0.499067 670.378ZM0.571516 507.169C0.575729 507.084 0.579671 503.526 0.575788 503.41C0.49815 501.553 0.489952 508.748 0.571516 507.169ZM0.608503 773.652C0.656265 775.325 0.661888 777.326 0.601911 778.66C0.605095 776.997 0.605564 775.323 0.608503 773.652Z" fill="var(--stroke-0, white)"/>
</svg>
