<svg preserveAspectRatio="none" width="100%" height="100%" overflow="visible" style="display: block;" viewBox="0 0 9.3664 28.3253" fill="none" xmlns="http://www.w3.org/2000/svg">
<g id="Group">
<path id="Vector" d="M9.3664 28.3253C8.77048 28.2565 8.16596 28.2 7.55161 28.1545C7.49631 23.2839 7.44103 18.4121 7.38573 13.5415C7.37836 12.9309 7.37222 12.3202 7.36485 11.7095C7.35748 11.0804 7.43611 10.3776 7.34273 9.75713C7.26778 9.26565 6.97043 9.11575 6.59691 8.88966L3.68857 7.13508C3.35313 6.93234 3.02384 6.71117 2.68103 6.52073C2.50287 6.34379 2.22641 6.27007 1.94749 6.30939C1.43758 6.38188 0.926444 6.45314 0.416532 6.52564C0.324379 6.53547 0.232227 6.5453 0.140074 6.55636C0.0933832 4.94061 0.0466907 3.32364 0 1.7079C3.11968 1.13901 6.24058 0.570118 9.36026 0C9.36149 3.18111 9.36271 6.36222 9.36271 9.54456C9.36394 13.6226 9.36517 17.7007 9.36517 21.7775C9.3664 23.9609 9.3664 26.1431 9.3664 28.3253Z" fill="var(--fill-0, white)"/>
</g>
</svg>
