<svg preserveAspectRatio="none" width="100%" height="100%" overflow="visible" style="display: block;" viewBox="0 0 2327 1" fill="none" xmlns="http://www.w3.org/2000/svg">
<path id="Line 47" d="M22.1648 0.0050849C35.2047 -0.00794148 52.2978 0.00598686 65.2884 0.0251044C69.3596 0.0310336 67.2981 0.0575377 70.1085 0.062824C75.6051 0.0731291 80.7259 0.0601305 86.1578 0.0724065C87.9579 0.0766045 85.7171 0.118587 87.6047 0.122028C97.9483 0.140582 107.734 0.129888 118.212 0.138813C169.824 0.182843 220.558 0.198602 272.802 0.217731C290.028 0.224002 310.968 0.262103 328.761 0.245441C330.838 0.243458 329.6 0.206608 329.995 0.203571C336.193 0.157075 334.133 0.231467 338.18 0.241351C354.242 0.280377 372.103 0.283771 387.561 0.269549C394.138 0.263391 387.544 0.190198 394.166 0.23128C394.626 0.234056 392.957 0.273188 394.76 0.277362C398.85 0.286749 406.61 0.279755 409.78 0.282855C415.889 0.289028 416.9 0.288635 422.678 0.289081C430.577 0.290031 439.972 0.309483 448.447 0.300616C450.256 0.298607 447.861 0.258493 450.746 0.251666C453.634 0.244851 461.273 0.248252 463.849 0.257709C466.425 0.26717 465.328 0.298699 465.784 0.305926C469.534 0.366925 478.371 0.282442 479.507 0.280353C500.237 0.244753 518.014 0.29288 537.473 0.292743C552.245 0.292536 568.041 0.276648 582.097 0.278827C598.843 0.281578 613.036 0.303315 629.304 0.299579C631.021 0.29923 629.009 0.252065 631.106 0.251544C653.384 0.246056 675.508 0.251197 697.691 0.283038C699.916 0.286273 697.048 0.327684 699.271 0.333392C712.879 0.367424 734.41 0.449179 742.492 0.268878C751.709 0.275918 762.9 0.283193 771.146 0.319537C776.463 0.342929 771.299 0.388042 777.831 0.368792C779.304 0.364503 777.388 0.324995 779.597 0.321551C788.898 0.307088 799.059 0.31993 808.26 0.299518C810.132 0.295273 809.621 0.259872 810.151 0.253497C814.608 0.201871 822.027 0.287213 823.644 0.293414C835.959 0.339658 844.953 0.32146 856.426 0.322589C859.088 0.322871 855.941 0.27532 858.503 0.273883C871.79 0.267068 885.554 0.271155 898.564 0.292254C901.458 0.297062 898.797 0.337567 900.18 0.341937C906.277 0.360712 907.629 0.284209 913.477 0.300738C914.71 0.304125 914.016 0.3388 914.241 0.342608C917.76 0.402389 920.819 0.317684 921.724 0.315814C933.176 0.290261 940.496 0.378689 951.559 0.366168C952.882 0.36458 949.898 0.320706 953.618 0.318927C978.404 0.306815 1004.62 0.318867 1029.15 0.353961C1032.97 0.359358 1030.24 0.392317 1030.48 0.39638C1034.39 0.459864 1036.93 0.374803 1038.17 0.3716C1047.98 0.348541 1057.15 0.419874 1063.82 0.31856C1105.37 0.35372 1146.74 0.296827 1187.95 0.387591C1188.47 0.388642 1187.53 0.430535 1188.58 0.432452C1201.17 0.455974 1198.75 0.390865 1207.08 0.311236C1209.18 0.291241 1215.56 0.38738 1216.12 0.394427C1218.18 0.420396 1216.05 0.48272 1216.74 0.487749C1222.44 0.527241 1221.51 0.321129 1229.2 0.321063C1229.44 0.321407 1228.43 0.359344 1229.07 0.363116C1231.08 0.374958 1233.07 0.359883 1235.03 0.372943C1239.52 0.403161 1241.12 0.503313 1247.98 0.445025C1248.85 0.43746 1247.52 0.320545 1254.39 0.326068C1257.13 0.328369 1269.25 0.326365 1272.64 0.333941C1276.03 0.341509 1273.71 0.379185 1273.95 0.380816C1283.09 0.430636 1279.62 0.451284 1284.2 0.525042C1288.78 0.598522 1287.51 0.423265 1289.38 0.403704C1291.24 0.384199 1297.95 0.425303 1299.59 0.439593C1301.24 0.453888 1299.19 0.477829 1300.65 0.485918C1310.35 0.538773 1304.91 0.398928 1308.11 0.371112C1315.64 0.305249 1321.51 0.435219 1328.42 0.447955C1330.28 0.451394 1328.76 0.421792 1330.42 0.419024C1337.01 0.408452 1340.97 0.449006 1348.46 0.411822C1349.68 0.405762 1355.74 0.327621 1359.66 0.384967C1360.22 0.393236 1358.64 0.425624 1361.45 0.432879C1365.64 0.443767 1373.19 0.450846 1377.7 0.44002C1381.03 0.43201 1377.21 0.378642 1381.4 0.39522C1383.26 0.402623 1379.81 0.433844 1383.31 0.445147C1386.79 0.456447 1395.68 0.455075 1399.07 0.453997C1402.44 0.452895 1400.59 0.412413 1400.87 0.409686C1402.52 0.394063 1409 0.374542 1409.58 0.374591C1438.47 0.369649 1465.12 0.437886 1493.26 0.415301C1495.47 0.413587 1494 0.370898 1494.33 0.370196C1501.89 0.35231 1495.93 0.465811 1501.21 0.503802C1500.45 0.417173 1503.57 0.432858 1508.89 0.423358C1511.46 0.418709 1510.06 0.385165 1510.29 0.381732C1514.1 0.330783 1516.75 0.39659 1517.43 0.410052C1519.95 0.459572 1522.69 0.401061 1524.41 0.434161C1526.12 0.467013 1522.18 0.515717 1527.28 0.515093C1528.71 0.484083 1524.92 0.403044 1528.8 0.38991C1543.43 0.340231 1570.73 0.403813 1582.5 0.410418C1594.23 0.417017 1598.03 0.411296 1604.87 0.422503C1617.22 0.442767 1612.69 0.382641 1620.36 0.35512C1628.06 0.327603 1624.32 0.475539 1625.42 0.507342C1626.51 0.53913 1627.7 0.506407 1629.05 0.523882C1630.39 0.541353 1627.48 0.562976 1630.64 0.569536C1633.81 0.57609 1642.47 0.519537 1643.6 0.486285C1645.97 0.415836 1642.07 0.341897 1650.45 0.367877C1650.93 0.369419 1649.37 0.408318 1651.21 0.412249C1665.87 0.442195 1681.1 0.444052 1695.75 0.470538C1697.76 0.47424 1695.96 0.517514 1697.13 0.520159C1709.34 0.547838 1704.97 0.474872 1711.66 0.393817C1710.16 0.501684 1713.86 0.567679 1723.12 0.568316C1728.69 0.568736 1727.73 0.521625 1731.33 0.488421C1732.41 0.478411 1736.35 0.51076 1737.07 0.488604C1739.42 0.41618 1735.71 0.335106 1745.26 0.367388C1745.68 0.368923 1744.35 0.408567 1745.79 0.410967C1755.15 0.426682 1756.27 0.350928 1766.39 0.341754C1774.32 0.334555 1788.42 0.380749 1797.45 0.388262C1797.26 0.509537 1805.79 0.481767 1809.25 0.39815C1815.11 0.401573 1821.43 0.396846 1827.1 0.408404C1829.05 0.412344 1827.77 0.447457 1828.01 0.45125C1831.78 0.510765 1834.33 0.429415 1835.59 0.426226C1849.3 0.395224 1860.47 0.456881 1873.55 0.396624C1874.01 0.394454 1874.77 0.310213 1878.26 0.371722C1878.49 0.375962 1874.17 0.41429 1880.32 0.417254C1886.48 0.420225 1898.08 0.465384 1906.62 0.426348C1908.69 0.416951 1913.92 0.348564 1918.12 0.401995C1918.68 0.409251 1918.07 0.433411 1918.87 0.446856C1921.48 0.489695 1922.91 0.404549 1925.98 0.476885C1929.04 0.549219 1935.42 0.603391 1944.04 0.553484C1944.32 0.552033 1946.35 0.484546 1949.06 0.485613C1953.39 0.487375 1959.53 0.501434 1964.05 0.500994C1966.21 0.500759 1964.83 0.458853 1965.2 0.458086C1979.74 0.434604 1990.09 0.471963 2005.67 0.488177C2008.53 0.491232 2016.73 0.434086 2022.26 0.479266C2028.33 0.528723 2022.1 0.734456 2036.05 0.685442C2041.68 0.665837 2048.8 0.404826 2058.92 0.540056C2078.53 0.506547 2096.67 0.575757 2116.34 0.52791C2117.22 0.525791 2120.02 0.452945 2122.1 0.453936C2125.19 0.455549 2126.88 0.489596 2129.09 0.491839C2138.32 0.502094 2146.78 0.472965 2155.68 0.477496C2159.06 0.479142 2157.88 0.514346 2161.91 0.516314C2165.94 0.518249 2168.63 0.471891 2174.09 0.49428C2178.22 0.511346 2182.34 0.606099 2187.82 0.617144C2188.02 0.52368 2191.78 0.525605 2198.47 0.500933C2199.75 0.496146 2198.37 0.463616 2198.98 0.459673C2201.46 0.442907 2203.74 0.469868 2206.09 0.451617C2206.66 0.447233 2206.69 0.415315 2207.16 0.40993C2211.13 0.362924 2217.67 0.434721 2218.8 0.447222C2223.1 0.494698 2225.11 0.453185 2228.42 0.47188C2231.72 0.490574 2226.78 0.513942 2230.64 0.525286C2238.62 0.548749 2248.88 0.543594 2256.99 0.545061C2260.23 0.545449 2258.02 0.502843 2258.48 0.50191C2265.18 0.491103 2271.94 0.536424 2275.65 0.451556C2280.29 0.670994 2279.69 0.430271 2289.25 0.4742C2290 0.477753 2290.96 0.581523 2288.07 0.596758C2285.18 0.611978 2280.79 0.579541 2276.78 0.603289C2275.83 0.608862 2270.39 0.706101 2269.64 0.711992C2263.82 0.758027 2263 0.602956 2262.69 0.594439C2259.2 0.502523 2252.55 0.60728 2250.8 0.614519C2242.78 0.647687 2235.97 0.625878 2229.27 0.649553C2224.89 0.664854 2224.46 0.766432 2221.01 0.763322C2209.57 0.753046 2205.58 0.611344 2194.79 0.734209C2192.48 0.760413 2194.78 0.871434 2186.49 0.784135C2185.97 0.778632 2179.82 0.698769 2176.27 0.749284C2175.82 0.755653 2175.83 0.788009 2175.25 0.790727C2171.3 0.808308 2168.67 0.782532 2164.37 0.794877C2160.07 0.807223 2154.91 0.825627 2150 0.814653C2147.04 0.80809 2143.25 0.747808 2141.83 0.733049C2137.84 0.690533 2133.55 0.760241 2131.08 0.708757C2128.58 0.657014 2133.46 0.578433 2126.91 0.545C2126.67 0.629062 2126.11 0.715343 2125.72 0.799882C2111.37 0.796922 2097.25 0.76974 2082.86 0.773454C2081.07 0.773999 2082.9 0.819191 2080.98 0.820939C2072.91 0.828119 2065.86 0.795903 2057.49 0.808732C2051.01 0.818836 2043.9 0.866685 2037.12 0.878739C2032.98 0.782549 2022.93 0.815203 2015.62 0.806413C2013.06 0.803376 2013.24 0.777685 2011.42 0.769304C2004.55 0.738306 2007.77 0.823309 2005.89 0.836686C1997.81 0.893778 1997.12 0.701379 1987.6 0.706132C1987.09 0.706319 1980.93 0.808876 1980.08 0.815263C1974.68 0.856909 1979.19 0.779567 1975.81 0.771989C1969.65 0.758142 1965.36 0.733649 1958.13 0.763688C1956.02 0.772586 1950.96 0.836509 1946.86 0.787065C1946.32 0.78059 1946.62 0.746692 1946.19 0.744707C1938.34 0.711615 1938.13 0.818129 1933.65 0.854203C1929.16 0.890269 1922.23 0.816741 1920.82 0.795549C1917.13 0.740727 1923.65 0.77212 1923.85 0.76674C1926.19 0.702717 1921.14 0.71374 1917.28 0.70833C1916.72 0.603891 1911.32 0.61016 1913.27 0.703142C1913.5 0.713298 1916.5 0.703558 1917.28 0.70833C1913.89 0.810799 1907.95 0.823922 1901.4 0.728166C1898.33 0.683287 1901.23 0.63096 1891.91 0.650102C1887.68 0.658744 1889.31 0.730655 1885.58 0.750261C1877.05 0.794993 1865.97 0.727912 1857.17 0.738481C1853.98 0.742318 1857.09 0.781682 1854.91 0.785661C1849.12 0.796343 1844.02 0.766808 1838.2 0.781938C1837.68 0.783359 1838.96 0.824565 1837.15 0.82509C1823.45 0.829875 1811.52 0.803482 1797.21 0.802751C1790.3 0.802416 1777.94 0.825142 1770.77 0.820573C1758.36 0.812897 1743.09 0.752977 1732.49 0.767534C1725.57 0.776851 1727.09 0.818066 1724.13 0.846147C1718.41 0.900579 1708.29 0.803078 1706.92 0.78798C1706.88 0.787481 1712.83 0.777765 1709.66 0.756608C1707.81 0.712525 1706.99 0.787789 1706.92 0.78798C1706.03 0.778227 1694.14 0.768871 1691.78 0.77675C1690.5 0.781055 1691.21 0.820104 1690.55 0.821611C1674.65 0.856555 1658.72 0.86648 1642.6 0.848222C1642.32 0.847433 1642.75 0.803755 1642.08 0.802446C1632.74 0.783025 1626.77 0.836457 1619.07 0.86818C1611.37 0.899889 1605.27 0.889269 1600.71 0.814286C1594.9 0.823727 1586.57 0.790578 1581.78 0.770463C1576.98 0.750349 1576.31 0.835372 1575.89 0.837052C1562.73 0.89085 1555.13 0.842185 1541.48 0.834611C1534.99 0.830865 1522.11 0.843197 1515.09 0.852494C1509.53 0.859984 1506.19 0.840059 1501.07 0.8528C1500.38 0.854501 1501.08 0.892357 1500.87 0.893815C1495.15 0.939108 1497.9 0.846562 1496.72 0.830033C1492.44 0.769927 1489.8 0.737915 1482.49 0.766191C1480.8 0.772666 1475.89 0.90592 1472.81 0.913712C1468.82 0.9236 1470.33 0.875837 1466.14 0.887406C1465.78 0.888353 1465.86 0.917819 1463.27 0.91652C1451.28 0.910877 1438.2 0.893731 1425.74 0.896684C1424.04 0.896974 1426.22 0.943712 1423.76 0.944901C1412.22 0.950441 1399.57 0.948712 1388.32 0.926835C1385.56 0.921303 1387.29 0.888578 1386.69 0.878861C1383 0.820069 1377.77 0.905493 1376.91 0.907121C1356.32 0.948171 1340.57 0.870864 1319.58 0.90767C1318.44 0.909831 1309.65 1.00141 1305.73 0.922868C1305.46 0.917642 1301.58 0.837289 1298.15 0.892228C1297.93 0.895665 1300.35 0.937033 1296.13 0.932816C1291.91 0.928609 1285.12 0.956234 1279.32 0.910783C1277.48 0.896465 1273.14 0.816309 1267.66 0.880204C1267.31 0.884665 1258.85 1.02914 1255.83 0.929459C1255.34 0.913051 1255.85 0.807566 1249.31 0.86165C1248.07 0.872135 1250.33 0.895663 1247.04 0.910355C1242 0.932999 1235.32 0.904747 1229.12 0.951737C1228.04 0.960056 1223.44 1.03165 1219.75 0.977311C1219.17 0.9688 1220.27 0.933584 1218.32 0.929643C1209.05 0.910738 1199.34 0.934294 1189.93 0.909928C1186.59 0.901367 1188.3 0.844435 1184.82 0.829179C1181.35 0.813928 1174.35 0.799257 1170.71 0.825273C1167.07 0.8513 1171.05 0.942035 1165.6 0.949296C1141.91 0.98083 1118.44 0.927602 1094.79 0.919816C1091.28 0.918653 1094.19 0.951121 1089.02 0.951737C1069.95 0.954153 1037.05 0.984595 1020.51 0.915604C1007.25 0.860347 1023.93 0.818279 1013.8 0.795793C1008.92 0.785066 1003.63 0.890555 1002.45 0.893876C990.925 0.927611 982.916 0.880882 972.544 0.895219C970.402 0.898194 972.502 0.940949 970.68 0.943009C964.453 0.950424 957.908 0.93134 951.958 0.93483C949.289 0.936495 949.781 0.96915 947.325 0.96663C941.447 0.960975 936.25 0.947249 930.521 0.916642C929.999 0.913853 933.52 0.873231 929.171 0.87172C922.134 0.869391 913.399 0.839197 905.302 0.870378C902.899 0.879757 902.805 0.95439 897.641 0.902848C896.558 0.892083 897.94 0.802466 891.924 0.879899C890.913 0.892767 880.808 0.99721 875.848 0.929887C874.54 0.912168 871.201 0.838833 868.312 0.850358C867.92 0.852197 869.49 0.892285 867.096 0.896195C858.659 0.909279 849.817 0.905002 841.149 0.917558C838.835 0.92099 842.282 0.962473 838.832 0.966263C829.345 0.976749 817.501 0.966186 808.225 0.953202C804.805 0.948336 807.169 0.913973 806.92 0.910233C802.918 0.849408 800.552 0.931508 799.224 0.936295C790.963 0.96496 784.673 0.926395 777.058 0.936601C774.957 0.939313 776.447 0.978459 776.029 0.981949C771.69 1.01605 774.922 0.945754 772.176 0.938004C764.483 0.916062 755.908 0.919208 748.129 0.92421C745.271 0.926105 748.483 0.971496 745.918 0.972672C730.741 0.980494 714.962 0.97615 700.15 0.951127C697.361 0.946333 699.115 0.911381 698.534 0.903397C694.527 0.847545 688.656 0.923728 687.305 0.930985C681.162 0.964121 678.776 0.933212 673.35 0.938981C646.848 0.967705 614.126 0.947234 589.109 0.934586C556.511 0.918309 531.215 0.885059 500.128 0.893693C498.152 0.894198 500.145 0.940695 498.442 0.941727C476.452 0.952936 454.804 0.934767 432.771 0.948197C430.963 0.949217 433.569 0.993296 430.667 0.996415C424.715 1.00312 417.174 1.00072 411.156 0.986649C408.22 0.979868 412.158 0.942043 409.203 0.93599C402.323 0.921809 394.948 0.91867 387.881 0.925736C384.873 0.92884 389.411 0.973922 385.502 0.974442C358.874 0.978915 332.723 0.986679 305.815 0.9283C303.97 0.92429 302.351 0.832665 298.429 0.850236C298.134 0.875664 298.15 0.905576 298.021 0.932755C259.258 0.947396 220.89 0.915633 182.019 0.910722C180.38 0.910525 183.212 0.959073 180.039 0.958939C161.674 0.958222 143.841 0.971671 125.056 0.923417C123.192 0.918698 124.148 0.833291 118.656 0.846208C117.687 0.848565 109.415 0.859955 107.276 0.878495C106.985 0.881292 108.495 0.921156 105.829 0.922318C90.3377 0.928372 74.1039 0.919271 58.6397 0.894914C56.1438 0.890906 58.8017 0.848454 57.0241 0.845231C44.4144 0.822696 30.6987 0.854967 18.6496 0.816423C10.5843 0.79047 13.5703 0.717087 9.28454 0.644853C8.67836 0.634662 3.68411 0.633047 3.42584 0.591021C2.76278 0.48534 5.18184 0.369621 4.18924 0.256976C3.97953 0.232713 -2.70906 0.258846 1.25102 0.200214C1.52767 0.19629 6.37693 0.17683 7.57131 0.15694C8.40288 0.143188 6.90437 0.100447 8.60102 0.0828434C10.2975 0.0652564 12.1618 0.101084 14.9746 0.080402C17.7861 0.0594636 16.5499 0.0108407 22.1648 0.0050849ZM1560.19 0.680559C1555.75 0.639728 1555.09 0.789275 1559.9 0.753496C1560.13 0.751589 1560.42 0.682562 1560.19 0.680559ZM2097.33 0.656938C2091.53 0.590977 2087.56 0.687966 2091.65 0.738908C2095.75 0.789796 2099.1 0.676934 2097.33 0.656938ZM2157.52 0.608782C2150.74 0.556775 2149.67 0.768839 2156.93 0.725969C2157.36 0.723546 2157.92 0.611802 2157.52 0.608782ZM29.1597 0.624285C29.0984 0.622299 25.5084 0.620363 25.4226 0.622331C23.511 0.669827 30.6896 0.673665 29.1597 0.624285ZM2217.24 0.556353C2215.12 0.527666 2209.03 0.560781 2211.66 0.596453C2213.78 0.625149 2219.88 0.592037 2217.24 0.556353ZM1328.6 0.520952C1328.53 0.518724 1325.96 0.516717 1326.01 0.529314C1326.18 0.569886 1329.77 0.558436 1328.6 0.520952ZM2318.75 0.553911C2303.75 0.545929 2294.66 0.370754 2310.99 0.390521C2313.95 0.394097 2304.62 0.446383 2308.38 0.462176C2315.27 0.490948 2319.84 0.38096 2326.87 0.439898C2328.14 0.450686 2319.6 0.554756 2318.72 0.554155C2318.73 0.554074 2318.74 0.553993 2318.75 0.553911ZM1557.63 0.500933C1557.54 0.498955 1553.98 0.49708 1553.9 0.499041C1551.97 0.546518 1559.14 0.550323 1557.63 0.500933ZM1178.41 0.428484C1178.22 0.424271 1169.95 0.420329 1169.68 0.424212C1165.37 0.50185 1182.08 0.510048 1178.41 0.428484ZM1797.59 0.391497C1801.48 0.343735 1806.13 0.338112 1809.23 0.398089C1805.36 0.394905 1801.48 0.394436 1797.59 0.391497Z" fill="var(--stroke-0, white)"/>
</svg>
