<svg preserveAspectRatio="none" width="100%" height="100%" overflow="visible" style="display: block;" viewBox="0 0 80 79" fill="none" xmlns="http://www.w3.org/2000/svg">
<g id="SVGID_00000058557003247444529200000010635348741244687232_">
<path id="Vector" d="M79.0224 39.5314C79.0224 37.1454 78.8212 34.7881 78.39 32.4596L69.8808 38.7265C69.8808 38.9852 69.8808 39.2727 69.8808 39.5314C69.8808 56.3198 56.2834 69.9459 39.4663 69.9459C22.6492 69.9459 9.08053 56.3485 9.08053 39.5314C9.08053 22.7431 22.678 9.11689 39.4951 9.11689C45.6182 9.11689 51.5976 10.9567 56.6571 14.4064L64.3326 8.74317C47.343 -4.94049 22.4767 -2.267 8.76431 14.6938C-4.94809 31.6547 -2.27461 56.5497 14.715 70.2334C31.7046 83.9458 56.5709 81.2723 70.2545 64.3115C75.9177 57.2972 79.0224 48.558 79.0224 39.5314Z" fill="var(--fill-0, black)"/>
</g>
</svg>
