<svg preserveAspectRatio="none" width="100%" height="100%" overflow="visible" style="display: block;" viewBox="0 0 174 3" fill="none" xmlns="http://www.w3.org/2000/svg">
<path id="Line 52" d="M1.65736 0.661683C2.63241 0.62722 3.91054 0.585627 4.8819 0.56231C5.18632 0.554895 5.03217 0.568593 5.24232 0.564419C5.65333 0.556627 6.03623 0.540841 6.4424 0.534766C6.577 0.532968 6.40945 0.555368 6.55059 0.553387C7.32403 0.543267 8.05573 0.521535 8.83923 0.508718C12.6985 0.449401 16.4921 0.403076 20.3986 0.36717C21.6867 0.354508 23.2525 0.386952 24.5829 0.347113C24.7382 0.34227 24.6456 0.28963 24.6752 0.284805C25.1387 0.209591 24.9846 0.321186 25.2872 0.332198C26.4882 0.375335 27.8238 0.370017 28.9797 0.333845C29.4714 0.318291 28.9784 0.201046 29.4735 0.264021C29.5079 0.268342 29.3831 0.335713 29.518 0.341371C29.8238 0.354199 30.404 0.336626 30.641 0.339653C31.0978 0.346022 31.1734 0.344721 31.6055 0.341482C32.1961 0.337452 32.8987 0.36714 33.5324 0.345482C33.6676 0.340531 33.4886 0.267301 33.7043 0.25229C33.9202 0.237241 34.4914 0.237447 34.684 0.253678C34.8766 0.269882 34.7946 0.331294 34.8287 0.344861C35.1091 0.460462 35.7699 0.292076 35.8549 0.2865C37.4049 0.201319 38.7342 0.286093 40.1892 0.275946C41.2938 0.267269 42.4749 0.223223 43.5259 0.219876C44.7781 0.216224 45.8393 0.259473 47.0558 0.243195C47.1842 0.241529 47.0337 0.130856 47.1905 0.12841C48.8564 0.10245 50.5107 0.100986 52.1694 0.171153C52.3357 0.178349 52.1214 0.283872 52.2875 0.297459C53.3051 0.376968 54.9151 0.588218 55.5194 0.115132C56.2086 0.129572 57.0454 0.143873 57.662 0.237889C58.0596 0.298539 57.6734 0.420162 58.1618 0.367339C58.272 0.355531 58.1287 0.250513 58.2939 0.24065C58.9894 0.198981 59.7492 0.230597 60.4372 0.172333C60.5771 0.1602 60.5389 0.0639668 60.5786 0.0464102C60.9118 -0.0962638 61.4665 0.133987 61.5875 0.150834C62.5084 0.274218 63.1809 0.222434 64.0387 0.222553C64.2378 0.222674 64.0025 0.0907473 64.194 0.0859756C65.1876 0.0628805 66.2167 0.0699497 67.1896 0.126791C67.406 0.13978 67.207 0.255658 67.3104 0.267812C67.7663 0.320298 67.8674 0.101684 68.3047 0.147532C68.3969 0.156951 68.345 0.256355 68.3618 0.267209C68.625 0.437876 68.8536 0.194678 68.9213 0.189015C69.7776 0.113009 70.325 0.366891 71.1522 0.329539C71.2512 0.324743 71.028 0.197955 71.3062 0.19217C73.1595 0.152768 75.1196 0.183614 76.9541 0.285437C77.2394 0.301089 77.0358 0.398918 77.0537 0.410917C77.3462 0.598737 77.5355 0.34663 77.6285 0.336982C78.3622 0.26769 79.0476 0.479482 79.5461 0.17739C82.0394 0.258977 84.5236 0.164937 87 0.265412C87.6098 0.290172 88.2192 0.326754 88.8281 0.380635C88.8673 0.383794 88.7971 0.509407 88.8752 0.515163C89.8165 0.585796 89.6357 0.390517 90.2585 0.152217C90.4154 0.0924211 90.8927 0.380564 90.9349 0.401642C91.0887 0.479431 90.9292 0.665972 90.9807 0.681038C91.407 0.799239 91.3375 0.182362 91.9126 0.182614C91.9306 0.183651 91.8551 0.297058 91.9033 0.308366C92.0533 0.343854 92.202 0.298867 92.3487 0.337982C92.6845 0.42852 92.8042 0.727551 93.3171 0.553658C93.3821 0.531117 93.2829 0.182118 93.7964 0.199101C94.001 0.206134 94.9071 0.201102 95.1611 0.223921C95.4147 0.246692 95.2405 0.358506 95.2586 0.363384C95.942 0.511927 95.6829 0.573078 96.0253 0.79203C96.3676 1.00993 96.2727 0.490092 96.4122 0.432207C96.552 0.374507 97.0531 0.49668 97.1762 0.538971C97.2993 0.581319 97.1458 0.652101 97.2552 0.676055C97.9808 0.832341 97.5737 0.418987 97.8128 0.337021C98.3764 0.143377 98.8154 0.527273 99.3314 0.564714C99.4711 0.574896 99.3572 0.487824 99.4814 0.479785C99.9738 0.449228 100.27 0.568196 100.83 0.459864C100.922 0.44209 101.375 0.214724 101.668 0.382422C101.709 0.406565 101.591 0.500873 101.801 0.522179C102.115 0.554165 102.68 0.575003 103.017 0.543872C103.265 0.520874 102.98 0.365971 103.293 0.4144C103.433 0.435986 103.175 0.526113 103.436 0.559028C103.696 0.591901 104.361 0.588286 104.614 0.585362C104.867 0.582351 104.729 0.465884 104.749 0.458047C104.873 0.413239 105.357 0.358069 105.4 0.358314C107.561 0.349149 109.554 0.54405 111.657 0.484027C111.823 0.479574 111.713 0.361679 111.738 0.359786C112.303 0.311922 111.857 0.623571 112.252 0.728157C112.195 0.490086 112.428 0.533457 112.826 0.508048C113.018 0.495636 112.914 0.403795 112.931 0.394429C113.216 0.25605 113.414 0.436222 113.465 0.472839C113.653 0.607862 113.858 0.449147 113.987 0.5392C114.115 0.628334 113.82 0.760363 114.202 0.758566C114.309 0.674759 114.025 0.454915 114.315 0.420001C115.409 0.289121 117.451 0.465739 118.33 0.48382C119.208 0.502913 119.491 0.48878 120.003 0.518678C120.927 0.57237 120.588 0.417804 121.162 0.35009C121.737 0.282828 121.457 0.655662 121.54 0.736267C121.621 0.816534 121.71 0.733869 121.811 0.777889C121.912 0.82178 121.694 0.876606 121.93 0.892694C122.167 0.908464 122.815 0.765974 122.899 0.683573C123.076 0.508533 122.785 0.323869 123.411 0.390771C123.447 0.394693 123.33 0.490631 123.468 0.500717C124.565 0.577237 125.704 0.583646 126.798 0.647822C126.949 0.656724 126.814 0.759225 126.902 0.765469C127.815 0.83016 127.488 0.657837 127.989 0.46987C127.876 0.721647 128.153 0.875806 128.845 0.875247C129.262 0.875244 129.19 0.767119 129.459 0.69125C129.54 0.668498 129.835 0.742195 129.888 0.691833C130.064 0.527701 129.787 0.343023 130.501 0.419341C130.532 0.422905 130.432 0.511771 130.541 0.517515C131.24 0.554621 131.324 0.385989 132.081 0.370441C132.674 0.358501 133.728 0.463923 134.403 0.482017C134.389 0.738332 135.027 0.678577 135.285 0.506282C135.723 0.515018 136.197 0.507317 136.62 0.532312C136.766 0.540804 136.67 0.611427 136.688 0.61917C136.97 0.739569 137.161 0.576041 137.255 0.570242C138.28 0.512861 139.115 0.633898 140.094 0.523087C140.128 0.518986 140.184 0.361385 140.446 0.478112C140.463 0.485969 140.14 0.556541 140.6 0.563699C141.06 0.571569 141.928 0.654875 142.567 0.586893C142.721 0.570217 143.112 0.452606 143.426 0.547377C143.468 0.560153 143.422 0.601983 143.483 0.625481C143.678 0.699868 143.784 0.5536 144.014 0.678149C144.243 0.802815 144.72 0.890629 145.364 0.805954C145.385 0.803399 145.537 0.692134 145.74 0.694228C146.064 0.697419 146.523 0.720093 146.861 0.719284C147.022 0.718903 146.919 0.652872 146.947 0.651672C148.034 0.617548 148.808 0.67761 149.973 0.700827C150.186 0.704642 150.8 0.626544 151.213 0.689397C151.667 0.756625 151.201 1.03701 152.244 0.96116C152.665 0.928053 153.198 0.598381 153.954 0.76671C155.421 0.725802 156.777 0.798201 158.248 0.745289C158.314 0.742856 158.523 0.671663 158.679 0.673326C158.91 0.675599 159.036 0.708012 159.201 0.710092C159.892 0.719465 160.524 0.694185 161.19 0.699295C161.443 0.70099 161.354 0.729381 161.656 0.730616C161.957 0.731511 162.158 0.696413 162.566 0.713499C162.875 0.726714 163.183 0.792858 163.593 0.796764C163.608 0.733468 163.889 0.734018 164.389 0.718298C164.485 0.715329 164.382 0.694952 164.428 0.692556C164.613 0.682739 164.784 0.699558 164.959 0.689114C165.002 0.686643 165.004 0.667874 165.039 0.664916C165.336 0.639792 165.825 0.683472 165.909 0.689633C166.231 0.715426 166.382 0.694063 166.629 0.704024C166.875 0.713283 166.506 0.724595 166.795 0.729758C167.392 0.739761 168.159 0.734482 168.765 0.733492C169.007 0.732917 168.842 0.718801 168.877 0.718368C169.377 0.715548 169.883 0.726851 170.16 0.705169C170.507 0.760473 170.462 0.700038 171.177 0.712772C171.234 0.7138 171.305 0.73236 171.089 0.736813C170.873 0.741553 170.545 0.736208 170.245 0.743886C170.174 0.745099 169.767 0.775737 169.711 0.778872C169.276 0.799504 169.214 0.751086 169.191 0.748166C168.93 0.719014 168.433 0.75628 168.302 0.761242C167.703 0.778974 167.194 0.774386 166.692 0.789919C166.365 0.800146 166.332 0.852216 166.075 0.855077C165.219 0.866386 164.921 0.780987 164.114 0.868319C163.941 0.887402 164.113 0.958213 163.494 0.911159C163.455 0.908804 162.995 0.85902 162.729 0.898932C162.696 0.90406 162.697 0.927628 162.653 0.930391C162.358 0.948645 162.161 0.93273 161.84 0.947729C161.518 0.962826 161.132 0.985424 160.765 0.98307C160.544 0.981927 160.26 0.934348 160.154 0.922538C159.855 0.888488 159.535 0.955726 159.35 0.910874C159.163 0.864425 159.528 0.789875 159.039 0.760153C159.02 0.839445 158.979 0.921365 158.95 1.00206C157.877 1.01822 156.821 1.00625 155.744 1.02587C155.611 1.02851 155.747 1.07739 155.604 1.08183C155.001 1.101 154.473 1.07159 153.847 1.09711C153.363 1.11707 152.831 1.18725 152.325 1.21335C152.015 1.09322 151.263 1.14689 150.717 1.14389C150.526 1.14264 150.538 1.10649 150.402 1.09655C149.889 1.05943 150.13 1.17696 149.989 1.19831C149.385 1.29144 149.333 1.013 148.622 1.02587C148.584 1.02598 148.123 1.18635 148.059 1.19764C147.656 1.2675 147.993 1.14419 147.74 1.13595C147.279 1.12092 146.959 1.08531 146.418 1.13979C146.26 1.15553 145.882 1.26504 145.576 1.18852C145.535 1.17843 145.557 1.12251 145.525 1.11962C144.938 1.07124 144.923 1.24833 144.587 1.31475C144.252 1.38159 143.733 1.26456 143.628 1.22872C143.352 1.13724 143.839 1.18569 143.854 1.17619C144.03 1.06437 143.652 1.08711 143.363 1.08039C143.321 0.899095 142.918 0.911675 143.064 1.07406C143.08 1.09172 143.305 1.07259 143.363 1.08039C143.11 1.26072 142.666 1.29343 142.176 1.1269C141.946 1.04851 142.163 0.952395 141.466 0.991529C141.15 1.00937 141.272 1.14026 140.993 1.17933C140.355 1.26971 139.526 1.15306 138.869 1.17885C138.63 1.18866 138.863 1.26251 138.7 1.27207C138.267 1.29813 137.885 1.24434 137.45 1.2791C137.411 1.28241 137.507 1.36324 137.372 1.36604C136.347 1.38928 135.455 1.34629 134.385 1.35653C133.868 1.36146 132.944 1.42101 132.409 1.41744C131.48 1.41231 130.339 1.28877 129.546 1.32837C129.029 1.35431 129.142 1.44793 128.92 1.51505C128.493 1.64621 127.736 1.42846 127.634 1.39319C127.631 1.392 128.076 1.36529 127.839 1.31791C127.7 1.2158 127.639 1.39263 127.634 1.39319C127.567 1.37107 126.678 1.35657 126.502 1.3768C126.406 1.38789 126.459 1.48048 126.409 1.48457C125.221 1.57983 124.03 1.61881 122.825 1.58525C122.803 1.58348 122.835 1.47437 122.785 1.47154C122.087 1.4288 121.641 1.56637 121.065 1.65292C120.489 1.73922 120.033 1.7179 119.692 1.52744C119.258 1.55546 118.635 1.47456 118.276 1.42424C117.918 1.37389 117.868 1.59712 117.836 1.60184C116.852 1.75165 116.284 1.62873 115.263 1.61561C114.778 1.60916 113.815 1.64938 113.29 1.67863C112.874 1.70218 112.624 1.64939 112.242 1.68702C112.19 1.69206 112.242 1.79571 112.226 1.79983C111.799 1.92784 112.004 1.67151 111.916 1.6266C111.597 1.46317 111.399 1.37515 110.852 1.45626C110.726 1.47462 110.359 1.84738 110.129 1.87113C109.83 1.901 109.943 1.7668 109.63 1.8013C109.603 1.80413 109.608 1.88651 109.415 1.88433C108.518 1.87526 107.541 1.83325 106.609 1.84731C106.482 1.84894 106.645 1.98099 106.461 1.98563C105.598 2.00733 104.652 2.0088 103.811 1.95041C103.604 1.9356 103.734 1.84031 103.689 1.81247C103.413 1.6438 103.022 1.89279 102.958 1.89798C101.418 2.0256 100.24 1.80494 98.671 1.91871C98.5856 1.92524 97.9282 2.19828 97.6349 1.96736C97.6148 1.95206 97.3246 1.71532 97.068 1.87864C97.0521 1.88888 97.2329 2.01068 96.9174 1.99929C96.6018 1.98785 96.0939 2.07158 95.6602 1.93785C95.5229 1.89579 95.1983 1.65818 94.7887 1.84918C94.762 1.86237 94.1296 2.29449 93.9039 1.99798C93.8673 1.94916 93.9056 1.63457 93.4167 1.79676C93.3233 1.82822 93.4929 1.89809 93.2468 1.94243C92.8697 2.01083 92.3701 1.92732 91.9066 2.06861C91.8258 2.0936 91.4817 2.30847 91.2057 2.1463C91.1625 2.12089 91.2446 2.01537 91.0988 2.00378C90.4057 1.94813 89.6799 2.01945 88.9761 1.94686C88.7269 1.92134 88.8543 1.75056 88.5945 1.70492C88.3346 1.6593 87.811 1.61542 87.5391 1.69349C87.2671 1.77161 87.5642 2.04378 87.1568 2.0656C87.1045 2.06839 87.0522 2.07096 87 2.07332C85.2819 2.15089 83.5785 1.99821 81.862 1.97277C81.5996 1.96883 81.8171 2.06629 81.4305 2.06737C80.0052 2.0723 77.5444 2.15437 76.3076 1.94569C75.3167 1.7792 76.5637 1.65893 75.8065 1.5904C75.4411 1.55795 75.0458 1.86737 74.9576 1.8767C74.0958 1.9725 73.497 1.83282 72.7214 1.87143C72.5612 1.87939 72.7183 2.00491 72.582 2.01024C72.1164 2.02947 71.627 1.97133 71.1821 1.97908C70.9825 1.98283 71.0193 2.07768 70.8356 2.06928C70.3961 2.05028 70.0075 2.00814 69.5791 1.91752C69.5401 1.9093 69.8034 1.79367 69.4782 1.78764C68.952 1.77807 68.2988 1.68847 67.6934 1.77413C67.5137 1.79993 67.5067 2.01233 67.1206 1.86316C67.0396 1.83197 67.1429 1.57812 66.6931 1.79532C66.6174 1.8318 65.8619 2.12134 65.491 1.92855C65.3932 1.87783 65.1435 1.66999 64.9275 1.70113C64.8982 1.70609 65.0156 1.81943 64.8366 1.82916C64.2057 1.8614 63.5445 1.84455 62.8964 1.87423C62.7233 1.88232 62.9811 1.99938 62.7232 2.00759C62.0138 2.0302 61.1282 1.99245 60.4345 1.95055C60.1788 1.93488 60.3555 1.84318 60.3369 1.83282C60.0377 1.66514 59.8608 1.88644 59.7615 1.8983C59.1438 1.96976 58.6734 1.86121 58.1041 1.88302C57.9469 1.88868 58.0583 1.99422 58.0271 2.00321C57.7027 2.09048 57.9443 1.90581 57.739 1.88308C57.1638 1.81892 56.5226 1.82119 55.9409 1.82815C55.7272 1.83084 55.9674 1.9522 55.7756 1.95308C54.6407 1.96031 53.4608 1.9334 52.3533 1.85646C52.1447 1.84178 52.2759 1.75528 52.2325 1.73464C51.9329 1.59088 51.4938 1.77754 51.3928 1.79409C50.9334 1.87101 50.755 1.79168 50.3494 1.80094C48.3677 1.8461 45.9209 1.75948 44.0503 1.70373C41.6127 1.62981 39.7213 1.53232 37.3968 1.51486C37.249 1.51356 37.398 1.61002 37.2707 1.60992C35.6264 1.60317 34.0077 1.53873 32.3602 1.53195C32.225 1.53111 32.4199 1.61514 32.2029 1.61615C31.7578 1.61872 31.1939 1.60157 30.7439 1.56723C30.5244 1.55073 30.8188 1.49089 30.5979 1.47595C30.0834 1.44126 29.532 1.42591 29.0036 1.42734C28.7787 1.42799 29.118 1.51008 28.8257 1.50464C26.8346 1.4698 24.8792 1.42957 22.8671 1.30439C22.7292 1.29565 22.6081 1.16886 22.3149 1.18759C22.2928 1.2213 22.294 1.2614 22.2843 1.29762C19.3858 1.25083 16.5169 1.14459 13.6103 1.07308C13.4878 1.06988 13.6996 1.11726 13.4623 1.11084C12.0891 1.07467 10.7556 1.04341 9.35099 0.976098C9.21162 0.969562 9.28312 0.919676 8.87242 0.918753C8.79998 0.918652 8.18141 0.911636 8.02148 0.917446C7.99976 0.918331 8.11261 0.942386 7.91329 0.937709C6.75494 0.910215 5.54108 0.87121 4.38474 0.834124C4.19812 0.828196 4.39686 0.820783 4.26394 0.816746C3.32106 0.790427 2.29548 0.772389 1.39451 0.747901C0.791436 0.73292 1.01471 0.732194 0.694246 0.724621C0.648919 0.72368 0.275477 0.720026 0.256165 0.719319C0.206586 0.717835 0.387469 0.714372 0.313248 0.712473C0.301138 0.712277 6.45117e-05 0.717705 0 0.717713C0 0.717713 0 0.717713 0 0.717713C1.90077e-05 0.717707 0.0261724 0.71725 0.093544 0.71578C0.114231 0.715421 0.476831 0.707398 0.56614 0.704362C0.62832 0.70225 0.51627 0.703578 0.643136 0.699279C0.769992 0.694681 0.90939 0.692858 1.11971 0.68552C1.32995 0.677776 1.23751 0.67644 1.65736 0.661683ZM116.662 1.19642C116.33 1.08926 116.281 1.48719 116.64 1.38993C116.658 1.38476 116.679 1.20166 116.662 1.19642ZM156.827 0.885239C156.393 0.817249 156.096 0.925958 156.402 0.978339C156.708 1.02891 156.959 0.90497 156.827 0.885239ZM161.327 0.805863C160.82 0.765244 160.74 0.944743 161.283 0.901407C161.315 0.898914 161.357 0.80809 161.327 0.805863ZM2.1804 0.736168C2.17582 0.735821 1.90737 0.733373 1.90096 0.733576C1.75802 0.738105 2.2948 0.74482 2.1804 0.736168ZM165.793 0.748105C165.635 0.732878 165.179 0.752706 165.375 0.77224C165.534 0.787202 165.99 0.766105 165.793 0.748105ZM99.3454 0.779305C99.3402 0.772757 99.1477 0.766885 99.1516 0.80394C99.1647 0.923283 99.4324 0.889436 99.3454 0.779305ZM173.383 0.719999C172.262 0.727754 171.582 0.696365 172.803 0.708737C173.024 0.710121 172.326 0.711214 172.608 0.714111C173.123 0.716407 173.465 0.713585 173.99 0.717673C174.086 0.717019 173.447 0.718638 173.381 0.720017C173.382 0.720011 173.382 0.720005 173.383 0.719999ZM116.471 0.720191C116.464 0.714945 116.198 0.709941 116.192 0.71516C116.047 0.841709 116.584 0.851233 116.471 0.720191ZM88.1152 0.503202C88.1005 0.490559 87.4823 0.478706 87.4621 0.490356C87.1396 0.723263 88.3896 0.74785 88.1152 0.503202ZM134.414 0.488884C134.704 0.38929 135.052 0.380755 135.284 0.50615C134.995 0.498402 134.704 0.496256 134.414 0.488884Z" fill="var(--stroke-0, #FF8700)"/>
</svg>
