<svg preserveAspectRatio="none" width="100%" height="100%" overflow="visible" style="display: block;" viewBox="0 0 39 50" fill="none" xmlns="http://www.w3.org/2000/svg">
<path id="Vector" d="M21.4454 20.4392C15.9259 19.1456 11.1827 18.0245 11.1827 14.1724C11.1827 9.02662 17.5358 8.45167 20.238 8.45167C24.0039 8.45167 26.1599 8.96912 28.9772 10.2627L36.5664 4.65704C32.4556 2.04105 26.2749 0 20.2955 0C6.00816 0 0.891164 7.618 0.891164 14.7186C0.891164 24.9526 9.80279 27.1086 17.6508 28.9772C23.1702 30.2995 27.9423 31.4494 27.9423 35.359C27.9423 37.3713 26.7349 40.7348 18.7432 40.7348C13.4249 40.7348 7.61801 38.8662 3.47841 35.8477L0 43.782C4.19709 47.0879 11.4989 49.1864 18.6857 49.1864C30.5583 49.1864 38.205 43.437 38.205 34.5541C38.2338 24.4064 29.3221 22.3078 21.4454 20.4392Z" fill="var(--fill-0, white)"/>
</svg>
