<svg preserveAspectRatio="none" width="100%" height="100%" overflow="visible" style="display: block;" viewBox="0 0 120 3" fill="none" xmlns="http://www.w3.org/2000/svg">
<path id="Line 18" d="M1.14301 0.0152547C1.81545 -0.0238245 2.69692 0.0179606 3.36683 0.0753131C3.57678 0.0931009 3.47046 0.172613 3.61539 0.188472C3.89885 0.219387 4.16292 0.180391 4.44303 0.217219C4.53586 0.229814 4.42031 0.355761 4.51765 0.366084C5.05105 0.421745 5.55567 0.389665 6.09602 0.416438C8.75759 0.548528 11.3739 0.595807 14.068 0.653192C14.9563 0.672006 16.0362 0.786308 16.9537 0.736322C17.0609 0.730373 16.997 0.619823 17.0174 0.610712C17.337 0.471225 17.2307 0.694402 17.4394 0.724054C18.2677 0.841131 19.1888 0.851313 19.986 0.808648C20.3251 0.790173 19.9851 0.570593 20.3265 0.693841C20.3503 0.702169 20.2642 0.819565 20.3572 0.832086C20.5681 0.860247 20.9683 0.839264 21.1318 0.848565C21.4468 0.867085 21.4989 0.865904 21.7969 0.867242C22.2042 0.870092 22.6887 0.928449 23.1258 0.901849C23.2191 0.895822 23.0956 0.775478 23.2443 0.754998C23.3933 0.734553 23.7872 0.744757 23.92 0.773126C24.0528 0.801509 23.9963 0.896098 24.0198 0.917779C24.2132 1.10077 24.6689 0.847326 24.7275 0.841058C25.7965 0.73426 26.7132 0.87864 27.7167 0.878228C28.4785 0.877609 29.293 0.829944 30.0179 0.83648C30.8814 0.844733 31.6133 0.909946 32.4523 0.898736C32.5408 0.897691 32.4371 0.756194 32.5452 0.754632C33.6941 0.738167 34.835 0.753591 35.9789 0.849114C36.0936 0.858819 35.9458 0.983052 36.0604 1.00018C36.7621 1.10227 37.8724 1.34754 38.2892 0.806634C38.7646 0.827755 39.3416 0.849578 39.7669 0.958611C40.0411 1.02879 39.7748 1.16413 40.1116 1.10638C40.1876 1.09351 40.0888 0.974986 40.2027 0.964654C40.6823 0.921264 41.2063 0.959791 41.6808 0.898553C41.7773 0.885818 41.751 0.779616 41.7783 0.760492C42.0081 0.605612 42.3907 0.861638 42.4741 0.880242C43.1092 1.01897 43.573 0.964379 44.1646 0.967766C44.3019 0.968612 44.1396 0.825959 44.2718 0.821649C44.9569 0.801203 45.6667 0.813464 46.3376 0.876763C46.4869 0.891186 46.3496 1.0127 46.421 1.02581C46.7354 1.08214 46.8051 0.852626 47.1067 0.902215C47.1703 0.912374 47.1344 1.0164 47.1461 1.02782C47.3276 1.20717 47.4853 0.953052 47.532 0.947442C48.1225 0.870784 48.5 1.13607 49.0705 1.0985C49.1388 1.09374 48.9848 0.962118 49.1767 0.95678C50.4549 0.920444 51.8066 0.956602 53.0718 1.06188C53.2685 1.07807 53.1281 1.17695 53.1405 1.18914C53.3422 1.37959 53.4728 1.12441 53.5369 1.1148C54.0429 1.04562 54.5156 1.25962 54.8594 0.955681C57.0024 1.06116 59.1355 0.89048 61.2608 1.16277C61.2878 1.16593 61.2394 1.2916 61.2933 1.29736C61.9424 1.36792 61.8177 1.1726 62.2473 0.933709C62.3555 0.873723 62.6846 1.16214 62.7137 1.18328C62.8198 1.26119 62.7098 1.44816 62.7453 1.46325C63.0393 1.58172 62.9914 0.963388 63.388 0.963189C63.4004 0.96422 63.3483 1.07803 63.3816 1.08935C63.485 1.12488 63.5876 1.07965 63.6888 1.11883C63.9204 1.20948 64.0029 1.50994 64.3566 1.33507C64.4014 1.31238 64.333 0.961634 64.6871 0.978203C64.8283 0.985106 65.4532 0.979094 65.6283 1.00182C65.8032 1.02453 65.6831 1.13755 65.6956 1.14245C66.1669 1.29191 65.9882 1.35385 66.2243 1.57513C66.4604 1.79556 66.395 1.2698 66.4912 1.21111C66.5876 1.1526 66.9332 1.27591 67.0181 1.31878C67.1029 1.36167 66.9971 1.43349 67.0726 1.45776C67.573 1.61632 67.2922 1.19678 67.4571 1.11333C67.8458 0.915746 68.1486 1.30566 68.5044 1.34386C68.6007 1.35418 68.5222 1.26538 68.6079 1.25707C68.9475 1.22536 69.1517 1.34702 69.5381 1.23547C69.6013 1.21729 69.9136 0.982862 70.1158 1.1549C70.1444 1.17971 70.0631 1.27687 70.2078 1.29864C70.424 1.3313 70.8136 1.35254 71.046 1.32006C71.2175 1.29603 71.0209 1.13593 71.2368 1.18566C71.3328 1.20787 71.1549 1.30153 71.3353 1.33544C71.5146 1.36934 71.9733 1.36523 72.1478 1.36199C72.322 1.35869 72.2266 1.23724 72.2407 1.22906C72.3259 1.18219 72.6602 1.12363 72.6898 1.12377C74.18 1.10895 75.5542 1.31366 77.0051 1.2459C77.119 1.24076 77.0431 1.11269 77.0605 1.11059C77.4503 1.05693 77.143 1.39743 77.4153 1.5114C77.3759 1.25152 77.5367 1.29857 77.8113 1.27007C77.9436 1.25613 77.8715 1.1555 77.8836 1.14519C78.0798 0.992349 78.2164 1.18977 78.2516 1.23016C78.3816 1.37872 78.523 1.20318 78.6114 1.30248C78.6998 1.40104 78.4964 1.54715 78.7597 1.54528C78.8336 1.45225 78.6381 1.20913 78.838 1.16973C79.5924 1.02069 81.0005 1.21144 81.607 1.23125C82.2123 1.25105 82.4079 1.23389 82.7606 1.26751C83.3977 1.3283 83.1642 1.14792 83.5599 1.06536C83.9566 0.982808 83.7637 1.42662 83.8208 1.52202C83.8768 1.61739 83.9379 1.51922 84.0076 1.57165C84.077 1.62406 83.9267 1.68893 84.09 1.70861C84.2533 1.72827 84.6999 1.55861 84.7578 1.45885C84.8802 1.24751 84.679 1.02569 85.1112 1.10363C85.1361 1.10826 85.0554 1.22495 85.1506 1.23675C85.9066 1.32659 86.6921 1.33215 87.4472 1.41161C87.551 1.42272 87.4582 1.55254 87.5186 1.56048C88.148 1.64351 87.923 1.42462 88.268 1.18145C88.1905 1.50505 88.3813 1.70304 88.8589 1.70495C89.1461 1.70621 89.0966 1.56487 89.2824 1.46526C89.3381 1.43523 89.5413 1.53228 89.5781 1.46581C89.6995 1.24854 89.5081 1.00532 90.0006 1.10217C90.0222 1.10677 89.9534 1.2257 90.0281 1.2329C90.5107 1.28005 90.5684 1.05278 91.0901 1.02526C91.499 1.00367 92.2262 1.14225 92.6918 1.16479C92.682 1.52861 93.1218 1.4453 93.3002 1.19445C93.6023 1.20472 93.9287 1.19054 94.2207 1.22521C94.3213 1.23703 94.2552 1.34237 94.2679 1.35375C94.4623 1.5323 94.5936 1.28825 94.6588 1.27868C95.3657 1.18567 95.9416 1.37064 96.6162 1.18987C96.6402 1.18336 96.679 0.930638 96.8593 1.11517C96.871 1.12789 96.6482 1.24287 96.9655 1.25176C97.2829 1.26067 97.8812 1.39615 98.3219 1.27904C98.4285 1.25085 98.6982 1.04569 98.9147 1.20599C98.9435 1.22775 98.9119 1.30023 98.9536 1.34057C99.0881 1.46909 99.1616 1.21365 99.3198 1.43066C99.4779 1.64766 99.807 1.81017 100.251 1.66045C100.265 1.6561 100.371 1.45364 100.51 1.45684C100.734 1.46212 101.05 1.5043 101.283 1.50298C101.395 1.50228 101.323 1.37656 101.343 1.37426C102.093 1.30381 102.626 1.41589 103.43 1.46453C103.577 1.4737 104 1.30226 104.285 1.4378C104.598 1.58617 104.277 2.20337 104.996 2.05632C105.286 1.99751 105.654 1.21448 106.175 1.62017C107.187 1.51964 108.122 1.72727 109.137 1.58373C109.182 1.57737 109.326 1.35883 109.434 1.36181C109.593 1.36665 109.68 1.46879 109.794 1.47552C110.27 1.50628 110.706 1.41889 111.165 1.43249C111.34 1.43743 111.279 1.54304 111.487 1.54894C111.695 1.55475 111.833 1.41567 112.115 1.48284C112.327 1.53404 112.54 1.8183 112.822 1.85143C112.833 1.57104 113.027 1.57682 113.372 1.5028C113.438 1.48844 113.367 1.39085 113.398 1.37902C113.526 1.32872 113.644 1.4096 113.765 1.35485C113.794 1.3417 113.796 1.24594 113.82 1.22979C114.025 1.08877 114.362 1.30416 114.42 1.34167C114.642 1.48409 114.746 1.35955 114.916 1.41564C115.086 1.47172 114.832 1.54183 115.031 1.57586C115.443 1.64625 115.972 1.63078 116.39 1.63518C116.557 1.63635 116.443 1.50853 116.467 1.50573C116.812 1.47331 117.161 1.60927 117.352 1.35467C117.591 2.01298 117.56 1.29081 118.053 1.4226C118.092 1.43326 118.142 1.74457 117.992 1.79027C117.843 1.83593 117.617 1.73862 117.41 1.80987C117.361 1.82658 117.08 2.1183 117.042 2.13598C116.742 2.27408 116.7 1.80887 116.684 1.78332C116.504 1.50757 116.161 1.82184 116.07 1.84356C115.657 1.94306 115.306 1.87764 114.96 1.94866C114.734 1.99456 114.712 2.29929 114.535 2.28997C113.944 2.25914 113.738 1.83403 113.182 2.20263C113.063 2.28124 113.182 2.6143 112.754 2.35241C112.727 2.33589 112.41 2.09631 112.227 2.24785C112.204 2.26696 112.205 2.36403 112.174 2.37218C111.971 2.42493 111.835 2.3476 111.614 2.38463C111.392 2.42167 111.125 2.47688 110.872 2.44396C110.72 2.42427 110.524 2.24342 110.451 2.19915C110.245 2.0716 110.024 2.28072 109.896 2.12627C109.768 1.97104 110.019 1.7353 109.682 1.635C109.669 1.88719 109.641 2.14603 109.62 2.39965C108.88 2.39077 108.152 2.30922 107.41 2.32036C107.318 2.322 107.412 2.45757 107.313 2.46282C106.897 2.48436 106.533 2.38771 106.102 2.4262C105.767 2.45651 105.401 2.60005 105.051 2.63622C104.838 2.34765 104.319 2.44561 103.943 2.41924C103.811 2.41013 103.82 2.33305 103.726 2.30791C103.372 2.21492 103.538 2.46993 103.441 2.51006C103.024 2.68133 102.989 2.10414 102.498 2.1184C102.472 2.11896 102.154 2.42663 102.11 2.44579C101.832 2.57073 102.064 2.3387 101.89 2.31597C101.572 2.27442 101.351 2.20095 100.978 2.29107C100.869 2.31776 100.608 2.50953 100.397 2.36119C100.369 2.34177 100.384 2.24007 100.362 2.23412C99.9573 2.13484 99.9466 2.45439 99.7153 2.56261C99.4839 2.67081 99.1265 2.45022 99.0538 2.38665C98.8636 2.22218 99.1996 2.31636 99.2099 2.30022C99.331 2.10815 99.0703 2.14122 98.8712 2.12499C98.8423 1.81167 98.5639 1.83048 98.6647 2.10943C98.6762 2.13989 98.8312 2.11068 98.8712 2.12499C98.6963 2.4324 98.3903 2.47177 98.0522 2.1845C97.894 2.04986 98.0436 1.89288 97.5629 1.95031C97.3447 1.97623 97.429 2.19197 97.2365 2.25078C96.7967 2.38498 96.2251 2.18373 95.7716 2.21544C95.6071 2.22695 95.7674 2.34505 95.6549 2.35698C95.3564 2.38903 95.0932 2.30042 94.7934 2.34581C94.7663 2.35008 94.8326 2.47369 94.7394 2.47527C94.0327 2.48963 93.4173 2.41045 92.6794 2.40825C92.3229 2.40725 91.6855 2.47543 91.3162 2.46172C90.6761 2.43869 89.8887 2.25893 89.3419 2.3026C88.9853 2.33055 89.0635 2.4542 88.9107 2.53844C88.6158 2.70174 88.0938 2.40923 88.0235 2.36394C88.0214 2.36244 88.3283 2.33329 88.1645 2.26983C88.0693 2.13758 88.027 2.36337 88.0235 2.36394C87.9773 2.33468 87.3643 2.30661 87.2426 2.33025C87.1764 2.34317 87.2134 2.46031 87.1789 2.46483C86.3592 2.56967 85.538 2.59944 84.7066 2.54467C84.6919 2.5423 84.714 2.41127 84.6796 2.40734C84.1982 2.34908 83.89 2.50937 83.493 2.60454C83.0961 2.69967 82.7813 2.66781 82.5464 2.44286C82.2469 2.47118 81.8172 2.37173 81.57 2.31139C81.3227 2.25105 81.2882 2.50612 81.2665 2.51116C80.5879 2.67255 80.1957 2.52655 79.4917 2.50383C79.157 2.49259 78.4932 2.52959 78.1308 2.55748C77.8444 2.57995 77.6718 2.52018 77.408 2.5584C77.3723 2.5635 77.4083 2.67707 77.3974 2.68144C77.1029 2.81732 77.2445 2.53969 77.1837 2.4901C76.9632 2.30978 76.827 2.21375 76.4499 2.29857C76.3629 2.318 76.1095 2.71776 75.9509 2.74114C75.7447 2.7708 75.8225 2.62751 75.6067 2.66222C75.5882 2.66506 75.592 2.75346 75.4588 2.74956C74.8403 2.73263 74.1661 2.68119 73.5234 2.69005C73.4356 2.69092 73.5481 2.83114 73.4213 2.8347C72.8261 2.85132 72.1737 2.84614 71.5939 2.7805C71.4512 2.76391 71.5407 2.66573 71.5097 2.63658C71.3195 2.46021 71.0497 2.71648 71.0052 2.72136C69.9436 2.84451 69.131 2.61259 68.049 2.72301C67.9901 2.72949 67.5367 3.00422 67.3344 2.7686C67.3206 2.75293 67.1204 2.51187 66.9435 2.67668C66.9325 2.687 67.0572 2.8111 66.8396 2.79845C66.6219 2.78583 66.2717 2.8687 65.9725 2.73235C65.8778 2.68939 65.654 2.44893 65.3715 2.64061C65.3531 2.65399 64.917 3.08742 64.7613 2.78838C64.7361 2.73915 64.7625 2.4227 64.4253 2.58495C64.3609 2.6164 64.4778 2.68699 64.3081 2.73107C64.0481 2.799 63.7036 2.71424 63.3839 2.85521C63.3281 2.88017 63.0908 3.09496 62.9005 2.93193C62.8707 2.9064 62.9273 2.80075 62.8268 2.78893C62.3488 2.73221 61.8482 2.80288 61.3629 2.72978C61.1909 2.7041 61.2788 2.53331 61.0996 2.48754C60.9204 2.44178 60.5593 2.39777 60.3718 2.47582C60.1842 2.5539 60.3891 2.82611 60.1081 2.84789C58.8865 2.94249 57.6764 2.78281 56.4565 2.75945C56.2756 2.75596 56.4256 2.85336 56.159 2.85521C55.176 2.86246 53.4789 2.95378 52.626 2.74681C51.9425 2.58104 52.8026 2.45484 52.2803 2.38738C52.0283 2.3552 51.7557 2.67166 51.6949 2.68163C51.1006 2.78283 50.6876 2.64265 50.1527 2.68566C50.0422 2.69458 50.1505 2.82285 50.0565 2.82903C49.7354 2.85127 49.3979 2.79402 49.0911 2.80449C48.9534 2.80948 48.9788 2.90745 48.8521 2.89989C48.5491 2.88293 48.2811 2.84175 47.9856 2.74993C47.9587 2.74156 48.1403 2.61969 47.916 2.61516C47.5531 2.60817 47.1026 2.51759 46.6851 2.61113C46.5612 2.63927 46.5564 2.86317 46.29 2.70854C46.2342 2.67625 46.3055 2.4074 45.9952 2.6397C45.9431 2.6783 45.422 2.99163 45.1662 2.78966C45.0988 2.7365 44.9266 2.5165 44.7776 2.55107C44.7574 2.55659 44.8383 2.67686 44.7149 2.68859C44.2798 2.72784 43.8238 2.715 43.3768 2.75267C43.2575 2.76297 43.4352 2.88742 43.2574 2.89879C42.7681 2.93025 42.1574 2.89856 41.679 2.85961C41.5026 2.84501 41.6245 2.74192 41.6117 2.7307C41.4053 2.54823 41.2833 2.79452 41.2148 2.80889C40.7888 2.89488 40.4644 2.77918 40.0718 2.8098C39.9634 2.81794 40.0402 2.93538 40.0187 2.94585C39.795 3.04816 39.9616 2.83726 39.82 2.81401C39.4233 2.74819 38.9811 2.75762 38.5799 2.77263C38.4326 2.77832 38.5982 2.91449 38.4659 2.91802C37.6832 2.94148 36.8696 2.92845 36.1057 2.85338C35.9619 2.839 36.0524 2.73414 36.0224 2.71019C35.8158 2.54264 35.513 2.77118 35.4433 2.79296C35.1265 2.89236 35.0035 2.79964 34.7237 2.81694C33.357 2.90311 31.6696 2.8417 30.3795 2.80376C28.6984 2.75493 27.394 2.65518 25.7909 2.68108C25.689 2.68259 25.7917 2.82209 25.7039 2.82518C24.57 2.85881 23.4536 2.8043 22.3174 2.84459C22.2241 2.84765 22.3585 2.97989 22.2089 2.98924C21.9019 3.00936 21.5131 3.00217 21.2027 2.95995C21.0513 2.9396 21.2544 2.82613 21.102 2.80797C20.7472 2.76543 20.3669 2.75601 20.0024 2.77721C19.8474 2.78652 20.0814 2.92177 19.8798 2.92333C18.5066 2.93674 17.158 2.96004 15.7704 2.7849C15.6753 2.77287 15.5918 2.498 15.3896 2.55071C15.3743 2.62699 15.3751 2.71673 15.3685 2.79827C13.3695 2.84219 11.391 2.7469 9.38643 2.73217C9.30191 2.73158 9.44798 2.87722 9.28435 2.87682C8.33731 2.87466 7.41767 2.91501 6.44896 2.77025C6.35284 2.75609 6.40215 2.49987 6.11891 2.53862C6.06895 2.54569 5.64235 2.57987 5.53205 2.63549C5.51707 2.64388 5.5949 2.76347 5.45744 2.76695C4.65858 2.78512 3.82143 2.75781 3.02396 2.68474C2.89526 2.67272 3.03232 2.54536 2.94065 2.53569C2.29039 2.46809 1.58309 2.5649 0.961732 2.44927C0.545818 2.37141 0.699801 2.15126 0.47879 1.93456C0.44753 1.90399 0.189984 1.89914 0.176665 1.77306C0.142473 1.45602 0.26722 1.10886 0.216033 0.770929C0.205219 0.69814 -0.139702 0.776538 0.0645131 0.600641C0.0787797 0.588869 0.328849 0.53049 0.390441 0.47082C0.433324 0.429565 0.356048 0.301341 0.443542 0.24853C0.531029 0.195769 0.627165 0.303253 0.772217 0.241206C0.917204 0.178391 0.853452 0.032522 1.14301 0.0152547ZM80.4567 2.04168C80.2277 1.91918 80.194 2.36783 80.4416 2.26049C80.4536 2.25477 80.4685 2.04769 80.4567 2.04168ZM108.156 1.97081C107.857 1.77293 107.652 2.0639 107.864 2.21672C108.075 2.36939 108.248 2.0308 108.156 1.97081ZM111.26 1.82635C110.91 1.67032 110.855 2.30652 111.23 2.17791C111.252 2.17064 111.281 1.8354 111.26 1.82635ZM1.50372 1.87285C1.50056 1.8669 1.31543 1.86109 1.31101 1.86699C1.21243 2.00948 1.58262 2.02099 1.50372 1.87285ZM114.34 1.66906C114.231 1.583 113.916 1.68234 114.052 1.78936C114.161 1.87545 114.476 1.77611 114.34 1.66906ZM68.5141 1.56286C68.5104 1.55617 68.3777 1.55015 68.3804 1.58794C68.3894 1.70966 68.5741 1.67531 68.5141 1.56286ZM119.574 1.66173C118.801 1.63779 118.332 1.11226 119.174 1.17156C119.327 1.18229 118.846 1.33915 119.04 1.38653C119.395 1.47284 119.631 1.14288 119.993 1.31969C120.059 1.35206 119.619 1.66427 119.573 1.66247C119.574 1.66222 119.574 1.66198 119.574 1.66173ZM80.3248 1.5028C80.3203 1.49687 80.1365 1.49124 80.1321 1.49712C80.0326 1.63955 80.4028 1.65097 80.3248 1.5028ZM60.7691 1.28545C60.759 1.27281 60.3326 1.26099 60.3187 1.27264C60.0963 1.50555 60.9583 1.53014 60.7691 1.28545ZM92.6991 1.17449C92.8996 1.03121 93.1394 1.01433 93.2993 1.19427C93.1 1.18472 92.8995 1.18331 92.6991 1.17449Z" fill="var(--stroke-0, #FF8700)"/>
</svg>
