<svg preserveAspectRatio="none" width="100%" height="100%" overflow="visible" style="display: block;" viewBox="0 0 41 39" fill="none" xmlns="http://www.w3.org/2000/svg">
<path id="Vector" fill-rule="evenodd" clip-rule="evenodd" d="M30.2744 3.89739H6.42184C4.69914 3.89739 3.30266 5.54554 3.30266 7.57824V8.87737H33.3936V7.57824C33.3936 5.54554 31.9971 3.89739 30.2744 3.89739ZM3.30266 27.0652V12.7748H33.3936V16.4556C33.3936 17.5319 34.133 18.4043 35.0449 18.4043C35.957 18.4043 36.6962 17.5319 36.6962 16.4556V7.57824C36.6962 3.3931 33.8211 0 30.2744 0H6.42184C2.87515 0 0 3.3931 0 7.57824V27.0652C0 31.2505 2.87515 34.6434 6.42184 34.6434H15.7794C16.6915 34.6434 17.4307 33.771 17.4307 32.6947C17.4307 31.6186 16.6915 30.746 15.7794 30.746H6.42184C4.69914 30.746 3.30266 29.0981 3.30266 27.0652ZM39.7165 26.2567C40.3514 25.4839 40.3354 24.2504 39.6806 23.501C39.0259 22.7518 37.9804 22.7709 37.3456 23.5434L28.7454 34.0094L25.038 29.4978C24.4032 28.7252 23.3577 28.7062 22.703 29.4553C22.0482 30.2047 22.0322 31.4382 22.6671 32.211L26.9013 37.3638C27.9104 38.5919 29.5803 38.5919 30.5894 37.3638L39.7165 26.2567ZM8.25665 21.6521C7.75006 21.6521 7.33925 22.1369 7.33925 22.7347V24.8999C7.33925 25.498 7.75006 25.9826 8.25665 25.9826H13.7611C14.2679 25.9826 14.6785 25.498 14.6785 24.8999V22.7347C14.6785 22.1369 14.2679 21.6521 13.7611 21.6521H8.25665Z" fill="var(--fill-0, #141414)"/>
</svg>
