<svg preserveAspectRatio="none" width="100%" height="100%" overflow="visible" style="display: block;" viewBox="0 0 467 3" fill="none" xmlns="http://www.w3.org/2000/svg">
<path id="Line 66" d="M4.4482 0.0152547C7.06514 -0.0238245 10.4955 0.0179606 13.1026 0.0753131C13.9196 0.0931009 13.5059 0.172613 14.0699 0.188472C15.173 0.219387 16.2007 0.180391 17.2908 0.217219C17.6521 0.229814 17.2024 0.355761 17.5812 0.366084C19.657 0.421745 21.6208 0.389665 23.7237 0.416438C34.0816 0.548528 44.2633 0.595807 54.7479 0.653192C58.205 0.672006 62.4075 0.786308 65.9783 0.736322C66.3951 0.730373 66.1466 0.619823 66.2259 0.610712C67.4698 0.471225 67.0563 0.694402 67.8684 0.724054C71.092 0.841131 74.6765 0.851313 77.7787 0.808648C79.0985 0.790173 77.7752 0.570593 79.1041 0.693841C79.1964 0.702169 78.8616 0.819565 79.2235 0.832086C80.0443 0.860247 81.6016 0.839264 82.2377 0.848565C83.4638 0.867085 83.6666 0.865904 84.8262 0.867242C86.4115 0.870092 88.297 0.928449 89.9978 0.901849C90.3609 0.895822 89.8802 0.775478 90.4592 0.754998C91.0387 0.734553 92.5718 0.744757 93.0887 0.773126C93.6056 0.801509 93.3855 0.896098 93.477 0.917779C94.2297 1.10077 96.0031 0.847326 96.2312 0.841058C100.391 0.73426 103.959 0.87864 107.864 0.878228C110.829 0.877609 113.999 0.829944 116.82 0.83648C120.18 0.844733 123.029 0.909946 126.293 0.898736C126.638 0.897691 126.234 0.756194 126.655 0.754632C131.126 0.738167 135.566 0.753591 140.018 0.849114C140.464 0.858819 139.889 0.983052 140.335 1.00018C143.066 1.10227 147.387 1.34754 149.009 0.806634C150.859 0.827755 153.105 0.849578 154.759 0.958611C155.827 1.02879 154.79 1.16413 156.101 1.10638C156.397 1.09351 156.012 0.974986 156.455 0.964654C158.322 0.921264 160.361 0.959791 162.208 0.898553C162.583 0.885818 162.481 0.779616 162.587 0.760492C163.482 0.605612 164.97 0.861638 165.295 0.880242C167.767 1.01897 169.572 0.964379 171.874 0.967766C172.408 0.968612 171.777 0.825959 172.291 0.821649C174.957 0.801203 177.72 0.813464 180.331 0.876763C180.911 0.891186 180.377 1.0127 180.655 1.02581C181.879 1.08214 182.15 0.852626 183.324 0.902215C183.571 0.912374 183.432 1.0164 183.477 1.02782C184.183 1.20717 184.797 0.953052 184.979 0.947442C187.277 0.870784 188.746 1.13607 190.966 1.0985C191.232 1.09374 190.633 0.962118 191.379 0.95678C196.353 0.920444 201.614 0.956602 206.538 1.06188C207.303 1.07807 206.757 1.17695 206.805 1.18914C207.59 1.37959 208.098 1.12441 208.348 1.1148C210.317 1.04562 212.156 1.25962 213.494 0.955681C221.834 1.06116 230.136 0.89048 238.407 1.16277C238.512 1.16593 238.323 1.2916 238.533 1.29736C241.059 1.36792 240.574 1.1726 242.246 0.933709C242.667 0.873723 243.948 1.16214 244.061 1.18328C244.474 1.26119 244.046 1.44816 244.184 1.46325C245.328 1.58172 245.142 0.963388 246.685 0.963189C246.733 0.96422 246.531 1.07803 246.66 1.08935C247.063 1.12488 247.462 1.07965 247.855 1.11883C248.757 1.20948 249.078 1.50994 250.455 1.33507C250.629 1.31238 250.363 0.961634 251.741 0.978203C252.29 0.985106 254.722 0.979094 255.404 1.00182C256.084 1.02453 255.617 1.13755 255.665 1.14245C257.5 1.29191 256.804 1.35385 257.723 1.57513C258.642 1.79556 258.387 1.2698 258.762 1.21111C259.137 1.1526 260.482 1.27591 260.812 1.31878C261.142 1.36167 260.73 1.43349 261.024 1.45776C262.971 1.61632 261.879 1.19678 262.52 1.11333C264.033 0.915746 265.212 1.30566 266.596 1.34386C266.971 1.35418 266.665 1.26538 266.999 1.25707C268.321 1.22536 269.115 1.34702 270.619 1.23547C270.865 1.21729 272.08 0.982862 272.867 1.1549C272.979 1.17971 272.662 1.27687 273.225 1.29864C274.067 1.3313 275.583 1.35254 276.487 1.32006C277.155 1.29603 276.39 1.13593 277.23 1.18566C277.604 1.20787 276.911 1.30153 277.613 1.33544C278.311 1.36934 280.096 1.36523 280.775 1.36199C281.453 1.35869 281.082 1.23724 281.137 1.22906C281.468 1.18219 282.769 1.12363 282.884 1.12377C288.684 1.10895 294.032 1.31366 299.678 1.2459C300.121 1.24076 299.826 1.11269 299.894 1.11059C301.411 1.05693 300.215 1.39743 301.275 1.5114C301.121 1.25152 301.747 1.29857 302.815 1.27007C303.33 1.25613 303.05 1.1555 303.097 1.14519C303.86 0.992349 304.392 1.18977 304.529 1.23016C305.035 1.37872 305.585 1.20318 305.929 1.30248C306.273 1.40104 305.482 1.54715 306.507 1.54528C306.794 1.45225 306.033 1.20913 306.811 1.16973C309.747 1.02069 315.227 1.21144 317.587 1.23125C319.943 1.25105 320.704 1.23389 322.077 1.26751C324.556 1.3283 323.648 1.14792 325.187 1.06536C326.731 0.982808 325.981 1.42662 326.203 1.52202C326.42 1.61739 326.658 1.51922 326.929 1.57165C327.2 1.62406 326.615 1.68893 327.25 1.70861C327.886 1.72827 329.624 1.55861 329.849 1.45885C330.326 1.24751 329.542 1.02569 331.225 1.10363C331.321 1.10826 331.007 1.22495 331.378 1.23675C334.32 1.32659 337.377 1.33215 340.315 1.41161C340.719 1.42272 340.358 1.55254 340.593 1.56048C343.043 1.64351 342.167 1.42462 343.51 1.18145C343.208 1.50505 343.95 1.70304 345.809 1.70495C346.927 1.70621 346.734 1.56487 347.457 1.46526C347.674 1.43523 348.465 1.53228 348.608 1.46581C349.081 1.24854 348.336 1.00532 350.252 1.10217C350.336 1.10677 350.069 1.2257 350.359 1.2329C352.237 1.28005 352.462 1.05278 354.492 1.02526C356.084 1.00367 358.914 1.14225 360.726 1.16479C360.687 1.52861 362.399 1.4453 363.093 1.19445C364.269 1.20472 365.539 1.19054 366.676 1.22521C367.067 1.23703 366.81 1.34237 366.859 1.35375C367.616 1.5323 368.127 1.28825 368.381 1.27868C371.132 1.18567 373.373 1.37064 375.998 1.18987C376.091 1.18336 376.242 0.930638 376.944 1.11517C376.989 1.12789 376.122 1.24287 377.357 1.25176C378.593 1.26067 380.921 1.39615 382.636 1.27904C383.051 1.25085 384.101 1.04569 384.943 1.20599C385.055 1.22775 384.932 1.30023 385.094 1.34057C385.618 1.46909 385.904 1.21365 386.52 1.43066C387.135 1.64766 388.415 1.81017 390.145 1.66045C390.2 1.6561 390.609 1.45364 391.153 1.45684C392.021 1.46212 393.254 1.5043 394.16 1.50298C394.594 1.50228 394.317 1.37656 394.392 1.37426C397.31 1.30381 399.387 1.41589 402.513 1.46453C403.087 1.4737 404.734 1.30226 405.843 1.4378C407.061 1.58617 405.809 2.20337 408.61 2.05632C409.739 1.99751 411.169 1.21448 413.199 1.62017C417.135 1.51964 420.776 1.72727 424.723 1.58373C424.9 1.57737 425.462 1.35883 425.879 1.36181C426.499 1.36665 426.839 1.46879 427.281 1.47552C429.135 1.50628 430.831 1.41889 432.619 1.43249C433.297 1.43743 433.06 1.54304 433.869 1.54894C434.678 1.55475 435.217 1.41567 436.313 1.48284C437.141 1.53404 437.969 1.8183 439.067 1.85143C439.109 1.57104 439.864 1.57682 441.205 1.5028C441.463 1.48844 441.187 1.39085 441.309 1.37902C441.805 1.32872 442.264 1.4096 442.735 1.35485C442.85 1.3417 442.856 1.24594 442.949 1.22979C443.746 1.08877 445.059 1.30416 445.285 1.34167C446.149 1.48409 446.553 1.35955 447.216 1.41564C447.878 1.47172 446.888 1.54183 447.661 1.57586C449.264 1.64625 451.323 1.63078 452.95 1.63518C453.6 1.63635 453.157 1.50853 453.25 1.50573C454.592 1.47331 455.951 1.60927 456.695 1.35467C457.626 2.01298 457.505 1.29081 459.424 1.4226C459.575 1.43326 459.768 1.74457 459.187 1.79027C458.607 1.83593 457.727 1.73862 456.921 1.80987C456.731 1.82658 455.638 2.1183 455.489 2.13598C454.321 2.27408 454.156 1.80887 454.094 1.78332C453.394 1.50757 452.058 1.82184 451.707 1.84356C450.099 1.94306 448.732 1.87764 447.387 1.94866C446.507 1.99456 446.421 2.29929 445.73 2.28997C443.434 2.25914 442.632 1.83403 440.468 2.20263C440.004 2.28124 440.465 2.6143 438.802 2.35241C438.697 2.33589 437.463 2.09631 436.75 2.24785C436.66 2.26696 436.663 2.36403 436.545 2.37218C435.753 2.42493 435.225 2.3476 434.363 2.38463C433.5 2.42167 432.463 2.47688 431.478 2.44396C430.885 2.42427 430.124 2.24342 429.839 2.19915C429.037 2.0716 428.177 2.28072 427.68 2.12627C427.179 1.97104 428.159 1.7353 426.845 1.635C426.796 1.88719 426.684 2.14603 426.606 2.39965C423.726 2.39077 420.893 2.30922 418.003 2.32036C417.645 2.322 418.012 2.45757 417.627 2.46282C416.007 2.48436 414.592 2.38771 412.912 2.4262C411.611 2.45651 410.185 2.60005 408.825 2.63622C407.995 2.34765 405.976 2.44561 404.511 2.41924C403.997 2.41013 404.031 2.33305 403.666 2.30791C402.288 2.21492 402.934 2.46993 402.556 2.51006C400.936 2.68133 400.797 2.10414 398.886 2.1184C398.785 2.11896 397.548 2.42663 397.378 2.44579C396.295 2.57073 397.198 2.3387 396.521 2.31597C395.283 2.27442 394.424 2.20095 392.972 2.29107C392.549 2.31776 391.533 2.50953 390.711 2.36119C390.603 2.34177 390.663 2.24007 390.576 2.23412C389 2.13484 388.959 2.45439 388.059 2.56261C387.158 2.67081 385.768 2.45022 385.484 2.38665C384.744 2.22218 386.052 2.31636 386.092 2.30022C386.563 2.10815 385.549 2.14122 384.774 2.12499C384.661 1.81167 383.578 1.83048 383.97 2.10943C384.015 2.13989 384.618 2.11068 384.774 2.12499C384.093 2.4324 382.902 2.47177 381.587 2.1845C380.971 2.04986 381.553 1.89288 379.682 1.95031C378.833 1.97623 379.161 2.19197 378.412 2.25078C376.7 2.38498 374.476 2.18373 372.711 2.21544C372.071 2.22695 372.695 2.34505 372.257 2.35698C371.095 2.38903 370.071 2.30042 368.904 2.34581C368.799 2.35008 369.057 2.47369 368.694 2.47527C365.944 2.48963 363.549 2.41045 360.678 2.40825C359.29 2.40725 356.81 2.47543 355.372 2.46172C352.881 2.43869 349.817 2.25893 347.689 2.3026C346.301 2.33055 346.605 2.4542 346.011 2.53844C344.863 2.70174 342.832 2.40923 342.558 2.36394C342.55 2.36244 343.744 2.33329 343.107 2.26983C342.736 2.13758 342.572 2.36337 342.558 2.36394C342.379 2.33468 339.993 2.30661 339.519 2.33025C339.262 2.34317 339.406 2.46031 339.271 2.46483C336.081 2.56967 332.885 2.59944 329.65 2.54467C329.593 2.5423 329.679 2.41127 329.545 2.40734C327.671 2.34908 326.472 2.50937 324.927 2.60454C323.382 2.69967 322.157 2.66781 321.243 2.44286C320.077 2.47118 318.405 2.37173 317.443 2.31139C316.481 2.25105 316.347 2.50612 316.262 2.51116C313.621 2.67255 312.095 2.52655 309.355 2.50383C308.053 2.49259 305.469 2.52959 304.059 2.55748C302.944 2.57995 302.273 2.52018 301.246 2.5584C301.107 2.5635 301.247 2.67707 301.205 2.68144C300.059 2.81732 300.61 2.53969 300.373 2.4901C299.515 2.30978 298.985 2.21375 297.517 2.29857C297.179 2.318 296.193 2.71776 295.576 2.74114C294.773 2.7708 295.076 2.62751 294.236 2.66222C294.164 2.66506 294.179 2.75346 293.661 2.74956C291.254 2.73263 288.63 2.68119 286.128 2.69005C285.787 2.69092 286.225 2.83114 285.731 2.8347C283.415 2.85132 280.876 2.84614 278.62 2.7805C278.064 2.76391 278.412 2.66573 278.292 2.63658C277.552 2.46021 276.502 2.71648 276.329 2.72136C272.197 2.84451 269.035 2.61259 264.824 2.72301C264.595 2.72949 262.83 3.00422 262.043 2.7686C261.989 2.75293 261.21 2.51187 260.522 2.67668C260.479 2.687 260.964 2.8111 260.117 2.79845C259.27 2.78583 257.907 2.8687 256.743 2.73235C256.375 2.68939 255.503 2.44893 254.404 2.64061C254.332 2.65399 252.635 3.08742 252.029 2.78838C251.931 2.73915 252.034 2.4227 250.722 2.58495C250.471 2.6164 250.926 2.68699 250.266 2.73107C249.254 2.799 247.913 2.71424 246.669 2.85521C246.452 2.88017 245.528 3.09496 244.788 2.93193C244.672 2.9064 244.892 2.80075 244.501 2.78893C242.641 2.73221 240.693 2.80288 238.804 2.72978C238.135 2.7041 238.477 2.53331 237.779 2.48754C237.082 2.44178 235.677 2.39777 234.947 2.47582C234.217 2.5539 235.014 2.82611 233.921 2.84789C229.167 2.94249 224.457 2.78281 219.71 2.75945C219.006 2.75596 219.59 2.85336 218.552 2.85521C214.727 2.86246 208.122 2.95378 204.803 2.74681C202.143 2.58104 205.49 2.45484 203.458 2.38738C202.477 2.3552 201.416 2.67166 201.179 2.68163C198.866 2.78283 197.259 2.64265 195.177 2.68566C194.748 2.69458 195.169 2.82285 194.803 2.82903C193.554 2.85127 192.24 2.79402 191.046 2.80449C190.51 2.80948 190.609 2.90745 190.116 2.89989C188.937 2.88293 187.894 2.84175 186.744 2.74993C186.639 2.74156 187.346 2.61969 186.473 2.61516C185.061 2.60817 183.308 2.51759 181.683 2.61113C181.201 2.63927 181.182 2.86317 180.145 2.70854C179.928 2.67625 180.205 2.4074 178.998 2.6397C178.795 2.6783 176.767 2.99163 175.772 2.78966C175.509 2.7365 174.839 2.5165 174.259 2.55107C174.181 2.55659 174.496 2.67686 174.015 2.68859C172.322 2.72784 170.548 2.715 168.808 2.75267C168.344 2.76297 169.035 2.88742 168.343 2.89879C166.439 2.93025 164.062 2.89856 162.201 2.85961C161.514 2.84501 161.989 2.74192 161.939 2.7307C161.136 2.54823 160.661 2.79452 160.394 2.80889C158.736 2.89488 157.474 2.77918 155.946 2.8098C155.524 2.81794 155.823 2.93538 155.739 2.94585C154.869 3.04816 155.517 2.83726 154.966 2.81401C153.422 2.74819 151.701 2.75762 150.14 2.77263C149.567 2.77832 150.211 2.91449 149.697 2.91802C146.651 2.94148 143.484 2.92845 140.511 2.85338C139.952 2.839 140.304 2.73414 140.187 2.71019C139.383 2.54264 138.205 2.77118 137.934 2.79296C136.701 2.89236 136.222 2.79964 135.133 2.81694C129.814 2.90311 123.247 2.8417 118.227 2.80376C111.685 2.75493 106.608 2.65518 100.37 2.68108C99.973 2.68259 100.373 2.82209 100.031 2.82518C95.6181 2.85881 91.2736 2.8043 86.8517 2.84459C86.4889 2.84765 87.0119 2.97989 86.4295 2.98924C85.2349 3.00936 83.7217 3.00217 82.5139 2.95995C81.9248 2.9396 82.715 2.82613 82.1219 2.80797C80.7412 2.76543 79.2611 2.75601 77.8429 2.77721C77.2393 2.78652 78.1499 2.92177 77.3654 2.92333C72.0216 2.93674 66.7734 2.96004 61.3732 2.7849C61.003 2.77287 60.6782 2.498 59.891 2.55071C59.8317 2.62699 59.835 2.71673 59.8091 2.79827C52.0298 2.84219 44.33 2.7469 36.5289 2.73217C36.2 2.73158 36.7684 2.87722 36.1316 2.87682C32.446 2.87466 28.8671 2.91501 25.0972 2.77025C24.7231 2.75609 24.915 2.49987 23.8127 2.53862C23.6183 2.54569 21.9581 2.57987 21.5289 2.63549C21.4706 2.64388 21.7735 2.76347 21.2385 2.76695C18.1297 2.78512 14.8717 2.75781 11.7682 2.68474C11.2674 2.67272 11.8008 2.54536 11.444 2.53569C8.91342 2.46809 6.16085 2.5649 3.74274 2.44927C2.12414 2.37141 2.72339 2.15126 1.86329 1.93456C1.74164 1.90399 0.739354 1.89914 0.687523 1.77306C0.554456 1.45602 1.03993 1.10886 0.840729 0.770929C0.798643 0.69814 -0.543675 0.776538 0.251063 0.600641C0.306584 0.588869 1.27977 0.53049 1.51947 0.47082C1.68635 0.429565 1.38562 0.301341 1.72612 0.24853C2.06659 0.195769 2.44072 0.303253 3.00521 0.241206C3.56945 0.178391 3.32135 0.032522 4.4482 0.0152547ZM313.111 2.04168C312.22 1.91918 312.088 2.36783 313.052 2.26049C313.098 2.25477 313.157 2.04769 313.111 2.04168ZM420.909 1.97081C419.744 1.77293 418.947 2.0639 419.769 2.21672C420.59 2.36939 421.264 2.0308 420.909 1.97081ZM432.987 1.82635C431.626 1.67032 431.412 2.30652 432.87 2.17791C432.954 2.17064 433.067 1.8354 432.987 1.82635ZM5.852 1.87285C5.8397 1.8669 5.11922 1.86109 5.102 1.86699C4.71836 2.00948 6.15902 2.02099 5.852 1.87285ZM444.973 1.66906C444.548 1.583 443.324 1.68234 443.852 1.78936C444.277 1.87545 445.502 1.77611 444.973 1.66906ZM266.634 1.56286C266.62 1.55617 266.103 1.55015 266.114 1.58794C266.149 1.70966 266.868 1.67531 266.634 1.56286ZM465.344 1.66173C462.334 1.63779 460.51 1.11226 463.787 1.17156C464.381 1.18229 462.508 1.33915 463.263 1.38653C464.646 1.47284 465.563 1.14288 466.974 1.31969C467.229 1.35206 465.516 1.66427 465.339 1.66247C465.341 1.66222 465.342 1.66198 465.344 1.66173ZM312.598 1.5028C312.58 1.49687 311.865 1.49124 311.848 1.49712C311.46 1.63955 312.901 1.65097 312.598 1.5028ZM236.493 1.28545C236.454 1.27281 234.794 1.26099 234.74 1.27264C233.875 1.50555 237.229 1.53014 236.493 1.28545ZM360.754 1.17449C361.534 1.03121 362.468 1.01433 363.09 1.19427C362.314 1.18472 361.534 1.18331 360.754 1.17449Z" fill="var(--stroke-0, white)"/>
</svg>
