<svg preserveAspectRatio="none" width="100%" height="100%" overflow="visible" style="display: block;" viewBox="0 0 53.2639 53.2639" fill="none" xmlns="http://www.w3.org/2000/svg">
<g id="Pedestrian SVG Icon 3" clip-path="url(#clip0_5039_7)">
<path id="Vector" d="M36.0816 23.3029L34.0083 18.1192C33.6403 17.1907 33.0011 16.3947 32.174 15.8348C31.347 15.275 30.3704 14.9772 29.3717 14.9805H22.5609C21.6556 14.9806 20.7674 15.2266 19.9911 15.6924L11.6515 20.6957V29.9609H14.9805V22.5812L19.9739 19.5851V39.444L14.212 48.0883L16.9818 49.9349L23.3029 40.4517V18.3094H29.3717C29.7046 18.3084 30.0301 18.4078 30.3057 18.5945C30.5813 18.7812 30.7942 19.0467 30.9167 19.3562L33.8272 26.6319H43.2769V23.3029H36.0816Z" fill="var(--fill-0, white)"/>
<path id="Vector_2" d="M28.3813 30.4869L31.6254 40.2175V49.9349H34.9544V39.6782L31.5405 29.4349L28.3813 30.4869Z" fill="var(--fill-0, white)"/>
<path id="Vector_3" d="M27.4642 13.316C26.312 13.316 25.1856 12.9743 24.2276 12.3341C23.2695 11.694 22.5228 10.7842 22.0819 9.71964C21.641 8.65513 21.5256 7.48377 21.7504 6.35368C21.9752 5.2236 22.53 4.18556 23.3448 3.37081C24.1595 2.55607 25.1975 2.00122 26.3276 1.77644C27.4577 1.55165 28.6291 1.66702 29.6936 2.10795C30.7581 2.54889 31.668 3.29559 32.3081 4.25362C32.9482 5.21166 33.2899 6.33801 33.2899 7.49023C33.2881 9.03474 32.6737 10.5155 31.5815 11.6076C30.4894 12.6997 29.0087 13.3141 27.4642 13.316ZM27.4642 4.99349C26.9704 4.99349 26.4876 5.13992 26.0771 5.41426C25.6665 5.68861 25.3465 6.07855 25.1575 6.53477C24.9685 6.99099 24.9191 7.493 25.0154 7.97732C25.1117 8.46164 25.3495 8.90652 25.6987 9.25569C26.0479 9.60487 26.4928 9.84266 26.9771 9.939C27.4614 10.0353 27.9634 9.98589 28.4196 9.79692C28.8759 9.60795 29.2658 9.28793 29.5401 8.87735C29.8145 8.46676 29.9609 7.98404 29.9609 7.49023C29.9602 6.82828 29.6969 6.19366 29.2288 5.72559C28.7607 5.25752 28.1261 4.99423 27.4642 4.99349Z" fill="var(--fill-0, white)"/>
<g id="&#60;Transparent Rectangle&#62;">
</g>
</g>
<defs>
<clipPath id="clip0_5039_7">
<rect width="53.2639" height="53.2639" fill="white"/>
</clipPath>
</defs>
</svg>
