<svg preserveAspectRatio="none" width="100%" height="100%" overflow="visible" style="display: block;" viewBox="0 0 44 41" fill="none" xmlns="http://www.w3.org/2000/svg">
<path id="Vector" fill-rule="evenodd" clip-rule="evenodd" d="M29.8825 10.839L26.6768 3.3019C24.9055 -0.861502 19.0755 -1.08761 16.8633 2.62337C16.7367 2.83548 16.622 3.06073 16.5205 3.29871C16.5205 3.2985 16.5205 3.29893 16.5205 3.29871C16.5201 3.29956 16.5196 3.30084 16.5192 3.3019L16.2207 4.00651L13.3158 10.8369L5.15022 11.3491C0.259127 11.6567 -1.80392 17.5674 1.88481 20.7089L8.42469 26.2788L6.58821 33.6801C5.45475 38.2474 10.4923 41.9168 14.6782 39.5686L21.598 35.683L28.5178 39.5686C32.7013 41.9168 37.739 38.2497 36.6077 33.6823L34.7715 26.2811L41.3111 20.7112C45.0001 17.5719 42.9368 11.659 38.0457 11.3515L29.8825 10.839ZM32.8302 34.5846L30.9942 27.1849L30.4329 24.9223L32.2242 23.3967L38.7639 17.8268C39.7725 16.9684 39.287 15.2555 37.7978 15.1615L29.6346 14.6491L27.2256 14.4978L26.2953 12.3106L23.0898 4.77369C22.5479 3.50085 20.6518 3.49937 20.1077 4.77051L16.903 12.3083L15.9726 14.4957L13.5637 14.6469L5.39859 15.1594C3.91049 15.2531 3.42043 16.9631 4.43187 17.8245L10.9717 23.3946L12.7631 24.9202L12.2018 27.1827L10.3653 34.5839C10.0629 35.8022 11.4422 36.9871 12.7497 36.2534L19.6684 32.3687L21.598 31.2851L23.5278 32.3687L30.4471 36.254C31.7516 36.9862 33.1324 35.8046 32.8302 34.5846Z" fill="var(--fill-0, #141414)"/>
</svg>
