<svg preserveAspectRatio="none" width="100%" height="100%" overflow="visible" style="display: block;" viewBox="0 0 1 862" fill="none" xmlns="http://www.w3.org/2000/svg">
<path id="Vector 42" d="M0.994915 8.2106C1.00794 13.041 0.994013 19.3729 0.974896 24.185C0.968966 25.6932 0.942462 24.9295 0.937176 25.9706C0.926871 28.0067 0.93987 29.9036 0.927594 31.9158C0.923395 32.5826 0.881413 31.7526 0.877972 32.4518C0.859418 36.2834 0.870112 39.9083 0.861187 43.7897C0.817157 62.9087 0.801398 81.7022 0.782269 101.055C0.775998 107.436 0.737897 115.193 0.754559 121.784C0.756542 122.554 0.793392 122.095 0.796429 122.241C0.842925 124.537 0.768533 123.774 0.758649 125.273C0.719623 131.223 0.716229 137.84 0.730451 143.566C0.736609 146.002 0.809802 143.559 0.76872 146.012C0.765944 146.183 0.726812 145.565 0.722638 146.233C0.713251 147.748 0.720245 150.622 0.717145 151.796C0.710972 154.059 0.711365 154.434 0.710919 156.574C0.709969 159.5 0.690517 162.981 0.699384 166.12C0.701393 166.79 0.741507 165.903 0.748334 166.972C0.755149 168.042 0.751748 170.871 0.742291 171.825C0.73283 172.78 0.701301 172.373 0.694074 172.542C0.633075 173.931 0.717558 177.205 0.719647 177.626C0.755247 185.305 0.70712 191.89 0.707257 199.098C0.707464 204.57 0.723352 210.422 0.721173 215.628C0.718422 221.832 0.696685 227.089 0.700421 233.115C0.70077 233.752 0.747935 233.006 0.748456 233.783C0.753944 242.036 0.748803 250.231 0.716962 258.448C0.713727 259.272 0.672316 258.21 0.666608 259.034C0.632576 264.075 0.550821 272.05 0.731122 275.044C0.724082 278.459 0.716807 282.604 0.680463 285.659C0.657071 287.628 0.611958 285.716 0.631208 288.135C0.635497 288.681 0.675005 287.971 0.678449 288.789C0.692912 292.235 0.68007 295.999 0.700482 299.407C0.704727 300.1 0.740128 299.911 0.746503 300.108C0.798129 301.758 0.712787 304.507 0.706586 305.106C0.660342 309.668 0.67854 312.999 0.677411 317.249C0.677129 318.236 0.72468 317.07 0.726117 318.019C0.732932 322.941 0.728845 328.039 0.707746 332.859C0.702938 333.931 0.662433 332.945 0.658063 333.457C0.639288 335.716 0.715791 336.217 0.699262 338.383C0.695875 338.84 0.6612 338.582 0.657392 338.666C0.597611 339.97 0.682316 341.102 0.684186 341.438C0.709739 345.68 0.621311 348.392 0.633832 352.49C0.63542 352.98 0.679294 351.874 0.681073 353.253C0.693185 362.434 0.681133 372.145 0.646039 381.233C0.640642 382.646 0.607683 381.637 0.60362 381.726C0.540136 383.175 0.625197 384.113 0.6284 384.574C0.651459 388.208 0.580126 391.604 0.68144 394.073C0.64628 409.467 0.703173 424.79 0.612409 440.057C0.611358 440.251 0.569465 439.903 0.567548 440.29C0.544026 444.953 0.609135 444.058 0.688764 447.143C0.708759 447.92 0.61262 450.284 0.605573 450.494C0.579604 451.256 0.51728 450.465 0.512251 450.72C0.472759 452.832 0.678871 452.488 0.678937 455.337C0.678593 455.426 0.640656 455.052 0.636884 455.291C0.625042 456.034 0.640117 456.771 0.627057 457.498C0.596839 459.161 0.496687 459.754 0.554975 462.295C0.56254 462.617 0.679455 462.126 0.673932 464.669C0.671631 465.683 0.673635 470.172 0.666059 471.43C0.658491 472.686 0.620815 471.824 0.619184 471.913C0.569364 475.299 0.548716 474.015 0.474958 475.711C0.401478 477.407 0.576735 476.937 0.596296 477.628C0.615801 478.321 0.574697 480.803 0.560407 481.413C0.546112 482.023 0.522171 481.263 0.514082 481.805C0.461227 485.399 0.601072 483.382 0.628888 484.567C0.694751 487.359 0.564781 489.534 0.552045 492.09C0.548606 492.782 0.578208 492.217 0.580976 492.833C0.591548 495.273 0.550994 496.74 0.588178 499.515C0.594238 499.969 0.672379 502.213 0.615033 503.665C0.606764 503.871 0.574376 503.286 0.567121 504.326C0.556233 505.879 0.549154 508.677 0.55998 510.347C0.56799 511.579 0.621358 510.167 0.60478 511.718C0.597377 512.407 0.566156 511.13 0.554853 512.425C0.543553 513.714 0.544925 517.008 0.546003 518.262C0.547105 519.513 0.587587 518.828 0.590314 518.929C0.605937 519.541 0.625458 521.943 0.625409 522.155C0.630351 532.86 0.562114 542.731 0.584699 553.154C0.586413 553.971 0.629102 553.427 0.629804 553.551C0.64769 556.352 0.534189 554.144 0.496198 556.1C0.582827 555.817 0.567142 556.972 0.576642 558.944C0.581291 559.894 0.614835 559.377 0.618268 559.464C0.669217 560.873 0.60341 561.855 0.589948 562.108C0.540428 563.041 0.598939 564.057 0.565839 564.692C0.532987 565.327 0.484283 563.866 0.484907 565.758C0.515917 566.288 0.596956 564.884 0.61009 566.32C0.659769 571.739 0.596187 581.854 0.589582 586.211C0.582983 590.559 0.588704 591.963 0.577497 594.497C0.557233 599.074 0.617359 597.396 0.64488 600.238C0.672397 603.089 0.524461 601.703 0.492658 602.113C0.46087 602.515 0.493593 602.954 0.476118 603.454C0.458647 603.953 0.437024 602.873 0.430464 604.046C0.42391 605.22 0.480463 608.428 0.513715 608.844C0.584164 609.723 0.658103 608.277 0.632123 611.382C0.630581 611.561 0.591682 610.981 0.587751 611.665C0.557805 617.096 0.555948 622.738 0.529462 628.162C0.52576 628.908 0.482486 628.241 0.479841 628.675C0.452162 633.196 0.525128 631.58 0.606183 634.058C0.498316 633.502 0.432321 634.872 0.431684 638.303C0.431264 640.366 0.478375 640.011 0.511579 641.345C0.521589 641.745 0.48924 643.205 0.511396 643.469C0.58382 644.341 0.664894 642.967 0.632612 646.504C0.631077 646.66 0.591433 646.165 0.589033 646.702C0.573318 650.168 0.649072 650.583 0.658246 654.331C0.665445 657.268 0.619251 662.492 0.611738 665.836C0.490463 665.766 0.518233 668.925 0.60185 670.206C0.598427 672.377 0.603154 674.721 0.591596 676.819C0.587656 677.541 0.552543 677.067 0.54875 677.158C0.489235 678.554 0.570585 679.498 0.573774 679.966C0.604776 685.043 0.543119 689.181 0.603376 694.027C0.605546 694.199 0.689787 694.477 0.628278 695.773C0.624038 695.856 0.58571 694.256 0.582746 696.536C0.579775 698.815 0.534616 703.113 0.573652 706.279C0.583049 707.045 0.651436 708.982 0.598005 710.537C0.590749 710.744 0.566589 710.517 0.553144 710.817C0.510305 711.783 0.595451 712.311 0.523115 713.447C0.450781 714.583 0.396609 716.947 0.446516 720.139C0.447967 720.24 0.515454 720.996 0.514387 722C0.512625 723.603 0.498566 725.877 0.499006 727.551C0.499241 728.352 0.541147 727.839 0.541914 727.978C0.565396 733.365 0.528037 737.199 0.511823 742.969C0.508768 744.027 0.565914 747.067 0.520734 749.115C0.471277 751.364 0.265544 749.053 0.314558 754.222C0.334163 756.307 0.595174 758.946 0.459944 762.692C0.493453 769.958 0.424243 776.678 0.47209 783.964C0.474209 784.292 0.547055 785.328 0.546064 786.098C0.544451 787.242 0.510404 787.87 0.508161 788.686C0.497906 792.108 0.527035 795.239 0.522504 798.538C0.520858 799.79 0.485654 799.352 0.483686 800.846C0.481751 802.339 0.528109 803.335 0.50572 805.358C0.488654 806.886 0.393901 808.413 0.382856 810.441C0.47632 810.519 0.474395 811.911 0.499067 814.387C0.503854 814.863 0.536384 814.353 0.540327 814.578C0.557093 815.494 0.530132 816.342 0.548383 817.212C0.552767 817.424 0.584685 817.434 0.59007 817.607C0.637076 819.078 0.565279 821.501 0.552778 821.918C0.505302 823.513 0.546815 824.258 0.52812 825.482C0.509426 826.704 0.486058 824.877 0.474714 826.304C0.451251 829.262 0.456406 833.063 0.454939 836.067C0.454551 837.266 0.497157 836.448 0.49809 836.619C0.508897 839.098 0.463576 841.605 0.548444 842.979C0.329006 844.697 0.569729 844.474 0.5258 848.016C0.522247 848.296 0.418477 848.651 0.403242 847.579C0.388022 846.508 0.420459 844.883 0.396711 843.396C0.391138 843.044 0.293899 841.028 0.288008 840.753C0.241973 838.598 0.397044 838.292 0.405561 838.178C0.497477 836.885 0.39272 834.421 0.385481 833.772C0.352313 830.803 0.374122 828.281 0.350447 825.798C0.335146 824.174 0.233568 824.015 0.236678 822.74C0.246954 818.5 0.388656 817.021 0.265791 813.026C0.239587 812.17 0.128566 813.021 0.215865 809.951C0.221368 809.759 0.301231 807.48 0.250716 806.163C0.244347 805.998 0.211991 806.003 0.209273 805.785C0.191692 804.324 0.217468 803.349 0.205123 801.757C0.192777 800.165 0.174373 798.251 0.185347 796.433C0.19191 795.338 0.252192 793.933 0.266951 793.408C0.309467 791.927 0.239759 790.34 0.291243 789.423C0.342986 788.498 0.421567 790.306 0.455 787.881C0.370938 787.791 0.284657 787.584 0.200118 787.44C0.203078 782.124 0.23026 776.894 0.226546 771.561C0.226001 770.9 0.180809 771.576 0.179061 770.867C0.171881 767.876 0.204097 765.264 0.191268 762.163C0.181164 759.762 0.133315 757.13 0.121261 754.62C0.217451 753.086 0.184797 749.361 0.193587 746.655C0.196624 745.708 0.222315 745.771 0.230696 745.097C0.261694 742.554 0.176691 743.745 0.163314 743.048C0.106222 740.057 0.298621 739.801 0.293868 736.274C0.293681 736.088 0.191124 733.804 0.184737 733.489C0.143091 731.49 0.220433 733.158 0.228011 731.908C0.241858 729.624 0.266351 728.037 0.236312 725.357C0.227414 724.576 0.163491 722.702 0.212935 721.184C0.21941 720.985 0.253308 721.095 0.255293 720.935C0.288385 718.027 0.181871 717.95 0.145797 716.288C0.109731 714.626 0.183259 712.059 0.204451 711.537C0.259273 710.17 0.22788 712.584 0.23326 712.658C0.297283 713.527 0.28626 711.655 0.29167 710.225C0.396109 710.017 0.38984 708.017 0.296858 708.742C0.286702 708.824 0.296442 709.937 0.29167 710.225C0.189201 708.969 0.176078 706.77 0.271834 704.342C0.316713 703.205 0.36904 704.28 0.349898 700.827C0.341256 699.26 0.269345 699.865 0.249739 698.482C0.205007 695.323 0.272088 691.217 0.261519 687.96C0.257682 686.777 0.218318 687.929 0.214339 687.121C0.203657 684.977 0.233192 683.086 0.218062 680.933C0.216641 680.738 0.175435 681.214 0.17491 680.545C0.170125 675.468 0.196518 671.048 0.197249 665.747C0.197584 663.186 0.174858 658.608 0.179427 655.955C0.187103 651.357 0.247023 645.7 0.232466 641.773C0.223149 639.211 0.181934 639.773 0.153853 638.675C0.0994207 636.557 0.196922 632.807 0.21202 632.302C0.212519 632.287 0.222235 634.491 0.243392 633.315C0.287475 632.631 0.212211 632.327 0.21202 632.302C0.221773 631.971 0.231129 627.567 0.22325 626.693C0.218945 626.217 0.179896 626.483 0.178389 626.235C0.143445 620.347 0.13352 614.448 0.151778 608.475C0.152567 608.37 0.196245 608.529 0.197554 608.281C0.216975 604.824 0.163543 602.61 0.13182 599.758C0.100111 596.907 0.110731 594.646 0.185714 592.958C0.176273 590.807 0.209422 587.72 0.229537 585.944C0.249651 584.168 0.164628 583.92 0.162948 583.764C0.10915 578.89 0.157815 576.072 0.165389 571.015C0.169135 568.611 0.156803 563.842 0.147506 561.239C0.140016 559.182 0.159941 557.943 0.1472 556.047C0.145499 555.791 0.107643 556.05 0.106185 555.972C0.0608921 553.856 0.153438 554.873 0.169967 554.436C0.230073 552.852 0.262085 551.874 0.233809 549.165C0.227334 548.54 0.0940805 546.72 0.0862876 545.581C0.0764001 544.1 0.124163 544.659 0.112594 543.108C0.111647 542.975 0.0821807 543.003 0.08348 542.046C0.0891233 537.603 0.106269 532.76 0.103316 528.143C0.103026 527.512 0.0562876 528.321 0.0550987 527.41C0.0495585 523.134 0.0512882 518.448 0.0731651 514.283C0.0786969 513.258 0.111422 513.9 0.121139 513.678C0.179931 512.312 0.0945071 510.374 0.0928794 510.054C0.0518287 502.428 0.129136 496.591 0.0923301 488.818C0.0901693 488.395 -0.00140694 485.138 0.0771324 483.685C0.0823576 483.586 0.162711 482.148 0.107772 480.877C0.104335 480.798 0.0629675 481.694 0.0671837 480.131C0.0713907 478.568 0.0437658 476.052 0.0892173 473.903C0.103535 473.223 0.183691 471.615 0.119796 469.585C0.115335 469.453 -0.0291402 466.32 0.0705406 465.202C0.086949 465.021 0.192434 465.211 0.13835 462.788C0.127865 462.326 0.104337 463.166 0.0896445 461.947C0.0670008 460.079 0.0952532 457.604 0.0482628 455.308C0.0399439 454.907 -0.031653 453.203 0.0226892 451.835C0.0312001 451.621 0.0664164 452.028 0.0703575 451.306C0.0892623 447.872 0.065706 444.276 0.0900718 440.79C0.0986335 439.555 0.155565 440.186 0.170821 438.899C0.186072 437.612 0.200743 435.018 0.174727 433.671C0.1487 432.323 0.0579649 433.795 0.0507042 431.777C0.0191704 423.001 0.072398 414.309 0.0801841 405.546C0.081347 404.246 0.0488792 405.324 0.0482628 403.409C0.0458474 396.348 0.0154054 384.157 0.0843955 378.03C0.139653 373.121 0.181721 379.299 0.204207 375.547C0.214934 373.737 0.109445 371.778 0.106124 371.341C0.0723889 367.072 0.119118 364.106 0.104781 360.263C0.101806 359.47 0.0590505 360.248 0.0569908 359.573C0.0495761 357.266 0.0686602 354.842 0.0651695 352.638C0.0635051 351.649 0.0308499 351.831 0.0333703 350.921C0.0390247 348.744 0.0527515 346.819 0.0833579 344.697C0.0861469 344.503 0.126769 345.807 0.12828 344.197C0.130609 341.59 0.160803 338.354 0.129622 335.355C0.120243 334.465 0.04561 334.43 0.0971518 332.517C0.107917 332.116 0.197534 332.628 0.120101 330.399C0.107233 330.024 0.00278969 326.281 0.0701133 324.444C0.0878321 323.959 0.161167 322.723 0.149642 321.652C0.147803 321.507 0.107715 322.089 0.103805 321.202C0.0907213 318.077 0.0949984 314.801 0.0824424 311.59C0.0790102 310.733 0.0375272 312.01 0.0337365 310.732C0.0232513 307.218 0.0338136 302.83 0.046798 299.394C0.0516639 298.127 0.0860271 299.003 0.0897666 298.911C0.150592 297.428 0.0684918 296.552 0.0637047 296.06C0.0350395 293 0.073605 290.669 0.0633995 287.849C0.0606871 287.07 0.0215411 287.622 0.0180505 287.467C-0.0160547 285.86 0.0542465 287.057 0.0619957 286.04C0.083938 283.191 0.0807918 280.014 0.0757896 277.132C0.0738946 276.074 0.0285039 277.264 0.0273278 276.314C0.0195062 270.691 0.0238496 264.846 0.0488732 259.359C0.0536672 258.326 0.0886194 258.976 0.0966025 258.761C0.152455 257.277 0.0762717 255.102 0.0690147 254.601C0.0358793 252.326 0.0667883 251.442 0.0610191 249.432C0.032295 239.615 0.0527665 227.493 0.0654137 218.226C0.0816906 206.15 0.114941 196.78 0.106307 185.265C0.105802 184.533 0.0593049 185.271 0.0582726 184.64C0.0470636 176.494 0.0652328 168.475 0.0518029 160.313C0.0507832 159.643 0.0067035 160.609 0.00358523 159.534C-0.00311985 157.329 -0.000723989 154.536 0.0133508 152.306C0.0201324 151.219 0.0579567 152.677 0.0640098 151.583C0.0781909 149.034 0.0813303 146.302 0.0742637 143.684C0.0711605 142.57 0.0260781 144.251 0.0255578 142.803C0.0210853 132.939 0.013321 123.252 0.0717003 113.284C0.0757097 112.601 0.167335 112.001 0.149764 110.548C0.124336 110.439 0.0944238 110.445 0.0672447 110.397C0.0526038 96.0379 0.0843673 81.8253 0.0892783 67.4259C0.089475 66.8188 0.0409274 67.868 0.0410607 66.6926C0.0417785 59.8897 0.0283293 53.2836 0.076583 46.325C0.0813021 45.6346 0.166709 45.9888 0.153792 43.9542C0.151435 43.5953 0.140045 40.5309 0.121505 39.7386C0.118708 39.631 0.0788435 40.1901 0.0776817 39.2026C0.0716281 33.4642 0.0807291 27.4506 0.105086 21.7221C0.109094 20.7976 0.151546 21.7822 0.154769 21.1237C0.177304 16.4526 0.145033 11.3718 0.183577 6.90844C0.20953 3.92079 0.282913 5.02691 0.355147 3.43931C0.365338 3.21476 0.366953 1.36472 0.408979 1.26905C0.51466 1.02343 0.630379 1.91953 0.743024 1.55184C0.767287 1.47415 0.741154 -1.00353 0.799786 0.463419C0.80371 0.565901 0.82317 2.36223 0.84306 2.80467C0.856812 3.11271 0.899553 2.55761 0.917157 3.18611C0.934744 3.81456 0.898916 4.50514 0.919598 5.54709C0.940536 6.58858 0.989159 6.13063 0.994915 8.2106ZM0.319441 577.947C0.360272 576.303 0.210725 576.06 0.246504 577.839C0.248411 577.925 0.317438 578.032 0.319441 577.947ZM0.343062 776.924C0.409023 774.774 0.312034 773.303 0.261092 774.819C0.210204 776.336 0.323066 777.579 0.343062 776.924ZM0.391218 799.219C0.443225 796.706 0.231161 796.31 0.274031 799.001C0.276454 799.158 0.388198 799.365 0.391218 799.219ZM0.375715 10.8018C0.377701 10.7791 0.379637 9.44918 0.377669 9.41739C0.330173 8.70926 0.326335 11.3685 0.375715 10.8018ZM0.443647 821.342C0.472334 820.558 0.439219 818.299 0.403547 819.274C0.374851 820.058 0.407963 822.319 0.443647 821.342ZM0.479048 492.159C0.481276 492.133 0.483283 491.18 0.470686 491.199C0.430114 491.264 0.441564 492.591 0.479048 492.159ZM0.446089 858.943C0.454071 853.388 0.629246 850.02 0.609479 856.07C0.605903 857.165 0.553617 853.708 0.537824 855.103C0.509052 857.654 0.61904 859.348 0.560102 861.952C0.549314 862.424 0.445244 859.26 0.445845 858.934C0.445926 858.937 0.446007 858.94 0.446089 858.943ZM0.499067 577C0.501045 576.967 0.50292 575.647 0.500959 575.616C0.453482 574.901 0.449677 577.56 0.499067 577ZM0.571516 436.525C0.575729 436.452 0.579671 433.389 0.575788 433.289C0.49815 431.692 0.489952 437.884 0.571516 436.525ZM0.608503 665.889C0.656265 667.329 0.661888 669.052 0.601911 670.2C0.605095 668.768 0.605564 667.328 0.608503 665.889Z" fill="var(--stroke-0, white)"/>
</svg>
