<svg preserveAspectRatio="none" width="100%" height="100%" overflow="visible" style="display: block;" viewBox="0 0 11 67" fill="none" xmlns="http://www.w3.org/2000/svg">
<path id="Vector 72" d="M8.1626 65.9692C8.2011 65.6434 8.29015 65.1749 8.366 64.8201C8.38981 64.7075 8.43645 64.7709 8.45525 64.6912C8.49083 64.5445 8.47872 64.3934 8.51613 64.244C8.52887 64.1932 8.60708 64.2646 8.61854 64.2109C8.67986 63.9241 8.67879 63.6372 8.71457 63.3436C8.86403 62.0967 8.92445 60.8661 8.95879 59.5972L8.97594 59.7384C8.92599 59.5128 8.87523 59.2833 8.82386 59.0497C8.7163 58.5605 8.6444 57.944 8.4919 57.4543C8.47385 57.3965 8.41067 57.4488 8.40207 57.439C8.26922 57.2849 8.42797 57.3085 8.4194 57.1885C8.38539 56.714 8.27136 56.207 8.14023 55.7767C8.08443 55.5944 7.98594 55.8139 8.02172 55.6082C8.02405 55.5939 8.11136 55.6231 8.10744 55.5702C8.09842 55.4505 8.03278 55.2329 8.01748 55.1407C7.98828 54.9625 7.98102 54.935 7.94387 54.7725C7.89374 54.55 7.86947 54.2747 7.79582 54.0358C7.77987 53.9849 7.71766 54.0717 7.68515 53.992C7.65264 53.9123 7.60991 53.6975 7.61144 53.62C7.61307 53.543 7.68167 53.5598 7.69278 53.5436C7.78721 53.4104 7.56471 53.197 7.55316 53.1654C7.34815 52.591 7.32723 52.0651 7.2027 51.5143C7.10845 51.0983 6.97527 50.6487 6.89189 50.2533C6.79155 49.7763 6.7447 49.3618 6.63654 48.9026C6.62516 48.8539 6.54554 48.9313 6.53146 48.8718C6.38066 48.2335 6.25634 47.6099 6.18303 46.9627C6.17589 46.8983 6.27424 46.9622 6.27195 46.8969C6.25637 46.499 6.28482 45.8441 5.88459 45.693C5.84333 45.4289 5.79064 45.1066 5.81244 44.855C5.82649 44.6932 5.94543 44.8217 5.86908 44.6439C5.85201 44.604 5.78593 44.6743 5.76618 44.6132C5.68312 44.356 5.64842 44.0616 5.5542 43.8064C5.53485 43.7546 5.46851 43.7835 5.4529 43.7709C5.32547 43.664 5.44891 43.4163 5.45188 43.369C5.47103 43.0015 5.38318 42.7524 5.31878 42.4232C5.30388 42.3467 5.22894 42.4558 5.21125 42.3829C5.12072 42.0043 5.05085 41.615 5.01767 41.233C5.01056 41.1482 5.10522 41.2087 5.10589 41.1673C5.10796 40.9856 4.94979 40.9747 4.94935 40.8027C4.94905 40.7664 5.02099 40.7726 5.02719 40.7647C5.12466 40.6416 4.94127 40.5876 4.93251 40.5626C4.81792 40.2465 4.95027 40.0031 4.86352 39.6904C4.85296 39.653 4.78362 39.7556 4.75922 39.6493C4.59775 38.9501 4.47582 38.1904 4.41209 37.4793C4.40196 37.3682 4.48152 37.4338 4.4882 37.4254C4.59167 37.2898 4.41078 37.2489 4.39773 37.2144C4.29894 36.9408 4.38996 36.6531 4.15519 36.5006C4.00088 35.2968 3.67253 34.1352 3.64031 32.922C3.63969 32.9066 3.72699 32.9189 3.7254 32.8882C3.70709 32.5175 3.59154 32.6111 3.39248 32.4007C3.34247 32.3477 3.49956 32.1317 3.51059 32.1131C3.55135 32.0452 3.68488 32.0846 3.69131 32.0631C3.74033 31.8863 3.33903 31.9845 3.30013 31.7637C3.29959 31.7567 3.37942 31.7726 3.3836 31.7528C3.39682 31.6911 3.35711 31.6392 3.37296 31.5783C3.40991 31.4388 3.59913 31.3581 3.44995 31.181C3.43074 31.1588 3.20694 31.2369 3.18375 31.0389C3.17468 30.96 3.11073 30.6138 3.1089 30.5137C3.10706 30.4138 3.19283 30.4679 3.19484 30.4604C3.24793 30.1812 3.30574 30.2736 3.42857 30.1172C3.55089 29.9609 3.21165 30.0565 3.1639 30.0094C3.11627 29.9624 3.16424 29.7547 3.18454 29.7036C3.20473 29.6518 3.2619 29.7024 3.27074 29.6579C3.32785 29.363 3.07854 29.5654 3.00817 29.4832C2.84172 29.2895 3.06961 29.0779 3.06143 28.8755C3.0592 28.8208 3.00817 28.8744 2.99468 28.8275C2.94207 28.6418 3.00299 28.5145 2.89365 28.3107C2.87586 28.2777 2.69289 28.1302 2.78744 27.9991C2.80112 27.9805 2.87251 28.0151 2.87351 27.9324C2.87511 27.8088 2.85335 27.5899 2.81072 27.4639C2.77921 27.371 2.69188 27.4978 2.70484 27.3721C2.71067 27.3162 2.78855 27.4052 2.79438 27.3011C2.80028 27.1975 2.75575 26.9418 2.73776 26.8445C2.71981 26.7479 2.64854 26.814 2.64188 26.807C2.60335 26.7648 2.53472 26.5855 2.53216 26.569C2.38822 25.7415 2.40153 24.9541 2.23107 24.1516C2.2178 24.0885 2.14002 24.144 2.13712 24.1345C2.06796 23.922 2.31893 24.0591 2.37043 23.8952C2.20263 23.9438 2.21962 23.8486 2.17736 23.6992C2.15684 23.6271 2.09671 23.6773 2.08889 23.6717C1.97137 23.5781 2.08978 23.482 2.11338 23.4583C2.20018 23.371 2.07244 23.3099 2.13035 23.2507C2.18777 23.1915 2.30137 23.2901 2.27772 23.1436C2.21013 23.1118 2.06655 23.2452 2.02357 23.1377C1.86085 22.7315 1.86852 21.9265 1.83168 21.5866C1.79467 21.2468 1.76732 21.139 1.76055 20.9384C1.74852 20.5761 1.64874 20.7247 1.56215 20.5119C1.47558 20.2986 1.78401 20.3637 1.84234 20.3228C1.90075 20.2825 1.83104 20.2578 1.86002 20.214C1.88901 20.1703 1.94392 20.2479 1.94375 20.155C1.94356 20.0621 1.79577 19.8289 1.72531 19.8059C1.57604 19.7575 1.44575 19.8911 1.46261 19.6419C1.46367 19.6275 1.54714 19.6617 1.54732 19.6073C1.54702 19.4905 1.54253 19.3731 1.536 19.2553C1.52499 18.9319 1.50106 18.6182 1.50389 18.3019C1.5046 18.2428 1.59653 18.2851 1.59793 18.2506C1.61296 17.8919 1.48232 18.0347 1.29957 17.86C1.51891 17.8798 1.63781 17.7568 1.60954 17.4891C1.5927 17.3283 1.5021 17.3663 1.42475 17.2698C1.40146 17.241 1.45344 17.1204 1.40712 17.1041C1.25574 17.0514 1.10604 17.1762 1.14047 16.8923C1.14222 16.8799 1.2252 16.9101 1.22548 16.8676C1.22783 16.5935 1.07389 16.5787 1.02486 16.286C0.986547 16.058 1.03667 15.6396 1.02566 15.3771C1.26753 15.3584 1.18784 15.1182 1.01152 15.0334C1.00161 14.8623 0.974549 14.681 0.981883 14.5148C0.984304 14.4573 1.05777 14.4879 1.06464 14.4801C1.17267 14.3591 1.00373 14.3007 0.99391 14.2646C0.894851 13.8747 0.98784 13.5381 0.834034 13.1703C0.828514 13.1573 0.658715 13.1502 0.77226 13.0378C0.780131 13.0305 0.867569 13.149 0.857694 12.97C0.847879 12.7916 0.90861 12.4467 0.809967 12.2061C0.786181 12.148 0.637152 12.0081 0.733498 11.8768C0.74661 11.8593 0.796241 11.8731 0.821093 11.8475C0.900202 11.7646 0.727069 11.7372 0.863973 11.6366C1.0009 11.5361 1.09379 11.3428 0.974397 11.1007C0.970873 11.093 0.831614 11.0446 0.827558 10.966C0.821231 10.8412 0.835299 10.6598 0.824366 10.529C0.819078 10.4664 0.738597 10.5129 0.736231 10.5021C0.657181 10.085 0.70933 9.779 0.709111 9.3239C0.709234 9.24052 0.578372 9.01145 0.657297 8.84395C0.743766 8.66098 1.16658 8.81289 1.04115 8.41638C0.990891 8.25545 0.456083 8.08401 0.706685 7.77266C0.602521 7.20819 0.707734 6.67248 0.578037 6.10813C0.572262 6.08266 0.421969 6.01001 0.420363 5.94947C0.418259 5.85959 0.483337 5.80641 0.484056 5.74222C0.488806 5.4734 0.416466 5.2306 0.410885 4.9719C0.408613 4.87342 0.480845 4.9038 0.478185 4.78645C0.47548 4.66919 0.378552 4.59645 0.414488 4.4355C0.441935 4.31368 0.62457 4.18351 0.637985 4.02355C0.451007 4.02761 0.448902 3.91853 0.389177 3.72688C0.37761 3.69008 0.314795 3.73359 0.305972 3.71636C0.268626 3.6463 0.318913 3.57695 0.278826 3.51072C0.269187 3.49461 0.205399 3.49722 0.193921 3.48424C0.0938954 3.37405 0.227237 3.17619 0.250493 3.14227C0.338726 3.01218 0.252756 2.95812 0.285085 2.86028C0.317424 2.76261 0.371566 2.90328 0.38839 2.79031C0.423148 2.55584 0.397502 2.2587 0.388393 2.02294C0.384366 1.92893 0.302541 1.99739 0.299988 1.98403C0.268475 1.79081 0.349038 1.58975 0.174065 1.49058C0.60557 1.33368 0.125611 1.37555 0.199363 1.09331C0.205359 1.07108 0.411237 1.03282 0.445895 1.11527C0.480526 1.19774 0.422157 1.32838 0.475487 1.44251C0.488013 1.46955 0.690252 1.61775 0.703114 1.63871C0.803642 1.80291 0.495131 1.84261 0.478573 1.85243C0.300139 1.96314 0.519271 2.14565 0.536345 2.19576C0.614533 2.42492 0.581217 2.62492 0.638656 2.81702C0.67586 2.94261 0.879392 2.94442 0.878428 3.04462C0.875406 3.37791 0.59856 3.50855 0.860803 3.80851C0.916772 3.87281 1.13485 3.7942 0.973562 4.04374C0.963386 4.05939 0.813647 4.24653 0.92023 4.34419C0.933664 4.35644 0.998253 4.35247 1.00462 4.36925C1.04607 4.48186 0.99881 4.56065 1.03044 4.68391C1.06206 4.80697 1.1073 4.95536 1.09348 5.09834C1.08525 5.18466 0.971214 5.30156 0.94412 5.34434C0.865918 5.4652 1.01236 5.58166 0.913765 5.65918C0.814703 5.73758 0.64949 5.60527 0.593908 5.79904C0.762155 5.79618 0.935371 5.80217 1.10482 5.80349C1.12352 6.22031 1.09415 6.63232 1.12786 7.04856C1.13221 7.10025 1.21907 7.04162 1.22607 7.09688C1.25526 7.33065 1.20401 7.53729 1.24561 7.77896C1.2781 7.96521 1.38729 8.16383 1.42473 8.35892C1.24091 8.49173 1.32604 8.77746 1.32352 8.99105C1.32266 9.06524 1.27107 9.06395 1.25807 9.11766C1.21037 9.32043 1.37333 9.2154 1.4039 9.26787C1.53459 9.49313 1.15229 9.54188 1.18202 9.81597C1.18345 9.83051 1.40127 9.99376 1.41587 10.0174C1.51068 10.1676 1.34661 10.0486 1.33888 10.1478C1.32471 10.3279 1.28529 10.4551 1.36147 10.6602C1.38399 10.7204 1.52283 10.8561 1.43361 10.9821C1.42194 10.9987 1.35367 10.9955 1.35071 11.0083C1.30277 11.2405 1.51569 11.2298 1.5981 11.3541C1.68041 11.4772 1.55027 11.6891 1.51144 11.7336C1.411 11.8494 1.45797 11.6556 1.4468 11.6508C1.31361 11.5935 1.34755 11.7376 1.3461 11.8506C1.13927 11.884 1.16489 12.04 1.34545 11.9676C1.36515 11.9595 1.33845 11.8738 1.3461 11.8506C1.55855 11.9325 1.59893 12.1004 1.42428 12.3062C1.34246 12.4027 1.23086 12.3273 1.29237 12.5947C1.3202 12.7156 1.45936 12.6556 1.50781 12.7598C1.6184 12.9979 1.51347 13.3309 1.55773 13.5825C1.57382 13.6742 1.64399 13.577 1.6577 13.6394C1.69439 13.8055 1.64919 13.9576 1.69508 14.1224C1.69934 14.1373 1.7779 14.0925 1.78385 14.1445C1.83084 14.5408 1.81151 14.8887 1.85123 15.3016C1.87032 15.5004 1.95197 15.8542 1.96421 16.0603C1.98608 16.4213 1.9136 16.872 1.97608 17.1762C2.01626 17.3726 2.09349 17.3202 2.15868 17.3993C2.28492 17.5518 2.12394 17.8667 2.09827 17.9083C2.09739 17.9096 2.05897 17.7413 2.02711 17.8369C1.94543 17.8997 2.09767 17.9065 2.09827 17.9083C2.08167 17.9359 2.10188 18.2804 2.12548 18.3473C2.13829 18.3834 2.2135 18.3538 2.21871 18.3728C2.2885 18.6304 2.34222 18.8875 2.37968 19.1522L2.37757 19.136C2.41003 19.3327 2.43296 19.5311 2.44596 19.7318C2.44557 19.7402 2.35733 19.7403 2.35749 19.7599C2.35758 20.0338 2.48817 20.1901 2.58301 20.4016C2.67778 20.6127 2.68249 20.7914 2.55339 20.9444C2.5966 21.1089 2.56639 21.3581 2.54704 21.5016C2.52768 21.6452 2.69875 21.6394 2.70387 21.651C2.86649 22.0123 2.80287 22.2441 2.84743 22.6395C2.86827 22.8273 2.94901 23.1929 2.99833 23.3912C3.03761 23.5481 3.01283 23.6488 3.06085 23.7925C3.06729 23.8119 3.139 23.7802 3.14282 23.7859C3.25779 23.9363 3.06265 23.8857 3.03524 23.9247C2.93554 24.0661 2.88407 24.152 2.97275 24.3533C2.99311 24.3997 3.27847 24.4995 3.30769 24.5851C3.34521 24.6965 3.24405 24.6682 3.28577 24.7844C3.28925 24.7943 3.34713 24.783 3.35622 24.8573C3.39893 25.2006 3.4252 25.5839 3.48834 25.9397C3.49675 25.9883 3.579 25.911 3.59267 25.9811C3.6568 26.3102 3.71168 26.6701 3.72151 27.0013C3.72359 27.0826 3.65085 27.0433 3.63449 27.0637C3.53578 27.1886 3.729 27.3109 3.73628 27.3351C3.91415 27.9105 3.83677 28.3871 4.01071 28.976C4.02048 29.008 4.24352 29.2285 4.10766 29.3666C4.09865 29.376 3.95902 29.5136 4.08399 29.5928C4.09182 29.5979 4.16154 29.5146 4.17386 29.637C4.18624 29.7597 4.27402 29.9453 4.21297 30.1268C4.19378 30.1842 4.05716 30.3358 4.21012 30.4706C4.22067 30.4794 4.54713 30.6715 4.36563 30.7914C4.33572 30.811 4.12531 30.8326 4.26425 31.0002C4.2911 31.0322 4.32622 30.9595 4.37149 31.0482C4.44134 31.1854 4.41918 31.3868 4.54289 31.548C4.56471 31.5761 4.72885 31.6829 4.64039 31.8071C4.62654 31.8266 4.55165 31.8074 4.5537 31.8645C4.56326 32.1365 4.6581 32.4015 4.65859 32.6817C4.65879 32.7803 4.53798 32.7514 4.52574 32.8564C4.51352 32.9614 4.52056 33.167 4.59046 33.2616C4.66038 33.3562 4.81857 33.2107 4.86085 33.3636C5.04389 34.0237 5.06293 34.7199 5.17212 35.3943C5.18849 35.4953 5.23686 35.4002 5.26557 35.548C5.3714 36.0926 5.60778 37.018 5.56252 37.5158C5.52593 37.9134 5.35272 37.455 5.36355 37.7513C5.36907 37.8944 5.6049 38.0038 5.618 38.0368C5.74776 38.3546 5.70018 38.6009 5.78559 38.8905C5.80326 38.9502 5.87561 38.8742 5.88971 38.9252C5.93876 39.0999 5.93694 39.2899 5.97743 39.4605C5.99566 39.5363 6.05699 39.5097 6.06582 39.5809C6.08766 39.7511 6.08987 39.9046 6.06195 40.0795C6.05941 40.0954 5.95994 40.0109 5.98138 40.1352C6.01644 40.337 6.00563 40.5933 6.11317 40.8141C6.14527 40.8792 6.29218 40.8528 6.22052 41.0205C6.20558 41.0556 6.02194 41.0514 6.2081 41.1926C6.23911 41.2165 6.50151 41.463 6.39776 41.6298C6.37047 41.6739 6.24573 41.7975 6.28479 41.8746C6.29063 41.8849 6.36028 41.8247 6.38159 41.8908C6.45566 42.1257 6.49877 42.3814 6.57348 42.6225C6.5936 42.6869 6.65495 42.5724 6.68234 42.6689C6.75778 42.9342 6.80545 43.2721 6.8349 43.5437C6.84547 43.6432 6.76426 43.5897 6.7584 43.5983C6.66278 43.737 6.8375 43.7711 6.85467 43.8069C6.95934 44.0302 6.92074 44.2238 6.9854 44.4343C7.00304 44.4924 7.07095 44.4345 7.08023 44.4448C7.17286 44.555 7.01596 44.4912 7.01717 44.573C7.02011 44.8021 7.07741 45.0451 7.13354 45.2634C7.15427 45.3435 7.22398 45.2339 7.24155 45.306C7.34637 45.7282 7.43468 46.1866 7.47482 46.6138C7.48228 46.6946 7.40333 46.6596 7.39122 46.6794C7.30619 46.816 7.49049 46.9488 7.51319 46.9854C7.6157 47.1471 7.5699 47.2281 7.61444 47.38C7.83203 48.1173 7.9944 49.051 8.12811 49.7703C8.29994 50.695 8.39739 51.4307 8.61505 52.3072C8.62872 52.3626 8.70659 52.2858 8.71954 52.3332C8.88371 52.9513 8.98831 53.566 9.16104 54.1881C9.17493 54.2386 9.24363 54.1451 9.2688 54.2255C9.32132 54.3914 9.36489 54.5984 9.37848 54.7793C9.38495 54.8661 9.28492 54.7711 9.29294 54.8581C9.31143 55.0607 9.35452 55.2706 9.41515 55.4653C9.44113 55.548 9.49879 55.4003 9.52571 55.5094C9.71335 56.2622 9.90531 56.9952 9.97602 57.7794C9.981 57.8338 9.81418 57.9233 9.87539 58.0259C9.92683 58.0222 9.98484 58.0076 10.0385 57.9983C10.1633 58.4568 10.2758 58.9326 10.3792 59.39L10.4046 59.5994C10.3903 60.2504 10.359 60.8999 10.3359 61.5544C10.3343 61.6017 10.4335 61.5226 10.4308 61.6141C10.4143 62.1567 10.4204 62.6858 10.2929 63.2348C10.2804 63.2872 10.1115 63.2521 10.1275 63.4165C10.1306 63.4461 10.1381 63.6879 10.1703 63.7564C10.1753 63.7654 10.258 63.7261 10.2548 63.8054C10.2348 64.2669 10.176 64.7407 10.0737 65.2034C10.0571 65.2776 9.982 65.1881 9.9694 65.2404C9.88031 65.6092 9.88841 66.0269 9.73205 66.393C9.62174 66.6434 9.50128 66.5125 9.32302 66.611C9.30955 66.6189 9.29216 66.6591 9.25392 66.7133C9.23452 66.7367 9.21786 66.7658 9.15537 66.8164C9.11803 66.8464 9.02129 66.9146 8.89008 66.8538C8.79272 66.7914 8.81126 66.7591 8.81337 66.7522C8.84464 66.701 8.90103 66.6903 8.94989 66.6652C8.99955 66.6537 9.05425 66.5659 8.94643 66.5187C8.81827 66.4368 8.63545 66.4815 8.6981 66.2666C8.72183 66.2598 8.70226 66.1861 8.99695 66.1623C9.15955 66.1586 9.33194 66.2872 9.37608 66.3595C9.4118 66.4067 9.42967 66.446 9.4412 66.4748C9.47598 66.5757 9.46464 66.5593 9.47139 66.5643C9.47886 66.558 9.49525 66.5585 9.55379 66.5593C9.55548 66.5576 9.56034 66.5606 9.56267 66.5365C9.56143 66.5181 9.57099 66.5249 9.54904 66.4433C9.53286 66.4009 9.53256 66.3649 9.4439 66.2508C9.38258 66.1754 9.24978 66.068 9.06994 66.041C8.8766 66.0152 8.76961 66.0653 8.69806 66.0974C8.41841 66.2746 8.48649 66.284 8.446 66.3138C8.42624 66.3397 8.42176 66.3408 8.41455 66.3449C8.40178 66.3508 8.39439 66.3432 8.38534 66.3388C8.36123 66.3245 8.2774 66.3054 8.24782 66.283C8.21918 66.2575 8.29815 66.2439 8.27353 66.1692C8.24667 66.099 8.14674 66.1052 8.1626 65.9692ZM2.46159 22.1473C2.39993 22.2866 2.69852 22.2608 2.60711 22.1341C2.60234 22.128 2.46457 22.1402 2.46159 22.1473ZM0.86912 6.64374C0.747843 6.82032 0.948643 6.92291 1.04294 6.79816C1.13717 6.67372 0.90587 6.58986 0.86912 6.64374ZM0.670018 4.90367C0.577334 5.10668 1.00253 5.11336 0.90498 4.90745C0.899449 4.89547 0.675397 4.89181 0.670018 4.90367ZM9.41537 66.0036C9.41156 66.0032 9.38858 66.1102 9.39185 66.1133C9.47504 66.1877 9.52102 65.9742 9.41537 66.0036ZM0.47083 3.17591C0.416776 3.24045 0.492308 3.41401 0.559498 3.33385C0.61354 3.26929 0.538059 3.09556 0.47083 3.17591ZM3.2045 28.846C3.20044 28.8487 3.20891 28.9233 3.2335 28.9176C3.31268 28.8991 3.27282 28.8002 3.2045 28.846ZM0.315633 0.228723C0.321467 0.664874 -0.0151793 0.9467 0.000533483 0.470336C0.00337815 0.384124 0.121384 0.649782 0.147458 0.538924C0.194918 0.336124 -0.0314251 0.214295 0.0760884 0.00411378C0.0957879 -0.0339352 0.316078 0.203815 0.316159 0.229473C0.315984 0.229223 0.315808 0.228971 0.315633 0.228723ZM2.11733 22.2739C2.11376 22.2768 2.12553 22.3803 2.12978 22.3821C2.23204 22.4236 2.20845 22.2156 2.11733 22.2739ZM3.76978 33.1813C3.76249 33.1885 3.79726 33.4267 3.8063 33.433C3.9813 33.529 3.91149 33.0475 3.76978 33.1813ZM1.03169 15.3723C0.925461 15.2699 0.900917 15.1359 1.01145 15.0339C1.01615 15.1471 1.02637 15.2598 1.03169 15.3723Z" fill="var(--stroke-0, white)"/>
</svg>
