<svg preserveAspectRatio="none" width="100%" height="100%" overflow="visible" style="display: block;" viewBox="0 0 15 7" fill="none" xmlns="http://www.w3.org/2000/svg">
<path id="Vector 91" d="M14.064 6.25074C13.7914 6.25074 13.5188 6.25074 13.2461 6.25003C10.6441 6.22457 7.94765 6.24414 5.51192 5.22089C5.51075 5.22038 5.50959 5.21987 5.50842 5.21936C3.38026 4.30244 1.86051 2.46183 0.491877 0.65352C0.327201 0.436277 0.163607 0.218143 0 0C0.163607 0.218143 0.327201 0.436277 0.491877 0.65352C1.86051 2.46183 3.38026 4.30244 5.50842 5.21936C5.50959 5.21987 5.51075 5.22038 5.51192 5.22089C7.94765 6.24414 10.6441 6.22457 13.2461 6.25003C13.5188 6.25074 13.7914 6.25074 14.064 6.25074Z" fill="var(--stroke-0, white)"/>
</svg>
