<svg width="93" height="89" viewBox="0 0 93 89" fill="none" xmlns="http://www.w3.org/2000/svg">
<g filter="url(#filter0_d_1114_10967)">
<path d="M52.8349 43.5777L52.7734 43.5581V40.6387L52.8349 40.662L52.9786 40.7161L54.2344 41.1916L54.2442 44.0422L52.9786 43.6256L52.8349 43.5777Z" fill="url(#paint0_linear_1114_10967)"/>
<path d="M30.022 39.6147C30.7482 38.9069 31.4731 38.1992 32.1993 37.4902C32.2804 42.1851 32.3615 46.8812 32.4414 51.5773C31.7828 51.8218 31.1242 52.0872 30.4656 52.3747C29.0071 53.0124 27.6236 53.73 26.3359 54.4869V48.105C27.384 47.7167 28.4321 47.3309 29.4802 46.9426C29.7886 46.8296 30.022 46.5765 30.022 46.2325V39.6147Z" fill="url(#paint1_linear_1114_10967)"/>
<path d="M33.8323 46.0479V46.0492L35.1642 46.3858L35.1151 49.3372L33.8827 48.9808L33.6406 48.9108V46L33.8323 46.0479Z" fill="url(#paint2_linear_1114_10967)"/>
<path d="M35.1642 37.7191L35.1151 40.6692L33.7328 40.2699L33.6406 40.2428V37.332L33.6824 37.3431L35.1642 37.7191Z" fill="url(#paint3_linear_1114_10967)"/>
<path d="M48.9576 40.9077L48.9048 40.8831L48.8433 40.8561L48.7807 40.8278V40.8266L48.111 40.5219L47.4844 40.2368V37.3125L48.0778 37.6049L48.7598 37.9416L48.8224 37.9723L48.8839 38.003L48.9465 38.0337L48.9576 40.9077Z" fill="url(#paint4_linear_1114_10967)"/>
<path d="M43.6938 48.9954C43.6951 49.0802 43.6951 49.1662 43.6951 49.251C41.6824 49.369 39.617 49.6356 37.5257 50.0914C37.4889 45.7922 37.4508 41.493 37.4139 37.1937V37.1655C37.3341 34.7486 37.253 32.3293 37.1719 29.9124C39.0137 29.652 40.8543 29.3927 42.6949 29.1335C42.9812 29.1015 43.2662 29.0683 43.5525 29.0352C43.5685 31.4238 43.5869 33.8099 43.6029 36.1973C43.6336 40.4633 43.6631 44.7294 43.6938 48.9954Z" fill="url(#paint5_linear_1114_10967)"/>
<path d="M51.507 49.4796C50.9111 49.4108 50.3066 49.3542 49.6922 49.3088C49.6369 44.4382 49.5817 39.5664 49.5264 34.6958C49.519 34.0852 49.5128 33.4745 49.5055 32.8638C49.4981 32.2347 49.5767 31.5319 49.4834 30.9114C49.4084 30.4199 49.1111 30.27 48.7375 30.044L45.8292 28.2894C45.4938 28.0866 45.1645 27.8655 44.8217 27.675C44.6435 27.4981 44.367 27.4244 44.0881 27.4637C43.5782 27.5362 43.0671 27.6074 42.5572 27.6799C42.465 27.6898 42.3729 27.6996 42.2807 27.7107C42.234 26.0949 42.1873 24.4779 42.1406 22.8622C45.2603 22.2933 48.3812 21.7244 51.5009 21.1543C51.5021 24.3354 51.5033 27.5165 51.5033 30.6989C51.5046 34.7769 51.5058 38.855 51.5058 42.9318C51.507 45.1152 51.507 47.2974 51.507 49.4796Z" fill="url(#paint6_linear_1114_10967)"/>
<path d="M46.5123 40.237L45.0968 39.5907L45.0391 39.5649V36.6406L45.0759 36.6591L46.5012 37.3619L46.5123 40.237Z" fill="url(#paint7_linear_1114_10967)"/>
<path d="M45.0501 32.1768L44.7109 32.022V29.0977L46.1731 29.8189L46.1743 30.2231L46.1842 32.6928L45.0501 32.1768Z" fill="url(#paint8_linear_1114_10967)"/>
<path d="M36.9064 41.557L36.8585 44.5071L36.4714 44.3953L36.41 44.3781L36.3486 44.3596L35.991 44.2577L35.3828 44.0819V41.1699L35.9652 41.3174L36.3486 41.4157L36.41 41.4304L36.4714 41.4464L36.9064 41.557Z" fill="url(#paint9_linear_1114_10967)"/>
<path d="M45.1398 45.712L45.0391 45.6665V42.7422L45.1189 42.7815L46.5012 43.4634L46.5123 46.3374L45.1398 45.712Z" fill="url(#paint10_linear_1114_10967)"/>
<path d="M54.2051 32.593L52.9777 32.1887L52.8364 32.142L52.7749 32.1224L52.7344 32.1089V29.1895L52.7749 29.2042L52.8364 29.2275L52.9777 29.2816L54.1953 29.7424L54.2051 32.593Z" fill="url(#paint11_linear_1114_10967)"/>
<path d="M48.9576 48.6101L48.9011 48.5843L48.8384 48.556L48.1983 48.2636L47.4844 47.938V45.0137L48.1651 45.3491L48.8163 45.671L48.8789 45.7017L48.9404 45.7325L48.9465 45.7349L48.9527 47.433L48.9539 47.5423L48.9576 48.6101Z" fill="url(#paint12_linear_1114_10967)"/>
<path d="M54.2442 36.4445L52.9774 36.028L52.8349 35.9801L52.7734 35.9604V33.041L52.8349 33.0644L52.9762 33.1172V33.1184L54.2344 33.5939L54.2442 36.4445Z" fill="url(#paint13_linear_1114_10967)"/>
<path d="M55.2891 45.1094L56.7512 45.6623L56.761 48.5129L55.2891 48.0288V45.1094Z" fill="url(#paint14_linear_1114_10967)"/>
<path d="M67.6828 47.0113V47.0101L67.625 46.9917V44.0723L67.6655 44.087V44.0882L68.8918 44.5515L68.8967 44.5539L69.0859 44.6252V44.6792L69.0958 47.4758L67.6828 47.0113Z" fill="url(#paint15_linear_1114_10967)"/>
<path d="M57.2364 37.5214L57.1651 37.4981L57.1037 37.4784V37.4772L57.041 37.4575L56.5299 37.2892L55.7656 37.0385V34.1191L56.4672 34.3845L57.0263 34.5959L57.0889 34.6192L57.1504 34.6426L57.2278 34.6721L57.2364 37.5214Z" fill="url(#paint16_linear_1114_10967)"/>
<path d="M62.0567 43.5754L61.3797 43.353L60.7088 43.1318L60.5859 43.0913V40.1719L60.6891 40.2112L61.3428 40.4582L62.0469 40.7248L62.0567 43.5754Z" fill="url(#paint17_linear_1114_10967)"/>
<path d="M57.2321 50.4512L57.1719 38.7773C57.2075 38.7847 57.2456 38.7896 57.2837 38.7909C57.8833 38.8154 58.4829 38.84 59.0825 38.8634V50.9034C58.4866 50.7474 57.8685 50.595 57.2321 50.4512Z" fill="url(#paint18_linear_1114_10967)"/>
<path d="M66.1735 43.0644C66.1858 44.7588 66.1969 46.4544 66.2104 48.15C66.2202 49.8665 66.2301 51.5842 66.2399 53.3007C65.3503 52.937 64.2506 52.5144 62.9752 52.0819C62.9666 51.9246 62.958 51.7698 62.9556 51.6199C62.9334 49.9034 62.9113 48.1881 62.8892 46.4716C62.8745 45.2638 62.8585 44.0547 62.8438 42.8457C63.9533 42.9182 65.0628 42.9907 66.1735 43.0644Z" fill="url(#paint19_linear_1114_10967)"/>
<path d="M62.0567 47.4758L61.4288 47.2694L60.7346 47.0408L60.5859 46.9917V44.0723L60.7149 44.1214L61.3932 44.377V44.3782L62.0469 44.6252L62.0567 47.4758Z" fill="url(#paint20_linear_1114_10967)"/>
<path d="M72.8929 73.2168C73.2738 76.0625 61.1244 80.9748 49.8608 79.681C48.8152 79.5606 43.2344 78.9192 43.0293 77.2789C42.8425 75.7885 47.1896 74.217 50.6091 72.9797C55.8864 71.0715 60.4363 69.4889 66.2026 70.4891C68.5076 70.8884 72.6791 71.6121 72.8929 73.2168Z" fill="url(#paint21_linear_1114_10967)"/>
<path d="M88.7058 64.1068C88.589 68.7218 87.7732 72.6978 86.488 72.8883C84.6842 73.1562 83.9433 66.6784 78.6722 60.9478C76.2983 58.3675 73.8004 56.8132 71.2484 55.5476V55.5464C71.2607 53.2598 71.2729 50.9719 71.2852 48.6841C71.2889 47.9493 71.2938 47.2145 71.2975 46.4798C71.3 46.0719 71.3024 45.6627 71.3037 45.2548C71.3061 44.9353 71.3553 44.5876 71.1488 44.3185C70.9363 44.0445 70.5185 43.8516 70.2322 43.6648C69.9275 43.4658 69.624 43.2679 69.3193 43.0689C68.6435 42.6266 67.9677 42.1855 67.2919 41.7431C67.174 41.6657 67.045 41.6338 66.9196 41.6375C66.9172 41.6362 66.9147 41.6362 66.9123 41.6362C65.5521 41.5465 64.1932 41.4581 62.8342 41.3684C62.8404 40.6557 62.9669 39.8755 62.4201 39.3595C61.7898 38.7648 61.1128 38.2118 60.4616 37.6405C60.4333 37.6159 60.4038 37.5938 60.3744 37.5754C60.2527 37.4844 60.1016 37.4304 59.9406 37.4242C59.2943 37.3984 58.648 37.3714 58.0017 37.3456C57.8961 32.4505 57.7916 27.5565 57.6859 22.6626C57.6798 22.4132 57.552 22.1441 57.321 22.0261C55.7507 21.2299 54.1817 20.4325 52.6126 19.6363C52.4922 19.5749 52.3657 19.5466 52.2403 19.5478C52.1764 19.5442 52.1101 19.5491 52.045 19.5614C48.4277 20.2212 44.8104 20.8822 41.1931 21.542C40.8859 21.5973 40.6426 21.9512 40.6512 22.2522C40.7053 24.1432 40.7606 26.0342 40.8146 27.9251C39.2837 28.1414 37.7527 28.3564 36.2217 28.5727C35.9158 28.6157 35.6713 28.9917 35.6799 29.2841C35.7561 31.5424 35.831 33.8008 35.906 36.0592C35.0139 35.6881 34.1219 35.3158 33.2298 34.9447C32.9939 34.8464 32.6831 34.9681 32.5123 35.1352C31.7198 35.908 30.9273 36.6821 30.1347 37.455C29.7379 37.842 29.3312 38.2204 28.9454 38.6161C28.7156 38.8508 28.594 38.9884 28.5595 39.3287C28.4932 39.9652 28.5595 40.6434 28.5595 41.2824V45.7192C27.5115 46.1063 26.4622 46.4933 25.4141 46.8816C25.1057 46.9958 24.8734 47.2477 24.8734 47.5918V55.3903C19.5016 58.8528 16.1656 62.7527 16.6374 63.4985C17.285 64.5208 22.69 60.4059 33.1635 58.3429C43.7525 56.2578 51.4319 57.8625 54.1977 58.5469C58.6726 59.6539 67.3706 62.577 67.1199 65.1561C66.8496 67.917 56.7165 66.2324 43.2622 72.2469C33.3404 76.6825 32.6167 80.3846 26.0075 80.9351C18.9757 81.5212 10.3195 78.1189 6.32249 71.5785C0.615161 62.2391 6.47976 49.9902 12.5803 37.7388C17.3648 28.1291 22.9431 21.4093 26.6514 17.475C34.5482 9.09281 45.8302 -2.20756 56.0813 0.375169C60.9076 1.59036 65.976 9.94185 75.8265 26.9852C84.3402 41.7149 89.0154 51.9377 88.7058 64.1068Z" fill="url(#paint22_linear_1114_10967)"/>
<path d="M70.8203 49.3998L70.8301 52.2492L70.6385 52.1865L70.5758 52.1657L70.5156 52.146L69.7907 51.9076L69.3594 51.7663V48.8457L69.8066 49.0153L70.5156 49.2844L70.5758 49.3077L70.6385 49.331L70.8203 49.3998Z" fill="url(#paint23_linear_1114_10967)"/>
<path d="M57.1739 25.7844L57.1014 25.761L57.04 25.7401L56.9785 25.7205L56.2732 25.4882L55.7031 25.3003V22.3809L56.9638 22.8576L57.0866 22.9043L57.1641 22.9338L57.1739 25.7844Z" fill="url(#paint24_linear_1114_10967)"/>
<path d="M54.1739 24.7121L52.9661 24.314L52.826 24.2685L52.7646 24.2477L52.7031 24.228V21.3086L52.826 21.3553L54.1653 21.8615L54.1665 22.0827L54.1739 24.7121Z" fill="url(#paint25_linear_1114_10967)"/>
<path d="M48.9967 36.7241L48.8762 36.6688L48.8148 36.6418V36.6405L48.7521 36.6123L48.0653 36.3002L47.5234 36.0532V33.1289L48.0321 33.3796L48.7313 33.7236L48.7927 33.7543L48.8541 33.7838L48.9856 33.8489L48.9967 36.7241Z" fill="url(#paint26_linear_1114_10967)"/>
</g>
<defs>
<filter id="filter0_d_1114_10967" x="0" y="0" width="92.7188" height="89" filterUnits="userSpaceOnUse" color-interpolation-filters="sRGB">
<feFlood flood-opacity="0" result="BackgroundImageFix"/>
<feColorMatrix in="SourceAlpha" type="matrix" values="0 0 0 0 0 0 0 0 0 0 0 0 0 0 0 0 0 0 127 0" result="hardAlpha"/>
<feOffset dy="4"/>
<feGaussianBlur stdDeviation="2"/>
<feComposite in2="hardAlpha" operator="out"/>
<feColorMatrix type="matrix" values="0 0 0 0 0 0 0 0 0 0 0 0 0 0 0 0 0 0 0.59 0"/>
<feBlend mode="normal" in2="BackgroundImageFix" result="effect1_dropShadow_1114_10967"/>
<feBlend mode="normal" in="SourceGraphic" in2="effect1_dropShadow_1114_10967" result="shape"/>
</filter>
<linearGradient id="paint0_linear_1114_10967" x1="53.5088" y1="40.6387" x2="53.5088" y2="44.0422" gradientUnits="userSpaceOnUse">
<stop stop-color="#DEF49B"/>
<stop offset="1" stop-color="#7D8A56"/>
</linearGradient>
<linearGradient id="paint1_linear_1114_10967" x1="29.3886" y1="37.4902" x2="29.3886" y2="54.4869" gradientUnits="userSpaceOnUse">
<stop stop-color="#DEF49B"/>
<stop offset="1" stop-color="#7D8A56"/>
</linearGradient>
<linearGradient id="paint2_linear_1114_10967" x1="34.4024" y1="46" x2="34.4024" y2="49.3372" gradientUnits="userSpaceOnUse">
<stop stop-color="#DEF49B"/>
<stop offset="1" stop-color="#7D8A56"/>
</linearGradient>
<linearGradient id="paint3_linear_1114_10967" x1="34.4024" y1="37.332" x2="34.4024" y2="40.6692" gradientUnits="userSpaceOnUse">
<stop stop-color="#DEF49B"/>
<stop offset="1" stop-color="#7D8A56"/>
</linearGradient>
<linearGradient id="paint4_linear_1114_10967" x1="48.221" y1="37.3125" x2="48.221" y2="40.9077" gradientUnits="userSpaceOnUse">
<stop stop-color="#DEF49B"/>
<stop offset="1" stop-color="#7D8A56"/>
</linearGradient>
<linearGradient id="paint5_linear_1114_10967" x1="40.4335" y1="29.0352" x2="40.4335" y2="50.0914" gradientUnits="userSpaceOnUse">
<stop stop-color="#DEF49B"/>
<stop offset="1" stop-color="#7D8A56"/>
</linearGradient>
<linearGradient id="paint6_linear_1114_10967" x1="46.8238" y1="21.1543" x2="46.8238" y2="49.4796" gradientUnits="userSpaceOnUse">
<stop stop-color="#DEF49B"/>
<stop offset="1" stop-color="#7D8A56"/>
</linearGradient>
<linearGradient id="paint7_linear_1114_10967" x1="45.7757" y1="36.6406" x2="45.7757" y2="40.237" gradientUnits="userSpaceOnUse">
<stop stop-color="#DEF49B"/>
<stop offset="1" stop-color="#7D8A56"/>
</linearGradient>
<linearGradient id="paint8_linear_1114_10967" x1="45.4475" y1="29.0977" x2="45.4475" y2="32.6928" gradientUnits="userSpaceOnUse">
<stop stop-color="#DEF49B"/>
<stop offset="1" stop-color="#7D8A56"/>
</linearGradient>
<linearGradient id="paint9_linear_1114_10967" x1="36.1446" y1="41.1699" x2="36.1446" y2="44.5071" gradientUnits="userSpaceOnUse">
<stop stop-color="#DEF49B"/>
<stop offset="1" stop-color="#7D8A56"/>
</linearGradient>
<linearGradient id="paint10_linear_1114_10967" x1="45.7757" y1="42.7422" x2="45.7757" y2="46.3374" gradientUnits="userSpaceOnUse">
<stop stop-color="#DEF49B"/>
<stop offset="1" stop-color="#7D8A56"/>
</linearGradient>
<linearGradient id="paint11_linear_1114_10967" x1="53.4698" y1="29.1895" x2="53.4698" y2="32.593" gradientUnits="userSpaceOnUse">
<stop stop-color="#DEF49B"/>
<stop offset="1" stop-color="#7D8A56"/>
</linearGradient>
<linearGradient id="paint12_linear_1114_10967" x1="48.221" y1="45.0137" x2="48.221" y2="48.6101" gradientUnits="userSpaceOnUse">
<stop stop-color="#DEF49B"/>
<stop offset="1" stop-color="#7D8A56"/>
</linearGradient>
<linearGradient id="paint13_linear_1114_10967" x1="53.5088" y1="33.041" x2="53.5088" y2="36.4445" gradientUnits="userSpaceOnUse">
<stop stop-color="#DEF49B"/>
<stop offset="1" stop-color="#7D8A56"/>
</linearGradient>
<linearGradient id="paint14_linear_1114_10967" x1="56.0251" y1="45.1094" x2="56.0251" y2="48.5129" gradientUnits="userSpaceOnUse">
<stop stop-color="#DEF49B"/>
<stop offset="1" stop-color="#7D8A56"/>
</linearGradient>
<linearGradient id="paint15_linear_1114_10967" x1="68.3604" y1="44.0723" x2="68.3604" y2="47.4758" gradientUnits="userSpaceOnUse">
<stop stop-color="#DEF49B"/>
<stop offset="1" stop-color="#7D8A56"/>
</linearGradient>
<linearGradient id="paint16_linear_1114_10967" x1="56.501" y1="34.1191" x2="56.501" y2="37.5214" gradientUnits="userSpaceOnUse">
<stop stop-color="#DEF49B"/>
<stop offset="1" stop-color="#7D8A56"/>
</linearGradient>
<linearGradient id="paint17_linear_1114_10967" x1="61.3213" y1="40.1719" x2="61.3213" y2="43.5754" gradientUnits="userSpaceOnUse">
<stop stop-color="#DEF49B"/>
<stop offset="1" stop-color="#7D8A56"/>
</linearGradient>
<linearGradient id="paint18_linear_1114_10967" x1="58.1272" y1="38.7773" x2="58.1272" y2="50.9034" gradientUnits="userSpaceOnUse">
<stop stop-color="#DEF49B"/>
<stop offset="1" stop-color="#7D8A56"/>
</linearGradient>
<linearGradient id="paint19_linear_1114_10967" x1="64.5418" y1="42.8457" x2="64.5418" y2="53.3007" gradientUnits="userSpaceOnUse">
<stop stop-color="#DEF49B"/>
<stop offset="1" stop-color="#7D8A56"/>
</linearGradient>
<linearGradient id="paint20_linear_1114_10967" x1="61.3213" y1="44.0723" x2="61.3213" y2="47.4758" gradientUnits="userSpaceOnUse">
<stop stop-color="#DEF49B"/>
<stop offset="1" stop-color="#7D8A56"/>
</linearGradient>
<linearGradient id="paint21_linear_1114_10967" x1="57.9625" y1="70.1797" x2="57.9625" y2="79.8938" gradientUnits="userSpaceOnUse">
<stop stop-color="#DEF49B"/>
<stop offset="1" stop-color="#7D8A56"/>
</linearGradient>
<linearGradient id="paint22_linear_1114_10967" x1="46.3601" y1="0" x2="46.3601" y2="81" gradientUnits="userSpaceOnUse">
<stop stop-color="#DEF49B"/>
<stop offset="1" stop-color="#7D8A56"/>
</linearGradient>
<linearGradient id="paint23_linear_1114_10967" x1="70.0948" y1="48.8457" x2="70.0948" y2="52.2492" gradientUnits="userSpaceOnUse">
<stop stop-color="#DEF49B"/>
<stop offset="1" stop-color="#7D8A56"/>
</linearGradient>
<linearGradient id="paint24_linear_1114_10967" x1="56.4385" y1="22.3809" x2="56.4385" y2="25.7844" gradientUnits="userSpaceOnUse">
<stop stop-color="#DEF49B"/>
<stop offset="1" stop-color="#7D8A56"/>
</linearGradient>
<linearGradient id="paint25_linear_1114_10967" x1="53.4385" y1="21.3086" x2="53.4385" y2="24.7121" gradientUnits="userSpaceOnUse">
<stop stop-color="#DEF49B"/>
<stop offset="1" stop-color="#7D8A56"/>
</linearGradient>
<linearGradient id="paint26_linear_1114_10967" x1="48.26" y1="33.1289" x2="48.26" y2="36.7241" gradientUnits="userSpaceOnUse">
<stop stop-color="#DEF49B"/>
<stop offset="1" stop-color="#7D8A56"/>
</linearGradient>
</defs>
</svg>
