<svg preserveAspectRatio="none" width="100%" height="100%" overflow="visible" style="display: block;" viewBox="0 0 52 52" fill="none" xmlns="http://www.w3.org/2000/svg">
<g id="Group">
<path id="Vector" fill-rule="evenodd" clip-rule="evenodd" d="M6.25815 8.84375C1.11221 14.7734 -0.847164 22.4872 0.331898 29.7919C6.06221 28.4891 11.7169 29.3897 15.8935 32.6519L22.9747 25.5672L6.25815 8.84375Z" fill="var(--fill-0, black)"/>
<path id="Vector_2" fill-rule="evenodd" clip-rule="evenodd" d="M21.3007 50.9116C28.6638 52.1559 36.4532 50.2103 42.4379 45.0197L25.5632 28.1484L18.4785 35.2331C21.7613 39.4337 22.6516 45.1366 21.3007 50.9116Z" fill="var(--fill-0, black)"/>
<path id="Vector_3" fill-rule="evenodd" clip-rule="evenodd" d="M1.18066 33.4528C2.19816 36.6531 3.89973 39.6678 6.19941 42.3456L13.15 35.3984C9.92566 33.0574 5.6116 32.4593 1.18066 33.4528Z" fill="var(--fill-0, black)"/>
<path id="Vector_4" fill-rule="evenodd" clip-rule="evenodd" d="M17.6535 50.0353C18.6779 45.5734 18.0798 41.225 15.7285 37.9766L8.76758 44.9375C11.442 47.2681 14.4566 48.9938 17.6535 50.0353Z" fill="var(--fill-0, black)"/>
<path id="Vector_5" fill-rule="evenodd" clip-rule="evenodd" d="M45.1603 42.2752C50.2684 36.2905 52.1659 28.5218 50.894 21.193C45.1775 22.4855 39.5365 21.5815 35.3772 18.3262L28.2959 25.4109L45.1603 42.2752Z" fill="var(--fill-0, black)"/>
<path id="Vector_6" fill-rule="evenodd" clip-rule="evenodd" d="M29.8944 0.352206C22.6241 -0.857794 14.9378 1.04658 9.00127 6.11689L25.711 22.83L32.7956 15.7453C29.5644 11.6135 28.6466 6.02408 29.8944 0.352206Z" fill="var(--fill-0, black)"/>
<path id="Vector_7" fill-rule="evenodd" clip-rule="evenodd" d="M49.9898 17.5425C48.9482 14.3834 47.2363 11.41 44.9332 8.77344L38.127 15.5797C41.3273 17.8966 45.5966 18.5016 49.9898 17.5425Z" fill="var(--fill-0, black)"/>
<path id="Vector_8" fill-rule="evenodd" clip-rule="evenodd" d="M33.5657 1.22266C32.6273 5.58484 33.2426 9.81984 35.5388 12.9995L42.3416 6.20016C39.6982 3.92453 36.7213 2.24359 33.5657 1.22266Z" fill="var(--fill-0, black)"/>
</g>
</svg>
