<svg preserveAspectRatio="none" width="100%" height="100%" overflow="visible" style="display: block;" viewBox="0 0 62 52" fill="none" xmlns="http://www.w3.org/2000/svg">
<g id="Group">
<path id="Vector" d="M61.6282 14.2227H47.4062V23.5001H61.6282V14.2227Z" fill="var(--fill-0, black)"/>
<path id="Vector_2" d="M9.48127 28.4434H0V37.9246H9.48127V28.4434Z" fill="var(--fill-0, black)"/>
<path id="Vector_3" d="M33.1842 28.4434H14.2217V37.9246H33.1842V28.4434Z" fill="var(--fill-0, black)"/>
<path id="Vector_4" d="M52.1467 28.4434H37.9248V37.9246H52.1467V28.4434Z" fill="var(--fill-0, black)"/>
<path id="Vector_5" d="M42.6657 14.2227H23.7031V23.5001H42.6657V14.2227Z" fill="var(--fill-0, black)"/>
<path id="Vector_6" d="M18.9625 14.2227H0V23.5001H18.9625V14.2227Z" fill="var(--fill-0, black)"/>
<path id="Vector_7" d="M61.6282 42.666H47.4062V51.9434H61.6282V42.666Z" fill="var(--fill-0, black)"/>
<path id="Vector_8" d="M42.6657 42.666H23.7031V51.9434H42.6657V42.666Z" fill="var(--fill-0, black)"/>
<path id="Vector_9" d="M18.9625 42.666H0V51.9434H18.9625V42.666Z" fill="var(--fill-0, black)"/>
<path id="Vector_10" d="M52.1467 0H37.9248V9.48127H52.1467V0Z" fill="var(--fill-0, black)"/>
<path id="Vector_11" d="M33.1842 0H14.2217V9.48127H33.1842V0Z" fill="var(--fill-0, black)"/>
<path id="Vector_12" d="M9.48127 0H0V9.48127H9.48127V0Z" fill="var(--fill-0, black)"/>
</g>
</svg>
