<svg width="56" height="56" viewBox="0 0 56 56" fill="none" xmlns="http://www.w3.org/2000/svg">
  <!-- Башня/основание - масштабировано для viewBox 56x56 (оригинальный viewBox 0 0 26 42) -->
  <g transform="translate(0, 7)">
    <path d="M0 0V39.5652C0 40.5733 0.818015 41.3913 1.82612 41.3913H9.13051C10.1386 41.3913 10.9566 40.5733 10.9566 39.5652V36.5217H14.6088V39.5652C14.6088 40.5733 15.4268 41.3913 16.4349 41.3913H23.7393C24.7474 41.3913 25.5654 40.5733 25.5654 39.5652V0H0ZM14.6087 32.8696H10.9565V29.2175H14.6087V32.8696ZM14.6087 25.5652H10.9565V21.9131H14.6087V25.5652ZM16.4348 12.7825H9.13041V9.13041C9.13041 7.11648 10.7686 5.47826 12.7825 5.47826C14.7965 5.47826 16.4347 7.11648 16.4347 9.13041V12.7825H16.4348Z" fill="black"/>
  </g>
  <!-- Крыша - масштабировано для viewBox 56x56 (оригинальный viewBox 0 0 24 11) -->
  <g transform="translate(1, 0)">
    <path d="M13.0036 0.534926C12.2904 -0.178309 11.1347 -0.178309 10.4214 0.534926L0 10.9565H23.4253L13.0036 0.534926Z" fill="black"/>
  </g>
  <!-- Горка/слайд - масштабировано для viewBox 56x56 (оригинальный viewBox 0 0 27 30) -->
  <g transform="translate(29, 15)">
    <path d="M24.9565 18.8431C19.9966 18.8431 16.3744 16.0809 14.7573 12.3865C12.0041 6.09109 6.48791 1.58364 0 0V27.9735C0 28.9816 0.818014 29.7997 1.82612 29.7997C2.83423 29.7997 3.65225 28.9816 3.65225 27.9735V14.9278C4.05814 15.5069 4.43045 16.1139 4.72095 16.778C5.41428 18.3634 6.28961 19.83 7.30439 21.1719V27.9735C7.30439 28.9816 8.12241 29.7997 9.13052 29.7997C10.1386 29.7997 10.9566 28.9816 10.9566 27.9735V24.9417C14.8127 28.0652 19.5135 29.7997 24.9566 29.7997C25.9647 29.7997 26.7828 28.9816 26.7828 27.9735V20.6691C26.7827 19.661 25.9646 18.8431 24.9565 18.8431Z" fill="black"/>
  </g>
</svg>
