<svg width="2754" height="2" viewBox="0 0 2754 2" fill="none" xmlns="http://www.w3.org/2000/svg">
<path d="M2727.77 0.0101722C2712.34 -0.0158793 2692.11 0.0119791 2676.73 0.0502154C2671.91 0.0620744 2674.35 0.115082 2671.03 0.125655C2664.52 0.146266 2658.46 0.120269 2652.03 0.144822C2649.9 0.153218 2652.55 0.237183 2650.32 0.244065C2638.08 0.281173 2626.5 0.259788 2614.1 0.277637C2553.01 0.365703 2492.97 0.397228 2431.14 0.43549C2410.75 0.448034 2385.97 0.524238 2364.91 0.490915C2362.45 0.48695 2363.92 0.41325 2363.45 0.407175C2356.12 0.314185 2358.55 0.462969 2353.77 0.482737C2334.76 0.56079 2313.62 0.567581 2295.32 0.539139C2287.54 0.526823 2295.34 0.380435 2287.51 0.462602C2286.96 0.468153 2288.94 0.546417 2286.8 0.554765C2281.96 0.573539 2272.78 0.559551 2269.03 0.565752C2261.8 0.5781 2260.6 0.577313 2253.76 0.578205C2244.41 0.580106 2233.29 0.619011 2223.26 0.601279C2221.12 0.597261 2223.96 0.517031 2220.54 0.503379C2217.12 0.489749 2208.08 0.496552 2205.04 0.515465C2201.99 0.534388 2203.29 0.597447 2202.75 0.611901C2198.31 0.733898 2187.85 0.564933 2186.5 0.560755C2161.97 0.489558 2140.93 0.585813 2117.9 0.585541C2100.42 0.58513 2081.72 0.553355 2065.09 0.557714C2045.27 0.563217 2028.47 0.606694 2009.22 0.599222C2007.19 0.598526 2009.57 0.504195 2007.09 0.503154C1980.72 0.492179 1954.54 0.502464 1928.28 0.566148C1925.65 0.572618 1929.04 0.65544 1926.41 0.666856C1910.31 0.734923 1884.83 0.898433 1875.26 0.537833C1864.35 0.551915 1851.11 0.566464 1841.35 0.639154C1835.06 0.685938 1841.17 0.776164 1833.44 0.737665C1831.7 0.729087 1833.96 0.650071 1831.35 0.643183C1820.34 0.614257 1808.31 0.639943 1797.43 0.599119C1795.21 0.590629 1795.82 0.519828 1795.19 0.507078C1789.91 0.403826 1781.13 0.574511 1779.22 0.586913C1764.64 0.679402 1754 0.643007 1740.42 0.645266C1737.27 0.64583 1741 0.550728 1737.96 0.547855C1722.24 0.534226 1705.95 0.542401 1690.55 0.584602C1687.13 0.594217 1690.28 0.675227 1688.64 0.683967C1681.42 0.721518 1679.82 0.568511 1672.9 0.601571C1671.44 0.608344 1672.26 0.677694 1672 0.685311C1667.83 0.804873 1664.21 0.635463 1663.14 0.631723C1649.59 0.580619 1640.93 0.757475 1627.83 0.732434C1626.27 0.729259 1629.8 0.64151 1625.39 0.637952C1596.06 0.613731 1565.04 0.637839 1536 0.708028C1531.49 0.718823 1534.71 0.784741 1534.43 0.792867C1529.8 0.919835 1526.8 0.749714 1525.33 0.743307C1513.72 0.69719 1502.87 0.839858 1494.98 0.637231C1445.8 0.707554 1396.84 0.593772 1348.07 0.775305C1347.45 0.777408 1348.56 0.861193 1347.32 0.865026C1332.42 0.912072 1335.28 0.781855 1325.43 0.622597C1322.94 0.582607 1315.39 0.774886 1314.72 0.78898C1312.29 0.840918 1314.81 0.965566 1314 0.975625C1307.25 1.05461 1308.35 0.642385 1299.25 0.642253C1298.96 0.64294 1300.16 0.718815 1299.39 0.726359C1297.02 0.750044 1294.67 0.719895 1292.34 0.746013C1287.03 0.80645 1285.13 1.00675 1277.02 0.890179C1275.99 0.875049 1277.56 0.641219 1269.43 0.652265C1266.19 0.656868 1251.85 0.652861 1247.83 0.668014C1243.82 0.68315 1246.57 0.758501 1246.29 0.761764C1235.47 0.861404 1239.57 0.9027 1234.15 1.05022C1228.73 1.19718 1230.24 0.846664 1228.03 0.807542C1225.81 0.768531 1217.88 0.850741 1215.94 0.87932C1213.99 0.907911 1216.42 0.955792 1214.68 0.971971C1203.2 1.07768 1209.64 0.79799 1205.86 0.742358C1196.94 0.610633 1189.99 0.870575 1181.82 0.896047C1179.61 0.902925 1181.42 0.843722 1179.45 0.838186C1171.66 0.817042 1166.97 0.898152 1158.1 0.823783C1156.65 0.811665 1149.48 0.655382 1144.84 0.770074C1144.19 0.786612 1146.05 0.851389 1142.73 0.865899C1137.77 0.887675 1128.83 0.901834 1123.5 0.880183C1119.56 0.864163 1124.07 0.757426 1119.11 0.790584C1116.91 0.805389 1120.99 0.867831 1116.86 0.890437C1112.74 0.913037 1102.21 0.910294 1098.21 0.908139C1094.21 0.905936 1096.4 0.824971 1096.08 0.819516C1094.12 0.788271 1086.45 0.74923 1085.77 0.749327C1051.57 0.739446 1020.03 0.875924 986.732 0.830756C984.119 0.827329 985.86 0.74195 985.461 0.740547C976.515 0.704776 983.568 0.931777 977.319 1.00776C978.222 0.8345 974.533 0.865872 968.232 0.846871C965.195 0.837574 966.849 0.770487 966.572 0.76362C962.069 0.661723 958.933 0.793337 958.125 0.820261C955.143 0.919302 951.897 0.802279 949.868 0.868479C947.839 0.934185 952.507 1.03159 946.464 1.03034C944.769 0.968324 949.256 0.806246 944.667 0.779979C927.355 0.680621 895.038 0.807789 881.118 0.821C867.226 0.8342 862.74 0.822757 854.644 0.845172C840.022 0.885701 845.38 0.76545 836.301 0.710408C827.195 0.655374 831.622 0.951247 830.313 1.01485C829.028 1.07843 827.625 1.01298 826.027 1.04793C824.433 1.08287 827.882 1.12612 824.135 1.13924C820.386 1.15235 810.136 1.03924 808.808 0.972739C805.998 0.831842 810.617 0.683964 800.697 0.735924C800.127 0.739008 801.978 0.816806 799.794 0.824669C782.442 0.884563 764.416 0.888277 747.087 0.941251C744.704 0.948656 746.835 1.0352 745.448 1.04049C731.003 1.09585 736.167 0.949921 728.25 0.78781C730.028 1.00355 725.65 1.13553 714.687 1.13681C708.097 1.13765 709.232 1.04343 704.969 0.977021C703.691 0.957002 699.028 1.0217 698.183 0.977388C695.396 0.83254 699.789 0.670391 688.486 0.734957C687.99 0.738026 689.569 0.817314 687.856 0.822115C676.78 0.853546 675.455 0.702037 663.482 0.68369C654.099 0.669294 637.408 0.761684 626.723 0.776711C626.948 1.01926 616.855 0.96372 612.761 0.796487C605.826 0.803335 598.336 0.793881 591.634 0.816997C589.327 0.824878 590.843 0.895102 590.552 0.90269C586.092 1.02172 583.077 0.859021 581.58 0.852642C565.357 0.79064 552.14 0.913954 536.658 0.793442C536.108 0.789102 535.218 0.620619 531.079 0.743638C530.811 0.752118 535.925 0.828774 528.642 0.834703C521.357 0.840644 507.626 0.930965 497.513 0.852894C495.066 0.834099 488.876 0.697326 483.908 0.804189C483.246 0.8187 483.971 0.867021 483.016 0.89391C479.927 0.97959 478.24 0.809296 474.611 0.95397C470.98 1.09864 463.43 1.20698 453.232 1.10717C452.907 1.10427 450.493 0.969294 447.286 0.971428C442.166 0.974951 434.898 1.00307 429.552 1.00219C426.992 1.00172 428.631 0.917909 428.186 0.916376C410.977 0.869412 398.727 0.944131 380.291 0.976561C376.911 0.982671 367.199 0.868381 360.656 0.95874C353.471 1.05766 360.854 1.46912 344.34 1.37109C337.68 1.33188 329.247 0.809865 317.278 1.08033C294.064 1.01331 272.594 1.15173 249.316 1.05604C248.27 1.0518 244.959 0.906109 242.498 0.908092C238.844 0.911318 236.839 0.979412 234.23 0.983898C223.299 1.00441 213.295 0.946152 202.755 0.955214C198.753 0.958507 200.153 1.02892 195.38 1.03285C190.611 1.03672 187.43 0.944007 180.966 0.988785C176.085 1.02292 171.204 1.21242 164.724 1.23451C164.477 1.04759 160.028 1.05144 152.118 1.00209C150.597 0.99252 152.228 0.927459 151.508 0.919574C148.581 0.886042 145.872 0.939963 143.093 0.903462C142.417 0.894695 142.385 0.830858 141.833 0.820088C137.132 0.726077 129.39 0.869672 128.06 0.894674C122.963 0.989626 120.58 0.906599 116.671 0.943991C112.769 0.981378 118.604 1.02811 114.045 1.0508C104.594 1.09773 92.4517 1.08742 82.8535 1.09036C79.0232 1.09113 81.6375 1.00592 81.0886 1.00405C73.1694 0.982441 65.1616 1.07308 60.7705 0.903347C55.28 1.34222 55.9951 0.860779 44.6758 0.948636C43.7844 0.955742 42.6499 1.16328 46.073 1.19375C49.4963 1.22419 54.6865 1.15932 59.4363 1.20681C60.5608 1.21796 67.0039 1.41244 67.8828 1.42422C74.769 1.51629 75.7446 1.20615 76.1089 1.18911C80.24 1.00528 88.1133 1.21479 90.1865 1.22927C99.6711 1.29561 107.73 1.25199 115.663 1.29934C120.851 1.32994 121.359 1.53309 125.433 1.52687C138.977 1.50632 143.704 1.22292 156.467 1.46864C159.204 1.52105 156.484 1.7431 166.29 1.5685C166.906 1.55749 174.186 1.39776 178.392 1.49879C178.921 1.51153 178.904 1.57624 179.601 1.58168C184.27 1.61684 187.384 1.56529 192.47 1.58998C197.556 1.61467 203.672 1.65148 209.479 1.62953C212.978 1.6164 217.469 1.49584 219.144 1.46632C223.875 1.38129 228.946 1.5207 231.877 1.41773C234.832 1.31425 229.054 1.15709 236.804 1.09022C237.091 1.25834 237.75 1.43091 238.212 1.59998C255.194 1.59406 271.904 1.5397 288.944 1.54712C291.056 1.54821 288.896 1.6386 291.16 1.64209C300.715 1.65645 309.06 1.59202 318.969 1.61768C326.639 1.63788 335.049 1.73358 343.069 1.75769C347.968 1.56531 359.869 1.63062 368.514 1.61303C371.542 1.60696 371.34 1.55558 373.494 1.53882C381.618 1.47682 377.812 1.64683 380.039 1.67358C389.595 1.78776 390.413 1.40296 401.68 1.41247C402.277 1.41284 409.574 1.61796 410.579 1.63073C416.964 1.71402 411.635 1.55934 415.632 1.54418C422.928 1.51649 427.999 1.4675 436.559 1.52758C439.056 1.54537 445.043 1.67322 449.891 1.57433C450.529 1.56138 450.177 1.49358 450.689 1.48961C459.98 1.42343 460.225 1.63646 465.534 1.70861C470.844 1.78074 479.046 1.63368 480.715 1.5913C485.081 1.48165 477.369 1.54444 477.132 1.53368C474.355 1.40563 480.336 1.42768 484.906 1.41686C485.569 1.20798 491.96 1.22052 489.645 1.40648C489.381 1.42679 485.824 1.40732 484.906 1.41686C488.919 1.6218 495.943 1.64804 503.701 1.45653C507.333 1.36677 503.9 1.26212 514.932 1.3004C519.938 1.31768 518.004 1.46151 522.422 1.50072C532.516 1.59018 545.634 1.45602 556.041 1.47715C559.818 1.48483 556.138 1.56356 558.719 1.57151C565.57 1.59288 571.611 1.53381 578.491 1.56407C579.115 1.56691 577.592 1.64932 579.731 1.65037C595.95 1.65994 610.073 1.60715 627.007 1.60569C635.188 1.60502 649.817 1.65047 658.292 1.64133C672.983 1.62598 691.054 1.50614 703.604 1.53525C711.788 1.55388 709.993 1.63631 713.5 1.69247C720.268 1.80134 732.247 1.60633 733.86 1.57614C733.909 1.57514 726.866 1.55571 730.624 1.51339C732.809 1.42523 733.781 1.57576 733.86 1.57614C734.919 1.55663 748.989 1.53792 751.783 1.55367C753.301 1.56229 752.452 1.64038 753.243 1.6434C772.057 1.71328 790.903 1.73313 809.984 1.69661C810.32 1.69504 809.815 1.60768 810.604 1.60506C821.651 1.56622 828.724 1.67308 837.835 1.73653C846.944 1.79995 854.168 1.7787 859.561 1.62874C866.434 1.64762 876.295 1.58132 881.969 1.54109C887.644 1.50086 888.436 1.67091 888.935 1.67427C904.507 1.78186 913.509 1.68453 929.665 1.66938C937.346 1.66189 952.582 1.68655 960.899 1.70515C967.471 1.72012 971.431 1.68027 977.487 1.70575C978.307 1.70916 977.479 1.78487 977.729 1.78779C984.488 1.87837 981.24 1.69328 982.635 1.66022C987.694 1.54001 990.82 1.47598 999.476 1.53254C1001.47 1.54549 1007.29 1.81199 1010.93 1.82758C1015.66 1.84735 1013.87 1.75183 1018.83 1.77496C1019.25 1.77686 1019.16 1.83579 1022.22 1.83319C1036.41 1.8219 1051.89 1.78761 1066.64 1.79351C1068.65 1.7941 1066.07 1.88757 1068.98 1.88995C1082.64 1.90103 1097.61 1.89757 1110.92 1.85381C1114.2 1.84275 1112.14 1.7773 1112.85 1.75787C1117.22 1.64028 1123.41 1.81113 1124.43 1.81438C1148.8 1.89648 1167.44 1.74187 1192.28 1.81548C1193.63 1.8198 1204.03 2.00295 1208.68 1.84587C1208.99 1.83542 1213.59 1.67471 1217.65 1.78459C1217.9 1.79146 1215.04 1.8742 1220.03 1.86577C1225.03 1.85735 1233.06 1.9126 1239.93 1.8217C1242.1 1.79306 1247.24 1.63275 1253.72 1.76054C1254.15 1.76946 1264.16 2.05841 1267.73 1.85905C1268.31 1.82623 1267.7 1.61526 1275.44 1.72343C1276.92 1.7444 1274.23 1.79146 1278.13 1.82084C1284.1 1.86613 1292 1.80962 1299.34 1.9036C1300.62 1.92024 1306.07 2.06343 1310.43 1.95475C1311.12 1.93773 1309.82 1.86729 1312.13 1.85941C1323.1 1.8216 1334.58 1.86871 1345.72 1.81998C1349.67 1.80286 1347.65 1.68899 1351.76 1.65848C1355.88 1.62798 1364.16 1.59863 1368.47 1.65067C1372.77 1.70272 1368.07 1.88419 1374.52 1.89871C1402.55 1.96178 1430.33 1.85532 1458.32 1.83975C1462.47 1.83742 1459.03 1.90235 1465.15 1.90359C1487.71 1.90842 1526.66 1.9693 1546.23 1.83131C1561.92 1.7208 1542.18 1.63666 1554.17 1.59169C1559.95 1.57024 1566.21 1.78121 1567.6 1.78786C1581.24 1.85532 1590.72 1.76187 1603 1.79054C1605.53 1.79649 1603.05 1.882 1605.2 1.88612C1612.57 1.90095 1620.32 1.86278 1627.36 1.86976C1630.52 1.87309 1629.94 1.9384 1632.84 1.93336C1639.8 1.92205 1645.95 1.89459 1652.73 1.83338C1653.35 1.8278 1649.18 1.74656 1654.33 1.74354C1662.66 1.73888 1672.99 1.67849 1682.58 1.74085C1685.42 1.75961 1685.53 1.90887 1691.64 1.80579C1692.93 1.78426 1691.29 1.60502 1698.41 1.75989C1699.61 1.78563 1711.57 1.99451 1717.44 1.85986C1718.98 1.82443 1722.94 1.67776 1726.35 1.70081C1726.82 1.70448 1724.96 1.78466 1727.79 1.79248C1737.78 1.81865 1748.24 1.81009 1758.5 1.8352C1761.24 1.84207 1757.16 1.92503 1761.24 1.93261C1772.47 1.95358 1786.49 1.93246 1797.47 1.90649C1801.52 1.89676 1798.72 1.82803 1799.01 1.82055C1803.75 1.6989 1806.55 1.8631 1808.12 1.87267C1817.9 1.93 1825.34 1.85287 1834.35 1.87328C1836.84 1.87871 1835.08 1.957 1835.57 1.96398C1840.71 2.03219 1836.88 1.89159 1840.13 1.87609C1849.24 1.8322 1859.38 1.83849 1868.59 1.8485C1871.97 1.85229 1868.17 1.94307 1871.21 1.94542C1889.17 1.96106 1907.84 1.95237 1925.37 1.90233C1928.68 1.89274 1926.6 1.82283 1927.29 1.80687C1932.03 1.69516 1938.98 1.84753 1940.58 1.86204C1947.85 1.92831 1950.67 1.86649 1957.09 1.87803C1988.46 1.93548 2027.18 1.89453 2056.79 1.86923C2095.37 1.83668 2125.31 1.77017 2162.1 1.78744C2164.44 1.78845 2162.08 1.88144 2164.1 1.88351C2190.12 1.90592 2215.74 1.86958 2241.82 1.89644C2243.96 1.89848 2240.87 1.98664 2244.31 1.99287C2251.35 2.00628 2260.28 2.00149 2267.4 1.97334C2270.87 1.95978 2266.21 1.88413 2269.71 1.87202C2277.85 1.84366 2286.58 1.83738 2294.94 1.85151C2298.5 1.85772 2293.13 1.94788 2297.76 1.94892C2329.27 1.95787 2360.22 1.97339 2392.07 1.85663C2394.25 1.84861 2396.17 1.66536 2400.81 1.7005C2401.16 1.75136 2401.14 1.81118 2401.29 1.86554C2447.17 1.89482 2492.58 1.83129 2538.58 1.82146C2540.52 1.82107 2537.17 1.91816 2540.92 1.9179C2562.66 1.91646 2583.76 1.94336 2606 1.84685C2608.2 1.83741 2607.07 1.66659 2613.57 1.69243C2614.72 1.69714 2624.51 1.71992 2627.04 1.757C2627.38 1.76259 2625.6 1.84232 2628.75 1.84465C2647.09 1.85675 2666.3 1.83855 2684.6 1.78983C2687.55 1.78182 2684.41 1.69691 2686.51 1.69047C2701.44 1.6454 2717.67 1.70994 2731.93 1.63285C2741.47 1.58094 2737.94 1.43417 2743.01 1.28971C2743.73 1.26933 2749.64 1.2661 2749.95 1.18204C2750.73 0.970681 2747.87 0.739243 2749.04 0.513953C2749.29 0.465427 2757.21 0.517692 2752.52 0.400427C2752.19 0.392579 2746.45 0.353661 2745.04 0.313881C2744.06 0.286377 2745.83 0.200895 2743.82 0.165688C2741.81 0.130514 2739.61 0.20217 2736.28 0.160806C2732.95 0.118929 2734.41 0.021683 2727.77 0.0101722ZM907.519 1.36128C912.774 1.27962 913.549 1.57871 907.866 1.50715C907.591 1.50334 907.248 1.36529 907.519 1.36128ZM271.809 1.31409C278.677 1.18217 283.379 1.37615 278.533 1.47803C273.687 1.57981 269.716 1.35408 271.809 1.31409ZM200.58 1.21779C208.608 1.11377 209.873 1.5379 201.274 1.45216C200.774 1.44732 200.111 1.22383 200.58 1.21779ZM2719.49 1.24857C2719.56 1.2446 2723.81 1.24073 2723.91 1.24467C2726.17 1.33966 2717.68 1.34733 2719.49 1.24857ZM129.898 1.11293C132.405 1.05556 139.62 1.12179 136.506 1.19313C133.999 1.25053 126.777 1.1843 129.898 1.11293ZM1181.6 1.04204C1181.69 1.03759 1184.73 1.03357 1184.67 1.05877C1184.46 1.13991 1180.22 1.11701 1181.6 1.04204ZM9.76538 1.10806C27.5144 1.0921 38.2756 0.741745 18.9473 0.78128C15.4473 0.788434 26.4907 0.893004 22.0361 0.92459C13.8845 0.982136 8.47144 0.762159 0.152588 0.880037C-1.35327 0.901612 8.75269 1.10975 9.79687 1.10855C9.78638 1.10839 9.77588 1.10823 9.76538 1.10806ZM910.545 1.00203C910.65 0.998072 914.866 0.994321 914.968 0.998242C917.251 1.0932 908.756 1.10081 910.545 1.00203ZM1359.35 0.857091C1359.58 0.848663 1369.37 0.84078 1369.69 0.848545C1374.79 1.00382 1355.01 1.02022 1359.35 0.857091ZM626.555 0.78318C621.954 0.687656 616.449 0.67641 612.782 0.796365C617.354 0.789997 621.957 0.789059 626.555 0.78318Z" fill="white"/>
</svg>
