<svg width="1" height="882" viewBox="0 0 1 882" fill="none" xmlns="http://www.w3.org/2000/svg">
<path d="M0.00508532 873.599C-0.00794087 868.656 0.00598778 862.178 0.0251055 857.254C0.0310348 855.711 0.0575389 856.492 0.0628252 855.427C0.0731304 853.343 0.0601319 851.403 0.072408 849.344C0.0766061 848.661 0.118589 849.511 0.122029 848.795C0.140583 844.875 0.12989 841.166 0.138815 837.194C0.182846 817.632 0.198606 798.402 0.217735 778.6C0.224007 772.071 0.262108 764.134 0.245446 757.39C0.243464 756.603 0.206614 757.072 0.203576 756.922C0.157081 754.573 0.231473 755.354 0.241357 753.82C0.280383 747.732 0.283778 740.962 0.269556 735.103C0.263398 732.61 0.190204 735.11 0.231287 732.6C0.234063 732.426 0.273195 733.058 0.277369 732.374C0.286756 730.824 0.279762 727.883 0.282862 726.682C0.289036 724.366 0.288642 723.983 0.289088 721.793C0.290038 718.799 0.309491 715.238 0.300624 712.026C0.298615 711.34 0.2585 712.248 0.251674 711.154C0.244859 710.06 0.24826 707.164 0.257717 706.188C0.267178 705.212 0.298707 705.627 0.305934 705.455C0.366933 704.033 0.28245 700.684 0.280361 700.253C0.244762 692.396 0.292889 685.658 0.292752 678.282C0.292546 672.683 0.276658 666.696 0.278837 661.369C0.281588 655.021 0.303326 649.642 0.29959 643.476C0.299241 642.825 0.252076 643.588 0.251555 642.793C0.246067 634.348 0.251209 625.963 0.28305 617.555C0.286285 616.712 0.327696 617.799 0.333404 616.956C0.367437 611.799 0.449191 603.638 0.268891 600.574C0.275932 597.08 0.283206 592.839 0.319551 589.713C0.342943 587.698 0.388056 589.655 0.368806 587.18C0.364517 586.622 0.325009 587.348 0.321565 586.51C0.307102 582.985 0.319944 579.134 0.299532 575.646C0.295287 574.937 0.259886 575.13 0.253511 574.929C0.201885 573.24 0.287227 570.428 0.293428 569.815C0.339672 565.147 0.321474 561.738 0.322604 557.39C0.322886 556.381 0.275335 557.574 0.273898 556.603C0.267083 551.566 0.27117 546.35 0.29227 541.418C0.297078 540.321 0.337583 541.33 0.341953 540.806C0.360728 538.495 0.284225 537.982 0.300754 535.766C0.304141 535.299 0.338816 535.562 0.342624 535.476C0.402405 534.142 0.3177 532.983 0.31583 532.64C0.290278 528.299 0.378705 525.525 0.366184 521.332C0.364597 520.83 0.320723 521.961 0.318943 520.551C0.306832 511.157 0.318885 501.221 0.353979 491.922C0.359376 490.476 0.392335 491.508 0.396398 491.417C0.459882 489.935 0.374821 488.975 0.371618 488.504C0.348559 484.785 0.419893 481.31 0.318579 478.783C0.353739 463.033 0.296847 447.354 0.387612 431.733C0.388663 431.535 0.430556 431.891 0.432473 431.494C0.455995 426.723 0.390886 427.639 0.311257 424.483C0.291262 423.687 0.387401 421.268 0.394448 421.054C0.420417 420.274 0.482741 421.083 0.487771 420.822C0.527262 418.661 0.321151 419.013 0.321084 416.098C0.321428 416.007 0.359365 416.39 0.363138 416.145C0.37498 415.385 0.359905 414.631 0.372964 413.888C0.403182 412.185 0.503335 411.579 0.445047 408.979C0.437482 408.65 0.320567 409.152 0.32609 406.549C0.328391 405.512 0.326387 400.919 0.333964 399.632C0.341531 398.346 0.379207 399.229 0.380838 399.137C0.430658 395.673 0.451306 396.987 0.525064 395.251C0.598544 393.516 0.423288 393.997 0.403727 393.29C0.384221 392.581 0.425326 390.041 0.439616 389.417C0.453911 388.793 0.477852 389.571 0.485941 389.017C0.538795 385.339 0.39895 387.402 0.371134 386.19C0.305272 383.333 0.435242 381.108 0.447978 378.492C0.451417 377.785 0.421816 378.362 0.419047 377.732C0.408475 375.236 0.44903 373.735 0.411845 370.895C0.405786 370.431 0.327644 368.135 0.38499 366.649C0.393259 366.439 0.425648 367.037 0.432903 365.973C0.443791 364.384 0.45087 361.521 0.440044 359.812C0.432034 358.551 0.378666 359.997 0.395245 358.409C0.402647 357.704 0.433868 359.011 0.445171 357.686C0.456471 356.367 0.455099 352.996 0.454022 351.714C0.45292 350.433 0.412437 351.134 0.40971 351.031C0.394088 350.405 0.374567 347.947 0.374615 347.73C0.369674 336.777 0.437912 326.677 0.415327 316.012C0.413613 315.175 0.370924 315.733 0.370222 315.605C0.352336 312.74 0.465837 314.999 0.503828 312.998C0.417199 313.287 0.432884 312.105 0.423384 310.087C0.418735 309.115 0.385192 309.644 0.381758 309.556C0.33081 308.113 0.396616 307.109 0.410078 306.851C0.459599 305.896 0.401087 304.856 0.434187 304.206C0.46704 303.556 0.515744 305.051 0.51512 303.116C0.484109 302.573 0.403071 304.01 0.389937 302.541C0.340258 296.996 0.403841 286.646 0.410446 282.188C0.417045 277.739 0.411324 276.302 0.422531 273.71C0.442795 269.027 0.38267 270.743 0.355149 267.835C0.327631 264.919 0.475568 266.336 0.50737 265.917C0.539158 265.506 0.506436 265.056 0.523911 264.544C0.541381 264.034 0.563005 265.139 0.569565 263.939C0.576118 262.738 0.519566 259.455 0.486313 259.03C0.415865 258.13 0.341926 259.609 0.367906 256.432C0.369447 256.25 0.408347 256.843 0.412278 256.143C0.442225 250.586 0.444081 244.813 0.470567 239.263C0.47427 238.5 0.517544 239.182 0.520189 238.738C0.547868 234.112 0.474902 235.766 0.393847 233.23C0.501714 233.8 0.567709 232.398 0.568346 228.887C0.568766 226.776 0.521655 227.14 0.488451 225.775C0.478442 225.365 0.51079 223.872 0.488634 223.601C0.41621 222.709 0.335136 224.115 0.367419 220.495C0.368953 220.337 0.408597 220.842 0.410998 220.294C0.426713 216.746 0.350959 216.322 0.341785 212.488C0.334586 209.482 0.380781 204.137 0.388294 200.715C0.509569 200.787 0.481798 197.555 0.398182 196.244C0.401605 194.023 0.396878 191.624 0.408436 189.478C0.412376 188.739 0.447489 189.224 0.451282 189.131C0.510797 187.702 0.429448 186.737 0.426258 186.258C0.395256 181.062 0.456913 176.829 0.396657 171.871C0.394487 171.695 0.310246 171.41 0.371755 170.084C0.375995 169.998 0.414323 171.636 0.417287 169.304C0.420258 166.971 0.465417 162.573 0.426382 159.334C0.416984 158.55 0.348597 156.568 0.402029 154.977C0.409284 154.765 0.433445 154.997 0.44689 154.691C0.489729 153.702 0.404582 153.162 0.476919 152C0.549252 150.837 0.603425 148.419 0.553518 145.153C0.552067 145.049 0.48458 144.276 0.485647 143.248C0.487409 141.609 0.501468 139.281 0.501028 137.569C0.500794 136.749 0.458887 137.274 0.458121 137.132C0.434638 131.62 0.471998 127.697 0.488212 121.792C0.491267 120.71 0.434122 117.599 0.479301 115.504C0.528758 113.203 0.734492 115.568 0.685477 110.279C0.665873 108.146 0.404862 105.445 0.540092 101.612C0.506584 94.1772 0.575794 87.3018 0.527947 79.8464C0.525828 79.5111 0.452982 78.451 0.453973 77.6628C0.455586 76.4927 0.489633 75.8503 0.491876 75.0149C0.502132 71.514 0.473002 68.31 0.477533 64.9346C0.47918 63.6531 0.514384 64.1012 0.516352 62.5727C0.518286 61.0452 0.471929 60.0264 0.494318 57.9565C0.511384 56.3931 0.606137 54.8301 0.617182 52.7549C0.523718 52.6757 0.525643 51.2506 0.500971 48.7174C0.496184 48.2303 0.463654 48.7527 0.459712 48.5223C0.442946 47.5849 0.469906 46.7173 0.451655 45.8272C0.447272 45.6108 0.415354 45.6003 0.409968 45.4235C0.362963 43.9185 0.43476 41.4384 0.447261 41.0125C0.494737 39.3801 0.453223 38.6174 0.471919 37.3654C0.490613 36.1154 0.513981 37.9843 0.525325 36.5242C0.548788 33.4977 0.543634 29.6086 0.545101 26.5348C0.545489 25.3083 0.502883 26.145 0.501949 25.9695C0.491143 23.4335 0.536464 20.8687 0.451595 19.4625C0.671034 17.704 0.430311 17.9332 0.47424 14.3079C0.477793 14.0223 0.581563 13.6591 0.596798 14.7554C0.612018 15.8516 0.579581 17.5141 0.603328 19.0352C0.608901 19.3953 0.706141 21.4589 0.712032 21.7403C0.758066 23.9456 0.602995 24.2581 0.594478 24.3748C0.502562 25.6979 0.60732 28.2191 0.614558 28.8832C0.647726 31.921 0.625918 34.5015 0.649592 37.0424C0.664893 38.704 0.766471 38.8665 0.763361 40.1714C0.753084 44.5089 0.611383 46.0231 0.734247 50.1104C0.760451 50.9867 0.871473 50.1157 0.784173 53.2562C0.77867 53.4534 0.698807 55.7851 0.749322 57.1322C0.755691 57.3015 0.788047 57.296 0.790765 57.5191C0.808346 59.0145 0.78257 60.0117 0.794915 61.6407C0.80726 63.2696 0.825665 65.2281 0.81469 67.088C0.808128 68.2088 0.747845 69.6468 0.733086 70.1833C0.69057 71.6982 0.760279 73.3226 0.708794 74.2612C0.657051 75.2076 0.57847 73.3575 0.545037 75.8392C0.629099 75.9311 0.71538 76.1423 0.799919 76.29C0.796959 81.7291 0.769777 87.0806 0.77349 92.5375C0.774035 93.2142 0.819227 92.5222 0.820976 93.2475C0.828155 96.3074 0.795939 98.9802 0.808768 102.154C0.818872 104.61 0.86672 107.303 0.878775 109.872C0.782584 111.441 0.815239 115.252 0.806448 118.021C0.803411 118.991 0.77772 118.926 0.769339 119.616C0.738341 122.218 0.823344 120.998 0.836721 121.712C0.893813 124.772 0.701414 125.034 0.706167 128.643C0.706354 128.834 0.808911 131.171 0.815298 131.493C0.856943 133.538 0.779601 131.831 0.772024 133.111C0.758176 135.448 0.733684 137.072 0.763723 139.813C0.77262 140.613 0.836543 142.53 0.787099 144.083C0.780624 144.287 0.746726 144.174 0.744741 144.338C0.711649 147.314 0.818163 147.392 0.854237 149.093C0.890303 150.793 0.816774 153.42 0.795582 153.954C0.74076 155.353 0.772153 152.883 0.766774 152.807C0.702751 151.918 0.713773 153.833 0.708363 155.297C0.603924 155.509 0.610193 157.556 0.703175 156.814C0.713331 156.73 0.703592 155.591 0.708363 155.297C0.810832 156.582 0.823955 158.831 0.728199 161.316C0.68332 162.479 0.630993 161.38 0.650135 164.913C0.658777 166.516 0.730688 165.897 0.750294 167.312C0.795026 170.545 0.727944 174.745 0.738513 178.078C0.742351 179.288 0.781715 178.11 0.785693 178.936C0.796376 181.13 0.76684 183.065 0.78197 185.268C0.783391 185.468 0.824597 184.98 0.825122 185.665C0.829907 190.86 0.803514 195.383 0.802782 200.806C0.802447 203.426 0.825173 208.111 0.820604 210.826C0.812928 215.53 0.753008 221.318 0.767564 225.337C0.776881 227.958 0.818096 227.383 0.846177 228.507C0.900609 230.674 0.803108 234.51 0.78801 235.027C0.787511 235.043 0.777795 232.787 0.756638 233.991C0.712555 234.691 0.787819 235.002 0.78801 235.027C0.778257 235.366 0.768901 239.872 0.77678 240.767C0.781085 241.253 0.820133 240.981 0.82164 241.235C0.856584 247.26 0.866509 253.296 0.848251 259.407C0.847462 259.514 0.803784 259.352 0.802474 259.605C0.783054 263.143 0.836486 265.409 0.868209 268.326C0.899918 271.244 0.889297 273.557 0.814314 275.284C0.823755 277.485 0.790606 280.644 0.770491 282.461C0.750377 284.278 0.835399 284.532 0.83708 284.691C0.890878 289.679 0.842212 292.562 0.834638 297.736C0.830891 300.196 0.843224 305.075 0.852521 307.739C0.860011 309.844 0.840085 311.112 0.852826 313.051C0.854527 313.314 0.892384 313.049 0.893841 313.129C0.939134 315.294 0.846588 314.253 0.83006 314.7C0.769953 316.32 0.737941 317.322 0.766217 320.094C0.772692 320.733 0.905945 322.595 0.913738 323.761C0.923626 325.276 0.875862 324.704 0.887432 326.291C0.888378 326.427 0.917845 326.399 0.916546 327.378C0.910902 331.923 0.893756 336.879 0.896709 341.603C0.896999 342.249 0.943737 341.421 0.944926 342.354C0.950466 346.728 0.948736 351.523 0.926859 355.785C0.921327 356.834 0.888602 356.176 0.878886 356.404C0.820093 357.802 0.905517 359.784 0.907145 360.112C0.948195 367.915 0.870887 373.887 0.907693 381.84C0.909854 382.273 1.00143 385.605 0.92289 387.092C0.917665 387.194 0.837311 388.665 0.892251 389.966C0.895688 390.046 0.937055 389.13 0.932839 390.729C0.928632 392.329 0.956257 394.903 0.910805 397.102C0.896487 397.798 0.816331 399.443 0.880226 401.519C0.884687 401.655 1.02916 404.86 0.929481 406.004C0.913073 406.19 0.807588 405.996 0.861671 408.474C0.872156 408.948 0.895685 408.088 0.910377 409.335C0.933021 411.247 0.904768 413.779 0.951759 416.128C0.960078 416.538 1.03167 418.282 0.977332 419.681C0.968821 419.901 0.933605 419.484 0.929664 420.223C0.910759 423.737 0.934315 427.416 0.909949 430.983C0.901387 432.246 0.844456 431.601 0.8292 432.918C0.813948 434.235 0.799277 436.889 0.825293 438.267C0.851321 439.646 0.942056 438.14 0.949316 440.205C0.98085 449.184 0.927622 458.079 0.919835 467.044C0.918672 468.374 0.95114 467.272 0.951756 469.231C0.954171 476.456 0.984613 488.93 0.915622 495.199C0.860365 500.222 0.818297 493.901 0.795811 497.739C0.785084 499.592 0.890573 501.596 0.893894 502.043C0.927628 506.411 0.880899 509.447 0.895236 513.378C0.898211 514.19 0.940966 513.394 0.943026 514.085C0.950441 516.445 0.931357 518.925 0.934847 521.18C0.936511 522.192 0.969167 522.006 0.966646 522.937C0.960992 525.164 0.947265 527.134 0.916658 529.306C0.913869 529.504 0.873248 528.169 0.871737 529.817C0.869407 532.485 0.839213 535.796 0.870393 538.865C0.879773 539.775 0.954406 539.811 0.902864 541.768C0.892099 542.179 0.802481 541.655 0.879915 543.935C0.892782 544.318 0.997226 548.149 0.929902 550.028C0.912183 550.524 0.838848 551.79 0.850373 552.885C0.852212 553.033 0.8923 552.438 0.896211 553.346C0.909294 556.544 0.905016 559.895 0.917572 563.18C0.921004 564.058 0.962488 562.751 0.966278 564.058C0.976763 567.654 0.966201 572.143 0.953216 575.66C0.94835 576.956 0.913987 576.06 0.910248 576.154C0.849423 577.671 0.931522 578.568 0.936309 579.071C0.964974 582.202 0.926409 584.586 0.936614 587.473C0.939326 588.269 0.978473 587.704 0.981963 587.863C1.01607 589.507 0.945767 588.282 0.938018 589.323C0.916075 592.239 0.919221 595.489 0.924223 598.438C0.926118 599.521 0.971509 598.303 0.972685 599.275C0.980507 605.028 0.976163 611.009 0.951139 616.623C0.946345 617.68 0.911393 617.015 0.90341 617.236C0.847557 618.754 0.92374 620.979 0.930997 621.492C0.964133 623.82 0.933224 624.724 0.938993 626.781C0.967716 636.826 0.947244 649.229 0.934597 658.711C0.918319 671.066 0.885068 680.654 0.893702 692.437C0.894207 693.186 0.940704 692.431 0.941736 693.076C0.952945 701.411 0.934775 709.616 0.948205 717.967C0.949224 718.653 0.993304 717.665 0.996422 718.765C1.00313 721.021 1.00073 723.879 0.986656 726.16C0.979875 727.273 0.94205 725.78 0.935997 726.9C0.921816 729.508 0.918677 732.303 0.925743 734.982C0.928846 736.122 0.973929 734.402 0.974449 735.884C0.978921 745.976 0.986685 755.888 0.928305 766.087C0.924296 766.787 0.83267 767.4 0.850241 768.887C0.87567 768.999 0.905581 768.993 0.932761 769.042C0.947401 783.734 0.915637 798.276 0.910725 813.01C0.910528 813.631 0.959076 812.557 0.958942 813.76C0.958224 820.721 0.971673 827.48 0.923419 834.6C0.9187 835.307 0.833293 834.944 0.84621 837.026C0.848567 837.393 0.859957 840.529 0.878497 841.339C0.881294 841.45 0.921158 840.877 0.92232 841.888C0.928374 847.759 0.919272 853.912 0.894915 859.774C0.890907 860.72 0.848455 859.712 0.845232 860.386C0.822696 865.166 0.854968 870.364 0.816423 874.931C0.79047 877.988 0.717087 876.856 0.644854 878.481C0.634662 878.711 0.633047 880.604 0.591021 880.702C0.48534 880.953 0.369621 880.036 0.256976 880.412C0.232714 880.492 0.258846 883.027 0.200214 881.526C0.19629 881.421 0.17683 879.583 0.15694 879.13C0.143188 878.815 0.100447 879.383 0.0828436 878.74C0.0652566 878.097 0.101085 877.39 0.0804023 876.324C0.0594639 875.259 0.0108409 875.727 0.00508532 873.599ZM0.680586 290.643C0.639755 292.326 0.789302 292.574 0.753523 290.754C0.751616 290.666 0.682589 290.557 0.680586 290.643ZM0.656975 87.0499C0.591014 89.2498 0.688003 90.7552 0.738945 89.2032C0.789832 87.6516 0.67697 86.3797 0.656975 87.0499ZM0.608819 64.2382C0.556812 66.8092 0.768876 67.214 0.726007 64.4602C0.723584 64.3002 0.611839 64.0878 0.608819 64.2382ZM0.624285 870.948C0.622299 870.971 0.620364 872.332 0.622332 872.364C0.669828 873.089 0.673665 870.368 0.624285 870.948ZM0.556391 41.6013C0.527705 42.4039 0.56082 44.715 0.596491 43.7177C0.625188 42.9147 0.592076 40.6019 0.556391 41.6013ZM0.520976 378.422C0.518747 378.448 0.51674 379.424 0.529337 379.404C0.569909 379.338 0.558459 377.98 0.520976 378.422ZM0.553952 3.1275C0.545969 8.81177 0.370794 12.2582 0.390561 6.06812C0.394138 4.94708 0.446423 8.48413 0.462216 7.05731C0.490989 4.44653 0.381 2.71307 0.439939 0.0488891C0.450726 -0.433472 0.554796 2.80328 0.554196 3.13757C0.554115 3.13434 0.554033 3.13074 0.553952 3.1275ZM0.50096 291.612C0.498983 291.646 0.497108 292.996 0.499068 293.029C0.546545 293.76 0.55035 291.04 0.50096 291.612ZM0.428505 435.347C0.424291 435.421 0.42035 438.555 0.424232 438.658C0.50187 440.292 0.510068 433.956 0.428505 435.347ZM0.391529 200.661C0.343767 199.188 0.338143 197.425 0.398121 196.25C0.394937 197.715 0.394468 199.189 0.391529 200.661Z" fill="white"/>
</svg>
