<svg width="848" height="800" viewBox="0 0 848 800" fill="none" xmlns="http://www.w3.org/2000/svg">
<path d="M659.802 100.317C588.197 80.7388 512.417 82.6443 441.887 105.796C389.258 121.358 338.579 142.881 290.835 169.948L216.11 43.493C202.697 22.5005 181.516 7.67398 157.201 2.25596C132.885 -3.16207 107.413 1.26937 86.3565 14.5811C64.5387 26.6052 48.3702 46.78 41.3872 70.6931C34.4043 94.6062 37.1751 120.311 49.0937 142.187L190.085 380.781L129.634 365.642C103.069 359.084 74.9927 363.208 51.4364 377.128C27.8802 391.048 10.7245 413.653 3.65575 440.086C0.0404788 453.205 -0.905559 466.915 0.873655 480.406C2.65288 493.897 7.12121 506.894 14.014 518.627C26.9989 541.6 48.5561 558.493 73.9673 565.608L262.98 631.61C288.229 662.092 318.922 687.617 353.495 706.886C379.422 722.094 407.626 733.035 437.026 739.291L464.096 785.101C467.881 791.677 474.044 796.553 481.314 798.723C488.585 800.894 496.412 800.195 503.183 796.77L835.067 600.651C841.334 596.371 845.722 589.853 847.327 582.437C848.933 575.021 847.635 567.271 843.7 560.783L805.632 496.363C819.528 412.833 803.11 327.088 759.341 254.6L674.747 111.444C671.198 106.121 665.918 102.19 659.802 100.317ZM712.328 283.992C751.338 346.527 765.71 421.33 752.653 493.869C749.922 501.272 750.139 509.441 753.261 516.687L783.715 568.224L500.742 735.44L479.875 700.128C477.572 696.216 474.342 692.93 470.471 690.559C466.6 688.187 462.206 686.803 457.675 686.528C431.131 682.435 405.676 673.069 382.809 658.982C352.402 642.226 325.764 619.398 304.549 591.916C301.242 586.904 296.397 583.102 290.743 581.082L91.2974 511.588C85.2443 510.074 79.5523 507.373 74.5517 503.641C69.551 499.91 65.3414 495.222 62.1671 489.85C58.9929 484.479 56.9172 478.53 56.0607 472.35C55.2041 466.169 55.5837 459.88 57.1774 453.848C60.4612 441.468 68.4824 430.877 79.5088 424.361C90.5352 417.845 103.682 415.928 116.11 419.023L229.986 448.304L274.257 523.222L307.877 471.164L96.8126 113.989C92.5 104.753 91.9394 94.2037 95.2487 84.5626C98.5581 74.9214 105.479 66.9405 114.555 62.3C122.998 56.5884 133.327 54.3755 143.369 56.1272C153.41 57.8789 162.381 63.4585 168.391 71.6913L334.761 353.233L388.542 335.294L319.175 217.905C339.431 206.468 360.268 196.09 381.6 186.811L455.338 311.596L498.448 297.388L423.018 169.74C433.928 165.868 445.218 162.094 457.028 158.656C471.311 154.583 485.803 151.285 500.442 148.775L573.052 271.651L616.162 257.444L548.909 143.634C577.067 141.766 605.347 143.794 632.949 149.663L712.328 283.992Z" fill="white"/>
</svg>
