<svg width="294" height="49" viewBox="0 0 294 49" fill="none" xmlns="http://www.w3.org/2000/svg">
<path opacity="0.6" d="M10.3449 8.61623C10.3449 9.41623 10.1049 10.0402 9.62494 10.4882C9.14494 10.9362 8.52894 11.2402 7.77694 11.4002V11.4962C8.57694 11.6082 9.27294 11.8962 9.86494 12.3602C10.4569 12.8082 10.7529 13.5122 10.7529 14.4722C10.7529 15.0162 10.6489 15.5202 10.4409 15.9842C10.2489 16.4482 9.94494 16.8482 9.52894 17.1842C9.11294 17.5202 8.57694 17.7842 7.92094 17.9762C7.26494 18.1522 6.47294 18.2402 5.54494 18.2402H0.000937521V5.37623H5.52094C6.43294 5.37623 7.24894 5.48023 7.96894 5.68823C8.70494 5.88023 9.28094 6.21623 9.69694 6.69623C10.1289 7.16023 10.3449 7.80023 10.3449 8.61623ZM8.56894 14.4722C8.56894 13.7362 8.28894 13.2082 7.72894 12.8882C7.16894 12.5682 6.34494 12.4082 5.25694 12.4082H2.11294V16.5362H5.30494C6.36094 16.5362 7.16894 16.3842 7.72894 16.0802C8.28894 15.7602 8.56894 15.2242 8.56894 14.4722ZM8.20894 8.88023C8.20894 8.27223 7.98494 7.83223 7.53694 7.56023C7.10494 7.27223 6.39294 7.12823 5.40094 7.12823H2.11294V10.6562H5.01694C6.05694 10.6562 6.84894 10.5122 7.39294 10.2242C7.93694 9.93623 8.20894 9.48823 8.20894 8.88023ZM25.0131 11.7842C25.0131 12.8562 24.8691 13.8082 24.5811 14.6402C24.3091 15.4562 23.9091 16.1522 23.3811 16.7282C22.8691 17.3042 22.2371 17.7442 21.4851 18.0482C20.7491 18.3362 19.9251 18.4802 19.0131 18.4802C18.1651 18.4802 17.3811 18.3362 16.6611 18.0482C15.9411 17.7442 15.3171 17.3042 14.7891 16.7282C14.2611 16.1522 13.8451 15.4562 13.5411 14.6402C13.2531 13.8082 13.1091 12.8562 13.1091 11.7842C13.1091 10.3602 13.3491 9.16023 13.8291 8.18423C14.3091 7.19223 14.9971 6.44023 15.8931 5.92823C16.7891 5.40023 17.8531 5.13623 19.0851 5.13623C20.2531 5.13623 21.2771 5.40023 22.1571 5.92823C23.0531 6.44023 23.7491 7.19223 24.2451 8.18423C24.7571 9.16023 25.0131 10.3602 25.0131 11.7842ZM15.2931 11.7842C15.2931 12.7922 15.4211 13.6722 15.6771 14.4242C15.9491 15.1602 16.3651 15.7282 16.9251 16.1282C17.4851 16.5282 18.1971 16.7282 19.0611 16.7282C19.9251 16.7282 20.6371 16.5282 21.1971 16.1282C21.7571 15.7282 22.1651 15.1602 22.4211 14.4242C22.6931 13.6722 22.8291 12.7922 22.8291 11.7842C22.8291 10.7602 22.6931 9.88823 22.4211 9.16823C22.1491 8.44823 21.7331 7.89623 21.1731 7.51223C20.6291 7.11223 19.9171 6.91223 19.0371 6.91223C17.7251 6.91223 16.7731 7.34423 16.1811 8.20823C15.5891 9.07223 15.2931 10.2642 15.2931 11.7842ZM31.7443 5.13623C32.7203 5.13623 33.5683 5.27223 34.2883 5.54423C35.0083 5.80023 35.5683 6.18423 35.9683 6.69623C36.3683 7.19223 36.5683 7.80023 36.5683 8.52023C36.5683 9.30423 36.3523 9.92823 35.9203 10.3922C35.4883 10.8402 34.8963 11.1682 34.1443 11.3762V11.4722C34.6563 11.6162 35.1283 11.8162 35.5603 12.0722C35.9923 12.3282 36.3363 12.6642 36.5923 13.0802C36.8643 13.4962 37.0003 14.0322 37.0003 14.6882C37.0003 15.3922 36.8003 16.0322 36.4003 16.6082C36.0163 17.1842 35.4163 17.6402 34.6003 17.9762C33.8003 18.3122 32.7683 18.4802 31.5043 18.4802C30.8963 18.4802 30.3123 18.4482 29.7523 18.3842C29.2083 18.3202 28.7123 18.2242 28.2643 18.0962C27.8323 17.9682 27.4483 17.8162 27.1123 17.6402V15.7442C27.6563 16.0002 28.2963 16.2322 29.0323 16.4402C29.7843 16.6482 30.6003 16.7522 31.4803 16.7522C32.1203 16.7522 32.6963 16.6802 33.2083 16.5362C33.7363 16.3922 34.1523 16.1682 34.4563 15.8642C34.7603 15.5442 34.9123 15.1122 34.9123 14.5682C34.9123 14.0722 34.7763 13.6722 34.5043 13.3682C34.2323 13.0482 33.8243 12.8082 33.2803 12.6482C32.7523 12.4882 32.0723 12.4082 31.2403 12.4082H29.5123V10.6802H30.9043C32.0083 10.6802 32.8883 10.5362 33.5443 10.2482C34.2163 9.94423 34.5523 9.43223 34.5523 8.71223C34.5523 8.10423 34.2963 7.64823 33.7843 7.34423C33.2883 7.04023 32.5683 6.88823 31.6243 6.88823C30.9203 6.88823 30.2963 6.96023 29.7523 7.10423C29.2243 7.23223 28.6403 7.43223 28.0003 7.70423L27.2563 6.02423C27.9443 5.72023 28.6643 5.49623 29.4163 5.35223C30.1683 5.20823 30.9443 5.13623 31.7443 5.13623ZM53.9259 5.37623V18.2402H52.0299V10.0322C52.0299 9.69623 52.0379 9.34423 52.0539 8.97623C52.0859 8.60823 52.1179 8.24823 52.1499 7.89623H52.0779L47.8779 18.2402H46.1019L42.0219 7.89623H41.9499C41.9819 8.24823 41.9979 8.60823 41.9979 8.97623C42.0139 9.34423 42.0219 9.72023 42.0219 10.1042V18.2402H40.1259V5.37623H42.9339L46.9899 15.7202L51.1179 5.37623H53.9259ZM69.2162 11.7842C69.2162 12.8562 69.0722 13.8082 68.7842 14.6402C68.5122 15.4562 68.1122 16.1522 67.5842 16.7282C67.0722 17.3042 66.4402 17.7442 65.6882 18.0482C64.9522 18.3362 64.1282 18.4802 63.2162 18.4802C62.3682 18.4802 61.5842 18.3362 60.8642 18.0482C60.1442 17.7442 59.5202 17.3042 58.9922 16.7282C58.4642 16.1522 58.0482 15.4562 57.7442 14.6402C57.4562 13.8082 57.3122 12.8562 57.3122 11.7842C57.3122 10.3602 57.5522 9.16023 58.0322 8.18423C58.5122 7.19223 59.2002 6.44023 60.0962 5.92823C60.9922 5.40023 62.0562 5.13623 63.2882 5.13623C64.4562 5.13623 65.4802 5.40023 66.3602 5.92823C67.2562 6.44023 67.9522 7.19223 68.4482 8.18423C68.9602 9.16023 69.2162 10.3602 69.2162 11.7842ZM59.4962 11.7842C59.4962 12.7922 59.6242 13.6722 59.8802 14.4242C60.1522 15.1602 60.5682 15.7282 61.1282 16.1282C61.6882 16.5282 62.4002 16.7282 63.2642 16.7282C64.1282 16.7282 64.8402 16.5282 65.4002 16.1282C65.9602 15.7282 66.3682 15.1602 66.6242 14.4242C66.8962 13.6722 67.0322 12.7922 67.0322 11.7842C67.0322 10.7602 66.8962 9.88823 66.6242 9.16823C66.3522 8.44823 65.9362 7.89623 65.3762 7.51223C64.8322 7.11223 64.1202 6.91223 63.2402 6.91223C61.9282 6.91223 60.9762 7.34423 60.3842 8.20823C59.7922 9.07223 59.4962 10.2642 59.4962 11.7842ZM87.5267 5.37623L82.2227 11.6162L87.9827 18.2402H85.5827L80.0147 11.7122V18.2402H78.0467V11.7122L72.4787 18.2402H70.0787L75.8387 11.6162L70.5347 5.37623H72.8387L78.0467 11.6162V5.37623H80.0147V11.6162L85.2467 5.37623H87.5267ZM92.2067 5.37623V10.7282H99.1907V5.37623H101.303V18.2402H99.1907V12.5042H92.2067V18.2402H90.0947V5.37623H92.2067ZM116.56 11.7842C116.56 12.8562 116.416 13.8082 116.128 14.6402C115.856 15.4562 115.456 16.1522 114.928 16.7282C114.416 17.3042 113.784 17.7442 113.032 18.0482C112.296 18.3362 111.472 18.4802 110.56 18.4802C109.712 18.4802 108.928 18.3362 108.208 18.0482C107.488 17.7442 106.864 17.3042 106.336 16.7282C105.808 16.1522 105.392 15.4562 105.088 14.6402C104.8 13.8082 104.656 12.8562 104.656 11.7842C104.656 10.3602 104.896 9.16023 105.376 8.18423C105.856 7.19223 106.544 6.44023 107.44 5.92823C108.336 5.40023 109.4 5.13623 110.632 5.13623C111.8 5.13623 112.824 5.40023 113.704 5.92823C114.6 6.44023 115.296 7.19223 115.792 8.18423C116.304 9.16023 116.56 10.3602 116.56 11.7842ZM106.84 11.7842C106.84 12.7922 106.968 13.6722 107.224 14.4242C107.496 15.1602 107.912 15.7282 108.472 16.1282C109.032 16.5282 109.744 16.7282 110.608 16.7282C111.472 16.7282 112.184 16.5282 112.744 16.1282C113.304 15.7282 113.712 15.1602 113.968 14.4242C114.24 13.6722 114.376 12.7922 114.376 11.7842C114.376 10.7602 114.24 9.88823 113.968 9.16823C113.696 8.44823 113.28 7.89623 112.72 7.51223C112.176 7.11223 111.464 6.91223 110.584 6.91223C109.272 6.91223 108.32 7.34423 107.728 8.20823C107.136 9.07223 106.84 10.2642 106.84 11.7842ZM137.771 11.7842C137.771 12.8562 137.627 13.8082 137.339 14.6402C137.067 15.4562 136.667 16.1522 136.139 16.7282C135.627 17.3042 134.995 17.7442 134.243 18.0482C133.507 18.3362 132.683 18.4802 131.771 18.4802C130.923 18.4802 130.139 18.3362 129.419 18.0482C128.699 17.7442 128.075 17.3042 127.547 16.7282C127.019 16.1522 126.603 15.4562 126.299 14.6402C126.011 13.8082 125.867 12.8562 125.867 11.7842C125.867 10.3602 126.107 9.16023 126.587 8.18423C127.067 7.19223 127.755 6.44023 128.651 5.92823C129.547 5.40023 130.611 5.13623 131.843 5.13623C133.011 5.13623 134.035 5.40023 134.915 5.92823C135.811 6.44023 136.507 7.19223 137.003 8.18423C137.515 9.16023 137.771 10.3602 137.771 11.7842ZM128.051 11.7842C128.051 12.7922 128.179 13.6722 128.435 14.4242C128.707 15.1602 129.123 15.7282 129.683 16.1282C130.243 16.5282 130.955 16.7282 131.819 16.7282C132.683 16.7282 133.395 16.5282 133.955 16.1282C134.515 15.7282 134.923 15.1602 135.179 14.4242C135.451 13.6722 135.587 12.7922 135.587 11.7842C135.587 10.7602 135.451 9.88823 135.179 9.16823C134.907 8.44823 134.491 7.89623 133.931 7.51223C133.387 7.11223 132.675 6.91223 131.795 6.91223C130.483 6.91223 129.531 7.34423 128.939 8.20823C128.347 9.07223 128.051 10.2642 128.051 11.7842ZM148.798 5.18423C150.078 5.29623 151.19 5.63223 152.134 6.19223C153.094 6.75223 153.838 7.50423 154.366 8.44823C154.894 9.39223 155.158 10.5122 155.158 11.8082C155.158 13.1042 154.902 14.2322 154.39 15.1922C153.878 16.1362 153.15 16.8882 152.206 17.4482C151.262 17.9922 150.126 18.3202 148.798 18.4322V24.0002H146.734V18.4322C145.47 18.3202 144.358 17.9922 143.398 17.4482C142.438 16.8882 141.694 16.1362 141.166 15.1922C140.638 14.2322 140.374 13.1042 140.374 11.8082C140.374 10.4962 140.63 9.36823 141.142 8.42423C141.654 7.46423 142.39 6.71223 143.35 6.16823C144.31 5.60823 145.462 5.28023 146.806 5.18423V0.000233173H148.798V5.18423ZM146.806 6.93623C145.83 7.03223 145.03 7.28023 144.406 7.68023C143.782 8.08023 143.318 8.62423 143.014 9.31223C142.726 10.0002 142.582 10.8322 142.582 11.8082C142.582 12.7682 142.726 13.6002 143.014 14.3042C143.318 14.9922 143.782 15.5442 144.406 15.9602C145.03 16.3602 145.83 16.6082 146.806 16.7042V6.93623ZM148.798 16.7042C149.758 16.5922 150.542 16.3362 151.15 15.9362C151.774 15.5362 152.23 14.9922 152.518 14.3042C152.822 13.6002 152.974 12.7682 152.974 11.8082C152.974 10.8482 152.822 10.0242 152.518 9.33623C152.214 8.64823 151.75 8.10423 151.126 7.70423C150.518 7.30423 149.742 7.05623 148.798 6.96023V16.7042ZM169.693 11.7842C169.693 12.8562 169.549 13.8082 169.261 14.6402C168.989 15.4562 168.589 16.1522 168.061 16.7282C167.549 17.3042 166.917 17.7442 166.165 18.0482C165.429 18.3362 164.605 18.4802 163.693 18.4802C162.845 18.4802 162.061 18.3362 161.341 18.0482C160.621 17.7442 159.997 17.3042 159.469 16.7282C158.941 16.1522 158.525 15.4562 158.221 14.6402C157.933 13.8082 157.789 12.8562 157.789 11.7842C157.789 10.3602 158.029 9.16023 158.509 8.18423C158.989 7.19223 159.677 6.44023 160.573 5.92823C161.469 5.40023 162.533 5.13623 163.765 5.13623C164.933 5.13623 165.957 5.40023 166.837 5.92823C167.733 6.44023 168.429 7.19223 168.925 8.18423C169.437 9.16023 169.693 10.3602 169.693 11.7842ZM159.973 11.7842C159.973 12.7922 160.101 13.6722 160.357 14.4242C160.629 15.1602 161.045 15.7282 161.605 16.1282C162.165 16.5282 162.877 16.7282 163.741 16.7282C164.605 16.7282 165.317 16.5282 165.877 16.1282C166.437 15.7282 166.845 15.1602 167.101 14.4242C167.373 13.6722 167.509 12.7922 167.509 11.7842C167.509 10.7602 167.373 9.88823 167.101 9.16823C166.829 8.44823 166.413 7.89623 165.853 7.51223C165.309 7.11223 164.597 6.91223 163.717 6.91223C162.405 6.91223 161.453 7.34423 160.861 8.20823C160.269 9.07223 159.973 10.2642 159.973 11.7842ZM179.16 5.13623C180.744 5.13623 182.016 5.68823 182.976 6.79223C183.952 7.89623 184.44 9.56023 184.44 11.7842C184.44 13.2402 184.216 14.4722 183.768 15.4802C183.336 16.4722 182.72 17.2242 181.92 17.7362C181.136 18.2322 180.208 18.4802 179.136 18.4802C178.48 18.4802 177.896 18.3922 177.384 18.2162C176.872 18.0402 176.432 17.8162 176.064 17.5442C175.712 17.2562 175.408 16.9442 175.152 16.6082H175.008C175.04 16.8802 175.072 17.2242 175.104 17.6402C175.136 18.0562 175.152 18.4162 175.152 18.7202V24.0002H173.04V5.37623H174.768L175.056 7.12823H175.152C175.408 6.76023 175.712 6.42423 176.064 6.12023C176.432 5.81623 176.864 5.57623 177.36 5.40023C177.872 5.22423 178.472 5.13623 179.16 5.13623ZM178.776 6.91223C177.912 6.91223 177.216 7.08023 176.688 7.41623C176.16 7.73623 175.776 8.22423 175.536 8.88023C175.296 9.53623 175.168 10.3682 175.152 11.3762V11.7842C175.152 12.8402 175.264 13.7362 175.488 14.4722C175.712 15.2082 176.088 15.7682 176.616 16.1522C177.16 16.5362 177.896 16.7282 178.824 16.7282C179.608 16.7282 180.248 16.5122 180.744 16.0802C181.256 15.6482 181.632 15.0642 181.872 14.3282C182.128 13.5762 182.256 12.7202 182.256 11.7602C182.256 10.2882 181.968 9.11223 181.392 8.23223C180.832 7.35223 179.96 6.91223 178.776 6.91223ZM201.606 5.37623V18.2402H199.71V10.0322C199.71 9.69623 199.718 9.34423 199.734 8.97623C199.766 8.60823 199.798 8.24823 199.83 7.89623H199.758L195.558 18.2402H193.782L189.702 7.89623H189.63C189.662 8.24823 189.678 8.60823 189.678 8.97623C189.694 9.34423 189.702 9.72023 189.702 10.1042V18.2402H187.806V5.37623H190.614L194.67 15.7202L198.798 5.37623H201.606ZM215.504 18.2402H213.368V7.12823H209.576C209.416 9.16023 209.216 10.8962 208.976 12.3362C208.736 13.7602 208.432 14.9202 208.064 15.8162C207.696 16.7122 207.256 17.3682 206.744 17.7842C206.232 18.2002 205.632 18.4082 204.944 18.4082C204.736 18.4082 204.528 18.3922 204.32 18.3602C204.128 18.3442 203.968 18.3042 203.84 18.2402V16.6562C203.936 16.6882 204.04 16.7122 204.152 16.7282C204.264 16.7442 204.376 16.7522 204.488 16.7522C204.84 16.7522 205.16 16.6082 205.448 16.3202C205.736 16.0322 205.992 15.5922 206.216 15.0002C206.456 14.4082 206.672 13.6642 206.864 12.7682C207.056 11.8562 207.224 10.7842 207.368 9.55223C207.512 8.32023 207.64 6.92823 207.752 5.37623H215.504V18.2402ZM224.555 5.13623C225.659 5.13623 226.603 5.37623 227.387 5.85623C228.187 6.33623 228.795 7.01623 229.211 7.89623C229.643 8.76023 229.859 9.77623 229.859 10.9442V12.2162H221.051C221.083 13.6722 221.451 14.7842 222.155 15.5522C222.875 16.3042 223.875 16.6802 225.155 16.6802C225.971 16.6802 226.691 16.6082 227.315 16.4642C227.955 16.3042 228.611 16.0802 229.283 15.7922V17.6402C228.627 17.9282 227.979 18.1362 227.339 18.2642C226.699 18.4082 225.939 18.4802 225.059 18.4802C223.843 18.4802 222.763 18.2322 221.819 17.7362C220.891 17.2402 220.163 16.5042 219.635 15.5282C219.123 14.5362 218.867 13.3282 218.867 11.9042C218.867 10.4962 219.099 9.28823 219.563 8.28023C220.043 7.27223 220.707 6.49623 221.555 5.95223C222.419 5.40823 223.419 5.13623 224.555 5.13623ZM224.531 6.86423C223.523 6.86423 222.723 7.19223 222.131 7.84823C221.555 8.48823 221.211 9.38423 221.099 10.5362H227.651C227.651 9.80023 227.539 9.16023 227.315 8.61623C227.091 8.07223 226.747 7.64823 226.283 7.34423C225.835 7.02423 225.251 6.86423 224.531 6.86423ZM235.246 5.37623V10.7282H242.23V5.37623H244.342V18.2402H242.23V12.5042H235.246V18.2402H233.134V5.37623H235.246ZM250.407 13.2242C250.407 13.3682 250.399 13.5762 250.383 13.8482C250.383 14.1042 250.375 14.3842 250.359 14.6882C250.343 14.9762 250.327 15.2562 250.311 15.5282C250.295 15.7842 250.279 15.9922 250.263 16.1522L257.151 5.37623H259.743V18.2402H257.775V10.6562C257.775 10.4002 257.775 10.0642 257.775 9.64823C257.791 9.23223 257.807 8.82423 257.823 8.42423C257.839 8.00823 257.855 7.69623 257.871 7.48823L251.031 18.2402H248.415V5.37623H250.407V13.2242ZM268.805 5.13623C269.909 5.13623 270.853 5.37623 271.637 5.85623C272.437 6.33623 273.045 7.01623 273.461 7.89623C273.893 8.76023 274.109 9.77623 274.109 10.9442V12.2162H265.301C265.333 13.6722 265.701 14.7842 266.405 15.5522C267.125 16.3042 268.125 16.6802 269.405 16.6802C270.221 16.6802 270.941 16.6082 271.565 16.4642C272.205 16.3042 272.861 16.0802 273.533 15.7922V17.6402C272.877 17.9282 272.229 18.1362 271.589 18.2642C270.949 18.4082 270.189 18.4802 269.309 18.4802C268.093 18.4802 267.013 18.2322 266.069 17.7362C265.141 17.2402 264.413 16.5042 263.885 15.5282C263.373 14.5362 263.117 13.3282 263.117 11.9042C263.117 10.4962 263.349 9.28823 263.813 8.28023C264.293 7.27223 264.957 6.49623 265.805 5.95223C266.669 5.40823 267.669 5.13623 268.805 5.13623ZM268.781 6.86423C267.773 6.86423 266.973 7.19223 266.381 7.84823C265.805 8.48823 265.461 9.38423 265.349 10.5362H271.901C271.901 9.80023 271.789 9.16023 271.565 8.61623C271.341 8.07223 270.997 7.64823 270.533 7.34423C270.085 7.02423 269.501 6.86423 268.781 6.86423ZM10.8729 30.3762V43.2402H8.76094V32.1762H2.11294V43.2402H0.000937521V30.3762H10.8729ZM21.0975 30.1362C22.6815 30.1362 23.9535 30.6882 24.9135 31.7922C25.8895 32.8962 26.3775 34.5602 26.3775 36.7842C26.3775 38.2402 26.1535 39.4722 25.7055 40.4802C25.2735 41.4722 24.6575 42.2242 23.8575 42.7362C23.0735 43.2322 22.1455 43.4802 21.0735 43.4802C20.4175 43.4802 19.8335 43.3922 19.3215 43.2162C18.8095 43.0402 18.3695 42.8162 18.0015 42.5442C17.6495 42.2562 17.3455 41.9442 17.0895 41.6082H16.9455C16.9775 41.8802 17.0095 42.2242 17.0415 42.6402C17.0735 43.0562 17.0895 43.4162 17.0895 43.7202V49.0002H14.9775V30.3762H16.7055L16.9935 32.1282H17.0895C17.3455 31.7602 17.6495 31.4242 18.0015 31.1202C18.3695 30.8162 18.8015 30.5762 19.2975 30.4002C19.8095 30.2242 20.4095 30.1362 21.0975 30.1362ZM20.7135 31.9122C19.8495 31.9122 19.1535 32.0802 18.6255 32.4162C18.0975 32.7362 17.7135 33.2242 17.4735 33.8802C17.2335 34.5362 17.1055 35.3682 17.0895 36.3762V36.7842C17.0895 37.8402 17.2015 38.7362 17.4255 39.4722C17.6495 40.2082 18.0255 40.7682 18.5535 41.1522C19.0975 41.5362 19.8335 41.7282 20.7615 41.7282C21.5455 41.7282 22.1855 41.5122 22.6815 41.0802C23.1935 40.6482 23.5695 40.0642 23.8095 39.3282C24.0655 38.5762 24.1935 37.7202 24.1935 36.7602C24.1935 35.2882 23.9055 34.1122 23.3295 33.2322C22.7695 32.3522 21.8975 31.9122 20.7135 31.9122ZM31.7351 38.2242C31.7351 38.3682 31.7271 38.5762 31.7111 38.8482C31.7111 39.1042 31.7031 39.3842 31.6871 39.6882C31.6711 39.9762 31.6551 40.2562 31.6391 40.5282C31.6231 40.7842 31.6071 40.9922 31.5911 41.1522L38.4791 30.3762H41.0711V43.2402H39.1031V35.6562C39.1031 35.4002 39.1031 35.0642 39.1031 34.6482C39.1191 34.2322 39.1351 33.8242 39.1511 33.4242C39.1671 33.0082 39.1831 32.6962 39.1991 32.4882L32.3591 43.2402H29.7431V30.3762H31.7351V38.2242ZM53.8367 38.2242C53.8367 38.3682 53.8287 38.5762 53.8127 38.8482C53.8127 39.1042 53.8047 39.3842 53.7887 39.6882C53.7727 39.9762 53.7567 40.2562 53.7407 40.5282C53.7247 40.7842 53.7087 40.9922 53.6927 41.1522L60.5807 30.3762H63.1727V43.2402H61.2047V35.6562C61.2047 35.4002 61.2047 35.0642 61.2047 34.6482C61.2207 34.2322 61.2367 33.8242 61.2527 33.4242C61.2687 33.0082 61.2847 32.6962 61.3007 32.4882L54.4607 43.2402H51.8447V30.3762H53.8367V38.2242ZM78.1386 30.3762V43.2402H76.0266V32.1762H69.3786V43.2402H67.2666V30.3762H78.1386ZM93.4271 36.7842C93.4271 37.8562 93.2831 38.8082 92.9951 39.6402C92.7231 40.4562 92.3231 41.1522 91.7951 41.7282C91.2831 42.3042 90.6511 42.7442 89.8991 43.0482C89.1631 43.3362 88.3391 43.4802 87.4271 43.4802C86.5791 43.4802 85.7951 43.3362 85.0751 43.0482C84.3551 42.7442 83.7311 42.3042 83.2031 41.7282C82.6751 41.1522 82.2591 40.4562 81.9551 39.6402C81.6671 38.8082 81.5231 37.8562 81.5231 36.7842C81.5231 35.3602 81.7631 34.1602 82.2431 33.1842C82.7231 32.1922 83.4111 31.4402 84.3071 30.9282C85.2031 30.4002 86.2671 30.1362 87.4991 30.1362C88.6671 30.1362 89.6911 30.4002 90.5711 30.9282C91.4671 31.4402 92.1631 32.1922 92.6591 33.1842C93.1711 34.1602 93.4271 35.3602 93.4271 36.7842ZM83.7071 36.7842C83.7071 37.7922 83.8351 38.6722 84.0911 39.4242C84.3631 40.1602 84.7791 40.7282 85.3391 41.1282C85.8991 41.5282 86.6111 41.7282 87.4751 41.7282C88.3391 41.7282 89.0511 41.5282 89.6111 41.1282C90.1711 40.7282 90.5791 40.1602 90.8351 39.4242C91.1071 38.6722 91.2431 37.7922 91.2431 36.7842C91.2431 35.7602 91.1071 34.8882 90.8351 34.1682C90.5631 33.4482 90.1471 32.8962 89.5871 32.5122C89.0431 32.1122 88.3311 31.9122 87.4511 31.9122C86.1391 31.9122 85.1871 32.3442 84.5951 33.2082C84.0031 34.0722 83.7071 35.2642 83.7071 36.7842ZM105.42 32.1522H101.22V43.2402H99.132V32.1522H94.98V30.3762H105.42V32.1522ZM112.688 30.1362C113.792 30.1362 114.736 30.3762 115.52 30.8562C116.32 31.3362 116.928 32.0162 117.344 32.8962C117.776 33.7602 117.992 34.7762 117.992 35.9442V37.2162H109.184C109.216 38.6722 109.584 39.7842 110.288 40.5522C111.008 41.3042 112.008 41.6802 113.288 41.6802C114.104 41.6802 114.824 41.6082 115.448 41.4642C116.088 41.3042 116.744 41.0802 117.416 40.7922V42.6402C116.76 42.9282 116.112 43.1362 115.472 43.2642C114.832 43.4082 114.072 43.4802 113.192 43.4802C111.976 43.4802 110.896 43.2322 109.952 42.7362C109.024 42.2402 108.296 41.5042 107.768 40.5282C107.256 39.5362 107 38.3282 107 36.9042C107 35.4962 107.232 34.2882 107.696 33.2802C108.176 32.2722 108.84 31.4962 109.688 30.9522C110.552 30.4082 111.552 30.1362 112.688 30.1362ZM112.664 31.8642C111.656 31.8642 110.856 32.1922 110.264 32.8482C109.688 33.4882 109.344 34.3842 109.232 35.5362H115.784C115.784 34.8002 115.672 34.1602 115.448 33.6162C115.224 33.0722 114.88 32.6482 114.416 32.3442C113.968 32.0242 113.384 31.8642 112.664 31.8642ZM128.875 30.3762H131.179L125.683 36.5682L131.635 43.2402H129.187L123.379 36.7122V43.2402H121.267V30.3762H123.379V36.6162L128.875 30.3762ZM138.469 30.1362C139.573 30.1362 140.517 30.3762 141.301 30.8562C142.101 31.3362 142.709 32.0162 143.125 32.8962C143.557 33.7602 143.773 34.7762 143.773 35.9442V37.2162H134.965C134.997 38.6722 135.365 39.7842 136.069 40.5522C136.789 41.3042 137.789 41.6802 139.069 41.6802C139.885 41.6802 140.605 41.6082 141.229 41.4642C141.869 41.3042 142.525 41.0802 143.197 40.7922V42.6402C142.541 42.9282 141.893 43.1362 141.253 43.2642C140.613 43.4082 139.853 43.4802 138.973 43.4802C137.757 43.4802 136.677 43.2322 135.733 42.7362C134.805 42.2402 134.077 41.5042 133.549 40.5282C133.037 39.5362 132.781 38.3282 132.781 36.9042C132.781 35.4962 133.013 34.2882 133.477 33.2802C133.957 32.2722 134.621 31.4962 135.469 30.9522C136.333 30.4082 137.333 30.1362 138.469 30.1362ZM138.445 31.8642C137.437 31.8642 136.637 32.1922 136.045 32.8482C135.469 33.4882 135.125 34.3842 135.013 35.5362H141.565C141.565 34.8002 141.453 34.1602 141.229 33.6162C141.005 33.0722 140.661 32.6482 140.197 32.3442C139.749 32.0242 139.165 31.8642 138.445 31.8642ZM155.72 38.2242C155.72 38.3682 155.712 38.5762 155.696 38.8482C155.696 39.1042 155.688 39.3842 155.672 39.6882C155.656 39.9762 155.64 40.2562 155.624 40.5282C155.608 40.7842 155.592 40.9922 155.576 41.1522L162.464 30.3762H165.056V43.2402H163.088V35.6562C163.088 35.4002 163.088 35.0642 163.088 34.6482C163.104 34.2322 163.12 33.8242 163.136 33.4242C163.152 33.0082 163.168 32.6962 163.184 32.4882L156.344 43.2402H153.728V30.3762H155.72V38.2242ZM181.949 30.1362C183.533 30.1362 184.805 30.6882 185.765 31.7922C186.741 32.8962 187.229 34.5602 187.229 36.7842C187.229 38.2402 187.005 39.4722 186.557 40.4802C186.125 41.4722 185.509 42.2242 184.709 42.7362C183.925 43.2322 182.997 43.4802 181.925 43.4802C181.269 43.4802 180.685 43.3922 180.173 43.2162C179.661 43.0402 179.221 42.8162 178.853 42.5442C178.501 42.2562 178.197 41.9442 177.941 41.6082H177.797C177.829 41.8802 177.861 42.2242 177.893 42.6402C177.925 43.0562 177.941 43.4162 177.941 43.7202V49.0002H175.829V30.3762H177.557L177.845 32.1282H177.941C178.197 31.7602 178.501 31.4242 178.853 31.1202C179.221 30.8162 179.653 30.5762 180.149 30.4002C180.661 30.2242 181.261 30.1362 181.949 30.1362ZM181.565 31.9122C180.701 31.9122 180.005 32.0802 179.477 32.4162C178.949 32.7362 178.565 33.2242 178.325 33.8802C178.085 34.5362 177.957 35.3682 177.941 36.3762V36.7842C177.941 37.8402 178.053 38.7362 178.277 39.4722C178.501 40.2082 178.877 40.7682 179.405 41.1522C179.949 41.5362 180.685 41.7282 181.613 41.7282C182.397 41.7282 183.037 41.5122 183.533 41.0802C184.045 40.6482 184.421 40.0642 184.661 39.3282C184.917 38.5762 185.045 37.7202 185.045 36.7602C185.045 35.2882 184.757 34.1122 184.181 33.2322C183.621 32.3522 182.749 31.9122 181.565 31.9122ZM195.467 30.1602C197.035 30.1602 198.195 30.5042 198.947 31.1922C199.699 31.8802 200.075 32.9762 200.075 34.4802V43.2402H198.539L198.131 41.4162H198.035C197.667 41.8802 197.283 42.2722 196.883 42.5922C196.499 42.8962 196.051 43.1202 195.539 43.2642C195.043 43.4082 194.435 43.4802 193.715 43.4802C192.947 43.4802 192.251 43.3442 191.627 43.0722C191.019 42.8002 190.539 42.3842 190.187 41.8242C189.835 41.2482 189.659 40.5282 189.659 39.6642C189.659 38.3842 190.163 37.4002 191.171 36.7122C192.179 36.0082 193.731 35.6242 195.827 35.5602L198.011 35.4882V34.7202C198.011 33.6482 197.779 32.9042 197.315 32.4882C196.851 32.0722 196.195 31.8642 195.347 31.8642C194.675 31.8642 194.035 31.9682 193.427 32.1762C192.819 32.3682 192.251 32.5922 191.723 32.8482L191.075 31.2642C191.635 30.9602 192.299 30.7042 193.067 30.4962C193.835 30.2722 194.635 30.1602 195.467 30.1602ZM196.091 37.0242C194.491 37.0882 193.379 37.3442 192.755 37.7922C192.147 38.2402 191.843 38.8722 191.843 39.6882C191.843 40.4082 192.059 40.9362 192.491 41.2722C192.939 41.6082 193.507 41.7762 194.195 41.7762C195.283 41.7762 196.187 41.4802 196.907 40.8882C197.627 40.2802 197.987 39.3522 197.987 38.1042V36.9522L196.091 37.0242ZM209.208 43.4802C208.072 43.4802 207.056 43.2482 206.16 42.7842C205.28 42.3202 204.584 41.6002 204.072 40.6242C203.576 39.6482 203.328 38.4002 203.328 36.8802C203.328 35.2962 203.592 34.0082 204.12 33.0162C204.648 32.0242 205.36 31.2962 206.256 30.8322C207.168 30.3682 208.2 30.1362 209.352 30.1362C210.008 30.1362 210.64 30.2082 211.248 30.3522C211.856 30.4802 212.352 30.6402 212.736 30.8322L212.088 32.5842C211.704 32.4402 211.256 32.3042 210.744 32.1762C210.232 32.0482 209.752 31.9842 209.304 31.9842C208.44 31.9842 207.728 32.1682 207.168 32.5362C206.608 32.9042 206.192 33.4482 205.92 34.1682C205.648 34.8882 205.512 35.7842 205.512 36.8562C205.512 37.8802 205.648 38.7522 205.92 39.4722C206.192 40.1922 206.6 40.7362 207.144 41.1042C207.688 41.4722 208.368 41.6562 209.184 41.6562C209.888 41.6562 210.504 41.5842 211.032 41.4402C211.576 41.2962 212.072 41.1202 212.52 40.9122V42.7842C212.088 43.0082 211.608 43.1762 211.08 43.2882C210.568 43.4162 209.944 43.4802 209.208 43.4802ZM220.739 43.4802C219.603 43.4802 218.587 43.2482 217.691 42.7842C216.811 42.3202 216.115 41.6002 215.603 40.6242C215.107 39.6482 214.859 38.4002 214.859 36.8802C214.859 35.2962 215.123 34.0082 215.651 33.0162C216.179 32.0242 216.891 31.2962 217.787 30.8322C218.699 30.3682 219.731 30.1362 220.883 30.1362C221.539 30.1362 222.171 30.2082 222.779 30.3522C223.387 30.4802 223.883 30.6402 224.267 30.8322L223.619 32.5842C223.235 32.4402 222.787 32.3042 222.275 32.1762C221.763 32.0482 221.283 31.9842 220.835 31.9842C219.971 31.9842 219.259 32.1682 218.699 32.5362C218.139 32.9042 217.723 33.4482 217.451 34.1682C217.179 34.8882 217.043 35.7842 217.043 36.8562C217.043 37.8802 217.179 38.7522 217.451 39.4722C217.723 40.1922 218.131 40.7362 218.675 41.1042C219.219 41.4722 219.899 41.6562 220.715 41.6562C221.419 41.6562 222.035 41.5842 222.563 41.4402C223.107 41.2962 223.603 41.1202 224.051 40.9122V42.7842C223.619 43.0082 223.139 43.1762 222.611 43.2882C222.099 43.4162 221.475 43.4802 220.739 43.4802ZM233.23 30.1362C234.814 30.1362 236.086 30.6882 237.046 31.7922C238.022 32.8962 238.51 34.5602 238.51 36.7842C238.51 38.2402 238.286 39.4722 237.838 40.4802C237.406 41.4722 236.79 42.2242 235.99 42.7362C235.206 43.2322 234.278 43.4802 233.206 43.4802C232.55 43.4802 231.966 43.3922 231.454 43.2162C230.942 43.0402 230.502 42.8162 230.134 42.5442C229.782 42.2562 229.478 41.9442 229.222 41.6082H229.078C229.11 41.8802 229.142 42.2242 229.174 42.6402C229.206 43.0562 229.222 43.4162 229.222 43.7202V49.0002H227.11V30.3762H228.838L229.126 32.1282H229.222C229.478 31.7602 229.782 31.4242 230.134 31.1202C230.502 30.8162 230.934 30.5762 231.43 30.4002C231.942 30.2242 232.542 30.1362 233.23 30.1362ZM232.846 31.9122C231.982 31.9122 231.286 32.0802 230.758 32.4162C230.23 32.7362 229.846 33.2242 229.606 33.8802C229.366 34.5362 229.238 35.3682 229.222 36.3762V36.7842C229.222 37.8402 229.334 38.7362 229.558 39.4722C229.782 40.2082 230.158 40.7682 230.686 41.1522C231.23 41.5362 231.966 41.7282 232.894 41.7282C233.678 41.7282 234.318 41.5122 234.814 41.0802C235.326 40.6482 235.702 40.0642 235.942 39.3282C236.198 38.5762 236.326 37.7202 236.326 36.7602C236.326 35.2882 236.038 34.1122 235.462 33.2322C234.902 32.3522 234.03 31.9122 232.846 31.9122ZM253.06 36.7842C253.06 37.8562 252.916 38.8082 252.628 39.6402C252.356 40.4562 251.956 41.1522 251.428 41.7282C250.916 42.3042 250.284 42.7442 249.532 43.0482C248.796 43.3362 247.972 43.4802 247.06 43.4802C246.212 43.4802 245.428 43.3362 244.708 43.0482C243.988 42.7442 243.364 42.3042 242.836 41.7282C242.308 41.1522 241.892 40.4562 241.588 39.6402C241.3 38.8082 241.156 37.8562 241.156 36.7842C241.156 35.3602 241.396 34.1602 241.876 33.1842C242.356 32.1922 243.044 31.4402 243.94 30.9282C244.836 30.4002 245.9 30.1362 247.132 30.1362C248.3 30.1362 249.324 30.4002 250.204 30.9282C251.1 31.4402 251.796 32.1922 252.292 33.1842C252.804 34.1602 253.06 35.3602 253.06 36.7842ZM243.34 36.7842C243.34 37.7922 243.468 38.6722 243.724 39.4242C243.996 40.1602 244.412 40.7282 244.972 41.1282C245.532 41.5282 246.244 41.7282 247.108 41.7282C247.972 41.7282 248.684 41.5282 249.244 41.1282C249.804 40.7282 250.212 40.1602 250.468 39.4242C250.74 38.6722 250.876 37.7922 250.876 36.7842C250.876 35.7602 250.74 34.8882 250.468 34.1682C250.196 33.4482 249.78 32.8962 249.22 32.5122C248.676 32.1122 247.964 31.9122 247.084 31.9122C245.772 31.9122 244.82 32.3442 244.228 33.2082C243.636 34.0722 243.34 35.2642 243.34 36.7842ZM258.021 35.0562C258.021 35.8082 258.229 36.3682 258.645 36.7362C259.077 37.0882 259.693 37.2642 260.493 37.2642C261.293 37.2642 262.021 37.1442 262.677 36.9042C263.333 36.6482 264.005 36.3122 264.693 35.8962V30.3762H266.805V43.2402H264.693V37.5042C263.973 37.9682 263.261 38.3362 262.557 38.6082C261.869 38.8642 261.037 38.9922 260.061 38.9922C258.749 38.9922 257.725 38.6482 256.989 37.9602C256.269 37.2722 255.909 36.3522 255.909 35.2002V30.3762H258.021V35.0562ZM278.5 30.3762H280.804L275.308 36.5682L281.26 43.2402H278.812L273.004 36.7122V43.2402H270.892V30.3762H273.004V36.6162L278.5 30.3762ZM288.094 30.1362C289.198 30.1362 290.142 30.3762 290.926 30.8562C291.726 31.3362 292.334 32.0162 292.75 32.8962C293.182 33.7602 293.398 34.7762 293.398 35.9442V37.2162H284.59C284.622 38.6722 284.99 39.7842 285.694 40.5522C286.414 41.3042 287.414 41.6802 288.694 41.6802C289.51 41.6802 290.23 41.6082 290.854 41.4642C291.494 41.3042 292.15 41.0802 292.822 40.7922V42.6402C292.166 42.9282 291.518 43.1362 290.878 43.2642C290.238 43.4082 289.478 43.4802 288.598 43.4802C287.382 43.4802 286.302 43.2322 285.358 42.7362C284.43 42.2402 283.702 41.5042 283.174 40.5282C282.662 39.5362 282.406 38.3282 282.406 36.9042C282.406 35.4962 282.638 34.2882 283.102 33.2802C283.582 32.2722 284.246 31.4962 285.094 30.9522C285.958 30.4082 286.958 30.1362 288.094 30.1362ZM288.07 31.8642C287.062 31.8642 286.262 32.1922 285.67 32.8482C285.094 33.4882 284.75 34.3842 284.638 35.5362H291.19C291.19 34.8002 291.078 34.1602 290.854 33.6162C290.63 33.0722 290.286 32.6482 289.822 32.3442C289.374 32.0242 288.79 31.8642 288.07 31.8642Z" fill="white"/>
</svg>
