<svg width="97" height="97" viewBox="0 0 97 97" fill="none" xmlns="http://www.w3.org/2000/svg">
<circle cx="48.5" cy="48.5" r="48.5" fill="#244685"/>
<path d="M53.4599 48.4684C52.6005 48.1375 52.6005 46.8734 52.5472 45.9931C52.3324 42.8576 53.4066 38.0706 52.1175 36.0354C51.2048 34.8242 46.7994 34.9351 44.1146 35.1006C43.3618 35.2115 42.4491 35.3752 41.8045 35.7062C41.1599 36.0372 40.5154 36.5865 40.5154 37.0812C40.5154 37.796 42.1276 37.6868 42.7172 38.6217C43.3618 39.6129 43.3618 41.7572 43.3618 43.5178C43.3618 45.553 43.0386 48.2501 42.2342 48.3593C40.9984 48.4139 40.3005 47.148 39.656 46.2132C38.3668 44.398 37.0777 42.141 36.11 39.9403C35.627 38.7854 35.3571 37.5196 34.6593 37.0249C33.585 36.2537 31.6513 36.1992 29.7709 36.2537C28.0521 36.3083 25.5804 36.0882 25.0974 37.134C24.721 38.2889 25.5271 39.3893 25.9568 40.3259C28.1587 45.222 30.5221 49.5142 33.4235 53.5846C36.11 57.3804 38.6332 60.4068 43.5749 62.0018C44.9723 62.442 51.0948 63.7078 52.3307 62.0018C52.7604 61.3416 52.6538 59.8557 52.8686 58.7554C53.0835 57.655 53.3516 56.5547 54.3726 56.5001C55.232 56.4455 55.715 57.2149 56.253 57.7659C56.8443 58.3716 57.3273 58.8663 57.757 59.4173C58.778 60.4631 59.8523 61.8927 61.1414 62.4437C62.9135 63.2148 65.6533 62.9948 68.2316 62.8839C70.3269 62.8293 71.8308 62.3891 71.9924 61.1233C72.1007 60.1321 71.0247 58.7025 70.3801 57.8768C68.7679 55.8416 68.0167 55.236 66.1896 53.3645C65.3835 52.5388 64.3625 51.6586 64.3625 50.6691C64.3092 50.0635 64.7922 49.5142 65.2219 48.9086C67.1023 46.0477 68.9827 44.0125 70.7016 41.0407C71.1846 40.1604 72.3138 38.1252 71.8841 37.134C71.4011 36.0337 68.7146 36.3629 67.049 36.3629C64.9005 36.3629 62.1074 36.1974 61.5694 36.6375C60.5484 37.3523 60.1187 38.509 59.6357 39.6093C58.5614 42.141 57.1107 44.7255 55.6068 46.6516C55.0688 47.3118 54.0495 48.6868 53.4582 48.4667L53.4599 48.4684Z" fill="white"/>
</svg>
