<svg width="47" height="45" viewBox="0 0 47 45" fill="none" xmlns="http://www.w3.org/2000/svg">
<path d="M26.9401 24.0391L26.9062 24.0283V22.418L26.9401 22.4308L27.0194 22.4607L27.7121 22.7229L27.7175 24.2953L27.0194 24.0655L26.9401 24.0391Z" fill="#17AD5F"/>
<path d="M14.3613 21.8515C14.7619 21.4611 15.1617 21.0707 15.5623 20.6797C15.607 23.2693 15.6517 25.8596 15.6958 28.4499C15.3325 28.5848 14.9692 28.7311 14.606 28.8897C13.8015 29.2415 13.0384 29.6373 12.3281 30.0548V26.5346C12.9062 26.3204 13.4843 26.1076 14.0624 25.8935C14.2326 25.8311 14.3613 25.6915 14.3613 25.5017V21.8515Z" fill="#17AD5F"/>
<path d="M16.4573 25.4014V25.4021L17.192 25.5878L17.1648 27.2157L16.4851 27.0192L16.3516 26.9805V25.375L16.4573 25.4014Z" fill="#17AD5F"/>
<path d="M17.192 20.8072L17.1648 22.4345L16.4024 22.2142L16.3516 22.1993V20.5938L16.3746 20.5998L17.192 20.8072Z" fill="#17AD5F"/>
<path d="M24.8048 22.569L24.7756 22.5554L24.7418 22.5405L24.7072 22.5249V22.5243L24.3378 22.3562L23.9922 22.1989V20.5859L24.3195 20.7472L24.6957 20.9329L24.7302 20.9499L24.7641 20.9668L24.7987 20.9838L24.8048 22.569Z" fill="#17AD5F"/>
<path d="M21.8943 27.0293C21.895 27.0761 21.895 27.1235 21.895 27.1703C20.7848 27.2353 19.6456 27.3824 18.4921 27.6338C18.4717 25.2624 18.4507 22.8911 18.4304 20.5197V20.5041C18.3863 19.171 18.3416 17.8365 18.2969 16.5034C19.3128 16.3598 20.328 16.2168 21.3433 16.0737C21.5012 16.0561 21.6584 16.0378 21.8163 16.0195C21.8251 17.337 21.8353 18.6532 21.8441 19.97C21.8611 22.3231 21.8773 24.6762 21.8943 27.0293Z" fill="#17AD5F"/>
<path d="M26.2054 27.2917C25.8767 27.2538 25.5433 27.2226 25.2044 27.1975C25.1739 24.511 25.1434 21.8238 25.1129 19.1373C25.1088 18.8004 25.1055 18.4636 25.1014 18.1268C25.0973 17.7798 25.1407 17.3921 25.0892 17.0498C25.0478 16.7787 24.8838 16.6961 24.6778 16.5714L23.0736 15.6036C22.8886 15.4917 22.707 15.3697 22.5179 15.2647C22.4196 15.1671 22.2671 15.1264 22.1133 15.1481C21.832 15.1881 21.5501 15.2274 21.2688 15.2674C21.218 15.2728 21.1672 15.2782 21.1163 15.2843C21.0906 14.3931 21.0648 13.5012 21.0391 12.61C22.7598 12.2962 24.4813 11.9824 26.202 11.668C26.2027 13.4226 26.2034 15.1773 26.2034 16.9326C26.2041 19.182 26.2047 21.4314 26.2047 23.6801C26.2054 24.8844 26.2054 26.0881 26.2054 27.2917Z" fill="#17AD5F"/>
<path d="M23.4532 22.1947L22.6725 21.8382L22.6406 21.8239V20.2109L22.661 20.2211L23.4471 20.6088L23.4532 22.1947Z" fill="#17AD5F"/>
<path d="M22.6402 17.7453L22.4531 17.6599V16.0469L23.2596 16.4447L23.2603 16.6677L23.2657 18.0299L22.6402 17.7453Z" fill="#17AD5F"/>
<path d="M18.1607 22.9244L18.1343 24.5517L17.9208 24.49L17.8869 24.4805L17.853 24.4703L17.6558 24.4141L17.3203 24.3172V22.7109L17.6416 22.7923L17.853 22.8465L17.8869 22.8546L17.9208 22.8634L18.1607 22.9244Z" fill="#17AD5F"/>
<path d="M22.6962 25.2162L22.6406 25.1911V23.5781L22.6847 23.5998L23.4471 23.976L23.4532 25.5612L22.6962 25.2162Z" fill="#17AD5F"/>
<path d="M27.6941 17.9789L27.017 17.7559L26.9391 17.7302L26.9052 17.7193L26.8828 17.7119V16.1016L26.9052 16.1097L26.9391 16.1226L27.017 16.1524L27.6886 16.4065L27.6941 17.9789Z" fill="#17AD5F"/>
<path d="M24.8048 26.8118L24.7736 26.7976L24.739 26.782L24.3859 26.6207L23.9922 26.4411V24.8281L24.3676 25.0131L24.7268 25.1907L24.7614 25.2077L24.7953 25.2246L24.7987 25.226L24.8021 26.1626L24.8028 26.2229L24.8048 26.8118Z" fill="#17AD5F"/>
<path d="M27.7175 20.1039L27.0188 19.8741L26.9401 19.8477L26.9062 19.8369V18.2266L26.9401 18.2394L27.0181 18.2686V18.2693L27.7121 18.5315L27.7175 20.1039Z" fill="#17AD5F"/>
<path d="M28.2969 24.8828L29.1034 25.1878L29.1088 26.7601L28.2969 26.4931V24.8828Z" fill="#17AD5F"/>
<path d="M35.1256 25.9336V25.933L35.0938 25.9228V24.3125L35.1161 24.3206V24.3213L35.7925 24.5768L35.7952 24.5782L35.8996 24.6175V24.6473L35.905 26.1898L35.1256 25.9336Z" fill="#17AD5F"/>
<path d="M29.3581 20.697L29.3188 20.6841L29.2849 20.6732V20.6726L29.2504 20.6617L28.9684 20.5689L28.5469 20.4306V18.8203L28.9339 18.9667L29.2422 19.0833L29.2768 19.0961L29.3107 19.109L29.3534 19.1253L29.3581 20.697Z" fill="#17AD5F"/>
<path d="M32.0222 24.0375L31.6487 23.9148L31.2787 23.7928L31.2109 23.7704V22.1602L31.2679 22.1818L31.6284 22.3181L32.0168 22.4651L32.0222 24.0375Z" fill="#17AD5F"/>
<path d="M29.3613 27.8298L29.3281 21.3906C29.3478 21.3947 29.3688 21.3974 29.3898 21.3981C29.7205 21.4116 30.0513 21.4252 30.382 21.4381V28.0792C30.0533 27.9931 29.7124 27.909 29.3613 27.8298Z" fill="#17AD5F"/>
<path d="M34.2976 23.7534C34.3044 24.688 34.3105 25.6233 34.3179 26.5586C34.3233 27.5054 34.3288 28.4528 34.3342 29.3996C33.8435 29.199 33.2369 28.9659 32.5335 28.7273C32.5287 28.6406 32.524 28.5552 32.5226 28.4725C32.5104 27.5257 32.4982 26.5796 32.486 25.6328C32.4779 24.9666 32.4691 24.2997 32.4609 23.6328C33.0729 23.6728 33.6849 23.7128 34.2976 23.7534Z" fill="#17AD5F"/>
<path d="M32.0222 26.1898L31.6759 26.076L31.2929 25.9499L31.2109 25.9228V24.3125L31.2821 24.3396L31.6562 24.4806V24.4813L32.0168 24.6175L32.0222 26.1898Z" fill="#17AD5F"/>
<path d="M38.0067 40.3862C38.2168 41.9558 31.5154 44.6654 25.3026 43.9517C24.7259 43.8853 21.6476 43.5315 21.5345 42.6267C21.4314 41.8047 23.8293 40.9378 25.7154 40.2554C28.6262 39.2028 31.1359 38.3299 34.3165 38.8816C35.5879 39.1019 37.8888 39.501 38.0067 40.3862Z" fill="#17AD5F"/>
<path d="M46.7223 35.3602C46.6579 37.9058 46.2079 40.0989 45.499 40.204C44.5041 40.3517 44.0954 36.7787 41.1879 33.6178C39.8786 32.1945 38.5007 31.3372 37.0931 30.6391V30.6385C37.0999 29.3772 37.1066 28.1153 37.1134 26.8533C37.1154 26.448 37.1181 26.0428 37.1202 25.6375C37.1215 25.4125 37.1229 25.1868 37.1236 24.9618C37.1249 24.7856 37.152 24.5938 37.0382 24.4453C36.9209 24.2942 36.6905 24.1878 36.5326 24.0848C36.3645 23.975 36.1971 23.8659 36.029 23.7561C35.6563 23.5121 35.2835 23.2688 34.9108 23.0248C34.8457 22.9821 34.7746 22.9645 34.7054 22.9665C34.7041 22.9658 34.7027 22.9659 34.7014 22.9659C33.9511 22.9164 33.2015 22.8676 32.452 22.8181C32.4554 22.425 32.5252 21.9947 32.2236 21.71C31.8759 21.382 31.5025 21.077 31.1433 20.7619C31.1277 20.7483 31.1114 20.7361 31.0951 20.7259C31.0281 20.6758 30.9447 20.646 30.8559 20.6426C30.4994 20.6284 30.1429 20.6134 29.7864 20.5992C29.7282 17.8991 29.6706 15.1997 29.6123 12.5003C29.6089 12.3627 29.5384 12.2143 29.411 12.1493C28.5448 11.7101 27.6794 11.2702 26.8139 10.8311C26.7475 10.7972 26.6777 10.7816 26.6086 10.7823C26.5733 10.7802 26.5367 10.7829 26.5008 10.7897C24.5056 11.1537 22.5103 11.5183 20.5151 11.8822C20.3456 11.9127 20.2115 12.1079 20.2162 12.274C20.246 13.317 20.2765 14.36 20.3063 15.403C19.4619 15.5223 18.6174 15.6409 17.773 15.7602C17.6042 15.7839 17.4693 15.9913 17.4741 16.1526C17.5161 17.3983 17.5575 18.644 17.5988 19.8896C17.1068 19.6849 16.6147 19.4796 16.1227 19.2749C15.9926 19.2207 15.8211 19.2878 15.7269 19.38C15.2898 19.8063 14.8526 20.2332 14.4155 20.6595C14.1966 20.873 13.9722 21.0818 13.7594 21.3C13.6327 21.4294 13.5656 21.5053 13.5466 21.6931C13.51 22.0441 13.5466 22.4182 13.5466 22.7707V25.218C12.9685 25.4314 12.3897 25.6449 11.8116 25.8591C11.6415 25.9221 11.5134 26.0611 11.5134 26.2508V30.5524C8.5504 32.4622 6.71035 34.6133 6.9706 35.0247C7.32777 35.5886 10.3091 33.3189 16.0861 32.181C21.9268 31.0309 26.1626 31.916 27.6882 32.2935C30.1565 32.9041 34.9542 34.5164 34.8159 35.939C34.6668 37.4619 29.0775 36.5327 21.6564 39.8502C16.1837 42.2968 15.7845 44.3388 12.139 44.6424C8.26033 44.9657 3.48571 43.0891 1.28104 39.4815C-1.86702 34.3301 1.36779 27.5737 4.73273 20.8161C7.37182 15.5155 10.4487 11.809 12.4941 9.63893C16.8499 5.01544 23.0728 -1.21766 28.7272 0.206937C31.3893 0.877214 34.1849 5.48376 39.6183 14.8846C44.3143 23.0092 46.8931 28.648 46.7223 35.3602Z" fill="#17AD5F"/>
<path d="M36.8605 27.251L36.8659 28.8226L36.7602 28.7881L36.7256 28.7765L36.6924 28.7657L36.2926 28.6342L36.0547 28.5563V26.9453L36.3014 27.0388L36.6924 27.1873L36.7256 27.2001L36.7602 27.213L36.8605 27.251Z" fill="#17AD5F"/>
<path d="M29.3269 14.2211L29.2869 14.2082L29.253 14.1967L29.2191 14.1858L28.8301 14.0577L28.5156 13.954V12.3438L29.211 12.6067L29.2788 12.6325L29.3214 12.6487L29.3269 14.2211Z" fill="#17AD5F"/>
<path d="M27.6862 13.6312L27.02 13.4116L26.9428 13.3866L26.9089 13.375L26.875 13.3642V11.7539L26.9428 11.7797L27.6815 12.0589L27.6822 12.1809L27.6862 13.6312Z" fill="#17AD5F"/>
<path d="M24.8282 20.2565L24.7618 20.226L24.7279 20.2111V20.2104L24.6934 20.1948L24.3145 20.0227L24.0156 19.8864V18.2734L24.2962 18.4117L24.6818 18.6015L24.7157 18.6184L24.7496 18.6347L24.8221 18.6706L24.8282 20.2565Z" fill="#17AD5F"/>
</svg>
