<svg preserveAspectRatio="none" width="100%" height="100%" overflow="visible" style="display: block;" viewBox="0 0 27 30" fill="none" xmlns="http://www.w3.org/2000/svg">
<g id="Group">
<path id="Vector" d="M24.9565 18.8431C19.9966 18.8431 16.3744 16.0809 14.7573 12.3865C12.0041 6.09109 6.48791 1.58364 0 0V27.9735C0 28.9816 0.818014 29.7997 1.82612 29.7997C2.83423 29.7997 3.65225 28.9816 3.65225 27.9735V14.9278C4.05814 15.5069 4.43045 16.1139 4.72095 16.778C5.41428 18.3634 6.28961 19.83 7.30439 21.1719V27.9735C7.30439 28.9816 8.12241 29.7997 9.13052 29.7997C10.1386 29.7997 10.9566 28.9816 10.9566 27.9735V24.9417C14.8127 28.0652 19.5135 29.7997 24.9566 29.7997C25.9647 29.7997 26.7828 28.9816 26.7828 27.9735V20.6691C26.7827 19.661 25.9646 18.8431 24.9565 18.8431Z" fill="var(--fill-0, black)"/>
</g>
</svg>
