<svg preserveAspectRatio="none" width="100%" height="100%" overflow="visible" style="display: block;" viewBox="0 0 439 3" fill="none" xmlns="http://www.w3.org/2000/svg">
<path id="Line 65" d="M4.1815 0.0152547C6.64153 -0.0238245 9.86624 0.0179606 12.317 0.0753131C13.085 0.0931009 12.6961 0.172613 13.2263 0.188472C14.2633 0.219387 15.2293 0.180391 16.2541 0.217219C16.5937 0.229814 16.171 0.355761 16.5271 0.366084C18.4784 0.421745 20.3245 0.389665 22.3013 0.416438C32.0382 0.548528 41.6094 0.595807 51.4654 0.653192C54.7152 0.672006 58.6657 0.786308 62.0224 0.736322C62.4143 0.730373 62.1807 0.619823 62.2552 0.610712C63.4245 0.471225 63.0357 0.694402 63.7992 0.724054C66.8295 0.841131 70.1991 0.851313 73.1153 0.808648C74.356 0.790173 73.1121 0.570593 74.3613 0.693841C74.448 0.702169 74.1332 0.819565 74.4735 0.832086C75.2451 0.860247 76.709 0.839264 77.307 0.848565C78.4595 0.867085 78.6502 0.865904 79.7403 0.867242C81.2305 0.870092 83.0029 0.928449 84.6018 0.901849C84.9431 0.895822 84.4913 0.775478 85.0355 0.754998C85.5803 0.734553 87.0215 0.744757 87.5073 0.773126C87.9933 0.801509 87.7864 0.896098 87.8724 0.917779C88.5799 1.10077 90.247 0.847326 90.4614 0.841058C94.3722 0.73426 97.7259 0.87864 101.397 0.878228C104.184 0.877609 107.164 0.829944 109.815 0.83648C112.975 0.844733 115.652 0.909946 118.721 0.898736C119.045 0.897691 118.666 0.756194 119.061 0.754632C123.264 0.738167 127.438 0.753591 131.623 0.849114C132.043 0.858819 131.502 0.983052 131.921 1.00018C134.488 1.10227 138.55 1.34754 140.075 0.806634C141.814 0.827755 143.925 0.849578 145.481 0.958611C146.484 1.02879 145.509 1.16413 146.742 1.10638C147.019 1.09351 146.658 0.974986 147.075 0.964654C148.829 0.921264 150.746 0.959791 152.482 0.898553C152.835 0.885818 152.739 0.779616 152.839 0.760492C153.68 0.605612 155.079 0.861638 155.384 0.880242C157.708 1.01897 159.405 0.964379 161.569 0.967766C162.071 0.968612 161.478 0.825959 161.961 0.821649C164.468 0.801203 167.064 0.813464 169.519 0.876763C170.065 0.891186 169.562 1.0127 169.823 1.02581C170.974 1.08214 171.229 0.852626 172.332 0.902215C172.565 0.912374 172.434 1.0164 172.476 1.02782C173.14 1.20717 173.717 0.953052 173.888 0.947442C176.048 0.870784 177.429 1.13607 179.516 1.0985C179.766 1.09374 179.203 0.962118 179.905 0.95678C184.581 0.920444 189.526 0.956602 194.154 1.06188C194.874 1.07807 194.36 1.17695 194.406 1.18914C195.144 1.37959 195.621 1.12441 195.856 1.1148C197.707 1.04562 199.436 1.25962 200.694 0.955681C208.534 1.06116 216.337 0.89048 224.112 1.16277C224.211 1.16593 224.034 1.2916 224.231 1.29736C226.606 1.36792 226.15 1.1726 227.721 0.933709C228.117 0.873723 229.321 1.16214 229.428 1.18328C229.816 1.26119 229.413 1.44816 229.543 1.46325C230.619 1.58172 230.444 0.963388 231.894 0.963189C231.94 0.96422 231.749 1.07803 231.871 1.08935C232.249 1.12488 232.624 1.07965 232.995 1.11883C233.842 1.20948 234.144 1.50994 235.438 1.33507C235.602 1.31238 235.352 0.961634 236.647 0.978203C237.164 0.985106 239.45 0.979094 240.09 1.00182C240.73 1.02453 240.291 1.13755 240.336 1.14245C242.061 1.29191 241.407 1.35385 242.271 1.57513C243.134 1.79556 242.895 1.2698 243.247 1.21111C243.6 1.1526 244.864 1.27591 245.174 1.31878C245.485 1.36167 245.098 1.43349 245.374 1.45776C247.204 1.61632 246.177 1.19678 246.78 1.11333C248.203 0.915746 249.31 1.30566 250.612 1.34386C250.964 1.35418 250.677 1.26538 250.991 1.25707C252.233 1.22536 252.98 1.34702 254.393 1.23547C254.625 1.21729 255.767 0.982862 256.507 1.1549C256.612 1.17971 256.314 1.27687 256.843 1.29864C257.634 1.3313 259.059 1.35254 259.91 1.32006C260.538 1.29603 259.818 1.13593 260.608 1.18566C260.959 1.20787 260.308 1.30153 260.968 1.33544C261.624 1.36934 263.302 1.36523 263.941 1.36199C264.578 1.35869 264.229 1.23724 264.281 1.22906C264.592 1.18219 265.815 1.12363 265.923 1.12377C271.375 1.10895 276.403 1.31366 281.71 1.2459C282.127 1.24076 281.85 1.11269 281.913 1.11059C283.339 1.05693 282.215 1.39743 283.211 1.5114C283.067 1.25152 283.655 1.29857 284.66 1.27007C285.144 1.25613 284.88 1.1555 284.924 1.14519C285.642 0.992349 286.142 1.18977 286.271 1.23016C286.746 1.37872 287.263 1.20318 287.587 1.30248C287.91 1.40104 287.166 1.54715 288.129 1.54528C288.4 1.45225 287.684 1.20913 288.416 1.16973C291.175 1.02069 296.327 1.21144 298.546 1.23125C300.76 1.25105 301.475 1.23389 302.766 1.26751C305.097 1.3283 304.243 1.14792 305.69 1.06536C307.141 0.982808 306.436 1.42662 306.644 1.52202C306.849 1.61739 307.073 1.51922 307.328 1.57165C307.582 1.62406 307.032 1.68893 307.629 1.70861C308.227 1.72827 309.861 1.55861 310.072 1.45885C310.52 1.24751 309.784 1.02569 311.365 1.10363C311.456 1.10826 311.161 1.22495 311.509 1.23675C314.275 1.32659 317.149 1.33215 319.911 1.41161C320.291 1.42272 319.951 1.55254 320.172 1.56048C322.475 1.64351 321.652 1.42462 322.914 1.18145C322.63 1.50505 323.328 1.70304 325.076 1.70495C326.126 1.70621 325.945 1.56487 326.625 1.46526C326.828 1.43523 327.572 1.53228 327.707 1.46581C328.151 1.24854 327.451 1.00532 329.252 1.10217C329.331 1.10677 329.08 1.2257 329.353 1.2329C331.118 1.28005 331.329 1.05278 333.238 1.02526C334.734 1.00367 337.394 1.14225 339.098 1.16479C339.062 1.52861 340.671 1.4453 341.323 1.19445C342.429 1.20472 343.622 1.19054 344.691 1.22521C345.059 1.23703 344.817 1.34237 344.863 1.35375C345.574 1.5323 346.055 1.28825 346.294 1.27868C348.879 1.18567 350.986 1.37064 353.454 1.18987C353.542 1.18336 353.684 0.930638 354.344 1.11517C354.386 1.12789 353.571 1.24287 354.732 1.25176C355.893 1.26067 358.082 1.39615 359.694 1.27904C360.084 1.25085 361.071 1.04569 361.863 1.20599C361.968 1.22775 361.853 1.30023 362.005 1.34057C362.497 1.46909 362.766 1.21365 363.345 1.43066C363.923 1.64766 365.127 1.81017 366.753 1.66045C366.805 1.6561 367.189 1.45364 367.701 1.45684C368.517 1.46212 369.675 1.5043 370.527 1.50298C370.936 1.50228 370.674 1.37656 370.745 1.37426C373.488 1.30381 375.441 1.41589 378.38 1.46453C378.919 1.4737 380.467 1.30226 381.51 1.4378C382.655 1.58617 381.478 2.20337 384.111 2.05632C385.172 1.99751 386.516 1.21448 388.425 1.62017C392.125 1.51964 395.547 1.72727 399.258 1.58373C399.425 1.57737 399.952 1.35883 400.345 1.36181C400.927 1.36665 401.247 1.46879 401.663 1.47552C403.405 1.50628 405 1.41889 406.68 1.43249C407.318 1.43743 407.095 1.54304 407.856 1.54894C408.616 1.55475 409.123 1.41567 410.153 1.48284C410.931 1.53404 411.709 1.8183 412.742 1.85143C412.782 1.57104 413.491 1.57682 414.752 1.5028C414.994 1.48844 414.734 1.39085 414.849 1.37902C415.315 1.32872 415.747 1.4096 416.19 1.35485C416.298 1.3417 416.303 1.24594 416.391 1.22979C417.14 1.08877 418.375 1.30416 418.587 1.34167C419.399 1.48409 419.779 1.35955 420.402 1.41564C421.024 1.47172 420.094 1.54183 420.821 1.57586C422.327 1.64625 424.263 1.63078 425.793 1.63518C426.403 1.63635 425.987 1.50853 426.074 1.50573C427.336 1.47331 428.613 1.60927 429.313 1.35467C430.188 2.01298 430.074 1.29081 431.878 1.4226C432.021 1.43326 432.201 1.74457 431.656 1.79027C431.11 1.83593 430.283 1.73862 429.526 1.80987C429.346 1.82658 428.319 2.1183 428.179 2.13598C427.082 2.27408 426.926 1.80887 426.868 1.78332C426.209 1.50757 424.954 1.82184 424.624 1.84356C423.112 1.94306 421.827 1.87764 420.563 1.94866C419.736 1.99456 419.655 2.29929 419.005 2.28997C416.846 2.25914 416.093 1.83403 414.058 2.20263C413.622 2.28124 414.056 2.6143 412.493 2.35241C412.394 2.33589 411.234 2.09631 410.563 2.24785C410.479 2.26696 410.482 2.36403 410.371 2.37218C409.627 2.42493 409.13 2.3476 408.319 2.38463C407.509 2.42167 406.534 2.47688 405.608 2.44396C405.05 2.42427 404.334 2.24342 404.067 2.19915C403.313 2.0716 402.505 2.28072 402.038 2.12627C401.567 1.97104 402.488 1.7353 401.252 1.635C401.207 1.88719 401.102 2.14603 401.028 2.39965C398.321 2.39077 395.657 2.30922 392.941 2.32036C392.604 2.322 392.949 2.45757 392.588 2.46282C391.065 2.48436 389.734 2.38771 388.155 2.4262C386.932 2.45651 385.592 2.60005 384.313 2.63622C383.532 2.34765 381.635 2.44561 380.257 2.41924C379.774 2.41013 379.807 2.33305 379.463 2.30791C378.168 2.21492 378.775 2.46993 378.42 2.51006C376.897 2.68133 376.766 2.10414 374.97 2.1184C374.875 2.11896 373.712 2.42663 373.552 2.44579C372.534 2.57073 373.383 2.3387 372.746 2.31597C371.583 2.27442 370.775 2.20095 369.41 2.29107C369.013 2.31776 368.058 2.50953 367.285 2.36119C367.184 2.34177 367.24 2.24007 367.158 2.23412C365.677 2.13484 365.638 2.45439 364.792 2.56261C363.945 2.67081 362.638 2.45022 362.372 2.38665C361.676 2.22218 362.905 2.31636 362.943 2.30022C363.386 2.10815 362.432 2.14122 361.704 2.12499C361.598 1.81167 360.579 1.83048 360.948 2.10943C360.99 2.13989 361.557 2.11068 361.704 2.12499C361.064 2.4324 359.945 2.47177 358.708 2.1845C358.129 2.04986 358.676 1.89288 356.918 1.95031C356.119 1.97623 356.428 2.19197 355.724 2.25078C354.114 2.38498 352.023 2.18373 350.365 2.21544C349.763 2.22695 350.349 2.34505 349.938 2.35698C348.846 2.38903 347.883 2.30042 346.786 2.34581C346.687 2.35008 346.929 2.47369 346.588 2.47527C344.003 2.48963 341.752 2.41045 339.052 2.40825C337.748 2.40725 335.416 2.47543 334.065 2.46172C331.724 2.43869 328.843 2.25893 326.842 2.3026C325.538 2.33055 325.824 2.4542 325.265 2.53844C324.186 2.70174 322.277 2.40923 322.019 2.36394C322.011 2.36244 323.134 2.33329 322.535 2.26983C322.187 2.13758 322.032 2.36337 322.019 2.36394C321.851 2.33468 319.608 2.30661 319.162 2.33025C318.92 2.34317 319.056 2.46031 318.93 2.46483C315.931 2.56967 312.927 2.59944 309.885 2.54467C309.831 2.5423 309.912 2.41127 309.786 2.40734C308.025 2.34908 306.898 2.50937 305.445 2.60454C303.993 2.69967 302.842 2.66781 301.982 2.44286C300.887 2.47118 299.315 2.37173 298.41 2.31139C297.506 2.25105 297.379 2.50612 297.3 2.51116C294.817 2.67255 293.383 2.52655 290.807 2.50383C289.583 2.49259 287.154 2.52959 285.828 2.55748C284.781 2.57995 284.15 2.52018 283.184 2.5584C283.054 2.5635 283.185 2.67707 283.146 2.68144C282.068 2.81732 282.586 2.53969 282.364 2.4901C281.557 2.30978 281.059 2.21375 279.679 2.29857C279.361 2.318 278.434 2.71776 277.854 2.74114C277.099 2.7708 277.384 2.62751 276.594 2.66222C276.527 2.66506 276.541 2.75346 276.053 2.74956C273.791 2.73263 271.324 2.68119 268.973 2.69005C268.652 2.69092 269.064 2.83114 268.6 2.8347C266.422 2.85132 264.036 2.84614 261.914 2.7805C261.392 2.76391 261.72 2.66573 261.606 2.63658C260.91 2.46021 259.924 2.71648 259.761 2.72136C255.877 2.84451 252.904 2.61259 248.946 2.72301C248.73 2.72949 247.072 3.00422 246.332 2.7686C246.281 2.75293 245.549 2.51187 244.902 2.67668C244.861 2.687 245.318 2.8111 244.521 2.79845C243.725 2.78583 242.444 2.8687 241.35 2.73235C241.003 2.68939 240.184 2.44893 239.151 2.64061C239.083 2.65399 237.488 3.08742 236.918 2.78838C236.826 2.73915 236.923 2.4227 235.689 2.58495C235.454 2.6164 235.881 2.68699 235.261 2.73107C234.309 2.799 233.049 2.71424 231.879 2.85521C231.675 2.88017 230.807 3.09496 230.111 2.93193C230.002 2.9064 230.209 2.80075 229.841 2.78893C228.093 2.73221 226.261 2.80288 224.486 2.72978C223.857 2.7041 224.178 2.53331 223.523 2.48754C222.867 2.44178 221.546 2.39777 220.86 2.47582C220.174 2.5539 220.924 2.82611 219.896 2.84789C215.426 2.94249 210.999 2.78281 206.537 2.75945C205.875 2.75596 206.424 2.85336 205.448 2.85521C201.852 2.86246 195.644 2.95378 192.523 2.74681C190.023 2.58104 193.169 2.45484 191.259 2.38738C190.337 2.3552 189.34 2.67166 189.117 2.68163C186.943 2.78283 185.432 2.64265 183.475 2.68566C183.071 2.69458 183.467 2.82285 183.123 2.82903C181.949 2.85127 180.714 2.79402 179.592 2.80449C179.088 2.80948 179.181 2.90745 178.717 2.89989C177.609 2.88293 176.628 2.84175 175.547 2.74993C175.449 2.74156 176.113 2.61969 175.293 2.61516C173.965 2.60817 172.317 2.51759 170.79 2.61113C170.336 2.63927 170.319 2.86317 169.344 2.70854C169.14 2.67625 169.401 2.4074 168.266 2.6397C168.075 2.6783 166.169 2.99163 165.233 2.78966C164.986 2.7365 164.356 2.5165 163.811 2.55107C163.737 2.55659 164.034 2.67686 163.582 2.68859C161.99 2.72784 160.322 2.715 158.687 2.75267C158.25 2.76297 158.901 2.88742 158.25 2.89879C156.46 2.93025 154.226 2.89856 152.476 2.85961C151.83 2.84501 152.276 2.74192 152.229 2.7307C151.474 2.54823 151.028 2.79452 150.777 2.80889C149.219 2.89488 148.032 2.77918 146.596 2.8098C146.199 2.81794 146.481 2.93538 146.402 2.94585C145.583 3.04816 146.193 2.83726 145.675 2.81401C144.224 2.74819 142.606 2.75762 141.138 2.77263C140.599 2.77832 141.205 2.91449 140.721 2.91802C137.858 2.94148 134.881 2.92845 132.087 2.85338C131.56 2.839 131.892 2.73414 131.782 2.71019C131.026 2.54264 129.918 2.77118 129.663 2.79296C128.505 2.89236 128.054 2.79964 127.031 2.81694C122.031 2.90311 115.858 2.8417 111.138 2.80376C104.988 2.75493 100.216 2.65518 94.3516 2.68108C93.9789 2.68259 94.3547 2.82209 94.0335 2.82518C89.8851 2.85881 85.801 2.8043 81.6444 2.84459C81.3032 2.84765 81.795 2.97989 81.2475 2.98924C80.1245 3.00936 78.702 3.00217 77.5666 2.95995C77.0128 2.9396 77.7556 2.82613 77.1982 2.80797C75.9002 2.76543 74.5088 2.75601 73.1756 2.77721C72.6083 2.78652 73.4643 2.92177 72.7268 2.92333C67.7034 2.93674 62.7698 2.96004 57.6934 2.7849C57.3454 2.77287 57.0401 2.498 56.3001 2.55071C56.2444 2.62699 56.2474 2.71673 56.2231 2.79827C48.9102 2.84219 41.6721 2.7469 34.3387 2.73217C34.0295 2.73158 34.5639 2.87722 33.9652 2.87682C30.5007 2.87466 27.1363 2.91501 23.5924 2.77025C23.2408 2.75609 23.4212 2.49987 22.385 2.53862C22.2022 2.54569 20.6416 2.57987 20.2381 2.63549C20.1833 2.64388 20.468 2.76347 19.9651 2.76695C17.0427 2.78512 13.9801 2.75781 11.0627 2.68474C10.5918 2.67272 11.0932 2.54536 10.7579 2.53569C8.379 2.46809 5.79146 2.5649 3.51834 2.44927C1.99678 2.37141 2.56011 2.15126 1.75157 1.93456C1.63721 1.90399 0.695025 1.89914 0.646301 1.77306C0.521213 1.45602 0.97758 1.10886 0.790321 0.770929C0.750759 0.69814 -0.511078 0.776538 0.23601 0.600641C0.288202 0.588869 1.20304 0.53049 1.42837 0.47082C1.58524 0.429565 1.30254 0.301341 1.62263 0.24853C1.94268 0.195769 2.29438 0.303253 2.82503 0.241206C3.35544 0.178391 3.12221 0.032522 4.1815 0.0152547ZM294.337 2.04168C293.5 1.91918 293.376 2.36783 294.282 2.26049C294.326 2.25477 294.38 2.04769 294.337 2.04168ZM395.672 1.97081C394.577 1.77293 393.828 2.0639 394.601 2.21672C395.373 2.36939 396.006 2.0308 395.672 1.97081ZM407.027 1.82635C405.747 1.67032 405.545 2.30652 406.916 2.17791C406.996 2.17064 407.101 1.8354 407.027 1.82635ZM5.50113 1.87285C5.48956 1.8669 4.81228 1.86109 4.7961 1.86699C4.43546 2.00948 5.78975 2.02099 5.50113 1.87285ZM418.294 1.66906C417.894 1.583 416.744 1.68234 417.24 1.78936C417.64 1.87545 418.791 1.77611 418.294 1.66906ZM250.647 1.56286C250.634 1.55617 250.148 1.55015 250.158 1.58794C250.191 1.70966 250.867 1.67531 250.647 1.56286ZM437.443 1.66173C434.614 1.63779 432.899 1.11226 435.98 1.17156C436.538 1.18229 434.777 1.33915 435.487 1.38653C436.787 1.47284 437.65 1.14288 438.976 1.31969C439.216 1.35206 437.605 1.66427 437.438 1.66247C437.44 1.66222 437.442 1.66198 437.443 1.66173ZM293.855 1.5028C293.838 1.49687 293.166 1.49124 293.15 1.49712C292.786 1.63955 294.14 1.65097 293.855 1.5028ZM222.314 1.28545C222.277 1.27281 220.717 1.26099 220.666 1.27264C219.852 1.50555 223.006 1.53014 222.314 1.28545ZM339.124 1.17449C339.858 1.03121 340.735 1.01433 341.32 1.19427C340.591 1.18472 339.857 1.18331 339.124 1.17449Z" fill="var(--stroke-0, white)"/>
</svg>
