<svg preserveAspectRatio="none" width="100%" height="100%" overflow="visible" style="display: block;" viewBox="0 0 26 42" fill="none" xmlns="http://www.w3.org/2000/svg">
<g id="Group">
<path id="Vector" d="M0 0V39.5652C0 40.5733 0.818015 41.3913 1.82612 41.3913H9.13051C10.1386 41.3913 10.9566 40.5733 10.9566 39.5652V36.5217H14.6088V39.5652C14.6088 40.5733 15.4268 41.3913 16.4349 41.3913H23.7393C24.7474 41.3913 25.5654 40.5733 25.5654 39.5652V0H0ZM14.6087 32.8696H10.9565V29.2175H14.6087V32.8696ZM14.6087 25.5652H10.9565V21.9131H14.6087V25.5652ZM16.4348 12.7825H9.13041V9.13041C9.13041 7.11648 10.7686 5.47826 12.7825 5.47826C14.7965 5.47826 16.4347 7.11648 16.4347 9.13041V12.7825H16.4348Z" fill="var(--fill-0, black)"/>
</g>
</svg>
