<svg preserveAspectRatio="none" width="100%" height="100%" overflow="visible" style="display: block;" viewBox="0 0 384 79" fill="none" xmlns="http://www.w3.org/2000/svg">
<g id="Group">
<path id="Vector" fill-rule="evenodd" clip-rule="evenodd" d="M23.7354 0H56.0406C69.121 0 79.7693 10.5453 79.7678 23.5028V55.4973C79.7678 68.453 69.1195 79 56.0388 79H23.7354C10.6433 79 0 68.453 0 55.4973V23.5028C0 10.5453 10.6433 0 23.7354 0ZM65.0364 49.5609L65.0661 49.2089H70.6897V51.722C70.6897 55.8636 70.2156 58.3817 69.0537 60.4108C67.7421 62.6976 65.1877 64.1206 62.3833 64.1206C59.6893 64.1206 57.1843 62.8198 55.5122 60.5495C54.4786 59.1429 53.6146 57.2636 52.7571 54.514C50.7147 57.2994 48.5538 59.4443 46.1855 60.9927C42.5205 63.3936 38.5673 64.6126 34.4249 64.6126C27.3151 64.6126 21.8873 62.3391 17.3482 57.4577C12.9968 52.7863 10.7898 46.5863 10.7898 39.0383C10.7898 32.2614 13.1136 26.1673 17.5128 21.4178C21.9334 16.639 27.5273 14.217 34.1401 14.217C38.9309 14.217 42.899 15.7475 46.2727 18.8882C48.2082 20.6925 49.9512 23.2595 51.0423 25.5691C51.0999 25.6881 51.1558 25.812 51.2101 25.9374C52.3013 20.8001 53.5109 15.1526 53.5109 15.1526H66.6063C66.6063 15.1526 59.7058 39.2373 57.4691 46.7559C58.259 48.9089 59.039 50.0971 59.9065 51.0863C60.6289 51.9144 61.5143 52.3185 62.6154 52.3185C64.0554 52.3185 64.9227 50.9315 65.0364 49.5609ZM35.618 58.4207C38.5376 58.4207 41.1296 56.9017 43.1145 54.0234C45.0664 51.1972 46.6727 46.2913 48.3152 38.1763C47.0068 32.1732 45.1801 27.5038 43.019 24.6776C41.003 22.0437 38.684 20.8213 35.7135 20.8213C32.3759 20.8213 29.9006 22.2784 27.9255 25.3995C25.824 28.7244 24.7575 33.381 24.7575 39.2405C24.7575 45.6311 25.7632 50.5257 27.7495 53.7921C29.6438 56.9116 32.2161 58.4207 35.618 58.4207Z" fill="var(--fill-0, white)"/>
<path id="Vector_2" d="M119.702 16.2983C118.797 12.2611 116.226 9.44141 110.585 9.44141C105.277 9.44141 102.369 12.2611 101.464 16.2983L97.3672 34.5725H101.747C102.746 34.5725 103.74 33.7835 103.954 32.817L104.781 29.0993H116.386L117.215 32.817C117.429 33.782 118.422 34.5725 119.421 34.5725H123.802L119.702 16.2983ZM105.929 23.9489L107.372 17.4767C107.604 16.4303 108.427 14.8314 110.586 14.8314C112.744 14.8314 113.565 16.4287 113.8 17.4767L115.242 23.9489H105.929Z" fill="var(--fill-0, white)"/>
<path id="Vector_3" d="M134.598 15.5438H144.367V34.571H150.413V10.0332H132.177C130.184 10.0332 128.548 11.65 128.548 13.6271V26.0271C128.548 27.6864 127.776 28.7425 126.435 29.0081L125.195 29.3017L126.318 34.5727H127.468C131.606 34.5727 134.598 31.5231 134.598 26.337V15.5438Z" fill="var(--fill-0, white)"/>
<path id="Vector_4" d="M202.978 10.0339H200.774V7.18164H196.541C195.542 7.18164 194.726 7.98517 194.726 8.97613V10.0339H192.523C185.047 10.0339 180.375 15.08 180.375 22.302C180.375 29.5256 185.047 34.5717 192.523 34.5717H194.726V37.5461H198.959C199.958 37.5461 200.774 36.7378 200.774 35.7533V34.5717H202.978C210.453 34.5717 215.124 29.5256 215.124 22.302C215.124 15.08 210.453 10.0339 202.978 10.0339ZM192.523 29.1523C188.382 29.1523 186.423 26.5577 186.423 22.302C186.423 18.0496 188.382 15.4549 192.523 15.4549H194.726V29.1523H192.523ZM202.978 29.1523H200.774V15.4549H202.978C207.121 15.4549 209.073 18.0496 209.073 22.302C209.073 26.5577 207.119 29.1523 202.978 29.1523Z" fill="var(--fill-0, white)"/>
<path id="Vector_5" d="M169.181 16.2567H160.501V10.0371H154.453V32.7772C154.453 33.7649 155.271 34.5732 156.268 34.5732H169.181C174.454 34.5732 178.424 30.6388 178.424 25.4149C178.424 20.1929 175.093 16.2567 169.181 16.2567ZM169.181 29.0642H160.501V21.7657H169.181C170.656 21.7657 172.377 23.0729 172.377 25.4134C172.377 27.7523 170.656 29.0642 169.181 29.0642Z" fill="var(--fill-0, white)"/>
<path id="Vector_6" d="M237.682 16.2983C236.773 12.2611 234.204 9.44141 228.561 9.44141C223.258 9.44141 220.348 12.2611 219.44 16.2983L215.344 34.5725H219.727C220.722 34.5725 221.718 33.7835 221.929 32.817L222.758 29.0993H234.364L235.19 32.817C235.404 33.782 236.398 34.5725 237.396 34.5725H241.775L237.682 16.2983ZM223.908 23.9489L225.345 17.4767C225.584 16.4303 226.405 14.8314 228.561 14.8314C230.72 14.8314 231.538 16.4287 231.777 17.4767L233.217 23.9489H223.908Z" fill="var(--fill-0, white)"/>
<path id="Vector_7" d="M272.737 56.2709C273.804 55.2311 274.49 53.8148 274.49 51.8506C274.49 47.5022 271.089 44.4609 266.693 44.4609H251.907C250.909 44.4609 250.094 45.2677 250.094 46.257V67.2026C250.094 68.1901 250.909 68.9986 251.907 68.9986L267.628 69.0018C272.261 69.0018 275.335 65.7193 275.335 61.3709C275.335 59.1818 274.286 57.4673 272.737 56.2709ZM266.688 49.5542C267.493 49.5542 268.591 50.4474 268.591 51.9729C268.591 53.5099 267.493 54.294 266.688 54.39H256.021V49.5525L266.688 49.5542ZM267.174 63.9102H256.018V59.0695H267.174C267.977 59.1673 269.077 59.9496 269.077 61.4882C269.077 63.0121 267.977 63.9102 267.174 63.9102Z" fill="var(--fill-0, white)"/>
<path id="Vector_8" d="M232.79 43.8965C225.313 43.8965 220.086 49.1692 220.086 56.7303C220.086 64.2879 225.311 69.5656 232.79 69.5656H234.86C242.338 69.5656 247.564 64.2879 247.564 56.7303C247.564 49.1692 242.34 43.8965 234.86 43.8965H232.79ZM226.62 56.7303C226.62 52.3295 228.986 48.9656 233.155 48.9656H234.498C238.664 48.9656 241.028 52.3295 241.028 56.7303C241.028 61.1308 238.662 64.4982 234.498 64.4982H233.155C228.985 64.4965 226.62 61.1308 226.62 56.7303Z" fill="var(--fill-0, white)"/>
<path id="Vector_9" d="M119.914 44.4609L120.711 48.172C120.923 49.1614 121.914 49.9682 122.911 49.9682H128.55V68.9971H134.6V49.9697H140.062C141.057 49.9697 142.047 49.1629 142.257 48.1737L143.054 44.4624L119.914 44.4609Z" fill="var(--fill-0, white)"/>
<path id="Vector_10" d="M323.662 44.4609V54.2044H311.895V44.4609H305.844V68.9986H311.895V59.467H323.662V68.9986H329.712V44.4609H323.662Z" fill="var(--fill-0, white)"/>
<path id="Vector_11" d="M190.31 50.7283C189.403 46.6894 186.837 43.873 181.19 43.873C175.891 43.873 172.98 46.6911 172.076 50.7283L167.977 68.9992H172.357C173.357 68.9992 174.349 68.2134 174.564 67.2469L175.391 63.5278H186.992L187.82 67.2469C188.032 68.2134 189.027 68.9992 190.027 68.9992H194.406L190.31 50.7283ZM176.54 58.3757L177.98 51.9034C178.213 50.8586 179.035 49.2581 181.194 49.2581C183.353 49.2581 184.174 50.8586 184.41 51.9066L185.85 58.374L176.54 58.3757Z" fill="var(--fill-0, white)"/>
<path id="Vector_12" d="M299.071 50.7283C298.161 46.6894 295.595 43.873 289.95 43.873C284.646 43.873 281.739 46.6911 280.831 50.7283L276.734 68.9992H281.118C282.113 68.9992 283.108 68.2134 283.32 67.2469L284.153 63.5278H295.755L296.585 67.2469C296.8 68.2134 297.792 68.9992 298.787 68.9992H303.173L299.071 50.7283ZM285.295 58.3757L286.736 51.9034C286.975 50.8586 287.793 49.2581 289.95 49.2581C292.104 49.2581 292.93 50.8586 293.164 51.9066L294.605 58.374L285.295 58.3757Z" fill="var(--fill-0, white)"/>
<path id="Vector_13" d="M121.796 68.9302V69.0003H109.979C102.825 69.0003 97.8281 63.9557 97.8281 56.7289C97.8281 49.5053 102.826 44.4609 109.979 44.4609H118.943L118.066 48.2211C117.843 49.1859 116.842 49.9697 115.843 49.9697H109.979C106.156 49.9697 103.876 52.7959 103.876 56.7306C103.876 60.6633 106.154 63.4913 109.979 63.4913H118.713C119.709 63.4913 120.711 64.2769 120.935 65.2416L121.796 68.9302Z" fill="var(--fill-0, white)"/>
<path id="Vector_14" d="M159.265 44.4609L146.354 44.4624C145.354 44.4624 144.539 45.2709 144.539 46.2587V69.0003H150.589V62.7759H159.265C165.184 62.7759 168.513 58.8397 168.513 53.6207C168.513 48.4003 164.538 44.4609 159.265 44.4609ZM159.265 57.2683H150.589V49.9764H159.265C160.742 49.9764 162.465 51.2818 162.465 53.6225C162.465 55.9596 160.742 57.2683 159.265 57.2683Z" fill="var(--fill-0, white)"/>
<path id="Vector_15" d="M380.976 63.8204H367.945V59.1085H382.108V54.3754H367.945V49.6406H380.976C382.048 49.6406 382.896 49.1745 383.193 47.89L383.998 44.4609H363.714C362.716 44.4609 361.898 45.2677 361.898 46.257V67.2026C361.898 68.1901 362.716 69.0018 363.714 69.0018H383.998L383.193 65.5727C382.896 64.2899 382.051 63.8204 380.976 63.8204Z" fill="var(--fill-0, white)"/>
<path id="Vector_16" d="M333.852 68.9986V44.4609H339.901V60.6505L350.379 45.9081C350.969 45.1127 352.266 44.4609 353.271 44.4609H357.757V68.9986H351.705V52.8107L341.222 67.5512C340.634 68.3466 339.337 68.9986 338.335 68.9986H333.852Z" fill="var(--fill-0, white)"/>
<path id="Vector_17" d="M212.649 56.5985L221.092 44.4609H215.535C214.336 44.4609 213.491 44.8226 212.749 45.975L208.251 52.9705H207.446L202.945 45.975C202.206 44.8211 201.364 44.4609 200.157 44.4609H194.422L203.046 56.8578L194.603 68.9969H200.157C201.362 68.9969 202.206 68.6384 202.945 67.4828L207.446 60.4858H208.251L212.749 67.4828C213.491 68.6384 214.336 68.9969 215.535 68.9969H221.271L212.649 56.5985Z" fill="var(--fill-0, white)"/>
</g>
</svg>
