<svg preserveAspectRatio="none" width="100%" height="100%" overflow="visible" style="display: block;" viewBox="0 0 497 286" fill="none" xmlns="http://www.w3.org/2000/svg">
<path id="Vector 61" d="M32.9644 279.884C37.0057 276.636 42.3384 272.414 46.4002 269.229C47.6669 268.236 47.0401 268.765 47.9262 268.072C49.6487 266.726 51.2489 265.449 52.9411 264.135C53.5118 263.693 52.831 264.281 53.4281 263.816C56.6698 261.294 59.7298 258.889 63.0253 256.338C75.383 246.782 87.6183 237.443 100.253 228.236C104.2 225.363 108.122 222.314 111.972 219.211C117.305 214.917 123.663 209.547 128.859 204.747C129.467 204.186 129.079 204.493 129.192 204.384C130.956 202.689 130.423 203.283 131.595 202.196C136.232 197.837 141.338 192.828 144.884 187.837C146.304 185.665 144.874 187.836 146.22 185.614C146.304 185.46 146.043 186.041 146.365 185.436C146.692 184.782 147.127 183.883 147.132 182.93C147.12 181.557 146.748 180.51 146.368 179.936C144.974 178.19 144.222 178.2 142.114 178.01C139.009 177.961 135.416 179.084 132.231 180.292C131.586 180.542 132.46 180.245 131.424 180.657C130.362 181.068 127.576 182.277 126.65 182.707C125.704 183.136 126.09 182.922 125.92 182.994C124.521 183.57 121.459 185.204 121.024 185.438C113.772 189.237 107.642 192.812 101.038 196.833C96.0028 199.91 90.7365 203.264 86.0234 206.294C80.4169 209.9 75.6914 212.971 70.2852 216.533C69.7145 216.909 70.4092 216.508 69.7126 216.967C62.3147 221.844 54.9731 226.711 47.5747 231.479C46.8415 231.951 47.7681 231.301 47.0228 231.777C42.4603 234.712 35.1738 239.216 32.4924 241.029C29.7521 242.688 26.1178 244.804 23.4304 246.196C23.1388 246.348 22.8575 246.495 22.5874 246.635C20.704 247.614 22.4844 246.612 20.2359 247.834C19.7062 248.122 20.4133 247.789 19.6229 248.215C16.3819 249.963 12.8029 251.866 9.58727 253.622C8.93765 253.976 9.13629 253.91 8.95775 254.013C7.40105 254.91 4.78532 256.233 4.22649 256.532C3.11276 257.127 2.1604 257.639 1.17974 258.188C1.04505 258.264 0.971362 258.305 0.836467 258.383C0.763674 258.426 0.705989 258.46 0.664073 258.486C0.653602 258.492 0.644132 258.498 0.635708 258.504C0.628174 258.508 0.58263 258.539 0.594386 258.531C0.596969 258.528 0.601905 258.526 0.616734 258.506C0.620329 258.498 0.702548 258.399 0.594739 258.276C0.396415 258.171 0.459074 258.244 0.437426 258.229C0.426672 258.232 0.433446 258.231 0.442856 258.227C0.669746 258.131 0.935481 257.995 1.14765 257.89C1.41237 257.758 1.61309 257.656 1.8507 257.535C1.9671 257.475 2.10274 257.406 2.22065 257.345C2.3248 257.292 2.43318 257.236 2.54578 257.178C4.39348 256.225 6.19427 255.274 8.20543 254.216C9.1637 253.711 7.99996 254.271 8.93615 253.775C13.5688 251.323 18.4083 248.751 22.9918 246.328C24.0333 245.777 23.0954 246.324 23.5959 246.062C25.6815 244.969 26.217 244.596 28.2164 243.545C28.6493 243.317 28.4228 243.477 28.5034 243.439C29.1075 243.148 29.6687 242.842 30.127 242.582C30.5992 242.314 30.9545 242.096 31.1176 242.008C35.1564 239.814 37.697 238.55 41.6027 236.436C42.0593 236.188 41.0058 236.705 42.293 236.011C50.9794 231.325 60.1559 226.386 68.741 221.782C70.0748 221.067 69.1401 221.61 69.2257 221.568C70.6224 220.885 71.4747 220.327 71.9113 220.087C75.3131 218.219 78.5606 216.541 80.8465 215.186C95.3902 207.341 109.806 199.433 124.228 191.65C124.411 191.551 124.104 191.767 124.469 191.57C128.863 189.193 128.006 189.587 130.858 187.935C131.583 187.515 133.86 186.377 134.058 186.276C134.786 185.907 134.074 186.368 134.316 186.241C136.31 185.193 135.902 185.182 138.582 183.711C138.665 183.665 138.332 183.892 138.559 183.772C139.263 183.399 139.942 183.009 140.63 182.645C142.221 181.806 142.833 181.584 145.175 180.229C145.475 180.055 144.962 180.204 147.363 178.889C148.304 178.374 152.549 176.032 153.711 175.399C154.893 174.755 154.102 175.235 154.185 175.19C157.417 173.462 156.207 174.154 157.828 173.342C159.446 172.532 158.936 172.613 159.576 172.237C160.234 171.85 162.537 170.621 163.141 170.302C163.727 169.994 163.017 170.415 163.535 170.137C166.941 168.307 164.975 169.238 166.065 168.601C168.676 167.074 170.759 166.063 173.164 164.734C173.805 164.38 173.27 164.645 173.835 164.326C173.917 164.279 173.998 164.234 174.077 164.189C176.264 162.958 177.603 162.249 180.096 160.805C180.479 160.583 182.615 159.289 183.946 158.601C184.142 158.499 183.602 158.842 184.598 158.286C186.068 157.466 188.675 155.989 190.213 155.094C191.37 154.42 190.023 155.132 191.473 154.318C192.108 153.961 190.957 154.66 192.143 153.99C193.377 153.294 196.409 151.529 197.568 150.843C198.736 150.154 198.074 150.496 198.168 150.438C198.701 150.108 200.94 148.751 201.107 148.648C203.837 147.004 206.464 145.4 209.022 143.697C210.282 142.85 211.556 141.974 212.685 141.015C213.231 140.517 213.91 139.994 214.015 139.34C214.018 139.033 213.571 138.919 213.231 138.875C212.859 138.829 212.501 138.83 212.108 138.844C209.673 138.98 207.238 139.445 204.771 139.579C203.536 139.626 202.255 139.705 201.068 139.215C200.459 138.982 200.044 138.274 200.194 137.632C200.301 136.998 200.632 136.421 200.967 135.904C201.475 135.165 201.102 135.631 201.179 135.518C203.067 133.137 201.603 135.072 203.057 133.518C202.789 133.681 203.619 132.783 205.196 131.33C205.923 130.663 205.505 130.998 205.568 130.935C206.707 129.846 207.494 129.279 207.737 129.09C208.556 128.465 209.315 127.771 209.91 127.335C210.452 126.943 209.287 127.936 210.831 126.703C211.256 126.327 210.026 127.197 211.228 126.23C211.471 126.036 211.729 125.83 212.004 125.614C216.644 121.926 224.854 116.159 228.489 113.638C232.308 110.982 233.549 110.129 235.816 108.588C239.858 105.851 238.378 106.79 240.868 105.067C243.378 103.335 242.236 104.287 242.617 104.067C242.994 103.851 243.37 103.558 243.83 103.269C244.287 102.983 243.339 103.647 244.38 102.954C245.405 102.27 248.275 100.28 248.608 100.018C249.352 99.4374 248.016 100.239 250.806 98.4099C250.967 98.3045 250.468 98.6832 251.084 98.2778C255.95 95.0741 261.01 91.7428 265.901 88.5782C266.572 88.1443 265.997 88.5713 266.388 88.3191C270.469 85.6891 268.977 86.5761 271.16 85.0589C270.718 85.4756 271.988 84.7259 275.079 82.725C276.937 81.5228 276.592 81.6903 277.777 80.8851C278.133 80.6434 279.467 79.8212 279.693 79.6489C280.441 79.0813 279.157 79.8105 282.366 77.7841C282.507 77.6953 282.082 78.0154 282.568 77.7062C285.712 75.7049 286.037 75.406 289.427 73.2277C292.07 71.5289 296.845 68.5451 299.867 66.6417C299.865 66.7865 302.734 64.9385 303.839 64.1428C305.826 62.8935 307.921 61.5693 309.858 60.3678C310.518 59.9579 310.104 60.2592 310.19 60.2103C311.494 59.4623 312.297 58.864 312.719 58.5957C317.331 55.6742 321.145 53.3752 325.534 50.5955C325.69 50.4969 325.908 50.263 327.114 49.5926C327.191 49.5501 325.767 50.4719 327.825 49.2085C329.502 48.1793 332.349 46.4679 334.848 44.9393C335.531 44.5219 336.18 44.1228 336.772 43.7544C337.44 43.3383 339.239 42.1711 340.659 41.3822C340.848 41.277 340.658 41.4195 340.932 41.2706C341.864 40.7619 342.317 40.392 343.381 39.8426C344.469 39.28 346.687 38.0217 349.615 36.2663C349.711 36.2089 350.384 35.7405 351.297 35.2175C352.831 34.3384 354.901 33.1857 356.51 32.3028C357.255 31.8941 356.758 32.1189 356.887 32.0474C361.964 29.3152 365.583 27.2703 371.481 25.3593C372.561 24.9864 375.756 24.2593 377.964 24.2299C379.87 24.1592 378.723 24.3625 380.903 24.2862C381.467 24.2659 382.296 24.2227 383.448 24.1374C385.679 23.9707 388.484 23.4949 392.496 23.2102C400.24 22.3535 407.4 21.3714 415.089 19.9692C415.431 19.9068 416.52 19.6383 417.329 19.4909C418.547 19.2691 419.199 19.1806 420.068 19.0177C421.956 18.6635 423.752 18.3022 425.542 17.9296C427.157 17.5933 428.778 17.2451 430.421 16.8911C431.739 16.6057 431.282 16.7425 432.85 16.3979C434.415 16.0515 435.443 15.773 437.568 15.3061C439.164 14.9549 440.791 14.6712 442.905 14.1766C442.965 14.0657 444.42 13.7223 446.994 13.0667C447.489 12.9404 446.949 13.0393 447.183 12.9778C448.14 12.726 449.02 12.5363 449.926 12.2922C450.147 12.2329 450.149 12.1994 450.327 12.1495C451.845 11.7242 454.387 11.1561 454.822 11.0579C456.491 10.6831 457.257 10.4441 458.534 10.1353C459.811 9.82605 457.917 10.3379 459.402 9.96712C462.481 9.19838 466.426 8.1605 469.543 7.33642C470.788 7.00704 469.928 7.19083 470.106 7.14274C472.673 6.45167 475.285 5.80005 476.687 5.33659C478.525 5.07053 478.232 4.90127 481.914 3.95466C482.204 3.88002 482.6 3.88085 481.492 4.19532C480.386 4.50929 478.693 4.93135 477.159 5.36696C476.794 5.47099 474.732 6.12324 474.446 6.20554C472.224 6.8461 471.865 6.78007 471.745 6.80337C470.383 7.07091 467.853 7.84773 467.179 8.03227C464.106 8.8754 461.481 9.53601 458.907 10.2228C457.219 10.6727 457.085 10.8112 455.754 11.1473C451.342 12.2559 449.767 12.5031 445.631 13.6394C444.74 13.8816 445.66 13.7776 442.433 14.4613C442.232 14.5043 439.837 14.9908 438.466 15.3599C438.295 15.4063 438.307 15.4365 438.08 15.4919C436.556 15.8626 435.53 16.0708 433.865 16.4569C432.196 16.8436 430.2 17.2999 428.283 17.6942C427.4 17.8761 426.292 18.0683 425.594 18.1871C425.386 18.2228 425.212 18.2526 425.086 18.2748C423.521 18.5505 421.866 18.9461 420.883 19.0826C419.898 19.2182 421.791 18.7783 419.226 19.2313C419.146 19.3318 418.945 19.4575 418.808 19.569C413.203 20.6129 407.647 21.5008 401.976 22.2878C401.272 22.3852 401.999 22.3313 401.242 22.4363C398.068 22.872 395.266 23.1805 391.957 23.5366C389.402 23.8108 386.575 24.1093 383.886 24.3021C383.206 24.3083 382.141 24.3589 380.909 24.4132C379.133 24.4913 377.059 24.5694 375.386 24.8134C374.39 24.9618 374.452 24.9326 373.754 25.0644C371.109 25.6616 372.386 25.4625 371.662 25.6691C368.657 26.7012 368.354 26.6372 364.908 28.204C364.733 28.2777 362.574 29.4425 362.273 29.6094C360.4 30.6093 361.947 29.7322 360.744 30.3431C358.551 31.4713 357.082 32.2421 354.582 33.6736C353.838 34.0994 352.131 35.1395 350.702 35.9074C350.516 36.0073 350.601 35.9195 350.452 36.0031C347.703 37.5563 347.728 37.6718 346.196 38.6136C344.691 39.5406 342.292 40.8863 341.788 41.1643C340.476 41.886 342.758 40.5561 342.812 40.5189C343.583 39.9847 341.843 41.0339 340.535 41.8137C340.303 41.8304 338.457 42.9499 339.175 42.6257C339.259 42.5866 340.276 41.9632 340.535 41.8137C339.443 42.5886 337.448 43.8064 335.133 45.1023C335.083 45.1305 335.037 45.1561 334.994 45.1794C334.152 45.6419 334.918 45.1177 331.875 46.9981C330.45 47.8798 331.051 47.5965 329.796 48.3888C326.906 50.2135 323.159 52.4493 320.171 54.318C319.105 54.9847 320.167 54.3712 319.437 54.8291C317.484 56.0557 315.756 57.0986 313.796 58.3416C313.618 58.4546 314.077 58.2161 313.463 58.6007C308.856 61.4885 304.822 63.9965 300.009 67.0426C297.698 68.5044 293.558 71.1633 291.151 72.6947C286.989 75.3402 281.847 78.5714 278.314 80.8706C276.009 82.3707 276.538 82.0782 275.564 82.7416C273.689 84.0193 270.255 86.1349 269.797 86.4157C269.783 86.4244 271.759 85.1277 270.69 85.7976C270.051 86.1604 269.82 86.401 269.797 86.4157C269.493 86.6007 265.527 89.1771 264.75 89.6967C264.324 89.9807 264.585 89.8565 264.363 90.0039C259.098 93.4937 253.823 96.9889 248.483 100.537C248.39 100.599 248.506 100.469 248.287 100.614C245.173 102.674 243.236 104.044 240.733 105.778C238.197 107.535 236.223 108.873 234.666 109.852C232.792 111.149 230.034 113.02 228.458 114.099C226.872 115.185 226.722 115.397 226.584 115.495C222.34 118.56 219.841 120.281 215.496 123.516C214.706 124.107 213.444 125.064 212.283 125.972C210.419 127.425 208.621 128.898 207.309 130.034C205.643 131.486 204.675 132.33 203.272 133.797C203.097 133.985 203.303 133.823 203.25 133.881C201.764 135.575 202.448 134.708 202.117 135.058C201.575 135.677 201.145 136.211 200.789 136.918C200.435 137.574 200.201 138.764 201.675 139.064C202.268 139.273 204.199 139.168 205.403 139.04C206.971 138.89 206.382 138.995 208.03 138.79C208.173 138.772 208.133 138.747 209.158 138.621C210.11 138.508 211.084 138.382 212.087 138.338C212.611 138.324 213.11 138.304 213.695 138.451C213.835 138.49 214.002 138.549 214.16 138.662C214.324 138.771 214.497 139.006 214.517 139.252C214.543 139.727 214.33 139.98 214.176 140.215C213.494 141.095 212.657 141.707 211.865 142.321C210.241 143.538 208.542 144.643 206.87 145.712C206.289 146.082 207.062 145.648 206.217 146.183C202.33 148.635 197.978 151.19 194.123 153.401C193.17 153.947 193.749 153.574 193.537 153.685C192.191 154.397 190.499 155.467 190.166 155.659C184.474 158.957 179.75 161.563 174.311 164.608C173.06 165.308 171.711 166.064 170.312 166.852C169.951 167.056 166.871 168.875 165.515 169.538C165.42 169.584 164.04 170.259 162.85 170.981C162.783 171.022 163.631 170.6 162.176 171.401C160.731 172.198 158.344 173.55 156.324 174.614C155.679 174.955 154.112 175.729 152.252 176.828C152.134 176.898 149.238 178.66 148.154 179.143C147.974 179.223 148.111 179.027 145.845 180.336C145.412 180.586 146.213 180.173 145.075 180.816C143.353 181.789 140.972 183.065 138.857 184.279C138.488 184.491 136.906 185.441 135.596 186.098C135.391 186.2 135.756 185.96 135.077 186.328C131.84 188.081 128.463 189.957 125.168 191.732C124.003 192.359 124.57 191.984 123.35 192.634C122.125 193.286 119.681 194.605 118.423 195.321C117.164 196.038 118.597 195.359 116.695 196.406C108.447 200.944 100.221 205.361 91.9572 209.841C90.7308 210.506 91.762 209.983 89.9535 210.966C83.2912 214.587 71.8092 220.842 65.9838 223.912C61.3269 226.366 67.1274 223.183 63.5865 225.071C61.8807 225.981 60.0603 227.084 59.6578 227.305C55.6436 229.511 52.8012 230.991 49.1998 232.947C48.4427 233.358 49.2062 232.996 48.563 233.345C46.3864 234.525 44.0703 235.75 42.0099 236.862C41.0976 237.355 41.2607 237.304 40.3954 237.767C38.3356 238.867 36.4911 239.842 34.4908 240.881C34.3098 240.975 35.5032 240.288 34.006 241.09C32.8716 241.697 31.6149 242.363 30.3657 243.028C28.7492 243.888 27.2177 244.706 25.6191 245.58C24.7662 246.046 24.8357 246.094 22.9507 247.042C22.5693 247.234 22.9834 246.911 20.9551 248.081C20.5714 248.301 17.079 250.28 15.3244 251.135C14.8208 251.382 13.6932 251.898 12.6325 252.473C12.4947 252.548 13.0685 252.289 12.2234 252.741C9.268 254.32 6.15387 255.962 3.10208 257.558C2.28339 257.984 3.51497 257.396 2.30902 258.021C2.07801 258.141 1.89251 258.236 1.6778 258.345C1.55228 258.409 1.43755 258.467 1.334 258.519C1.28223 258.545 1.23325 258.569 1.18711 258.592C1.1281 258.622 1.05096 258.66 0.993846 258.687C0.855587 258.743 0.865353 258.787 0.516469 258.873C0.468838 258.86 0.357649 258.945 0.106925 258.703C-0.00723183 258.572 -0.0131867 258.379 0.0125236 258.294C0.0364062 258.201 0.0661076 258.162 0.0858249 258.132C0.163824 258.031 0.178693 258.035 0.202619 258.013C0.240227 257.984 0.291446 257.953 0.290134 257.953C0.311249 257.94 0.334475 257.925 0.360479 257.909C0.412429 257.878 0.475523 257.84 0.551259 257.796C0.649427 257.739 0.745258 257.684 0.867853 257.614C0.998348 257.54 1.10621 257.479 1.20687 257.422C2.12273 256.91 3.01887 256.42 3.96747 255.904C5.81035 254.902 7.69859 253.889 9.28965 253.039C10.5129 252.386 9.68492 252.871 9.77443 252.827C11.2036 252.127 11.992 251.61 12.4716 251.347C15.3579 249.765 17.525 248.65 20.2406 247.188C20.9551 246.804 20.429 247.04 20.57 246.961C22.0525 246.131 20.9646 246.791 21.9308 246.284C22.3223 246.079 22.7255 245.867 23.1388 245.649C25.4243 244.447 27.947 242.991 30.2619 241.605C31.2067 241.039 30.1179 241.637 30.9703 241.125C36.1269 238.019 41.4488 234.622 46.3882 231.453C47.3391 230.842 46.7607 231.258 46.9606 231.138C48.2986 230.337 50.2201 228.992 50.6728 228.687C52.7217 227.308 53.4884 226.841 55.3071 225.639C64.1052 219.818 74.9512 212.645 83.324 207.255C94.2332 200.246 102.762 194.882 113.54 188.779C114.231 188.391 113.512 188.74 114.106 188.407C121.762 184.226 129.383 179.984 138.027 177.821C138.717 177.675 137.673 177.84 138.845 177.606C141.123 177.185 144.726 176.839 146.608 179.079C147.354 180.101 146.354 178.731 147.047 179.798C147.594 180.821 147.741 181.719 147.774 182.919C147.661 185.001 146.485 186.583 145.494 188.109C144.799 189.1 145.906 187.623 144.971 188.926C138.435 197.372 130.563 204.301 122.498 211.328C121.941 211.806 121.394 212.159 120.218 213.186C120.145 213.282 120.17 213.3 120.148 213.354C113.821 218.745 107.365 223.939 100.679 228.821C94.9692 232.975 89.2901 237.21 83.6127 241.503C83.0978 241.893 84.0185 241.257 83.0188 242.014C77.2016 246.422 71.5907 250.748 65.6578 255.287C65.0714 255.736 65.3229 255.432 63.5974 256.789C63.3064 257.018 60.7028 259.059 60.0545 259.59C59.9649 259.663 60.4633 259.325 59.6275 259.979C54.7627 263.784 49.709 267.748 44.8617 271.555C44.0878 272.163 44.8833 271.479 44.3313 271.912C40.3887 275.006 36.1457 278.426 32.3797 281.39C29.869 283.367 30.7371 282.578 29.3653 283.585C29.1741 283.725 27.6274 284.964 27.5191 284.997C27.247 285.08 27.9261 284.386 27.5472 284.546C27.4694 284.577 25.3966 286.276 26.5969 285.236C26.6823 285.163 28.1774 283.937 28.5319 283.628C28.7799 283.411 28.2909 283.749 28.8032 283.315C29.3099 282.886 29.9227 282.441 30.7823 281.726C31.6435 281.01 31.2208 281.285 32.9644 279.884ZM221.399 118.993C219.951 119.988 219.834 120.258 221.347 119.121C221.421 119.065 221.475 118.942 221.399 118.993ZM407.656 21.3361C405.364 21.625 403.822 21.9419 405.433 21.7572C407.057 21.5672 408.355 21.2466 407.656 21.3361ZM431.165 16.8637C428.517 17.3846 428.151 17.679 430.961 17.028C431.125 16.9898 431.32 16.8328 431.165 16.8637ZM35.5225 278.633C35.5033 278.646 34.3909 279.532 34.3646 279.555C33.8024 280.065 36.0274 278.293 35.5225 278.633ZM454.251 11.3154C453.425 11.4956 451.084 12.1167 452.108 11.8967C452.929 11.721 455.278 11.092 454.251 11.3154ZM173.264 164.762C173.24 164.773 172.351 165.267 172.374 165.268C172.457 165.269 173.682 164.571 173.264 164.762ZM493.253 0.966773C487.498 2.52087 483.962 3.29587 490.233 1.61694C491.369 1.31272 487.803 2.33391 489.251 1.95744C491.901 1.26887 493.627 0.685993 496.339 0.0103963C496.829 -0.111579 493.582 0.878185 493.242 0.969783C493.246 0.96878 493.249 0.967776 493.253 0.966773ZM220.475 119.439C220.445 119.458 219.318 120.273 219.278 120.306C218.687 120.793 220.989 119.127 220.475 119.439ZM120.918 193.506C120.849 193.539 117.965 195.11 117.871 195.166C116.404 196.055 122.237 192.879 120.918 193.506ZM299.916 66.6144C301.204 65.7424 302.767 64.748 303.833 64.1465C302.542 64.9577 301.23 65.7864 299.916 66.6144Z" fill="var(--stroke-0, white)"/>
</svg>
