<svg preserveAspectRatio="none" width="100%" height="100%" overflow="visible" style="display: block;" viewBox="0 0 491 3" fill="none" xmlns="http://www.w3.org/2000/svg">
<path id="Line 51" d="M4.6768 0.0152547C7.42823 -0.0238245 11.0349 0.0179606 13.7759 0.0753131C14.635 0.0931009 14.2 0.172613 14.793 0.188472C15.9528 0.219387 17.0333 0.180391 18.1794 0.217219C18.5592 0.229814 18.0864 0.355761 18.4847 0.366084C20.6672 0.421745 22.732 0.389665 24.9429 0.416438C35.8331 0.548528 46.538 0.595807 57.5615 0.653192C61.1963 0.672006 65.6147 0.786308 69.369 0.736322C69.8073 0.730373 69.546 0.619823 69.6294 0.610712C70.9372 0.471225 70.5024 0.694402 71.3563 0.724054C74.7455 0.841131 78.5143 0.851313 81.7759 0.808648C83.1636 0.790173 81.7723 0.570593 83.1695 0.693841C83.2665 0.702169 82.9144 0.819565 83.2949 0.832086C84.1579 0.860247 85.7952 0.839264 86.4641 0.848565C87.7531 0.867085 87.9664 0.865904 89.1856 0.867242C90.8523 0.870092 92.8347 0.928449 94.623 0.901849C95.0047 0.895822 94.4994 0.775478 95.1081 0.754998C95.7174 0.734553 97.3293 0.744757 97.8727 0.773126C98.4162 0.801509 98.1848 0.896098 98.281 0.917779C99.0723 1.10077 100.937 0.847326 101.177 0.841058C105.551 0.73426 109.302 0.87864 113.407 0.878228C116.524 0.877609 119.857 0.829944 122.823 0.83648C126.357 0.844733 129.351 0.909946 132.784 0.898736C133.146 0.897691 132.722 0.756194 133.164 0.754632C137.865 0.738167 142.533 0.753591 147.214 0.849114C147.683 0.858819 147.078 0.983052 147.547 1.00018C150.418 1.10227 154.961 1.34754 156.667 0.806634C158.612 0.827755 160.973 0.849578 162.713 0.958611C163.835 1.02879 162.745 1.16413 164.123 1.10638C164.434 1.09351 164.03 0.974986 164.496 0.964654C166.458 0.921264 168.603 0.959791 170.544 0.898553C170.939 0.885818 170.831 0.779616 170.943 0.760492C171.883 0.605612 173.449 0.861638 173.79 0.880242C176.388 1.01897 178.286 0.964379 180.707 0.967766C181.269 0.968612 180.605 0.825959 181.145 0.821649C183.949 0.801203 186.853 0.813464 189.598 0.876763C190.209 0.891186 189.647 1.0127 189.939 1.02581C191.226 1.08214 191.511 0.852626 192.745 0.902215C193.005 0.912374 192.858 1.0164 192.906 1.02782C193.649 1.20717 194.294 0.953052 194.485 0.947442C196.901 0.870784 198.446 1.13607 200.78 1.0985C201.059 1.09374 200.43 0.962118 201.215 0.95678C206.444 0.920444 211.976 0.956602 217.152 1.06188C217.957 1.07807 217.383 1.17695 217.433 1.18914C218.259 1.37959 218.793 1.12441 219.055 1.1148C221.126 1.04562 223.06 1.25962 224.466 0.955681C233.235 1.06116 241.963 0.89048 250.659 1.16277C250.769 1.16593 250.571 1.2916 250.792 1.29736C253.448 1.36792 252.938 1.1726 254.695 0.933709C255.138 0.873723 256.484 1.16214 256.604 1.18328C257.038 1.26119 256.587 1.44816 256.733 1.46325C257.936 1.58172 257.74 0.963388 259.363 0.963189C259.413 0.96422 259.2 1.07803 259.336 1.08935C259.76 1.12488 260.179 1.07965 260.593 1.11883C261.541 1.20948 261.878 1.50994 263.326 1.33507C263.509 1.31238 263.229 0.961634 264.678 0.978203C265.256 0.985106 267.813 0.979094 268.529 1.00182C269.245 1.02453 268.753 1.13755 268.805 1.14245C270.733 1.29191 270.002 1.35385 270.968 1.57513C271.934 1.79556 271.666 1.2698 272.06 1.21111C272.454 1.1526 273.868 1.27591 274.216 1.31878C274.563 1.36167 274.13 1.43349 274.439 1.45776C276.486 1.61632 275.337 1.19678 276.012 1.11333C277.602 0.915746 278.841 1.30566 280.297 1.34386C280.691 1.35418 280.37 1.26538 280.721 1.25707C282.11 1.22536 282.946 1.34702 284.527 1.23547C284.785 1.21729 286.063 0.982862 286.89 1.1549C287.008 1.17971 286.675 1.27687 287.267 1.29864C288.151 1.3313 289.745 1.35254 290.696 1.32006C291.398 1.29603 290.594 1.13593 291.477 1.18566C291.87 1.20787 291.142 1.30153 291.88 1.33544C292.614 1.36934 294.491 1.36523 295.205 1.36199C295.918 1.35869 295.527 1.23724 295.585 1.22906C295.934 1.18219 297.301 1.12363 297.422 1.12377C303.52 1.10895 309.143 1.31366 315.079 1.2459C315.545 1.24076 315.235 1.11269 315.306 1.11059C316.901 1.05693 315.643 1.39743 316.758 1.5114C316.597 1.25152 317.254 1.29857 318.378 1.27007C318.919 1.25613 318.624 1.1555 318.674 1.14519C319.477 0.992349 320.036 1.18977 320.18 1.23016C320.711 1.37872 321.29 1.20318 321.652 1.30248C322.013 1.40104 321.181 1.54715 322.259 1.54528C322.561 1.45225 321.761 1.20913 322.579 1.16973C325.665 1.02069 331.427 1.21144 333.909 1.23125C336.386 1.25105 337.186 1.23389 338.629 1.26751C341.236 1.3283 340.28 1.14792 341.899 1.06536C343.523 0.982808 342.733 1.42662 342.967 1.52202C343.196 1.61739 343.446 1.51922 343.731 1.57165C344.015 1.62406 343.4 1.68893 344.068 1.70861C344.736 1.72827 346.564 1.55861 346.801 1.45885C347.302 1.24751 346.478 1.02569 348.247 1.10363C348.348 1.10826 348.018 1.22495 348.408 1.23675C351.501 1.32659 354.715 1.33215 357.805 1.41161C358.23 1.42272 357.85 1.55254 358.097 1.56048C360.672 1.64351 359.752 1.42462 361.163 1.18145C360.846 1.50505 361.627 1.70304 363.581 1.70495C364.756 1.70621 364.554 1.56487 365.314 1.46526C365.542 1.43523 366.373 1.53228 366.524 1.46581C367.02 1.24854 366.237 1.00532 368.253 1.10217C368.341 1.10677 368.059 1.2257 368.365 1.2329C370.34 1.28005 370.576 1.05278 372.71 1.02526C374.383 1.00367 377.359 1.14225 379.264 1.16479C379.224 1.52861 381.023 1.4453 381.753 1.19445C382.99 1.20472 384.325 1.19054 385.52 1.22521C385.931 1.23703 385.661 1.34237 385.713 1.35375C386.508 1.5323 387.045 1.28825 387.312 1.27868C390.205 1.18567 392.561 1.37064 395.321 1.18987C395.419 1.18336 395.578 0.930638 396.316 1.11517C396.364 1.12789 395.452 1.24287 396.75 1.25176C398.049 1.26067 400.497 1.39615 402.3 1.27904C402.737 1.25085 403.84 1.04569 404.726 1.20599C404.844 1.22775 404.715 1.30023 404.885 1.34057C405.436 1.46909 405.736 1.21365 406.383 1.43066C407.031 1.64766 408.377 1.81017 410.195 1.66045C410.253 1.6561 410.683 1.45364 411.255 1.45684C412.168 1.46212 413.464 1.5043 414.417 1.50298C414.873 1.50228 414.581 1.37656 414.66 1.37426C417.729 1.30381 419.912 1.41589 423.199 1.46453C423.802 1.4737 425.534 1.30226 426.7 1.4378C427.981 1.58617 426.665 2.20337 429.609 2.05632C430.796 1.99751 432.3 1.21448 434.434 1.62017C438.573 1.51964 442.4 1.72727 446.55 1.58373C446.737 1.57737 447.327 1.35883 447.766 1.36181C448.417 1.36665 448.775 1.46879 449.24 1.47552C451.189 1.50628 452.972 1.41889 454.852 1.43249C455.565 1.43743 455.316 1.54304 456.166 1.54894C457.017 1.55475 457.584 1.41567 458.736 1.48284C459.607 1.53404 460.477 1.8183 461.632 1.85143C461.676 1.57104 462.469 1.57682 463.88 1.5028C464.151 1.48844 463.86 1.39085 463.988 1.37902C464.51 1.32872 464.993 1.4096 465.488 1.35485C465.609 1.3417 465.615 1.24594 465.713 1.22979C466.551 1.08877 467.932 1.30416 468.169 1.34167C469.078 1.48409 469.502 1.35955 470.199 1.41564C470.895 1.47172 469.854 1.54183 470.667 1.57586C472.352 1.64625 474.517 1.63078 476.228 1.63518C476.911 1.63635 476.445 1.50853 476.543 1.50573C477.955 1.47331 479.383 1.60927 480.165 1.35467C481.144 2.01298 481.017 1.29081 483.035 1.4226C483.194 1.43326 483.396 1.74457 482.786 1.79027C482.175 1.83593 481.25 1.73862 480.403 1.80987C480.203 1.82658 479.054 2.1183 478.897 2.13598C477.67 2.27408 477.496 1.80887 477.431 1.78332C476.694 1.50757 475.291 1.82184 474.921 1.84356C473.23 1.94306 471.793 1.87764 470.379 1.94866C469.454 1.99456 469.363 2.29929 468.637 2.28997C466.222 2.25914 465.38 1.83403 463.104 2.20263C462.616 2.28124 463.101 2.6143 461.353 2.35241C461.243 2.33589 459.945 2.09631 459.195 2.24785C459.101 2.26696 459.104 2.36403 458.98 2.37218C458.147 2.42493 457.592 2.3476 456.685 2.38463C455.778 2.42167 454.688 2.47688 453.653 2.44396C453.029 2.42427 452.228 2.24342 451.93 2.19915C451.086 2.0716 450.182 2.28072 449.66 2.12627C449.133 1.97104 450.163 1.7353 448.781 1.635C448.73 1.88719 448.612 2.14603 448.53 2.39965C445.502 2.39077 442.523 2.30922 439.485 2.32036C439.109 2.322 439.494 2.45757 439.09 2.46282C437.387 2.48436 435.899 2.38771 434.132 2.4262C432.765 2.45651 431.265 2.60005 429.836 2.63622C428.962 2.34765 426.84 2.44561 425.299 2.41924C424.759 2.41013 424.795 2.33305 424.411 2.30791C422.963 2.21492 423.642 2.46993 423.244 2.51006C421.54 2.68133 421.395 2.10414 419.386 2.1184C419.28 2.11896 417.979 2.42663 417.8 2.44579C416.661 2.57073 417.611 2.3387 416.899 2.31597C415.598 2.27442 414.694 2.20095 413.168 2.29107C412.722 2.31776 411.655 2.50953 410.791 2.36119C410.677 2.34177 410.74 2.24007 410.648 2.23412C408.992 2.13484 408.948 2.45439 408.002 2.56261C407.055 2.67081 405.593 2.45022 405.295 2.38665C404.517 2.22218 405.892 2.31636 405.934 2.30022C406.429 2.10815 405.363 2.14122 404.548 2.12499C404.43 1.81167 403.29 1.83048 403.703 2.10943C403.75 2.13989 404.384 2.11068 404.548 2.12499C403.833 2.4324 402.58 2.47177 401.197 2.1845C400.55 2.04986 401.162 1.89288 399.195 1.95031C398.302 1.97623 398.647 2.19197 397.859 2.25078C396.06 2.38498 393.721 2.18373 391.866 2.21544C391.192 2.22695 391.848 2.34505 391.388 2.35698C390.167 2.38903 389.09 2.30042 387.863 2.34581C387.752 2.35008 388.024 2.47369 387.642 2.47527C384.75 2.48963 382.233 2.41045 379.213 2.40825C377.755 2.40725 375.147 2.47543 373.636 2.46172C371.016 2.43869 367.795 2.25893 365.557 2.3026C364.098 2.33055 364.418 2.4542 363.793 2.53844C362.586 2.70174 360.451 2.40923 360.163 2.36394C360.154 2.36244 361.41 2.33329 360.74 2.26983C360.35 2.13758 360.177 2.36337 360.163 2.36394C359.974 2.33468 357.466 2.30661 356.968 2.33025C356.697 2.34317 356.848 2.46031 356.707 2.46483C353.353 2.56967 349.993 2.59944 346.591 2.54467C346.531 2.5423 346.621 2.41127 346.481 2.40734C344.511 2.34908 343.25 2.50937 341.626 2.60454C340.002 2.69967 338.714 2.66781 337.752 2.44286C336.527 2.47118 334.769 2.37173 333.757 2.31139C332.745 2.25105 332.604 2.50612 332.515 2.51116C329.739 2.67255 328.134 2.52655 325.254 2.50383C323.884 2.49259 321.168 2.52959 319.685 2.55748C318.513 2.57995 317.807 2.52018 316.728 2.5584C316.581 2.5635 316.729 2.67707 316.685 2.68144C315.48 2.81732 316.059 2.53969 315.81 2.4901C314.908 2.30978 314.35 2.21375 312.807 2.29857C312.451 2.318 311.415 2.71776 310.766 2.74114C309.922 2.7708 310.241 2.62751 309.357 2.66222C309.282 2.66506 309.297 2.75346 308.752 2.74956C306.222 2.73263 303.463 2.68119 300.833 2.69005C300.474 2.69092 300.934 2.83114 300.415 2.8347C297.98 2.85132 295.311 2.84614 292.938 2.7805C292.354 2.76391 292.72 2.66573 292.594 2.63658C291.815 2.46021 290.712 2.71648 290.53 2.72136C286.186 2.84451 282.861 2.61259 278.434 2.72301C278.193 2.72949 276.337 3.00422 275.51 2.7686C275.453 2.75293 274.634 2.51187 273.91 2.67668C273.865 2.687 274.376 2.8111 273.485 2.79845C272.595 2.78583 271.162 2.8687 269.938 2.73235C269.55 2.68939 268.634 2.44893 267.478 2.64061C267.403 2.65399 265.619 3.08742 264.982 2.78838C264.878 2.73915 264.987 2.4227 263.607 2.58495C263.343 2.6164 263.822 2.68699 263.127 2.73107C262.063 2.799 260.654 2.71424 259.346 2.85521C259.118 2.88017 258.147 3.09496 257.368 2.93193C257.246 2.9064 257.478 2.80075 257.066 2.78893C255.11 2.73221 253.062 2.80288 251.076 2.72978C250.373 2.7041 250.733 2.53331 249.999 2.48754C249.266 2.44178 247.789 2.39777 247.021 2.47582C246.254 2.5539 247.092 2.82611 245.942 2.84789C240.944 2.94249 235.992 2.78281 231.001 2.75945C230.261 2.75596 230.875 2.85336 229.784 2.85521C225.762 2.86246 218.818 2.95378 215.328 2.74681C212.532 2.58104 216.051 2.45484 213.914 2.38738C212.883 2.3552 211.767 2.67166 211.518 2.68163C209.087 2.78283 207.397 2.64265 205.208 2.68566C204.756 2.69458 205.199 2.82285 204.815 2.82903C203.501 2.85127 202.12 2.79402 200.864 2.80449C200.301 2.80948 200.405 2.90745 199.887 2.89989C198.647 2.88293 197.55 2.84175 196.341 2.74993C196.231 2.74156 196.974 2.61969 196.056 2.61516C194.571 2.60817 192.728 2.51759 191.02 2.61113C190.513 2.63927 190.493 2.86317 189.403 2.70854C189.175 2.67625 189.466 2.4074 188.197 2.6397C187.984 2.6783 185.852 2.99163 184.805 2.78966C184.529 2.7365 183.825 2.5165 183.215 2.55107C183.132 2.55659 183.463 2.67686 182.958 2.68859C181.178 2.72784 179.312 2.715 177.484 2.75267C176.995 2.76297 177.723 2.88742 176.995 2.89879C174.993 2.93025 172.494 2.89856 170.536 2.85961C169.815 2.84501 170.314 2.74192 170.261 2.7307C169.417 2.54823 168.917 2.79452 168.637 2.80889C166.894 2.89488 165.567 2.77918 163.96 2.8098C163.517 2.81794 163.831 2.93538 163.743 2.94585C162.828 3.04816 163.51 2.83726 162.93 2.81401C161.307 2.74819 159.498 2.75762 157.856 2.77263C157.253 2.77832 157.931 2.91449 157.39 2.91802C154.187 2.94148 150.858 2.92845 147.732 2.85338C147.144 2.839 147.514 2.73414 147.392 2.71019C146.546 2.54264 145.307 2.77118 145.022 2.79296C143.726 2.89236 143.223 2.79964 142.078 2.81694C136.486 2.90311 129.581 2.8417 124.303 2.80376C117.424 2.75493 112.087 2.65518 105.528 2.68108C105.111 2.68259 105.531 2.82209 105.172 2.82518C100.532 2.85881 95.9643 2.8043 91.3152 2.84459C90.9337 2.84765 91.4837 2.97989 90.8713 2.98924C89.6153 3.00936 88.0243 3.00217 86.7544 2.95995C86.135 2.9396 86.9658 2.82613 86.3424 2.80797C84.8906 2.76543 83.3345 2.75601 81.8434 2.77721C81.2088 2.78652 82.1662 2.92177 81.3414 2.92333C75.7229 2.93674 70.205 2.96004 64.5273 2.7849C64.1381 2.77287 63.7965 2.498 62.9689 2.55071C62.9066 2.62699 62.91 2.71673 62.8828 2.79827C54.7037 2.84219 46.6082 2.7469 38.4061 2.73217C38.0603 2.73158 38.658 2.87722 37.9885 2.87682C34.1135 2.87466 30.3506 2.91501 26.387 2.77025C25.9937 2.75609 26.1955 2.49987 25.0365 2.53862C24.8321 2.54569 23.0866 2.57987 22.6353 2.63549C22.574 2.64388 22.8925 2.76347 22.33 2.76695C19.0614 2.78512 15.636 2.75781 12.373 2.68474C11.8464 2.67272 12.4072 2.54536 12.0322 2.53569C9.3715 2.46809 6.47747 2.5649 3.93509 2.44927C2.2333 2.37141 2.86335 2.15126 1.95905 1.93456C1.83114 1.90399 0.777351 1.89914 0.722856 1.77306C0.582951 1.45602 1.09338 1.10886 0.883936 0.770929C0.839687 0.69814 -0.571615 0.776538 0.263966 0.600641C0.32234 0.588869 1.34554 0.53049 1.59756 0.47082C1.77302 0.429565 1.45683 0.301341 1.81483 0.24853C2.17279 0.195769 2.56615 0.303253 3.15966 0.241206C3.75289 0.178391 3.49204 0.032522 4.6768 0.0152547ZM329.202 2.04168C328.265 1.91918 328.127 2.36783 329.14 2.26049C329.189 2.25477 329.25 2.04769 329.202 2.04168ZM442.54 1.97081C441.316 1.77293 440.478 2.0639 441.341 2.21672C442.205 2.36939 442.913 2.0308 442.54 1.97081ZM455.239 1.82635C453.808 1.67032 453.583 2.30652 455.116 2.17791C455.205 2.17064 455.323 1.8354 455.239 1.82635ZM6.15274 1.87285C6.13981 1.8669 5.3823 1.86109 5.3642 1.86699C4.96084 2.00948 6.47555 2.02099 6.15274 1.87285ZM467.841 1.66906C467.394 1.583 466.108 1.68234 466.663 1.78936C467.11 1.87545 468.397 1.77611 467.841 1.66906ZM280.337 1.56286C280.322 1.55617 279.779 1.55015 279.79 1.58794C279.827 1.70966 280.582 1.67531 280.337 1.56286ZM489.259 1.66173C486.095 1.63779 484.176 1.11226 487.622 1.17156C488.246 1.18229 486.277 1.33915 487.071 1.38653C488.525 1.47284 489.49 1.14288 490.973 1.31969C491.241 1.35206 489.44 1.66427 489.253 1.66247C489.255 1.66222 489.257 1.66198 489.259 1.66173ZM328.662 1.5028C328.644 1.49687 327.892 1.49124 327.874 1.49712C327.467 1.63955 328.981 1.65097 328.662 1.5028ZM248.647 1.28545C248.606 1.27281 246.861 1.26099 246.804 1.27264C245.894 1.50555 249.421 1.53014 248.647 1.28545ZM379.294 1.17449C380.114 1.03121 381.096 1.01433 381.749 1.19427C380.934 1.18472 380.114 1.18331 379.294 1.17449Z" fill="var(--stroke-0, #FF8700)"/>
</svg>
