<svg preserveAspectRatio="none" width="100%" height="100%" overflow="visible" style="display: block;" viewBox="0 0 40 43" fill="none" xmlns="http://www.w3.org/2000/svg">
<path id="Vector" d="M33.3905 25.9059L22.778 35.653C18.5765 39.512 11.7724 39.5047 7.58067 35.6365C7.53503 35.5943 7.53503 35.5943 7.48961 35.5516C3.07833 31.3814 3.09463 24.7303 7.52688 20.5787L23.4261 5.68606C25.9948 3.27988 30.1963 3.24622 32.8099 5.61123C32.8658 5.66183 32.9205 5.71307 32.9743 5.76538C35.7061 8.41812 35.676 12.4831 32.9725 15.0387L16.954 30.1801C16.0174 31.0653 14.4973 31.135 13.4701 30.3396L13.2982 30.2067C12.3727 29.4899 12.2533 28.2184 13.0318 27.3663C13.0602 27.335 13.0898 27.3046 13.1203 27.275L23.9086 16.8242C24.706 16.0517 24.6723 14.8303 23.8332 14.0962C22.9941 13.3621 21.6674 13.3932 20.87 14.1657L10.0816 24.6165C9.99265 24.7027 9.90672 24.7914 9.82358 24.8823C7.55506 27.3657 7.90275 31.0718 10.6002 33.1602L10.7719 33.2931C13.4803 35.39 17.4878 35.2066 19.9571 32.8727L35.9753 17.7313C40.2489 13.6919 40.2962 7.2666 36.0822 3.17418C35.9289 3.02517 35.8393 2.94134 35.7482 2.8588C31.4834 -1.00014 24.628 -0.945463 20.4363 2.98101L4.53711 17.8737C-1.49272 23.5218 -1.51507 32.5706 4.48658 38.244C4.54946 38.3034 4.54946 38.3034 4.61304 38.3621C10.4398 43.739 19.8981 43.7493 25.7386 38.3851L36.3511 28.6379C37.1707 27.8854 37.1723 26.6636 36.3546 25.9093C35.5372 25.1548 34.21 25.1533 33.3905 25.9059Z" fill="var(--fill-0, #141414)"/>
</svg>
