<svg preserveAspectRatio="none" width="100%" height="100%" overflow="visible" style="display: block;" viewBox="0 0 92 2" fill="none" xmlns="http://www.w3.org/2000/svg">
<path id="Line 20" d="M56.796 0.0161558C60.526 0.011023 64.6096 -0.0198216 68.3546 0.0203062C68.8143 0.0252089 68.7829 0.0923739 68.9119 0.101239C69.2645 0.125701 69.4768 0.0464747 69.7338 0.0522887C70.9833 0.0802836 72.152 0.0916808 73.3778 0.117108C74.6404 0.143238 74.0431 0.352016 74.4819 0.402876C75.339 0.502481 74.6099 0.230234 74.9469 0.16911C75.9295 0.185441 76.921 0.214934 77.9054 0.244794C77.6651 0.270214 77.4247 0.295093 77.1817 0.318647C77.6108 0.324249 78.2249 0.36627 77.5064 0.437422C77.6652 0.457019 77.8134 0.479937 77.9766 0.499068C78.0214 0.399924 78.7811 0.39195 78.8505 0.333174C78.9198 0.274382 78.4927 0.287891 78.4953 0.282758C78.5237 0.209531 80.2757 0.309628 80.4021 0.317793C80.7361 0.339518 80.4432 0.462427 80.7274 0.454512C81.2161 0.44098 80.8906 0.190905 81.5521 0.52336C81.8153 0.415359 81.8383 0.471446 82.1716 0.478926C82.2154 0.479859 82.1814 0.417327 82.2007 0.415693C82.7051 0.36928 82.3174 0.485567 82.32 0.491866C82.3658 0.598874 82.9072 0.551305 83.0212 0.561568C84.4523 0.68941 85.5008 0.775959 87.0109 0.805587C87.3373 0.811885 88.3315 0.768469 88.6474 0.786666C88.9589 0.804625 88.7917 0.881727 88.9548 0.918747C89.2161 0.733267 89.4655 0.71281 90.0522 0.835007C90.2707 0.699706 90.2426 0.808846 90.6611 0.781784C91.0095 0.759365 91.6166 0.597061 92 0.735397C91.5604 0.722798 91.6059 0.789263 91.111 0.829391C90.9463 0.842681 89.2284 0.845521 89.3563 0.983811C89.423 1.0559 89.9923 0.989689 90.0143 1.00298C90.1424 1.08043 89.8247 1.17562 89.543 1.14226C89.6132 1.12663 89.6977 1.11077 89.7732 1.09514C89.1406 0.998321 89.5756 1.37018 89.0948 1.04521C89.0354 1.00535 89.0584 0.96379 88.9604 0.921433C88.9403 0.938951 89.0601 0.982379 88.9569 0.990158C88.8516 0.997999 88.6515 0.915541 88.6217 0.985031C88.5771 1.08608 89.0135 1.04626 89.0464 1.05217C89.0467 1.05156 89.0471 1.05095 89.0474 1.05034C89.3378 1.10399 88.7314 1.11011 88.7025 1.11968C88.5149 1.18264 88.6428 1.23112 88.3613 1.28313C88.2007 1.31276 87.7917 1.29529 87.6408 1.30486C87.4909 1.31466 87.7242 1.36246 87.6233 1.37273C87.5224 1.38299 87.3967 1.34667 87.2783 1.35857C87.2276 1.36381 87.2302 1.41713 87.2056 1.41899C86.9425 1.43951 87.1151 1.32861 86.8764 1.33537C86.7218 1.33987 86.2029 1.44325 86.5606 1.47405C86.3886 1.48477 86.221 1.49263 86.05 1.50102C86.1578 1.51688 86.2693 1.52766 86.3746 1.54631C86.0527 1.52092 85.9071 1.61216 85.7053 1.61895C85.5035 1.62571 85.3226 1.51622 85.1006 1.56963C84.6268 1.68325 85.8001 1.63075 85.9457 1.65105C86.0025 1.65903 85.7845 1.74479 85.7509 1.74724C85.6018 1.75797 85.4254 1.69664 85.3105 1.69939C84.899 1.70965 84.647 1.7906 84.2548 1.80693C82.9194 1.86246 81.2627 1.90749 79.9974 1.92522C79.5262 1.93175 79.2427 1.84074 79.0312 1.84331C78.5365 1.84938 78.4759 1.92869 78.0444 1.93291C77.4021 1.93944 76.4972 1.87021 75.9611 1.85527C75.59 1.84501 75.254 1.92176 75.1574 1.92363C73.8158 1.95116 72.1837 1.94943 71.072 1.95037C70.5492 1.95083 70.3008 1.86458 70.1929 1.86711C69.7287 1.87785 69.8532 1.95159 69.4769 1.94414C69.2736 1.94018 69.2356 1.86939 69.2084 1.86663C68.9689 1.8433 68.9212 1.93574 68.7343 1.93877C67.6595 1.95626 66.6242 1.89576 65.5599 1.88689C65.4827 1.88619 65.4896 1.84524 65.4396 1.84734C65.2248 1.85739 65.3246 1.92188 65.1002 1.92656C64.6334 1.9366 64.1541 1.92594 63.6592 1.91777C63.6102 1.91697 63.5881 1.86433 63.476 1.86431C63.3637 1.86431 63.2785 1.91421 63.1022 1.91143C62.6416 1.90419 62.187 1.8445 61.6991 1.84124C61.6184 1.84077 61.5184 1.90418 61.3973 1.90349C61.0174 1.90139 60.4548 1.84382 60.1293 1.84172C59.0553 1.83519 58.0645 1.87129 57.0529 1.87175C56.8151 1.87173 56.6045 1.81297 56.4808 1.81157C56.202 1.80856 56.4124 1.86407 56.1298 1.86431C53.8222 1.86571 51.5057 1.84047 49.1708 1.8449C48.2539 1.84653 47.1378 1.90398 46.2516 1.88811C45.8831 1.88134 45.8162 1.80458 45.5556 1.80388C45.0908 1.80297 45.0065 1.90137 44.5161 1.91118C44.1248 1.91888 43.6763 1.82065 43.2692 1.82671C42.8621 1.83278 42.6742 1.92819 42.2065 1.93962C41.8213 1.94895 41.2835 1.90565 40.8641 1.91265C37.021 1.97704 33.2366 2.01623 29.3697 1.94158C28.0053 1.91521 26.4915 1.92892 25.0814 1.83513C24.949 1.82626 25.1516 1.73411 24.727 1.75347C24.4988 1.76396 24.1803 1.84336 23.6531 1.84734C20.5179 1.87067 17.1738 1.70083 13.9861 1.73442C9.21106 1.78505 4.26233 2.44078 0.112919 1.48125C-0.0906159 1.43413 0.0197552 1.20322 0.141697 1.13762C0.254861 1.1845 0.359484 1.24019 0.477909 1.29314C0.627038 1.00462 0.600742 1.07974 1.15349 1.10564C1.4938 1.12172 1.22197 0.998326 1.40337 0.963303C1.63853 0.918042 2.74262 0.775525 2.53028 0.966599C2.59872 0.933472 2.66189 0.901736 2.72857 0.869308C3.52789 0.840379 4.30449 0.79254 5.08627 0.737716C5.22131 0.728132 5.22754 0.668178 5.36703 0.658614C5.74166 0.632495 6.0391 0.671881 6.42515 0.665816C6.63486 0.66255 6.66395 0.593268 6.93859 0.597701C7.21307 0.602161 7.20705 0.695688 7.58154 0.594039C7.33761 0.47669 8.42571 0.561839 8.81268 0.55461C8.86883 0.553677 9.32943 0.448254 9.57425 0.460371C9.8199 0.472268 10.1928 0.539615 10.5727 0.501387C10.7508 0.483423 10.8589 0.401321 11.0511 0.39665C11.1862 0.393384 11.3485 0.466363 11.5196 0.469405C11.6906 0.472436 12.0607 0.41253 12.1285 0.411543C12.3732 0.407578 12.1032 0.458886 12.2706 0.46147C13.0787 0.473135 14.0176 0.500631 14.8143 0.466109C14.9123 0.461923 14.7767 0.401473 14.7898 0.399458C15.4547 0.325287 15.0998 0.404049 15.2793 0.458174C15.4533 0.510511 16.7261 0.481962 16.7354 0.376875C16.7745 0.508468 17.0575 0.407959 17.131 0.404097C17.4169 0.38918 17.3609 0.503033 17.6381 0.467818C17.7398 0.454992 17.5417 0.378037 17.6511 0.380293C17.9213 0.385892 18.1645 0.509521 18.5242 0.521895C18.6111 0.524928 18.6393 0.469857 18.7938 0.471724C18.9484 0.473619 19.5965 0.540991 19.2974 0.424849C19.6904 0.517921 19.7696 0.466838 20.2267 0.469405C20.3425 0.470187 20.4916 0.558933 20.738 0.531417C20.8214 0.522078 20.8189 0.436535 20.9444 0.435835C21.2313 0.433993 21.5016 0.522546 21.8657 0.526045C22.5465 0.532808 23.2714 0.470557 23.9812 0.49272C24.1741 0.498802 24.126 0.584808 24.4066 0.58647C24.4478 0.58647 24.7857 0.512094 24.9797 0.519087C25.0964 0.523287 25.701 0.575557 25.823 0.579757C26.0247 0.586488 26.0607 0.503307 26.1711 0.519576C26.4905 0.566469 26.2343 0.68891 26.6186 0.521407C26.745 0.61426 26.9695 0.60497 27.0415 0.719283C27.1722 0.594011 27.3418 0.714371 27.5953 0.672408C27.8489 0.630414 28.0568 0.387784 28.1182 0.648849C28.2367 0.61712 28.7413 0.562971 28.8264 0.559004C29.0773 0.547816 28.9432 0.62003 29.1325 0.610274C29.1658 0.608642 29.1309 0.559263 29.3448 0.564131C29.4852 0.567398 30.5138 0.570427 30.5752 0.577193C31.2761 0.654501 30.1934 0.626166 30.0418 0.67961C30.0151 0.665573 29.9886 0.65149 29.96 0.637618C29.6503 0.614301 29.8267 0.725859 29.967 0.751754C30.1074 0.777643 30.3698 0.727945 30.4865 0.764572C30.5446 0.782962 30.5086 0.916711 30.3327 0.900559C30.5209 0.941756 30.2639 0.985256 30.3383 1.02397C30.4202 1.06642 31.2656 1.07948 31.2701 1.00578C31.1122 1.00322 30.9157 1.00576 30.756 1.00273C30.5472 0.874649 31.1815 0.43724 31.7632 0.611983C32.1852 0.738425 31.4895 0.838969 32.4879 0.732833C32.3344 0.7277 32.2045 0.715738 32.065 0.710372C32.0502 0.614317 32.2765 0.719935 32.3932 0.689376C32.4492 0.674435 32.1038 0.606418 32.4037 0.583785C32.6616 0.721144 32.8601 0.582976 33.2927 0.581343C33.1725 0.60584 33.0521 0.630211 32.9319 0.654708C33.6628 0.754325 31.9651 0.787185 33.3864 0.842941C33.2153 0.847369 33.0452 0.846191 32.8733 0.852951C32.9566 0.903353 32.8233 1.05131 32.8978 1.08257C33.0935 1.16462 33.3829 1.11516 33.6215 1.12236C33.7259 1.12539 33.6612 1.16534 33.6699 1.16557C33.8129 1.17 33.7814 1.11145 33.9068 1.10771C34.0647 1.10305 34.5208 1.15998 34.5947 1.15349C34.786 1.13692 34.4675 1.02137 34.4859 1.01274C34.6079 0.956773 34.857 1.00319 34.8439 0.929978C34.2445 0.980359 32.5172 0.91568 34.0799 0.794601C33.649 0.676319 33.7735 0.513246 34.3929 0.500411C34.9053 0.489679 34.5747 0.555019 34.8414 0.626876C34.8759 0.635871 35.5622 0.670228 35.5974 0.61943C35.5699 0.736425 35.7932 0.840032 35.6434 0.960739C35.6214 0.97847 35.3398 0.971474 35.438 1.06853C35.4872 1.11728 35.6282 1.22339 35.6054 1.28545C35.6633 1.24229 35.7239 1.19375 35.7827 1.14873C36.2047 1.13613 36.2647 1.18262 36.4955 1.26311C36.4849 1.22951 36.2717 1.08834 36.5955 1.13127C36.6121 1.13384 36.6265 1.1845 36.791 1.20964C37.1235 1.26003 37.1929 1.2757 36.9377 1.42449C37.6263 1.33962 37.7746 1.50545 38.4808 1.45696C38.3404 1.26568 38.0921 1.31304 37.4455 1.3499C37.4174 1.30441 37.4042 1.25938 37.3753 1.21343C38.236 1.31653 37.8107 1.30603 38.2983 1.21367C38.4176 1.19104 39.0539 1.21525 38.8416 1.08647C38.7915 1.05617 38.3962 1.05966 38.4415 1.01189C38.4503 1.00279 38.9308 0.979649 38.9732 0.99199C39.5049 1.14433 38.5547 1.25051 40.019 1.19499C40.0594 1.19336 40.0735 1.13768 40.1524 1.12993C40.3006 1.11547 40.3025 1.17998 40.4349 1.16509C40.5674 1.15016 40.7509 1.0634 40.9501 1.1436C41.3142 1.28965 40.4553 1.37365 40.0727 1.29619C39.9174 1.48703 42.6506 1.49123 42.82 1.4749C43.5595 1.40376 42.3289 1.44483 42.2655 1.39189C42.2391 1.3695 42.2523 1.08561 41.9408 1.26982C41.8487 1.32441 42.2338 1.39634 42.004 1.42644C41.7741 1.45654 41.8652 1.37295 41.8485 1.36711C41.7914 1.34712 41.5469 1.37811 41.5151 1.36626C41.0273 1.18638 41.072 0.914575 41.7187 1.31609C42.0004 1.22533 41.3538 1.08068 41.7039 1.01909C42.1295 0.94423 42.4401 1.07368 42.4936 1.07951C43.1348 1.14854 42.3954 0.959567 43.1786 1.01994C43.6147 1.05354 42.526 1.14571 43.5219 1.13335C44.3555 1.12285 43.9053 1.05706 43.9658 0.907517C43.9801 0.872527 44.4368 0.829623 43.8149 0.845016C43.7974 0.88397 43.7642 0.93531 43.7247 0.971237C43.5722 0.942797 43.3178 0.747829 43.2369 0.741012C42.8412 0.708585 42.8603 0.809781 42.627 0.690597C42.7936 0.820981 42.5224 0.742415 42.4206 0.769943C42.0427 0.8714 42.5382 0.909121 41.6899 0.778732C41.8005 0.839857 41.9005 0.899848 42.0075 0.960739C41.9058 0.962838 41.8039 0.964988 41.7022 0.967087C41.5504 0.832476 41.0098 0.849691 41.4993 0.714156C40.9107 0.675669 40.6727 0.705013 40.5437 0.809738C40.5192 0.82973 40.4307 0.837721 40.3268 0.839645C40.3465 0.869093 40.3716 0.960078 40.3552 0.971237C40.2087 1.06937 39.9816 0.899839 40.059 0.835129C39.9863 0.832032 39.9288 0.8284 39.9085 0.826828C39.7797 0.816777 40.0322 0.758264 39.9278 0.738204C39.8934 0.731685 39.5305 0.744416 39.5235 0.720626C39.4797 0.56812 40.0769 0.67815 38.8777 0.589522C38.8488 0.728337 39.4057 0.697814 39.2627 0.84526C39.1092 1.00366 38.796 0.791183 38.7275 0.98552C38.7021 0.953569 38.6908 0.926924 38.6689 0.890549C38.1838 0.975223 38.1773 0.813365 38.0291 0.777633C37.7413 0.707876 36.4182 0.718352 37.6062 0.858566C37.4325 0.872564 37.2551 0.879038 37.0823 0.891403C37.0428 0.60124 37.1481 0.716731 36.3154 0.672408C36.1321 0.662611 36.0724 0.534993 35.8925 0.686568C35.9169 0.537885 35.3746 0.627708 35.324 0.609664C34.9993 0.49232 36.2047 0.32898 36.3593 0.591842C36.5628 0.489498 36.562 0.624789 36.7892 0.606856C37.1174 0.58096 37.1629 0.554612 37.5525 0.654464C37.936 0.513783 36.0514 0.592569 37.1939 0.405928C38.3366 0.219301 44.9906 0.115198 46.5429 0.087201C49.3551 0.0365749 50.8336 0.00348517 53.3598 0.0118833C53.609 0.0125831 55.49 -0.000905681 55.0991 0.161664C55.0429 0.184994 54.2338 0.246822 54.9278 0.374433C54.7867 0.299087 55.1947 0.250162 55.229 0.242231C56.0142 0.0621274 55.5597 0.0180222 56.796 0.0161558ZM60.461 1.46611C58.8474 1.42902 60.0328 1.5377 59.6976 1.78313C59.9047 1.78383 60.111 1.78451 60.3181 1.78521C60.2637 1.76981 60.21 1.75446 60.1556 1.73906C60.1554 1.73906 60.1552 1.73906 60.1549 1.73906C60.2567 1.64809 60.3592 1.55709 60.461 1.46611ZM86.8382 1.63042C86.7752 1.66274 86.713 1.69511 86.6448 1.72673C86.4316 1.7167 86.2193 1.70686 86.0061 1.69683C86.0315 1.6749 86.0561 1.65271 86.0815 1.63079C86.3337 1.63172 86.5851 1.63273 86.8382 1.63042ZM39.8471 1.33171C39.5452 1.2419 39.5725 1.40217 39.1715 1.32915C39.2206 1.44742 39.2752 1.56312 39.3269 1.68022C39.6322 1.66272 39.7015 1.61775 40.0331 1.64666C39.9945 1.60864 39.955 1.5704 39.9172 1.53215C39.862 1.54031 39.8033 1.54959 39.7498 1.55681C39.6648 1.45044 40.1946 1.43457 39.8481 1.33147C39.8478 1.33155 39.8474 1.33163 39.8471 1.33171ZM36.7541 1.37932C36.5918 1.36392 35.9487 1.30604 35.8609 1.35503C35.5635 1.52114 37.3779 1.41572 36.0406 1.5634C36.0467 1.58671 36.0406 1.60954 36.0406 1.63262C36.2845 1.64078 36.5277 1.64781 36.7734 1.65435C36.7603 1.56244 36.769 1.47169 36.7541 1.37932ZM54.625 1.47637C54.3755 1.46357 53.1862 1.5417 53.5739 1.6469C53.6879 1.6777 54.2189 1.52721 54.4207 1.53374C54.5514 1.53795 54.4049 1.62046 54.6629 1.59014C54.6515 1.55377 54.6444 1.51344 54.6243 1.47661C54.6245 1.47653 54.6247 1.47645 54.625 1.47637ZM55.0928 0.996262C54.8348 1.01096 54.5734 1.02958 54.3137 1.04521C54.5032 1.13921 54.8761 1.07883 54.898 1.21111C54.827 1.22114 54.7567 1.23111 54.6857 1.24114C54.6313 1.21221 54.5777 1.18327 54.5242 1.15434C54.3014 1.2262 54.4364 1.2619 54.0213 1.24114C54.2723 1.44108 54.3189 1.54839 55.0296 1.34612C54.8954 1.4546 55.0217 1.80807 55.4157 1.55547C55.4894 1.50857 55.1816 1.47724 55.1781 1.46977C55.1307 1.37695 55.3015 1.31771 55.2507 1.23003C55.2279 1.19037 55.0401 1.19097 55.0121 1.13591C54.9991 1.10905 55.1777 1.03242 55.0928 0.996262ZM55.6069 1.46697C55.5271 1.52319 55.8 1.65661 56.0368 1.62957C56.4062 1.58757 55.8237 1.46067 55.6069 1.46697ZM86.8396 1.6303C86.8391 1.63034 86.8387 1.63038 86.8382 1.63042C86.8384 1.6303 86.8387 1.63018 86.8389 1.63005C86.8391 1.63013 86.8394 1.63022 86.8396 1.6303ZM37.5911 1.44438C37.3999 1.49218 37.1168 1.48521 37.1377 1.56121C37.0447 1.54627 36.9507 1.53158 36.8576 1.51665C36.8585 1.5395 36.8603 1.56239 36.8612 1.58501C37.141 1.59924 37.4201 1.61352 37.6999 1.62798C37.6648 1.56686 37.6324 1.5055 37.5911 1.44438ZM34.5421 1.39116C34.1903 1.38347 34.4852 1.48687 34.408 1.53679C34.3308 1.58672 34.0174 1.5461 34.0542 1.61772C34.2613 1.62052 34.4773 1.62334 34.687 1.6259C34.6317 1.54798 34.5931 1.46862 34.5414 1.39116C34.5416 1.39116 34.5418 1.39116 34.5421 1.39116ZM67.0462 1.54753C66.8076 1.52513 66.905 1.44624 66.4338 1.53862C66.4342 1.53862 66.4345 1.53862 66.4349 1.53862C66.8832 1.60324 67.4604 1.66082 67.9552 1.59832C67.6525 1.51508 67.4217 1.58252 67.0462 1.54753ZM40.6816 1.5645C40.7824 1.50199 40.3131 1.44978 40.2096 1.50786C40.0421 1.60188 40.5281 1.65945 40.6816 1.5645ZM76.6851 0.993821C77.0482 0.801363 76.3603 0.585333 75.64 0.678634C75.5777 0.686799 76.0427 0.748006 75.905 0.785568C75.8911 0.789267 75.6358 0.784682 75.5726 0.811447C75.5094 0.838277 75.5758 0.900552 75.4722 0.926682C75.2906 0.972349 74.88 0.887731 74.744 0.947678C74.7261 0.955711 74.9807 1.039 74.9967 1.04216C75.2581 1.09255 75.5101 0.983679 75.5505 0.982956C75.7585 0.979223 75.727 1.06458 75.7797 1.08464C75.8789 1.12237 76.0534 1.08465 76.0657 1.08745C76.3813 1.16231 75.6602 1.14089 75.5628 1.17168C75.3005 1.25473 75.5433 1.33194 74.9142 1.37883C74.8545 1.38325 74.1394 1.37823 75.0406 1.4738C73.2711 1.67302 75.9297 1.58712 76.2184 1.54326C76.3514 1.52293 76.15 1.44157 76.2307 1.40495C76.4149 1.32121 76.729 1.30644 76.7009 1.1884C76.6404 0.940225 76.2278 1.10284 75.9436 1.06108C75.9734 1.00719 75.9848 0.954627 76.0401 0.901901C75.955 0.972825 76.6588 1.00831 76.6851 0.994309C76.6851 0.994146 76.6851 0.993983 76.6851 0.993821ZM72.2056 1.27739C71.8081 1.2025 71.8362 1.35917 71.4721 1.26958C71.151 1.41025 71.7844 1.40081 71.8581 1.40874C72.195 1.4442 72.1873 1.59716 72.532 1.5501C72.4135 1.45959 72.317 1.36813 72.2056 1.27739ZM75.6628 1.34197C75.397 1.42128 75.8727 1.41994 75.892 1.43511C76.102 1.596 74.6776 1.56473 75.6628 1.34197ZM53.0766 1.16118C52.9415 1.15582 53.0272 1.23176 52.9081 1.2542C52.7888 1.27682 52.3809 1.21182 52.3912 1.25908C52.4017 1.30644 53.1491 1.42926 52.3989 1.45586C52.4243 1.48244 52.4157 1.50227 52.428 1.52629C52.6342 1.52699 52.8423 1.52816 53.0485 1.52886C52.9353 1.45234 52.8193 1.37185 52.7105 1.2979C52.8264 1.23701 52.8914 1.31511 52.8976 1.31511C52.8976 1.31503 52.8976 1.31495 52.8976 1.31487C53.1134 1.30874 53.3799 1.17311 53.0766 1.16118ZM63.7101 1.39958C63.7504 1.20944 63.432 1.4218 63.3012 1.44536C63.1705 1.46884 62.9909 1.39845 63.0584 1.48027C63.2698 1.53673 63.7057 1.4208 63.7101 1.39934C63.7101 1.39942 63.7101 1.3995 63.7101 1.39958ZM70.0462 1.27776C69.713 1.32391 69.7659 1.37334 69.3583 1.31694C69.3741 1.3629 69.3899 1.40987 69.4057 1.45513C69.7294 1.45606 69.7067 1.32264 70.0813 1.37627C70.1427 1.38513 70.0112 1.4917 70.2883 1.45745C70.2077 1.40057 70.126 1.33744 70.0462 1.27776ZM68.3949 1.44817C68.7775 1.44115 69.0809 1.06925 68.3763 1.23699C68.2719 1.26206 68.1072 1.45353 68.3949 1.44817ZM56.6054 1.15178C55.9546 1.14106 56.6939 1.20108 56.8633 1.25823C55.3484 1.30394 57.0344 1.24259 57.1855 1.43267C57.3707 1.37854 57.7171 1.25475 57.3322 1.2216C57.1716 1.20784 57.2303 1.26444 57.2206 1.26421C56.9249 1.25021 56.9607 1.15761 56.6054 1.15178ZM72.8963 1.26824C72.8717 1.27104 72.9101 1.33524 72.832 1.34807C72.7539 1.36081 72.5769 1.31587 72.5593 1.35527C72.5419 1.39492 72.8968 1.42566 73.0058 1.39678C73.1146 1.36761 73.1182 1.24351 72.8963 1.26824ZM70.3989 1.11003C70.0738 1.15623 70.6054 1.39275 70.6761 1.39165C71.2974 1.37928 70.3805 1.18492 70.3989 1.11003ZM58.1166 0.750045C57.3322 0.870195 57.906 1.07898 58.3974 1.20403C58.4622 1.17861 58.5288 1.15316 58.5928 1.12798C58.298 1.28242 57.7813 1.43508 58.9308 1.30046C58.3016 1.26412 58.8285 1.22262 58.8325 1.21391C58.9019 0.930219 57.9699 1.06197 58.1173 0.750045C58.1171 0.750045 58.1168 0.750045 58.1166 0.750045ZM73.9537 1.33586C74.2951 1.33492 75.1827 1.28591 74.7686 1.16228C74.4966 1.22013 74.2256 1.27802 73.9537 1.33586ZM45.2742 0.766647C44.9952 0.695956 44.738 0.697161 44.394 0.701827C44.7037 0.804705 44.5002 0.816525 44.3958 0.84172C44.2374 0.879649 44.621 0.876539 44.6221 0.883469C44.6151 0.981214 44.3704 0.996395 44.9274 0.994065C44.7897 1.02811 44.6538 1.06242 44.5161 1.09624C44.9407 1.10068 45.0407 1.16445 45.31 1.24236C45.0485 1.05199 45.3928 1.17118 45.7052 1.07646C45.8611 1.02904 45.4161 0.802801 45.2731 0.766647C45.2735 0.766647 45.2738 0.766647 45.2742 0.766647ZM57.3059 0.711837C57.2252 0.746129 57.1513 0.792519 57.0732 0.831711C56.9881 0.835443 56.9028 0.83872 56.8177 0.842453C56.8072 0.812134 56.7984 0.780419 56.7861 0.751266C56.674 0.742441 56.7177 0.784655 56.6844 0.78862C56.6844 0.788457 56.6844 0.788294 56.6844 0.788131C56.2063 0.844096 56.0106 0.837802 55.6361 0.744064C55.6361 0.83696 55.6361 0.929856 55.6361 1.02275C55.7202 1.01389 55.8053 1.00525 55.8894 0.996628C55.9342 0.946712 55.9791 0.896764 56.0239 0.846847C56.1213 0.874377 56.2177 0.901716 56.3152 0.929245C56.3932 0.911296 56.4869 0.892408 56.5545 0.874924C56.9432 1.13457 56.0598 0.958181 56.0519 1.06596C56.0467 1.13525 56.9363 1.13222 57.0644 1.0844C57.0829 1.0774 56.8906 0.884053 57.216 0.984787C57.2669 1.00065 57.2848 1.41895 57.6358 1.08025C57.6858 1.0322 57.5112 0.772337 57.3059 0.711837ZM54.0757 0.576949C54.5759 0.844538 52.73 0.561585 53.5265 0.781784C53.2993 0.904715 53.3414 0.903116 53.5704 1.01225C53.5905 1.02204 53.4323 1.05581 53.4458 1.06011C53.6599 1.1203 53.9178 1.08838 53.9195 1.1978C53.9774 1.19197 54.0319 1.18678 54.0898 1.18096C53.8486 1.07786 54.2321 1.00857 54.3804 0.921555C54.4479 0.882145 54.2926 0.869987 54.3495 0.835495C54.3705 0.822901 54.5873 0.848043 54.5962 0.811935C54.6146 0.73028 54.4785 0.619929 54.2477 0.559737C54.2477 0.559656 54.2477 0.559574 54.2477 0.559493C54.1898 0.564856 54.1336 0.571354 54.0757 0.576949ZM64.765 0.79924C64.8501 0.947153 65.1913 0.989491 64.5359 1.06181C64.5683 1.09095 64.6017 1.11984 64.6341 1.14897C64.7446 1.14641 64.8517 1.14386 64.964 1.14153C65.301 0.705764 65.9159 1.19753 65.522 0.888474C65.479 0.854878 65.2169 0.892414 65.4757 0.801193C65.4754 0.801112 65.475 0.80103 65.4747 0.800949C65.1132 0.828947 65.0677 0.881353 64.765 0.79924ZM62.3459 0.90239C61.5124 1.21361 63.4978 1.07604 63.1661 0.993454C63.1363 0.985989 62.281 1.05287 62.3459 0.90239ZM69.0347 0.631515C68.661 0.62615 68.6363 0.79407 68.6739 0.854538C68.7117 0.91519 68.9705 0.8539 69.0038 0.863449C69.1126 0.894945 68.8819 0.915748 69.0231 0.958908C69.0699 0.972925 69.7209 1.03279 69.7507 1.02556C69.9163 0.985394 69.6742 0.846839 69.7215 0.830978C69.8759 0.778981 70.0856 0.851058 70.1304 0.777389C70.2269 0.620199 69.836 0.785208 69.77 0.787887C69.5708 0.795353 69.5882 0.706863 69.439 0.689132C69.29 0.671435 69.1926 0.70175 69.061 0.69548C69.0173 0.693386 69.0537 0.632075 69.0347 0.631515ZM67.799 0.98613C68.1893 0.859016 67.239 0.72077 67.1262 0.750534C66.7946 0.838955 67.6121 1.04679 67.799 0.98613ZM55.3279 0.980759C55.6849 0.888611 54.8533 0.814027 54.6155 0.85112C54.6596 0.889412 55.2051 1.01248 55.3279 0.980759ZM58.3342 0.750534C58.006 0.77923 58.4412 0.986833 58.715 0.983567C58.8755 0.847133 58.7244 0.874175 58.5455 0.868576C58.3667 0.862925 58.5902 0.728181 58.3342 0.750534ZM73.0882 0.783249C73.0174 0.781082 71.8763 0.893855 72.532 0.94072C72.582 0.944219 73.3807 0.924363 73.4413 0.903366C73.5631 0.860903 73.2707 0.789313 73.0882 0.783249ZM59.9082 0.548995C59.7345 0.667016 59.5636 0.665431 59.7232 0.804001C59.7235 0.804001 59.7237 0.804001 59.724 0.804001C59.2844 0.846439 59.2649 0.562949 59.1701 0.569014C58.8387 0.59029 59.1527 0.792067 58.9448 0.858322C59.4283 0.796039 59.2896 0.932087 59.6573 0.94072C59.7397 0.942586 60.0698 0.861341 60.1181 0.810714C60.1662 0.760065 59.9977 0.608254 59.9082 0.548995ZM74.7001 0.753829C74.315 0.708609 73.9624 0.899885 74.4966 0.930222C74.7572 0.945153 74.9353 0.781359 74.7001 0.753829ZM36.1986 0.705978C36.2573 0.75613 36.3179 0.806073 36.3811 0.855759C36.239 0.867886 36.0967 0.880264 35.9546 0.892624C36.067 0.87676 36.1794 0.861136 36.2926 0.845505C36.0259 0.828007 35.9039 0.736774 36.1979 0.705978C36.1981 0.705978 36.1983 0.705978 36.1986 0.705978ZM26.7021 0.66777C26.5828 0.619476 26.3477 0.76902 26.3775 0.780685C26.6021 0.867612 26.8678 0.734729 26.7021 0.66777ZM54.8004 0.526534C54.3568 0.505613 54.6619 0.748762 54.9338 0.765426C54.7674 0.718926 55.0522 0.538428 54.8004 0.526534ZM30.0418 0.67961C30.0816 0.700514 30.1218 0.721419 30.1664 0.742355C30.0261 0.713286 30.0017 0.693737 30.0418 0.67961ZM72.9068 0.568526C72.839 0.54987 72.3382 0.534461 72.2705 0.55754C72.1301 0.606066 72.5207 0.740308 72.7506 0.69902C72.776 0.694587 72.9742 0.58719 72.9057 0.568526C72.9061 0.568526 72.9064 0.568526 72.9068 0.568526ZM35.5984 0.612838C35.5992 0.615165 35.5988 0.617385 35.5974 0.61943C35.5979 0.61726 35.5977 0.615016 35.5984 0.612838ZM16.7316 0.365766C16.7343 0.369538 16.7358 0.373282 16.7354 0.376875C16.7344 0.373347 16.7323 0.369635 16.7316 0.365766ZM69.3741 0.362104C69.2074 0.130436 68.8231 0.253657 69.1267 0.368208C69.1437 0.374228 69.3337 0.361649 69.3741 0.362104Z" fill="var(--stroke-0, #FF8700)"/>
</svg>
