<svg preserveAspectRatio="none" width="100%" height="100%" overflow="visible" style="display: block;" viewBox="0 0 43 251" fill="none" xmlns="http://www.w3.org/2000/svg">
<path id="Vector 71" d="M40.9396 248.151C40.7776 246.737 40.6227 244.883 40.5145 243.469C40.481 243.031 40.5567 243.247 40.5356 242.942C40.4932 242.338 40.4096 241.798 40.3696 241.2C40.3566 241.001 40.4667 241.238 40.4511 241.03C40.3675 239.917 40.2258 238.846 40.1129 237.717C39.5512 232.114 38.8433 226.632 38.0669 220.984C37.8136 219.141 37.5508 216.842 37.2307 214.943C37.1931 214.721 37.1403 214.865 37.1279 214.823C36.9349 214.167 37.1156 214.368 37.0682 213.923C36.8841 212.186 36.5945 210.261 36.3051 208.589C36.1808 207.871 36.1472 208.606 36.1175 207.883C36.1154 207.834 36.2203 207.998 36.1988 207.806C36.15 207.372 36.0055 206.541 35.9571 206.195C35.8655 205.533 35.843 205.396 35.7487 204.795C35.6187 203.961 35.4939 202.929 35.3287 202.009C35.2942 201.818 35.2555 202.084 35.1932 201.781C35.131 201.479 35.0065 200.66 34.9802 200.377C34.954 200.096 35.0353 200.204 35.0417 200.153C35.0972 199.729 34.7725 198.778 34.7509 198.671C34.3224 196.469 34.1057 194.546 33.7559 192.421C33.4991 190.864 33.1768 189.113 32.9346 187.631C32.7706 186.628 32.6296 185.692 32.4817 184.741C32.3719 184.032 32.2581 183.315 32.1257 182.548C32.0938 182.362 32.0373 182.595 31.9982 182.369C31.5786 179.942 31.1869 177.569 30.8463 175.19C30.8121 174.951 30.9461 175.244 30.9168 175.004C30.7349 173.53 30.4975 171.172 29.9949 170.375C29.8405 169.391 29.6408 168.142 29.5637 167.265C29.5124 166.691 29.696 167.226 29.5382 166.536C29.5026 166.38 29.46 166.598 29.4125 166.363C29.2127 165.373 29.0485 164.27 28.8345 163.271C28.7918 163.073 28.7314 163.14 28.7091 163.086C28.5258 162.631 28.557 161.81 28.5392 161.634C28.4027 160.303 28.1949 159.317 27.9838 158.087C27.9352 157.804 27.8996 158.155 27.8495 157.883C27.5907 156.472 27.3403 154.985 27.1352 153.561C27.0911 153.252 27.2202 153.521 27.2032 153.373C27.1272 152.718 26.9513 152.6 26.8748 151.969C26.8584 151.835 26.9397 151.898 26.943 151.872C26.9951 151.475 26.7708 151.175 26.7501 151.078C26.4857 149.861 26.5164 149.009 26.2872 147.844C26.2594 147.703 26.2287 148.037 26.1558 147.641C25.6679 144.992 25.1959 142.161 24.8009 139.509C24.739 139.095 24.8557 139.378 24.8591 139.35C24.9097 138.905 24.6938 138.66 24.6638 138.526C24.4318 137.473 24.402 136.481 24.0758 135.797C23.3529 131.287 22.4616 126.898 21.8528 122.421C21.8448 122.364 21.9453 122.451 21.929 122.337C21.7329 120.961 21.6535 121.259 21.3382 120.393C21.2591 120.176 21.3272 119.459 21.3303 119.395C21.3423 119.166 21.5056 119.373 21.5024 119.297C21.4716 118.671 21.0835 118.844 20.9364 118.015C20.9325 117.989 21.0265 118.085 21.0216 118.014C21.0066 117.794 20.9389 117.585 20.927 117.368C20.9004 116.873 21.067 116.665 20.8202 115.942C20.7887 115.852 20.5832 116.032 20.4641 115.298C20.4169 115.006 20.1825 113.709 20.1324 113.341C20.0826 112.975 20.2012 113.212 20.1998 113.185C20.1233 112.185 20.2302 112.55 20.2878 112.032C20.3447 111.512 20.0239 111.71 19.9496 111.516C19.8753 111.321 19.8274 110.583 19.8238 110.399C19.8203 110.216 19.9069 110.43 19.8947 110.269C19.8127 109.204 19.642 109.841 19.5262 109.508C19.2533 108.726 19.3972 108.052 19.2903 107.307C19.2614 107.105 19.2323 107.279 19.195 107.101C19.0481 106.397 19.052 105.956 18.8347 105.161C18.7992 105.031 18.5284 104.402 18.5661 103.959C18.5718 103.897 18.6656 104.054 18.6265 103.752C18.5681 103.301 18.438 102.49 18.3305 102.011C18.2511 101.657 18.219 102.085 18.1715 101.63C18.1504 101.427 18.2779 101.787 18.2332 101.407C18.1889 101.03 18.0155 100.074 17.9482 99.7087C17.881 99.3448 17.8369 99.5584 17.8263 99.53C17.7637 99.3574 17.6003 98.664 17.5893 98.6019C17.0284 95.5155 16.6444 92.5909 16.0636 89.6001C16.0178 89.3638 15.962 89.5366 15.9541 89.5008C15.7738 88.6955 16.1117 89.2955 16.085 88.7149C15.9291 88.8273 15.9001 88.4871 15.7789 87.9172C15.7203 87.6426 15.6812 87.8048 15.6699 87.7809C15.4963 87.389 15.5747 87.08 15.588 87.0017C15.6368 86.7124 15.4687 86.437 15.5007 86.24C15.5322 86.0433 15.7044 86.4524 15.6044 85.9007C15.5156 85.7569 15.4294 86.1953 15.3285 85.7807C14.9512 84.2363 14.551 81.2805 14.336 80.0061C14.1219 78.7366 14.0394 78.3413 13.9297 77.6022C13.7319 76.2697 13.7006 76.7766 13.4986 75.9619C13.2961 75.1441 13.6594 75.4941 13.7007 75.3639C13.7423 75.2359 13.655 75.1198 13.6633 74.9682C13.6717 74.817 13.7706 75.1233 13.7224 74.78C13.6741 74.4367 13.3952 73.5222 13.3079 73.4126C13.1235 73.1824 13.0526 73.6245 12.9427 72.7182C12.9365 72.666 13.0431 72.8197 13.0154 72.6208C12.793 71.0417 12.503 69.4052 12.2718 67.8174C12.2401 67.599 12.3601 67.7778 12.3426 67.6505C12.1607 66.3243 12.1014 66.8195 11.8132 66.132C12.0544 66.2544 12.1133 65.8358 11.9362 64.8425C11.8298 64.2451 11.7555 64.3646 11.6207 63.9897C11.5802 63.8773 11.5678 63.4426 11.5104 63.3737C11.3224 63.1462 11.2345 63.5742 11.1135 62.5356C11.1084 62.49 11.2123 62.6195 11.189 62.4629C11.0389 61.4499 10.8681 61.3562 10.6539 60.268C10.4873 59.4219 10.3065 57.8941 10.1468 56.9209C10.3892 56.8985 10.1697 55.9916 9.93815 55.6487C9.8315 55.0169 9.69955 54.3366 9.61241 53.7215C9.58255 53.5109 9.67638 53.636 9.6791 53.6082C9.72369 53.1837 9.51447 52.9396 9.48382 52.8052C9.15859 51.3473 9.06414 50.1259 8.69216 48.7391C8.67889 48.6899 8.49851 48.6388 8.55181 48.2404C8.55577 48.2145 8.71496 48.6663 8.60152 48.0024C8.48754 47.3355 8.35306 46.0783 8.11113 45.175C8.05271 44.9565 7.81706 44.4194 7.84104 43.9495C7.84451 43.8868 7.9039 43.944 7.91475 43.8525C7.9486 43.5569 7.75344 43.434 7.83646 43.0786C7.91946 42.7232 7.90258 42.0179 7.63721 41.1073C7.62903 41.0783 7.45662 40.8824 7.40613 40.59C7.32584 40.1242 7.23523 39.4623 7.14705 38.9776C7.10481 38.7457 7.04906 38.9091 7.0403 38.8691C6.71311 37.3172 6.58631 36.1917 6.31608 34.5086C6.26655 34.1992 5.9953 33.3381 5.97751 32.7297C5.95753 32.0609 6.48314 32.6577 6.1168 31.1772C5.96934 30.5799 5.31768 29.9071 5.38781 28.7712C4.94067 26.6676 4.72774 24.7058 4.25203 22.606C4.23071 22.5116 4.03312 22.2367 3.99475 22.0127C3.93807 21.6801 3.97222 21.4857 3.93388 21.2477C3.77457 20.2482 3.55428 19.3546 3.39074 18.3964C3.32853 18.0327 3.42072 18.1472 3.34652 17.7135C3.2723 17.2799 3.12901 17.0077 3.06726 16.4129C3.02093 15.9635 3.12751 15.4866 3.04308 14.8938C2.85507 14.9045 2.78596 14.4995 2.60773 13.789C2.57338 13.6524 2.53608 13.8123 2.51653 13.7482C2.43549 13.4877 2.44443 13.2335 2.36303 12.9877C2.34335 12.928 2.28001 12.9364 2.26037 12.8882C2.09103 12.4788 2.1057 11.7509 2.10854 11.6258C2.11861 11.1466 1.99793 10.9451 1.97075 10.5837C1.94366 10.2228 2.08517 10.7442 2.03288 10.3263C1.92437 9.46011 1.71536 8.35906 1.56095 7.48619C1.49895 7.13798 1.45791 7.3906 1.44709 7.3411C1.29586 6.6242 1.25443 5.88364 1.01548 5.515C1.35756 4.93899 0.89548 5.08942 0.796696 4.04654C0.789095 3.96435 0.974779 3.82457 1.06079 4.12985C1.14677 4.43514 1.16786 4.91768 1.2923 5.34012C1.32166 5.44015 1.61845 5.99011 1.64441 6.0677C1.84762 6.67579 1.55838 6.81944 1.54759 6.85563C1.4344 7.26382 1.76961 7.94211 1.81781 8.12788C2.03848 8.97785 2.12751 9.71739 2.30394 10.429C2.41898 10.8946 2.62721 10.9045 2.68775 11.2754C2.88919 12.5084 2.68705 12.9844 3.13817 14.1017C3.2346 14.3411 3.40857 14.0546 3.39741 14.9768C3.39668 15.0347 3.35875 15.7246 3.52704 16.0886C3.54822 16.1343 3.61164 16.1214 3.62839 16.1836C3.73944 16.6014 3.73967 16.8933 3.8472 17.3505C3.95471 17.8078 4.09096 18.3561 4.16428 18.8865C4.20857 19.2062 4.1633 19.6346 4.16162 19.7917C4.15509 20.2348 4.37559 20.6721 4.32226 20.9567C4.26885 21.2438 4.0195 20.7464 4.0807 21.4628C4.25087 21.4591 4.43148 21.4884 4.60545 21.5004C4.87789 23.0452 5.09778 24.5717 5.38341 26.1147C5.41897 26.3059 5.47265 26.0941 5.51307 26.2987C5.68284 27.1598 5.75698 27.9345 5.94435 28.8296C6.08985 29.5231 6.32165 30.2699 6.47649 30.9934C6.36726 31.472 6.62597 32.5396 6.74969 33.3256C6.79315 33.6011 6.73913 33.5911 6.75798 33.7903C6.8302 34.5408 6.93507 34.1641 6.99793 34.3621C7.26691 35.2112 6.90162 35.3539 7.09537 36.376C7.10551 36.4302 7.42671 37.0564 7.45571 37.1453C7.64206 37.7101 7.40272 37.2539 7.45313 37.6192C7.54509 38.2861 7.57968 38.7546 7.77845 39.5194C7.8368 39.743 8.05976 40.2598 8.04221 40.7204C8.03992 40.7807 7.96742 40.7607 7.97193 40.8081C8.05907 41.6656 8.2727 41.6499 8.43063 42.1199C8.58857 42.5901 8.57794 43.361 8.5635 43.5201C8.52697 43.936 8.4627 43.2246 8.44823 43.2049C8.27679 42.9753 8.39631 43.5148 8.46033 43.9315C8.26558 44.0286 8.3823 44.6063 8.52751 44.3633C8.5432 44.3358 8.46594 44.0165 8.46033 43.9315C8.72757 44.2593 8.86814 44.8921 8.80616 45.6289C8.77703 45.9737 8.61812 45.6816 8.83555 46.6735C8.93411 47.1236 9.04408 46.9227 9.15508 47.3181C9.40863 48.2219 9.49122 49.4385 9.68197 50.3794C9.7512 50.7208 9.76861 50.373 9.81858 50.6058C9.95146 51.2237 9.99185 51.7819 10.1337 52.3996C10.1467 52.4556 10.203 52.303 10.2388 52.4966C10.5114 53.9576 10.6928 55.2649 10.9673 56.8C11.1003 57.5432 11.3833 58.8609 11.5121 59.629C11.7365 60.9644 11.9149 62.6351 12.1479 63.7671C12.2996 64.5063 12.3514 64.3287 12.4638 64.6367C12.6812 65.231 12.6838 66.3489 12.6802 66.4998C12.68 66.5045 12.5466 65.8711 12.5659 66.2184C12.5146 66.4315 12.6785 66.4927 12.6802 66.4998C12.6783 66.5992 12.8902 67.8857 12.9513 68.1367C12.9846 68.2734 13.0476 68.1823 13.0635 68.2538C13.4399 69.9551 13.7648 71.6533 14.0397 73.3921C14.0436 73.4231 13.9494 73.3923 13.9597 73.4648C14.1022 74.4791 14.3228 75.1037 14.5336 75.9202C14.7444 76.7363 14.8409 77.3946 14.7807 77.9091C14.911 78.5285 15.0049 79.4284 15.0587 79.9567C15.1118 80.4813 15.2921 80.5233 15.3035 80.5682C15.6636 81.9676 15.7142 82.8024 15.9612 84.2675C16.0777 84.961 16.3501 86.3427 16.5043 87.0985C16.6261 87.6945 16.6513 88.0616 16.7748 88.6072C16.7915 88.681 16.8526 88.5925 16.8595 88.6147C17.0584 89.2123 16.8235 88.95 16.8136 89.0825C16.7773 89.5626 16.7651 89.8574 16.9607 90.6305C17.0058 90.8088 17.3621 91.2874 17.4361 91.613C17.5324 92.039 17.4096 91.8948 17.5131 92.3427C17.5219 92.3811 17.5785 92.3627 17.6258 92.6422C17.8462 93.9394 18.0636 95.3513 18.3076 96.6839C18.3407 96.8659 18.391 96.616 18.4403 96.8787C18.6698 98.1006 18.9137 99.4871 19.0855 100.699C19.1277 100.999 19.03 100.824 19.0224 100.892C18.9773 101.309 19.2456 101.84 19.2653 101.932C19.737 104.109 19.8923 105.862 20.3642 108.093C20.3903 108.215 20.7381 109.123 20.6578 109.569C20.6524 109.598 20.5686 110.044 20.743 110.397C20.7538 110.419 20.7887 110.143 20.8617 110.601C20.9346 111.059 21.1194 111.782 21.1408 112.422C21.1477 112.625 21.0729 113.12 21.3031 113.685C21.3187 113.721 21.7641 114.576 21.625 114.933C21.602 114.991 21.3846 114.974 21.615 115.652C21.6597 115.784 21.6623 115.53 21.7546 115.882C21.8963 116.42 21.9689 117.152 22.1799 117.804C22.217 117.917 22.4459 118.388 22.4092 118.803C22.4034 118.868 22.3132 118.762 22.3425 118.973C22.4825 119.979 22.7097 120.99 22.8435 122.025C22.8906 122.388 22.7458 122.224 22.7823 122.605C22.8189 122.986 22.9237 123.746 23.0441 124.128C23.1646 124.51 23.2677 124.052 23.3856 124.634C23.8935 127.142 24.2432 129.732 24.671 132.247C24.7348 132.622 24.7432 132.296 24.8435 132.857C25.2149 134.935 25.8903 138.42 26.0712 140.248C26.2127 141.692 25.8149 139.914 25.9617 141.01C26.0328 141.538 26.3397 142.067 26.3683 142.191C26.6485 143.398 26.7126 144.304 26.9359 145.413C26.9822 145.642 27.0268 145.401 27.0652 145.597C27.1972 146.265 27.2823 146.972 27.4001 147.605C27.4531 147.889 27.5083 147.826 27.549 148.088C27.6474 148.716 27.7208 149.296 27.7683 149.923C27.7726 149.981 27.6261 149.614 27.7052 150.084C27.8334 150.846 27.9376 151.794 28.1494 152.646C28.2125 152.899 28.3611 152.882 28.3555 153.451C28.3548 153.572 28.1522 153.453 28.4187 154.081C28.4633 154.187 28.8597 155.247 28.8196 155.802C28.8092 155.949 28.7271 156.333 28.8035 156.639C28.8145 156.68 28.8643 156.498 28.9165 156.753C29.0988 157.65 29.2538 158.593 29.4427 159.536C29.4929 159.785 29.5099 159.398 29.5821 159.77C29.7808 160.794 29.9793 162.065 30.1235 163.052C30.1784 163.428 30.0661 163.181 30.0634 163.209C30.019 163.667 30.2251 163.896 30.2595 164.039C30.4707 164.926 30.5113 165.616 30.6715 166.426C30.7155 166.649 30.7652 166.477 30.7798 166.52C30.9266 166.971 30.7288 166.651 30.7638 166.946C30.8588 167.756 31.0299 168.715 31.1827 169.547C31.2393 169.855 31.2694 169.493 31.3191 169.769C31.6128 171.389 31.8962 173.099 32.1187 174.702C32.1601 175.003 32.0592 174.826 32.0541 174.891C32.0171 175.34 32.2734 175.938 32.312 176.078C32.4876 176.716 32.474 177.005 32.5847 177.589C32.9914 179.727 33.4122 182.296 33.7656 184.526C33.8861 185.284 33.9992 186.004 34.1033 186.666C34.6533 190.164 35.0422 192.93 35.6022 196.26C35.6383 196.475 35.6947 196.243 35.727 196.428C36.1345 198.793 36.4706 201.108 36.8796 203.51C36.9126 203.704 36.9551 203.41 37.0108 203.721C37.1256 204.358 37.2468 205.155 37.324 205.826C37.3609 206.147 37.2187 205.731 37.2574 206.054C37.3481 206.813 37.46 207.568 37.5964 208.352C37.6538 208.68 37.6656 208.17 37.7332 208.597C38.1851 211.443 38.6367 214.299 38.9518 217.218C38.9732 217.418 38.8178 217.619 38.9138 218.029C38.9687 218.053 39.0276 218.042 39.0834 218.048C39.733 222.254 40.2547 226.405 40.7926 230.615C40.8156 230.794 40.8716 230.471 40.9164 230.819C41.1727 232.807 41.4397 234.735 41.5843 236.789C41.5989 236.994 41.4176 236.913 41.5127 237.506C41.5296 237.609 41.6553 238.503 41.7186 238.735C41.7277 238.765 41.7884 238.593 41.8235 238.882C42.0258 240.563 42.1966 242.33 42.3194 244.016C42.339 244.288 42.2252 244.008 42.2384 244.201C42.3331 245.577 42.5427 247.061 42.5916 248.377C42.624 249.26 42.4466 248.948 42.3473 249.428C42.3333 249.496 42.3819 250.039 42.3009 250.075C42.0973 250.167 41.8419 249.926 41.6279 250.055C41.5817 250.082 41.703 250.804 41.5453 250.385C41.5346 250.356 41.4457 249.833 41.3937 249.707C41.3577 249.619 41.2881 249.79 41.2355 249.609C41.1828 249.427 41.2349 249.219 41.1645 248.917C41.0936 248.616 41.0097 248.759 40.9396 248.151ZM15.2983 82.3141C15.3034 82.8056 15.6104 82.8233 15.4476 82.3199C15.4393 82.2956 15.2979 82.2888 15.2983 82.3141ZM4.87404 24.6023C4.85653 25.2488 5.12422 25.6405 5.1453 25.183C5.16628 24.7256 4.87917 24.4053 4.87404 24.6023ZM3.61358 18.1525C3.64249 18.8992 4.08055 18.9385 3.85558 18.1738C3.84263 18.1293 3.61185 18.1088 3.61358 18.1525ZM42.0989 247.272C42.0956 247.28 42.1296 247.671 42.1343 247.679C42.249 247.878 42.1811 247.096 42.0989 247.272ZM2.35341 11.7539C2.33795 11.9914 2.52112 12.6341 2.54041 12.339C2.55591 12.1015 2.3726 11.4581 2.35341 11.7539ZM19.4305 107.261C19.4275 107.269 19.4727 107.546 19.4965 107.536C19.5731 107.503 19.4821 107.123 19.4305 107.261ZM0.381933 0.848131C0.656989 2.4634 0.488359 3.50247 0.210749 1.74022C0.160461 1.42104 0.444248 2.40553 0.402368 1.9953C0.325491 1.24472 0.0203362 0.79204 2.38732e-05 0.0151727C-0.00342053 -0.125504 0.367018 0.755899 0.382929 0.850902C0.382604 0.850013 0.382263 0.849043 0.381933 0.848131ZM14.9939 82.6522C14.9918 82.6625 15.0566 83.0458 15.0621 83.0542C15.1927 83.2447 15.0621 82.4725 14.9939 82.6522ZM22.1158 123.437C22.1113 123.46 22.2612 124.351 22.2739 124.379C22.509 124.816 22.2065 123.013 22.1158 123.437ZM10.1504 56.9045C9.9813 56.5037 9.88029 56.0054 9.93837 55.6507C10.0069 56.0676 10.0812 56.4861 10.1504 56.9045Z" fill="var(--stroke-0, white)"/>
</svg>
