<svg preserveAspectRatio="none" width="100%" height="100%" overflow="visible" style="display: block;" viewBox="0 0 471 75" fill="none" xmlns="http://www.w3.org/2000/svg">
<path id="Vector 59" d="M88.9806 73.8965C105.5 72.6259 145.779 70.7005 239.341 57.3385C301.675 48.4364 391.994 22.3739 435.304 10.9084C478.615 -0.557064 471.626 0.0783233 461.354 2.31175C451.083 4.54517 437.74 8.35738 387.661 17.9457C337.583 27.534 251.173 42.7828 198.399 50.9559C145.625 59.1291 129.105 59.7645 166.977 52.1497C204.849 44.5349 297.612 28.6507 342.223 20.4679C386.834 12.2851 380.48 12.2851 327.013 18.9565C273.545 25.6278 173.157 38.9706 108.099 48.7033C43.0416 58.436 16.3562 64.1543 5.46826 66.147C-5.41964 68.1398 0.298671 66.2337 60.1099 55.0858C119.921 43.938 233.652 23.6063 352.755 10.3597" stroke="var(--stroke-0, #2A2C38)" stroke-width="2" stroke-linecap="round"/>
</svg>
