<svg preserveAspectRatio="none" width="100%" height="100%" overflow="visible" style="display: block;" viewBox="0 0 70 1" fill="none" xmlns="http://www.w3.org/2000/svg">
<path id="Line 21" d="M0.666754 0.0050849C1.05901 -0.00794148 1.5732 0.00598686 1.96398 0.0251044C2.08645 0.0310336 2.02444 0.0575377 2.10898 0.062824C2.27433 0.0731291 2.42837 0.0601305 2.59177 0.0724065C2.64592 0.0766045 2.57851 0.118587 2.63529 0.122028C2.94645 0.140582 3.24081 0.129888 3.55601 0.138813C5.1086 0.182843 6.63475 0.198602 8.20633 0.217731C8.72452 0.224002 9.35444 0.262103 9.88968 0.245441C9.95216 0.243458 9.91491 0.206608 9.9268 0.203571C10.1133 0.157075 10.0513 0.231467 10.173 0.241351C10.6562 0.280377 11.1935 0.283771 11.6585 0.269549C11.8563 0.263391 11.658 0.190198 11.8572 0.23128C11.871 0.234056 11.8208 0.273188 11.875 0.277362C11.9981 0.286749 12.2315 0.279755 12.3269 0.282855C12.5106 0.289028 12.541 0.288635 12.7149 0.289081C12.9525 0.290031 13.2351 0.309483 13.49 0.300616C13.5445 0.298607 13.4724 0.258493 13.5592 0.251666C13.6461 0.244851 13.8759 0.248252 13.9533 0.257709C14.0308 0.26717 13.9978 0.298699 14.0115 0.305926C14.1244 0.366925 14.3902 0.282442 14.4244 0.280353C15.048 0.244753 15.5827 0.29288 16.1681 0.292743C16.6125 0.292536 17.0876 0.276648 17.5104 0.278827C18.0142 0.281578 18.4411 0.303315 18.9305 0.299579C18.9821 0.29923 18.9216 0.252065 18.9847 0.251544C19.6549 0.246056 20.3204 0.251197 20.9877 0.283038C21.0546 0.286273 20.9684 0.327684 21.0352 0.333392C21.4446 0.367424 22.0923 0.449179 22.3354 0.268878C22.6127 0.275918 22.9493 0.283193 23.1974 0.319537C23.3573 0.342929 23.202 0.388042 23.3984 0.368792C23.4427 0.364503 23.3851 0.324995 23.4516 0.321551C23.7314 0.307088 24.037 0.31993 24.3138 0.299518C24.3701 0.295273 24.3547 0.259872 24.3707 0.253497C24.5047 0.201871 24.7279 0.287213 24.7766 0.293414C25.147 0.339658 25.4176 0.32146 25.7627 0.322589C25.8428 0.322871 25.7481 0.27532 25.8252 0.273883C26.2249 0.267068 26.6389 0.271155 27.0303 0.292254C27.1174 0.297062 27.0373 0.337567 27.0789 0.341937C27.2623 0.360712 27.303 0.284209 27.4789 0.300738C27.516 0.304125 27.4951 0.3388 27.5019 0.342608C27.6077 0.402389 27.6997 0.317684 27.727 0.315814C28.0715 0.290261 28.2917 0.378689 28.6245 0.366168C28.6643 0.36458 28.5745 0.320706 28.6864 0.318927C29.432 0.306815 30.2205 0.318867 30.9586 0.353961C31.0733 0.359358 30.9914 0.392317 30.9986 0.39638C31.1163 0.459864 31.1924 0.374803 31.2299 0.3716C31.525 0.348541 31.8008 0.419874 32.0013 0.31856C33.2514 0.35372 34.4957 0.296827 35.7355 0.387591C35.7512 0.388642 35.723 0.430535 35.7544 0.432452C36.1331 0.455974 36.0603 0.390865 36.3109 0.311236C36.374 0.291241 36.566 0.38738 36.583 0.394427C36.6449 0.420396 36.5807 0.48272 36.6014 0.487749C36.7729 0.527241 36.745 0.321129 36.9763 0.321063C36.9836 0.321407 36.9532 0.359344 36.9726 0.363116C37.0329 0.374958 37.0928 0.359883 37.1518 0.372943C37.2869 0.403161 37.335 0.503313 37.5414 0.445025C37.5675 0.43746 37.5276 0.320545 37.7342 0.326068C37.8165 0.328369 38.181 0.326365 38.2832 0.333941C38.3852 0.341509 38.3152 0.379185 38.3224 0.380816C38.5974 0.430636 38.4931 0.451284 38.6309 0.525042C38.7686 0.598522 38.7304 0.423265 38.7865 0.403704C38.8428 0.384199 39.0443 0.425303 39.0939 0.439593C39.1434 0.453888 39.0816 0.477829 39.1257 0.485918C39.4176 0.538773 39.2538 0.398928 39.35 0.371112C39.5767 0.305249 39.7533 0.435219 39.9609 0.447955C40.0171 0.451394 39.9713 0.421792 40.0213 0.419024C40.2194 0.408452 40.3385 0.449006 40.5639 0.411822C40.6007 0.405762 40.7829 0.327621 40.9009 0.384967C40.9176 0.393236 40.8701 0.425624 40.9545 0.432879C41.0807 0.443767 41.3079 0.450846 41.4435 0.44002C41.5436 0.43201 41.4288 0.378642 41.5548 0.39522C41.6108 0.402623 41.507 0.433844 41.6122 0.445147C41.7169 0.456447 41.9844 0.455075 42.0862 0.453997C42.1878 0.452895 42.1322 0.412413 42.1404 0.409686C42.1901 0.394063 42.3851 0.374542 42.4024 0.374591C43.2717 0.369649 44.0733 0.437886 44.9197 0.415301C44.9861 0.413587 44.9418 0.370898 44.952 0.370196C45.1794 0.35231 45.0001 0.465811 45.1589 0.503802C45.136 0.417173 45.2297 0.432858 45.3899 0.423358C45.4671 0.418709 45.425 0.385165 45.4321 0.381732C45.5465 0.330783 45.6263 0.39659 45.6468 0.410052C45.7226 0.459572 45.8051 0.401061 45.8567 0.434161C45.9082 0.467013 45.7896 0.515717 45.9432 0.515093C45.9863 0.484083 45.8722 0.403044 45.9888 0.38991C46.4289 0.340231 47.2503 0.403813 47.6041 0.410418C47.9572 0.417017 48.0713 0.411296 48.277 0.422503C48.6487 0.442767 48.5125 0.382641 48.7433 0.35512C48.9747 0.327603 48.8622 0.475539 48.8955 0.507342C48.9281 0.53913 48.9638 0.506407 49.0044 0.523882C49.0449 0.541353 48.9572 0.562976 49.0525 0.569536C49.1478 0.57609 49.4083 0.519537 49.4421 0.486285C49.5135 0.415836 49.3961 0.341897 49.6482 0.367877C49.6627 0.369419 49.6156 0.408318 49.6712 0.412249C50.1122 0.442195 50.5704 0.444052 51.0109 0.470538C51.0714 0.47424 51.0173 0.517514 51.0525 0.520159C51.4197 0.547838 51.2884 0.474872 51.4897 0.393817C51.4445 0.501684 51.5557 0.567679 51.8344 0.568316C52.0019 0.568736 51.973 0.521625 52.0814 0.488421C52.1139 0.478411 52.2324 0.51076 52.2539 0.488604C52.3247 0.41618 52.2131 0.335106 52.5004 0.367388C52.513 0.368923 52.4728 0.408567 52.5164 0.410967C52.7979 0.426682 52.8316 0.350928 53.1359 0.341754C53.3744 0.334555 53.7986 0.380749 54.0702 0.388262C54.0645 0.509537 54.321 0.481767 54.4251 0.39815C54.6014 0.401573 54.7917 0.396846 54.9621 0.408404C55.0207 0.412344 54.9822 0.447457 54.9896 0.45125C55.103 0.510765 55.1796 0.429415 55.2176 0.426226C55.63 0.395224 55.9659 0.456881 56.3595 0.396624C56.3734 0.394454 56.3961 0.310213 56.5013 0.371722C56.5081 0.375962 56.3781 0.41429 56.5632 0.417254C56.7484 0.420225 57.0974 0.465384 57.3544 0.426348C57.4166 0.416951 57.574 0.348564 57.7002 0.401995C57.717 0.409251 57.6986 0.433411 57.7229 0.446856C57.8014 0.489695 57.8443 0.404549 57.9365 0.476885C58.0288 0.549219 58.2207 0.603391 58.4799 0.553484C58.4882 0.552033 58.5496 0.484546 58.6311 0.485613C58.7612 0.487375 58.946 0.501434 59.0818 0.500994C59.1469 0.500759 59.1052 0.458853 59.1165 0.458086C59.554 0.434604 59.8653 0.471963 60.3339 0.488177C60.4198 0.491232 60.6667 0.434086 60.833 0.479266C61.0156 0.528723 60.828 0.734456 61.2477 0.685442C61.417 0.665837 61.6313 0.404826 61.9356 0.540056C62.5256 0.506547 63.0713 0.575757 63.663 0.52791C63.6896 0.525791 63.7737 0.452945 63.8363 0.453936C63.9292 0.455549 63.9801 0.489596 64.0464 0.491839C64.3243 0.502094 64.5786 0.472965 64.8465 0.477496C64.9482 0.479142 64.9126 0.514346 65.0339 0.516314C65.1552 0.518249 65.236 0.471891 65.4003 0.49428C65.5243 0.511346 65.6484 0.606099 65.8131 0.617144C65.8194 0.52368 65.9325 0.525605 66.1335 0.500933C66.1722 0.496146 66.1307 0.463616 66.149 0.459673C66.2234 0.442907 66.2923 0.469868 66.3629 0.451617C66.3801 0.447233 66.3809 0.415315 66.395 0.40993C66.5144 0.362924 66.7112 0.434721 66.745 0.447222C66.8746 0.494698 66.9351 0.453185 67.0345 0.47188C67.1337 0.490574 66.9854 0.513942 67.1013 0.525286C67.3415 0.548749 67.6501 0.543594 67.8941 0.545061C67.9914 0.545449 67.925 0.502843 67.9389 0.50191C68.1402 0.491103 68.3438 0.536424 68.4554 0.451556C68.5949 0.670994 68.5767 0.430271 68.8644 0.4742C68.8871 0.477753 68.9159 0.581523 68.8289 0.596758C68.7419 0.611978 68.61 0.579541 68.4893 0.603289C68.4607 0.608862 68.2969 0.706101 68.2746 0.711992C68.0996 0.758027 68.0748 0.602956 68.0655 0.594439C67.9605 0.502523 67.7604 0.60728 67.7077 0.614519C67.4666 0.647687 67.2618 0.625878 67.0601 0.649553C66.9282 0.664854 66.9154 0.766432 66.8118 0.763322C66.4675 0.753046 66.3474 0.611344 66.023 0.734209C65.9534 0.760413 66.0225 0.871434 65.7733 0.784135C65.7577 0.778632 65.5726 0.698769 65.4657 0.749284C65.4523 0.755653 65.4527 0.788009 65.435 0.790727C65.3163 0.808308 65.2372 0.782532 65.1079 0.794877C64.9786 0.807223 64.8232 0.825627 64.6756 0.814653C64.5866 0.80809 64.4725 0.747808 64.4299 0.733049C64.3097 0.690533 64.1808 0.760241 64.1063 0.708757C64.0311 0.657014 64.178 0.578433 63.981 0.545C63.9737 0.629062 63.957 0.715343 63.9452 0.799882C63.5136 0.796922 63.0889 0.76974 62.6558 0.773454C62.602 0.773999 62.657 0.819191 62.5994 0.820939C62.3565 0.828119 62.1444 0.795903 61.8926 0.808732C61.6976 0.818836 61.4839 0.866685 61.28 0.878739C61.1555 0.782549 60.853 0.815203 60.6333 0.806413C60.5563 0.803376 60.5614 0.777685 60.5067 0.769304C60.3002 0.738306 60.397 0.823309 60.3403 0.836686C60.0974 0.893778 60.0766 0.701379 59.7903 0.706132C59.7751 0.706319 59.5896 0.808876 59.5641 0.815263C59.4018 0.856909 59.5372 0.779567 59.4356 0.771989C59.2502 0.758142 59.1213 0.733649 58.9037 0.763688C58.8403 0.772586 58.6881 0.836509 58.5649 0.787065C58.5486 0.78059 58.5576 0.746692 58.5446 0.744707C58.3084 0.711615 58.3022 0.818129 58.1673 0.854203C58.0323 0.890269 57.8238 0.816741 57.7814 0.795549C57.6704 0.740727 57.8664 0.77212 57.8725 0.76674C57.9431 0.702717 57.791 0.71374 57.6749 0.70833C57.658 0.603891 57.4956 0.61016 57.5544 0.703142C57.5611 0.713298 57.6515 0.703558 57.6749 0.70833C57.5729 0.810799 57.3943 0.823922 57.1971 0.728166C57.1048 0.683287 57.1921 0.63096 56.9117 0.650102C56.7844 0.658744 56.8336 0.730655 56.7213 0.750261C56.4647 0.794993 56.1313 0.727912 55.8668 0.738481C55.7708 0.742318 55.8643 0.781682 55.7987 0.785661C55.6246 0.796343 55.471 0.766808 55.2962 0.781938C55.2803 0.783359 55.319 0.824565 55.2646 0.82509C54.8524 0.829875 54.4934 0.803482 54.063 0.802751C53.855 0.802416 53.4832 0.825142 53.2678 0.820573C52.8944 0.812897 52.4351 0.752977 52.1161 0.767534C51.9081 0.776851 51.9537 0.818066 51.8646 0.846147C51.6925 0.900579 51.3881 0.803078 51.3471 0.78798C51.3458 0.787481 51.5248 0.777765 51.4293 0.756608C51.3738 0.712525 51.3491 0.787789 51.3471 0.78798C51.3201 0.778227 50.9625 0.768871 50.8915 0.77675C50.8529 0.781055 50.8745 0.820104 50.8544 0.821611C50.3762 0.856555 49.8972 0.86648 49.4122 0.848222C49.4036 0.847433 49.4165 0.803755 49.3964 0.802446C49.1156 0.783025 48.9358 0.836457 48.7043 0.86818C48.4727 0.899889 48.2891 0.889269 48.152 0.814286C47.9773 0.823727 47.7267 0.790578 47.5825 0.770463C47.4383 0.750349 47.4181 0.835372 47.4054 0.837052C47.0096 0.89085 46.7808 0.842185 46.3702 0.834611C46.1749 0.830865 45.7877 0.843197 45.5763 0.852494C45.4092 0.859984 45.3086 0.840059 45.1546 0.8528C45.1338 0.854501 45.1549 0.892357 45.1485 0.893815C44.9767 0.939108 45.0593 0.846562 45.0238 0.830033C44.8952 0.769927 44.8158 0.737915 44.5958 0.766191C44.545 0.772666 44.3972 0.90592 44.3047 0.913712C44.1844 0.9236 44.2298 0.875837 44.1039 0.887406C44.0931 0.888353 44.0954 0.917819 44.0176 0.91652C43.6569 0.910877 43.2635 0.893731 42.8886 0.896684C42.8374 0.896974 42.9031 0.943712 42.8291 0.944901C42.4819 0.950441 42.1013 0.948712 41.7631 0.926835C41.6798 0.921303 41.7321 0.888578 41.714 0.878861C41.603 0.820069 41.4457 0.905493 41.4197 0.907121C40.8004 0.948171 40.3264 0.870864 39.6952 0.90767C39.6609 0.909831 39.3964 1.00141 39.2784 0.922868C39.2703 0.917642 39.1536 0.837289 39.0504 0.892228C39.0439 0.895665 39.1167 0.937033 38.9897 0.932816C38.8628 0.928609 38.6585 0.956234 38.484 0.910783C38.4287 0.896465 38.2982 0.816309 38.1334 0.880204C38.1226 0.884665 37.8682 1.02914 37.7774 0.929459C37.7627 0.913051 37.7781 0.807566 37.5814 0.86165C37.5439 0.872135 37.6121 0.895663 37.5131 0.910355C37.3614 0.932999 37.1604 0.904747 36.9739 0.951737C36.9414 0.960056 36.803 1.03165 36.692 0.977311C36.6746 0.9688 36.7076 0.933584 36.649 0.929643C36.3701 0.910738 36.0781 0.934294 35.795 0.909928C35.6947 0.901367 35.746 0.844435 35.6415 0.829179C35.5369 0.813928 35.3263 0.799257 35.2169 0.825273C35.1075 0.8513 35.227 0.942035 35.0631 0.949296C34.3505 0.98083 33.6445 0.927602 32.933 0.919816C32.8274 0.918653 32.9149 0.951121 32.7594 0.951737C32.186 0.954153 31.196 0.984595 30.6985 0.915604C30.2998 0.860347 30.8015 0.818279 30.4969 0.795793C30.3499 0.785066 30.1908 0.890555 30.1553 0.893876C29.8087 0.927611 29.5677 0.880882 29.2557 0.895219C29.1913 0.898194 29.2545 0.940949 29.1996 0.943009C29.0123 0.950424 28.8155 0.93134 28.6365 0.93483C28.5562 0.936495 28.571 0.96915 28.4971 0.96663C28.3203 0.960975 28.164 0.947249 27.9916 0.916642C27.9759 0.913853 28.0818 0.873231 27.951 0.87172C27.7393 0.869391 27.4765 0.839197 27.233 0.870378C27.1607 0.879757 27.1579 0.95439 27.0025 0.902848C26.9699 0.892083 27.0115 0.802466 26.8306 0.879899C26.8001 0.892767 26.4961 0.99721 26.347 0.929887C26.3076 0.912168 26.2072 0.838833 26.1203 0.850358C26.1085 0.852197 26.1557 0.892285 26.0837 0.896195C25.8299 0.909279 25.5639 0.905002 25.3031 0.917558C25.2335 0.92099 25.3372 0.962473 25.2335 0.966263C24.9481 0.976749 24.5918 0.966186 24.3127 0.953202C24.2098 0.948336 24.281 0.913973 24.2735 0.910233C24.1531 0.849408 24.0819 0.931508 24.042 0.936295C23.7935 0.96496 23.6043 0.926395 23.3752 0.936601C23.312 0.939313 23.3568 0.978459 23.3442 0.981949C23.2137 1.01605 23.3109 0.945754 23.2283 0.938004C22.9969 0.916062 22.739 0.919208 22.5049 0.92421C22.419 0.926105 22.5156 0.971496 22.4385 0.972672C21.9819 0.980494 21.5072 0.97615 21.0617 0.951127C20.9778 0.946333 21.0305 0.911381 21.0131 0.903397C20.8925 0.847545 20.7159 0.923728 20.6753 0.930985C20.4905 0.964121 20.4187 0.933212 20.2555 0.938981C19.4583 0.967705 18.4739 0.947234 17.7214 0.934586C16.7408 0.918309 15.9798 0.885059 15.0447 0.893693C14.9852 0.894198 15.0452 0.940695 14.9939 0.941727C14.3325 0.952936 13.6813 0.934767 13.0185 0.948197C12.9641 0.949217 13.0425 0.993296 12.9552 0.996415C12.7761 1.00312 12.5493 1.00072 12.3682 0.986649C12.2799 0.979868 12.3984 0.942043 12.3095 0.93599C12.1025 0.921809 11.8807 0.91867 11.6681 0.925736C11.5776 0.92884 11.7141 0.973922 11.5965 0.974442C10.7955 0.978915 10.0089 0.986679 9.19941 0.9283C9.14392 0.92429 9.09523 0.832665 8.97724 0.850236C8.96835 0.875664 8.96884 0.905576 8.96496 0.932755C7.7989 0.947396 6.64475 0.915633 5.47542 0.910722C5.42612 0.910525 5.51132 0.959073 5.41587 0.958939C4.86343 0.958222 4.32698 0.971671 3.76189 0.923417C3.70582 0.918698 3.73459 0.833291 3.56936 0.846208C3.54022 0.848565 3.29137 0.859955 3.22703 0.878495C3.21829 0.881292 3.26369 0.921156 3.18351 0.922318C2.71751 0.928372 2.22917 0.919271 1.76398 0.894914C1.6889 0.890906 1.76885 0.848454 1.71538 0.845231C1.33606 0.822696 0.923468 0.854967 0.56101 0.816423C0.318394 0.79047 0.408217 0.717087 0.279294 0.644853C0.261059 0.634662 0.110824 0.633047 0.103055 0.591021C0.0831091 0.48534 0.155878 0.369621 0.126019 0.256976C0.119711 0.232713 -0.081493 0.258846 0.0376326 0.200214C0.0459548 0.19629 0.191829 0.17683 0.227758 0.15694C0.252772 0.143188 0.207695 0.100447 0.258733 0.0828434C0.309767 0.0652564 0.365846 0.101084 0.45046 0.080402C0.535036 0.0594636 0.497847 0.0108407 0.666754 0.0050849ZM46.9331 0.680559C46.7995 0.639728 46.7798 0.789275 46.9243 0.753496C46.9312 0.751589 46.9399 0.682562 46.9331 0.680559ZM63.0913 0.656938C62.9167 0.590977 62.7972 0.687966 62.9204 0.738908C63.0435 0.789796 63.1445 0.676934 63.0913 0.656938ZM64.9017 0.608782C64.6977 0.556775 64.6656 0.768839 64.8841 0.725969C64.8968 0.723546 64.9137 0.611802 64.9017 0.608782ZM0.877173 0.624285C0.875329 0.622299 0.767334 0.620363 0.764753 0.622331C0.707248 0.669827 0.923194 0.673665 0.877173 0.624285ZM66.6983 0.556353C66.6346 0.527666 66.4512 0.560781 66.5303 0.596453C66.5941 0.625149 66.7776 0.592037 66.6983 0.556353ZM39.9665 0.520952C39.9644 0.518724 39.887 0.516717 39.8886 0.529314C39.8938 0.569886 40.0016 0.558436 39.9665 0.520952ZM69.7518 0.553911C69.3006 0.545929 69.0271 0.370754 69.5184 0.390521C69.6074 0.394097 69.3267 0.446383 69.4399 0.462176C69.6471 0.490948 69.7847 0.38096 69.9961 0.439898C70.0344 0.450686 69.7775 0.554756 69.751 0.554155C69.7513 0.554074 69.7515 0.553993 69.7518 0.553911ZM46.8562 0.500933C46.8535 0.498955 46.7463 0.49708 46.7437 0.499041C46.6857 0.546518 46.9016 0.550323 46.8562 0.500933ZM35.4487 0.428484C35.4428 0.424271 35.194 0.420329 35.1859 0.424212C35.0562 0.50185 35.559 0.510048 35.4487 0.428484ZM54.0745 0.391497C54.1915 0.343735 54.3313 0.338112 54.4246 0.398089C54.3083 0.394905 54.1914 0.394436 54.0745 0.391497Z" fill="var(--stroke-0, white)"/>
</svg>
