<svg preserveAspectRatio="none" width="100%" height="100%" overflow="visible" style="display: block;" viewBox="0 0 326 2" fill="none" xmlns="http://www.w3.org/2000/svg">
<path id="Line 57" d="M3.09908 0.0101698C4.92231 -0.015883 7.31227 0.0119737 9.1286 0.0502087C9.69784 0.0620673 9.4096 0.115075 9.80255 0.125648C10.5711 0.146258 11.2871 0.120261 12.0466 0.144813C12.2983 0.153209 11.9849 0.237174 12.2489 0.244056C13.6951 0.281163 15.0633 0.259777 16.5284 0.277625C23.7448 0.365685 30.8384 0.397205 38.1431 0.435461C40.5516 0.448004 43.4795 0.524206 45.9673 0.490881C46.2577 0.486916 46.0846 0.413216 46.1398 0.407141C47.0065 0.31415 46.7183 0.462935 47.2842 0.482702C49.53 0.560754 52.0274 0.567542 54.1887 0.539099C55.1082 0.526782 54.1863 0.380395 55.1121 0.462561C55.1764 0.468112 54.9431 0.546377 55.1953 0.554724C55.7671 0.573498 56.8521 0.559509 57.2953 0.56571C58.1495 0.578057 58.2908 0.577269 59.0987 0.578161C60.2032 0.580061 61.5168 0.618966 62.7018 0.601232C62.9547 0.597215 62.6199 0.516985 63.0232 0.503332C63.427 0.489702 64.4951 0.496505 64.8552 0.515417C65.2154 0.534339 65.062 0.597399 65.1258 0.611852C65.6501 0.733849 66.8857 0.564884 67.0446 0.560705C69.943 0.489506 72.4286 0.58576 75.1493 0.585485C77.2148 0.585073 79.4233 0.553296 81.3886 0.557653C83.73 0.563155 85.7145 0.606631 87.9891 0.599157C88.2291 0.598461 87.9478 0.504129 88.241 0.503088C91.356 0.492111 94.4494 0.502394 97.5509 0.566076C97.862 0.572546 97.4611 0.655368 97.7718 0.666784C99.6745 0.734849 102.685 0.898357 103.815 0.537756C105.104 0.551837 106.668 0.566385 107.821 0.639074C108.565 0.685858 107.843 0.776084 108.756 0.737585C108.962 0.729007 108.694 0.649991 109.003 0.643102C110.303 0.614176 111.724 0.639861 113.011 0.599035C113.272 0.590545 113.201 0.519744 113.275 0.506994C113.898 0.403741 114.936 0.574425 115.162 0.586828C116.884 0.679315 118.141 0.642919 119.745 0.645178C120.118 0.645741 119.677 0.550639 120.036 0.547766C121.893 0.534136 123.818 0.54231 125.637 0.584509C126.042 0.594124 125.67 0.675134 125.863 0.683874C126.715 0.721424 126.904 0.568417 127.722 0.601477C127.895 0.60825 127.797 0.6776 127.829 0.685217C128.321 0.804778 128.749 0.635368 128.875 0.631628C130.476 0.580523 131.5 0.757378 133.047 0.732335C133.232 0.729161 132.814 0.641412 133.335 0.637853C136.8 0.61363 140.465 0.637735 143.896 0.707922C144.429 0.718716 144.048 0.784634 144.082 0.79276C144.629 0.919728 144.983 0.749606 145.157 0.7432C146.529 0.697082 147.81 0.839748 148.742 0.637121C154.553 0.707439 160.336 0.593653 166.099 0.775182C166.172 0.777285 166.041 0.86107 166.187 0.864903C167.947 0.911948 167.609 0.781731 168.773 0.622473C169.067 0.582482 169.959 0.77476 170.038 0.788854C170.326 0.840791 170.027 0.96544 170.124 0.975499C170.921 1.05448 170.791 0.642259 171.866 0.642126C171.9 0.642813 171.759 0.718688 171.849 0.726232C172.129 0.749917 172.407 0.719767 172.682 0.745885C173.31 0.806321 173.533 1.00663 174.493 0.89005C174.614 0.87492 174.429 0.64109 175.389 0.652136C175.771 0.656738 177.466 0.65273 177.94 0.667883C178.415 0.683018 178.089 0.758369 178.123 0.761632C179.401 0.861272 178.916 0.902568 179.556 1.05008C180.197 1.19704 180.019 0.846531 180.28 0.807409C180.541 0.768397 181.478 0.850607 181.709 0.879186C181.939 0.907777 181.652 0.955658 181.856 0.971837C183.213 1.07755 182.452 0.797855 182.899 0.742223C183.953 0.610497 184.774 0.870438 185.739 0.895909C186 0.902788 185.787 0.843585 186.019 0.838048C186.94 0.816904 187.494 0.898013 188.541 0.823644C188.713 0.811525 189.559 0.655241 190.108 0.769933C190.185 0.786471 189.965 0.851248 190.357 0.865758C190.943 0.887534 191.999 0.901692 192.63 0.88004C193.095 0.86402 192.562 0.757283 193.147 0.790441C193.407 0.805246 192.925 0.867688 193.414 0.890294C193.9 0.912893 195.144 0.91015 195.617 0.907994C196.089 0.905791 195.831 0.824826 195.869 0.819371C196.1 0.788126 197.006 0.749085 197.087 0.749181C201.127 0.739297 204.853 0.875772 208.787 0.830602C209.096 0.827174 208.89 0.741795 208.937 0.740392C209.994 0.70462 209.161 0.931622 209.899 1.0076C209.792 0.834345 210.228 0.865716 210.973 0.846715C211.331 0.837418 211.136 0.770331 211.169 0.763463C211.701 0.661566 212.071 0.79318 212.167 0.820104C212.519 0.919144 212.902 0.802121 213.142 0.868321C213.382 0.934027 212.83 1.03143 213.544 1.03019C213.744 0.968165 213.214 0.806089 213.756 0.779821C215.802 0.680461 219.62 0.807627 221.264 0.820836C222.905 0.834035 223.436 0.822592 224.392 0.845006C226.119 0.885533 225.486 0.765283 226.559 0.710241C227.635 0.655205 227.112 0.951079 227.266 1.01468C227.418 1.07826 227.584 1.01281 227.773 1.04776C227.961 1.08271 227.554 1.12595 227.996 1.13907C228.439 1.15218 229.65 1.03907 229.807 0.972569C230.139 0.831672 229.593 0.683794 230.765 0.735753C230.833 0.738837 230.614 0.816636 230.872 0.824498C232.922 0.884391 235.052 0.888103 237.099 0.941075C237.38 0.948481 237.129 1.03503 237.293 1.04032C238.999 1.09568 238.389 0.949745 239.324 0.787633C239.114 1.00337 239.632 1.13536 240.927 1.13663C241.705 1.13747 241.571 1.04325 242.075 0.976842C242.226 0.956823 242.777 1.02152 242.876 0.977208C243.206 0.83236 242.687 0.670211 244.022 0.734777C244.081 0.737845 243.894 0.817133 244.097 0.821935C245.405 0.853365 245.562 0.701856 246.976 0.683508C248.085 0.66911 250.056 0.761499 251.319 0.776525C251.292 1.01907 252.485 0.963534 252.968 0.7963C253.788 0.803147 254.672 0.793693 255.464 0.816808C255.737 0.824689 255.558 0.894913 255.592 0.902501C256.119 1.02153 256.475 0.858831 256.652 0.852452C258.569 0.790448 260.13 0.913761 261.959 0.793248C262.024 0.788908 262.129 0.620426 262.618 0.743444C262.65 0.751924 262.046 0.82858 262.906 0.834508C263.767 0.840449 265.389 0.930768 266.584 0.852696C266.873 0.833901 267.604 0.697128 268.191 0.803991C268.269 0.818502 268.184 0.866823 268.297 0.893712C268.661 0.979391 268.861 0.809097 269.289 0.95377C269.718 1.09844 270.61 1.20678 271.815 1.10697C271.854 1.10407 272.139 0.969092 272.518 0.971226C273.123 0.974749 273.981 1.00287 274.613 1.00199C274.915 1.00152 274.722 0.917706 274.774 0.916173C276.807 0.869207 278.254 0.943926 280.433 0.976353C280.832 0.982464 281.979 0.868173 282.752 0.958531C283.601 1.05745 282.729 1.46891 284.68 1.37088C285.467 1.33167 286.463 0.809653 287.877 1.08011C290.62 1.01309 293.156 1.15151 295.906 1.05582C296.03 1.05158 296.421 0.905889 296.712 0.907872C297.143 0.911098 297.38 0.979192 297.688 0.983677C298.98 1.00419 300.162 0.945929 301.407 0.954991C301.88 0.958284 301.714 1.02869 302.278 1.03263C302.842 1.0365 303.217 0.943782 303.981 0.98856C304.558 1.02269 305.134 1.2122 305.9 1.23429C305.929 1.04736 306.455 1.05121 307.389 1.00187C307.569 0.992292 307.376 0.927231 307.461 0.919347C307.807 0.885814 308.127 0.939735 308.455 0.903233C308.535 0.894467 308.539 0.83063 308.604 0.81986C309.159 0.725848 310.074 0.869442 310.231 0.894444C310.834 0.989396 311.115 0.906369 311.577 0.943761C312.038 0.981147 311.348 1.02788 311.887 1.05057C313.004 1.0975 314.438 1.08719 315.572 1.09012C316.024 1.0909 315.716 1.00569 315.781 1.00382C316.716 0.982207 317.662 1.07285 318.181 0.903111C318.83 1.34199 318.745 0.860543 320.082 0.948399C320.188 0.955505 320.322 1.16305 319.917 1.19352C319.513 1.22396 318.9 1.15908 318.339 1.20658C318.206 1.21772 317.445 1.4122 317.341 1.42398C316.527 1.51605 316.412 1.20591 316.369 1.18888C315.881 1.00505 314.951 1.21456 314.706 1.22904C313.585 1.29537 312.633 1.25176 311.696 1.29911C311.083 1.32971 311.023 1.53286 310.542 1.52664C308.942 1.50609 308.383 1.22269 306.875 1.46842C306.552 1.52083 306.873 1.74287 305.715 1.56827C305.642 1.55726 304.782 1.39754 304.285 1.49857C304.223 1.51131 304.225 1.57602 304.142 1.58145C303.591 1.61662 303.223 1.56506 302.622 1.58975C302.021 1.61445 301.299 1.65125 300.612 1.62931C300.199 1.61618 299.669 1.49562 299.471 1.4661C298.912 1.38107 298.313 1.52048 297.966 1.41751C297.617 1.31403 298.3 1.15687 297.384 1.09C297.35 1.25812 297.272 1.43069 297.218 1.59976C295.212 1.59384 293.237 1.53948 291.224 1.54691C290.975 1.548 291.23 1.63838 290.962 1.64188C289.834 1.65624 288.848 1.59181 287.677 1.61746C286.771 1.63767 285.777 1.73337 284.83 1.75748C284.251 1.5651 282.845 1.63041 281.824 1.61283C281.466 1.60675 281.49 1.55537 281.236 1.53861C280.276 1.47661 280.725 1.64662 280.462 1.67337C279.333 1.78756 279.237 1.40276 277.906 1.41226C277.835 1.41264 276.973 1.61775 276.854 1.63053C276.1 1.71382 276.729 1.55913 276.257 1.54398C275.395 1.51628 274.796 1.4673 273.785 1.52738C273.49 1.54517 272.783 1.67302 272.21 1.57413C272.135 1.56118 272.176 1.49338 272.116 1.48941C271.018 1.42323 270.989 1.63626 270.362 1.70841C269.734 1.78054 268.765 1.63348 268.568 1.5911C268.052 1.48145 268.964 1.54424 268.992 1.53348C269.32 1.40543 268.613 1.42748 268.073 1.41666C267.995 1.20778 267.24 1.22032 267.513 1.40628C267.545 1.4266 267.965 1.40712 268.073 1.41666C267.599 1.6216 266.769 1.64784 265.853 1.45633C265.424 1.36657 265.829 1.26192 264.526 1.3002C263.934 1.31749 264.163 1.46131 263.641 1.50052C262.448 1.58999 260.899 1.45582 259.669 1.47696C259.223 1.48464 259.658 1.56336 259.353 1.57132C258.543 1.59269 257.83 1.53362 257.017 1.56388C256.943 1.56672 257.123 1.64913 256.87 1.65018C254.954 1.65975 253.286 1.60696 251.285 1.6055C250.319 1.60483 248.59 1.65028 247.589 1.64115C245.854 1.62579 243.719 1.50595 242.236 1.53507C241.269 1.5537 241.481 1.63613 241.067 1.69229C240.267 1.80116 238.852 1.60616 238.661 1.57596C238.656 1.57496 239.488 1.55553 239.044 1.51322C238.786 1.42505 238.671 1.57558 238.661 1.57596C238.536 1.55645 236.874 1.53774 236.544 1.5535C236.365 1.56211 236.465 1.64021 236.372 1.64322C234.149 1.71311 231.922 1.73296 229.668 1.69644C229.628 1.69487 229.688 1.60751 229.595 1.60489C228.29 1.56605 227.454 1.67291 226.378 1.73636C225.302 1.79978 224.448 1.77854 223.811 1.62857C222.999 1.64745 221.834 1.58116 221.164 1.54093C220.493 1.5007 220.4 1.67074 220.341 1.6741C218.501 1.7817 217.438 1.68437 215.529 1.66922C214.621 1.66173 212.821 1.68639 211.839 1.70499C211.062 1.71997 210.595 1.68012 209.879 1.7056C209.782 1.709 209.88 1.78471 209.851 1.78763C209.052 1.87822 209.436 1.69312 209.271 1.66007C208.673 1.53985 208.304 1.47583 207.281 1.53238C207.045 1.54533 206.359 1.81184 205.929 1.82742C205.369 1.8472 205.581 1.75167 204.995 1.77481C204.945 1.77671 204.955 1.83564 204.594 1.83304C202.917 1.82175 201.089 1.78746 199.347 1.79337C199.109 1.79395 199.414 1.88742 199.07 1.8898C197.456 1.90088 195.687 1.89742 194.115 1.85367C193.728 1.84261 193.971 1.77716 193.887 1.75772C193.371 1.64014 192.64 1.81099 192.519 1.81424C189.641 1.89634 187.438 1.74173 184.504 1.81534C184.344 1.81966 183.115 2.00281 182.566 1.84574C182.529 1.83528 181.986 1.67458 181.506 1.78446C181.477 1.79133 181.815 1.87407 181.225 1.86563C180.635 1.85722 179.685 1.91247 178.874 1.82157C178.617 1.79293 178.01 1.63262 177.244 1.76041C177.194 1.76933 176.012 2.05828 175.59 1.85892C175.521 1.8261 175.593 1.61513 174.679 1.7233C174.504 1.74427 174.821 1.79133 174.361 1.82071C173.656 1.866 172.722 1.80949 171.855 1.90347C171.704 1.92011 171.061 2.06331 170.544 1.95462C170.464 1.9376 170.617 1.86717 170.345 1.85929C169.049 1.82148 167.691 1.86859 166.375 1.81986C165.909 1.80273 166.148 1.68887 165.662 1.65836C165.176 1.62786 164.197 1.59851 163.688 1.65055C163.18 1.7026 163.735 1.88407 162.973 1.89859C159.661 1.96166 156.38 1.8552 153.073 1.83963C152.582 1.83731 152.989 1.90224 152.266 1.90347C149.601 1.90831 144.999 1.96919 142.687 1.83121C140.834 1.72069 143.166 1.63656 141.75 1.59159C141.066 1.57013 140.327 1.78111 140.162 1.78775C138.551 1.85522 137.431 1.76176 135.981 1.79044C135.681 1.79639 135.975 1.8819 135.72 1.88602C134.85 1.90085 133.934 1.86268 133.103 1.86966C132.729 1.87299 132.798 1.9383 132.455 1.93326C131.633 1.92195 130.906 1.8945 130.105 1.83328C130.032 1.82771 130.524 1.74646 129.917 1.74344C128.933 1.73878 127.711 1.67839 126.579 1.74076C126.243 1.75951 126.23 1.90878 125.508 1.8057C125.356 1.78417 125.55 1.60493 124.709 1.7598C124.567 1.78553 123.154 1.99442 122.461 1.85977C122.278 1.82434 121.811 1.67767 121.407 1.70072C121.352 1.70439 121.572 1.78457 121.237 1.79239C120.057 1.81856 118.821 1.81 117.609 1.83512C117.286 1.84198 117.768 1.92495 117.285 1.93253C115.959 1.9535 114.303 1.93237 113.006 1.9064C112.528 1.89667 112.858 1.82795 112.823 1.82047C112.264 1.69882 111.933 1.86302 111.747 1.87259C110.592 1.92992 109.713 1.85279 108.648 1.8732C108.354 1.87863 108.563 1.95692 108.504 1.9639C107.898 2.03211 108.349 1.89151 107.965 1.87601C106.89 1.83212 105.691 1.83842 104.603 1.84842C104.204 1.85221 104.653 1.94299 104.294 1.94534C102.172 1.96099 99.9658 1.9523 97.8947 1.90225C97.5047 1.89267 97.7501 1.82276 97.6688 1.80679C97.1087 1.69509 96.2877 1.84746 96.0988 1.86197C95.2398 1.92824 94.9062 1.86642 94.1477 1.87796C90.4422 1.93541 85.8669 1.89447 82.3691 1.86917C77.8112 1.83662 74.2743 1.77012 69.9278 1.78739C69.6515 1.7884 69.9301 1.88139 69.692 1.88345C66.6174 1.90587 63.5906 1.86953 60.5099 1.89639C60.2571 1.89843 60.6215 1.98659 60.2158 1.99283C59.3835 2.00624 58.3292 2.00145 57.4877 1.9733C57.0773 1.95974 57.6278 1.88409 57.2146 1.87198C56.2527 1.84362 55.2215 1.83734 54.2334 1.85147C53.8129 1.85768 54.4473 1.94784 53.9008 1.94888C50.1777 1.95783 46.5212 1.97336 42.7589 1.8566C42.501 1.84858 42.2747 1.66533 41.7263 1.70047C41.685 1.75133 41.6872 1.81115 41.6692 1.86551C36.2493 1.89479 30.8848 1.83127 25.4498 1.82144C25.2206 1.82105 25.6167 1.91815 25.173 1.91788C22.6053 1.91644 20.1118 1.94334 17.4853 1.84683C17.2247 1.8374 17.3584 1.66658 16.5904 1.69242C16.455 1.69713 15.2983 1.71991 14.9993 1.75699C14.9586 1.76258 15.1697 1.84231 14.797 1.84464C12.631 1.85674 10.3612 1.83854 8.19898 1.78983C7.85002 1.78181 8.22164 1.69691 7.97309 1.69046C6.21001 1.64539 4.29228 1.70993 2.60758 1.63285C1.4799 1.58094 1.8974 1.43417 1.29816 1.28971C1.21341 1.26932 0.515111 1.26609 0.479 1.18204C0.386292 0.970681 0.724524 0.739242 0.585739 0.513952C0.556417 0.465427 -0.37878 0.517692 0.174917 0.400427C0.213598 0.392579 0.891621 0.35366 1.05862 0.31388C1.17489 0.286376 0.965367 0.200894 1.20259 0.165687C1.4398 0.130513 1.70046 0.202169 2.09374 0.160804C2.48685 0.118927 2.314 0.0216813 3.09908 0.0101698ZM218.145 1.36112C217.524 1.27946 217.433 1.57855 218.104 1.50699C218.137 1.50318 218.177 1.36512 218.145 1.36112ZM293.249 1.31388C292.437 1.18195 291.882 1.37593 292.454 1.47782C293.027 1.57959 293.496 1.35387 293.249 1.31388ZM301.664 1.21756C300.715 1.11355 300.566 1.53768 301.582 1.45194C301.641 1.44709 301.719 1.2236 301.664 1.21756ZM4.07711 1.24857C4.06854 1.2446 3.56658 1.24073 3.55458 1.24466C3.28729 1.33965 4.29101 1.34733 4.07711 1.24857ZM310.014 1.11271C309.718 1.05533 308.866 1.12156 309.234 1.19291C309.53 1.2503 310.383 1.18407 310.014 1.11271ZM185.765 1.0419C185.755 1.03745 185.395 1.03343 185.402 1.05863C185.427 1.13977 185.928 1.11687 185.765 1.0419ZM324.207 1.10782C322.11 1.09186 320.839 0.741508 323.122 0.781041C323.536 0.788194 322.231 0.892765 322.757 0.924351C323.72 0.981896 324.36 0.761919 325.342 0.879796C325.52 0.901371 324.326 1.10951 324.203 1.10831C324.204 1.10815 324.206 1.10799 324.207 1.10782ZM217.788 1.00187C217.775 0.997911 217.277 0.994161 217.265 0.998082C216.995 1.09304 217.999 1.10065 217.788 1.00187ZM164.766 0.856969C164.738 0.848541 163.582 0.840659 163.544 0.848424C162.941 1.0037 165.279 1.0201 164.766 0.856969ZM251.339 0.782995C251.882 0.68747 252.533 0.676223 252.966 0.796178C252.426 0.78981 251.882 0.788872 251.339 0.782995Z" fill="var(--stroke-0, white)"/>
</svg>
