<svg preserveAspectRatio="none" width="100%" height="100%" overflow="visible" style="display: block;" viewBox="0 0 776 885" fill="none" xmlns="http://www.w3.org/2000/svg">
<path id="Vector" d="M768.098 365.254C716.46 312.02 650.311 275.142 577.878 259.207C524.7 245.842 470.169 238.596 415.346 237.61V90.8609C414.479 65.987 403.797 42.4686 385.636 25.4495C367.476 8.43028 343.314 -0.704668 318.437 0.0424748C293.559 -0.704668 269.397 8.43028 251.237 25.4495C233.076 42.4686 222.394 65.987 221.527 90.8609V367.746L177.225 323.998C157.71 304.855 131.464 294.132 104.127 294.132C76.7907 294.132 50.5448 304.855 31.0297 323.998C21.2521 333.445 13.4695 344.757 8.14272 357.265C2.81595 369.774 0.053348 383.224 0.0185056 396.819C-0.489179 423.179 9.46671 448.666 27.707 467.702L156.736 620.542C162.96 659.594 176.386 697.149 196.33 731.297C210.901 757.556 229.599 781.301 251.707 801.626V854.787C251.62 862.368 254.442 869.694 259.593 875.256C264.744 880.819 271.831 884.196 279.396 884.691H664.543C672.108 884.196 679.195 880.819 684.346 875.256C689.497 869.694 692.319 862.368 692.232 854.787V780.028C746.64 715.245 776.1 633.148 775.297 548.552V382.421C774.951 376.039 772.407 369.974 768.098 365.254ZM719.92 549.937C721.69 623.553 696.031 695.199 647.93 750.955C641.818 755.934 637.853 763.071 636.855 770.891V830.698H308.469V789.719C308.476 785.184 307.368 780.716 305.244 776.709C303.12 772.702 300.043 769.278 296.286 766.738C275.535 749.726 258.401 728.731 245.893 704.992C228.255 675.125 216.946 641.95 212.666 607.529C212.369 601.537 210.134 595.804 206.298 591.193L70.0705 430.045C65.6335 425.667 62.1105 420.45 59.706 414.699C57.3014 408.948 56.0631 402.776 56.0631 396.542C56.0631 390.309 57.3014 384.137 59.706 378.386C62.1105 372.634 65.6335 367.418 70.0705 363.039C79.1872 354.06 91.4698 349.027 104.266 349.027C117.062 349.027 129.344 354.06 138.461 363.039L221.527 446.105V533.047L276.904 505.358V90.8609C277.889 80.7247 282.769 71.3661 290.515 64.7555C298.262 58.1449 308.272 54.798 318.437 55.4195C328.602 54.798 338.611 58.1449 346.358 64.7555C354.105 71.3661 358.984 80.7247 359.969 90.8609V417.586L415.346 429.492V293.264C438.583 293.722 461.78 295.386 484.845 298.248V443.059L529.146 452.75V304.616C540.499 306.831 552.128 309.323 564.034 312.369C578.389 316.125 592.531 320.655 606.397 325.937V468.532L650.699 478.223V346.149C675.868 358.854 699.162 374.973 719.92 394.05V549.937Z" fill="var(--fill-0, white)"/>
</svg>
