<svg preserveAspectRatio="none" width="100%" height="100%" overflow="visible" style="display: block;" viewBox="0 0 404 3" fill="none" xmlns="http://www.w3.org/2000/svg">
<path id="Line 67" d="M3.84812 0.0152547C6.11203 -0.0238245 9.07964 0.0179606 11.335 0.0753131C12.0418 0.0931009 11.6839 0.172613 12.1718 0.188472C13.1261 0.219387 14.0152 0.180391 14.9582 0.217219C15.2707 0.229814 14.8817 0.355761 15.2094 0.366084C17.0052 0.421745 18.7041 0.389665 20.5233 0.416438C29.4839 0.548528 38.292 0.595807 47.3622 0.653192C50.3529 0.672006 53.9885 0.786308 57.0776 0.736322C57.4382 0.730373 57.2232 0.619823 57.2918 0.610712C58.3679 0.471225 58.0101 0.694402 58.7127 0.724054C61.5014 0.841131 64.6024 0.851313 67.2861 0.808648C68.4278 0.790173 67.2831 0.570593 68.4327 0.693841C68.5125 0.702169 68.2229 0.819565 68.536 0.832086C69.246 0.860247 70.5932 0.839264 71.1436 0.848565C72.2042 0.867085 72.3797 0.865904 73.3828 0.867242C74.7542 0.870092 76.3854 0.928449 77.8568 0.901849C78.1709 0.895822 77.7551 0.775478 78.2559 0.754998C78.7573 0.734553 80.0836 0.744757 80.5307 0.773126C80.9779 0.801509 80.7875 0.896098 80.8666 0.917779C81.5178 1.10077 83.0519 0.847326 83.2492 0.841058C86.8483 0.73426 89.9346 0.87864 93.3129 0.878228C95.8776 0.877609 98.6199 0.829944 101.06 0.83648C103.968 0.844733 106.432 0.909946 109.256 0.898736C109.554 0.897691 109.205 0.756194 109.569 0.754632C113.437 0.738167 117.278 0.753591 121.129 0.849114C121.515 0.858819 121.017 0.983052 121.403 1.00018C123.766 1.10227 127.504 1.34754 128.907 0.806634C130.507 0.827755 132.45 0.849578 133.882 0.958611C134.805 1.02879 133.908 1.16413 135.042 1.10638C135.298 1.09351 134.966 0.974986 135.349 0.964654C136.964 0.921264 138.728 0.959791 140.325 0.898553C140.65 0.885818 140.562 0.779616 140.654 0.760492C141.427 0.605612 142.715 0.861638 142.996 0.880242C145.134 1.01897 146.696 0.964379 148.688 0.967766C149.15 0.968612 148.603 0.825959 149.048 0.821649C151.355 0.801203 153.745 0.813464 156.003 0.876763C156.506 0.891186 156.044 1.0127 156.284 1.02581C157.343 1.08214 157.577 0.852626 158.593 0.902215C158.807 0.912374 158.686 1.0164 158.725 1.02782C159.336 1.20717 159.867 0.953052 160.024 0.947442C162.012 0.870784 163.283 1.13607 165.204 1.0985C165.434 1.09374 164.916 0.962118 165.562 0.95678C169.865 0.920444 174.416 0.956602 178.675 1.06188C179.337 1.07807 178.865 1.17695 178.906 1.18914C179.585 1.37959 180.025 1.12441 180.241 1.1148C181.944 1.04562 183.536 1.25962 184.693 0.955681C191.908 1.06116 199.09 0.89048 206.245 1.16277C206.336 1.16593 206.173 1.2916 206.354 1.29736C208.539 1.36792 208.12 1.1726 209.566 0.933709C209.93 0.873723 211.038 1.16214 211.136 1.18328C211.493 1.26119 211.123 1.44816 211.243 1.46325C212.232 1.58172 212.071 0.963388 213.406 0.963189C213.448 0.96422 213.273 1.07803 213.385 1.08935C213.733 1.12488 214.078 1.07965 214.419 1.11883C215.199 1.20948 215.476 1.50994 216.667 1.33507C216.818 1.31238 216.588 0.961634 217.78 0.978203C218.255 0.985106 220.359 0.979094 220.949 1.00182C221.537 1.02453 221.133 1.13755 221.175 1.14245C222.762 1.29191 222.16 1.35385 222.955 1.57513C223.75 1.79556 223.53 1.2698 223.854 1.21111C224.178 1.1526 225.342 1.27591 225.628 1.31878C225.913 1.36167 225.557 1.43349 225.811 1.45776C227.496 1.61632 226.55 1.19678 227.105 1.11333C228.414 0.915746 229.433 1.30566 230.632 1.34386C230.956 1.35418 230.691 1.26538 230.98 1.25707C232.123 1.22536 232.811 1.34702 234.112 1.23547C234.324 1.21729 235.376 0.982862 236.056 1.1549C236.153 1.17971 235.879 1.27687 236.366 1.29864C237.094 1.3313 238.406 1.35254 239.188 1.32006C239.766 1.29603 239.104 1.13593 239.831 1.18566C240.154 1.20787 239.555 1.30153 240.162 1.33544C240.766 1.36934 242.31 1.36523 242.898 1.36199C243.484 1.35869 243.163 1.23724 243.21 1.22906C243.497 1.18219 244.623 1.12363 244.722 1.12377C249.739 1.10895 254.366 1.31366 259.251 1.2459C259.634 1.24076 259.379 1.11269 259.437 1.11059C260.749 1.05693 259.715 1.39743 260.631 1.5114C260.499 1.25152 261.04 1.29857 261.965 1.27007C262.41 1.25613 262.167 1.1555 262.208 1.14519C262.869 0.992349 263.329 1.18977 263.447 1.23016C263.885 1.37872 264.361 1.20318 264.658 1.30248C264.956 1.40104 264.271 1.54715 265.158 1.54528C265.406 1.45225 264.748 1.20913 265.421 1.16973C267.961 1.02069 272.702 1.21144 274.744 1.23125C276.782 1.25105 277.44 1.23389 278.627 1.26751C280.772 1.3283 279.986 1.14792 281.318 1.06536C282.654 0.982808 282.005 1.42662 282.197 1.52202C282.385 1.61739 282.591 1.51922 282.825 1.57165C283.059 1.62406 282.553 1.68893 283.103 1.70861C283.653 1.72827 285.156 1.55861 285.351 1.45885C285.763 1.24751 285.086 1.02569 286.541 1.10363C286.625 1.10826 286.353 1.22495 286.674 1.23675C289.219 1.32659 291.863 1.33215 294.406 1.41161C294.755 1.42272 294.443 1.55254 294.646 1.56048C296.765 1.64351 296.007 1.42462 297.169 1.18145C296.908 1.50505 297.55 1.70304 299.158 1.70495C300.125 1.70621 299.959 1.56487 300.584 1.46526C300.772 1.43523 301.456 1.53228 301.58 1.46581C301.988 1.24854 301.344 1.00532 303.002 1.10217C303.075 1.10677 302.843 1.2257 303.095 1.2329C304.719 1.28005 304.914 1.05278 306.67 1.02526C308.047 1.00367 310.495 1.14225 312.062 1.16479C312.029 1.52861 313.51 1.4453 314.111 1.19445C315.128 1.20472 316.227 1.19054 317.21 1.22521C317.548 1.23703 317.326 1.34237 317.369 1.35375C318.023 1.5323 318.465 1.28825 318.685 1.27868C321.065 1.18567 323.003 1.37064 325.275 1.18987C325.355 1.18336 325.486 0.930638 326.093 1.11517C326.132 1.12789 325.382 1.24287 326.451 1.25176C327.519 1.26067 329.534 1.39615 331.017 1.27904C331.376 1.25085 332.284 1.04569 333.013 1.20599C333.11 1.22775 333.004 1.30023 333.144 1.34057C333.597 1.46909 333.844 1.21365 334.377 1.43066C334.909 1.64766 336.017 1.81017 337.513 1.66045C337.561 1.6561 337.915 1.45364 338.385 1.45684C339.136 1.46212 340.202 1.5043 340.987 1.50298C341.362 1.50228 341.122 1.37656 341.187 1.37426C343.712 1.30381 345.508 1.41589 348.213 1.46453C348.709 1.4737 350.134 1.30226 351.093 1.4378C352.147 1.58617 351.064 2.20337 353.487 2.05632C354.464 1.99751 355.701 1.21448 357.457 1.62017C360.862 1.51964 364.011 1.72727 367.426 1.58373C367.58 1.57737 368.066 1.35883 368.427 1.36181C368.963 1.36665 369.257 1.46879 369.639 1.47552C371.243 1.50628 372.711 1.41889 374.257 1.43249C374.844 1.43743 374.638 1.54304 375.339 1.54894C376.038 1.55475 376.505 1.41567 377.453 1.48284C378.169 1.53404 378.885 1.8183 379.836 1.85143C379.872 1.57104 380.525 1.57682 381.685 1.5028C381.908 1.48844 381.669 1.39085 381.774 1.37902C382.204 1.32872 382.601 1.4096 383.009 1.35485C383.108 1.3417 383.113 1.24594 383.194 1.22979C383.883 1.08877 385.019 1.30416 385.214 1.34167C385.962 1.48409 386.311 1.35955 386.885 1.41564C387.457 1.47172 386.601 1.54183 387.27 1.57586C388.656 1.64625 390.438 1.63078 391.846 1.63518C392.408 1.63635 392.024 1.50853 392.105 1.50573C393.266 1.47331 394.441 1.60927 395.085 1.35467C395.891 2.01298 395.786 1.29081 397.446 1.4226C397.577 1.43326 397.743 1.74457 397.241 1.79027C396.739 1.83593 395.978 1.73862 395.281 1.80987C395.116 1.82658 394.171 2.1183 394.042 2.13598C393.032 2.27408 392.889 1.80887 392.835 1.78332C392.229 1.50757 391.074 1.82184 390.77 1.84356C389.379 1.94306 388.197 1.87764 387.033 1.94866C386.272 1.99456 386.197 2.29929 385.599 2.28997C383.613 2.25914 382.919 1.83403 381.047 2.20263C380.646 2.28124 381.044 2.6143 379.606 2.35241C379.516 2.33589 378.448 2.09631 377.831 2.24785C377.753 2.26696 377.756 2.36403 377.653 2.37218C376.968 2.42493 376.512 2.3476 375.765 2.38463C375.019 2.42167 374.122 2.47688 373.27 2.44396C372.757 2.42427 372.098 2.24342 371.853 2.19915C371.159 2.0716 370.415 2.28072 369.985 2.12627C369.551 1.97104 370.399 1.7353 369.262 1.635C369.22 1.88719 369.123 2.14603 369.055 2.39965C366.564 2.39077 364.113 2.30922 361.613 2.32036C361.303 2.322 361.62 2.45757 361.288 2.46282C359.886 2.48436 358.662 2.38771 357.209 2.4262C356.083 2.45651 354.85 2.60005 353.673 2.63622C352.955 2.34765 351.209 2.44561 349.941 2.41924C349.496 2.41013 349.526 2.33305 349.21 2.30791C348.018 2.21492 348.577 2.46993 348.25 2.51006C346.848 2.68133 346.728 2.10414 345.075 2.1184C344.988 2.11896 343.917 2.42663 343.77 2.44579C342.833 2.57073 343.615 2.3387 343.029 2.31597C341.958 2.27442 341.214 2.20095 339.959 2.29107C339.592 2.31776 338.714 2.50953 338.003 2.36119C337.909 2.34177 337.961 2.24007 337.886 2.23412C336.523 2.13484 336.487 2.45439 335.708 2.56261C334.929 2.67081 333.726 2.45022 333.481 2.38665C332.841 2.22218 333.972 2.31636 334.007 2.30022C334.414 2.10815 333.537 2.14122 332.866 2.12499C332.769 1.81167 331.832 1.83048 332.171 2.10943C332.21 2.13989 332.732 2.11068 332.866 2.12499C332.278 2.4324 331.247 2.47177 330.109 2.1845C329.576 2.04986 330.08 1.89288 328.462 1.95031C327.727 1.97623 328.011 2.19197 327.363 2.25078C325.882 2.38498 323.958 2.18373 322.431 2.21544C321.877 2.22695 322.417 2.34505 322.038 2.35698C321.033 2.38903 320.147 2.30042 319.138 2.34581C319.046 2.35008 319.27 2.47369 318.956 2.47527C316.577 2.48963 314.505 2.41045 312.021 2.40825C310.821 2.40725 308.675 2.47543 307.431 2.46172C305.276 2.43869 302.625 2.25893 300.784 2.3026C299.584 2.33055 299.847 2.4542 299.333 2.53844C298.34 2.70174 296.582 2.40923 296.346 2.36394C296.339 2.36244 297.372 2.33329 296.821 2.26983C296.5 2.13758 296.357 2.36337 296.346 2.36394C296.19 2.33468 294.127 2.30661 293.717 2.33025C293.494 2.34317 293.619 2.46031 293.502 2.46483C290.743 2.56967 287.978 2.59944 285.179 2.54467C285.129 2.5423 285.204 2.41127 285.088 2.40734C283.467 2.34908 282.43 2.50937 281.093 2.60454C279.757 2.69967 278.697 2.66781 277.906 2.44286C276.898 2.47118 275.451 2.37173 274.619 2.31139C273.787 2.25105 273.67 2.50612 273.597 2.51116C271.313 2.67255 269.992 2.52655 267.622 2.50383C266.495 2.49259 264.26 2.52959 263.04 2.55748C262.076 2.57995 261.495 2.52018 260.607 2.5584C260.487 2.5635 260.608 2.67707 260.571 2.68144C259.58 2.81732 260.056 2.53969 259.852 2.4901C259.109 2.30978 258.651 2.21375 257.381 2.29857C257.088 2.318 256.235 2.71776 255.701 2.74114C255.007 2.7708 255.269 2.62751 254.542 2.66222C254.48 2.66506 254.493 2.75346 254.045 2.74956C251.963 2.73263 249.692 2.68119 247.529 2.69005C247.233 2.69092 247.612 2.83114 247.185 2.8347C245.181 2.85132 242.985 2.84614 241.033 2.7805C240.552 2.76391 240.854 2.66573 240.749 2.63658C240.109 2.46021 239.201 2.71648 239.051 2.72136C235.477 2.84451 232.741 2.61259 229.098 2.72301C228.9 2.72949 227.373 3.00422 226.692 2.7686C226.646 2.75293 225.972 2.51187 225.376 2.67668C225.339 2.687 225.759 2.8111 225.026 2.79845C224.294 2.78583 223.115 2.8687 222.108 2.73235C221.789 2.68939 221.035 2.44893 220.084 2.64061C220.022 2.65399 218.554 3.08742 218.03 2.78838C217.945 2.73915 218.034 2.4227 216.899 2.58495C216.682 2.6164 217.075 2.68699 216.504 2.73107C215.629 2.799 214.469 2.71424 213.392 2.85521C213.205 2.88017 212.406 3.09496 211.765 2.93193C211.665 2.9064 211.855 2.80075 211.517 2.78893C209.907 2.73221 208.222 2.80288 206.588 2.72978C206.01 2.7041 206.305 2.53331 205.702 2.48754C205.099 2.44178 203.883 2.39777 203.252 2.47582C202.62 2.5539 203.31 2.82611 202.364 2.84789C198.251 2.94249 194.177 2.78281 190.07 2.75945C189.461 2.75596 189.966 2.85336 189.069 2.85521C185.759 2.86246 180.046 2.95378 177.174 2.74681C174.873 2.58104 177.769 2.45484 176.01 2.38738C175.162 2.3552 174.244 2.67166 174.039 2.68163C172.039 2.78283 170.648 2.64265 168.847 2.68566C168.475 2.69458 168.84 2.82285 168.524 2.82903C167.443 2.85127 166.306 2.79402 165.273 2.80449C164.81 2.80948 164.895 2.90745 164.469 2.89989C163.449 2.88293 162.546 2.84175 161.552 2.74993C161.461 2.74156 162.072 2.61969 161.317 2.61516C160.095 2.60817 158.579 2.51759 157.173 2.61113C156.756 2.63927 156.74 2.86317 155.843 2.70854C155.655 2.67625 155.895 2.4074 154.851 2.6397C154.675 2.6783 152.921 2.99163 152.06 2.78966C151.832 2.7365 151.253 2.5165 150.751 2.55107C150.683 2.55659 150.956 2.67686 150.54 2.68859C149.075 2.72784 147.54 2.715 146.035 2.75267C145.633 2.76297 146.232 2.88742 145.633 2.89879C143.986 2.93025 141.93 2.89856 140.319 2.85961C139.725 2.84501 140.136 2.74192 140.093 2.7307C139.398 2.54823 138.987 2.79452 138.757 2.80889C137.322 2.89488 136.23 2.77918 134.908 2.8098C134.543 2.81794 134.802 2.93538 134.73 2.94585C133.976 3.04816 134.537 2.83726 134.061 2.81401C132.725 2.74819 131.236 2.75762 129.886 2.77263C129.39 2.77832 129.947 2.91449 129.502 2.91802C126.867 2.94148 124.127 2.92845 121.556 2.85338C121.072 2.839 121.376 2.73414 121.275 2.71019C120.58 2.54264 119.56 2.77118 119.326 2.79296C118.259 2.89236 117.845 2.79964 116.903 2.81694C112.302 2.90311 106.621 2.8417 102.278 2.80376C96.6181 2.75493 92.2264 2.65518 86.8293 2.68108C86.4863 2.68259 86.8322 2.82209 86.5365 2.82518C82.7188 2.85881 78.9604 2.8043 75.1351 2.84459C74.8212 2.84765 75.2737 2.97989 74.7699 2.98924C73.7364 3.00936 72.4273 3.00217 71.3825 2.95995C70.8728 2.9396 71.5564 2.82613 71.0434 2.80797C69.8489 2.76543 68.5685 2.75601 67.3416 2.77721C66.8194 2.78652 67.6072 2.92177 66.9286 2.92333C62.3056 2.93674 57.7654 2.96004 53.0937 2.7849C52.7735 2.77287 52.4925 2.498 51.8115 2.55071C51.7602 2.62699 51.763 2.71673 51.7406 2.79827C45.0108 2.84219 38.3497 2.7469 31.601 2.73217C31.3165 2.73158 31.8082 2.87722 31.2573 2.87682C28.0689 2.87466 24.9728 2.91501 21.7115 2.77025C21.3879 2.75609 21.5539 2.49987 20.6003 2.53862C20.4321 2.54569 18.9959 2.57987 18.6246 2.63549C18.5742 2.64388 18.8362 2.76347 18.3734 2.76695C15.6839 2.78512 12.8655 2.75781 10.1807 2.68474C9.74736 2.67272 10.2088 2.54536 9.90018 2.53569C7.71097 2.46809 5.32973 2.5649 3.23783 2.44927C1.83759 2.37141 2.356 2.15126 1.61193 1.93456C1.50669 1.90399 0.639613 1.89914 0.594774 1.77306C0.479658 1.45602 0.899641 1.10886 0.727312 0.770929C0.690903 0.69814 -0.470331 0.776538 0.217194 0.600641C0.265225 0.588869 1.10713 0.53049 1.31449 0.47082C1.45886 0.429565 1.1987 0.301341 1.49326 0.24853C1.7878 0.195769 2.11146 0.303253 2.5998 0.241206C3.08792 0.178391 2.87329 0.032522 3.84812 0.0152547ZM270.871 2.04168C270.1 1.91918 269.986 2.36783 270.82 2.26049C270.86 2.25477 270.911 2.04769 270.871 2.04168ZM364.127 1.97081C363.119 1.77293 362.43 2.0639 363.14 2.21672C363.851 2.36939 364.434 2.0308 364.127 1.97081ZM374.576 1.82635C373.398 1.67032 373.213 2.30652 374.474 2.17791C374.547 2.17064 374.645 1.8354 374.576 1.82635ZM5.06254 1.87285C5.0519 1.8669 4.42862 1.86109 4.41372 1.86699C4.08183 2.00948 5.32815 2.02099 5.06254 1.87285ZM384.945 1.66906C384.577 1.583 383.518 1.68234 383.975 1.78936C384.343 1.87545 385.402 1.77611 384.945 1.66906ZM230.664 1.56286C230.652 1.55617 230.205 1.55015 230.214 1.58794C230.244 1.70966 230.866 1.67531 230.664 1.56286ZM402.567 1.66173C399.964 1.63779 398.385 1.11226 401.22 1.17156C401.734 1.18229 400.114 1.33915 400.767 1.38653C401.963 1.47284 402.757 1.14288 403.978 1.31969C404.198 1.35206 402.716 1.66427 402.563 1.66247C402.564 1.66222 402.566 1.66198 402.567 1.66173ZM270.427 1.5028C270.412 1.49687 269.793 1.49124 269.778 1.49712C269.443 1.63955 270.689 1.65097 270.427 1.5028ZM204.589 1.28545C204.555 1.27281 203.12 1.26099 203.073 1.27264C202.324 1.50555 205.226 1.53014 204.589 1.28545ZM312.087 1.17449C312.762 1.03121 313.569 1.01433 314.108 1.19427C313.437 1.18472 312.761 1.18331 312.087 1.17449Z" fill="var(--stroke-0, white)"/>
</svg>
