<svg preserveAspectRatio="none" width="100%" height="100%" overflow="visible" style="display: block;" viewBox="0 0 37 37" fill="none" xmlns="http://www.w3.org/2000/svg">
<g id="Cursor Hand SVG Icon 1" clip-path="url(#clip0_5002_311)">
<path id="Vector" d="M28.4992 9.32981C25.8512 8.57692 23.0403 8.61913 20.4161 9.45121C18.4586 10.0085 16.5712 10.7877 14.7905 11.7735L12.0669 7.05604C11.5774 6.27254 10.7975 5.71477 9.89784 5.50472C8.99817 5.29468 8.05194 5.44945 7.26608 5.93519C6.45248 6.37289 5.84533 7.11497 5.5774 7.99913C5.30947 8.88329 5.40257 9.83757 5.83635 10.6533L10.9752 19.5541L8.73916 18.97C7.75653 18.7168 6.7138 18.8592 5.83503 19.3665C4.95626 19.8739 4.31158 20.7057 4.03953 21.6833C3.90054 22.1684 3.86031 22.6765 3.92122 23.1775C3.98214 23.6785 4.14296 24.1621 4.39417 24.5998C4.86707 25.4566 5.66014 26.0911 6.5998 26.3645L13.5842 28.883C14.5091 30.0229 15.6377 30.9809 16.9126 31.7085C17.8684 32.2822 18.9102 32.6985 19.9981 32.9415L20.9847 34.6505C21.1226 34.8958 21.3493 35.0789 21.6181 35.1621C21.8869 35.2453 22.1774 35.2224 22.4298 35.0979L34.8108 27.9497C35.0448 27.7934 35.21 27.5533 35.2723 27.2789C35.3347 27.0044 35.2894 26.7166 35.1459 26.4745L33.7584 24.0713C34.3051 20.979 33.7284 17.7931 32.1326 15.0885L29.0492 9.74805C28.9196 9.54934 28.7253 9.40157 28.4992 9.32981ZM30.3781 16.1608C31.8013 18.4945 32.3062 21.2738 31.7947 23.9589C31.6906 24.2324 31.6956 24.5354 31.8087 24.8053L32.9187 26.7279L22.3623 32.8226L21.6018 31.5053C21.5178 31.3594 21.3993 31.2363 21.2566 31.1469C21.114 31.0575 20.9515 31.0046 20.7836 30.9927C19.8008 30.8309 18.8604 30.474 18.0177 29.9431C16.8964 29.3103 15.9171 28.4537 15.1407 27.4266C15.0199 27.2395 14.8417 27.0967 14.6328 27.0197L7.26274 24.3677C7.03884 24.3093 6.82877 24.207 6.64473 24.0668C6.46069 23.9265 6.30635 23.7511 6.19065 23.5507C6.07495 23.3503 6.00021 23.1289 5.97077 22.8994C5.94133 22.6699 5.95776 22.4368 6.01913 22.2137C6.14555 21.7559 6.44698 21.3661 6.85832 21.1287C7.26966 20.8912 7.75791 20.825 8.21763 20.9444L12.4295 22.073L14.0432 24.8679L15.3094 22.95L7.61651 9.62549C7.46005 9.28137 7.44322 8.88996 7.56956 8.53368C7.6959 8.17739 7.95555 7.88403 8.29385 7.71535C8.60908 7.50671 8.99297 7.42853 9.36469 7.49726C9.73641 7.56599 10.067 7.77626 10.2868 8.08382L16.3506 18.5868L18.3518 17.9417L15.8234 13.5625C16.5789 13.146 17.3555 12.769 18.15 12.4329L20.8377 17.088L22.4417 16.5773L19.6924 11.8154C20.0984 11.6759 20.5185 11.5402 20.9578 11.4171C21.4889 11.2714 22.0276 11.1546 22.5714 11.067L25.2179 15.6509L26.8219 15.1402L24.3707 10.8945C25.4155 10.8358 26.4635 10.9217 27.4849 11.1497L30.3781 16.1608Z" fill="var(--fill-0, black)"/>
<g id="Vector_2">
</g>
</g>
<defs>
<clipPath id="clip0_5002_311">
<rect width="37" height="37" fill="white"/>
</clipPath>
</defs>
</svg>
