<svg preserveAspectRatio="none" width="100%" height="100%" overflow="visible" style="display: block;" viewBox="0 0 229 2" fill="none" xmlns="http://www.w3.org/2000/svg">
<path id="Line 56" d="M2.1754 0.0101698C3.45521 -0.015883 5.13284 0.0119737 6.40782 0.0502087C6.8074 0.0620673 6.60507 0.115075 6.8809 0.125648C7.42037 0.146258 7.92296 0.120261 8.45608 0.144813C8.63276 0.153209 8.41283 0.237174 8.59809 0.244056C9.61328 0.281163 10.5737 0.259777 11.6021 0.277625C16.6677 0.365685 21.647 0.397205 26.7745 0.435461C28.4652 0.448004 30.5204 0.524206 32.2667 0.490881C32.4706 0.486916 32.3491 0.413216 32.3878 0.407141C32.9962 0.31415 32.7939 0.462935 33.1911 0.482702C34.7676 0.560754 36.5206 0.567542 38.0378 0.539099C38.6832 0.526782 38.036 0.380395 38.686 0.462561C38.7311 0.468112 38.5673 0.546377 38.7443 0.554724C39.1457 0.573498 39.9073 0.559509 40.2184 0.56571C40.818 0.578057 40.9172 0.577269 41.4843 0.578161C42.2596 0.580061 43.1817 0.618966 44.0135 0.601232C44.1911 0.597215 43.956 0.516985 44.2392 0.503332C44.5226 0.489702 45.2723 0.496505 45.5251 0.515417C45.7779 0.534339 45.6703 0.597399 45.715 0.611852C46.0831 0.733849 46.9504 0.564884 47.0619 0.560705C49.0965 0.489506 50.8412 0.58576 52.7511 0.585485C54.2009 0.585073 55.7512 0.553296 57.1307 0.557653C58.7743 0.563155 60.1672 0.606631 61.7639 0.599157C61.9324 0.598461 61.735 0.504129 61.9408 0.503088C64.1273 0.492111 66.2987 0.502394 68.4759 0.566076C68.6942 0.572546 68.4128 0.655368 68.6309 0.666784C69.9665 0.734849 72.0797 0.898357 72.8729 0.537756C73.7776 0.551837 74.8759 0.566385 75.6853 0.639074C76.2071 0.685858 75.7003 0.776084 76.3413 0.737585C76.4859 0.729007 76.2979 0.649991 76.5147 0.643102C77.4275 0.614176 78.4248 0.639861 79.3279 0.599035C79.5116 0.590545 79.4614 0.519744 79.5134 0.506994C79.9508 0.403741 80.679 0.574425 80.8377 0.586828C82.0464 0.679315 82.9291 0.642919 84.0552 0.645178C84.3165 0.645741 84.0076 0.550639 84.259 0.547766C85.5631 0.534136 86.914 0.54231 88.1909 0.584509C88.4749 0.594124 88.2137 0.675134 88.3494 0.683874C88.9479 0.721424 89.0806 0.568417 89.6545 0.601477C89.7756 0.60825 89.7074 0.6776 89.7295 0.685217C90.0749 0.804778 90.3751 0.635368 90.4639 0.631628C91.5879 0.580523 92.3063 0.757378 93.3921 0.732335C93.522 0.729161 93.2291 0.641412 93.5942 0.637853C96.0268 0.61363 98.5996 0.637735 101.008 0.707922C101.382 0.718716 101.115 0.784634 101.138 0.79276C101.522 0.919728 101.771 0.749606 101.893 0.7432C102.856 0.697082 103.755 0.839748 104.41 0.637121C108.488 0.707439 112.548 0.593653 116.593 0.775182C116.644 0.777285 116.552 0.86107 116.655 0.864903C117.89 0.911948 117.653 0.781731 118.47 0.622473C118.676 0.582482 119.303 0.77476 119.358 0.788854C119.56 0.840791 119.351 0.96544 119.418 0.975499C119.978 1.05448 119.887 0.642259 120.642 0.642126C120.665 0.642813 120.566 0.718688 120.629 0.726232C120.826 0.749917 121.021 0.719767 121.214 0.745885C121.655 0.806321 121.812 1.00663 122.485 0.89005C122.57 0.87492 122.44 0.64109 123.114 0.652136C123.383 0.656738 124.572 0.65273 124.905 0.667883C125.238 0.683018 125.01 0.758369 125.033 0.761632C125.93 0.861272 125.59 0.902568 126.04 1.05008C126.489 1.19704 126.364 0.846531 126.548 0.807409C126.731 0.768397 127.389 0.850607 127.55 0.879186C127.712 0.907777 127.51 0.955658 127.654 0.971837C128.606 1.07755 128.072 0.797855 128.386 0.742223C129.126 0.610497 129.702 0.870438 130.379 0.895909C130.562 0.902788 130.413 0.843585 130.576 0.838048C131.222 0.816904 131.611 0.898013 132.346 0.823644C132.467 0.811525 133.061 0.655241 133.446 0.769933C133.5 0.786471 133.346 0.851248 133.621 0.865758C134.033 0.887534 134.774 0.901692 135.216 0.88004C135.543 0.86402 135.169 0.757283 135.58 0.790441C135.762 0.805246 135.424 0.867688 135.767 0.890294C136.108 0.912893 136.981 0.91015 137.313 0.907994C137.645 0.905791 137.463 0.824826 137.49 0.819371C137.652 0.788126 138.289 0.749085 138.345 0.749181C141.181 0.739297 143.796 0.875772 146.558 0.830602C146.775 0.827174 146.63 0.741795 146.663 0.740392C147.405 0.70462 146.82 0.931622 147.339 1.0076C147.264 0.834345 147.57 0.865716 148.092 0.846715C148.344 0.837418 148.207 0.770331 148.23 0.763463C148.603 0.661566 148.863 0.79318 148.93 0.820104C149.178 0.919144 149.447 0.802121 149.615 0.868321C149.783 0.934027 149.396 1.03143 149.897 1.03019C150.038 0.968165 149.666 0.806089 150.046 0.779821C151.482 0.680461 154.162 0.807627 155.316 0.820836C156.468 0.834035 156.841 0.822592 157.512 0.845006C158.725 0.885533 158.28 0.765283 159.033 0.710241C159.788 0.655205 159.421 0.951079 159.53 1.01468C159.636 1.07826 159.753 1.01281 159.885 1.04776C160.017 1.08271 159.731 1.12595 160.042 1.13907C160.353 1.15218 161.203 1.03907 161.313 0.972569C161.546 0.831672 161.163 0.683794 161.986 0.735753C162.033 0.738837 161.879 0.816636 162.061 0.824498C163.499 0.884391 164.994 0.888103 166.432 0.941075C166.629 0.948481 166.452 1.03503 166.567 1.04032C167.765 1.09568 167.337 0.949745 167.994 0.787633C167.846 1.00337 168.209 1.13536 169.118 1.13663C169.665 1.13747 169.571 1.04325 169.924 0.976842C170.03 0.956823 170.417 1.02152 170.487 0.977208C170.718 0.83236 170.354 0.670211 171.291 0.734777C171.332 0.737845 171.201 0.817133 171.344 0.821935C172.262 0.853365 172.372 0.701856 173.365 0.683508C174.143 0.66911 175.527 0.761499 176.413 0.776525C176.395 1.01907 177.232 0.963534 177.571 0.7963C178.146 0.803147 178.767 0.793693 179.323 0.816808C179.514 0.824689 179.389 0.894913 179.413 0.902501C179.783 1.02153 180.033 0.858831 180.157 0.852452C181.502 0.790448 182.598 0.913761 183.882 0.793248C183.928 0.788908 184.002 0.620426 184.345 0.743444C184.367 0.751924 183.943 0.82858 184.547 0.834508C185.151 0.840449 186.29 0.930768 187.128 0.852696C187.331 0.833901 187.845 0.697128 188.257 0.803991C188.312 0.818502 188.251 0.866823 188.331 0.893712C188.587 0.979391 188.727 0.809097 189.028 0.95377C189.329 1.09844 189.955 1.20678 190.801 1.10697C190.828 1.10407 191.028 0.969092 191.294 0.971226C191.718 0.974749 192.321 1.00287 192.764 1.00199C192.977 1.00152 192.841 0.917706 192.878 0.916173C194.305 0.869207 195.321 0.943926 196.85 0.976353C197.13 0.982464 197.935 0.868173 198.478 0.958531C199.074 1.05745 198.461 1.46891 199.831 1.37088C200.383 1.33167 201.083 0.809653 202.075 1.08011C204 1.01309 205.781 1.15151 207.711 1.05582C207.798 1.05158 208.072 0.905889 208.277 0.907872C208.58 0.911098 208.746 0.979192 208.962 0.983677C209.869 1.00419 210.698 0.945929 211.572 0.954991C211.904 0.958284 211.788 1.02869 212.184 1.03263C212.58 1.0365 212.843 0.943782 213.379 0.98856C213.784 1.02269 214.189 1.2122 214.726 1.23429C214.747 1.04736 215.116 1.05121 215.772 1.00187C215.898 0.992292 215.763 0.927231 215.822 0.919347C216.065 0.885814 216.29 0.939735 216.52 0.903233C216.576 0.894467 216.579 0.83063 216.625 0.81986C217.015 0.725848 217.657 0.869442 217.767 0.894444C218.19 0.989396 218.387 0.906369 218.711 0.943761C219.035 0.981147 218.551 1.02788 218.929 1.05057C219.713 1.0975 220.72 1.08719 221.516 1.09012C221.833 1.0909 221.617 1.00569 221.662 1.00382C222.319 0.982207 222.983 1.07285 223.347 0.903111C223.802 1.34199 223.743 0.860543 224.682 0.948399C224.756 0.955505 224.85 1.16305 224.566 1.19352C224.282 1.22396 223.852 1.15908 223.458 1.20658C223.364 1.21772 222.83 1.4122 222.757 1.42398C222.186 1.51605 222.105 1.20591 222.075 1.18888C221.733 1.00505 221.08 1.21456 220.908 1.22904C220.121 1.29537 219.453 1.25176 218.795 1.29911C218.365 1.32971 218.323 1.53286 217.985 1.52664C216.862 1.50609 216.469 1.22269 215.411 1.46842C215.184 1.52083 215.41 1.74287 214.596 1.56827C214.545 1.55726 213.942 1.39754 213.593 1.49857C213.549 1.51131 213.55 1.57602 213.493 1.58145C213.105 1.61662 212.847 1.56506 212.425 1.58975C212.004 1.61445 211.496 1.65125 211.015 1.62931C210.725 1.61618 210.352 1.49562 210.213 1.4661C209.821 1.38107 209.4 1.52048 209.157 1.41751C208.912 1.31403 209.391 1.15687 208.749 1.09C208.725 1.25812 208.67 1.43069 208.632 1.59976C207.224 1.59384 205.838 1.53948 204.425 1.54691C204.25 1.548 204.429 1.63838 204.241 1.64188C203.449 1.65624 202.757 1.59181 201.935 1.61746C201.299 1.63767 200.601 1.73337 199.936 1.75748C199.53 1.5651 198.543 1.63041 197.826 1.61283C197.575 1.60675 197.592 1.55537 197.413 1.53861C196.739 1.47661 197.055 1.64662 196.87 1.67337C196.078 1.78756 196.01 1.40276 195.076 1.41226C195.026 1.41264 194.421 1.61775 194.338 1.63053C193.808 1.71382 194.25 1.55913 193.919 1.54398C193.314 1.51628 192.893 1.4673 192.183 1.52738C191.976 1.54517 191.48 1.67302 191.078 1.57413C191.025 1.56118 191.054 1.49338 191.011 1.48941C190.241 1.42323 190.221 1.63626 189.78 1.70841C189.34 1.78054 188.66 1.63348 188.522 1.5911C188.159 1.48145 188.799 1.54424 188.819 1.53348C189.049 1.40543 188.553 1.42748 188.174 1.41666C188.119 1.20778 187.589 1.22032 187.781 1.40628C187.803 1.4266 188.098 1.40712 188.174 1.41666C187.841 1.6216 187.259 1.64784 186.615 1.45633C186.314 1.36657 186.599 1.26192 185.684 1.3002C185.269 1.31749 185.429 1.46131 185.063 1.50052C184.226 1.58999 183.138 1.45582 182.275 1.47696C181.962 1.48464 182.267 1.56336 182.053 1.57132C181.485 1.59269 180.984 1.53362 180.413 1.56388C180.361 1.56672 180.488 1.64913 180.31 1.65018C178.965 1.65975 177.794 1.60696 176.39 1.6055C175.711 1.60483 174.498 1.65028 173.795 1.64115C172.577 1.62579 171.078 1.50595 170.038 1.53507C169.359 1.5537 169.508 1.63613 169.217 1.69229C168.656 1.80116 167.662 1.60616 167.528 1.57596C167.524 1.57496 168.108 1.55553 167.797 1.51322C167.616 1.42505 167.535 1.57558 167.528 1.57596C167.441 1.55645 166.274 1.53774 166.042 1.5535C165.916 1.56211 165.987 1.64021 165.921 1.64322C164.361 1.71311 162.798 1.73296 161.215 1.69644C161.188 1.69487 161.23 1.60751 161.164 1.60489C160.248 1.56605 159.661 1.67291 158.906 1.73636C158.15 1.79978 157.551 1.77854 157.104 1.62857C156.534 1.64745 155.716 1.58116 155.246 1.54093C154.775 1.5007 154.71 1.67074 154.668 1.6741C153.377 1.7817 152.63 1.68437 151.29 1.66922C150.653 1.66173 149.39 1.68639 148.7 1.70499C148.155 1.71997 147.827 1.68012 147.325 1.7056C147.257 1.709 147.325 1.78471 147.305 1.78763C146.744 1.87822 147.013 1.69312 146.898 1.66007C146.478 1.53985 146.219 1.47583 145.501 1.53238C145.336 1.54533 144.853 1.81184 144.552 1.82742C144.159 1.8472 144.307 1.75167 143.896 1.77481C143.861 1.77671 143.869 1.83564 143.615 1.83304C142.438 1.82175 141.155 1.78746 139.931 1.79337C139.764 1.79395 139.978 1.88742 139.737 1.8898C138.604 1.90088 137.363 1.89742 136.259 1.85367C135.988 1.84261 136.158 1.77716 136.099 1.75772C135.737 1.64014 135.223 1.81099 135.139 1.81424C133.118 1.89634 131.572 1.74173 129.512 1.81534C129.4 1.81966 128.537 2.00281 128.152 1.84574C128.126 1.83528 127.745 1.67458 127.408 1.78446C127.387 1.79133 127.625 1.87407 127.211 1.86563C126.796 1.85722 126.13 1.91247 125.56 1.82157C125.38 1.79293 124.954 1.63262 124.417 1.76041C124.381 1.76933 123.551 2.05828 123.255 1.85892C123.207 1.8261 123.257 1.61513 122.616 1.7233C122.493 1.74427 122.716 1.79133 122.393 1.82071C121.898 1.866 121.242 1.80949 120.634 1.90347C120.528 1.92011 120.076 2.06331 119.714 1.95462C119.657 1.9376 119.765 1.86717 119.573 1.85929C118.664 1.82148 117.711 1.86859 116.787 1.81986C116.46 1.80273 116.627 1.68887 116.286 1.65836C115.945 1.62786 115.258 1.59851 114.901 1.65055C114.544 1.7026 114.934 1.88407 114.399 1.89859C112.074 1.96166 109.771 1.8552 107.449 1.83963C107.105 1.83731 107.39 1.90224 106.883 1.90347C105.012 1.90831 101.782 1.96919 100.159 1.83121C98.8582 1.72069 100.495 1.63656 99.5012 1.59159C99.0215 1.57013 98.5026 1.78111 98.3869 1.78775C97.2558 1.85522 96.4697 1.76176 95.4517 1.79044C95.2415 1.79639 95.4476 1.8819 95.2687 1.88602C94.6576 1.90085 94.0153 1.86268 93.4313 1.86966C93.1693 1.87299 93.2176 1.9383 92.9765 1.93326C92.3997 1.92195 91.8896 1.8945 91.3273 1.83328C91.2761 1.82771 91.6216 1.74646 91.1949 1.74344C90.5042 1.73878 89.6468 1.67839 88.8521 1.74076C88.6163 1.75951 88.6071 1.90878 88.1003 1.8057C87.9939 1.78417 88.1296 1.60493 87.5392 1.7598C87.4399 1.78553 86.4481 1.99442 85.9614 1.85977C85.833 1.82434 85.5053 1.67767 85.2217 1.70072C85.1833 1.70439 85.3373 1.78457 85.1024 1.79239C84.2743 1.81856 83.4065 1.81 82.5558 1.83512C82.3286 1.84198 82.667 1.92495 82.3284 1.93253C81.3973 1.9535 80.2348 1.93237 79.3244 1.9064C78.9887 1.89667 79.2207 1.82795 79.1963 1.82047C78.8035 1.69882 78.5713 1.86302 78.441 1.87259C77.6302 1.92992 77.0128 1.85279 76.2655 1.8732C76.0593 1.87863 76.2055 1.95692 76.1644 1.9639C75.7387 2.03211 76.0558 1.89151 75.7863 1.87601C75.0313 1.83212 74.1897 1.83842 73.4262 1.84842C73.1457 1.85221 73.4609 1.94299 73.2092 1.94534C71.7196 1.96099 70.171 1.9523 68.7172 1.90225C68.4434 1.89267 68.6157 1.82276 68.5586 1.80679C68.1654 1.69509 67.5891 1.84746 67.4565 1.86197C66.8536 1.92824 66.6194 1.86642 66.0869 1.87796C63.4859 1.93541 60.2743 1.89447 57.819 1.86917C54.6195 1.83662 52.1368 1.77012 49.0858 1.78739C48.8919 1.7884 49.0874 1.88139 48.9203 1.88345C46.7621 1.90587 44.6374 1.86953 42.4749 1.89639C42.2975 1.89843 42.5533 1.98659 42.2684 1.99283C41.6842 2.00624 40.9442 2.00145 40.3535 1.9733C40.0654 1.95974 40.4518 1.88409 40.1618 1.87198C39.4866 1.84362 38.7627 1.83734 38.0691 1.85147C37.774 1.85768 38.2193 1.94784 37.8356 1.94888C35.2222 1.95783 32.6556 1.97336 30.0146 1.8566C29.8336 1.84858 29.6747 1.66533 29.2898 1.70047C29.2608 1.75133 29.2623 1.81115 29.2497 1.86551C25.4452 1.89479 21.6796 1.83127 17.8645 1.82144C17.7036 1.82105 17.9816 1.91815 17.6702 1.91788C15.8678 1.91644 14.1175 1.94334 12.2738 1.84683C12.0909 1.8374 12.1847 1.66658 11.6456 1.69242C11.5506 1.69713 10.7386 1.71991 10.5287 1.75699C10.5002 1.76258 10.6483 1.84231 10.3867 1.84464C8.86632 1.85674 7.27304 1.83854 5.75527 1.78983C5.51032 1.78181 5.77118 1.69691 5.59671 1.69046C4.35912 1.64539 3.01297 1.70993 1.83039 1.63285C1.03881 1.58094 1.33188 1.43417 0.911244 1.28971C0.85175 1.26932 0.361582 1.26609 0.336234 1.18204C0.271157 0.970681 0.508579 0.739242 0.411159 0.513952C0.390577 0.465427 -0.265885 0.517692 0.122783 0.400427C0.149935 0.392579 0.625873 0.35366 0.743097 0.31388C0.824712 0.286376 0.677639 0.200894 0.84416 0.165687C1.01067 0.130513 1.19364 0.202169 1.4697 0.160804C1.74564 0.118927 1.62431 0.0216813 2.1754 0.0101698ZM153.127 1.36112C152.691 1.27946 152.627 1.57855 153.098 1.50699C153.121 1.50318 153.149 1.36512 153.127 1.36112ZM205.846 1.31388C205.276 1.18195 204.886 1.37593 205.288 1.47782C205.69 1.57959 206.019 1.35387 205.846 1.31388ZM211.753 1.21756C211.087 1.11355 210.982 1.53768 211.695 1.45194C211.737 1.44709 211.792 1.2236 211.753 1.21756ZM2.86192 1.24857C2.85591 1.2446 2.50356 1.24073 2.49514 1.24466C2.30752 1.33965 3.01208 1.34733 2.86192 1.24857ZM217.614 1.11271C217.407 1.05533 216.808 1.12156 217.066 1.19291C217.274 1.2503 217.873 1.18407 217.614 1.11271ZM130.398 1.0419C130.391 1.03745 130.138 1.03343 130.143 1.05863C130.16 1.13977 130.512 1.11687 130.398 1.0419ZM227.577 1.10782C226.105 1.09186 225.213 0.741508 226.815 0.781041C227.106 0.788194 226.19 0.892765 226.559 0.924351C227.235 0.981896 227.684 0.761919 228.374 0.879796C228.499 0.901371 227.661 1.10951 227.574 1.10831C227.575 1.10815 227.576 1.10799 227.577 1.10782ZM152.876 1.00187C152.867 0.997911 152.518 0.994161 152.509 0.998082C152.32 1.09304 153.024 1.10065 152.876 1.00187ZM115.657 0.856969C115.638 0.848541 114.826 0.840659 114.8 0.848424C114.377 1.0037 116.017 1.0201 115.657 0.856969ZM176.427 0.782995C176.809 0.68747 177.265 0.676223 177.569 0.796178C177.19 0.78981 176.808 0.788872 176.427 0.782995Z" fill="var(--stroke-0, white)"/>
</svg>
