<svg preserveAspectRatio="none" width="100%" height="100%" overflow="visible" style="display: block;" viewBox="0 0 13 7" fill="none" xmlns="http://www.w3.org/2000/svg">
<path id="Vector 91" d="M13 7C13 7 13 7 13 7C12.7347 7 12.4694 7 12.2041 6.99908C9.80003 6.97479 7.27459 6.96914 5.09167 5.845C4.98284 5.78756 4.87596 5.72731 4.7705 5.66412C2.84359 4.49551 1.59919 2.54456 0.419843 0.67616C0.279344 0.451254 0.139679 0.225634 0 0C0.139679 0.225634 0.279344 0.451254 0.419843 0.67616C1.59919 2.54456 2.84359 4.49551 4.7705 5.66412C4.87596 5.72731 4.98284 5.78756 5.09167 5.845C7.27459 6.96914 9.80003 6.97479 12.2041 6.99908C12.4694 7 12.7347 7 13 7Z" fill="var(--stroke-0, white)"/>
</svg>
