<svg preserveAspectRatio="none" width="100%" height="100%" overflow="visible" style="display: block;" viewBox="0 0 378 3" fill="none" xmlns="http://www.w3.org/2000/svg">
<path id="Line 51" d="M3.60047 0.0152547C5.71868 -0.0238245 8.4953 0.0179606 10.6055 0.0753131C11.2668 0.0931009 10.932 0.172613 11.3885 0.188472C12.2814 0.219387 13.1132 0.180391 13.9955 0.217219C14.288 0.229814 13.924 0.355761 14.2306 0.366084C15.9108 0.421745 17.5004 0.389665 19.2025 0.416438C27.5864 0.548528 35.8276 0.595807 44.3142 0.653192C47.1124 0.672006 50.514 0.786308 53.4043 0.736322C53.7417 0.730373 53.5405 0.619823 53.6047 0.610712C54.6116 0.471225 54.2768 0.694402 54.9342 0.724054C57.5434 0.841131 60.4448 0.851313 62.9558 0.808648C64.0241 0.790173 62.953 0.570593 64.0286 0.693841C64.1033 0.702169 63.8323 0.819565 64.1252 0.832086C64.7896 0.860247 66.0501 0.839264 66.565 0.848565C67.5574 0.867085 67.7216 0.865904 68.6602 0.867242C69.9433 0.870092 71.4695 0.928449 72.8462 0.901849C73.1401 0.895822 72.751 0.775478 73.2197 0.754998C73.6887 0.734553 74.9297 0.744757 75.348 0.773126C75.7665 0.801509 75.5883 0.896098 75.6623 0.917779C76.2716 1.10077 77.707 0.847326 77.8916 0.841058C81.259 0.73426 84.1467 0.87864 87.3076 0.878228C89.7072 0.877609 92.2731 0.829944 94.5563 0.83648C97.2765 0.844733 99.582 0.909946 102.225 0.898736C102.504 0.897691 102.177 0.756194 102.517 0.754632C106.136 0.738167 109.73 0.753591 113.334 0.849114C113.695 0.858819 113.229 0.983052 113.59 1.00018C115.801 1.10227 119.298 1.34754 120.611 0.806634C122.108 0.827755 123.926 0.849578 125.266 0.958611C126.129 1.02879 125.291 1.16413 126.352 1.10638C126.591 1.09351 126.28 0.974986 126.638 0.964654C128.149 0.921264 129.8 0.959791 131.295 0.898553C131.599 0.885818 131.516 0.779616 131.602 0.760492C132.326 0.605612 133.531 0.861638 133.793 0.880242C135.794 1.01897 137.255 0.964379 139.119 0.967766C139.551 0.968612 139.04 0.825959 139.456 0.821649C141.614 0.801203 143.85 0.813464 145.964 0.876763C146.434 0.891186 146.001 1.0127 146.226 1.02581C147.217 1.08214 147.436 0.852626 148.386 0.902215C148.586 0.912374 148.474 1.0164 148.51 1.02782C149.082 1.20717 149.579 0.953052 149.726 0.947442C151.586 0.870784 152.775 1.13607 154.572 1.0985C154.787 1.09374 154.302 0.962118 154.907 0.95678C158.933 0.920444 163.191 0.956602 167.176 1.06188C167.796 1.07807 167.354 1.17695 167.393 1.18914C168.028 1.37959 168.439 1.12441 168.641 1.1148C170.235 1.04562 171.724 1.25962 172.807 0.955681C179.557 1.06116 186.277 0.89048 192.971 1.16277C193.057 1.16593 192.904 1.2916 193.074 1.29736C195.119 1.36792 194.726 1.1726 196.079 0.933709C196.42 0.873723 197.456 1.16214 197.548 1.18328C197.882 1.26119 197.536 1.44816 197.648 1.46325C198.574 1.58172 198.423 0.963388 199.672 0.963189C199.711 0.96422 199.547 1.07803 199.652 1.08935C199.978 1.12488 200.301 1.07965 200.62 1.11883C201.349 1.20948 201.609 1.50994 202.723 1.33507C202.864 1.31238 202.649 0.961634 203.765 0.978203C204.209 0.985106 206.178 0.979094 206.729 1.00182C207.28 1.02453 206.902 1.13755 206.941 1.14245C208.426 1.29191 207.863 1.35385 208.607 1.57513C209.35 1.79556 209.144 1.2698 209.447 1.21111C209.751 1.1526 210.839 1.27591 211.107 1.31878C211.374 1.36167 211.041 1.43349 211.279 1.45776C212.855 1.61632 211.97 1.19678 212.49 1.11333C213.714 0.915746 214.668 1.30566 215.789 1.34386C216.092 1.35418 215.845 1.26538 216.115 1.25707C217.185 1.22536 217.828 1.34702 219.045 1.23547C219.244 1.21729 220.228 0.982862 220.865 1.1549C220.955 1.17971 220.699 1.27687 221.155 1.29864C221.836 1.3313 223.063 1.35254 223.795 1.32006C224.335 1.29603 223.716 1.13593 224.396 1.18566C224.698 1.20787 224.138 1.30153 224.706 1.33544C225.271 1.36934 226.716 1.36523 227.266 1.36199C227.814 1.35869 227.514 1.23724 227.558 1.22906C227.827 1.18219 228.88 1.12363 228.973 1.12377C233.667 1.10895 237.996 1.31366 242.566 1.2459C242.925 1.24076 242.686 1.11269 242.741 1.11059C243.968 1.05693 243 1.39743 243.858 1.5114C243.734 1.25152 244.241 1.29857 245.105 1.27007C245.522 1.25613 245.295 1.1555 245.333 1.14519C245.951 0.992349 246.382 1.18977 246.493 1.23016C246.902 1.37872 247.347 1.20318 247.626 1.30248C247.904 1.40104 247.264 1.54715 248.093 1.54528C248.326 1.45225 247.71 1.20913 248.34 1.16973C250.716 1.02069 255.152 1.21144 257.062 1.23125C258.969 1.25105 259.585 1.23389 260.696 1.26751C262.703 1.3283 261.967 1.14792 263.214 1.06536C264.463 0.982808 263.856 1.42662 264.035 1.52202C264.212 1.61739 264.404 1.51922 264.624 1.57165C264.843 1.62406 264.369 1.68893 264.883 1.70861C265.398 1.72827 266.805 1.55861 266.987 1.45885C267.373 1.24751 266.739 1.02569 268.1 1.10363C268.179 1.10826 267.925 1.22495 268.224 1.23675C270.606 1.32659 273.08 1.33215 275.459 1.41161C275.786 1.42272 275.493 1.55254 275.684 1.56048C277.666 1.64351 276.957 1.42462 278.044 1.18145C277.8 1.50505 278.401 1.70304 279.906 1.70495C280.81 1.70621 280.654 1.56487 281.24 1.46526C281.415 1.43523 282.055 1.53228 282.171 1.46581C282.553 1.24854 281.951 1.00532 283.502 1.10217C283.57 1.10677 283.353 1.2257 283.588 1.2329C285.109 1.28005 285.291 1.05278 286.934 1.02526C288.222 1.00367 290.513 1.14225 291.979 1.16479C291.948 1.52861 293.334 1.4453 293.896 1.19445C294.847 1.20472 295.875 1.19054 296.795 1.22521C297.112 1.23703 296.904 1.34237 296.944 1.35375C297.556 1.5323 297.97 1.28825 298.175 1.27868C300.402 1.18567 302.216 1.37064 304.341 1.18987C304.417 1.18336 304.539 0.930638 305.107 1.11517C305.144 1.12789 304.442 1.24287 305.441 1.25176C306.441 1.26067 308.326 1.39615 309.714 1.27904C310.05 1.25085 310.899 1.04569 311.581 1.20599C311.672 1.22775 311.573 1.30023 311.704 1.34057C312.128 1.46909 312.359 1.21365 312.857 1.43066C313.356 1.64766 314.392 1.81017 315.792 1.66045C315.836 1.6561 316.168 1.45364 316.608 1.45684C317.311 1.46212 318.308 1.5043 319.042 1.50298C319.393 1.50228 319.168 1.37656 319.229 1.37426C321.592 1.30381 323.273 1.41589 325.803 1.46453C326.267 1.4737 327.6 1.30226 328.498 1.4378C329.484 1.58617 328.471 2.20337 330.738 2.05632C331.652 1.99751 332.809 1.21448 334.452 1.62017C337.638 1.51964 340.585 1.72727 343.78 1.58373C343.924 1.57737 344.378 1.35883 344.716 1.36181C345.217 1.36665 345.493 1.46879 345.851 1.47552C347.351 1.50628 348.724 1.41889 350.171 1.43249C350.72 1.43743 350.528 1.54304 351.183 1.54894C351.838 1.55475 352.274 1.41567 353.162 1.48284C353.832 1.53404 354.501 1.8183 355.391 1.85143C355.425 1.57104 356.036 1.57682 357.121 1.5028C357.33 1.48844 357.106 1.39085 357.205 1.37902C357.607 1.32872 357.978 1.4096 358.36 1.35485C358.453 1.3417 358.457 1.24594 358.533 1.22979C359.178 1.08877 360.241 1.30416 360.423 1.34167C361.123 1.48409 361.45 1.35955 361.986 1.41564C362.522 1.47172 361.721 1.54183 362.347 1.57586C363.644 1.64625 365.311 1.63078 366.628 1.63518C367.154 1.63635 366.795 1.50853 366.87 1.50573C367.957 1.47331 369.056 1.60927 369.659 1.35467C370.412 2.01298 370.314 1.29081 371.868 1.4226C371.99 1.43326 372.146 1.74457 371.676 1.79027C371.206 1.83593 370.494 1.73862 369.842 1.80987C369.688 1.82658 368.803 2.1183 368.683 2.13598C367.738 2.27408 367.604 1.80887 367.554 1.78332C366.987 1.50757 365.906 1.82184 365.621 1.84356C364.32 1.94306 363.214 1.87764 362.125 1.94866C361.413 1.99456 361.343 2.29929 360.784 2.28997C358.925 2.25914 358.276 1.83403 356.524 2.20263C356.149 2.28124 356.522 2.6143 355.176 2.35241C355.091 2.33589 354.092 2.09631 353.515 2.24785C353.442 2.26696 353.445 2.36403 353.349 2.37218C352.708 2.42493 352.281 2.3476 351.583 2.38463C350.884 2.42167 350.045 2.47688 349.248 2.44396C348.768 2.42427 348.151 2.24342 347.921 2.19915C347.272 2.0716 346.576 2.28072 346.174 2.12627C345.768 1.97104 346.561 1.7353 345.497 1.635C345.458 1.88719 345.368 2.14603 345.304 2.39965C342.973 2.39077 340.68 2.30922 338.341 2.32036C338.051 2.322 338.348 2.45757 338.037 2.46282C336.725 2.48436 335.58 2.38771 334.22 2.4262C333.167 2.45651 332.013 2.60005 330.912 2.63622C330.24 2.34765 328.606 2.44561 327.42 2.41924C327.004 2.41013 327.032 2.33305 326.736 2.30791C325.621 2.21492 326.144 2.46993 325.838 2.51006C324.526 2.68133 324.414 2.10414 322.867 2.1184C322.786 2.11896 321.784 2.42663 321.646 2.44579C320.77 2.57073 321.501 2.3387 320.952 2.31597C319.951 2.27442 319.255 2.20095 318.08 2.29107C317.737 2.31776 316.916 2.50953 316.25 2.36119C316.163 2.34177 316.211 2.24007 316.141 2.23412C314.865 2.13484 314.832 2.45439 314.103 2.56261C313.374 2.67081 312.249 2.45022 312.02 2.38665C311.42 2.22218 312.479 2.31636 312.511 2.30022C312.893 2.10815 312.072 2.14122 311.444 2.12499C311.353 1.81167 310.476 1.83048 310.794 2.10943C310.83 2.13989 311.318 2.11068 311.444 2.12499C310.894 2.4324 309.929 2.47177 308.865 2.1845C308.366 2.04986 308.837 1.89288 307.323 1.95031C306.636 1.97623 306.901 2.19197 306.295 2.25078C304.909 2.38498 303.109 2.18373 301.681 2.21544C301.162 2.22695 301.667 2.34505 301.313 2.35698C300.373 2.38903 299.543 2.30042 298.599 2.34581C298.514 2.35008 298.723 2.47369 298.429 2.47527C296.203 2.48963 294.265 2.41045 291.94 2.40825C290.817 2.40725 288.809 2.47543 287.646 2.46172C285.63 2.43869 283.149 2.25893 281.427 2.3026C280.304 2.33055 280.55 2.4542 280.069 2.53844C279.14 2.70174 277.496 2.40923 277.274 2.36394C277.267 2.36244 278.234 2.33329 277.718 2.26983C277.418 2.13758 277.285 2.36337 277.274 2.36394C277.129 2.33468 275.198 2.30661 274.814 2.33025C274.606 2.34317 274.722 2.46031 274.614 2.46483C272.031 2.56967 269.445 2.59944 266.826 2.54467C266.78 2.5423 266.849 2.41127 266.741 2.40734C265.224 2.34908 264.254 2.50937 263.003 2.60454C261.753 2.69967 260.761 2.66781 260.021 2.44286C259.078 2.47118 257.724 2.37173 256.945 2.31139C256.167 2.25105 256.058 2.50612 255.989 2.51116C253.852 2.67255 252.616 2.52655 250.399 2.50383C249.345 2.49259 247.253 2.52959 246.112 2.55748C245.21 2.57995 244.666 2.52018 243.835 2.5584C243.723 2.5635 243.836 2.67707 243.802 2.68144C242.874 2.81732 243.32 2.53969 243.129 2.4901C242.434 2.30978 242.005 2.21375 240.817 2.29857C240.543 2.318 239.745 2.71776 239.245 2.74114C238.596 2.7708 238.841 2.62751 238.161 2.66222C238.103 2.66506 238.115 2.75346 237.695 2.74956C235.747 2.73263 233.623 2.68119 231.599 2.69005C231.322 2.69092 231.677 2.83114 231.277 2.8347C229.402 2.85132 227.347 2.84614 225.521 2.7805C225.071 2.76391 225.353 2.66573 225.255 2.63658C224.656 2.46021 223.807 2.71648 223.666 2.72136C220.322 2.84451 217.763 2.61259 214.354 2.72301C214.169 2.72949 212.741 3.00422 212.103 2.7686C212.06 2.75293 211.429 2.51187 210.872 2.67668C210.837 2.687 211.23 2.8111 210.545 2.79845C209.859 2.78583 208.756 2.8687 207.814 2.73235C207.515 2.68939 206.81 2.44893 205.92 2.64061C205.862 2.65399 204.488 3.08742 203.998 2.78838C203.919 2.73915 204.002 2.4227 202.94 2.58495C202.737 2.6164 203.105 2.68699 202.571 2.73107C201.751 2.799 200.666 2.71424 199.659 2.85521C199.484 2.88017 198.736 3.09496 198.137 2.93193C198.043 2.9064 198.221 2.80075 197.904 2.78893C196.399 2.73221 194.822 2.80288 193.293 2.72978C192.752 2.7041 193.028 2.53331 192.464 2.48754C191.899 2.44178 190.762 2.39777 190.171 2.47582C189.58 2.5539 190.226 2.82611 189.341 2.84789C185.492 2.94249 181.681 2.78281 177.838 2.75945C177.268 2.75596 177.741 2.85336 176.901 2.85521C173.804 2.86246 168.459 2.95378 165.772 2.74681C163.619 2.58104 166.328 2.45484 164.683 2.38738C163.889 2.3552 163.03 2.67166 162.839 2.68163C160.967 2.78283 159.666 2.64265 157.981 2.68566C157.633 2.69458 157.974 2.82285 157.678 2.82903C156.667 2.85127 155.603 2.79402 154.637 2.80449C154.203 2.80948 154.283 2.90745 153.884 2.89989C152.93 2.88293 152.085 2.84175 151.155 2.74993C151.07 2.74156 151.642 2.61969 150.935 2.61516C149.792 2.60817 148.373 2.51759 147.058 2.61113C146.668 2.63927 146.652 2.86317 145.814 2.70854C145.638 2.67625 145.862 2.4074 144.885 2.6397C144.721 2.6783 143.079 2.99163 142.274 2.78966C142.061 2.7365 141.519 2.5165 141.049 2.55107C140.986 2.55659 141.241 2.67686 140.852 2.68859C139.481 2.72784 138.045 2.715 136.637 2.75267C136.261 2.76297 136.821 2.88742 136.261 2.89879C134.72 2.93025 132.796 2.89856 131.289 2.85961C130.733 2.84501 131.117 2.74192 131.077 2.7307C130.427 2.54823 130.042 2.79452 129.827 2.80889C128.485 2.89488 127.463 2.77918 126.226 2.8098C125.885 2.81794 126.127 2.93538 126.059 2.94585C125.354 3.04816 125.879 2.83726 125.433 2.81401C124.183 2.74819 122.79 2.75762 121.527 2.77263C121.063 2.77832 121.584 2.91449 121.168 2.91802C118.702 2.94148 116.139 2.92845 113.733 2.85338C113.28 2.839 113.565 2.73414 113.471 2.71019C112.82 2.54264 111.866 2.77118 111.646 2.79296C110.649 2.89236 110.261 2.79964 109.38 2.81694C105.075 2.90311 99.7592 2.8417 95.6955 2.80376C90.4001 2.75493 86.291 2.65518 81.2413 2.68108C80.9203 2.68259 81.244 2.82209 80.9673 2.82518C77.3953 2.85881 73.8788 2.8043 70.2997 2.84459C70.006 2.84765 70.4294 2.97989 69.958 2.98924C68.991 3.00936 67.7662 3.00217 66.7885 2.95995C66.3117 2.9396 66.9513 2.82613 66.4713 2.80797C65.3537 2.76543 64.1557 2.75601 63.0077 2.77721C62.5192 2.78652 63.2563 2.92177 62.6213 2.92333C58.2959 2.93674 54.0478 2.96004 49.6768 2.7849C49.3772 2.77287 49.1142 2.498 48.4771 2.55071C48.4291 2.62699 48.4317 2.71673 48.4108 2.79827C42.1141 2.84219 35.8816 2.7469 29.5673 2.73217C29.301 2.73158 29.7611 2.87722 29.2457 2.87682C26.2625 2.87466 23.3657 2.91501 20.3142 2.77025C20.0114 2.75609 20.1668 2.49987 19.2746 2.53862C19.1172 2.54569 17.7734 2.57987 17.426 2.63549C17.3788 2.64388 17.6239 2.76347 17.1909 2.76695C14.6745 2.78512 12.0375 2.75781 9.52548 2.68474C9.12006 2.67272 9.5518 2.54536 9.26304 2.53569C7.21472 2.46809 4.98673 2.5649 3.02945 2.44927C1.71933 2.37141 2.20437 2.15126 1.50819 1.93456C1.40972 1.90399 0.59845 1.89914 0.556496 1.77306C0.448789 1.45602 0.841743 1.10886 0.680504 0.770929C0.646439 0.69814 -0.440062 0.776538 0.203216 0.600641C0.248156 0.588869 1.03587 0.53049 1.22989 0.47082C1.36497 0.429565 1.12155 0.301341 1.39716 0.24853C1.67274 0.195769 1.97557 0.303253 2.43248 0.241206C2.88919 0.178391 2.68837 0.032522 3.60047 0.0152547ZM253.439 2.04168C252.717 1.91918 252.611 2.36783 253.391 2.26049C253.429 2.25477 253.476 2.04769 253.439 2.04168ZM340.693 1.97081C339.75 1.77293 339.105 2.0639 339.77 2.21672C340.435 2.36939 340.98 2.0308 340.693 1.97081ZM350.469 1.82635C349.367 1.67032 349.194 2.30652 350.374 2.17791C350.443 2.17064 350.534 1.8354 350.469 1.82635ZM4.73673 1.87285C4.72678 1.8669 4.14361 1.86109 4.12967 1.86699C3.81914 2.00948 4.98525 2.02099 4.73673 1.87285ZM360.171 1.66906C359.827 1.583 358.837 1.68234 359.264 1.78936C359.608 1.87545 360.599 1.77611 360.171 1.66906ZM215.819 1.56286C215.808 1.55617 215.39 1.55015 215.398 1.58794C215.427 1.70966 216.008 1.67531 215.819 1.56286ZM376.66 1.66173C374.224 1.63779 372.746 1.11226 375.399 1.17156C375.88 1.18229 374.364 1.33915 374.975 1.38653C376.094 1.47284 376.837 1.14288 377.979 1.31969C378.186 1.35206 376.799 1.66427 376.655 1.66247C376.657 1.66222 376.658 1.66198 376.66 1.66173ZM253.023 1.5028C253.009 1.49687 252.43 1.49124 252.416 1.49712C252.103 1.63955 253.269 1.65097 253.023 1.5028ZM191.423 1.28545C191.391 1.27281 190.048 1.26099 190.004 1.27264C189.303 1.50555 192.019 1.53014 191.423 1.28545ZM292.002 1.17449C292.634 1.03121 293.389 1.01433 293.893 1.19427C293.265 1.18472 292.633 1.18331 292.002 1.17449Z" fill="var(--stroke-0, #FF8700)"/>
</svg>
