<svg preserveAspectRatio="none" width="100%" height="100%" overflow="visible" style="display: block;" viewBox="0 0 982 3" fill="none" xmlns="http://www.w3.org/2000/svg">
<path id="Line 66" d="M9.3536 0.0152547C14.8565 -0.0238245 22.0698 0.0179606 27.5519 0.0753131C29.27 0.0931009 28.4 0.172613 29.586 0.188472C31.9056 0.219387 34.0666 0.180391 36.3588 0.217219C37.1185 0.229814 36.1729 0.355761 36.9694 0.366084C41.3344 0.421745 45.4639 0.389665 49.8858 0.416438C71.6663 0.548528 93.0761 0.595807 115.123 0.653192C122.393 0.672006 131.229 0.786308 138.738 0.736322C139.615 0.730373 139.092 0.619823 139.259 0.610712C141.874 0.471225 141.005 0.694402 142.713 0.724054C149.491 0.841131 157.029 0.851313 163.552 0.808648C166.327 0.790173 163.545 0.570593 166.339 0.693841C166.533 0.702169 165.829 0.819565 166.59 0.832086C168.316 0.860247 171.59 0.839264 172.928 0.848565C175.506 0.867085 175.933 0.865904 178.371 0.867242C181.705 0.870092 185.669 0.928449 189.246 0.901849C190.009 0.895822 188.999 0.775478 190.216 0.754998C191.435 0.734553 194.659 0.744757 195.745 0.773126C196.832 0.801509 196.37 0.896098 196.562 0.917779C198.145 1.10077 201.874 0.847326 202.353 0.841058C211.101 0.73426 218.603 0.87864 226.815 0.878228C233.049 0.877609 239.715 0.829944 245.646 0.83648C252.713 0.844733 258.702 0.909946 265.568 0.898736C266.292 0.897691 265.443 0.756194 266.328 0.754632C275.73 0.738167 285.066 0.753591 294.427 0.849114C295.366 0.858819 294.156 0.983052 295.094 1.00018C300.837 1.10227 309.923 1.34754 313.334 0.806634C317.223 0.827755 321.946 0.849578 325.426 0.958611C327.67 1.02879 325.49 1.16413 328.247 1.10638C328.868 1.09351 328.06 0.974986 328.992 0.964654C332.917 0.921264 337.205 0.959791 341.088 0.898553C341.878 0.885818 341.662 0.779616 341.886 0.760492C343.766 0.605612 346.897 0.861638 347.58 0.880242C352.777 1.01897 356.572 0.964379 361.414 0.967766C362.538 0.968612 361.209 0.825959 362.291 0.821649C367.898 0.801203 373.706 0.813464 379.196 0.876763C380.418 0.891186 379.295 1.0127 379.878 1.02581C382.451 1.08214 383.022 0.852626 385.49 0.902215C386.01 0.912374 385.717 1.0164 385.812 1.02782C387.297 1.20717 388.588 0.953052 388.97 0.947442C393.803 0.870784 396.892 1.13607 401.56 1.0985C402.119 1.09374 400.859 0.962118 402.429 0.95678C412.889 0.920444 423.951 0.956602 434.304 1.06188C435.914 1.07807 434.765 1.17695 434.866 1.18914C436.517 1.37959 437.586 1.12441 438.11 1.1148C442.251 1.04562 446.119 1.25962 448.933 0.955681C466.469 1.06116 483.926 0.89048 501.317 1.16277C501.538 1.16593 501.142 1.2916 501.583 1.29736C506.895 1.36792 505.875 1.1726 509.39 0.933709C510.276 0.873723 512.969 1.16214 513.207 1.18328C514.075 1.26119 513.175 1.44816 513.466 1.46325C515.872 1.58172 515.48 0.963388 518.725 0.963189C518.827 0.96422 518.4 1.07803 518.673 1.08935C519.519 1.12488 520.358 1.07965 521.186 1.11883C523.082 1.20948 523.757 1.50994 526.652 1.33507C527.018 1.31238 526.459 0.961634 529.356 0.978203C530.512 0.985106 535.625 0.979094 537.058 1.00182C538.49 1.02453 537.507 1.13755 537.609 1.14245C541.466 1.29191 540.003 1.35385 541.936 1.57513C543.868 1.79556 543.332 1.2698 544.12 1.21111C544.909 1.1526 547.736 1.27591 548.431 1.31878C549.126 1.36167 548.26 1.43349 548.877 1.45776C552.972 1.61632 550.674 1.19678 552.024 1.11333C555.205 0.915746 557.682 1.30566 560.595 1.34386C561.383 1.35418 560.74 1.26538 561.441 1.25707C564.22 1.22536 565.892 1.34702 569.053 1.23547C569.57 1.21729 572.126 0.982862 573.781 1.1549C574.015 1.17971 573.349 1.27687 574.534 1.29864C576.303 1.3313 579.491 1.35254 581.393 1.32006C582.797 1.29603 581.187 1.13593 582.955 1.18566C583.74 1.20787 582.285 1.30153 583.76 1.33544C585.228 1.36934 588.981 1.36523 590.409 1.36199C591.835 1.35869 591.055 1.23724 591.17 1.22906C591.867 1.18219 594.603 1.12363 594.845 1.12377C607.04 1.10895 618.285 1.31366 630.159 1.2459C631.09 1.24076 630.47 1.11269 630.612 1.11059C633.802 1.05693 631.287 1.39743 633.515 1.5114C633.193 1.25152 634.508 1.29857 636.755 1.27007C637.838 1.25613 637.248 1.1555 637.347 1.14519C638.953 0.992349 640.071 1.18977 640.359 1.23016C641.423 1.37872 642.58 1.20318 643.304 1.30248C644.027 1.40104 642.362 1.54715 644.517 1.54528C645.121 1.45225 643.522 1.20913 645.158 1.16973C651.331 1.02069 662.854 1.21144 667.818 1.23125C672.771 1.25105 674.371 1.23389 677.258 1.26751C682.472 1.3283 680.561 1.14792 683.798 1.06536C687.045 0.982808 685.467 1.42662 685.933 1.52202C686.392 1.61739 686.892 1.51922 687.462 1.57165C688.03 1.62406 686.8 1.68893 688.136 1.70861C689.473 1.72827 693.128 1.55861 693.602 1.45885C694.603 1.24751 692.956 1.02569 696.494 1.10363C696.697 1.10826 696.037 1.22495 696.816 1.23675C703.003 1.32659 709.43 1.33215 715.61 1.41161C716.459 1.42272 715.699 1.55254 716.194 1.56048C721.345 1.64351 719.503 1.42462 722.326 1.18145C721.692 1.50505 723.253 1.70304 727.162 1.70495C729.512 1.70621 729.108 1.56487 730.627 1.46526C731.083 1.43523 732.746 1.53228 733.047 1.46581C734.041 1.24854 732.475 1.00532 736.505 1.10217C736.682 1.10677 736.119 1.2257 736.73 1.2329C740.679 1.28005 741.152 1.05278 745.421 1.02526C748.767 1.00367 754.718 1.14225 758.528 1.16479C758.448 1.52861 762.047 1.4453 763.506 1.19445C765.979 1.20472 768.65 1.19054 771.04 1.22521C771.862 1.23703 771.322 1.34237 771.426 1.35375C773.016 1.5323 774.091 1.28825 774.625 1.27868C780.409 1.18567 785.122 1.37064 790.643 1.18987C790.839 1.18336 791.156 0.930638 792.632 1.11517C792.727 1.12789 790.904 1.24287 793.501 1.25176C796.098 1.26067 800.995 1.39615 804.601 1.27904C805.473 1.25085 807.68 1.04569 809.452 1.20599C809.688 1.22775 809.429 1.30023 809.77 1.34057C810.871 1.46909 811.473 1.21365 812.767 1.43066C814.061 1.64766 816.754 1.81017 820.39 1.66045C820.506 1.6561 821.367 1.45364 822.51 1.45684C824.336 1.46212 826.927 1.5043 828.834 1.50298C829.746 1.50228 829.162 1.37656 829.321 1.37426C835.457 1.30381 839.825 1.41589 846.399 1.46453C847.604 1.4737 851.067 1.30226 853.4 1.4378C855.962 1.58617 853.33 2.20337 859.218 2.05632C861.593 1.99751 864.6 1.21448 868.868 1.62017C877.145 1.51964 884.8 1.72727 893.101 1.58373C893.474 1.57737 894.654 1.35883 895.532 1.36181C896.835 1.36665 897.55 1.46879 898.48 1.47552C902.378 1.50628 905.945 1.41889 909.703 1.43249C911.13 1.43743 910.631 1.54304 912.333 1.54894C914.034 1.55475 915.168 1.41567 917.472 1.48284C919.213 1.53404 920.954 1.8183 923.264 1.85143C923.352 1.57104 924.939 1.57682 927.759 1.5028C928.301 1.48844 927.72 1.39085 927.976 1.37902C929.02 1.32872 929.986 1.4096 930.977 1.35485C931.218 1.3417 931.229 1.24594 931.426 1.22979C933.102 1.08877 935.863 1.30416 936.338 1.34167C938.155 1.48409 939.004 1.35955 940.398 1.41564C941.79 1.47172 939.709 1.54183 941.335 1.57586C944.705 1.64625 949.034 1.63078 952.457 1.63518C953.822 1.63635 952.891 1.50853 953.086 1.50573C955.91 1.47331 958.765 1.60927 960.331 1.35467C962.289 2.01298 962.034 1.29081 966.07 1.4226C966.388 1.43326 966.792 1.74457 965.572 1.79027C964.351 1.83593 962.5 1.73862 960.807 1.80987C960.406 1.82658 958.108 2.1183 957.795 2.13598C955.339 2.27408 954.992 1.80887 954.862 1.78332C953.389 1.50757 950.581 1.82184 949.842 1.84356C946.46 1.94306 943.587 1.87764 940.758 1.94866C938.908 1.99456 938.727 2.29929 937.274 2.28997C932.445 2.25914 930.759 1.83403 926.208 2.20263C925.232 2.28124 926.202 2.6143 922.706 2.35241C922.486 2.33589 919.89 2.09631 918.39 2.24785C918.202 2.26696 918.208 2.36403 917.959 2.37218C916.295 2.42493 915.184 2.3476 913.371 2.38463C911.557 2.42167 909.376 2.47688 907.306 2.44396C906.058 2.42427 904.457 2.24342 903.859 2.19915C902.173 2.0716 900.364 2.28072 899.319 2.12627C898.265 1.97104 900.325 1.7353 897.562 1.635C897.46 1.88719 897.225 2.14603 897.06 2.39965C891.005 2.39077 885.047 2.30922 878.971 2.32036C878.217 2.322 878.988 2.45757 878.18 2.46282C874.774 2.48436 871.798 2.38771 868.264 2.4262C865.53 2.45651 862.531 2.60005 859.671 2.63622C857.924 2.34765 853.681 2.44561 850.598 2.41924C849.518 2.41013 849.59 2.33305 848.823 2.30791C845.925 2.21492 847.283 2.46993 846.489 2.51006C843.081 2.68133 842.789 2.10414 838.772 2.1184C838.559 2.11896 835.957 2.42663 835.599 2.44579C833.322 2.57073 835.222 2.3387 833.797 2.31597C831.196 2.27442 829.388 2.20095 826.335 2.29107C825.445 2.31776 823.31 2.50953 821.581 2.36119C821.354 2.34177 821.48 2.24007 821.297 2.23412C817.984 2.13484 817.897 2.45439 816.003 2.56261C814.11 2.67081 811.185 2.45022 810.59 2.38665C809.034 2.22218 811.783 2.31636 811.868 2.30022C812.858 2.10815 810.726 2.14122 809.096 2.12499C808.86 1.81167 806.581 1.83048 807.406 2.10943C807.5 2.13989 808.769 2.11068 809.096 2.12499C807.665 2.4324 805.16 2.47177 802.394 2.1845C801.099 2.04986 802.323 1.89288 798.39 1.95031C796.604 1.97623 797.294 2.19197 795.719 2.25078C792.119 2.38498 787.442 2.18373 783.731 2.21544C782.385 2.22695 783.697 2.34505 782.776 2.35698C780.333 2.38903 778.179 2.30042 775.726 2.34581C775.504 2.35008 776.047 2.47369 775.284 2.47527C769.501 2.48963 764.465 2.41045 758.427 2.40825C755.509 2.40725 750.293 2.47543 747.271 2.46172C742.033 2.43869 735.589 2.25893 731.114 2.3026C728.196 2.33055 728.836 2.4542 727.586 2.53844C725.173 2.70174 720.901 2.40923 720.326 2.36394C720.308 2.36244 722.82 2.33329 721.48 2.26983C720.701 2.13758 720.354 2.36337 720.326 2.36394C719.948 2.33468 714.931 2.30661 713.935 2.33025C713.394 2.34317 713.697 2.46031 713.414 2.46483C706.706 2.56967 699.986 2.59944 693.182 2.54467C693.062 2.5423 693.243 2.41127 692.961 2.40734C689.022 2.34908 686.5 2.50937 683.251 2.60454C680.003 2.69967 677.427 2.66781 675.504 2.44286C673.054 2.47118 669.538 2.37173 667.514 2.31139C665.491 2.25105 665.209 2.50612 665.031 2.51116C659.478 2.67255 656.268 2.52655 650.507 2.50383C647.768 2.49259 642.336 2.52959 639.37 2.55748C637.027 2.57995 635.615 2.52018 633.455 2.5584C633.163 2.5635 633.458 2.67707 633.369 2.68144C630.959 2.81732 632.117 2.53969 631.62 2.4901C629.816 2.30978 628.701 2.21375 625.615 2.29857C624.903 2.318 622.829 2.71776 621.532 2.74114C619.844 2.7708 620.481 2.62751 618.715 2.66222C618.563 2.66506 618.595 2.75346 617.505 2.74956C612.444 2.73263 606.926 2.68119 601.666 2.69005C600.948 2.69092 601.869 2.83114 600.831 2.8347C595.96 2.85132 590.622 2.84614 585.877 2.7805C584.709 2.76391 585.441 2.66573 585.187 2.63658C583.631 2.46021 581.424 2.71648 581.059 2.72136C572.372 2.84451 565.722 2.61259 556.867 2.72301C556.385 2.72949 552.675 3.00422 551.02 2.7686C550.906 2.75293 549.269 2.51187 547.821 2.67668C547.731 2.687 548.751 2.8111 546.97 2.79845C545.19 2.78583 542.323 2.8687 539.875 2.73235C539.1 2.68939 537.269 2.44893 534.957 2.64061C534.806 2.65399 531.237 3.08742 529.963 2.78838C529.757 2.73915 529.973 2.4227 527.214 2.58495C526.687 2.6164 527.644 2.68699 526.255 2.73107C524.127 2.799 521.307 2.71424 518.691 2.85521C518.235 2.88017 516.293 3.09496 514.736 2.93193C514.492 2.9064 514.955 2.80075 514.133 2.78893C510.221 2.73221 506.125 2.80288 502.153 2.72978C500.746 2.7041 501.465 2.53331 499.999 2.48754C498.532 2.44178 495.577 2.39777 494.043 2.47582C492.508 2.5539 494.184 2.82611 491.885 2.84789C481.888 2.94249 471.985 2.78281 462.003 2.75945C460.522 2.75596 461.75 2.85336 459.568 2.85521C451.524 2.86246 437.636 2.95378 430.656 2.74681C425.063 2.58104 432.101 2.45484 427.828 2.38738C425.765 2.3552 423.534 2.67166 423.036 2.68163C418.173 2.78283 414.793 2.64265 410.416 2.68566C409.512 2.69458 410.399 2.82285 409.629 2.82903C407.001 2.85127 404.24 2.79402 401.729 2.80449C400.602 2.80948 400.81 2.90745 399.773 2.89989C397.293 2.88293 395.1 2.84175 392.682 2.74993C392.462 2.74156 393.948 2.61969 392.113 2.61516C389.143 2.60817 385.457 2.51759 382.04 2.61113C381.026 2.63927 380.986 2.86317 378.807 2.70854C378.35 2.67625 378.933 2.4074 376.394 2.6397C375.967 2.6783 371.703 2.99163 369.61 2.78966C369.058 2.7365 367.649 2.5165 366.43 2.55107C366.265 2.55659 366.927 2.67686 365.917 2.68859C362.356 2.72784 358.625 2.715 354.967 2.75267C353.99 2.76297 355.445 2.88742 353.989 2.89879C349.986 2.93025 344.988 2.89856 341.073 2.85961C339.63 2.84501 340.627 2.74192 340.522 2.7307C338.833 2.54823 337.835 2.79452 337.274 2.80889C333.788 2.89488 331.134 2.77918 327.921 2.8098C327.034 2.81794 327.663 2.93538 327.486 2.94585C325.655 3.04816 327.019 2.83726 325.86 2.81401C322.614 2.74819 318.995 2.75762 315.712 2.77263C314.506 2.77832 315.862 2.91449 314.78 2.91802C308.374 2.94148 301.716 2.92845 295.465 2.85338C294.288 2.839 295.028 2.73414 294.783 2.71019C293.092 2.54264 290.615 2.77118 290.044 2.79296C287.452 2.89236 286.445 2.79964 284.156 2.81694C272.972 2.90311 259.163 2.8417 248.606 2.80376C234.849 2.75493 224.174 2.65518 211.055 2.68108C210.222 2.68259 211.062 2.82209 210.344 2.82518C201.064 2.85881 191.929 2.8043 182.63 2.84459C181.867 2.84765 182.967 2.97989 181.743 2.98924C179.231 3.00936 176.049 3.00217 173.509 2.95995C172.27 2.9396 173.932 2.82613 172.685 2.80797C169.781 2.76543 166.669 2.75601 163.687 2.77721C162.418 2.78652 164.332 2.92177 162.683 2.92333C151.446 2.93674 140.41 2.96004 129.055 2.7849C128.276 2.77287 127.593 2.498 125.938 2.55071C125.813 2.62699 125.82 2.71673 125.766 2.79827C109.407 2.84219 93.2163 2.7469 76.8123 2.73217C76.1207 2.73158 77.316 2.87722 75.9769 2.87682C68.227 2.87466 60.7013 2.91501 52.774 2.77025C51.9874 2.75609 52.3909 2.49987 50.0731 2.53862C49.6642 2.54569 46.1732 2.57987 45.2706 2.63549C45.1481 2.64388 45.785 2.76347 44.66 2.76695C38.1227 2.78512 31.272 2.75781 24.7461 2.68474C23.6928 2.67272 24.8145 2.54536 24.0643 2.53569C18.743 2.46809 12.9549 2.5649 7.87017 2.44927C4.46661 2.37141 5.72671 2.15126 3.9181 1.93456C3.66229 1.90399 1.5547 1.89914 1.44571 1.77306C1.1659 1.45602 2.18675 1.10886 1.76787 0.770929C1.67937 0.69814 -1.14323 0.776538 0.527932 0.600641C0.64468 0.588869 2.69108 0.53049 3.19511 0.47082C3.54603 0.429565 2.91366 0.301341 3.62965 0.24853C4.34559 0.195769 5.1323 0.303253 6.31931 0.241206C7.50579 0.178391 6.98408 0.032522 9.3536 0.0152547ZM658.404 2.04168C656.53 1.91918 656.254 2.36783 658.28 2.26049C658.378 2.25477 658.5 2.04769 658.404 2.04168ZM885.08 1.97081C882.631 1.77293 880.955 2.0639 882.683 2.21672C884.411 2.36939 885.827 2.0308 885.08 1.97081ZM910.479 1.82635C907.616 1.67032 907.165 2.30652 910.231 2.17791C910.41 2.17064 910.646 1.8354 910.479 1.82635ZM12.3055 1.87285C12.2796 1.8669 10.7646 1.86109 10.7284 1.86699C9.92168 2.00948 12.9511 2.02099 12.3055 1.87285ZM935.682 1.66906C934.788 1.583 932.216 1.68234 933.326 1.78936C934.22 1.87545 936.795 1.77611 935.682 1.66906ZM560.673 1.56286C560.644 1.55617 559.558 1.55015 559.58 1.58794C559.653 1.70966 561.165 1.67531 560.673 1.56286ZM978.518 1.66173C972.189 1.63779 968.352 1.11226 975.244 1.17156C976.492 1.18229 972.554 1.33915 974.143 1.38653C977.049 1.47284 978.979 1.14288 981.946 1.31969C982.483 1.35206 978.879 1.66427 978.507 1.66247C978.51 1.66222 978.514 1.66198 978.518 1.66173ZM657.325 1.5028C657.288 1.49687 655.784 1.49124 655.748 1.49712C654.934 1.63955 657.963 1.65097 657.325 1.5028ZM497.294 1.28545C497.211 1.27281 493.722 1.26099 493.608 1.27264C491.788 1.50555 498.842 1.53014 497.294 1.28545ZM758.588 1.17449C760.229 1.03121 762.191 1.01433 763.499 1.19427C761.869 1.18472 760.227 1.18331 758.588 1.17449Z" fill="var(--stroke-0, white)"/>
</svg>
