<svg preserveAspectRatio="none" width="100%" height="100%" overflow="visible" style="display: block;" viewBox="0 0 31 18" fill="none" xmlns="http://www.w3.org/2000/svg">
<path id="Vector" d="M18.7714 8.65829C18.2046 8.44551 18.2046 7.63289 18.1694 7.067C18.0277 5.05129 18.7363 1.97397 17.886 0.66563C17.284 -0.113038 14.3784 -0.0417353 12.6075 0.0646524C12.111 0.135955 11.509 0.241212 11.0838 0.453987C10.6587 0.666762 10.2335 1.01988 10.2335 1.33791C10.2335 1.79741 11.297 1.72724 11.6858 2.32822C12.111 2.96541 12.111 4.34393 12.111 5.47571C12.111 6.78405 11.8978 8.51795 11.3672 8.58812C10.5521 8.6232 10.0918 7.80945 9.66669 7.20847C8.81642 6.0416 7.96614 4.59066 7.32787 3.17593C7.0093 2.43348 6.83131 1.61972 6.37103 1.30169C5.66247 0.805971 4.38705 0.770886 3.14679 0.805972C2.01308 0.841057 0.382824 0.699584 0.0642544 1.37186C-0.184026 2.11431 0.347679 2.82168 0.631105 3.42379C2.08337 6.57128 3.64221 9.33057 5.5559 11.9473C7.32787 14.3874 8.99214 16.3329 12.2515 17.3583C13.1732 17.6413 17.2115 18.455 18.0266 17.3583C18.31 16.9339 18.2397 15.9787 18.3814 15.2713C18.5232 14.5639 18.7 13.8566 19.3734 13.8215C19.9403 13.7864 20.2589 14.281 20.6137 14.6352C21.0037 15.0246 21.3223 15.3426 21.6057 15.6969C22.2791 16.3691 22.9877 17.2881 23.8379 17.6424C25.0068 18.1381 26.8139 17.9966 28.5145 17.9253C29.8964 17.8902 30.8884 17.6073 30.995 16.7936C31.0664 16.1564 30.3567 15.2373 29.9316 14.7065C28.8682 13.3982 28.3727 13.0089 27.1676 11.8058C26.6359 11.275 25.9625 10.7091 25.9625 10.073C25.9274 9.68368 26.2459 9.33057 26.5293 8.94123C27.7696 7.10209 29.0099 5.79374 30.1436 3.88329C30.4622 3.3174 31.207 2.00906 30.9236 1.37186C30.605 0.664499 28.833 0.876141 27.7345 0.876141C26.3173 0.876141 24.4751 0.769754 24.1202 1.0527C23.4468 1.5122 23.1634 2.25579 22.8448 2.96315C22.1363 4.59066 21.1794 6.25212 20.1874 7.49029C19.8326 7.91471 19.1603 8.79863 18.7703 8.65716L18.7714 8.65829Z" fill="var(--fill-0, white)"/>
</svg>
