<svg preserveAspectRatio="none" width="100%" height="100%" overflow="visible" style="display: block;" viewBox="0 0 868 213" fill="none" xmlns="http://www.w3.org/2000/svg">
<path id="Vector 73" d="M13.6211 208.349C21.6998 206.008 32.3108 203 40.375 200.735C42.9042 200.024 41.6397 200.441 43.3867 199.953C46.802 198.998 49.9672 198.067 53.3461 197.129C54.4658 196.818 53.0978 197.295 54.2715 196.968C60.6935 195.174 66.766 193.422 73.2667 191.592C105.314 182.571 136.826 173.73 169.328 164.802C180.027 161.861 193.091 158.361 204.157 155.321C205.453 154.965 204.661 155.104 204.906 155.031C208.737 153.895 207.49 154.388 210.013 153.724C220.065 151.081 231.148 148.109 240.797 145.506C244.899 144.399 240.75 145.353 244.889 144.336C245.177 144.265 244.159 144.617 245.283 144.326C247.829 143.668 252.673 142.367 254.66 141.848C258.458 140.855 259.088 140.688 262.695 139.737C267.656 138.431 273.471 136.944 278.789 135.535C279.92 135.236 278.406 135.548 280.201 135.065C281.989 134.584 286.754 133.349 288.372 132.949C289.988 132.548 289.318 132.787 289.607 132.727C292.002 132.23 297.443 130.646 298.158 130.458C311.108 127.037 322.208 124.298 334.395 121.211C343.626 118.872 353.513 116.358 362.304 114.173C370.707 112.085 378.045 110.301 385.927 108.372C387.871 107.897 389.847 107.413 391.879 106.914C392.954 106.651 391.671 106.867 392.985 106.545C406.955 103.118 420.826 99.7785 434.759 96.5125C436.156 96.1851 434.377 96.6957 435.774 96.3735C444.344 94.3927 457.888 91.3508 462.876 89.805C468.668 88.4523 475.7 86.8145 480.896 85.6724C484.247 84.9358 481.023 85.783 485.118 84.7854C486.042 84.5607 484.82 84.7651 486.206 84.4339C492.045 83.0394 498.429 81.5789 504.207 80.1958C505.382 79.9144 505.044 79.9201 505.375 79.8303C508.153 79.0793 512.852 78.1666 513.87 77.9441C521.645 76.2408 527.263 74.9093 534.497 73.2497C536.172 72.8656 534.171 73.2275 535.782 72.8547C544.12 70.9264 552.792 68.9522 560.983 67.1301C562.809 66.7241 561.15 67.185 562.023 66.9951C565.872 66.1576 566.688 65.8153 570.364 65.0139C571.139 64.8449 570.719 65.0115 570.862 64.9869C573.091 64.6032 574.998 63.997 575.565 63.8647C582.769 62.1789 587.396 61.3141 594.365 59.716C595.196 59.5253 593.302 59.8626 595.638 59.3319C611.238 55.7892 627.746 52.1156 643.198 48.7447C645.615 48.2175 643.906 48.6657 644.06 48.6398C646.562 48.2125 648.116 47.6924 648.896 47.5121C654.998 46.107 660.909 44.941 665.011 43.8239C691.24 38.0797 717.237 32.2475 743.276 26.7368C743.607 26.6665 743.033 26.8779 743.693 26.7375C751.54 25.0693 750.111 25.2488 755.298 23.9521C756.601 23.6265 760.628 22.9438 761.02 22.8726C762.344 22.6367 761.009 23.0557 761.451 22.9695C765.089 22.2559 764.41 21.9822 769.203 20.9357C769.359 20.9025 768.723 21.1188 769.141 21.0354C770.439 20.7763 771.702 20.4697 772.949 20.2245C775.828 19.658 776.713 19.6699 781.138 18.585C781.677 18.4518 780.827 18.398 785.114 17.4739C786.46 17.1843 792.491 15.8657 795.325 15.2557C795.854 15.1418 796.295 15.0473 796.615 14.9797C798.796 14.5188 797.317 14.919 797.473 14.8882C803.294 13.7188 801.023 14.257 803.967 13.7649C806.949 13.2638 806.045 13.1025 807.218 12.8059C808.365 12.5155 812.603 11.6731 813.671 11.4691C814.714 11.2702 813.432 11.5995 814.356 11.4142C820.351 10.2119 816.992 10.6598 818.992 10.1658C823.707 9.00046 827.409 8.45769 831.833 7.51917C833.009 7.26987 832.042 7.41998 833.076 7.18897C837.196 6.27011 839.778 5.79082 844.418 4.71199C845.23 4.52395 849.047 3.54141 851.451 3.1481C851.819 3.08685 850.807 3.36774 852.641 2.99322C855.224 2.46728 860.068 1.46511 862.914 0.908332C864.954 0.516789 862.601 0.826456 865.236 0.402063C866.459 0.226418 864.24 0.622071 866.486 0.317985C866.63 0.301448 866.774 0.286509 866.911 0.275125C867.129 0.257064 867.291 0.247566 867.465 0.254961C867.536 0.258478 867.595 0.265489 867.647 0.279023C867.673 0.28591 867.696 0.294401 867.72 0.307045C867.727 0.305183 867.822 0.37843 867.81 0.454804C867.769 0.614174 867.724 0.597689 867.689 0.639378C867.65 0.671426 867.603 0.704532 867.545 0.740335C867.367 0.849313 867.168 0.945424 866.958 1.04306C866.119 1.42483 865.251 1.75953 864.289 2.13227C862.453 2.83762 860.543 3.54758 859.559 3.9195C857.507 4.69299 858.665 4.34442 858.498 4.413C857.982 4.62486 856.66 5.1428 855.452 5.61988C854.409 6.03168 853.421 6.42381 853.273 6.48112C835.923 13.2721 820.009 19.7992 803.151 26.5252C801.825 27.0553 802.741 26.7837 802.539 26.8654C798.023 28.6926 801.507 27.07 798.315 28.2483C798.837 28.2284 796.956 28.9393 793.761 30.2074C792.224 30.8171 793.087 30.5523 792.949 30.6135C790.697 31.6006 789.057 32.0921 788.635 32.226C787.084 32.7189 785.472 33.4619 784.416 33.7943C783.359 34.1267 785.702 33.13 782.624 34.3035C781.782 34.6895 784.127 33.9727 781.797 34.885C779.521 35.7753 776.721 36.8389 773.697 37.9572C765.043 41.1676 754.513 44.7696 749.197 46.592C742.03 49.0497 739.717 49.8438 735.536 51.2466C727.983 53.7759 730.784 52.9484 726.116 54.5957C721.445 56.2447 723.624 55.1901 722.93 55.3595C722.235 55.5289 721.55 55.8318 720.711 56.0811C719.877 56.3289 721.646 55.6793 719.704 56.3285C717.771 56.9736 712.52 58.8926 711.853 59.1931C710.456 59.8227 712.885 59.1416 707.754 60.8548C707.461 60.9529 708.386 60.5512 707.261 60.9311C698.303 63.9599 689.024 67.2113 680.124 70.3425C678.899 70.7736 679.964 70.3001 679.249 70.5506C671.827 73.1593 674.512 72.3507 670.518 73.9691C671.297 73.4729 669.367 74.0313 664.506 75.7912C664.17 75.9132 663.818 76.0413 663.451 76.1757C660.093 77.4075 660.669 77.2971 658.536 78.1542C657.897 78.4112 655.474 79.2385 655.058 79.4404C653.689 80.1039 656.005 79.4132 650.19 81.5091C649.938 81.6 650.711 81.2271 649.84 81.5467C644.177 83.6286 643.543 84.0282 637.455 86.3447C632.676 88.1634 624.141 91.3157 618.698 93.3931C618.727 93.1213 613.608 95.1498 611.589 96.1107C608.058 97.4673 604.257 98.9527 600.845 100.258C599.67 100.707 600.414 100.341 600.264 100.392C597.954 101.165 596.484 101.914 595.727 102.218C587.514 105.498 580.769 108.028 572.973 111.261C572.696 111.377 572.304 111.714 570.164 112.435C570.026 112.481 572.582 111.378 568.898 112.843C565.202 114.312 558.23 117.015 553.153 119.157C551.911 119.681 548.86 121.066 546.295 121.998C545.955 122.121 546.303 121.927 545.81 122.099C544.215 122.657 543.45 123.154 541.547 123.777C539.658 124.395 535.824 125.85 530.714 128.079C530.546 128.152 529.412 128.769 527.774 129.449C525.197 130.518 521.543 132.02 518.846 133.16C517.558 133.705 518.415 133.434 518.192 133.53C514.562 135.086 511.299 136.477 508.152 137.821C503.806 139.68 499.504 141.515 494.239 143.875C492.522 144.641 487.787 146.939 484.541 148.426C481.012 150.084 484.366 147.812 476.43 152.125C474.843 153.024 473.127 154.153 471.158 155.585C470.166 156.316 469.143 157.09 468.101 158.051C467.171 159.009 465.712 160.136 466.1 161.917C467.327 164.106 470.041 164.325 472.189 164.822C474.446 165.226 476.687 165.44 478.981 165.604C486.638 166.104 494.278 166.032 502.263 165.804C502.811 165.788 504.685 165.596 505.978 165.56C507.948 165.507 509.093 165.538 510.482 165.495C516.437 165.313 521.886 165.019 527.633 164.758C529.796 164.659 529.034 164.766 531.654 164.642C534.219 164.519 536.009 164.337 539.487 164.2C542.168 164.094 544.802 164.144 548.349 163.972C548.461 163.779 550.908 163.65 555.191 163.361C556.017 163.305 555.127 163.289 555.517 163.26C557.105 163.137 558.607 163.106 560.099 162.985C560.465 162.956 560.479 162.891 560.778 162.863C563.341 162.624 567.547 162.527 568.28 162.51C571.083 162.444 572.336 162.289 574.482 162.203C576.619 162.117 573.429 162.348 575.924 162.227C581.051 161.979 587.676 161.587 592.895 161.292C594.988 161.174 593.555 161.17 593.855 161.151C598.147 160.886 602.519 160.731 604.902 160.429C607.923 160.701 607.491 160.241 613.665 159.993C614.15 159.974 614.776 160.148 612.92 160.279C611.055 160.411 608.225 160.501 605.647 160.692C605.031 160.737 601.535 161.127 601.061 161.165C597.319 161.468 596.765 161.189 596.567 161.183C594.322 161.126 590.028 161.58 588.912 161.659C583.748 162.021 579.357 162.231 575.054 162.526C572.219 162.72 571.963 162.938 569.753 163.059C562.378 163.461 559.777 163.326 552.861 163.958C551.37 164.093 552.838 164.236 547.521 164.352C547.165 164.36 543.22 164.414 540.918 164.636C540.629 164.664 540.642 164.728 540.262 164.754C537.73 164.921 536.016 164.958 533.258 165.12C530.49 165.283 527.172 165.48 523.993 165.601C522.129 165.672 519.611 165.659 518.725 165.666C516.13 165.689 513.422 165.93 511.779 165.884C510.168 165.836 513.284 165.574 509.101 165.647C508.953 165.82 508.588 166.005 508.339 166.182C499.085 166.446 489.97 166.626 480.635 166.183C479.475 166.12 480.645 166.278 479.424 166.208C479.261 166.198 479.101 166.188 478.942 166.178C476.401 166.005 474.036 165.763 471.652 165.294C470.475 165.054 469.251 164.76 468.055 164.248C467.47 163.988 466.861 163.681 466.298 163.144C465.759 162.665 465.323 161.722 465.484 160.893C467.395 156.199 471.932 154.491 475.65 152.115C478.058 150.957 483.856 147.953 488.133 145.986C489.613 145.3 489.542 145.39 490.637 144.902C494.651 143.128 492.735 143.823 493.829 143.295C498.533 141.051 499.084 141.228 504.72 138.758C504.918 138.672 506.624 137.828 507.89 137.212C508.457 136.934 508.925 136.708 509.082 136.635C512.251 135.185 509.632 136.476 511.661 135.624C515.298 134.1 517.899 133.05 522.162 131.194C523.424 130.644 526.355 129.278 528.865 128.342C529.188 128.221 529.038 128.357 529.295 128.254C533.984 126.379 534.035 126.131 536.684 124.96C539.336 123.788 543.541 122.226 544.386 121.927C546.625 121.131 542.725 122.656 542.607 122.717C541.252 123.41 544.251 122.157 546.569 121.224C546.992 121.277 550.2 119.958 548.966 120.26C548.827 120.294 547.042 121.042 546.569 121.224C548.522 120.207 552.062 118.739 556.048 117.335C557.925 116.675 556.22 117.472 561.787 115.191C564.32 114.155 563.278 114.418 565.5 113.485C570.575 111.354 577.277 108.833 582.541 106.731C584.456 105.966 582.561 106.63 583.865 106.106C587.329 104.716 590.418 103.565 593.899 102.169C594.215 102.042 593.412 102.268 594.497 101.842C602.728 98.6108 609.927 95.8734 618.545 92.5639C622.713 90.9614 630.136 88.0799 634.468 86.4512C641.948 83.6317 651.243 80.2817 657.646 77.8878C661.798 76.3358 660.891 76.5842 662.655 75.8759C663.156 75.675 663.715 75.4601 664.304 75.2397C667.8 73.9315 672.415 72.4147 673.114 72.1899C673.147 72.1785 669.551 73.5026 671.488 72.8452C672.635 72.5234 673.073 72.2051 673.114 72.1899C673.682 72.0022 680.899 69.4272 682.322 68.9066C683.104 68.6184 682.639 68.7015 683.047 68.553C692.676 65.0463 702.368 61.6453 712.222 58.3007C712.397 58.2423 712.163 58.4151 712.574 58.2767C718.288 56.3571 721.899 55.0149 726.58 53.3537C731.261 51.6936 734.991 50.447 737.82 49.6403C741.361 48.4132 746.462 46.7345 749.399 45.7601C752.335 44.787 752.684 44.4831 752.939 44.3912C760.768 41.547 765.393 40.006 773.375 37.0868C773.526 37.0317 773.677 36.9761 773.829 36.9199C777.758 35.483 785.511 32.5152 789.726 30.8555C793.061 29.5472 795.082 28.7988 798.145 27.5653C798.558 27.3986 798.111 27.4934 798.237 27.4407C801.628 26.0048 800.051 26.8257 800.77 26.5771C803.375 25.6743 804.986 25.1045 809.343 23.2984C810.343 22.884 813.187 21.4538 815.022 20.6963C817.403 19.7143 816.542 20.1651 819.033 19.1327C819.246 19.0443 819.184 19.0061 820.725 18.3849C827.892 15.4961 835.733 12.3331 843.186 9.34131C844.213 8.92967 842.866 9.36767 844.341 8.77553C847.785 7.39435 851.444 5.94585 855.051 4.57187C858.704 3.17149 862.322 1.89457 865.678 0.563355C866.483 0.23338 866.607 0.182162 866.608 0.206811C866.611 0.227612 866.48 0.311764 866.631 0.252156C866.769 0.195798 866.918 0.128166 867.012 0.0813157C867.049 0.0640089 867.13 0.0178756 867.151 0.0041809C867.163 -0.0024571 867.162 -0.00301767 867.144 0.0162357C867.133 0.0324067 867.131 0.0143683 867.058 0.137754C866.991 0.231314 866.924 0.58423 867.092 0.817139C867.161 0.925201 867.262 0.996745 867.292 1.01439C867.319 1.03116 867.343 1.04284 867.362 1.0516C867.402 1.06895 867.427 1.0753 867.442 1.07886C867.473 1.08519 867.466 1.08095 867.44 1.07912C867.381 1.07511 867.35 1.07483 867.283 1.07614C867.161 1.07822 866.948 1.09663 866.834 1.1091C866.189 1.18039 865.578 1.29275 864.971 1.40987C863.804 1.63959 862.875 1.86561 862.582 1.92269C849.654 4.59006 839.611 6.70637 826.465 9.63162C825.684 9.80645 820.316 11.1665 817.687 11.5806C817.492 11.6125 815.125 11.9653 812.945 12.5544C812.807 12.5915 814.382 12.332 811.667 12.9169C809.051 13.4801 804.66 14.4963 801.088 15.1835C800.158 15.3629 798.182 15.6825 795.55 16.2849C794.971 16.4179 794.358 16.5659 793.717 16.7306C793.539 16.7787 788.186 18.2428 786.261 18.4588C785.943 18.4946 786.256 18.2105 782.161 19.2148C781.372 19.4082 782.825 19.1393 780.737 19.6251C777.441 20.3907 773.442 21.2054 769.421 22.1793C768.728 22.3476 765.938 23.1032 763.57 23.5089C763.201 23.5722 763.882 23.3513 762.645 23.6134C756.759 24.86 750.589 26.2564 744.746 27.4847C742.643 27.9271 743.696 27.5802 741.487 28.0324C739.229 28.4953 734.891 29.4149 732.598 29.9706C730.309 30.5255 732.869 30.1503 729.41 30.9233C714.494 34.2571 699.698 37.4018 684.796 40.6771C682.576 41.165 684.435 40.8208 681.153 41.5473C669.175 44.1974 648.462 48.8595 638.002 51.0542C629.652 52.8048 640.118 50.3822 633.738 51.7605C630.659 52.426 627.332 53.3863 626.614 53.5537C619.422 55.2321 614.288 56.2878 607.806 57.774C606.46 58.0828 607.801 57.869 606.654 58.131C602.73 59.0285 598.595 59.9205 594.867 60.7688C593.189 61.1507 593.513 61.1446 591.965 61.4888C588.255 62.3147 584.974 63.0281 581.368 63.7819C581.038 63.8508 583.233 63.2706 580.5 63.8863C576.072 64.8842 570.549 66.0753 565.482 67.2919C563.975 67.6541 563.95 67.8125 560.672 68.4533C559.987 68.5876 560.809 68.2159 557.062 69.229C556.435 69.3981 550.136 71.0501 546.98 71.6345C546.15 71.788 544.004 72.1285 542.202 72.5652C541.957 72.6251 542.96 72.4775 541.459 72.8294C536.174 74.0674 530.584 75.343 525.158 76.6193C523.705 76.961 525.89 76.5427 523.724 77.0497C517.763 78.445 510.317 80.146 504.48 81.4745C502.328 81.9642 503.799 81.5522 503.641 81.5812C501.097 82.0471 499.647 82.5529 498.816 82.7562C493.64 84.0192 489.67 84.8662 484.891 86.0047C483.573 86.3188 484.526 86.176 484.265 86.2443C481.556 86.9485 483.554 86.3364 481.825 86.7252C476.982 87.8142 471.604 89.0839 466.717 90.246C464.923 90.6727 466.961 90.2856 465.351 90.6675C455.83 92.9284 445.931 95.2682 436.612 97.4433C434.86 97.8522 435.945 97.5211 435.577 97.5927C433.036 98.0848 429.396 99.1139 428.555 99.3308C424.706 100.322 423.194 100.623 419.796 101.453C409.435 103.986 397.489 106.885 386.237 109.635C379.406 111.304 372.928 112.893 367.008 114.355C346.594 119.396 330.761 123.33 311.345 128.327C310.112 128.645 311.378 128.416 310.316 128.691C296.574 132.243 283.09 135.71 269.332 139.353C268.209 139.65 269.851 139.31 268.049 139.79C264.332 140.781 259.617 142.021 255.875 142.982C254.048 143.452 256.477 142.731 254.634 143.206C250.315 144.321 245.733 145.532 241.335 146.72C239.456 147.228 242.316 146.558 239.873 147.211C223.282 151.65 207.004 156.067 190.231 160.533C189.08 160.839 188.023 160.939 185.596 161.64C185.426 161.739 185.452 161.794 185.386 161.869C161.285 168.504 137.419 175.085 113.293 181.867C112.277 182.153 114.061 181.751 112.09 182.306C100.683 185.518 89.622 188.676 77.9455 191.893C76.7853 192.213 77.3315 191.88 73.9291 192.874C73.3279 193.05 68.2062 194.531 66.89 194.944C66.7111 195.001 67.6702 194.811 66.0154 195.285C56.4051 198.034 46.3375 200.889 36.73 203.586C35.1806 204.021 36.8049 203.468 35.7012 203.777C27.8679 205.97 19.3803 208.468 11.8886 210.533C6.87265 211.916 8.68391 211.245 5.98644 211.867C5.60491 211.955 2.50717 212.839 2.32389 212.804C1.85453 212.719 3.29079 212.067 2.61326 212.026C2.46985 212.017 -1.66314 213.255 0.760082 212.439C0.929458 212.383 3.92564 211.484 4.65533 211.233C5.16341 211.059 4.21064 211.243 5.25304 210.908C6.29538 210.573 7.47115 210.31 9.20418 209.771C10.9363 209.231 10.1432 209.357 13.6211 208.349ZM762.594 41.3246C765.318 40.4386 765.614 40.0144 762.723 41.1238C762.583 41.1777 762.454 41.3704 762.594 41.3246ZM490.014 166.193C486.274 166.04 483.67 166.145 486.329 166.312C488.954 166.465 491.187 166.235 490.014 166.193ZM528.82 164.965C524.457 165.066 523.774 165.522 528.456 165.217C528.726 165.199 529.075 164.958 528.82 164.965ZM18.2996 208.298C18.2605 208.305 16.0331 208.938 15.981 208.957C14.8217 209.388 19.2755 208.121 18.2996 208.298ZM567.29 162.785C565.925 162.806 562.004 163.096 563.706 163.071C565.072 163.05 568.991 162.759 567.29 162.785ZM831.982 7.63614C831.942 7.64024 830.293 7.99567 830.327 8.01407C830.468 8.06632 832.737 7.54833 831.982 7.63614ZM632.676 159.159C623.014 159.63 617.134 159.595 627.66 159.086C629.563 158.995 623.565 159.409 625.988 159.316C630.424 159.144 633.36 158.776 637.9 158.672C638.721 158.653 633.224 159.132 632.659 159.16C632.665 159.16 632.671 159.159 632.676 159.159ZM764.268 41.1083C764.323 41.0933 766.487 40.3199 766.538 40.2969C767.676 39.7867 763.318 41.3452 764.268 41.1083ZM737.252 28.139C737.138 28.1552 731.956 29.2822 731.776 29.3296C729.105 30.0735 739.591 27.7936 737.252 28.139ZM618.61 93.4199C616.303 94.4082 613.508 95.4978 611.6 96.1067C613.926 95.2145 616.269 94.3129 618.61 93.4199Z" fill="var(--stroke-0, white)"/>
</svg>
